<svg width="26" height="26" viewBox="0 0 26 26" fill="none" xmlns="http://www.w3.org/2000/svg">
<g clip-path="url(#clip0_107_143)">
<path d="M8.125 4.87698V6.50198H23.5625V9.71872L21.7598 15.4395H7.61373L5.58248 0.8125H0.8125V2.4375H4.16752L6.19877 17.0645H22.9515L25.1875 9.96867V4.87698H8.125Z" fill="#5A1F06"/>
<path d="M8.9873 18.7051C8.12565 18.7061 7.29957 19.0488 6.69029 19.6581C6.08101 20.2673 5.73829 21.0934 5.7373 21.9551C5.7373 22.817 6.07971 23.6437 6.68921 24.2532C7.2987 24.8627 8.12535 25.2051 8.9873 25.2051C9.84926 25.2051 10.6759 24.8627 11.2854 24.2532C11.8949 23.6437 12.2373 22.817 12.2373 21.9551C12.2363 21.0934 11.8936 20.2673 11.2843 19.658C10.675 19.0488 9.84896 18.706 8.9873 18.7051ZM8.9873 23.5801C8.66591 23.5801 8.35173 23.4848 8.0845 23.3062C7.81727 23.1277 7.60899 22.8739 7.486 22.5769C7.36301 22.28 7.33083 21.9533 7.39353 21.6381C7.45623 21.3228 7.611 21.0333 7.83826 20.806C8.06552 20.5788 8.35506 20.424 8.67028 20.3613C8.9855 20.2986 9.31224 20.3308 9.60917 20.4538C9.9061 20.5768 10.1599 20.785 10.3384 21.0523C10.517 21.3195 10.6123 21.6337 10.6123 21.9551C10.6118 22.3859 10.4404 22.7989 10.1358 23.1036C9.83115 23.4082 9.41812 23.5796 8.9873 23.5801Z" fill="#5A1F06"/>
<path d="M20.3623 18.7051C19.5007 18.7061 18.6746 19.0488 18.0653 19.6581C17.456 20.2673 17.1133 21.0934 17.1123 21.9551C17.1123 22.817 17.4547 23.6437 18.0642 24.2532C18.6737 24.8627 19.5004 25.2051 20.3623 25.2051C21.2243 25.2051 22.0509 24.8627 22.6604 24.2532C23.2699 23.6437 23.6123 22.817 23.6123 21.9551C23.6113 21.0934 23.2686 20.2673 22.6593 19.658C22.05 19.0488 21.224 18.706 20.3623 18.7051ZM20.3623 23.5801C20.0409 23.5801 19.7267 23.4848 19.4595 23.3062C19.1923 23.1277 18.984 22.8739 18.861 22.5769C18.738 22.28 18.7058 21.9533 18.7685 21.6381C18.8312 21.3228 18.986 21.0333 19.2133 20.806C19.4405 20.5788 19.7301 20.424 20.0453 20.3613C20.3605 20.2986 20.6872 20.3308 20.9842 20.4538C21.2811 20.5768 21.5349 20.785 21.7134 21.0523C21.892 21.3195 21.9873 21.6337 21.9873 21.9551C21.9868 22.3859 21.8154 22.7989 21.5108 23.1036C21.2062 23.4082 20.7931 23.5796 20.3623 23.5801Z" fill="#5A1F06"/>
</g>
<defs>
<clipPath id="clip0_107_143">
<rect width="26" height="26" fill="white"/>
</clipPath>
</defs>
</svg>
