<svg width="29" height="29" viewBox="0 0 29 29" fill="none" xmlns="http://www.w3.org/2000/svg">
<path d="M7.06859 20.6623C8.09567 19.8769 9.24359 19.2577 10.5123 18.8045C11.7811 18.3514 13.1103 18.1248 14.4998 18.1248C15.8894 18.1248 17.2186 18.3514 18.4873 18.8045C19.7561 19.2577 20.904 19.8769 21.9311 20.6623C22.6359 19.8366 23.1847 18.9002 23.5774 17.853C23.9702 16.8057 24.1665 15.688 24.1665 14.4998C24.1665 11.8214 23.225 9.54064 21.342 7.65765C19.459 5.77466 17.1783 4.83317 14.4998 4.83317C11.8214 4.83317 9.54064 5.77466 7.65765 7.65765C5.77466 9.54064 4.83317 11.8214 4.83317 14.4998C4.83317 15.688 5.02952 16.8057 5.42223 17.853C5.81494 18.9002 6.36373 19.8366 7.06859 20.6623ZM14.4998 15.7082C13.3116 15.7082 12.3097 15.3004 11.4941 14.4847C10.6785 13.6691 10.2707 12.6672 10.2707 11.479C10.2707 10.2908 10.6785 9.2889 11.4941 8.47328C12.3097 7.65765 13.3116 7.24984 14.4998 7.24984C15.688 7.24984 16.6899 7.65765 17.5056 8.47328C18.3212 9.2889 18.729 10.2908 18.729 11.479C18.729 12.6672 18.3212 13.6691 17.5056 14.4847C16.6899 15.3004 15.688 15.7082 14.4998 15.7082ZM14.4998 26.5832C12.8283 26.5832 11.2575 26.266 9.78734 25.6316C8.3172 24.9972 7.03838 24.1363 5.95088 23.0488C4.86338 21.9613 4.00244 20.6825 3.36807 19.2123C2.73369 17.7422 2.4165 16.1714 2.4165 14.4998C2.4165 12.8283 2.73369 11.2575 3.36807 9.78734C4.00244 8.3172 4.86338 7.03838 5.95088 5.95088C7.03838 4.86338 8.3172 4.00244 9.78734 3.36807C11.2575 2.73369 12.8283 2.4165 14.4998 2.4165C16.1714 2.4165 17.7422 2.73369 19.2123 3.36807C20.6825 4.00244 21.9613 4.86338 23.0488 5.95088C24.1363 7.03838 24.9972 8.3172 25.6316 9.78734C26.266 11.2575 26.5832 12.8283 26.5832 14.4998C26.5832 16.1714 26.266 17.7422 25.6316 19.2123C24.9972 20.6825 24.1363 21.9613 23.0488 23.0488C21.9613 24.1363 20.6825 24.9972 19.2123 25.6316C17.7422 26.266 16.1714 26.5832 14.4998 26.5832Z" fill="#5A1F06"/>
</svg>
