<svg width="79" height="79" viewBox="0 0 79 79" fill="none" xmlns="http://www.w3.org/2000/svg">
<circle cx="39.5" cy="39.5" r="39.5" fill="white"/>
<g clip-path="url(#clip0_418_2222)">
<path d="M53.3214 29.7411C53.3214 39.0367 43.5608 45.7487 40.9199 47.3947C40.4926 47.661 40.0035 47.7857 39.5 47.7857C38.9965 47.7857 38.5074 47.661 38.0801 47.3947C35.4392 45.7487 25.6786 39.0368 25.6786 29.7411C25.6786 22.1077 31.8666 15.9196 39.5 15.9196C47.1334 15.9196 53.3214 22.1077 53.3214 29.7411Z" fill="#FF7972"/>
<path fill-rule="evenodd" clip-rule="evenodd" d="M39.5 17.8393C32.9268 17.8393 27.5982 23.1679 27.5982 29.7411C27.5982 33.705 29.6875 37.2626 32.3091 40.1449C34.9122 43.0068 37.8482 44.9883 39.0954 45.7656C39.1855 45.8215 39.3149 45.8661 39.5 45.8661C39.6851 45.8661 39.8145 45.8215 39.9046 45.7656C41.1518 44.9883 44.0878 43.0068 46.6909 40.1449C49.3126 37.2626 51.4018 33.705 51.4018 29.7411C51.4018 23.1679 46.0732 17.8393 39.5 17.8393ZM23.7589 29.7411C23.7589 21.0475 30.8064 14 39.5 14C48.1936 14 55.2411 21.0475 55.2411 29.7411C55.2411 35.0729 52.4501 39.5191 49.531 42.7282C46.5937 45.9576 43.3289 48.1552 41.9353 49.0238C41.1707 49.5005 40.3219 49.7054 39.5 49.7054C38.6781 49.7054 37.8293 49.5005 37.0647 49.0238C35.6711 48.1552 32.4063 45.9576 29.4689 42.7282C26.55 39.5191 23.7589 35.0729 23.7589 29.7411ZM25.0387 42.7946C25.6541 43.6123 26.2879 44.3663 26.9127 45.0531C30.1509 48.6135 33.7117 51.0055 35.2371 51.9564C36.6087 52.8112 38.1048 53.1607 39.5 53.1607C40.8952 53.1607 42.3913 52.8112 43.7629 51.9564C45.2883 51.0055 48.8491 48.6135 52.0873 45.0531C52.7121 44.3663 53.346 43.6123 53.9612 42.7946H55.625C56.4512 42.7946 57.185 43.3234 57.4461 44.1072L60.9014 54.4734C61.0967 55.0589 60.9985 55.7023 60.6376 56.2027C60.277 56.7033 59.6974 57 59.0804 57H19.9197C19.3026 57 18.7232 56.7033 18.3624 56.2027C18.0016 55.7023 17.9034 55.0589 18.0985 54.4734L21.5539 44.1072C21.8152 43.3234 22.5488 42.7946 23.375 42.7946H25.0387ZM39.5 33.9643C42.4685 33.9643 44.875 31.5578 44.875 28.5893C44.875 25.6207 42.4685 23.2143 39.5 23.2143C36.5315 23.2143 34.125 25.6207 34.125 28.5893C34.125 31.5578 36.5315 33.9643 39.5 33.9643Z" fill="#5A1F06"/>
</g>
<defs>
<clipPath id="clip0_418_2222">
<rect width="43" height="43" fill="white" transform="translate(18 14)"/>
</clipPath>
</defs>
</svg>
