<svg width="259" height="220" viewBox="0 0 259 220" fill="none" xmlns="http://www.w3.org/2000/svg">
<circle cx="130" cy="110" r="110" fill="#D70200"/>
<path d="M79.2122 115.132C79.622 112.006 81.2976 109.636 83.1705 107.387C84.5999 105.671 86.1034 104.009 87.8871 102.647C88.8056 101.945 89.0867 101.139 88.8366 100.011C88.5289 98.6229 88.8957 97.149 88.3531 95.6304C87.7279 96.3263 87.4675 97.1266 87.0876 97.8476C83.5508 104.559 78.2485 109.249 71.0531 111.704C67.5347 112.904 63.9281 113.049 60.373 111.862C55.0836 110.098 51.6213 105.356 51.2744 99.5088C50.3519 83.9592 56.9351 72.1674 69.5001 63.4487C75.5045 59.2823 82.1663 56.6112 89.3908 55.4726C93.9164 54.7594 98.4605 54.5956 102.857 56.2722C108.457 58.4079 110.798 63.1858 108.94 68.844C108.544 70.0514 108.75 70.5448 109.923 70.9833C113.672 72.3842 117.369 73.9243 121.457 74.0587C124.456 74.1574 126.385 72.5565 127.667 70.083C128.93 67.6457 128.592 65.2811 126.914 63.1136C126.202 62.1952 126.285 61.7154 127.432 61.3828C130.889 60.38 134.217 60.7515 137.217 62.7838C139.005 63.9953 139.528 65.8624 139.042 67.9293C138.008 72.3223 134.969 74.9413 130.953 76.4417C124.45 78.8711 118.056 78.2852 111.837 75.303C110.621 74.7201 109.376 74.1991 108.166 73.6047C107.453 73.2546 107.014 73.3216 106.481 74.0152C103.019 78.5204 98.2083 80.6124 92.7583 81.5135C91.4153 81.7356 90.0743 81.7498 88.7384 81.4897C86.2596 81.0071 84.4467 79.6732 83.8025 77.1715C83.195 74.8124 84.085 72.8516 85.917 71.3407C88.444 69.2566 91.4937 68.6513 94.6507 68.4804C97.4801 68.3273 100.298 68.5434 103.07 69.1349C104.136 69.3623 104.615 68.9896 104.892 67.9896C105.963 64.1324 104.227 61.1072 100.212 60.0102C96.2631 58.9313 92.4189 59.6237 88.6875 60.9661C79.758 64.1783 73.2142 70.2172 68.6475 78.419C64.7254 85.463 62.2554 92.9764 62.1329 101.12C62.1013 103.221 62.3238 105.333 63.3017 107.264C64.3108 109.256 65.8043 109.972 67.9797 109.528C73.495 108.404 77.6361 105.096 81.2697 101.048C84.3178 97.6522 86.6615 93.838 87.7471 89.3389C87.9664 88.43 88.6709 88.1908 89.5055 88.2822C90.3266 88.372 90.5989 88.9083 90.6307 89.6911C90.7588 92.8447 90.9184 95.9969 91.0718 99.1494C91.0818 99.3548 91.1373 99.5581 91.1663 99.7306C91.6031 99.9805 91.8459 99.6711 92.1132 99.5036C92.827 99.0561 93.502 98.5396 94.2419 98.1426C96.0882 97.152 97.5281 95.8783 98.6353 93.9909C100.657 90.5452 105.646 89.0261 109.45 90.3666C111.097 90.9468 111.131 91.567 109.523 93.3777C111.038 93.3495 112.343 94.3375 113.871 93.7693C114.505 93.5339 115.014 93.2777 115.265 92.6232C116.731 88.7911 123.118 85.8781 127.906 87.2547C128.228 87.3472 128.545 87.4736 128.843 87.6274C129.259 87.8427 129.696 88.1013 129.629 88.6565C129.566 89.1897 129.119 89.4229 128.661 89.5361C128.095 89.6762 127.489 89.6893 127 90.2811C128.739 91.1447 130.43 91.2661 132.172 90.4749C132.528 90.313 132.836 90.1053 132.991 89.7304C134.364 86.4111 137.206 85.2471 140.436 84.6093C141.691 84.3614 142.956 84.2602 144.205 84.4166C145.157 84.536 145.455 84.1786 145.623 83.3349C146.391 79.4864 147.392 75.7055 149.198 72.1897C150.943 68.7925 153.166 65.7331 155.87 63.0361C157.205 61.7037 158.855 60.9965 160.747 60.9508C161.372 60.9357 162.049 61.0133 162.432 61.6233C162.843 62.2761 162.289 62.723 162 63.2091C157.715 70.4279 154.345 78.0164 152.742 86.305C152.367 88.2467 152.174 90.2073 152.526 92.2003C153.217 96.1058 156.825 98.0621 160.533 96.4875C164.311 94.8831 166.952 89.7809 166.021 85.8025C165.79 84.8181 165.421 83.9258 164.354 83.4205C163.282 82.9132 163.335 82.1447 164.435 81.6118C166.284 80.7159 168.253 80.543 170.224 81.0597C171.904 81.4999 172.92 83.0995 173.085 85.1235C173.235 86.9612 172.694 88.6134 171.878 90.2135C168.446 96.9397 159.785 100.533 152.58 98.2359C149.37 97.2123 147.147 95.1182 145.784 92.0101C145.206 92.2265 145.047 92.7374 144.777 93.128C143.49 94.9825 141.892 96.4068 139.646 96.9928C136.828 97.7279 134.279 96.4658 133.19 93.7495C132.943 93.1318 132.77 92.4842 132.536 91.7704C131.349 91.9678 130.196 92.1962 129.018 92.1606C128.392 92.1417 128.329 92.6734 128.181 93.1049C127.511 95.0634 126.668 96.9215 125.499 98.6573C123.217 102.047 118.798 101.784 116.396 100.131C115.046 99.2024 114.389 97.8676 114.497 96.2267C114.567 95.1743 114.284 94.7296 113.147 95.0378C112.643 95.1743 112.072 95.0608 111.45 95.0608C111.104 96.5905 110.934 98.1377 110.312 99.579C108.638 103.457 105.518 105.151 101.612 104.244C99.3444 103.718 97.9049 102.352 97.3479 100.078C97.2309 99.6002 97.2438 99.0772 96.8176 98.5739C94.8915 99.6918 93.1025 101.001 91.3869 102.411C90.9848 102.741 91.1363 103.278 91.1218 103.73C91.0246 106.776 90.6249 109.774 89.5729 112.648C88.8101 114.731 87.7402 116.631 85.8621 117.946C85.5182 118.187 85.1605 118.415 84.7861 118.604C82.3126 119.848 79.0531 119.135 79.2122 115.132ZM86.8588 77.3598C87.8175 79.3721 89.4549 80.187 92.0039 79.7942C95.3429 79.2797 98.2896 77.8798 100.719 75.5255C101.79 74.4872 102.844 73.3771 103.297 71.8286C102.254 71.1898 101.131 70.9934 100.031 70.7578C96.8256 70.0704 93.6066 69.769 90.4372 70.9021C87.6815 71.8874 86.1871 74.5402 86.8588 77.3598ZM81.4762 115.681C81.4991 116.478 81.3944 117.374 82.2741 117.787C83.1986 118.222 83.8934 117.534 84.5327 117.038C85.7542 116.091 86.5427 114.78 87.2198 113.416C88.5676 110.702 89.2398 107.852 88.9579 104.799C88.3513 104.746 88.0969 105.127 87.8053 105.401C86.4528 106.672 85.2135 108.05 84.1349 109.56C82.8595 111.346 81.626 113.162 81.4762 115.681ZM107.575 99.575C108.413 97.9097 108.894 96.1593 108.817 94.2644C107.181 96.5368 106.131 99.0415 105.44 102.043C106.639 101.384 107.009 100.518 107.575 99.575ZM124.302 96.0709C125.266 94.5407 125.89 92.8872 126.219 90.8573C124.375 92.9713 123.341 95.1961 122.728 97.8375C123.448 97.3233 123.837 96.7832 124.302 96.0709ZM143.472 88.9597C142.569 90.355 141.821 91.8214 141.235 93.7277C142.854 91.7984 144.368 90.1962 145.245 87.9375C144.258 87.9512 143.986 88.4816 143.472 88.9597Z" fill="#DBDEE2"/>
<path d="M169.948 157.864C171.645 151.48 175.311 146.372 179.492 141.567C179.769 141.25 180.069 140.953 180.363 140.651C182.685 138.264 182.693 138.259 180.725 135.471C180.222 134.759 179.769 133.991 178.942 133.36C178.07 134.449 177.268 135.51 176.406 136.521C171.394 142.395 164.277 143.29 158.215 140.459C155.411 139.15 154.325 136.736 154.905 133.675C155.876 128.554 159.249 125.266 164.327 124.464C165.747 124.24 167.105 124.468 168.414 124.986C170.716 125.896 171.649 127.792 170.917 130.183C170.059 132.982 167.946 134.509 165.281 135.317C164.227 135.637 163.527 135.963 163.72 137.256C163.922 138.611 164.542 139.38 165.819 139.551C167.245 139.741 168.601 139.471 169.858 138.804C172.666 137.315 174.916 135.2 176.739 132.604C177.269 131.85 177.331 131.201 176.768 130.429C175.944 129.299 175.362 128.03 174.974 126.685C173.696 122.251 175.499 117.117 179.589 113.945C184.196 110.372 189.51 109.028 195.262 109.488C198.43 109.741 200.348 111.444 200.735 114.17C201.047 116.371 200.264 118.298 198.551 119.663C197.032 120.873 195.24 121.666 193.308 122.068C192.807 122.173 192.308 122.206 191.802 122.121C190.24 121.856 189.909 121.298 190.596 119.885C191.408 118.219 192.235 116.56 192.863 114.814C193.056 114.278 193.319 113.739 193.267 113.119C188.291 115.363 186.311 120.272 188.172 125.69C188.874 127.737 189.966 129.584 191.071 131.431C191.504 132.155 191.951 131.983 192.542 131.713C195.768 130.241 199.118 129.429 202.709 129.631C206.972 129.87 210.703 132.749 211.378 136.47C211.709 138.299 210.962 140.078 209.344 141.013C207.579 142.033 205.676 142.227 203.737 141.567C202.378 141.105 202.115 140.199 202.975 139.034C203.692 138.064 204.144 137.004 204.358 135.819C204.799 133.366 203.599 131.597 201.148 131.358C198.132 131.064 195.443 132.216 192.823 133.518C192.072 133.892 192.558 134.469 192.752 134.936C193.737 137.308 194.819 139.655 195.186 142.222C196.419 150.851 194.178 158.282 187.267 163.896C183.813 166.702 179.752 167.799 175.293 167.013C171.028 166.261 169 163.35 169.727 159.088C169.791 158.715 169.859 158.342 169.948 157.864ZM184.553 159.096C187.215 152.679 185.848 146.557 183.379 140.433C182.507 140.74 182.12 141.316 181.677 141.801C180.198 143.415 178.794 145.095 177.571 146.913C175.188 150.457 173.121 154.139 172.411 158.446C171.688 162.829 174.106 165.826 178.039 165.309C179.288 165.145 180.351 164.561 181.305 163.768C182.765 162.555 183.722 160.983 184.553 159.096ZM166.11 127.609C164.71 128.862 163.68 132.352 164.28 133.876C165.109 133.723 165.686 133.174 166.207 132.581C167.502 131.106 167.522 128.806 166.11 127.609Z" fill="#DBDEE2"/>
<path d="M110.412 153.378C113.999 144.6 115.298 135.554 114.714 126.216C114.654 125.255 114.352 124.309 114.293 123.349C114.219 122.164 113.576 121.811 112.502 121.698C109.967 121.431 107.71 120.396 105.71 118.856C103.025 116.79 103.455 112.626 106.537 111.225C109.868 109.711 114.136 110.318 116.111 114.606C116.672 115.824 117.118 117.094 117.643 118.407C118.802 118.304 119.693 117.648 120.571 117.046C123.09 115.318 124.749 113.043 124.897 109.869C124.97 108.312 124.489 107 123.368 105.877C122.072 104.579 122.291 103.644 123.962 102.934C126.34 101.924 128.731 102.598 130.874 104.882C132.556 106.676 132.902 108.962 131.761 111.185C130.285 114.062 127.807 115.96 125.193 117.693C123.436 118.858 121.597 119.903 119.602 120.603C118.753 120.901 118.556 121.311 118.673 122.181C120.275 134.1 117.754 145.365 113.1 156.255C111.612 159.737 109.502 162.849 106.472 165.208C99.5879 170.566 89.4237 168.677 84.4337 161.175C82.2245 157.854 81.0932 154.145 80.9266 150.239C80.4736 139.614 83.1265 129.891 89.9076 121.5C91.2088 119.89 92.6786 118.432 94.4754 117.363C95.1227 116.978 95.812 116.638 96.5213 116.389C97.4562 116.06 98.5137 115.88 99.2705 116.639C100.01 117.38 99.5126 118.34 99.1825 119.127C96.7987 124.808 94.8569 130.637 93.588 136.661C92.2168 143.17 91.8047 149.752 92.9309 156.351C93.3809 158.989 94.2768 161.488 96.0883 163.55C97.6665 165.347 98.9259 165.651 101.122 164.712C104.385 163.318 106.467 160.685 108.198 157.742C109.007 156.366 109.653 154.894 110.412 153.378ZM110.181 118.322C111.141 118.854 112.057 119.517 113.368 119.458C112.755 117.253 111.962 115.279 110.559 113.614C109.601 112.478 108.804 112.662 108.269 114.068C107.694 115.579 108.231 116.848 110.181 118.322Z" fill="#DBDEE2"/>
<path d="M150.13 133.765C147.354 135.018 145.969 137.328 144.942 139.937C144.881 140.094 144.82 140.251 144.753 140.406C144.273 141.522 144.304 143.014 142.732 143.353C141.023 143.721 139.38 143.601 137.93 142.475C137.703 142.298 137.447 142.156 137.118 141.942C135.789 143.479 134.281 144.73 132.225 145.073C130.152 145.419 128.109 145.318 126.144 144.514C124.012 143.641 122.789 141.629 122.869 139.027C122.935 136.864 123.65 134.909 125.015 133.21C125.472 132.641 126.035 132.212 126.707 131.924C129.355 130.788 131.207 132.076 130.944 134.944C130.763 136.91 130.443 138.862 130.174 140.819C130.07 141.582 129.93 142.372 130.638 142.918C131.4 143.506 132.16 143.151 132.877 142.754C133.208 142.572 133.523 142.355 133.824 142.127C136.031 140.452 136.029 140.449 135.342 137.805C134.342 133.962 135.004 130.19 135.951 126.469C137.712 119.548 141.261 113.77 147.171 109.589C148.907 108.361 150.805 107.468 152.9 107.031C153.777 106.848 154.655 106.81 155.525 107.068C156.713 107.421 156.909 107.916 156.138 108.861C155.207 110.002 154.185 111.068 153.231 112.191C150.718 115.146 148.868 118.489 147.64 122.156C146.357 125.989 145.323 129.892 144.803 133.914C144.771 134.156 144.799 134.406 144.799 134.821C146.081 133.943 147.182 133.041 148.522 132.527C150.499 131.768 152.422 131.992 153.321 133.147C154.179 134.249 153.922 136.092 152.608 137.809C151.347 139.457 149.588 140.181 147.569 140.306C147.171 140.33 146.739 140.172 146.359 140.011C145.979 139.85 145.769 139.499 145.939 139.077C146.092 138.697 146.452 138.705 146.803 138.749C149.194 139.046 151.264 136.941 150.937 134.544C150.879 134.117 150.823 133.675 150.13 133.765Z" fill="#DBDEE2"/>
<path d="M125.641 126.133C125.091 123.549 125.935 121.961 128.326 121.124C129.993 120.541 131.708 120.427 133.382 121.114C134.828 121.708 135.18 122.912 134.231 124.156C133.392 125.256 132.489 126.32 131.516 127.302C129.875 128.96 126.679 128.346 125.641 126.133Z" fill="#DBDEE2"/>
</svg>
