<svg width="265" height="245" viewBox="0 0 265 245" fill="none" xmlns="http://www.w3.org/2000/svg">
<circle cx="131" cy="124.5" r="103" fill="#FFD8FC"/>
<g filter="url(#filter0_d_502_3088)">
<path d="M61.936 130.788C61.5307 130.639 61.2427 130.415 61.072 130.116C60.9013 129.817 60.816 129.423 60.816 128.932C60.816 128.655 60.848 128.324 60.912 127.94C60.976 127.535 61.072 127.151 61.2 126.788L61.328 126.66C61.136 127.321 60.8907 127.897 60.592 128.388C60.2933 128.857 59.9413 129.252 59.536 129.572C59.088 129.956 58.544 130.244 57.904 130.436C57.264 130.628 56.528 130.724 55.696 130.724C54.224 130.724 53.072 130.415 52.24 129.796C51.408 129.177 50.992 128.271 50.992 127.076C50.992 126.265 51.1733 125.572 51.536 124.996C51.92 124.399 52.432 123.897 53.072 123.492C53.7333 123.065 54.4587 122.724 55.248 122.468C56.0587 122.212 56.8907 122.009 57.744 121.86C58.6187 121.689 59.472 121.54 60.304 121.412C60.304 120.9 60.2827 120.452 60.24 120.068C60.2187 119.684 60.1547 119.353 60.048 119.076C59.9627 118.777 59.8133 118.521 59.6 118.308C59.3653 118.031 59.088 117.839 58.768 117.732C58.4693 117.625 58.1707 117.572 57.872 117.572C57.3387 117.572 56.9013 117.732 56.56 118.052C56.2187 118.372 55.9627 118.809 55.792 119.364C55.6213 119.897 55.504 120.484 55.44 121.124C54.8213 121.124 54.2667 121.103 53.776 121.06C53.2853 121.017 52.8373 120.911 52.432 120.74C52.4747 120.143 52.4853 119.513 52.464 118.852C52.4427 118.191 52.3573 117.497 52.208 116.772C53.1253 116.388 54.2027 116.089 55.44 115.876C56.6773 115.641 57.8613 115.524 58.992 115.524C60.4 115.524 61.5093 115.684 62.32 116.004C63.1307 116.303 63.7387 116.655 64.144 117.06C64.5707 117.487 64.912 118.095 65.168 118.884C65.4453 119.652 65.584 120.793 65.584 122.308V124.772C65.584 125.497 65.6267 126.052 65.712 126.436C65.7973 126.82 65.968 127.087 66.224 127.236C66.5013 127.364 66.896 127.439 67.408 127.46C67.472 127.865 67.4827 128.26 67.44 128.644C67.3973 129.028 67.2907 129.391 67.12 129.732C66.2453 129.753 65.36 129.849 64.464 130.02C63.568 130.191 62.7253 130.447 61.936 130.788ZM57.584 127.684C58.0107 127.684 58.4267 127.556 58.832 127.3C59.2587 127.023 59.6107 126.607 59.888 126.052C60.1653 125.497 60.304 124.815 60.304 124.004V123.268C59.6427 123.396 59.0453 123.545 58.512 123.716C58 123.887 57.5733 124.079 57.232 124.292C56.8907 124.505 56.6347 124.761 56.464 125.06C56.2933 125.359 56.208 125.711 56.208 126.116C56.208 126.671 56.336 127.076 56.592 127.332C56.8693 127.567 57.2 127.684 57.584 127.684ZM75.299 130.692C73.7417 130.692 72.5257 130.265 71.651 129.412C70.7977 128.537 70.371 126.991 70.371 124.772V121.412C70.371 120.452 70.2643 119.78 70.051 119.396C69.8377 119.012 69.2723 118.788 68.355 118.724C68.355 118.361 68.3763 117.999 68.419 117.636C68.483 117.252 68.5897 116.911 68.739 116.612C70.083 116.612 71.2777 116.505 72.323 116.292C73.3683 116.057 74.147 115.812 74.659 115.556C74.979 115.684 75.2243 115.897 75.395 116.196C75.5657 116.495 75.651 116.911 75.651 117.444V123.972C75.651 125.401 75.7897 126.393 76.067 126.948C76.3443 127.481 76.771 127.748 77.347 127.748C78.1363 127.748 78.819 127.343 79.395 126.532C79.971 125.721 80.259 124.473 80.259 122.788V121.252C80.259 120.292 80.1203 119.62 79.843 119.236C79.5657 118.852 78.9363 118.628 77.955 118.564C77.955 118.201 77.9763 117.839 78.019 117.476C78.0617 117.092 78.1577 116.751 78.307 116.452C79.6937 116.452 80.9523 116.367 82.083 116.196C83.2137 116.004 84.0243 115.791 84.515 115.556C84.835 115.684 85.0803 115.897 85.251 116.196C85.4217 116.495 85.507 116.911 85.507 117.444V126.212L80.931 127.364C80.7817 127.769 80.611 128.132 80.419 128.452C80.227 128.751 80.003 129.017 79.747 129.252C79.299 129.657 78.7017 129.999 77.955 130.276C77.2083 130.553 76.323 130.692 75.299 130.692ZM81.827 130.788C81.4217 130.639 81.1337 130.425 80.963 130.148C80.7923 129.849 80.707 129.455 80.707 128.964C80.707 128.58 80.7497 128.153 80.835 127.684C80.9417 127.215 81.0483 126.799 81.155 126.436L85.507 124.708C85.507 125.455 85.5497 126.031 85.635 126.436C85.7203 126.82 85.891 127.087 86.147 127.236C86.4243 127.364 86.8297 127.439 87.363 127.46C87.427 127.865 87.4377 128.26 87.395 128.644C87.3523 129.028 87.235 129.391 87.043 129.732C86.1897 129.753 85.3043 129.849 84.387 130.02C83.4697 130.191 82.6163 130.447 81.827 130.788ZM95.4873 130.788C93.9086 130.788 92.7139 130.383 91.9033 129.572C91.0926 128.74 90.6873 127.343 90.6873 125.38V118.788C90.3459 118.66 89.9833 118.564 89.5993 118.5C89.2366 118.436 88.8099 118.404 88.3193 118.404C88.3193 117.977 88.3406 117.593 88.3833 117.252C88.4473 116.889 88.5646 116.527 88.7353 116.164H90.6873V112.356C91.5193 112.249 92.3299 112.036 93.1193 111.716C93.9299 111.396 94.5806 111.044 95.0713 110.66C95.4126 110.788 95.6473 110.991 95.7753 111.268C95.9033 111.545 95.9673 112.036 95.9673 112.74V116.164H99.8073C99.8073 116.633 99.7753 117.049 99.7113 117.412C99.6686 117.753 99.5939 118.095 99.4873 118.436C98.8046 118.436 98.1646 118.489 97.5673 118.596C96.9913 118.681 96.4579 118.809 95.9673 118.98V124.9C95.9673 125.817 96.0206 126.521 96.1273 127.012C96.2339 127.481 96.4046 127.812 96.6393 128.004C96.8739 128.175 97.1726 128.26 97.5353 128.26C97.8553 128.26 98.1753 128.228 98.4953 128.164C98.8366 128.079 99.1566 127.961 99.4553 127.812C99.7539 128.239 99.9139 128.836 99.9353 129.604C99.4873 129.945 98.8473 130.233 98.0153 130.468C97.2046 130.681 96.3619 130.788 95.4873 130.788ZM109.624 130.788C107.832 130.788 106.317 130.489 105.08 129.892C103.864 129.273 102.946 128.409 102.328 127.3C101.709 126.191 101.4 124.889 101.4 123.396C101.4 121.668 101.762 120.228 102.488 119.076C103.234 117.903 104.248 117.028 105.528 116.452C106.808 115.855 108.248 115.556 109.848 115.556C111.682 115.556 113.208 115.876 114.424 116.516C115.661 117.156 116.589 118.031 117.208 119.14C117.826 120.249 118.136 121.529 118.136 122.98C118.136 124.58 117.794 125.967 117.112 127.14C116.429 128.313 115.448 129.22 114.168 129.86C112.888 130.479 111.373 130.788 109.624 130.788ZM110.136 128.548C111.01 128.548 111.672 128.1 112.12 127.204C112.568 126.308 112.792 125.199 112.792 123.876C112.792 122.489 112.632 121.337 112.312 120.42C111.992 119.503 111.576 118.82 111.064 118.372C110.552 117.903 109.997 117.668 109.4 117.668C108.482 117.668 107.81 118.116 107.384 119.012C106.957 119.908 106.744 121.007 106.744 122.308C106.744 123.481 106.872 124.548 107.128 125.508C107.384 126.447 107.768 127.193 108.28 127.748C108.792 128.281 109.41 128.548 110.136 128.548ZM122.362 123.876V121.412C122.362 120.751 122.319 120.239 122.234 119.876C122.148 119.513 121.935 119.247 121.594 119.076C121.274 118.884 120.762 118.767 120.058 118.724C120.058 118.361 120.079 117.999 120.122 117.636C120.186 117.252 120.292 116.911 120.442 116.612C121.786 116.612 123.023 116.505 124.154 116.292C125.306 116.057 126.138 115.812 126.65 115.556C126.97 115.684 127.215 115.897 127.385 116.196C127.556 116.495 127.642 116.911 127.642 117.444L122.362 123.876ZM138.074 125.604C138.074 126.671 138.18 127.407 138.394 127.812C138.607 128.196 139.002 128.388 139.578 128.388C139.706 128.687 139.78 129.017 139.802 129.38C139.844 129.721 139.866 130.127 139.866 130.596C139.396 130.575 138.756 130.553 137.946 130.532C137.156 130.511 136.399 130.5 135.674 130.5C135.183 130.5 134.618 130.5 133.978 130.5C133.338 130.521 132.73 130.532 132.154 130.532C131.578 130.553 131.13 130.575 130.81 130.596C130.81 130.191 130.82 129.807 130.842 129.444C130.884 129.06 130.97 128.708 131.098 128.388C131.631 128.388 132.047 128.175 132.346 127.748C132.644 127.3 132.794 126.5 132.794 125.348V122.468C132.794 121.167 132.602 120.271 132.218 119.78C131.834 119.268 131.279 119.012 130.554 119.012C130.042 119.012 129.562 119.215 129.114 119.62C128.666 120.025 128.303 120.601 128.026 121.348C127.77 122.095 127.642 123.001 127.642 124.068V125.604C127.642 126.692 127.78 127.428 128.058 127.812C128.335 128.196 128.751 128.388 129.306 128.388C129.455 128.729 129.54 129.071 129.562 129.412C129.604 129.753 129.626 130.148 129.626 130.596C129.306 130.575 128.879 130.553 128.345 130.532C127.812 130.532 127.247 130.521 126.65 130.5C126.052 130.5 125.508 130.5 125.018 130.5C124.527 130.5 123.951 130.5 123.29 130.5C122.628 130.521 121.988 130.532 121.37 130.532C120.772 130.553 120.314 130.575 119.993 130.596C119.993 130.148 120.015 129.732 120.058 129.348C120.122 128.964 120.196 128.644 120.282 128.388C121.114 128.388 121.668 128.196 121.946 127.812C122.223 127.407 122.362 126.671 122.362 125.604V121.412L127.642 117.444C127.642 117.7 127.61 117.999 127.546 118.34C127.482 118.66 127.396 119.001 127.29 119.364C127.439 119.023 127.588 118.703 127.738 118.404C127.908 118.105 128.111 117.828 128.345 117.572C128.815 117.06 129.423 116.623 130.17 116.26C130.938 115.897 131.791 115.716 132.73 115.716C133.668 115.716 134.543 115.887 135.354 116.228C136.164 116.569 136.815 117.124 137.306 117.892C137.818 118.66 138.074 119.673 138.074 120.932V125.604ZM149.436 130.788C147.644 130.788 146.13 130.489 144.892 129.892C143.676 129.273 142.759 128.409 142.14 127.3C141.522 126.191 141.212 124.889 141.212 123.396C141.212 121.668 141.575 120.228 142.3 119.076C143.047 117.903 144.06 117.028 145.34 116.452C146.62 115.855 148.06 115.556 149.66 115.556C151.495 115.556 153.02 115.876 154.236 116.516C155.474 117.156 156.402 118.031 157.02 119.14C157.639 120.249 157.948 121.529 157.948 122.98C157.948 124.58 157.607 125.967 156.924 127.14C156.242 128.313 155.26 129.22 153.98 129.86C152.7 130.479 151.186 130.788 149.436 130.788ZM149.948 128.548C150.823 128.548 151.484 128.1 151.932 127.204C152.38 126.308 152.604 125.199 152.604 123.876C152.604 122.489 152.444 121.337 152.124 120.42C151.804 119.503 151.388 118.82 150.876 118.372C150.364 117.903 149.81 117.668 149.212 117.668C148.295 117.668 147.623 118.116 147.196 119.012C146.77 119.908 146.556 121.007 146.556 122.308C146.556 123.481 146.684 124.548 146.94 125.508C147.196 126.447 147.58 127.193 148.092 127.748C148.604 128.281 149.223 128.548 149.948 128.548ZM159.806 130.596C159.806 130.191 159.827 129.807 159.87 129.444C159.913 129.06 159.987 128.719 160.094 128.42C160.969 128.356 161.534 128.143 161.79 127.78C162.046 127.396 162.174 126.671 162.174 125.604V121.764C162.174 120.975 162.131 120.377 162.046 119.972C161.961 119.567 161.747 119.268 161.406 119.076C161.086 118.884 160.574 118.767 159.87 118.724C159.87 118.361 159.891 118.009 159.934 117.668C159.998 117.305 160.105 116.953 160.254 116.612C161.022 116.612 161.801 116.569 162.59 116.484C163.379 116.377 164.115 116.249 164.798 116.1C165.481 115.929 166.025 115.748 166.43 115.556C166.686 115.641 166.91 115.833 167.102 116.132C167.294 116.431 167.39 116.857 167.39 117.412C167.39 117.796 167.337 118.212 167.23 118.66C167.145 119.087 166.974 119.791 166.718 120.772H166.526C166.931 119.727 167.251 118.98 167.486 118.532C167.721 118.084 167.945 117.753 168.158 117.54C168.627 117.007 169.246 116.548 170.014 116.164C170.782 115.78 171.625 115.588 172.542 115.588C173.566 115.588 174.473 115.812 175.262 116.26C176.073 116.687 176.691 117.305 177.118 118.116C177.395 118.607 177.534 119.108 177.534 119.62H177.374C177.758 118.617 178.185 117.903 178.654 117.476C179.123 117.007 179.699 116.612 180.382 116.292C181.065 115.951 181.843 115.78 182.718 115.78C183.849 115.78 184.798 115.972 185.566 116.356C186.355 116.719 186.953 117.305 187.358 118.116C187.785 118.905 187.998 119.972 187.998 121.316V124.452C187.998 125.604 188.03 126.457 188.094 127.012C188.179 127.545 188.329 127.897 188.542 128.068C188.755 128.239 189.086 128.345 189.534 128.388C189.641 128.708 189.705 129.06 189.726 129.444C189.769 129.807 189.79 130.191 189.79 130.596C189.257 130.553 188.617 130.521 187.87 130.5C187.123 130.5 186.355 130.5 185.566 130.5C185.054 130.5 184.499 130.5 183.902 130.5C183.305 130.521 182.729 130.532 182.174 130.532C181.619 130.553 181.15 130.575 180.766 130.596C180.766 130.127 180.777 129.732 180.798 129.412C180.841 129.071 180.905 128.729 180.99 128.388C181.417 128.367 181.758 128.26 182.014 128.068C182.27 127.876 182.451 127.513 182.558 126.98C182.665 126.447 182.718 125.689 182.718 124.708V122.372C182.718 121.049 182.537 120.164 182.174 119.716C181.811 119.247 181.331 119.012 180.734 119.012C180.137 119.012 179.603 119.204 179.134 119.588C178.686 119.972 178.334 120.548 178.078 121.316C177.843 122.063 177.726 122.98 177.726 124.068V125.444C177.726 126.553 177.843 127.311 178.078 127.716C178.313 128.121 178.782 128.345 179.486 128.388C179.571 128.665 179.635 129.007 179.678 129.412C179.721 129.796 179.742 130.191 179.742 130.596C179.251 130.553 178.569 130.521 177.694 130.5C176.841 130.5 175.998 130.5 175.166 130.5C174.313 130.5 173.449 130.5 172.574 130.5C171.721 130.521 171.006 130.553 170.43 130.596C170.43 130.191 170.451 129.796 170.494 129.412C170.558 129.007 170.633 128.665 170.718 128.388C171.209 128.345 171.582 128.239 171.838 128.068C172.094 127.876 172.265 127.513 172.35 126.98C172.457 126.425 172.51 125.583 172.51 124.452V122.084C172.51 120.889 172.329 120.068 171.966 119.62C171.603 119.172 171.059 118.948 170.334 118.948C169.801 118.948 169.31 119.161 168.862 119.588C168.435 120.015 168.083 120.612 167.806 121.38C167.55 122.148 167.422 123.023 167.422 124.004V125.444C167.422 126.596 167.539 127.364 167.774 127.748C168.009 128.132 168.467 128.345 169.15 128.388C169.257 128.687 169.331 129.028 169.374 129.412C169.417 129.796 169.438 130.191 169.438 130.596C169.097 130.553 168.627 130.521 168.03 130.5C167.454 130.5 166.846 130.5 166.206 130.5C165.587 130.5 165.033 130.5 164.542 130.5C164.051 130.5 163.486 130.5 162.846 130.5C162.227 130.5 161.641 130.5 161.086 130.5C160.553 130.521 160.126 130.553 159.806 130.596ZM199.246 130.788C197.326 130.788 195.768 130.457 194.574 129.796C193.4 129.135 192.536 128.239 191.982 127.108C191.427 125.977 191.15 124.708 191.15 123.3C191.15 121.721 191.459 120.356 192.078 119.204C192.696 118.052 193.592 117.156 194.766 116.516C195.939 115.876 197.315 115.556 198.894 115.556C200.472 115.556 201.774 115.855 202.798 116.452C203.822 117.028 204.579 117.839 205.07 118.884C205.582 119.908 205.859 121.103 205.902 122.468C205.731 123.172 205.422 123.737 204.974 124.164C204.355 124.164 203.651 124.164 202.862 124.164C202.072 124.164 201.24 124.175 200.366 124.196C199.512 124.196 198.638 124.217 197.742 124.26C196.867 124.303 196.024 124.356 195.214 124.42V122.116H201.102C201.102 120.665 200.91 119.567 200.526 118.82C200.163 118.073 199.608 117.7 198.862 117.7C198.371 117.7 197.934 117.881 197.55 118.244C197.187 118.585 196.91 119.108 196.718 119.812C196.526 120.495 196.43 121.348 196.43 122.372C196.43 123.481 196.568 124.473 196.846 125.348C197.123 126.223 197.582 126.905 198.222 127.396C198.862 127.887 199.726 128.132 200.814 128.132C201.56 128.132 202.307 128.004 203.054 127.748C203.8 127.492 204.419 127.161 204.91 126.756C205.123 126.884 205.315 127.14 205.486 127.524C205.656 127.887 205.742 128.26 205.742 128.644C204.91 129.348 203.96 129.881 202.894 130.244C201.848 130.607 200.632 130.788 199.246 130.788Z" fill="#5A1F06"/>
</g>
<g filter="url(#filter1_d_502_3088)">
<path d="M167.09 55.18C180.947 55.18 192.18 43.9468 192.18 30.09C192.18 16.2332 180.947 5 167.09 5C153.233 5 142 16.2332 142 30.09C142 43.9468 153.233 55.18 167.09 55.18Z" fill="url(#paint0_radial_502_3088)"/>
</g>
<g filter="url(#filter2_d_502_3088)">
<path d="M141.51 85.02C155.046 85.02 166.02 74.0465 166.02 60.51C166.02 46.9735 155.046 36 141.51 36C127.973 36 117 46.9735 117 60.51C117 74.0465 127.973 85.02 141.51 85.02Z" fill="url(#paint1_radial_502_3088)"/>
</g>
<g filter="url(#filter3_d_502_3088)">
<path d="M32.51 118.02C46.0465 118.02 57.02 107.047 57.02 93.51C57.02 79.9735 46.0465 69 32.51 69C18.9735 69 8 79.9735 8 93.51C8 107.047 18.9735 118.02 32.51 118.02Z" fill="url(#paint2_radial_502_3088)"/>
</g>
<g filter="url(#filter4_d_502_3088)">
<path d="M227.51 134.02C241.047 134.02 252.02 123.046 252.02 109.51C252.02 95.9735 241.047 85 227.51 85C213.974 85 203 95.9735 203 109.51C203 123.046 213.974 134.02 227.51 134.02Z" fill="url(#paint3_radial_502_3088)"/>
</g>
<g filter="url(#filter5_d_502_3088)">
<path d="M75.81 198.62C90.0645 198.62 101.62 187.064 101.62 172.81C101.62 158.556 90.0645 147 75.81 147C61.5555 147 50 158.556 50 172.81C50 187.064 61.5555 198.62 75.81 198.62Z" fill="url(#paint4_radial_502_3088)"/>
</g>
<g filter="url(#filter6_d_502_3088)">
<path d="M184.51 229.02C198.047 229.02 209.02 218.046 209.02 204.51C209.02 190.973 198.047 180 184.51 180C170.974 180 160 190.973 160 204.51C160 218.046 170.974 229.02 184.51 229.02Z" fill="url(#paint5_radial_502_3088)"/>
</g>
<defs>
<filter id="filter0_d_502_3088" x="45.9922" y="108.66" width="164.91" height="30.1282" filterUnits="userSpaceOnUse" color-interpolation-filters="sRGB">
<feFlood flood-opacity="0" result="BackgroundImageFix"/>
<feColorMatrix in="SourceAlpha" type="matrix" values="0 0 0 0 0 0 0 0 0 0 0 0 0 0 0 0 0 0 127 0" result="hardAlpha"/>
<feOffset dy="3"/>
<feGaussianBlur stdDeviation="2.5"/>
<feComposite in2="hardAlpha" operator="out"/>
<feColorMatrix type="matrix" values="0 0 0 0 0 0 0 0 0 0 0 0 0 0 0 0 0 0 0.25 0"/>
<feBlend mode="normal" in2="BackgroundImageFix" result="effect1_dropShadow_502_3088"/>
<feBlend mode="normal" in="SourceGraphic" in2="effect1_dropShadow_502_3088" result="shape"/>
</filter>
<filter id="filter1_d_502_3088" x="134.83" y="0.67" width="70.1802" height="70.1799" filterUnits="userSpaceOnUse" color-interpolation-filters="sRGB">
<feFlood flood-opacity="0" result="BackgroundImageFix"/>
<feColorMatrix in="SourceAlpha" type="matrix" values="0 0 0 0 0 0 0 0 0 0 0 0 0 0 0 0 0 0 127 0" result="hardAlpha"/>
<feOffset dx="2.83" dy="5.67"/>
<feGaussianBlur stdDeviation="5"/>
<feColorMatrix type="matrix" values="0 0 0 0 0.113725 0 0 0 0 0.113725 0 0 0 0 0.105882 0 0 0 0.5 0"/>
<feBlend mode="normal" in2="BackgroundImageFix" result="effect1_dropShadow_502_3088"/>
<feBlend mode="normal" in="SourceGraphic" in2="effect1_dropShadow_502_3088" result="shape"/>
</filter>
<filter id="filter2_d_502_3088" x="109.83" y="31.67" width="69.02" height="69.02" filterUnits="userSpaceOnUse" color-interpolation-filters="sRGB">
<feFlood flood-opacity="0" result="BackgroundImageFix"/>
<feColorMatrix in="SourceAlpha" type="matrix" values="0 0 0 0 0 0 0 0 0 0 0 0 0 0 0 0 0 0 127 0" result="hardAlpha"/>
<feOffset dx="2.83" dy="5.67"/>
<feGaussianBlur stdDeviation="5"/>
<feColorMatrix type="matrix" values="0 0 0 0 0.113725 0 0 0 0 0.113725 0 0 0 0 0.105882 0 0 0 0.5 0"/>
<feBlend mode="normal" in2="BackgroundImageFix" result="effect1_dropShadow_502_3088"/>
<feBlend mode="normal" in="SourceGraphic" in2="effect1_dropShadow_502_3088" result="shape"/>
</filter>
<filter id="filter3_d_502_3088" x="0.83" y="64.67" width="69.02" height="69.02" filterUnits="userSpaceOnUse" color-interpolation-filters="sRGB">
<feFlood flood-opacity="0" result="BackgroundImageFix"/>
<feColorMatrix in="SourceAlpha" type="matrix" values="0 0 0 0 0 0 0 0 0 0 0 0 0 0 0 0 0 0 127 0" result="hardAlpha"/>
<feOffset dx="2.83" dy="5.67"/>
<feGaussianBlur stdDeviation="5"/>
<feColorMatrix type="matrix" values="0 0 0 0 0.113725 0 0 0 0 0.113725 0 0 0 0 0.105882 0 0 0 0.5 0"/>
<feBlend mode="normal" in2="BackgroundImageFix" result="effect1_dropShadow_502_3088"/>
<feBlend mode="normal" in="SourceGraphic" in2="effect1_dropShadow_502_3088" result="shape"/>
</filter>
<filter id="filter4_d_502_3088" x="195.83" y="80.67" width="69.02" height="69.02" filterUnits="userSpaceOnUse" color-interpolation-filters="sRGB">
<feFlood flood-opacity="0" result="BackgroundImageFix"/>
<feColorMatrix in="SourceAlpha" type="matrix" values="0 0 0 0 0 0 0 0 0 0 0 0 0 0 0 0 0 0 127 0" result="hardAlpha"/>
<feOffset dx="2.83" dy="5.67"/>
<feGaussianBlur stdDeviation="5"/>
<feColorMatrix type="matrix" values="0 0 0 0 0.113725 0 0 0 0 0.113725 0 0 0 0 0.105882 0 0 0 0.5 0"/>
<feBlend mode="normal" in2="BackgroundImageFix" result="effect1_dropShadow_502_3088"/>
<feBlend mode="normal" in="SourceGraphic" in2="effect1_dropShadow_502_3088" result="shape"/>
</filter>
<filter id="filter5_d_502_3088" x="42.83" y="142.67" width="71.6201" height="71.6201" filterUnits="userSpaceOnUse" color-interpolation-filters="sRGB">
<feFlood flood-opacity="0" result="BackgroundImageFix"/>
<feColorMatrix in="SourceAlpha" type="matrix" values="0 0 0 0 0 0 0 0 0 0 0 0 0 0 0 0 0 0 127 0" result="hardAlpha"/>
<feOffset dx="2.83" dy="5.67"/>
<feGaussianBlur stdDeviation="5"/>
<feColorMatrix type="matrix" values="0 0 0 0 0.113725 0 0 0 0 0.113725 0 0 0 0 0.105882 0 0 0 0.5 0"/>
<feBlend mode="normal" in2="BackgroundImageFix" result="effect1_dropShadow_502_3088"/>
<feBlend mode="normal" in="SourceGraphic" in2="effect1_dropShadow_502_3088" result="shape"/>
</filter>
<filter id="filter6_d_502_3088" x="152.83" y="175.67" width="69.02" height="69.02" filterUnits="userSpaceOnUse" color-interpolation-filters="sRGB">
<feFlood flood-opacity="0" result="BackgroundImageFix"/>
<feColorMatrix in="SourceAlpha" type="matrix" values="0 0 0 0 0 0 0 0 0 0 0 0 0 0 0 0 0 0 127 0" result="hardAlpha"/>
<feOffset dx="2.83" dy="5.67"/>
<feGaussianBlur stdDeviation="5"/>
<feColorMatrix type="matrix" values="0 0 0 0 0.113725 0 0 0 0 0.113725 0 0 0 0 0.105882 0 0 0 0.5 0"/>
<feBlend mode="normal" in2="BackgroundImageFix" result="effect1_dropShadow_502_3088"/>
<feBlend mode="normal" in="SourceGraphic" in2="effect1_dropShadow_502_3088" result="shape"/>
</filter>
<radialGradient id="paint0_radial_502_3088" cx="0" cy="0" r="1" gradientUnits="userSpaceOnUse" gradientTransform="translate(167.09 30.09) scale(25.09 25.09)">
<stop stop-color="#E5A5AA"/>
<stop offset="0.16" stop-color="#D98895"/>
<stop offset="0.8" stop-color="#BC3461"/>
<stop offset="0.97" stop-color="#9E2F56"/>
</radialGradient>
<radialGradient id="paint1_radial_502_3088" cx="0" cy="0" r="1" gradientUnits="userSpaceOnUse" gradientTransform="translate(141.51 60.51) scale(24.51 24.51)">
<stop offset="0.01" stop-color="#E0E0E0"/>
<stop offset="0.34" stop-color="#C6C4C1"/>
<stop offset="0.63" stop-color="#ADAAA6"/>
<stop offset="1" stop-color="#747270"/>
</radialGradient>
<radialGradient id="paint2_radial_502_3088" cx="0" cy="0" r="1" gradientUnits="userSpaceOnUse" gradientTransform="translate(32.51 93.51) scale(24.51 24.51)">
<stop offset="0.01" stop-color="#E0E0E0"/>
<stop offset="0.34" stop-color="#C6C4C1"/>
<stop offset="0.63" stop-color="#ADAAA6"/>
<stop offset="1" stop-color="#747270"/>
</radialGradient>
<radialGradient id="paint3_radial_502_3088" cx="0" cy="0" r="1" gradientUnits="userSpaceOnUse" gradientTransform="translate(227.51 109.51) scale(24.51 24.51)">
<stop stop-color="#E5A5AA"/>
<stop offset="0.16" stop-color="#D98895"/>
<stop offset="0.8" stop-color="#BC3461"/>
<stop offset="0.97" stop-color="#9E2F56"/>
</radialGradient>
<radialGradient id="paint4_radial_502_3088" cx="0" cy="0" r="1" gradientUnits="userSpaceOnUse" gradientTransform="translate(75.81 172.81) scale(25.81 25.81)">
<stop stop-color="#E5A5AA"/>
<stop offset="0.16" stop-color="#D98895"/>
<stop offset="0.8" stop-color="#BC3461"/>
<stop offset="0.97" stop-color="#9E2F56"/>
</radialGradient>
<radialGradient id="paint5_radial_502_3088" cx="0" cy="0" r="1" gradientUnits="userSpaceOnUse" gradientTransform="translate(184.51 204.51) scale(24.51 24.51)">
<stop offset="0.01" stop-color="#E0E0E0"/>
<stop offset="0.34" stop-color="#C6C4C1"/>
<stop offset="0.63" stop-color="#ADAAA6"/>
<stop offset="1" stop-color="#747270"/>
</radialGradient>
</defs>
</svg>
