<?xml version="1.0" encoding="UTF-8"?>
<svg xmlns="http://www.w3.org/2000/svg" xmlns:xlink="http://www.w3.org/1999/xlink" viewBox="0 0 244.02 224.02">
  <defs>
    <style>
      .cls-1 {
        filter: url(#drop-shadow-1);
      }

      .cls-2 {
        filter: url(#drop-shadow-3);
      }

      .cls-3 {
        filter: url(#drop-shadow-2);
      }

      .cls-4 {
        filter: url(#drop-shadow-6);
      }

      .cls-5 {
        filter: url(#drop-shadow-7);
      }

      .cls-6 {
        filter: url(#drop-shadow-5);
      }

      .cls-7 {
        filter: url(#drop-shadow-4);
      }

      .cls-8 {
        fill: url(#Dégradé_sans_nom_6);
      }

      .cls-9 {
        fill: url(#Dégradé_sans_nom_8);
      }

      .cls-10 {
        fill: #5f2712;
      }

      .cls-11 {
        fill: url(#Dégradé_sans_nom_8-2);
      }

      .cls-12 {
        fill: url(#Dégradé_sans_nom_8-3);
      }

      .cls-13 {
        fill: url(#Dégradé_sans_nom_6-3);
      }

      .cls-14 {
        fill: url(#Dégradé_sans_nom_6-2);
      }

      .cls-15 {
        fill: #f4d8e9;
      }
    </style>
    <filter id="drop-shadow-1" x="29.82" y="93.66" width="185.28" height="50.16" filterUnits="userSpaceOnUse">
      <feOffset dx="2" dy="3"/>
      <feGaussianBlur result="blur" stdDeviation="5"/>
      <feFlood flood-color="#1d1d1b" flood-opacity=".8"/>
      <feComposite in2="blur" operator="in"/>
      <feComposite in="SourceGraphic"/>
    </filter>
    <filter id="drop-shadow-2" x="125.82" y="-8.1" width="80.4" height="80.4" filterUnits="userSpaceOnUse">
      <feOffset dx="7" dy="7"/>
      <feGaussianBlur result="blur-2" stdDeviation="5"/>
      <feFlood flood-color="#1d1d1b" flood-opacity=".75"/>
      <feComposite in2="blur-2" operator="in"/>
      <feComposite in="SourceGraphic"/>
    </filter>
    <radialGradient id="Dégradé_sans_nom_8" cx="-787.44" cy="-317.35" fx="-787.44" fy="-317.35" r="1" gradientTransform="translate(19915.97 -7937.25) scale(25.09 -25.09)" gradientUnits="userSpaceOnUse">
      <stop offset="0" stop-color="#e5a6ab"/>
      <stop offset=".16" stop-color="#d98895"/>
      <stop offset=".8" stop-color="#bd3562"/>
      <stop offset=".97" stop-color="#a02f57"/>
    </radialGradient>
    <filter id="drop-shadow-3" x="100.86" y="22.86" width="79.2" height="79.2" filterUnits="userSpaceOnUse">
      <feOffset dx="7" dy="7"/>
      <feGaussianBlur result="blur-3" stdDeviation="5"/>
      <feFlood flood-color="#1d1d1b" flood-opacity=".75"/>
      <feComposite in2="blur-3" operator="in"/>
      <feComposite in="SourceGraphic"/>
    </filter>
    <radialGradient id="Dégradé_sans_nom_6" cx="-786.67" cy="-317.61" fx="-786.67" fy="-317.61" r="1" gradientTransform="translate(19414.71 -7729.15) scale(24.51 -24.51)" gradientUnits="userSpaceOnUse">
      <stop offset="0" stop-color="#e0e0e0"/>
      <stop offset=".34" stop-color="#c7c4c2"/>
      <stop offset=".63" stop-color="#adaaa6"/>
      <stop offset="1" stop-color="#757371"/>
    </radialGradient>
    <filter id="drop-shadow-4" x="-8.1" y="55.98" width="79.2" height="79.2" filterUnits="userSpaceOnUse">
      <feOffset dx="7" dy="7"/>
      <feGaussianBlur result="blur-4" stdDeviation="5"/>
      <feFlood flood-color="#1d1d1b" flood-opacity=".75"/>
      <feComposite in2="blur-4" operator="in"/>
      <feComposite in="SourceGraphic"/>
    </filter>
    <radialGradient id="Dégradé_sans_nom_6-2" cx="-786.67" cy="-317.61" fx="-786.67" fy="-317.61" r="1" gradientTransform="translate(19305.71 -7696.15) scale(24.51 -24.51)" xlink:href="#Dégradé_sans_nom_6"/>
    <filter id="drop-shadow-5" x="186.78" y="71.82" width="79.44" height="79.44" filterUnits="userSpaceOnUse">
      <feOffset dx="7" dy="7"/>
      <feGaussianBlur result="blur-5" stdDeviation="5"/>
      <feFlood flood-color="#1d1d1b" flood-opacity=".75"/>
      <feComposite in2="blur-5" operator="in"/>
      <feComposite in="SourceGraphic"/>
    </filter>
    <radialGradient id="Dégradé_sans_nom_8-2" cx="-786.67" cy="-317.61" fx="-786.67" fy="-317.61" r="1" gradientTransform="translate(19500.71 -7680.15) scale(24.51 -24.51)" xlink:href="#Dégradé_sans_nom_8"/>
    <filter id="drop-shadow-6" x="33.9" y="133.98" width="81.84" height="81.84" filterUnits="userSpaceOnUse">
      <feOffset dx="7" dy="7"/>
      <feGaussianBlur result="blur-6" stdDeviation="5"/>
      <feFlood flood-color="#1d1d1b" flood-opacity=".75"/>
      <feComposite in2="blur-6" operator="in"/>
      <feComposite in="SourceGraphic"/>
    </filter>
    <radialGradient id="Dégradé_sans_nom_8-3" cx="-788.35" cy="-317.04" fx="-788.35" fy="-317.04" r="1" gradientTransform="translate(20415.19 -8015.09) scale(25.81 -25.81)" xlink:href="#Dégradé_sans_nom_8"/>
    <filter id="drop-shadow-7" x="143.82" y="166.86" width="79.44" height="79.2" filterUnits="userSpaceOnUse">
      <feOffset dx="7" dy="7"/>
      <feGaussianBlur result="blur-7" stdDeviation="5"/>
      <feFlood flood-color="#1d1d1b" flood-opacity=".75"/>
      <feComposite in2="blur-7" operator="in"/>
      <feComposite in="SourceGraphic"/>
    </filter>
    <radialGradient id="Dégradé_sans_nom_6-3" cy="-317.61" fy="-317.61" r="1" gradientTransform="translate(19457.71 -7585.15) scale(24.51 -24.51)" xlink:href="#Dégradé_sans_nom_6"/>
  </defs>
  <g>
    <g>
      <circle class="cls-15" cx="124" cy="118" r="103"/>
      <path class="cls-10" d="M54.94,124.29c-.41-.15-.69-.37-.86-.67s-.26-.69-.26-1.18c0-.28.03-.61.1-.99.06-.4.16-.79.29-1.15l.13-.13c-.19.66-.44,1.24-.74,1.73-.3.47-.65.86-1.06,1.18-.45.38-.99.67-1.63.86s-1.38.29-2.21.29c-1.47,0-2.62-.31-3.46-.93-.83-.62-1.25-1.53-1.25-2.72,0-.81.18-1.5.54-2.08.38-.6.9-1.1,1.54-1.5.66-.43,1.39-.77,2.18-1.02.81-.26,1.64-.46,2.5-.61.87-.17,1.73-.32,2.56-.45,0-.51-.02-.96-.06-1.34-.02-.38-.09-.72-.19-.99-.09-.3-.23-.55-.45-.77-.23-.28-.51-.47-.83-.58-.3-.11-.6-.16-.9-.16-.53,0-.97.16-1.31.48-.34.32-.6.76-.77,1.31-.17.53-.29,1.12-.35,1.76-.62,0-1.17-.02-1.66-.06s-.94-.15-1.34-.32c.04-.6.05-1.23.03-1.89-.02-.66-.11-1.35-.26-2.08.92-.38,1.99-.68,3.23-.9,1.24-.24,2.42-.35,3.55-.35,1.41,0,2.52.16,3.33.48.81.3,1.42.65,1.82,1.06.43.43.77,1.04,1.02,1.82.28.77.42,1.91.42,3.42v2.46c0,.72.04,1.28.13,1.66.09.38.26.65.51.8.28.13.67.2,1.18.22.06.4.07.8.03,1.18-.04.38-.15.75-.32,1.09-.87.02-1.76.12-2.66.29-.9.17-1.74.43-2.53.77ZM50.58,121.18c.43,0,.84-.13,1.25-.38.43-.28.78-.69,1.06-1.25.28-.56.42-1.24.42-2.05v-.74c-.66.13-1.26.28-1.79.45-.51.17-.94.36-1.28.58-.34.21-.6.47-.77.77-.17.3-.26.65-.26,1.06,0,.56.13.96.38,1.22.28.24.61.35.99.35ZM68.3,124.19c-1.56,0-2.77-.43-3.65-1.28-.85-.88-1.28-2.42-1.28-4.64v-3.36c0-.96-.11-1.63-.32-2.02-.21-.38-.78-.61-1.7-.67,0-.36.02-.72.06-1.09.06-.38.17-.72.32-1.02,1.34,0,2.54-.11,3.58-.32,1.05-.24,1.82-.48,2.34-.74.32.13.57.34.74.64.17.3.26.72.26,1.25v6.53c0,1.43.14,2.42.42,2.98.28.53.7.8,1.28.8.79,0,1.47-.4,2.05-1.22.58-.81.86-2.06.86-3.74v-1.54c0-.96-.14-1.63-.42-2.02-.28-.38-.91-.61-1.89-.67,0-.36.02-.73.06-1.09.04-.38.14-.72.29-1.02,1.39,0,2.65-.09,3.78-.26,1.13-.19,1.94-.4,2.43-.64.32.13.57.34.74.64.17.3.26.72.26,1.25v8.77l-4.58,1.15c-.15.4-.32.77-.51,1.09-.19.3-.42.56-.67.8-.45.4-1.05.75-1.79,1.02-.75.28-1.63.42-2.66.42ZM74.83,124.29c-.41-.15-.69-.36-.86-.64-.17-.3-.26-.69-.26-1.18,0-.38.04-.81.13-1.28.11-.47.21-.88.32-1.25l4.35-1.73c0,.75.04,1.32.13,1.73.09.38.26.65.51.8.28.13.68.2,1.22.22.06.4.07.8.03,1.18-.04.38-.16.75-.35,1.09-.85.02-1.74.12-2.66.29-.92.17-1.77.43-2.56.77ZM88.49,124.29c-1.58,0-2.77-.4-3.58-1.22-.81-.83-1.22-2.23-1.22-4.19v-6.59c-.34-.13-.7-.22-1.09-.29-.36-.06-.79-.1-1.28-.1,0-.43.02-.81.06-1.15.06-.36.18-.72.35-1.09h1.95v-3.81c.83-.11,1.64-.32,2.43-.64.81-.32,1.46-.67,1.95-1.06.34.13.58.33.7.61s.19.77.19,1.47v3.42h3.84c0,.47-.03.89-.1,1.25-.04.34-.12.68-.22,1.02-.68,0-1.32.05-1.92.16-.58.08-1.11.21-1.6.38v5.92c0,.92.05,1.62.16,2.11.11.47.28.8.51.99.23.17.53.26.9.26.32,0,.64-.03.96-.1.34-.08.66-.2.96-.35.3.43.46,1.02.48,1.79-.45.34-1.09.63-1.92.86-.81.21-1.65.32-2.53.32ZM102.62,124.29c-1.79,0-3.31-.3-4.54-.9-1.22-.62-2.13-1.48-2.75-2.59-.62-1.11-.93-2.41-.93-3.9,0-1.73.36-3.17,1.09-4.32.75-1.17,1.76-2.05,3.04-2.62,1.28-.6,2.72-.9,4.32-.9,1.83,0,3.36.32,4.58.96,1.24.64,2.16,1.51,2.78,2.62.62,1.11.93,2.39.93,3.84,0,1.6-.34,2.99-1.02,4.16-.68,1.17-1.66,2.08-2.94,2.72-1.28.62-2.79.93-4.54.93ZM103.14,122.05c.87,0,1.54-.45,1.98-1.34.45-.9.67-2.01.67-3.33s-.16-2.54-.48-3.46c-.32-.92-.74-1.6-1.25-2.05-.51-.47-1.07-.7-1.66-.7-.92,0-1.59.45-2.02,1.34-.43.9-.64,2-.64,3.3,0,1.17.13,2.24.38,3.2.26.94.64,1.68,1.15,2.24.51.53,1.13.8,1.86.8ZM115.36,117.38v-2.46c0-.66-.04-1.17-.13-1.54-.09-.36-.3-.63-.64-.8-.32-.19-.83-.31-1.54-.35,0-.36.02-.72.06-1.09.06-.38.17-.72.32-1.02,1.34,0,2.58-.11,3.71-.32,1.15-.24,1.98-.48,2.5-.74.32.13.56.34.73.64.17.3.26.72.26,1.25l-5.28,6.43ZM131.07,119.1c0,1.07.11,1.8.32,2.21.21.38.61.58,1.18.58.13.3.2.63.22.99.04.34.06.75.06,1.22-.47-.02-1.11-.04-1.92-.06-.79-.02-1.55-.03-2.27-.03h-1.7c-.64.02-1.25.03-1.82.03-.58.02-1.02.04-1.34.06,0-.4.01-.79.03-1.15.04-.38.13-.74.26-1.06.53,0,.95-.21,1.25-.64.3-.45.45-1.25.45-2.4v-2.88c0-1.3-.19-2.2-.58-2.69-.38-.51-.94-.77-1.66-.77-.51,0-.99.2-1.44.61-.45.4-.81.98-1.09,1.73-.26.75-.38,1.65-.38,2.72v1.54c0,1.09.14,1.82.42,2.21.28.38.69.58,1.25.58.15.34.23.68.26,1.02.04.34.06.74.06,1.18-.32-.02-.75-.04-1.28-.06-.53,0-1.1-.01-1.69-.03h-3.36c-.66.02-1.3.03-1.92.03-.6.02-1.06.04-1.38.06,0-.45.02-.86.07-1.25.06-.38.14-.7.22-.96.83,0,1.39-.19,1.66-.58.28-.4.42-1.14.42-2.21v-4.19l5.28-3.97c0,.26-.03.56-.1.9-.06.32-.15.66-.26,1.02.15-.34.3-.66.45-.96.17-.3.37-.58.61-.83.47-.51,1.08-.95,1.82-1.31.77-.36,1.62-.54,2.56-.54s1.81.17,2.62.51c.81.34,1.46.9,1.95,1.66.51.77.77,1.78.77,3.04v4.67ZM142.44,124.29c-1.79,0-3.31-.3-4.54-.9-1.22-.62-2.13-1.48-2.75-2.59-.62-1.11-.93-2.41-.93-3.9,0-1.73.36-3.17,1.09-4.32.75-1.17,1.76-2.05,3.04-2.62,1.28-.6,2.72-.9,4.32-.9,1.83,0,3.36.32,4.58.96,1.24.64,2.17,1.51,2.78,2.62.62,1.11.93,2.39.93,3.84,0,1.6-.34,2.99-1.02,4.16-.68,1.17-1.66,2.08-2.94,2.72-1.28.62-2.79.93-4.54.93ZM142.95,122.05c.88,0,1.54-.45,1.98-1.34.45-.9.67-2.01.67-3.33s-.16-2.54-.48-3.46c-.32-.92-.74-1.6-1.25-2.05-.51-.47-1.07-.7-1.66-.7-.92,0-1.59.45-2.02,1.34-.43.9-.64,2-.64,3.3,0,1.17.13,2.24.38,3.2.26.94.64,1.68,1.15,2.24.51.53,1.13.8,1.86.8ZM152.81,124.1c0-.4.02-.79.06-1.15.04-.38.12-.72.22-1.02.88-.06,1.44-.28,1.7-.64.26-.38.38-1.11.38-2.18v-3.84c0-.79-.04-1.39-.13-1.79-.09-.4-.3-.7-.64-.9-.32-.19-.83-.31-1.54-.35,0-.36.02-.71.06-1.06.06-.36.17-.71.32-1.06.77,0,1.55-.04,2.34-.13.79-.11,1.53-.24,2.21-.38.68-.17,1.23-.35,1.63-.54.26.08.48.28.67.58.19.3.29.72.29,1.28,0,.38-.05.8-.16,1.25-.08.43-.26,1.13-.51,2.11h-.19c.4-1.05.73-1.79.96-2.24.24-.45.46-.78.67-.99.47-.53,1.09-.99,1.86-1.38.77-.38,1.61-.58,2.53-.58,1.02,0,1.93.22,2.72.67.81.43,1.43,1.04,1.86,1.86.28.49.42.99.42,1.5h-.16c.38-1,.81-1.72,1.28-2.14.47-.47,1.04-.86,1.73-1.18.68-.34,1.46-.51,2.34-.51,1.13,0,2.08.19,2.85.58.79.36,1.39.95,1.79,1.76.43.79.64,1.86.64,3.2v3.14c0,1.15.03,2,.1,2.56.09.53.24.89.45,1.06.21.17.54.28.99.32.11.32.17.67.19,1.06.04.36.06.75.06,1.15-.53-.04-1.17-.07-1.92-.1h-3.97c-.6.02-1.17.03-1.73.03-.55.02-1.02.04-1.41.06,0-.47.01-.86.03-1.18.04-.34.11-.68.19-1.02.43-.02.77-.13,1.02-.32.26-.19.44-.56.54-1.09.11-.53.16-1.29.16-2.27v-2.34c0-1.32-.18-2.21-.54-2.66-.36-.47-.84-.7-1.44-.7s-1.13.19-1.6.58c-.45.38-.8.96-1.06,1.73-.24.75-.35,1.66-.35,2.75v1.38c0,1.11.12,1.87.35,2.27.24.4.7.63,1.41.67.09.28.15.62.19,1.02.04.38.06.78.06,1.18-.49-.04-1.17-.07-2.05-.1h-5.12c-.85.02-1.57.05-2.14.1,0-.4.02-.8.06-1.18.06-.4.14-.75.22-1.02.49-.04.86-.15,1.12-.32.26-.19.43-.56.51-1.09.11-.56.16-1.4.16-2.53v-2.37c0-1.19-.18-2.02-.54-2.46-.36-.45-.91-.67-1.63-.67-.53,0-1.02.21-1.47.64-.43.43-.78,1.02-1.06,1.79-.26.77-.38,1.64-.38,2.62v1.44c0,1.15.12,1.92.35,2.3s.69.6,1.38.64c.11.3.18.64.22,1.02.04.38.06.78.06,1.18-.34-.04-.81-.07-1.41-.1h-6.94c-.53.02-.96.05-1.28.1ZM192.25,124.29c-1.92,0-3.48-.33-4.67-.99-1.17-.66-2.04-1.56-2.59-2.69-.55-1.13-.83-2.4-.83-3.81,0-1.58.31-2.94.93-4.1.62-1.15,1.51-2.05,2.69-2.69,1.17-.64,2.55-.96,4.13-.96s2.88.3,3.9.9c1.02.58,1.78,1.39,2.27,2.43.51,1.02.79,2.22.83,3.58-.17.7-.48,1.27-.93,1.7h-2.11c-.79,0-1.62.01-2.5.03-.85,0-1.73.02-2.62.06-.88.04-1.72.1-2.53.16v-2.3h5.89c0-1.45-.19-2.55-.58-3.3-.36-.75-.92-1.12-1.66-1.12-.49,0-.93.18-1.31.54-.36.34-.64.86-.83,1.57-.19.68-.29,1.54-.29,2.56,0,1.11.14,2.1.42,2.98.28.88.74,1.56,1.38,2.05.64.49,1.5.74,2.59.74.75,0,1.49-.13,2.24-.38.75-.26,1.37-.59,1.86-.99.21.13.4.38.58.77.17.36.26.74.26,1.12-.83.7-1.78,1.24-2.85,1.6-1.05.36-2.26.54-3.65.54Z"/>
      <circle class="cls-15" cx="123" cy="119.5" r="103"/>
      <g class="cls-1">
        <path class="cls-10" d="M53.94,125.79c-.41-.15-.69-.37-.86-.67s-.26-.69-.26-1.18c0-.28.03-.61.1-.99.06-.4.16-.79.29-1.15l.13-.13c-.19.66-.44,1.24-.74,1.73-.3.47-.65.86-1.06,1.18-.45.38-.99.67-1.63.86s-1.38.29-2.21.29c-1.47,0-2.62-.31-3.46-.93-.83-.62-1.25-1.53-1.25-2.72,0-.81.18-1.5.54-2.08.38-.6.9-1.1,1.54-1.5.66-.43,1.39-.77,2.18-1.02.81-.26,1.64-.46,2.5-.61.87-.17,1.73-.32,2.56-.45,0-.51-.02-.96-.06-1.34-.02-.38-.09-.72-.19-.99-.09-.3-.23-.55-.45-.77-.23-.28-.51-.47-.83-.58-.3-.11-.6-.16-.9-.16-.53,0-.97.16-1.31.48-.34.32-.6.76-.77,1.31-.17.53-.29,1.12-.35,1.76-.62,0-1.17-.02-1.66-.06s-.94-.15-1.34-.32c.04-.6.05-1.23.03-1.89-.02-.66-.11-1.35-.26-2.08.92-.38,1.99-.68,3.23-.9,1.24-.24,2.42-.35,3.55-.35,1.41,0,2.52.16,3.33.48.81.3,1.42.65,1.82,1.06.43.43.77,1.04,1.02,1.82.28.77.42,1.91.42,3.42v2.46c0,.72.04,1.28.13,1.66.09.38.26.65.51.8.28.13.67.2,1.18.22.06.4.07.8.03,1.18-.04.38-.15.75-.32,1.09-.87.02-1.76.12-2.66.29-.9.17-1.74.43-2.53.77ZM49.58,122.68c.43,0,.84-.13,1.25-.38.43-.28.78-.69,1.06-1.25.28-.56.42-1.24.42-2.05v-.74c-.66.13-1.26.28-1.79.45-.51.17-.94.36-1.28.58-.34.21-.6.47-.77.77-.17.3-.26.65-.26,1.06,0,.56.13.96.38,1.22.28.24.61.35.99.35ZM67.3,125.69c-1.56,0-2.77-.43-3.65-1.28-.85-.88-1.28-2.42-1.28-4.64v-3.36c0-.96-.11-1.63-.32-2.02-.21-.38-.78-.61-1.7-.67,0-.36.02-.72.06-1.09.06-.38.17-.72.32-1.02,1.34,0,2.54-.11,3.58-.32,1.05-.24,1.82-.48,2.34-.74.32.13.57.34.74.64.17.3.26.72.26,1.25v6.53c0,1.43.14,2.42.42,2.98.28.53.7.8,1.28.8.79,0,1.47-.4,2.05-1.22.58-.81.86-2.06.86-3.74v-1.54c0-.96-.14-1.63-.42-2.02-.28-.38-.91-.61-1.89-.67,0-.36.02-.73.06-1.09.04-.38.14-.72.29-1.02,1.39,0,2.65-.09,3.78-.26,1.13-.19,1.94-.4,2.43-.64.32.13.57.34.74.64.17.3.26.72.26,1.25v8.77l-4.58,1.15c-.15.4-.32.77-.51,1.09-.19.3-.42.57-.67.8-.45.4-1.05.75-1.79,1.02-.75.28-1.63.42-2.66.42ZM73.83,125.79c-.41-.15-.69-.36-.86-.64-.17-.3-.26-.69-.26-1.18,0-.38.04-.81.13-1.28.11-.47.21-.88.32-1.25l4.35-1.73c0,.75.04,1.32.13,1.73.09.38.26.65.51.8.28.13.68.2,1.22.22.06.4.07.8.03,1.18-.04.38-.16.75-.35,1.09-.85.02-1.74.12-2.66.29-.92.17-1.77.43-2.56.77ZM87.49,125.79c-1.58,0-2.77-.4-3.58-1.22-.81-.83-1.22-2.23-1.22-4.19v-6.59c-.34-.13-.7-.22-1.09-.29-.36-.06-.79-.1-1.28-.1,0-.43.02-.81.06-1.15.06-.36.18-.72.35-1.09h1.95v-3.81c.83-.11,1.64-.32,2.43-.64.81-.32,1.46-.67,1.95-1.06.34.13.58.33.7.61s.19.77.19,1.47v3.42h3.84c0,.47-.03.89-.1,1.25-.04.34-.12.68-.22,1.02-.68,0-1.32.05-1.92.16-.58.08-1.11.21-1.6.38v5.92c0,.92.05,1.62.16,2.11.11.47.28.8.51.99.23.17.53.26.9.26.32,0,.64-.03.96-.1.34-.09.66-.2.96-.35.3.43.46,1.02.48,1.79-.45.34-1.09.63-1.92.86-.81.21-1.65.32-2.53.32ZM101.62,125.79c-1.79,0-3.31-.3-4.54-.9-1.22-.62-2.13-1.48-2.75-2.59-.62-1.11-.93-2.41-.93-3.9,0-1.73.36-3.17,1.09-4.32.75-1.17,1.76-2.05,3.04-2.62,1.28-.6,2.72-.9,4.32-.9,1.83,0,3.36.32,4.58.96,1.24.64,2.16,1.51,2.78,2.62.62,1.11.93,2.39.93,3.84,0,1.6-.34,2.99-1.02,4.16-.68,1.17-1.66,2.08-2.94,2.72-1.28.62-2.79.93-4.54.93ZM102.14,123.55c.87,0,1.54-.45,1.98-1.34.45-.9.67-2.01.67-3.33s-.16-2.54-.48-3.46c-.32-.92-.74-1.6-1.25-2.05-.51-.47-1.07-.7-1.66-.7-.92,0-1.59.45-2.02,1.34-.43.9-.64,2-.64,3.3,0,1.17.13,2.24.38,3.2.26.94.64,1.68,1.15,2.24.51.53,1.13.8,1.86.8ZM114.36,118.88v-2.46c0-.66-.04-1.17-.13-1.54-.09-.36-.3-.63-.64-.8-.32-.19-.83-.31-1.54-.35,0-.36.02-.72.06-1.09.06-.38.17-.72.32-1.02,1.34,0,2.58-.11,3.71-.32,1.15-.24,1.98-.48,2.5-.74.32.13.56.34.74.64.17.3.26.72.26,1.25l-5.28,6.43ZM130.07,120.6c0,1.07.11,1.8.32,2.21.21.38.61.58,1.18.58.13.3.2.63.22.99.04.34.06.75.06,1.22-.47-.02-1.11-.04-1.92-.06-.79-.02-1.55-.03-2.27-.03h-1.7c-.64.02-1.25.03-1.82.03-.58.02-1.02.04-1.34.06,0-.4.01-.79.03-1.15.04-.38.13-.74.26-1.06.53,0,.95-.21,1.25-.64.3-.45.45-1.25.45-2.4v-2.88c0-1.3-.19-2.2-.58-2.69-.38-.51-.94-.77-1.66-.77-.51,0-.99.2-1.44.61-.45.4-.81.98-1.09,1.73-.26.75-.38,1.65-.38,2.72v1.54c0,1.09.14,1.82.42,2.21.28.38.69.58,1.25.58.15.34.23.68.26,1.02.04.34.06.74.06,1.18-.32-.02-.75-.04-1.28-.06-.53,0-1.1-.01-1.69-.03h-3.36c-.66.02-1.3.03-1.92.03-.6.02-1.06.04-1.38.06,0-.45.02-.86.07-1.25.06-.38.14-.7.22-.96.83,0,1.39-.19,1.66-.58.28-.4.42-1.14.42-2.21v-4.19l5.28-3.97c0,.26-.03.56-.1.9-.06.32-.15.66-.26,1.02.15-.34.3-.66.45-.96.17-.3.37-.58.61-.83.47-.51,1.08-.95,1.82-1.31.77-.36,1.62-.54,2.56-.54s1.81.17,2.62.51c.81.34,1.46.9,1.95,1.66.51.77.77,1.78.77,3.04v4.67ZM141.44,125.79c-1.79,0-3.31-.3-4.54-.9-1.22-.62-2.13-1.48-2.75-2.59-.62-1.11-.93-2.41-.93-3.9,0-1.73.36-3.17,1.09-4.32.75-1.17,1.76-2.05,3.04-2.62,1.28-.6,2.72-.9,4.32-.9,1.83,0,3.36.32,4.58.96,1.24.64,2.17,1.51,2.78,2.62.62,1.11.93,2.39.93,3.84,0,1.6-.34,2.99-1.02,4.16-.68,1.17-1.66,2.08-2.94,2.72-1.28.62-2.79.93-4.54.93ZM141.95,123.55c.88,0,1.54-.45,1.98-1.34.45-.9.67-2.01.67-3.33s-.16-2.54-.48-3.46c-.32-.92-.74-1.6-1.25-2.05-.51-.47-1.07-.7-1.66-.7-.92,0-1.59.45-2.02,1.34-.43.9-.64,2-.64,3.3,0,1.17.13,2.24.38,3.2.26.94.64,1.68,1.15,2.24.51.53,1.13.8,1.86.8ZM151.81,125.6c0-.4.02-.79.06-1.15.04-.38.12-.73.22-1.02.88-.06,1.44-.28,1.7-.64.26-.38.38-1.11.38-2.18v-3.84c0-.79-.04-1.39-.13-1.79-.09-.4-.3-.7-.64-.9-.32-.19-.83-.31-1.54-.35,0-.36.02-.71.06-1.06.06-.36.17-.71.32-1.06.77,0,1.55-.04,2.34-.13.79-.11,1.53-.24,2.21-.38.68-.17,1.23-.35,1.63-.54.26.08.48.28.67.58.19.3.29.72.29,1.28,0,.38-.05.8-.16,1.25-.08.43-.26,1.13-.51,2.11h-.19c.4-1.05.73-1.79.96-2.24.24-.45.46-.78.67-.99.47-.53,1.09-.99,1.86-1.38.77-.38,1.61-.58,2.53-.58,1.02,0,1.93.22,2.72.67.81.43,1.43,1.04,1.86,1.86.28.49.42.99.42,1.5h-.16c.38-1,.81-1.72,1.28-2.14.47-.47,1.04-.86,1.73-1.18.68-.34,1.46-.51,2.34-.51,1.13,0,2.08.19,2.85.58.79.36,1.39.95,1.79,1.76.43.79.64,1.86.64,3.2v3.14c0,1.15.03,2,.1,2.56.09.53.24.89.45,1.06.21.17.54.28.99.32.11.32.17.67.19,1.06.04.36.06.75.06,1.15-.53-.04-1.17-.07-1.92-.1h-3.97c-.6.02-1.17.03-1.73.03-.55.02-1.02.04-1.41.06,0-.47.01-.86.03-1.18.04-.34.11-.68.19-1.02.43-.02.77-.13,1.02-.32.26-.19.44-.55.54-1.09.11-.53.16-1.29.16-2.27v-2.34c0-1.32-.18-2.21-.54-2.66-.36-.47-.84-.7-1.44-.7s-1.13.19-1.6.58c-.45.38-.8.96-1.06,1.73-.24.75-.35,1.66-.35,2.75v1.38c0,1.11.12,1.87.35,2.27.24.4.7.63,1.41.67.09.28.15.62.19,1.02.04.38.06.78.06,1.18-.49-.04-1.17-.07-2.05-.1h-5.12c-.85.02-1.57.05-2.14.1,0-.4.02-.8.06-1.18.06-.4.14-.75.22-1.02.49-.04.86-.15,1.12-.32.26-.19.43-.55.51-1.09.11-.56.16-1.4.16-2.53v-2.37c0-1.19-.18-2.02-.54-2.46-.36-.45-.91-.67-1.63-.67-.53,0-1.02.21-1.47.64-.43.43-.78,1.02-1.06,1.79-.26.77-.38,1.64-.38,2.62v1.44c0,1.15.12,1.92.35,2.3s.69.6,1.38.64c.11.3.18.64.22,1.02.04.38.06.78.06,1.18-.34-.04-.81-.07-1.41-.1h-6.94c-.53.02-.96.05-1.28.1ZM191.25,125.79c-1.92,0-3.48-.33-4.67-.99-1.17-.66-2.04-1.56-2.59-2.69-.55-1.13-.83-2.4-.83-3.81,0-1.58.31-2.94.93-4.1.62-1.15,1.51-2.05,2.69-2.69,1.17-.64,2.55-.96,4.13-.96s2.88.3,3.9.9c1.02.58,1.78,1.39,2.27,2.43.51,1.02.79,2.22.83,3.58-.17.7-.48,1.27-.93,1.7h-2.11c-.79,0-1.62.01-2.5.03-.85,0-1.73.02-2.62.06-.88.04-1.72.1-2.53.16v-2.3h5.89c0-1.45-.19-2.55-.58-3.3-.36-.75-.92-1.12-1.66-1.12-.49,0-.93.18-1.31.54-.36.34-.64.86-.83,1.57-.19.68-.29,1.54-.29,2.56,0,1.11.14,2.1.42,2.98.28.88.74,1.56,1.38,2.05.64.49,1.5.74,2.59.74.75,0,1.49-.13,2.24-.38.75-.26,1.37-.59,1.86-.99.21.13.4.38.58.77.17.36.26.74.26,1.12-.83.7-1.78,1.24-2.85,1.6-1.05.36-2.26.54-3.65.54Z"/>
      </g>
      <g class="cls-3">
        <path class="cls-9" d="M159.09,50.18c13.86,0,25.09-11.23,25.09-25.09S172.95,0,159.09,0s-25.09,11.23-25.09,25.09,11.23,25.09,25.09,25.09Z"/>
      </g>
      <g class="cls-2">
        <path class="cls-8" d="M133.51,80.02c13.54,0,24.51-10.97,24.51-24.51s-10.97-24.51-24.51-24.51-24.51,10.97-24.51,24.51,10.97,24.51,24.51,24.51Z"/>
      </g>
      <g class="cls-7">
        <path class="cls-14" d="M24.51,113.02c13.54,0,24.51-10.97,24.51-24.51s-10.97-24.51-24.51-24.51S0,74.97,0,88.51s10.97,24.51,24.51,24.51Z"/>
      </g>
      <g class="cls-6">
        <path class="cls-11" d="M219.51,129.02c13.54,0,24.51-10.97,24.51-24.51s-10.97-24.51-24.51-24.51-24.51,10.97-24.51,24.51,10.97,24.51,24.51,24.51Z"/>
      </g>
      <g class="cls-4">
        <path class="cls-12" d="M67.81,193.62c14.25,0,25.81-11.56,25.81-25.81s-11.56-25.81-25.81-25.81-25.81,11.56-25.81,25.81,11.56,25.81,25.81,25.81Z"/>
      </g>
      <g class="cls-5">
        <path class="cls-13" d="M176.51,224.02c13.54,0,24.51-10.97,24.51-24.51s-10.97-24.51-24.51-24.51-24.51,10.97-24.51,24.51,10.97,24.51,24.51,24.51Z"/>
      </g>
    </g>
  </g>
</svg>