<svg width="126" height="115" viewBox="0 0 126 115" fill="none" xmlns="http://www.w3.org/2000/svg">
<g clip-path="url(#clip0_262_234)">
<path d="M103.111 26.1493L96.5333 11.8641C94.1388 6.66336 87.9829 4.39828 82.7934 6.78768L71.3764 12.0444C71.4175 12.1337 71.4809 12.2127 71.522 12.3019C72.5395 14.5117 71.576 17.1195 69.3662 18.1369C67.1565 19.1544 64.5487 18.1909 63.5312 15.9811C63.4901 15.8918 63.4713 15.7923 63.4302 15.703L11.8584 39.448C6.66367 41.8263 4.38742 47.9873 6.77683 53.1768L13.3541 67.462C19.0012 64.8619 25.6838 67.3309 28.2839 72.978C30.8839 78.6251 28.415 85.3077 22.7679 87.9077L29.3452 102.193C31.7397 107.394 37.8955 109.659 43.0851 107.269L94.6458 83.5294C94.6047 83.4402 94.5413 83.3612 94.5001 83.2719C93.4827 81.0621 94.4462 78.4543 96.656 77.4369C98.8657 76.4195 101.474 77.383 102.491 79.5927C102.532 79.682 102.551 79.7815 102.592 79.8708L114.009 74.6141C119.21 72.2196 121.475 66.0638 119.085 60.8742L112.508 46.589C106.861 49.1891 100.178 46.7201 97.5783 41.073C94.9782 35.4259 97.4472 28.7434 103.094 26.1433L103.111 26.1493ZM95.1975 74.2399C92.9878 75.2573 90.3799 74.2938 89.3625 72.0841C88.3451 69.8743 89.3086 67.2665 91.5183 66.2491C93.7281 65.2317 96.3359 66.1952 97.3533 68.4049C98.3707 70.6147 97.4072 73.2225 95.1975 74.2399ZM90.0384 63.0349C87.8287 64.0524 85.2209 63.0889 84.2035 60.8791C83.186 58.6694 84.1495 56.0616 86.3593 55.0441C88.569 54.0267 91.1768 54.9902 92.1943 57.1999C93.2117 59.4097 92.2482 62.0175 90.0384 63.0349ZM84.8794 51.83C82.6696 52.8474 80.0618 51.8839 79.0444 49.6742C78.027 47.4644 78.9905 44.8566 81.2002 43.8392C83.41 42.8217 86.0178 43.7852 87.0352 45.995C88.0526 48.2047 87.0891 50.8125 84.8794 51.83ZM79.7203 40.625C77.5106 41.6424 74.9028 40.6789 73.8853 38.4692C72.8679 36.2594 73.8314 33.6516 76.0411 32.6342C78.2509 31.6168 80.8587 32.5803 81.8761 34.79C82.8936 36.9998 81.9301 39.6076 79.7203 40.625ZM74.5972 29.4981C72.3875 30.5156 69.7797 29.5521 68.7622 27.3423C67.7448 25.1326 68.7083 22.5248 70.9181 21.5073C73.1278 20.4899 75.7356 21.4534 76.753 23.6632C77.7705 25.8729 76.807 28.4807 74.5972 29.4981Z" fill="#FFD103"/>
<path d="M103.111 26.1493L96.5333 11.8641C94.1388 6.66336 87.9829 4.39828 82.7934 6.78768L71.3764 12.0444C71.4175 12.1337 71.4809 12.2127 71.522 12.3019C72.5395 14.5117 71.576 17.1195 69.3662 18.1369C67.1565 19.1544 64.5487 18.1909 63.5312 15.9811C63.4901 15.8918 63.4713 15.7923 63.4302 15.703L11.8584 39.448C6.66367 41.8263 4.38742 47.9873 6.77683 53.1768L13.3541 67.462C19.0012 64.8619 25.6838 67.3309 28.2839 72.978C30.8839 78.6251 28.415 85.3077 22.7679 87.9077L29.3452 102.193C31.7397 107.394 37.8955 109.659 43.0851 107.269L94.6458 83.5294C94.6047 83.4402 94.5413 83.3612 94.5001 83.2719C93.4827 81.0621 94.4462 78.4543 96.656 77.4369C98.8657 76.4195 101.474 77.383 102.491 79.5927C102.532 79.682 102.551 79.7815 102.592 79.8708L114.009 74.6141C119.21 72.2196 121.475 66.0638 119.085 60.8742L112.508 46.589C106.861 49.1891 100.178 46.7201 97.5783 41.073C94.9782 35.4259 97.4472 28.7434 103.094 26.1433L103.111 26.1493ZM95.1975 74.2399C92.9878 75.2573 90.3799 74.2938 89.3625 72.0841C88.3451 69.8743 89.3086 67.2665 91.5183 66.2491C93.7281 65.2317 96.3359 66.1952 97.3533 68.4049C98.3707 70.6147 97.4072 73.2225 95.1975 74.2399ZM90.0384 63.0349C87.8287 64.0524 85.2209 63.0889 84.2035 60.8791C83.186 58.6694 84.1495 56.0616 86.3593 55.0441C88.569 54.0267 91.1768 54.9902 92.1943 57.1999C93.2117 59.4097 92.2482 62.0175 90.0384 63.0349ZM84.8794 51.83C82.6696 52.8474 80.0618 51.8839 79.0444 49.6742C78.027 47.4644 78.9905 44.8566 81.2002 43.8392C83.41 42.8217 86.0178 43.7852 87.0352 45.995C88.0526 48.2047 87.0891 50.8125 84.8794 51.83ZM79.7203 40.625C77.5106 41.6424 74.9028 40.6789 73.8853 38.4692C72.8679 36.2594 73.8314 33.6516 76.0411 32.6342C78.2509 31.6168 80.8587 32.5803 81.8761 34.79C82.8936 36.9998 81.9301 39.6076 79.7203 40.625ZM74.5972 29.4981C72.3875 30.5156 69.7797 29.5521 68.7622 27.3423C67.7448 25.1326 68.7083 22.5248 70.9181 21.5073C73.1278 20.4899 75.7356 21.4534 76.753 23.6632C77.7705 25.8729 76.807 28.4807 74.5972 29.4981Z" fill="#FFD103"/>
<path d="M103.111 26.1493L96.5333 11.8641C94.1388 6.66336 87.9829 4.39828 82.7934 6.78768L71.3764 12.0444C71.4175 12.1337 71.4809 12.2127 71.522 12.3019C72.5395 14.5117 71.576 17.1195 69.3662 18.1369C67.1565 19.1544 64.5487 18.1909 63.5312 15.9811C63.4901 15.8918 63.4713 15.7923 63.4302 15.703L11.8584 39.448C6.66367 41.8263 4.38742 47.9873 6.77683 53.1768L13.3541 67.462C19.0012 64.8619 25.6838 67.3309 28.2839 72.978C30.8839 78.6251 28.415 85.3077 22.7679 87.9077L29.3452 102.193C31.7397 107.394 37.8955 109.659 43.0851 107.269L94.6458 83.5294C94.6047 83.4402 94.5413 83.3612 94.5001 83.2719C93.4827 81.0621 94.4462 78.4543 96.656 77.4369C98.8657 76.4195 101.474 77.383 102.491 79.5927C102.532 79.682 102.551 79.7815 102.592 79.8708L114.009 74.6141C119.21 72.2196 121.475 66.0638 119.085 60.8742L112.508 46.589C106.861 49.1891 100.178 46.7201 97.5783 41.073C94.9782 35.4259 97.4472 28.7434 103.094 26.1433L103.111 26.1493ZM95.1975 74.2399C92.9878 75.2573 90.3799 74.2938 89.3625 72.0841C88.3451 69.8743 89.3086 67.2665 91.5183 66.2491C93.7281 65.2317 96.3359 66.1952 97.3533 68.4049C98.3707 70.6147 97.4072 73.2225 95.1975 74.2399ZM90.0384 63.0349C87.8287 64.0524 85.2209 63.0889 84.2035 60.8791C83.186 58.6694 84.1495 56.0616 86.3593 55.0441C88.569 54.0267 91.1768 54.9902 92.1942 57.1999C93.2117 59.4097 92.2482 62.0175 90.0384 63.0349ZM84.8794 51.83C82.6696 52.8474 80.0618 51.8839 79.0444 49.6742C78.027 47.4644 78.9905 44.8566 81.2002 43.8392C83.41 42.8217 86.0178 43.7852 87.0352 45.995C88.0526 48.2047 87.0891 50.8125 84.8794 51.83ZM79.7203 40.625C77.5106 41.6424 74.9028 40.6789 73.8853 38.4692C72.8679 36.2594 73.8314 33.6516 76.0411 32.6342C78.2509 31.6168 80.8587 32.5803 81.8761 34.79C82.8935 36.9998 81.9301 39.6076 79.7203 40.625ZM74.5972 29.4981C72.3875 30.5156 69.7797 29.5521 68.7622 27.3423C67.7448 25.1326 68.7083 22.5248 70.9181 21.5074C73.1278 20.4899 75.7356 21.4534 76.753 23.6632C77.7705 25.8729 76.807 28.4807 74.5972 29.4981Z" stroke="white" stroke-width="3" stroke-miterlimit="10"/>
<path d="M45.8017 45.0422L55.6406 55.6885L68.8098 49.6251L61.7178 62.2776L71.5619 72.9351L57.3377 70.0971L50.2457 82.7497L48.5487 68.3411L34.3133 65.5082L47.4936 59.4396L45.8017 45.0422Z" fill="#D61016"/>
</g>
<defs>
<clipPath id="clip0_262_234">
<rect width="102.494" height="78.3753" fill="white" transform="translate(0 42.8652) rotate(-24.7226)"/>
</clipPath>
</defs>
</svg>
