<?xml version="1.0" encoding="UTF-8"?>
<svg id="Calque_2" data-name="Calque 2" xmlns="http://www.w3.org/2000/svg" xmlns:xlink="http://www.w3.org/1999/xlink" viewBox="0 0 460 460">
  <defs>
    <style>
      .cls-1 {
        fill: url(#Dégradé_sans_nom_4);
      }

      .cls-2 {
        fill: #5f2712;
      }
    </style>
    <radialGradient id="Dégradé_sans_nom_4" data-name="Dégradé sans nom 4" cx="-1866.5" cy="294.67" fx="-1866.5" fy="294.67" r="1" gradientTransform="translate(-67543.62 429525.43) rotate(90) scale(230 -230)" gradientUnits="userSpaceOnUse">
      <stop offset=".09" stop-color="#d6ebfb"/>
      <stop offset=".74" stop-color="#72c8d8"/>
      <stop offset=".87" stop-color="#5bc1d0"/>
      <stop offset="1" stop-color="#1cacb9"/>
    </radialGradient>
  </defs>
  <g id="Calque_1-2" data-name="Calque 1">
    <circle class="cls-1" cx="230" cy="230" r="230"/>
    <path class="cls-2" d="M124.38,82.32c0,1.84-.13,3.52-.4,5.04-.24,1.49-.71,2.84-1.4,4.04-.69,1.23-1.69,2.35-3,3.36-1.31,1.01-3.03,1.95-5.16,2.8-.4-.29-.69-.65-.88-1.08-.19-.43-.31-.89-.36-1.4.99-.72,1.79-1.48,2.4-2.28.64-.77,1.11-1.75,1.4-2.92.32-1.17.48-2.67.48-4.48v-17.96c0-1.15-.08-2.01-.24-2.6-.13-.59-.39-.99-.76-1.2-.35-.21-.89-.36-1.64-.44-.11-.35-.19-.77-.24-1.28-.05-.53-.08-1.03-.08-1.48.51.03,1.13.05,1.88.08.75.03,1.52.04,2.32.04h5.6c1.23-.03,2.24-.07,3.04-.12,0,.53-.03,1.03-.08,1.48-.05.45-.13.88-.24,1.28-.77.05-1.36.21-1.76.48-.37.27-.61.69-.72,1.28-.11.59-.16,1.41-.16,2.48v14.88ZM140.1,87.96c-2.4,0-4.35-.41-5.84-1.24-1.47-.83-2.55-1.95-3.24-3.36-.69-1.41-1.04-3-1.04-4.76,0-1.97.39-3.68,1.16-5.12.77-1.44,1.89-2.56,3.36-3.36,1.47-.8,3.19-1.2,5.16-1.2s3.6.37,4.88,1.12c1.28.72,2.23,1.73,2.84,3.04.64,1.28.99,2.77,1.04,4.48-.21.88-.6,1.59-1.16,2.12h-2.64c-.99,0-2.03.01-3.12.04-1.07,0-2.16.03-3.28.08-1.09.05-2.15.12-3.16.2v-2.88h7.36c0-1.81-.24-3.19-.72-4.12-.45-.93-1.15-1.4-2.08-1.4-.61,0-1.16.23-1.64.68-.45.43-.8,1.08-1.04,1.96-.24.85-.36,1.92-.36,3.2,0,1.39.17,2.63.52,3.72s.92,1.95,1.72,2.56c.8.61,1.88.92,3.24.92.93,0,1.87-.16,2.8-.48.93-.32,1.71-.73,2.32-1.24.27.16.51.48.72.96.21.45.32.92.32,1.4-1.04.88-2.23,1.55-3.56,2-1.31.45-2.83.68-4.56.68ZM173.92,70.16c-.03.69-.04,1.41-.04,2.16.03.72.09,1.43.2,2.12-.4.21-.92.4-1.56.56-.61.16-1.24.24-1.88.24-.08-.67-.27-1.27-.56-1.8-.27-.56-.65-1-1.16-1.32-.48-.32-1.11-.48-1.88-.48-.53,0-.96.15-1.28.44-.29.27-.44.63-.44,1.08,0,.32.08.63.24.92.19.29.57.63,1.16,1,.61.35,1.55.79,2.8,1.32,1.52.61,2.71,1.2,3.56,1.76.88.56,1.51,1.16,1.88,1.8.37.64.56,1.41.56,2.32,0,1.2-.36,2.23-1.08,3.08-.69.85-1.69,1.51-3,1.96-1.31.43-2.88.64-4.72.64-1.68,0-3.08-.12-4.2-.36-1.12-.24-2.21-.57-3.28-1,.08-.53.13-1.09.16-1.68.03-.61.03-1.2,0-1.76,0-.59-.03-1.09-.08-1.52.4-.27.93-.45,1.6-.56.69-.13,1.33-.2,1.92-.2.16,1.39.56,2.44,1.2,3.16.67.69,1.48,1.04,2.44,1.04.67,0,1.21-.15,1.64-.44.45-.29.68-.72.68-1.28,0-.4-.11-.75-.32-1.04-.19-.32-.55-.63-1.08-.92-.51-.32-1.27-.67-2.28-1.04-1.17-.45-2.19-.93-3.04-1.44-.85-.51-1.52-1.13-2-1.88-.45-.75-.68-1.71-.68-2.88,0-.91.19-1.68.56-2.32.4-.67.96-1.21,1.68-1.64.72-.43,1.55-.75,2.48-.96.96-.21,1.99-.32,3.08-.32,1.49,0,2.76.11,3.8.32,1.04.19,2.01.49,2.92.92ZM186.07,87.84c-1.95,0-3.47-.53-4.56-1.6-1.07-1.09-1.6-3.03-1.6-5.8v-4.2c0-1.2-.13-2.04-.4-2.52-.27-.48-.97-.76-2.12-.84,0-.45.03-.91.08-1.36.08-.48.21-.91.4-1.28,1.68,0,3.17-.13,4.48-.4,1.31-.29,2.28-.6,2.92-.92.4.16.71.43.92.8.21.37.32.89.32,1.56v8.16c0,1.79.17,3.03.52,3.72.35.67.88,1,1.6,1,.99,0,1.84-.51,2.56-1.52.72-1.01,1.08-2.57,1.08-4.68v-1.92c0-1.2-.17-2.04-.52-2.52-.35-.48-1.13-.76-2.36-.84,0-.45.03-.91.08-1.36.05-.48.17-.91.36-1.28,1.73,0,3.31-.11,4.72-.32,1.41-.24,2.43-.51,3.04-.8.4.16.71.43.92.8.21.37.32.89.32,1.56v10.96l-5.72,1.44c-.19.51-.4.96-.64,1.36-.24.37-.52.71-.84,1-.56.51-1.31.93-2.24,1.28-.93.35-2.04.52-3.32.52ZM194.23,87.96c-.51-.19-.87-.45-1.08-.8-.21-.37-.32-.87-.32-1.48,0-.48.05-1.01.16-1.6.13-.59.27-1.11.4-1.56l5.44-2.16c0,.93.05,1.65.16,2.16.11.48.32.81.64,1,.35.16.85.25,1.52.28.08.51.09,1,.04,1.48-.05.48-.2.93-.44,1.36-1.07.03-2.17.15-3.32.36-1.15.21-2.21.53-3.2.96ZM203.3,87.72c0-.56.03-1.07.08-1.52.05-.48.13-.89.24-1.24,1.07-.05,1.77-.31,2.12-.76.35-.48.52-1.39.52-2.72v-5.8c0-.61-.08-1.12-.24-1.52-.13-.4-.41-.69-.84-.88-.43-.21-1.05-.35-1.88-.4,0-.45.03-.91.08-1.36.08-.48.21-.91.4-1.28,1.09,0,2.16-.07,3.2-.2,1.04-.13,1.96-.29,2.76-.48.83-.21,1.44-.43,1.84-.64.4.16.71.43.92.8.24.37.36.88.36,1.52v10.24c0,1.33.17,2.24.52,2.72.35.45,1.03.71,2.04.76.11.35.17.76.2,1.24.05.48.08.99.08,1.52-.35-.03-.85-.05-1.52-.08-.67,0-1.41-.01-2.24-.04h-4.88c-.83.03-1.57.04-2.24.04-.64.03-1.15.05-1.52.08ZM209.02,66.32c-1.09,0-1.97-.27-2.64-.8-.67-.56-1-1.29-1-2.2,0-1.04.36-1.84,1.08-2.4.75-.59,1.67-.88,2.76-.88,1.25,0,2.2.28,2.84.84.67.56,1,1.36,1,2.4,0,.88-.36,1.61-1.08,2.2-.72.56-1.71.84-2.96.84ZM233.14,70.16c-.03.69-.04,1.41-.04,2.16.03.72.09,1.43.2,2.12-.4.21-.92.4-1.56.56-.61.16-1.24.24-1.88.24-.08-.67-.27-1.27-.56-1.8-.27-.56-.65-1-1.16-1.32-.48-.32-1.11-.48-1.88-.48-.53,0-.96.15-1.28.44-.29.27-.44.63-.44,1.08,0,.32.08.63.24.92.19.29.57.63,1.16,1,.61.35,1.55.79,2.8,1.32,1.52.61,2.71,1.2,3.56,1.76.88.56,1.51,1.16,1.88,1.8.37.64.56,1.41.56,2.32,0,1.2-.36,2.23-1.08,3.08-.69.85-1.69,1.51-3,1.96-1.31.43-2.88.64-4.72.64-1.68,0-3.08-.12-4.2-.36-1.12-.24-2.21-.57-3.28-1,.08-.53.13-1.09.16-1.68.03-.61.03-1.2,0-1.76,0-.59-.03-1.09-.08-1.52.4-.27.93-.45,1.6-.56.69-.13,1.33-.2,1.92-.2.16,1.39.56,2.44,1.2,3.16.67.69,1.48,1.04,2.44,1.04.67,0,1.21-.15,1.64-.44.45-.29.68-.72.68-1.28,0-.4-.11-.75-.32-1.04-.19-.32-.55-.63-1.08-.92-.51-.32-1.27-.67-2.28-1.04-1.17-.45-2.19-.93-3.04-1.44-.85-.51-1.52-1.13-2-1.88-.45-.75-.68-1.71-.68-2.88,0-.91.19-1.68.56-2.32.4-.67.96-1.21,1.68-1.64.72-.43,1.55-.75,2.48-.96.96-.21,1.99-.32,3.08-.32,1.49,0,2.76.11,3.8.32,1.04.19,2.01.49,2.92.92ZM258.93,87.96c-.51-.19-.87-.47-1.08-.84-.21-.37-.32-.87-.32-1.48,0-.35.04-.76.12-1.24.08-.51.2-.99.36-1.44l.16-.16c-.24.83-.55,1.55-.92,2.16-.37.59-.81,1.08-1.32,1.48-.56.48-1.24.84-2.04,1.08s-1.72.36-2.76.36c-1.84,0-3.28-.39-4.32-1.16-1.04-.77-1.56-1.91-1.56-3.4,0-1.01.23-1.88.68-2.6.48-.75,1.12-1.37,1.92-1.88.83-.53,1.73-.96,2.72-1.28,1.01-.32,2.05-.57,3.12-.76,1.09-.21,2.16-.4,3.2-.56,0-.64-.03-1.2-.08-1.68-.03-.48-.11-.89-.24-1.24-.11-.37-.29-.69-.56-.96-.29-.35-.64-.59-1.04-.72-.37-.13-.75-.2-1.12-.2-.67,0-1.21.2-1.64.6-.43.4-.75.95-.96,1.64-.21.67-.36,1.4-.44,2.2-.77,0-1.47-.03-2.08-.08-.61-.05-1.17-.19-1.68-.4.05-.75.07-1.53.04-2.36-.03-.83-.13-1.69-.32-2.6,1.15-.48,2.49-.85,4.04-1.12,1.55-.29,3.03-.44,4.44-.44,1.76,0,3.15.2,4.16.6,1.01.37,1.77.81,2.28,1.32.53.53.96,1.29,1.28,2.28.35.96.52,2.39.52,4.28v3.08c0,.91.05,1.6.16,2.08s.32.81.64,1c.35.16.84.25,1.48.28.08.51.09,1,.04,1.48-.05.48-.19.93-.4,1.36-1.09.03-2.2.15-3.32.36-1.12.21-2.17.53-3.16.96ZM253.49,84.08c.53,0,1.05-.16,1.56-.48.53-.35.97-.87,1.32-1.56s.52-1.55.52-2.56v-.92c-.83.16-1.57.35-2.24.56-.64.21-1.17.45-1.6.72-.43.27-.75.59-.96.96-.21.37-.32.81-.32,1.32,0,.69.16,1.2.48,1.52.35.29.76.44,1.24.44ZM282.83,70.16c-.03.69-.04,1.41-.04,2.16.03.72.09,1.43.2,2.12-.4.21-.92.4-1.56.56-.61.16-1.24.24-1.88.24-.08-.67-.27-1.27-.56-1.8-.27-.56-.65-1-1.16-1.32-.48-.32-1.11-.48-1.88-.48-.53,0-.96.15-1.28.44-.29.27-.44.63-.44,1.08,0,.32.08.63.24.92.19.29.57.63,1.16,1,.61.35,1.55.79,2.8,1.32,1.52.61,2.71,1.2,3.56,1.76.88.56,1.51,1.16,1.88,1.8.37.64.56,1.41.56,2.32,0,1.2-.36,2.23-1.08,3.08-.69.85-1.69,1.51-3,1.96-1.31.43-2.88.64-4.72.64-1.68,0-3.08-.12-4.2-.36s-2.21-.57-3.28-1c.08-.53.13-1.09.16-1.68.03-.61.03-1.2,0-1.76,0-.59-.03-1.09-.08-1.52.4-.27.93-.45,1.6-.56.69-.13,1.33-.2,1.92-.2.16,1.39.56,2.44,1.2,3.16.67.69,1.48,1.04,2.44,1.04.67,0,1.21-.15,1.64-.44.45-.29.68-.72.68-1.28,0-.4-.11-.75-.32-1.04-.19-.32-.55-.63-1.08-.92-.51-.32-1.27-.67-2.28-1.04-1.17-.45-2.19-.93-3.04-1.44-.85-.51-1.52-1.13-2-1.88-.45-.75-.68-1.71-.68-2.88,0-.91.19-1.68.56-2.32.4-.67.96-1.21,1.68-1.64.72-.43,1.55-.75,2.48-.96.96-.21,1.99-.32,3.08-.32,1.49,0,2.76.11,3.8.32,1.04.19,2.01.49,2.92.92ZM301.85,70.16c-.03.69-.04,1.41-.04,2.16.03.72.09,1.43.2,2.12-.4.21-.92.4-1.56.56-.61.16-1.24.24-1.88.24-.08-.67-.27-1.27-.56-1.8-.27-.56-.65-1-1.16-1.32-.48-.32-1.11-.48-1.88-.48-.53,0-.96.15-1.28.44-.29.27-.44.63-.44,1.08,0,.32.08.63.24.92.19.29.57.63,1.16,1,.61.35,1.55.79,2.8,1.32,1.52.61,2.71,1.2,3.56,1.76.88.56,1.51,1.16,1.88,1.8.37.64.56,1.41.56,2.32,0,1.2-.36,2.23-1.08,3.08-.69.85-1.69,1.51-3,1.96-1.31.43-2.88.64-4.72.64-1.68,0-3.08-.12-4.2-.36s-2.21-.57-3.28-1c.08-.53.13-1.09.16-1.68.03-.61.03-1.2,0-1.76,0-.59-.03-1.09-.08-1.52.4-.27.93-.45,1.6-.56.69-.13,1.33-.2,1.92-.2.16,1.39.56,2.44,1.2,3.16.67.69,1.48,1.04,2.44,1.04.67,0,1.21-.15,1.64-.44.45-.29.68-.72.68-1.28,0-.4-.11-.75-.32-1.04-.19-.32-.55-.63-1.08-.92-.51-.32-1.27-.67-2.28-1.04-1.17-.45-2.19-.93-3.04-1.44-.85-.51-1.52-1.13-2-1.88-.45-.75-.68-1.71-.68-2.88,0-.91.19-1.68.56-2.32.4-.67.96-1.21,1.68-1.64.72-.43,1.55-.75,2.48-.96.96-.21,1.99-.32,3.08-.32,1.49,0,2.76.11,3.8.32,1.04.19,2.01.49,2.92.92ZM316.16,87.96c-2.4,0-4.35-.41-5.84-1.24-1.47-.83-2.55-1.95-3.24-3.36-.69-1.41-1.04-3-1.04-4.76,0-1.97.39-3.68,1.16-5.12.77-1.44,1.89-2.56,3.36-3.36,1.47-.8,3.19-1.2,5.16-1.2s3.6.37,4.88,1.12c1.28.72,2.23,1.73,2.84,3.04.64,1.28.99,2.77,1.04,4.48-.21.88-.6,1.59-1.16,2.12h-2.64c-.99,0-2.03.01-3.12.04-1.07,0-2.16.03-3.28.08-1.09.05-2.15.12-3.16.2v-2.88h7.36c0-1.81-.24-3.19-.72-4.12-.45-.93-1.15-1.4-2.08-1.4-.61,0-1.16.23-1.64.68-.45.43-.8,1.08-1.04,1.96-.24.85-.36,1.92-.36,3.2,0,1.39.17,2.63.52,3.72s.92,1.95,1.72,2.56c.8.61,1.88.92,3.24.92.93,0,1.87-.16,2.8-.48s1.71-.73,2.32-1.24c.27.16.51.48.72.96.21.45.32.92.32,1.4-1.04.88-2.23,1.55-3.56,2-1.31.45-2.83.68-4.56.68ZM328.33,87.68c-.24-.32-.44-.72-.6-1.2-.13-.48-.2-.95-.2-1.4.67-.85,1.36-1.77,2.08-2.76.72-1.01,1.45-2.04,2.2-3.08.75-1.04,1.48-2.07,2.2-3.08.72-1.04,1.37-2.01,1.96-2.92.61-.93,1.15-1.77,1.6-2.52l1.4,1.24h-4.24c-.69,0-1.25.11-1.68.32-.43.21-.76.61-1,1.2-.24.56-.45,1.37-.64,2.44-.64.03-1.31,0-2-.08-.67-.08-1.24-.24-1.72-.48.16-.91.27-1.91.32-3,.08-1.12.12-2.19.12-3.2.56.03,1.24.05,2.04.08.83,0,1.76.01,2.8.04h6.64c.93-.03,1.75-.04,2.44-.04.72-.03,1.37-.05,1.96-.08.19.27.33.61.44,1.04.11.43.16.85.16,1.28-.67,1.09-1.4,2.25-2.2,3.48-.8,1.2-1.64,2.44-2.52,3.72-.85,1.25-1.72,2.49-2.6,3.72-.88,1.2-1.73,2.36-2.56,3.48l-1.12-.96h4.56c.85,0,1.51-.15,1.96-.44.45-.29.77-.77.96-1.44.21-.67.36-1.57.44-2.72.59-.05,1.16-.04,1.72.04.59.05,1.16.17,1.72.36,0,.59.01,1.27.04,2.04.03.77.05,1.52.08,2.24.05.69.12,1.28.2,1.76-.27.61-.84.92-1.72.92-.61,0-1.37-.01-2.28-.04-.88,0-1.81-.01-2.8-.04h-7.24c-1.23.03-2.2.05-2.92.08ZM105.89,126.96c-1.97,0-3.47-.51-4.48-1.52-1.01-1.04-1.52-2.79-1.52-5.24v-8.24c-.43-.16-.88-.28-1.36-.36-.45-.08-.99-.12-1.6-.12,0-.53.03-1.01.08-1.44.08-.45.23-.91.44-1.36h2.44v-4.76c1.04-.13,2.05-.4,3.04-.8,1.01-.4,1.83-.84,2.44-1.32.43.16.72.41.88.76.16.35.24.96.24,1.84v4.28h4.8c0,.59-.04,1.11-.12,1.56-.05.43-.15.85-.28,1.28-.85,0-1.65.07-2.4.2-.72.11-1.39.27-2,.48v7.4c0,1.15.07,2.03.2,2.64.13.59.35,1,.64,1.24.29.21.67.32,1.12.32.4,0,.8-.04,1.2-.12.43-.11.83-.25,1.2-.44.37.53.57,1.28.6,2.24-.56.43-1.36.79-2.4,1.08-1.01.27-2.07.4-3.16.4ZM113.36,126.72c0-.56.03-1.07.08-1.52.05-.48.13-.89.24-1.24,1.07-.05,1.77-.31,2.12-.76.35-.48.52-1.39.52-2.72v-5.8c0-.61-.08-1.12-.24-1.52-.13-.4-.41-.69-.84-.88-.43-.21-1.05-.35-1.88-.4,0-.45.03-.91.08-1.36.08-.48.21-.91.4-1.28,1.09,0,2.16-.07,3.2-.2,1.04-.13,1.96-.29,2.76-.48.83-.21,1.44-.43,1.84-.64.4.16.71.43.92.8.24.37.36.88.36,1.52v10.24c0,1.33.17,2.24.52,2.72.35.45,1.03.71,2.04.76.11.35.17.76.2,1.24.05.48.08.99.08,1.52-.35-.03-.85-.05-1.52-.08-.67,0-1.41-.01-2.24-.04h-4.88c-.83.03-1.57.04-2.24.04-.64.03-1.15.05-1.52.08ZM119.08,105.32c-1.09,0-1.97-.27-2.64-.8-.67-.56-1-1.29-1-2.2,0-1.04.36-1.84,1.08-2.4.75-.59,1.67-.88,2.76-.88,1.25,0,2.2.28,2.84.84.67.56,1,1.36,1,2.4,0,.88-.36,1.61-1.08,2.2-.72.56-1.71.84-2.96.84ZM128.36,126.72c0-.51.03-.99.08-1.44.05-.48.15-.91.28-1.28,1.09-.08,1.8-.35,2.12-.8.32-.48.48-1.39.48-2.72v-4.8c0-.99-.05-1.73-.16-2.24s-.37-.88-.8-1.12c-.4-.24-1.04-.39-1.92-.44,0-.45.03-.89.08-1.32.08-.45.21-.89.4-1.32.96,0,1.93-.05,2.92-.16.99-.13,1.91-.29,2.76-.48.85-.21,1.53-.44,2.04-.68.32.11.6.35.84.72.24.37.36.91.36,1.6,0,.48-.07,1-.2,1.56-.11.53-.32,1.41-.64,2.64h-.24c.51-1.31.91-2.24,1.2-2.8.29-.56.57-.97.84-1.24.59-.67,1.36-1.24,2.32-1.72.96-.48,2.01-.72,3.16-.72,1.28,0,2.41.28,3.4.84,1.01.53,1.79,1.31,2.32,2.32.35.61.52,1.24.52,1.88h-.2c.48-1.25,1.01-2.15,1.6-2.68.59-.59,1.31-1.08,2.16-1.48.85-.43,1.83-.64,2.92-.64,1.41,0,2.6.24,3.56.72.99.45,1.73,1.19,2.24,2.2.53.99.8,2.32.8,4v3.92c0,1.44.04,2.51.12,3.2.11.67.29,1.11.56,1.32.27.21.68.35,1.24.4.13.4.21.84.24,1.32.05.45.08.93.08,1.44-.67-.05-1.47-.09-2.4-.12h-4.96c-.75.03-1.47.04-2.16.04-.69.03-1.28.05-1.76.08,0-.59.01-1.08.04-1.48.05-.43.13-.85.24-1.28.53-.03.96-.16,1.28-.4s.55-.69.68-1.36c.13-.67.2-1.61.2-2.84v-2.92c0-1.65-.23-2.76-.68-3.32-.45-.59-1.05-.88-1.8-.88s-1.41.24-2,.72c-.56.48-1,1.2-1.32,2.16-.29.93-.44,2.08-.44,3.44v1.72c0,1.39.15,2.33.44,2.84.29.51.88.79,1.76.84.11.35.19.77.24,1.28.05.48.08.97.08,1.48-.61-.05-1.47-.09-2.56-.12h-6.4c-1.07.03-1.96.07-2.68.12,0-.51.03-1,.08-1.48.08-.51.17-.93.28-1.28.61-.05,1.08-.19,1.4-.4.32-.24.53-.69.64-1.36.13-.69.2-1.75.2-3.16v-2.96c0-1.49-.23-2.52-.68-3.08-.45-.56-1.13-.84-2.04-.84-.67,0-1.28.27-1.84.8-.53.53-.97,1.28-1.32,2.24-.32.96-.48,2.05-.48,3.28v1.8c0,1.44.15,2.4.44,2.88.29.48.87.75,1.72.8.13.37.23.8.28,1.28.05.48.08.97.08,1.48-.43-.05-1.01-.09-1.76-.12h-8.68c-.67.03-1.2.07-1.6.12ZM168.44,126.72c0-.56.03-1.07.08-1.52.05-.48.13-.89.24-1.24,1.07-.05,1.77-.31,2.12-.76.35-.48.52-1.39.52-2.72v-5.8c0-.61-.08-1.12-.24-1.52-.13-.4-.41-.69-.84-.88-.43-.21-1.05-.35-1.88-.4,0-.45.03-.91.08-1.36.08-.48.21-.91.4-1.28,1.09,0,2.16-.07,3.2-.2,1.04-.13,1.96-.29,2.76-.48.83-.21,1.44-.43,1.84-.64.4.16.71.43.92.8.24.37.36.88.36,1.52v10.24c0,1.33.17,2.24.52,2.72.35.45,1.03.71,2.04.76.11.35.17.76.2,1.24.05.48.08.99.08,1.52-.35-.03-.85-.05-1.52-.08-.67,0-1.41-.01-2.24-.04h-4.88c-.83.03-1.57.04-2.24.04-.64.03-1.15.05-1.52.08ZM174.16,105.32c-1.09,0-1.97-.27-2.64-.8-.67-.56-1-1.29-1-2.2,0-1.04.36-1.84,1.08-2.4.75-.59,1.67-.88,2.76-.88,1.25,0,2.2.28,2.84.84.67.56,1,1.36,1,2.4,0,.88-.36,1.61-1.08,2.2-.72.56-1.71.84-2.96.84ZM193.86,107.92c.56,0,1.08.04,1.56.12.51.08,1.03.19,1.56.32v4c-.43-.59-.89-1.04-1.4-1.36-.48-.32-1.07-.48-1.76-.48-.48,0-.99.09-1.52.28-.53.19-1.04.53-1.52,1.04-.45.51-.83,1.24-1.12,2.2-.29.93-.44,2.15-.44,3.64,0,1.07.12,2.04.36,2.92.27.85.65,1.53,1.16,2.04.53.51,1.19.76,1.96.76.64,0,1.25-.2,1.84-.6.59-.43,1.08-1.11,1.48-2.04.4-.96.6-2.23.6-3.8l1.72,4.04c-.48,1.12-.93,2-1.36,2.64-.4.61-.81,1.08-1.24,1.4-.29.29-.71.59-1.24.88-.51.29-1.11.53-1.8.72-.67.21-1.39.32-2.16.32-1.52,0-2.89-.28-4.12-.84-1.2-.59-2.15-1.49-2.84-2.72-.69-1.23-1.04-2.8-1.04-4.72,0-2.13.47-4,1.4-5.6.93-1.63,2.25-2.89,3.96-3.8s3.69-1.36,5.96-1.36ZM203.18,119.36c0,.93.05,1.65.16,2.16.11.48.32.81.64,1,.35.16.85.25,1.52.28.08.51.08,1,0,1.48-.05.48-.19.93-.4,1.36-1.09.03-2.21.15-3.36.36-1.12.21-2.17.53-3.16.96-.51-.19-.87-.45-1.08-.8-.21-.37-.32-.87-.32-1.48,0-.53.07-1.08.2-1.64.13-.59.31-1.2.52-1.84l5.28-1.84ZM203.18,103.84v17.52h-6.56v-17.52h6.56ZM201.9,97.92c.4.16.71.43.92.8.24.37.36.88.36,1.52v4.88h-6.56v-.44c0-.61-.08-1.12-.24-1.52-.16-.4-.45-.69-.88-.88-.43-.21-1.05-.35-1.88-.4,0-.45.03-.91.08-1.36.08-.48.21-.91.4-1.28,1.09,0,2.16-.07,3.2-.2,1.04-.13,1.96-.29,2.76-.48.83-.21,1.44-.43,1.84-.64ZM217.78,126.96c-2.4,0-4.35-.41-5.84-1.24-1.47-.83-2.55-1.95-3.24-3.36-.69-1.41-1.04-3-1.04-4.76,0-1.97.39-3.68,1.16-5.12.77-1.44,1.89-2.56,3.36-3.36,1.47-.8,3.19-1.2,5.16-1.2s3.6.37,4.88,1.12c1.28.72,2.23,1.73,2.84,3.04.64,1.28.99,2.77,1.04,4.48-.21.88-.6,1.59-1.16,2.12h-2.64c-.99,0-2.03.01-3.12.04-1.07,0-2.16.03-3.28.08-1.09.05-2.15.12-3.16.2v-2.88h7.36c0-1.81-.24-3.19-.72-4.12-.45-.93-1.15-1.4-2.08-1.4-.61,0-1.16.23-1.64.68-.45.43-.8,1.08-1.04,1.96-.24.85-.36,1.92-.36,3.2,0,1.39.17,2.63.52,3.72.35,1.09.92,1.95,1.72,2.56.8.61,1.88.92,3.24.92.93,0,1.87-.16,2.8-.48.93-.32,1.71-.73,2.32-1.24.27.16.51.48.72.96.21.45.32.92.32,1.4-1.04.88-2.23,1.55-3.56,2-1.31.45-2.83.68-4.56.68ZM235.15,120.84c.67.21,1.15.6,1.44,1.16.32.53.48,1.44.48,2.72,0,1.65-.41,3.31-1.24,4.96-.8,1.68-1.85,3.13-3.16,4.36-.56-.03-1.09-.13-1.6-.32-.48-.16-.85-.36-1.12-.6,1.76-2,2.64-3.68,2.64-5.04,0-.51-.23-.93-.68-1.28-.43-.35-1.07-.56-1.92-.64,0-.75.04-1.41.12-2,.08-.61.23-1.29.44-2.04.96-.08,1.83-.21,2.6-.4.77-.21,1.44-.51,2-.88ZM249.67,136.56c-.43-.21-.79-.55-1.08-1s-.48-.95-.56-1.48c.93-.96,1.65-1.87,2.16-2.72.51-.85.87-1.76,1.08-2.72.24-.96.36-2.07.36-3.32v-10.64c0-.61-.08-1.12-.24-1.52-.16-.4-.45-.69-.88-.88-.43-.21-1.05-.35-1.88-.4,0-.45.03-.91.08-1.36.08-.48.21-.91.4-1.28,1.09,0,2.16-.07,3.2-.2,1.04-.13,1.96-.29,2.76-.48.83-.21,1.44-.43,1.84-.64.4.16.71.43.92.8.24.37.36.88.36,1.52v13.56c0,1.68-.28,3.2-.84,4.56-.53,1.36-1.23,2.57-2.08,3.64-.85,1.07-1.77,1.97-2.76,2.72-.99.77-1.93,1.39-2.84,1.84ZM254.35,105.32c-1.09,0-1.97-.27-2.64-.8-.67-.56-1-1.29-1-2.2,0-1.04.36-1.84,1.08-2.4.75-.59,1.67-.88,2.76-.88,1.25,0,2.2.28,2.84.84.67.56,1,1.36,1,2.4,0,.88-.36,1.61-1.08,2.2-.72.56-1.71.84-2.96.84ZM265.89,97.96c.75.16,1.13.72,1.16,1.68,0,.08-.01.17-.04.28,0,.11-.01.21-.04.32-.21,1.23-.39,2.61-.52,4.16-.13,1.52-.27,3.21-.4,5.08-.45,0-.92-.04-1.4-.12-.48-.11-.91-.25-1.28-.44-.05-1.68-.19-3.37-.4-5.08-.19-1.73-.41-3.33-.68-4.8.72-.05,1.4-.19,2.04-.4.64-.21,1.16-.44,1.56-.68ZM282.31,126.96c-.51-.19-.87-.47-1.08-.84-.21-.37-.32-.87-.32-1.48,0-.35.04-.76.12-1.24.08-.51.2-.99.36-1.44l.16-.16c-.24.83-.55,1.55-.92,2.16-.37.59-.81,1.08-1.32,1.48-.56.48-1.24.84-2.04,1.08-.8.24-1.72.36-2.76.36-1.84,0-3.28-.39-4.32-1.16s-1.56-1.91-1.56-3.4c0-1.01.23-1.88.68-2.6.48-.75,1.12-1.37,1.92-1.88.83-.53,1.73-.96,2.72-1.28,1.01-.32,2.05-.57,3.12-.76,1.09-.21,2.16-.4,3.2-.56,0-.64-.03-1.2-.08-1.68-.03-.48-.11-.89-.24-1.24-.11-.37-.29-.69-.56-.96-.29-.35-.64-.59-1.04-.72-.37-.13-.75-.2-1.12-.2-.67,0-1.21.2-1.64.6-.43.4-.75.95-.96,1.64-.21.67-.36,1.4-.44,2.2-.77,0-1.47-.03-2.08-.08-.61-.05-1.17-.19-1.68-.4.05-.75.07-1.53.04-2.36-.03-.83-.13-1.69-.32-2.6,1.15-.48,2.49-.85,4.04-1.12,1.55-.29,3.03-.44,4.44-.44,1.76,0,3.15.2,4.16.6,1.01.37,1.77.81,2.28,1.32.53.53.96,1.29,1.28,2.28.35.96.52,2.39.52,4.28v3.08c0,.91.05,1.6.16,2.08.11.48.32.81.64,1,.35.16.84.25,1.48.28.08.51.09,1,.04,1.48s-.19.93-.4,1.36c-1.09.03-2.2.15-3.32.36-1.12.21-2.17.53-3.16.96ZM276.87,123.08c.53,0,1.05-.16,1.56-.48.53-.35.97-.87,1.32-1.56.35-.69.52-1.55.52-2.56v-.92c-.83.16-1.57.35-2.24.56-.64.21-1.17.45-1.6.72-.43.27-.75.59-.96.96-.21.37-.32.81-.32,1.32,0,.69.16,1.2.48,1.52.35.29.76.44,1.24.44ZM291.37,126.72c0-.56.03-1.07.08-1.52.05-.48.13-.89.24-1.24,1.07-.05,1.77-.31,2.12-.76.35-.48.52-1.39.52-2.72v-5.8c0-.61-.08-1.12-.24-1.52-.13-.4-.41-.69-.84-.88-.43-.21-1.05-.35-1.88-.4,0-.45.03-.91.08-1.36.08-.48.21-.91.4-1.28,1.09,0,2.16-.07,3.2-.2,1.04-.13,1.96-.29,2.76-.48.83-.21,1.44-.43,1.84-.64.4.16.71.43.92.8.24.37.36.88.36,1.52v10.24c0,1.33.17,2.24.52,2.72.35.45,1.03.71,2.04.76.11.35.17.76.2,1.24.05.48.08.99.08,1.52-.35-.03-.85-.05-1.52-.08-.67,0-1.41-.01-2.24-.04h-4.88c-.83.03-1.57.04-2.24.04-.64.03-1.15.05-1.52.08ZM297.09,105.32c-1.09,0-1.97-.27-2.64-.8-.67-.56-1-1.29-1-2.2,0-1.04.36-1.84,1.08-2.4.75-.59,1.67-.88,2.76-.88,1.25,0,2.2.28,2.84.84.67.56,1,1.36,1,2.4,0,.88-.36,1.61-1.08,2.2-.72.56-1.71.84-2.96.84ZM325.7,107.92c.56,0,1.08.04,1.56.12.51.08,1.03.19,1.56.32v4c-.43-.59-.89-1.04-1.4-1.36-.48-.32-1.07-.48-1.76-.48-.48,0-.99.09-1.52.28s-1.04.53-1.52,1.04c-.45.51-.83,1.24-1.12,2.2-.29.93-.44,2.15-.44,3.64,0,1.07.12,2.04.36,2.92.27.85.65,1.53,1.16,2.04.53.51,1.19.76,1.96.76.64,0,1.25-.2,1.84-.6.59-.43,1.08-1.11,1.48-2.04.4-.96.6-2.23.6-3.8l1.72,4.04c-.48,1.12-.93,2-1.36,2.64-.4.61-.81,1.08-1.24,1.4-.29.29-.71.59-1.24.88-.51.29-1.11.53-1.8.72-.67.21-1.39.32-2.16.32-1.52,0-2.89-.28-4.12-.84-1.2-.59-2.15-1.49-2.84-2.72-.69-1.23-1.04-2.8-1.04-4.72,0-2.13.47-4,1.4-5.6.93-1.63,2.25-2.89,3.96-3.8s3.69-1.36,5.96-1.36ZM335.02,119.36c0,.93.05,1.65.16,2.16.11.48.32.81.64,1,.35.16.85.25,1.52.28.08.51.08,1,0,1.48-.05.48-.19.93-.4,1.36-1.09.03-2.21.15-3.36.36-1.12.21-2.17.53-3.16.96-.51-.19-.87-.45-1.08-.8-.21-.37-.32-.87-.32-1.48,0-.53.07-1.08.2-1.64.13-.59.31-1.2.52-1.84l5.28-1.84ZM335.02,103.84v17.52h-6.56v-17.52h6.56ZM333.74,97.92c.4.16.71.43.92.8.24.37.36.88.36,1.52v4.88h-6.56v-.44c0-.61-.08-1.12-.24-1.52-.16-.4-.45-.69-.88-.88-.43-.21-1.05-.35-1.88-.4,0-.45.03-.91.08-1.36.08-.48.21-.91.4-1.28,1.09,0,2.16-.07,3.2-.2,1.04-.13,1.96-.29,2.76-.48.83-.21,1.44-.43,1.84-.64ZM347.45,126.84c-1.95,0-3.47-.53-4.56-1.6-1.07-1.09-1.6-3.03-1.6-5.8v-4.2c0-1.2-.13-2.04-.4-2.52s-.97-.76-2.12-.84c0-.45.03-.91.08-1.36.08-.48.21-.91.4-1.28,1.68,0,3.17-.13,4.48-.4,1.31-.29,2.28-.6,2.92-.92.4.16.71.43.92.8.21.37.32.89.32,1.56v8.16c0,1.79.17,3.03.52,3.72.35.67.88,1,1.6,1,.99,0,1.84-.51,2.56-1.52.72-1.01,1.08-2.57,1.08-4.68v-1.92c0-1.2-.17-2.04-.52-2.52-.35-.48-1.13-.76-2.36-.84,0-.45.03-.91.08-1.36.05-.48.17-.91.36-1.28,1.73,0,3.31-.11,4.72-.32,1.41-.24,2.43-.51,3.04-.8.4.16.71.43.92.8.21.37.32.89.32,1.56v10.96l-5.72,1.44c-.19.51-.4.96-.64,1.36-.24.37-.52.71-.84,1-.56.51-1.31.93-2.24,1.28-.93.35-2.04.52-3.32.52ZM355.61,126.96c-.51-.19-.87-.45-1.08-.8-.21-.37-.32-.87-.32-1.48,0-.48.05-1.01.16-1.6.13-.59.27-1.11.4-1.56l5.44-2.16c0,.93.05,1.65.16,2.16.11.48.32.81.64,1,.35.16.85.25,1.52.28.08.51.09,1,.04,1.48s-.2.93-.44,1.36c-1.07.03-2.17.15-3.32.36-1.15.21-2.21.53-3.2.96ZM82.31,165.72c0-.51.03-.99.08-1.44.05-.48.15-.91.28-1.28,1.09-.08,1.8-.35,2.12-.8.32-.48.48-1.39.48-2.72v-4.8c0-.99-.05-1.73-.16-2.24-.11-.51-.37-.88-.8-1.12-.4-.24-1.04-.39-1.92-.44,0-.45.03-.89.08-1.32.08-.45.21-.89.4-1.32.96,0,1.93-.05,2.92-.16.99-.13,1.91-.29,2.76-.48.85-.21,1.53-.44,2.04-.68.32.11.6.35.84.72.24.37.36.91.36,1.6,0,.48-.07,1-.2,1.56-.11.53-.32,1.41-.64,2.64h-.24c.51-1.31.91-2.24,1.2-2.8.29-.56.57-.97.84-1.24.59-.67,1.36-1.24,2.32-1.72.96-.48,2.01-.72,3.16-.72,1.28,0,2.41.28,3.4.84,1.01.53,1.79,1.31,2.32,2.32.35.61.52,1.24.52,1.88h-.2c.48-1.25,1.01-2.15,1.6-2.68.59-.59,1.31-1.08,2.16-1.48.85-.43,1.83-.64,2.92-.64,1.41,0,2.6.24,3.56.72.99.45,1.73,1.19,2.24,2.2.53.99.8,2.32.8,4v3.92c0,1.44.04,2.51.12,3.2.11.67.29,1.11.56,1.32.27.21.68.35,1.24.4.13.4.21.84.24,1.32.05.45.08.93.08,1.44-.67-.05-1.47-.09-2.4-.12h-4.96c-.75.03-1.47.04-2.16.04-.69.03-1.28.05-1.76.08,0-.59.01-1.08.04-1.48.05-.43.13-.85.24-1.28.53-.03.96-.16,1.28-.4s.55-.69.68-1.36c.13-.67.2-1.61.2-2.84v-2.92c0-1.65-.23-2.76-.68-3.32-.45-.59-1.05-.88-1.8-.88s-1.41.24-2,.72c-.56.48-1,1.2-1.32,2.16-.29.93-.44,2.08-.44,3.44v1.72c0,1.39.15,2.33.44,2.84.29.51.88.79,1.76.84.11.35.19.77.24,1.28.05.48.08.97.08,1.48-.61-.05-1.47-.09-2.56-.12h-6.4c-1.07.03-1.96.07-2.68.12,0-.51.03-1,.08-1.48.08-.51.17-.93.28-1.28.61-.05,1.08-.19,1.4-.4.32-.24.53-.69.64-1.36.13-.69.2-1.75.2-3.16v-2.96c0-1.49-.23-2.52-.68-3.08-.45-.56-1.13-.84-2.04-.84-.67,0-1.28.27-1.84.8-.53.53-.97,1.28-1.32,2.24-.32.96-.48,2.05-.48,3.28v1.8c0,1.44.15,2.4.44,2.88.29.48.87.75,1.72.8.13.37.23.8.28,1.28.05.48.08.97.08,1.48-.43-.05-1.01-.09-1.76-.12h-8.68c-.67.03-1.2.07-1.6.12ZM135.98,165.96c-.51-.19-.87-.47-1.08-.84-.21-.37-.32-.87-.32-1.48,0-.35.04-.76.12-1.24.08-.51.2-.99.36-1.44l.16-.16c-.24.83-.55,1.55-.92,2.16-.37.59-.81,1.08-1.32,1.48-.56.48-1.24.84-2.04,1.08-.8.24-1.72.36-2.76.36-1.84,0-3.28-.39-4.32-1.16-1.04-.77-1.56-1.91-1.56-3.4,0-1.01.23-1.88.68-2.6.48-.75,1.12-1.37,1.92-1.88.83-.53,1.73-.96,2.72-1.28,1.01-.32,2.05-.57,3.12-.76,1.09-.21,2.16-.4,3.2-.56,0-.64-.03-1.2-.08-1.68-.03-.48-.11-.89-.24-1.24-.11-.37-.29-.69-.56-.96-.29-.35-.64-.59-1.04-.72-.37-.13-.75-.2-1.12-.2-.67,0-1.21.2-1.64.6-.43.4-.75.95-.96,1.64-.21.67-.36,1.4-.44,2.2-.77,0-1.47-.03-2.08-.08-.61-.05-1.17-.19-1.68-.4.05-.75.07-1.53.04-2.36-.03-.83-.13-1.69-.32-2.6,1.15-.48,2.49-.85,4.04-1.12,1.55-.29,3.03-.44,4.44-.44,1.76,0,3.15.2,4.16.6,1.01.37,1.77.81,2.28,1.32.53.53.96,1.29,1.28,2.28.35.96.52,2.39.52,4.28v3.08c0,.91.05,1.6.16,2.08.11.48.32.81.64,1,.35.16.84.25,1.48.28.08.51.09,1,.04,1.48-.05.48-.19.93-.4,1.36-1.09.03-2.2.15-3.32.36-1.12.21-2.17.53-3.16.96ZM130.54,162.08c.53,0,1.05-.16,1.56-.48.53-.35.97-.87,1.32-1.56.35-.69.52-1.55.52-2.56v-.92c-.83.16-1.57.35-2.24.56-.64.21-1.17.45-1.6.72-.43.27-.75.59-.96.96-.21.37-.32.81-.32,1.32,0,.69.16,1.2.48,1.52.35.29.76.44,1.24.44ZM144.68,165.72c0-.56.03-1.07.08-1.52.05-.48.13-.89.24-1.24,1.07-.05,1.77-.31,2.12-.76.35-.48.52-1.39.52-2.72v-16.12c0-.53-.09-.97-.28-1.32-.16-.35-.45-.61-.88-.8-.43-.19-1.03-.31-1.8-.36,0-.45.03-.91.08-1.36.08-.48.21-.91.4-1.28,1.09,0,2.16-.07,3.2-.2s1.96-.29,2.76-.48c.83-.21,1.44-.43,1.84-.64.4.16.71.43.92.8.24.37.36.88.36,1.52v20.24c0,1.33.17,2.24.52,2.72.35.45,1.03.71,2.04.76.11.35.17.76.2,1.24.05.48.08.99.08,1.52-.35-.03-.85-.05-1.52-.08-.67,0-1.41-.01-2.24-.04h-4.88c-.83.03-1.57.04-2.24.04-.67.03-1.17.05-1.52.08ZM180.99,165.96c-.51-.19-.87-.47-1.08-.84-.21-.37-.32-.87-.32-1.48,0-.35.04-.76.12-1.24.08-.51.2-.99.36-1.44l.16-.16c-.24.83-.55,1.55-.92,2.16-.37.59-.81,1.08-1.32,1.48-.56.48-1.24.84-2.04,1.08-.8.24-1.72.36-2.76.36-1.84,0-3.28-.39-4.32-1.16-1.04-.77-1.56-1.91-1.56-3.4,0-1.01.23-1.88.68-2.6.48-.75,1.12-1.37,1.92-1.88.83-.53,1.73-.96,2.72-1.28,1.01-.32,2.05-.57,3.12-.76,1.09-.21,2.16-.4,3.2-.56,0-.64-.03-1.2-.08-1.68-.03-.48-.11-.89-.24-1.24-.11-.37-.29-.69-.56-.96-.29-.35-.64-.59-1.04-.72-.37-.13-.75-.2-1.12-.2-.67,0-1.21.2-1.64.6-.43.4-.75.95-.96,1.64-.21.67-.36,1.4-.44,2.2-.77,0-1.47-.03-2.08-.08-.61-.05-1.17-.19-1.68-.4.05-.75.07-1.53.04-2.36-.03-.83-.13-1.69-.32-2.6,1.15-.48,2.49-.85,4.04-1.12,1.55-.29,3.03-.44,4.44-.44,1.76,0,3.15.2,4.16.6,1.01.37,1.77.81,2.28,1.32.53.53.96,1.29,1.28,2.28.35.96.52,2.39.52,4.28v3.08c0,.91.05,1.6.16,2.08.11.48.32.81.64,1,.35.16.84.25,1.48.28.08.51.09,1,.04,1.48-.05.48-.19.93-.4,1.36-1.09.03-2.2.15-3.32.36-1.12.21-2.17.53-3.16.96ZM175.55,162.08c.53,0,1.05-.16,1.56-.48.53-.35.97-.87,1.32-1.56.35-.69.52-1.55.52-2.56v-.92c-.83.16-1.57.35-2.24.56-.64.21-1.17.45-1.6.72-.43.27-.75.59-.96.96-.21.37-.32.81-.32,1.32,0,.69.16,1.2.48,1.52.35.29.76.44,1.24.44ZM175.71,144.24c-.8-1.12-1.59-2.17-2.36-3.16-.77-1.01-1.72-2.04-2.84-3.08.85-.37,1.79-.64,2.8-.8,1.01-.19,2.04-.27,3.08-.24.29,1.04.68,2.16,1.16,3.36.51,1.2,1.04,2.33,1.6,3.4-.43.19-.92.33-1.48.44-.53.08-1.19.11-1.96.08ZM211.65,165.96c-.51-.19-.87-.47-1.08-.84-.21-.37-.32-.87-.32-1.48,0-.35.04-.76.12-1.24.08-.51.2-.99.36-1.44l.16-.16c-.24.83-.55,1.55-.92,2.16-.37.59-.81,1.08-1.32,1.48-.56.48-1.24.84-2.04,1.08-.8.24-1.72.36-2.76.36-1.84,0-3.28-.39-4.32-1.16-1.04-.77-1.56-1.91-1.56-3.4,0-1.01.23-1.88.68-2.6.48-.75,1.12-1.37,1.92-1.88.83-.53,1.73-.96,2.72-1.28,1.01-.32,2.05-.57,3.12-.76,1.09-.21,2.16-.4,3.2-.56,0-.64-.03-1.2-.08-1.68-.03-.48-.11-.89-.24-1.24-.11-.37-.29-.69-.56-.96-.29-.35-.64-.59-1.04-.72-.37-.13-.75-.2-1.12-.2-.67,0-1.21.2-1.64.6-.43.4-.75.95-.96,1.64-.21.67-.36,1.4-.44,2.2-.77,0-1.47-.03-2.08-.08-.61-.05-1.17-.19-1.68-.4.05-.75.07-1.53.04-2.36-.03-.83-.13-1.69-.32-2.6,1.15-.48,2.49-.85,4.04-1.12,1.55-.29,3.03-.44,4.44-.44,1.76,0,3.15.2,4.16.6,1.01.37,1.77.81,2.28,1.32.53.53.96,1.29,1.28,2.28.35.96.52,2.39.52,4.28v3.08c0,.91.05,1.6.16,2.08.11.48.32.81.64,1,.35.16.84.25,1.48.28.08.51.09,1,.04,1.48-.05.48-.19.93-.4,1.36-1.09.03-2.2.15-3.32.36-1.12.21-2.17.53-3.16.96ZM206.21,162.08c.53,0,1.05-.16,1.56-.48.53-.35.97-.87,1.32-1.56.35-.69.52-1.55.52-2.56v-.92c-.83.16-1.57.35-2.24.56-.64.21-1.17.45-1.6.72-.43.27-.75.59-.96.96-.21.37-.32.81-.32,1.32,0,.69.16,1.2.48,1.52.35.29.76.44,1.24.44ZM220.35,165.72c0-.56.03-1.07.08-1.52.05-.48.13-.89.24-1.24,1.07-.05,1.77-.31,2.12-.76.35-.48.52-1.39.52-2.72v-16.12c0-.53-.09-.97-.28-1.32-.16-.35-.45-.61-.88-.8s-1.03-.31-1.8-.36c0-.45.03-.91.08-1.36.08-.48.21-.91.4-1.28,1.09,0,2.16-.07,3.2-.2s1.96-.29,2.76-.48c.83-.21,1.44-.43,1.84-.64.4.16.71.43.92.8.24.37.36.88.36,1.52v20.24c0,1.33.17,2.24.52,2.72.35.45,1.03.71,2.04.76.11.35.17.76.2,1.24.05.48.08.99.08,1.52-.35-.03-.85-.05-1.52-.08-.67,0-1.41-.01-2.24-.04h-4.88c-.83.03-1.57.04-2.24.04-.67.03-1.17.05-1.52.08ZM234.68,165.72c0-.56.03-1.07.08-1.52.05-.48.13-.89.24-1.24,1.07-.05,1.77-.31,2.12-.76.35-.48.52-1.39.52-2.72v-16.12c0-.53-.09-.97-.28-1.32-.16-.35-.45-.61-.88-.8s-1.03-.31-1.8-.36c0-.45.03-.91.08-1.36.08-.48.21-.91.4-1.28,1.09,0,2.16-.07,3.2-.2s1.96-.29,2.76-.48c.83-.21,1.44-.43,1.84-.64.4.16.71.43.92.8.24.37.36.88.36,1.52v20.24c0,1.33.17,2.24.52,2.72.35.45,1.03.71,2.04.76.11.35.17.76.2,1.24.05.48.08.99.08,1.52-.35-.03-.85-.05-1.52-.08-.67,0-1.41-.01-2.24-.04h-4.88c-.83.03-1.57.04-2.24.04-.67.03-1.17.05-1.52.08ZM259.5,165.96c-2.4,0-4.35-.41-5.84-1.24-1.47-.83-2.55-1.95-3.24-3.36-.69-1.41-1.04-3-1.04-4.76,0-1.97.39-3.68,1.16-5.12.77-1.44,1.89-2.56,3.36-3.36,1.47-.8,3.19-1.2,5.16-1.2s3.6.37,4.88,1.12c1.28.72,2.23,1.73,2.84,3.04.64,1.28.99,2.77,1.04,4.48-.21.88-.6,1.59-1.16,2.12h-2.64c-.99,0-2.03.01-3.12.04-1.07,0-2.16.03-3.28.08-1.09.05-2.15.12-3.16.2v-2.88h7.36c0-1.81-.24-3.19-.72-4.12-.45-.93-1.15-1.4-2.08-1.4-.61,0-1.16.23-1.64.68-.45.43-.8,1.08-1.04,1.96-.24.85-.36,1.92-.36,3.2,0,1.39.17,2.63.52,3.72.35,1.09.92,1.95,1.72,2.56s1.88.92,3.24.92c.93,0,1.87-.16,2.8-.48s1.71-.73,2.32-1.24c.27.16.51.48.72.96.21.45.32.92.32,1.4-1.04.88-2.23,1.55-3.56,2-1.31.45-2.83.68-4.56.68ZM280.03,158.24c0,1.15.12,2.05.36,2.72.27.64.69,1.12,1.28,1.44.61.29,1.45.48,2.52.56.13.37.21.81.24,1.32.05.48.08.96.08,1.44-.48-.03-1.09-.05-1.84-.08-.75,0-1.55-.01-2.4-.04h-6.48c-1.39.03-2.49.07-3.32.12,0-.64.01-1.17.04-1.6.05-.45.13-.84.24-1.16.72-.05,1.27-.19,1.64-.4.4-.24.67-.65.8-1.24.16-.59.24-1.45.24-2.6v-2.2h6.6v1.72ZM280.03,153.8v3.52h-6.6v-4.32l6.6-3.72c0,.53-.08,1.13-.24,1.8-.13.67-.32,1.51-.56,2.52l.8.2ZM279.15,153.72c.19-.53.4-1.13.64-1.8.24-.69.45-1.2.64-1.52.59-.93,1.32-1.71,2.2-2.32.88-.61,1.85-.92,2.92-.92s2,.32,2.88.96c-.08.56-.16,1.21-.24,1.96-.08.75-.13,1.51-.16,2.28,0,.75.01,1.43.04,2.04-.45.19-1.05.32-1.8.4-.75.05-1.39.08-1.92.08-.05-.96-.21-1.64-.48-2.04-.27-.43-.67-.64-1.2-.64-.37,0-.77.23-1.2.68-.4.45-.75,1.04-1.04,1.76-.27.69-.4,1.44-.4,2.24l-.88-3.16ZM273.43,157.32v-3.08c0-.83-.05-1.47-.16-1.92-.11-.45-.37-.79-.8-1-.4-.24-1.04-.39-1.92-.44,0-.45.03-.91.08-1.36.08-.48.21-.91.4-1.28,1.68,0,3.23-.13,4.64-.4,1.44-.29,2.48-.6,3.12-.92.4.16.71.43.92.8.21.37.32.89.32,1.56l-6.6,8.04ZM306.45,165.96c-.35-.83-.75-1.72-1.2-2.68-.43-.99-.88-2-1.36-3.04-.45-1.04-.92-2.05-1.4-3.04-.48-.99-.93-1.89-1.36-2.72-.4-.85-.75-1.59-1.04-2.2-.29-.59-.56-1.04-.8-1.36-.24-.32-.49-.55-.76-.68-.24-.13-.53-.24-.88-.32-.11-.37-.2-.8-.28-1.28-.08-.51-.12-1-.12-1.48.61.03,1.43.05,2.44.08,1.04.03,2.13.04,3.28.04h2.36c.8-.03,1.55-.04,2.24-.04.69-.03,1.25-.05,1.68-.08,0,.45-.04.95-.12,1.48-.08.51-.17.93-.28,1.28-1.01.11-1.6.33-1.76.68-.16.32,0,.97.48,1.96.27.59.53,1.21.8,1.88.29.64.57,1.33.84,2.08.29.72.57,1.47.84,2.24.29.75.57,1.53.84,2.36h-1.32c.56-1.63,1.09-3.05,1.6-4.28s1.04-2.48,1.6-3.76c.48-1.15.61-1.93.4-2.36-.21-.43-.76-.69-1.64-.8-.11-.35-.21-.77-.32-1.28-.08-.53-.12-1.03-.12-1.48.53.03,1.13.05,1.8.08.67.03,1.39.04,2.16.04s1.51-.01,2.2-.04c.69-.03,1.32-.05,1.88-.08,0,.45-.04.95-.12,1.48s-.2.96-.36,1.28c-.45.11-.84.27-1.16.48-.32.19-.61.48-.88.88-.24.4-.51.96-.8,1.68l-5.52,12.48c-.45.21-1.05.37-1.8.48-.72.11-1.4.12-2.04.04ZM330.32,165.96c-2.4,0-4.35-.41-5.84-1.24-1.47-.83-2.55-1.95-3.24-3.36-.69-1.41-1.04-3-1.04-4.76,0-1.97.39-3.68,1.16-5.12.77-1.44,1.89-2.56,3.36-3.36,1.47-.8,3.19-1.2,5.16-1.2s3.6.37,4.88,1.12c1.28.72,2.23,1.73,2.84,3.04.64,1.28.99,2.77,1.04,4.48-.21.88-.6,1.59-1.16,2.12h-2.64c-.99,0-2.03.01-3.12.04-1.07,0-2.16.03-3.28.08-1.09.05-2.15.12-3.16.2v-2.88h7.36c0-1.81-.24-3.19-.72-4.12-.45-.93-1.15-1.4-2.08-1.4-.61,0-1.16.23-1.64.68-.45.43-.8,1.08-1.04,1.96-.24.85-.36,1.92-.36,3.2,0,1.39.17,2.63.52,3.72.35,1.09.92,1.95,1.72,2.56.8.61,1.88.92,3.24.92.93,0,1.87-.16,2.8-.48.93-.32,1.71-.73,2.32-1.24.27.16.51.48.72.96.21.45.32.92.32,1.4-1.04.88-2.23,1.55-3.56,2-1.31.45-2.83.68-4.56.68ZM350.85,158.24c0,1.15.12,2.05.36,2.72.27.64.69,1.12,1.28,1.44.61.29,1.45.48,2.52.56.13.37.21.81.24,1.32.05.48.08.96.08,1.44-.48-.03-1.09-.05-1.84-.08-.75,0-1.55-.01-2.4-.04h-6.48c-1.39.03-2.49.07-3.32.12,0-.64.01-1.17.04-1.6.05-.45.13-.84.24-1.16.72-.05,1.27-.19,1.64-.4.4-.24.67-.65.8-1.24.16-.59.24-1.45.24-2.6v-2.2h6.6v1.72ZM350.85,153.8v3.52h-6.6v-4.32l6.6-3.72c0,.53-.08,1.13-.24,1.8-.13.67-.32,1.51-.56,2.52l.8.2ZM349.97,153.72c.19-.53.4-1.13.64-1.8.24-.69.45-1.2.64-1.52.59-.93,1.32-1.71,2.2-2.32.88-.61,1.85-.92,2.92-.92s2,.32,2.88.96c-.08.56-.16,1.21-.24,1.96-.08.75-.13,1.51-.16,2.28,0,.75.01,1.43.04,2.04-.45.19-1.05.32-1.8.4-.75.05-1.39.08-1.92.08-.05-.96-.21-1.64-.48-2.04-.27-.43-.67-.64-1.2-.64-.37,0-.77.23-1.2.68-.4.45-.75,1.04-1.04,1.76-.27.69-.4,1.44-.4,2.24l-.88-3.16ZM344.25,157.32v-3.08c0-.83-.05-1.47-.16-1.92s-.37-.79-.8-1c-.4-.24-1.04-.39-1.92-.44,0-.45.03-.91.08-1.36.08-.48.21-.91.4-1.28,1.68,0,3.23-.13,4.64-.4,1.44-.29,2.48-.6,3.12-.92.4.16.71.43.92.8.21.37.32.89.32,1.56l-6.6,8.04ZM376.09,148.16c-.03.69-.04,1.41-.04,2.16.03.72.09,1.43.2,2.12-.4.21-.92.4-1.56.56-.61.16-1.24.24-1.88.24-.08-.67-.27-1.27-.56-1.8-.27-.56-.65-1-1.16-1.32-.48-.32-1.11-.48-1.88-.48-.53,0-.96.15-1.28.44-.29.27-.44.63-.44,1.08,0,.32.08.63.24.92.19.29.57.63,1.16,1,.61.35,1.55.79,2.8,1.32,1.52.61,2.71,1.2,3.56,1.76.88.56,1.51,1.16,1.88,1.8.37.64.56,1.41.56,2.32,0,1.2-.36,2.23-1.08,3.08-.69.85-1.69,1.51-3,1.96-1.31.43-2.88.64-4.72.64-1.68,0-3.08-.12-4.2-.36s-2.21-.57-3.28-1c.08-.53.13-1.09.16-1.68.03-.61.03-1.2,0-1.76,0-.59-.03-1.09-.08-1.52.4-.27.93-.45,1.6-.56.69-.13,1.33-.2,1.92-.2.16,1.39.56,2.44,1.2,3.16.67.69,1.48,1.04,2.44,1.04.67,0,1.21-.15,1.64-.44.45-.29.68-.72.68-1.28,0-.4-.11-.75-.32-1.04-.19-.32-.55-.63-1.08-.92-.51-.32-1.27-.67-2.28-1.04-1.17-.45-2.19-.93-3.04-1.44s-1.52-1.13-2-1.88c-.45-.75-.68-1.71-.68-2.88,0-.91.19-1.68.56-2.32.4-.67.96-1.21,1.68-1.64.72-.43,1.55-.75,2.48-.96.96-.21,1.99-.32,3.08-.32,1.49,0,2.76.11,3.8.32,1.04.19,2.01.49,2.92.92ZM85.77,204.72c0-.56.03-1.07.08-1.52.05-.48.13-.89.24-1.24,1.07-.05,1.77-.31,2.12-.76.35-.48.52-1.39.52-2.72v-16.12c0-.53-.09-.97-.28-1.32-.16-.35-.45-.61-.88-.8-.43-.19-1.03-.31-1.8-.36,0-.45.03-.91.08-1.36.08-.48.21-.91.4-1.28,1.09,0,2.16-.07,3.2-.2,1.04-.13,1.96-.29,2.76-.48.83-.21,1.44-.43,1.84-.64.4.16.71.43.92.8.24.37.36.88.36,1.52v20.24c0,1.33.17,2.24.52,2.72.35.45,1.03.71,2.04.76.11.35.17.76.2,1.24.05.48.08.99.08,1.52-.35-.03-.85-.05-1.52-.08-.67,0-1.41-.01-2.24-.04h-4.88c-.83.03-1.57.04-2.24.04-.67.03-1.17.05-1.52.08ZM110.59,204.96c-2.4,0-4.35-.41-5.84-1.24-1.47-.83-2.55-1.95-3.24-3.36-.69-1.41-1.04-3-1.04-4.76,0-1.97.39-3.68,1.16-5.12.77-1.44,1.89-2.56,3.36-3.36,1.47-.8,3.19-1.2,5.16-1.2s3.6.37,4.88,1.12c1.28.72,2.23,1.73,2.84,3.04.64,1.28.99,2.77,1.04,4.48-.21.88-.6,1.59-1.16,2.12h-2.64c-.99,0-2.03.01-3.12.04-1.07,0-2.16.03-3.28.08-1.09.05-2.15.12-3.16.2v-2.88h7.36c0-1.81-.24-3.19-.72-4.12-.45-.93-1.15-1.4-2.08-1.4-.61,0-1.16.23-1.64.68-.45.43-.8,1.08-1.04,1.96-.24.85-.36,1.92-.36,3.2,0,1.39.17,2.63.52,3.72.35,1.09.92,1.95,1.72,2.56.8.61,1.88.92,3.24.92.93,0,1.87-.16,2.8-.48.93-.32,1.71-.73,2.32-1.24.27.16.51.48.72.96.21.45.32.92.32,1.4-1.04.88-2.23,1.55-3.56,2-1.31.45-2.83.68-4.56.68ZM136.4,187.16c-.03.69-.04,1.41-.04,2.16.03.72.09,1.43.2,2.12-.4.21-.92.4-1.56.56-.61.16-1.24.24-1.88.24-.08-.67-.27-1.27-.56-1.8-.27-.56-.65-1-1.16-1.32-.48-.32-1.11-.48-1.88-.48-.53,0-.96.15-1.28.44-.29.27-.44.63-.44,1.08,0,.32.08.63.24.92.19.29.57.63,1.16,1,.61.35,1.55.79,2.8,1.32,1.52.61,2.71,1.2,3.56,1.76.88.56,1.51,1.16,1.88,1.8.37.64.56,1.41.56,2.32,0,1.2-.36,2.23-1.08,3.08-.69.85-1.69,1.51-3,1.96-1.31.43-2.88.64-4.72.64-1.68,0-3.08-.12-4.2-.36-1.12-.24-2.21-.57-3.28-1,.08-.53.13-1.09.16-1.68.03-.61.03-1.2,0-1.76,0-.59-.03-1.09-.08-1.52.4-.27.93-.45,1.6-.56.69-.13,1.33-.2,1.92-.2.16,1.39.56,2.44,1.2,3.16.67.69,1.48,1.04,2.44,1.04.67,0,1.21-.15,1.64-.44.45-.29.68-.72.68-1.28,0-.4-.11-.75-.32-1.04-.19-.32-.55-.63-1.08-.92-.51-.32-1.27-.67-2.28-1.04-1.17-.45-2.19-.93-3.04-1.44-.85-.51-1.52-1.13-2-1.88-.45-.75-.68-1.71-.68-2.88,0-.91.19-1.68.56-2.32.4-.67.96-1.21,1.68-1.64.72-.43,1.55-.75,2.48-.96.96-.21,1.99-.32,3.08-.32,1.49,0,2.76.11,3.8.32,1.04.19,2.01.49,2.92.92ZM162.2,204.96c-.51-.19-.87-.47-1.08-.84s-.32-.87-.32-1.48c0-.35.04-.76.12-1.24.08-.51.2-.99.36-1.44l.16-.16c-.24.83-.55,1.55-.92,2.16-.37.59-.81,1.08-1.32,1.48-.56.48-1.24.84-2.04,1.08s-1.72.36-2.76.36c-1.84,0-3.28-.39-4.32-1.16-1.04-.77-1.56-1.91-1.56-3.4,0-1.01.23-1.88.68-2.6.48-.75,1.12-1.37,1.92-1.88.83-.53,1.73-.96,2.72-1.28,1.01-.32,2.05-.57,3.12-.76,1.09-.21,2.16-.4,3.2-.56,0-.64-.03-1.2-.08-1.68-.03-.48-.11-.89-.24-1.24-.11-.37-.29-.69-.56-.96-.29-.35-.64-.59-1.04-.72-.37-.13-.75-.2-1.12-.2-.67,0-1.21.2-1.64.6-.43.4-.75.95-.96,1.64-.21.67-.36,1.4-.44,2.2-.77,0-1.47-.03-2.08-.08-.61-.05-1.17-.19-1.68-.4.05-.75.07-1.53.04-2.36-.03-.83-.13-1.69-.32-2.6,1.15-.48,2.49-.85,4.04-1.12,1.55-.29,3.03-.44,4.44-.44,1.76,0,3.15.2,4.16.6,1.01.37,1.77.81,2.28,1.32.53.53.96,1.29,1.28,2.28.35.96.52,2.39.52,4.28v3.08c0,.91.05,1.6.16,2.08.11.48.32.81.64,1,.35.16.84.25,1.48.28.08.51.09,1,.04,1.48-.05.48-.19.93-.4,1.36-1.09.03-2.2.15-3.32.36-1.12.21-2.17.53-3.16.96ZM156.76,201.08c.53,0,1.05-.16,1.56-.48.53-.35.97-.87,1.32-1.56.35-.69.52-1.55.52-2.56v-.92c-.83.16-1.57.35-2.24.56-.64.21-1.17.45-1.6.72-.43.27-.75.59-.96.96-.21.37-.32.81-.32,1.32,0,.69.16,1.2.48,1.52.35.29.76.44,1.24.44ZM178.9,204.84c-1.95,0-3.47-.53-4.56-1.6-1.07-1.09-1.6-3.03-1.6-5.8v-4.2c0-1.2-.13-2.04-.4-2.52-.27-.48-.97-.76-2.12-.84,0-.45.03-.91.08-1.36.08-.48.21-.91.4-1.28,1.68,0,3.17-.13,4.48-.4,1.31-.29,2.28-.6,2.92-.92.4.16.71.43.92.8.21.37.32.89.32,1.56v8.16c0,1.79.17,3.03.52,3.72.35.67.88,1,1.6,1,.99,0,1.84-.51,2.56-1.52.72-1.01,1.08-2.57,1.08-4.68v-1.92c0-1.2-.17-2.04-.52-2.52-.35-.48-1.13-.76-2.36-.84,0-.45.03-.91.08-1.36.05-.48.17-.91.36-1.28,1.73,0,3.31-.11,4.72-.32,1.41-.24,2.43-.51,3.04-.8.4.16.71.43.92.8.21.37.32.89.32,1.56v10.96l-5.72,1.44c-.19.51-.4.96-.64,1.36-.24.37-.52.71-.84,1-.56.51-1.31.93-2.24,1.28-.93.35-2.04.52-3.32.52ZM187.06,204.96c-.51-.19-.87-.45-1.08-.8-.21-.37-.32-.87-.32-1.48,0-.48.05-1.01.16-1.6.13-.59.27-1.11.4-1.56l5.44-2.16c0,.93.05,1.65.16,2.16.11.48.32.81.64,1,.35.16.85.25,1.52.28.08.51.09,1,.04,1.48-.05.48-.2.93-.44,1.36-1.07.03-2.17.15-3.32.36-1.15.21-2.21.53-3.2.96ZM204.14,204.96c-1.97,0-3.47-.51-4.48-1.52-1.01-1.04-1.52-2.79-1.52-5.24v-8.24c-.43-.16-.88-.28-1.36-.36-.45-.08-.99-.12-1.6-.12,0-.53.03-1.01.08-1.44.08-.45.23-.91.44-1.36h2.44v-4.76c1.04-.13,2.05-.4,3.04-.8,1.01-.4,1.83-.84,2.44-1.32.43.16.72.41.88.76s.24.96.24,1.84v4.28h4.8c0,.59-.04,1.11-.12,1.56-.05.43-.15.85-.28,1.28-.85,0-1.65.07-2.4.2-.72.11-1.39.27-2,.48v7.4c0,1.15.07,2.03.2,2.64.13.59.35,1,.64,1.24.29.21.67.32,1.12.32.4,0,.8-.04,1.2-.12.43-.11.83-.25,1.2-.44.37.53.57,1.28.6,2.24-.56.43-1.36.79-2.4,1.08-1.01.27-2.07.4-3.16.4ZM221.16,197.24c0,1.15.12,2.05.36,2.72.27.64.69,1.12,1.28,1.44.61.29,1.45.48,2.52.56.13.37.21.81.24,1.32.05.48.08.96.08,1.44-.48-.03-1.09-.05-1.84-.08-.75,0-1.55-.01-2.4-.04h-6.48c-1.39.03-2.49.07-3.32.12,0-.64.01-1.17.04-1.6.05-.45.13-.84.24-1.16.72-.05,1.27-.19,1.64-.4.4-.24.67-.65.8-1.24.16-.59.24-1.45.24-2.6v-2.2h6.6v1.72ZM221.16,192.8v3.52h-6.6v-4.32l6.6-3.72c0,.53-.08,1.13-.24,1.8-.13.67-.32,1.51-.56,2.52l.8.2ZM220.28,192.72c.19-.53.4-1.13.64-1.8.24-.69.45-1.2.64-1.52.59-.93,1.32-1.71,2.2-2.32.88-.61,1.85-.92,2.92-.92s2,.32,2.88.96c-.08.56-.16,1.21-.24,1.96-.08.75-.13,1.51-.16,2.28,0,.75.01,1.43.04,2.04-.45.19-1.05.32-1.8.4-.75.05-1.39.08-1.92.08-.05-.96-.21-1.64-.48-2.04-.27-.43-.67-.64-1.2-.64-.37,0-.77.23-1.2.68-.4.45-.75,1.04-1.04,1.76-.27.69-.4,1.44-.4,2.24l-.88-3.16ZM214.56,196.32v-3.08c0-.83-.05-1.47-.16-1.92-.11-.45-.37-.79-.8-1-.4-.24-1.04-.39-1.92-.44,0-.45.03-.91.08-1.36.08-.48.21-.91.4-1.28,1.68,0,3.23-.13,4.64-.4,1.44-.29,2.48-.6,3.12-.92.4.16.71.43.92.8.21.37.32.89.32,1.56l-6.6,8.04ZM241.68,204.96c-2.4,0-4.35-.41-5.84-1.24-1.47-.83-2.55-1.95-3.24-3.36-.69-1.41-1.04-3-1.04-4.76,0-1.97.39-3.68,1.16-5.12.77-1.44,1.89-2.56,3.36-3.36,1.47-.8,3.19-1.2,5.16-1.2s3.6.37,4.88,1.12c1.28.72,2.23,1.73,2.84,3.04.64,1.28.99,2.77,1.04,4.48-.21.88-.6,1.59-1.16,2.12h-2.64c-.99,0-2.03.01-3.12.04-1.07,0-2.16.03-3.28.08-1.09.05-2.15.12-3.16.2v-2.88h7.36c0-1.81-.24-3.19-.72-4.12-.45-.93-1.15-1.4-2.08-1.4-.61,0-1.16.23-1.64.68-.45.43-.8,1.08-1.04,1.96-.24.85-.36,1.92-.36,3.2,0,1.39.17,2.63.52,3.72.35,1.09.92,1.95,1.72,2.56.8.61,1.88.92,3.24.92.93,0,1.87-.16,2.8-.48.93-.32,1.71-.73,2.32-1.24.27.16.51.48.72.96.21.45.32.92.32,1.4-1.04.88-2.23,1.55-3.56,2-1.31.45-2.83.68-4.56.68ZM267.5,187.16c-.03.69-.04,1.41-.04,2.16.03.72.09,1.43.2,2.12-.4.21-.92.4-1.56.56-.61.16-1.24.24-1.88.24-.08-.67-.27-1.27-.56-1.8-.27-.56-.65-1-1.16-1.32-.48-.32-1.11-.48-1.88-.48-.53,0-.96.15-1.28.44-.29.27-.44.63-.44,1.08,0,.32.08.63.24.92.19.29.57.63,1.16,1,.61.35,1.55.79,2.8,1.32,1.52.61,2.71,1.2,3.56,1.76.88.56,1.51,1.16,1.88,1.8.37.64.56,1.41.56,2.32,0,1.2-.36,2.23-1.08,3.08-.69.85-1.69,1.51-3,1.96-1.31.43-2.88.64-4.72.64-1.68,0-3.08-.12-4.2-.36s-2.21-.57-3.28-1c.08-.53.13-1.09.16-1.68.03-.61.03-1.2,0-1.76,0-.59-.03-1.09-.08-1.52.4-.27.93-.45,1.6-.56.69-.13,1.33-.2,1.92-.2.16,1.39.56,2.44,1.2,3.16.67.69,1.48,1.04,2.44,1.04.67,0,1.21-.15,1.64-.44.45-.29.68-.72.68-1.28,0-.4-.11-.75-.32-1.04-.19-.32-.55-.63-1.08-.92-.51-.32-1.27-.67-2.28-1.04-1.17-.45-2.19-.93-3.04-1.44-.85-.51-1.52-1.13-2-1.88-.45-.75-.68-1.71-.68-2.88,0-.91.19-1.68.56-2.32.4-.67.96-1.21,1.68-1.64.72-.43,1.55-.75,2.48-.96.96-.21,1.99-.32,3.08-.32,1.49,0,2.76.11,3.8.32,1.04.19,2.01.49,2.92.92ZM279.69,204.72c0-.51.03-.99.08-1.44.05-.48.15-.91.28-1.28,1.09-.08,1.8-.35,2.12-.8.32-.48.48-1.39.48-2.72v-4.8c0-.99-.05-1.73-.16-2.24-.11-.51-.37-.88-.8-1.12-.4-.24-1.04-.39-1.92-.44,0-.45.03-.89.08-1.32.08-.45.21-.89.4-1.32.96,0,1.93-.05,2.92-.16.99-.13,1.91-.29,2.76-.48.85-.21,1.53-.44,2.04-.68.32.11.6.35.84.72.24.37.36.91.36,1.6,0,.48-.07,1-.2,1.56-.11.53-.32,1.41-.64,2.64h-.24c.51-1.31.91-2.24,1.2-2.8.29-.56.57-.97.84-1.24.59-.67,1.36-1.24,2.32-1.72s2.01-.72,3.16-.72c1.28,0,2.41.28,3.4.84,1.01.53,1.79,1.31,2.32,2.32.35.61.52,1.24.52,1.88h-.2c.48-1.25,1.01-2.15,1.6-2.68.59-.59,1.31-1.08,2.16-1.48.85-.43,1.83-.64,2.92-.64,1.41,0,2.6.24,3.56.72.99.45,1.73,1.19,2.24,2.2.53.99.8,2.32.8,4v3.92c0,1.44.04,2.51.12,3.2.11.67.29,1.11.56,1.32.27.21.68.35,1.24.4.13.4.21.84.24,1.32.05.45.08.93.08,1.44-.67-.05-1.47-.09-2.4-.12h-4.96c-.75.03-1.47.04-2.16.04-.69.03-1.28.05-1.76.08,0-.59.01-1.08.04-1.48.05-.43.13-.85.24-1.28.53-.03.96-.16,1.28-.4.32-.24.55-.69.68-1.36.13-.67.2-1.61.2-2.84v-2.92c0-1.65-.23-2.76-.68-3.32-.45-.59-1.05-.88-1.8-.88s-1.41.24-2,.72c-.56.48-1,1.2-1.32,2.16-.29.93-.44,2.08-.44,3.44v1.72c0,1.39.15,2.33.44,2.84.29.51.88.79,1.76.84.11.35.19.77.24,1.28.05.48.08.97.08,1.48-.61-.05-1.47-.09-2.56-.12h-6.4c-1.07.03-1.96.07-2.68.12,0-.51.03-1,.08-1.48.08-.51.17-.93.28-1.28.61-.05,1.08-.19,1.4-.4.32-.24.53-.69.64-1.36.13-.69.2-1.75.2-3.16v-2.96c0-1.49-.23-2.52-.68-3.08-.45-.56-1.13-.84-2.04-.84-.67,0-1.28.27-1.84.8-.53.53-.97,1.28-1.32,2.24-.32.96-.48,2.05-.48,3.28v1.8c0,1.44.15,2.4.44,2.88.29.48.87.75,1.72.8.13.37.23.8.28,1.28.05.48.08.97.08,1.48-.43-.05-1.01-.09-1.76-.12h-8.68c-.67.03-1.2.07-1.6.12ZM333.37,204.96c-.51-.19-.87-.47-1.08-.84-.21-.37-.32-.87-.32-1.48,0-.35.04-.76.12-1.24.08-.51.2-.99.36-1.44l.16-.16c-.24.83-.55,1.55-.92,2.16-.37.59-.81,1.08-1.32,1.48-.56.48-1.24.84-2.04,1.08-.8.24-1.72.36-2.76.36-1.84,0-3.28-.39-4.32-1.16-1.04-.77-1.56-1.91-1.56-3.4,0-1.01.23-1.88.68-2.6.48-.75,1.12-1.37,1.92-1.88.83-.53,1.73-.96,2.72-1.28,1.01-.32,2.05-.57,3.12-.76,1.09-.21,2.16-.4,3.2-.56,0-.64-.03-1.2-.08-1.68-.03-.48-.11-.89-.24-1.24-.11-.37-.29-.69-.56-.96-.29-.35-.64-.59-1.04-.72-.37-.13-.75-.2-1.12-.2-.67,0-1.21.2-1.64.6-.43.4-.75.95-.96,1.64-.21.67-.36,1.4-.44,2.2-.77,0-1.47-.03-2.08-.08-.61-.05-1.17-.19-1.68-.4.05-.75.07-1.53.04-2.36-.03-.83-.13-1.69-.32-2.6,1.15-.48,2.49-.85,4.04-1.12,1.55-.29,3.03-.44,4.44-.44,1.76,0,3.15.2,4.16.6,1.01.37,1.77.81,2.28,1.32.53.53.96,1.29,1.28,2.28.35.96.52,2.39.52,4.28v3.08c0,.91.05,1.6.16,2.08.11.48.32.81.64,1,.35.16.84.25,1.48.28.08.51.09,1,.04,1.48-.05.48-.19.93-.4,1.36-1.09.03-2.2.15-3.32.36-1.12.21-2.17.53-3.16.96ZM327.93,201.08c.53,0,1.05-.16,1.56-.48.53-.35.97-.87,1.32-1.56.35-.69.52-1.55.52-2.56v-.92c-.83.16-1.57.35-2.24.56-.64.21-1.17.45-1.6.72-.43.27-.75.59-.96.96-.21.37-.32.81-.32,1.32,0,.69.16,1.2.48,1.52.35.29.76.44,1.24.44ZM342.42,204.72c0-.56.03-1.07.08-1.52.05-.48.13-.89.24-1.24,1.07-.05,1.77-.31,2.12-.76.35-.48.52-1.39.52-2.72v-5.8c0-.61-.08-1.12-.24-1.52-.13-.4-.41-.69-.84-.88-.43-.21-1.05-.35-1.88-.4,0-.45.03-.91.08-1.36.08-.48.21-.91.4-1.28,1.09,0,2.16-.07,3.2-.2,1.04-.13,1.96-.29,2.76-.48.83-.21,1.44-.43,1.84-.64.4.16.71.43.92.8.24.37.36.88.36,1.52v10.24c0,1.33.17,2.24.52,2.72.35.45,1.03.71,2.04.76.11.35.17.76.2,1.24.05.48.08.99.08,1.52-.35-.03-.85-.05-1.52-.08-.67,0-1.41-.01-2.24-.04h-4.88c-.83.03-1.57.04-2.24.04-.64.03-1.15.05-1.52.08ZM348.14,183.32c-1.09,0-1.97-.27-2.64-.8-.67-.56-1-1.29-1-2.2,0-1.04.36-1.84,1.08-2.4.75-.59,1.67-.88,2.76-.88,1.25,0,2.2.28,2.84.84.67.56,1,1.36,1,2.4,0,.88-.36,1.61-1.08,2.2-.72.56-1.71.84-2.96.84ZM372.26,187.16c-.03.69-.04,1.41-.04,2.16.03.72.09,1.43.2,2.12-.4.21-.92.4-1.56.56-.61.16-1.24.24-1.88.24-.08-.67-.27-1.27-.56-1.8-.27-.56-.65-1-1.16-1.32-.48-.32-1.11-.48-1.88-.48-.53,0-.96.15-1.28.44-.29.27-.44.63-.44,1.08,0,.32.08.63.24.92.19.29.57.63,1.16,1,.61.35,1.55.79,2.8,1.32,1.52.61,2.71,1.2,3.56,1.76.88.56,1.51,1.16,1.88,1.8.37.64.56,1.41.56,2.32,0,1.2-.36,2.23-1.08,3.08-.69.85-1.69,1.51-3,1.96-1.31.43-2.88.64-4.72.64-1.68,0-3.08-.12-4.2-.36s-2.21-.57-3.28-1c.08-.53.13-1.09.16-1.68.03-.61.03-1.2,0-1.76,0-.59-.03-1.09-.08-1.52.4-.27.93-.45,1.6-.56.69-.13,1.33-.2,1.92-.2.16,1.39.56,2.44,1.2,3.16.67.69,1.48,1.04,2.44,1.04.67,0,1.21-.15,1.64-.44.45-.29.68-.72.68-1.28,0-.4-.11-.75-.32-1.04-.19-.32-.55-.63-1.08-.92-.51-.32-1.27-.67-2.28-1.04-1.17-.45-2.19-.93-3.04-1.44-.85-.51-1.52-1.13-2-1.88-.45-.75-.68-1.71-.68-2.88,0-.91.19-1.68.56-2.32.4-.67.96-1.21,1.68-1.64.72-.43,1.55-.75,2.48-.96.96-.21,1.99-.32,3.08-.32,1.49,0,2.76.11,3.8.32,1.04.19,2.01.49,2.92.92ZM86.59,241.56c-.69.77-1.64,1.37-2.84,1.8-1.17.4-2.51.6-4,.6-1.97,0-3.72-.35-5.24-1.04-1.49-.69-2.67-1.73-3.52-3.12-.83-1.39-1.24-3.15-1.24-5.28,0-1.6.36-3.13,1.08-4.6.72-1.47,1.79-2.67,3.2-3.6,1.44-.93,3.23-1.4,5.36-1.4,1.52,0,2.83.15,3.92.44,1.12.27,2.12.67,3,1.2-.16.75-.28,1.52-.36,2.32-.05.8-.08,1.72-.08,2.76-.51.21-1.09.37-1.76.48-.64.08-1.25.12-1.84.12-.05-1.55-.33-2.71-.84-3.48-.51-.8-1.16-1.2-1.96-1.2-1.04,0-1.84.6-2.4,1.8-.53,1.17-.8,2.71-.8,4.6,0,1.09.17,2.16.52,3.2.37,1.01.95,1.85,1.72,2.52.77.64,1.79.96,3.04.96.85,0,1.63-.11,2.32-.32.69-.24,1.29-.56,1.8-.96.27.24.48.56.64.96.19.37.28.79.28,1.24ZM76.87,253.28c-.13-.27-.23-.57-.28-.92-.05-.35-.08-.65-.08-.92.85,0,1.59-.16,2.2-.48.61-.32.92-.79.92-1.4,0-.51-.23-.91-.68-1.2s-1.03-.44-1.72-.44c-.19-.24-.36-.52-.52-.84-.13-.29-.2-.61-.2-.96l2.48-3.16h2.72l-1.84,2.44c1.15.19,2.01.63,2.6,1.32.61.69.92,1.51.92,2.44,0,.88-.28,1.63-.84,2.24-.53.61-1.29,1.08-2.28,1.4-.96.32-2.09.48-3.4.48ZM102.33,243.96c-.51-.19-.87-.47-1.08-.84-.21-.37-.32-.87-.32-1.48,0-.35.04-.76.12-1.24.08-.51.2-.99.36-1.44l.16-.16c-.24.83-.55,1.55-.92,2.16-.37.59-.81,1.08-1.32,1.48-.56.48-1.24.84-2.04,1.08-.8.24-1.72.36-2.76.36-1.84,0-3.28-.39-4.32-1.16-1.04-.77-1.56-1.91-1.56-3.4,0-1.01.23-1.88.68-2.6.48-.75,1.12-1.37,1.92-1.88.83-.53,1.73-.96,2.72-1.28,1.01-.32,2.05-.57,3.12-.76,1.09-.21,2.16-.4,3.2-.56,0-.64-.03-1.2-.08-1.68-.03-.48-.11-.89-.24-1.24-.11-.37-.29-.69-.56-.96-.29-.35-.64-.59-1.04-.72-.37-.13-.75-.2-1.12-.2-.67,0-1.21.2-1.64.6-.43.4-.75.95-.96,1.64-.21.67-.36,1.4-.44,2.2-.77,0-1.47-.03-2.08-.08-.61-.05-1.17-.19-1.68-.4.05-.75.07-1.53.04-2.36-.03-.83-.13-1.69-.32-2.6,1.15-.48,2.49-.85,4.04-1.12,1.55-.29,3.03-.44,4.44-.44,1.76,0,3.15.2,4.16.6,1.01.37,1.77.81,2.28,1.32.53.53.96,1.29,1.28,2.28.35.96.52,2.39.52,4.28v3.08c0,.91.05,1.6.16,2.08.11.48.32.81.64,1,.35.16.84.25,1.48.28.08.51.09,1,.04,1.48-.05.48-.19.93-.4,1.36-1.09.03-2.2.15-3.32.36-1.12.21-2.17.53-3.16.96ZM96.89,240.08c.53,0,1.05-.16,1.56-.48.53-.35.97-.87,1.32-1.56.35-.69.52-1.55.52-2.56v-.92c-.83.16-1.57.35-2.24.56-.64.21-1.17.45-1.6.72-.43.27-.75.59-.96.96-.21.37-.32.81-.32,1.32,0,.69.16,1.2.48,1.52.35.29.76.44,1.24.44ZM122.36,235.32v-3.08c0-.83-.05-1.47-.16-1.92-.11-.45-.37-.79-.8-1-.4-.24-1.04-.39-1.92-.44,0-.45.03-.91.08-1.36.08-.48.21-.91.4-1.28,1.68,0,3.23-.13,4.64-.4,1.44-.29,2.48-.6,3.12-.92.4.16.71.43.92.8.21.37.32.89.32,1.56l-6.6,8.04ZM142,237.48c0,1.33.13,2.25.4,2.76.27.48.76.72,1.48.72.16.37.25.79.28,1.24.05.43.08.93.08,1.52-.59-.03-1.39-.05-2.4-.08-.99-.03-1.93-.04-2.84-.04h-2.12c-.8.03-1.56.04-2.28.04-.72.03-1.28.05-1.68.08,0-.51.01-.99.04-1.44.05-.48.16-.92.32-1.32.67,0,1.19-.27,1.56-.8.37-.56.56-1.56.56-3v-3.6c0-1.63-.24-2.75-.72-3.36-.48-.64-1.17-.96-2.08-.96-.64,0-1.24.25-1.8.76-.56.51-1.01,1.23-1.36,2.16-.32.93-.48,2.07-.48,3.4v1.92c0,1.36.17,2.28.52,2.76.35.48.87.72,1.56.72.19.43.29.85.32,1.28.05.43.08.92.08,1.48-.4-.03-.93-.05-1.6-.08-.67,0-1.37-.01-2.12-.04h-4.2c-.83.03-1.63.04-2.4.04-.75.03-1.32.05-1.72.08,0-.56.03-1.08.08-1.56.08-.48.17-.88.28-1.2,1.04,0,1.73-.24,2.08-.72.35-.51.52-1.43.52-2.76v-5.24l6.6-4.96c0,.32-.04.69-.12,1.12-.08.4-.19.83-.32,1.28.19-.43.37-.83.56-1.2.21-.37.47-.72.76-1.04.59-.64,1.35-1.19,2.28-1.64.96-.45,2.03-.68,3.2-.68s2.27.21,3.28.64c1.01.43,1.83,1.12,2.44,2.08.64.96.96,2.23.96,3.8v5.84ZM156.04,243.96c-2.4,0-4.35-.41-5.84-1.24-1.47-.83-2.55-1.95-3.24-3.36-.69-1.41-1.04-3-1.04-4.76,0-1.97.39-3.68,1.16-5.12s1.89-2.56,3.36-3.36c1.47-.8,3.19-1.2,5.16-1.2s3.6.37,4.88,1.12c1.28.72,2.23,1.73,2.84,3.04.64,1.28.99,2.77,1.04,4.48-.21.88-.6,1.59-1.16,2.12h-2.64c-.99,0-2.03.01-3.12.04-1.07,0-2.16.03-3.28.08-1.09.05-2.15.12-3.16.2v-2.88h7.36c0-1.81-.24-3.19-.72-4.12-.45-.93-1.15-1.4-2.08-1.4-.61,0-1.16.23-1.64.68-.45.43-.8,1.08-1.04,1.96-.24.85-.36,1.92-.36,3.2,0,1.39.17,2.63.52,3.72s.92,1.95,1.72,2.56c.8.61,1.88.92,3.24.92.93,0,1.87-.16,2.8-.48.93-.32,1.71-.73,2.32-1.24.27.16.51.48.72.96.21.45.32.92.32,1.4-1.04.88-2.23,1.55-3.56,2-1.31.45-2.83.68-4.56.68ZM175.02,243.72c0-.51.03-.99.08-1.44.05-.48.15-.91.28-1.28,1.09-.08,1.8-.35,2.12-.8.32-.48.48-1.39.48-2.72v-4.8c0-.99-.05-1.73-.16-2.24-.11-.51-.37-.88-.8-1.12-.4-.24-1.04-.39-1.92-.44,0-.45.03-.89.08-1.32.08-.45.21-.89.4-1.32.96,0,1.93-.05,2.92-.16.99-.13,1.91-.29,2.76-.48.85-.21,1.53-.44,2.04-.68.32.11.6.35.84.72.24.37.36.91.36,1.6,0,.48-.07,1-.2,1.56-.11.53-.32,1.41-.64,2.64h-.24c.51-1.31.91-2.24,1.2-2.8.29-.56.57-.97.84-1.24.59-.67,1.36-1.24,2.32-1.72s2.01-.72,3.16-.72c1.28,0,2.41.28,3.4.84,1.01.53,1.79,1.31,2.32,2.32.35.61.52,1.24.52,1.88h-.2c.48-1.25,1.01-2.15,1.6-2.68.59-.59,1.31-1.08,2.16-1.48.85-.43,1.83-.64,2.92-.64,1.41,0,2.6.24,3.56.72.99.45,1.73,1.19,2.24,2.2.53.99.8,2.32.8,4v3.92c0,1.44.04,2.51.12,3.2.11.67.29,1.11.56,1.32.27.21.68.35,1.24.4.13.4.21.84.24,1.32.05.45.08.93.08,1.44-.67-.05-1.47-.09-2.4-.12h-4.96c-.75.03-1.47.04-2.16.04-.69.03-1.28.05-1.76.08,0-.59.01-1.08.04-1.48.05-.43.13-.85.24-1.28.53-.03.96-.16,1.28-.4.32-.24.55-.69.68-1.36.13-.67.2-1.61.2-2.84v-2.92c0-1.65-.23-2.76-.68-3.32-.45-.59-1.05-.88-1.8-.88s-1.41.24-2,.72c-.56.48-1,1.2-1.32,2.16-.29.93-.44,2.08-.44,3.44v1.72c0,1.39.15,2.33.44,2.84.29.51.88.79,1.76.84.11.35.19.77.24,1.28.05.48.08.97.08,1.48-.61-.05-1.47-.09-2.56-.12h-6.4c-1.07.03-1.96.07-2.68.12,0-.51.03-1,.08-1.48.08-.51.17-.93.28-1.28.61-.05,1.08-.19,1.4-.4.32-.24.53-.69.64-1.36.13-.69.2-1.75.2-3.16v-2.96c0-1.49-.23-2.52-.68-3.08-.45-.56-1.13-.84-2.04-.84-.67,0-1.28.27-1.84.8-.53.53-.97,1.28-1.32,2.24-.32.96-.48,2.05-.48,3.28v1.8c0,1.44.15,2.4.44,2.88.29.48.87.75,1.72.8.13.37.23.8.28,1.28.05.48.08.97.08,1.48-.43-.05-1.01-.09-1.76-.12h-8.68c-.67.03-1.2.07-1.6.12ZM216.89,214.96c.75.16,1.13.72,1.16,1.68,0,.08-.01.17-.04.28,0,.11-.01.21-.04.32-.21,1.23-.39,2.61-.52,4.16-.13,1.52-.27,3.21-.4,5.08-.45,0-.92-.04-1.4-.12-.48-.11-.91-.25-1.28-.44-.05-1.68-.19-3.37-.4-5.08-.19-1.73-.41-3.33-.68-4.8.72-.05,1.4-.19,2.04-.4.64-.21,1.16-.44,1.56-.68ZM228.5,243.96c-2.4,0-4.35-.41-5.84-1.24-1.47-.83-2.55-1.95-3.24-3.36-.69-1.41-1.04-3-1.04-4.76,0-1.97.39-3.68,1.16-5.12.77-1.44,1.89-2.56,3.36-3.36,1.47-.8,3.19-1.2,5.16-1.2s3.6.37,4.88,1.12c1.28.72,2.23,1.73,2.84,3.04.64,1.28.99,2.77,1.04,4.48-.21.88-.6,1.59-1.16,2.12h-2.64c-.99,0-2.03.01-3.12.04-1.07,0-2.16.03-3.28.08-1.09.05-2.15.12-3.16.2v-2.88h7.36c0-1.81-.24-3.19-.72-4.12-.45-.93-1.15-1.4-2.08-1.4-.61,0-1.16.23-1.64.68-.45.43-.8,1.08-1.04,1.96-.24.85-.36,1.92-.36,3.2,0,1.39.17,2.63.52,3.72s.92,1.95,1.72,2.56c.8.61,1.88.92,3.24.92.93,0,1.87-.16,2.8-.48.93-.32,1.71-.73,2.32-1.24.27.16.51.48.72.96.21.45.32.92.32,1.4-1.04.88-2.23,1.55-3.56,2-1.31.45-2.83.68-4.56.68ZM239.48,243.72c0-.51.03-.99.08-1.44.05-.48.15-.91.28-1.28,1.09-.08,1.8-.35,2.12-.8.32-.48.48-1.39.48-2.72v-4.8c0-.99-.05-1.73-.16-2.24-.11-.51-.37-.88-.8-1.12-.4-.24-1.04-.39-1.92-.44,0-.45.03-.89.08-1.32.08-.45.21-.89.4-1.32.96,0,1.93-.05,2.92-.16.99-.13,1.91-.29,2.76-.48.85-.21,1.53-.44,2.04-.68.32.11.6.35.84.72.24.37.36.91.36,1.6,0,.48-.07,1-.2,1.56-.11.53-.32,1.41-.64,2.64h-.24c.51-1.31.91-2.24,1.2-2.8.29-.56.57-.97.84-1.24.59-.67,1.36-1.24,2.32-1.72.96-.48,2.01-.72,3.16-.72,1.28,0,2.41.28,3.4.84,1.01.53,1.79,1.31,2.32,2.32.35.61.52,1.24.52,1.88h-.2c.48-1.25,1.01-2.15,1.6-2.68.59-.59,1.31-1.08,2.16-1.48.85-.43,1.83-.64,2.92-.64,1.41,0,2.6.24,3.56.72.99.45,1.73,1.19,2.24,2.2.53.99.8,2.32.8,4v3.92c0,1.44.04,2.51.12,3.2.11.67.29,1.11.56,1.32.27.21.68.35,1.24.4.13.4.21.84.24,1.32.05.45.08.93.08,1.44-.67-.05-1.47-.09-2.4-.12h-4.96c-.75.03-1.47.04-2.16.04-.69.03-1.28.05-1.76.08,0-.59.01-1.08.04-1.48.05-.43.13-.85.24-1.28.53-.03.96-.16,1.28-.4.32-.24.55-.69.68-1.36.13-.67.2-1.61.2-2.84v-2.92c0-1.65-.23-2.76-.68-3.32-.45-.59-1.05-.88-1.8-.88s-1.41.24-2,.72c-.56.48-1,1.2-1.32,2.16-.29.93-.44,2.08-.44,3.44v1.72c0,1.39.15,2.33.44,2.84.29.51.88.79,1.76.84.11.35.19.77.24,1.28.05.48.08.97.08,1.48-.61-.05-1.47-.09-2.56-.12h-6.4c-1.07.03-1.96.07-2.68.12,0-.51.03-1,.08-1.48.08-.51.17-.93.28-1.28.61-.05,1.08-.19,1.4-.4.32-.24.53-.69.64-1.36.13-.69.2-1.75.2-3.16v-2.96c0-1.49-.23-2.52-.68-3.08-.45-.56-1.13-.84-2.04-.84-.67,0-1.28.27-1.84.8-.53.53-.97,1.28-1.32,2.24-.32.96-.48,2.05-.48,3.28v1.8c0,1.44.15,2.4.44,2.88.29.48.87.75,1.72.8.13.37.23.8.28,1.28.05.48.08.97.08,1.48-.43-.05-1.01-.09-1.76-.12h-8.68c-.67.03-1.2.07-1.6.12ZM279.55,253.4c0-.64.01-1.19.04-1.64.05-.43.13-.8.24-1.12.72-.05,1.27-.2,1.64-.44.4-.21.67-.61.8-1.2.16-.59.24-1.45.24-2.6v-14.16c0-.83-.05-1.47-.16-1.92-.11-.45-.37-.79-.8-1-.4-.24-1.04-.39-1.92-.44,0-.45.03-.91.08-1.36.08-.48.21-.91.4-1.28,1.68,0,3.23-.13,4.64-.4,1.44-.29,2.48-.6,3.12-.92.4.16.71.43.92.8.21.37.32.89.32,1.56,0,.27-.07.63-.2,1.08-.13.45-.33.97-.6,1.56l.8.84v15.16c0,1.15.12,2.04.36,2.68.27.67.69,1.15,1.28,1.44.61.32,1.45.52,2.52.6.13.37.21.8.24,1.28.05.51.08,1,.08,1.48-.48-.03-1.09-.05-1.84-.08-.75,0-1.55-.01-2.4-.04h-6.48c-1.39.03-2.49.07-3.32.12ZM291.87,243.96c-.56,0-1.08-.04-1.56-.12-.48-.08-1.01-.19-1.6-.32v-4c.43.59.88,1.04,1.36,1.36.51.32,1.11.48,1.8.48.48,0,.99-.09,1.52-.28.53-.19,1.04-.53,1.52-1.04s.85-1.23,1.12-2.16c.29-.96.44-2.19.44-3.68,0-.99-.12-1.91-.36-2.76-.21-.88-.57-1.59-1.08-2.12-.48-.56-1.15-.84-2-.84-.64,0-1.27.21-1.88.64-.59.4-1.08,1.08-1.48,2.04-.37.93-.56,2.19-.56,3.76l-1.72-4.04c.45-1.12.89-1.99,1.32-2.6.43-.64.84-1.12,1.24-1.44.32-.29.73-.59,1.24-.88.53-.29,1.13-.53,1.8-.72.69-.21,1.41-.32,2.16-.32,1.57,0,2.95.29,4.12.88,1.2.56,2.15,1.44,2.84,2.64.72,1.2,1.08,2.76,1.08,4.68,0,2.16-.48,4.05-1.44,5.68-.93,1.63-2.25,2.89-3.96,3.8-1.68.91-3.65,1.36-5.92,1.36ZM315.92,243.96c-2.4,0-4.35-.41-5.84-1.24-1.47-.83-2.55-1.95-3.24-3.36-.69-1.41-1.04-3-1.04-4.76,0-1.97.39-3.68,1.16-5.12.77-1.44,1.89-2.56,3.36-3.36,1.47-.8,3.19-1.2,5.16-1.2s3.6.37,4.88,1.12c1.28.72,2.23,1.73,2.84,3.04.64,1.28.99,2.77,1.04,4.48-.21.88-.6,1.59-1.16,2.12h-2.64c-.99,0-2.03.01-3.12.04-1.07,0-2.16.03-3.28.08-1.09.05-2.15.12-3.16.2v-2.88h7.36c0-1.81-.24-3.19-.72-4.12-.45-.93-1.15-1.4-2.08-1.4-.61,0-1.16.23-1.64.68-.45.43-.8,1.08-1.04,1.96-.24.85-.36,1.92-.36,3.2,0,1.39.17,2.63.52,3.72.35,1.09.92,1.95,1.72,2.56.8.61,1.88.92,3.24.92.93,0,1.87-.16,2.8-.48.93-.32,1.71-.73,2.32-1.24.27.16.51.48.72.96.21.45.32.92.32,1.4-1.04.88-2.23,1.55-3.56,2-1.31.45-2.83.68-4.56.68ZM309.84,222.96c-.53-.13-.97-.41-1.32-.84-.32-.45-.53-.87-.64-1.24,1.12-.77,2.27-1.65,3.44-2.64,1.2-.99,2.25-1.96,3.16-2.92.43-.16.89-.28,1.4-.36.53-.08,1.04-.12,1.52-.12.8.99,1.72,2.03,2.76,3.12,1.07,1.07,2.24,2.15,3.52,3.24-.35.4-.76.76-1.24,1.08-.48.29-1.07.51-1.76.64-.77-.59-1.65-1.19-2.64-1.8-.96-.64-1.89-1.19-2.8-1.64-.32.19-.73.43-1.24.72-.48.27-.99.57-1.52.92-.51.32-1,.65-1.48,1-.45.32-.84.6-1.16.84ZM343.74,241.56c-.69.77-1.64,1.37-2.84,1.8-1.17.4-2.51.6-4,.6-1.97,0-3.72-.35-5.24-1.04-1.49-.69-2.67-1.73-3.52-3.12-.83-1.39-1.24-3.15-1.24-5.28,0-1.6.36-3.13,1.08-4.6.72-1.47,1.79-2.67,3.2-3.6,1.44-.93,3.23-1.4,5.36-1.4,1.52,0,2.83.15,3.92.44,1.12.27,2.12.67,3,1.2-.16.75-.28,1.52-.36,2.32-.05.8-.08,1.72-.08,2.76-.51.21-1.09.37-1.76.48-.64.08-1.25.12-1.84.12-.05-1.55-.33-2.71-.84-3.48-.51-.8-1.16-1.2-1.96-1.2-1.04,0-1.84.6-2.4,1.8-.53,1.17-.8,2.71-.8,4.6,0,1.09.17,2.16.52,3.2.37,1.01.95,1.85,1.72,2.52.77.64,1.79.96,3.04.96.85,0,1.63-.11,2.32-.32.69-.24,1.29-.56,1.8-.96.27.24.48.56.64.96.19.37.28.79.28,1.24ZM367.81,237.48c0,1.33.13,2.25.4,2.76.29.48.79.72,1.48.72.16.37.27.79.32,1.24.05.43.08.93.08,1.52-.59-.03-1.39-.05-2.4-.08-.99-.03-1.93-.04-2.84-.04h-2.12c-.8.03-1.56.04-2.28.04-.72.03-1.28.05-1.68.08,0-.51.01-.99.04-1.44.05-.48.16-.92.32-1.32.64,0,1.15-.27,1.52-.8.4-.56.6-1.56.6-3v-3.6c0-1.63-.24-2.75-.72-3.36-.48-.64-1.17-.96-2.08-.96-.67,0-1.28.25-1.84.76-.53.51-.97,1.23-1.32,2.16-.32.93-.48,2.07-.48,3.4v1.92c0,1.36.17,2.28.52,2.76.35.48.87.72,1.56.72.19.43.29.85.32,1.28.05.43.08.92.08,1.48-.4-.03-.95-.05-1.64-.08-.67,0-1.37-.01-2.12-.04h-4.2c-.83.03-1.61.04-2.36.04-.75.03-1.32.05-1.72.08,0-.56.03-1.08.08-1.56.05-.48.15-.88.28-1.2,1.04,0,1.73-.24,2.08-.72.35-.51.52-1.43.52-2.76v-5.24l6.6-4.96c0,.32-.04.69-.12,1.12-.08.4-.19.83-.32,1.28.19-.43.37-.83.56-1.2.19-.37.44-.72.76-1.04.59-.64,1.35-1.19,2.28-1.64.93-.45,2-.68,3.2-.68s2.23.21,3.24.64c1.04.43,1.87,1.12,2.48,2.08.61.96.92,2.23.92,3.8v5.84ZM348.21,221.68c0-.61-.08-1.12-.24-1.52-.13-.4-.41-.69-.84-.88-.43-.21-1.05-.35-1.88-.4,0-.45.03-.91.08-1.36.08-.48.21-.91.4-1.28,1.09,0,2.16-.07,3.2-.2s1.96-.29,2.76-.48c.83-.21,1.44-.43,1.84-.64.4.16.71.43.92.8.24.37.36.88.36,1.52v4.88h-6.6v-.44ZM348.21,220.84h6.6v6.44l-6.6,6.2v-12.64ZM381.86,243.96c-2.4,0-4.35-.41-5.84-1.24-1.47-.83-2.55-1.95-3.24-3.36-.69-1.41-1.04-3-1.04-4.76,0-1.97.39-3.68,1.16-5.12.77-1.44,1.89-2.56,3.36-3.36,1.47-.8,3.19-1.2,5.16-1.2s3.6.37,4.88,1.12c1.28.72,2.23,1.73,2.84,3.04.64,1.28.99,2.77,1.04,4.48-.21.88-.6,1.59-1.16,2.12h-2.64c-.99,0-2.03.01-3.12.04-1.07,0-2.16.03-3.28.08-1.09.05-2.15.12-3.16.2v-2.88h7.36c0-1.81-.24-3.19-.72-4.12-.45-.93-1.15-1.4-2.08-1.4-.61,0-1.16.23-1.64.68-.45.43-.8,1.08-1.04,1.96-.24.85-.36,1.92-.36,3.2,0,1.39.17,2.63.52,3.72.35,1.09.92,1.95,1.72,2.56.8.61,1.88.92,3.24.92.93,0,1.87-.16,2.8-.48.93-.32,1.71-.73,2.32-1.24.27.16.51.48.72.96.21.45.32.92.32,1.4-1.04.88-2.23,1.55-3.56,2-1.31.45-2.83.68-4.56.68ZM69.63,292.4c0-.64.01-1.19.04-1.64.05-.43.13-.8.24-1.12.72-.05,1.27-.2,1.64-.44.4-.21.67-.61.8-1.2.16-.59.24-1.45.24-2.6v-14.16c0-.83-.05-1.47-.16-1.92-.11-.45-.37-.79-.8-1-.4-.24-1.04-.39-1.92-.44,0-.45.03-.91.08-1.36.08-.48.21-.91.4-1.28,1.68,0,3.23-.13,4.64-.4,1.44-.29,2.48-.6,3.12-.92.4.16.71.43.92.8.21.37.32.89.32,1.56,0,.27-.07.63-.2,1.08-.13.45-.33.97-.6,1.56l.8.84v15.16c0,1.15.12,2.04.36,2.68.27.67.69,1.15,1.28,1.44.61.32,1.45.52,2.52.6.13.37.21.8.24,1.28.05.51.08,1,.08,1.48-.48-.03-1.09-.05-1.84-.08-.75,0-1.55-.01-2.4-.04h-6.48c-1.39.03-2.49.07-3.32.12ZM81.95,282.96c-.56,0-1.08-.04-1.56-.12-.48-.08-1.01-.19-1.6-.32v-4c.43.59.88,1.04,1.36,1.36.51.32,1.11.48,1.8.48.48,0,.99-.09,1.52-.28.53-.19,1.04-.53,1.52-1.04.48-.51.85-1.23,1.12-2.16.29-.96.44-2.19.44-3.68,0-.99-.12-1.91-.36-2.76-.21-.88-.57-1.59-1.08-2.12-.48-.56-1.15-.84-2-.84-.64,0-1.27.21-1.88.64-.59.4-1.08,1.08-1.48,2.04-.37.93-.56,2.19-.56,3.76l-1.72-4.04c.45-1.12.89-1.99,1.32-2.6.43-.64.84-1.12,1.24-1.44.32-.29.73-.59,1.24-.88.53-.29,1.13-.53,1.8-.72.69-.21,1.41-.32,2.16-.32,1.57,0,2.95.29,4.12.88,1.2.56,2.15,1.44,2.84,2.64.72,1.2,1.08,2.76,1.08,4.68,0,2.16-.48,4.05-1.44,5.68-.93,1.63-2.25,2.89-3.96,3.8-1.68.91-3.65,1.36-5.92,1.36ZM109.48,282.96c-.51-.19-.87-.47-1.08-.84-.21-.37-.32-.87-.32-1.48,0-.35.04-.76.12-1.24.08-.51.2-.99.36-1.44l.16-.16c-.24.83-.55,1.55-.92,2.16-.37.59-.81,1.08-1.32,1.48-.56.48-1.24.84-2.04,1.08s-1.72.36-2.76.36c-1.84,0-3.28-.39-4.32-1.16-1.04-.77-1.56-1.91-1.56-3.4,0-1.01.23-1.88.68-2.6.48-.75,1.12-1.37,1.92-1.88.83-.53,1.73-.96,2.72-1.28,1.01-.32,2.05-.57,3.12-.76,1.09-.21,2.16-.4,3.2-.56,0-.64-.03-1.2-.08-1.68-.03-.48-.11-.89-.24-1.24-.11-.37-.29-.69-.56-.96-.29-.35-.64-.59-1.04-.72-.37-.13-.75-.2-1.12-.2-.67,0-1.21.2-1.64.6-.43.4-.75.95-.96,1.64-.21.67-.36,1.4-.44,2.2-.77,0-1.47-.03-2.08-.08-.61-.05-1.17-.19-1.68-.4.05-.75.07-1.53.04-2.36-.03-.83-.13-1.69-.32-2.6,1.15-.48,2.49-.85,4.04-1.12,1.55-.29,3.03-.44,4.44-.44,1.76,0,3.15.2,4.16.6,1.01.37,1.77.81,2.28,1.32.53.53.96,1.29,1.28,2.28.35.96.52,2.39.52,4.28v3.08c0,.91.05,1.6.16,2.08.11.48.32.81.64,1,.35.16.84.25,1.48.28.08.51.09,1,.04,1.48-.05.48-.19.93-.4,1.36-1.09.03-2.2.15-3.32.36-1.12.21-2.17.53-3.16.96ZM104.04,279.08c.53,0,1.05-.16,1.56-.48.53-.35.97-.87,1.32-1.56.35-.69.52-1.55.52-2.56v-.92c-.83.16-1.57.35-2.24.56-.64.21-1.17.45-1.6.72-.43.27-.75.59-.96.96-.21.37-.32.81-.32,1.32,0,.69.16,1.2.48,1.52.35.29.76.44,1.24.44ZM133.38,265.16c-.03.69-.04,1.41-.04,2.16.03.72.09,1.43.2,2.12-.4.21-.92.4-1.56.56-.61.16-1.24.24-1.88.24-.08-.67-.27-1.27-.56-1.8-.27-.56-.65-1-1.16-1.32-.48-.32-1.11-.48-1.88-.48-.53,0-.96.15-1.28.44-.29.27-.44.63-.44,1.08,0,.32.08.63.24.92.19.29.57.63,1.16,1,.61.35,1.55.79,2.8,1.32,1.52.61,2.71,1.2,3.56,1.76.88.56,1.51,1.16,1.88,1.8s.56,1.41.56,2.32c0,1.2-.36,2.23-1.08,3.08-.69.85-1.69,1.51-3,1.96-1.31.43-2.88.64-4.72.64-1.68,0-3.08-.12-4.2-.36s-2.21-.57-3.28-1c.08-.53.13-1.09.16-1.68.03-.61.03-1.2,0-1.76,0-.59-.03-1.09-.08-1.52.4-.27.93-.45,1.6-.56.69-.13,1.33-.2,1.92-.2.16,1.39.56,2.44,1.2,3.16.67.69,1.48,1.04,2.44,1.04.67,0,1.21-.15,1.64-.44.45-.29.68-.72.68-1.28,0-.4-.11-.75-.32-1.04-.19-.32-.55-.63-1.08-.92-.51-.32-1.27-.67-2.28-1.04-1.17-.45-2.19-.93-3.04-1.44-.85-.51-1.52-1.13-2-1.88-.45-.75-.68-1.71-.68-2.88,0-.91.19-1.68.56-2.32.4-.67.96-1.21,1.68-1.64.72-.43,1.55-.75,2.48-.96.96-.21,1.99-.32,3.08-.32,1.49,0,2.76.11,3.8.32,1.04.19,2.01.49,2.92.92ZM156.89,263.92c.56,0,1.08.04,1.56.12.51.08,1.03.19,1.56.32v4c-.43-.59-.89-1.04-1.4-1.36-.48-.32-1.07-.48-1.76-.48-.48,0-.99.09-1.52.28-.53.19-1.04.53-1.52,1.04-.45.51-.83,1.24-1.12,2.2-.29.93-.44,2.15-.44,3.64,0,1.07.12,2.04.36,2.92.27.85.65,1.53,1.16,2.04.53.51,1.19.76,1.96.76.64,0,1.25-.2,1.84-.6.59-.43,1.08-1.11,1.48-2.04.4-.96.6-2.23.6-3.8l1.72,4.04c-.48,1.12-.93,2-1.36,2.64-.4.61-.81,1.08-1.24,1.4-.29.29-.71.59-1.24.88-.51.29-1.11.53-1.8.72-.67.21-1.39.32-2.16.32-1.52,0-2.89-.28-4.12-.84-1.2-.59-2.15-1.49-2.84-2.72-.69-1.23-1.04-2.8-1.04-4.72,0-2.13.47-4,1.4-5.6.93-1.63,2.25-2.89,3.96-3.8,1.71-.91,3.69-1.36,5.96-1.36ZM166.21,275.36c0,.93.05,1.65.16,2.16.11.48.32.81.64,1,.35.16.85.25,1.52.28.08.51.08,1,0,1.48-.05.48-.19.93-.4,1.36-1.09.03-2.21.15-3.36.36-1.12.21-2.17.53-3.16.96-.51-.19-.87-.45-1.08-.8-.21-.37-.32-.87-.32-1.48,0-.53.07-1.08.2-1.64.13-.59.31-1.2.52-1.84l5.28-1.84ZM166.21,259.84v17.52h-6.56v-17.52h6.56ZM164.93,253.92c.4.16.71.43.92.8.24.37.36.88.36,1.52v4.88h-6.56v-.44c0-.61-.08-1.12-.24-1.52-.16-.4-.45-.69-.88-.88-.43-.21-1.05-.35-1.88-.4,0-.45.03-.91.08-1.36.08-.48.21-.91.4-1.28,1.09,0,2.16-.07,3.2-.2s1.96-.29,2.76-.48c.83-.21,1.44-.43,1.84-.64ZM180.81,282.96c-2.4,0-4.35-.41-5.84-1.24-1.47-.83-2.55-1.95-3.24-3.36-.69-1.41-1.04-3-1.04-4.76,0-1.97.39-3.68,1.16-5.12.77-1.44,1.89-2.56,3.36-3.36,1.47-.8,3.19-1.2,5.16-1.2s3.6.37,4.88,1.12c1.28.72,2.23,1.73,2.84,3.04.64,1.28.99,2.77,1.04,4.48-.21.88-.6,1.59-1.16,2.12h-2.64c-.99,0-2.03.01-3.12.04-1.07,0-2.16.03-3.28.08-1.09.05-2.15.12-3.16.2v-2.88h7.36c0-1.81-.24-3.19-.72-4.12-.45-.93-1.15-1.4-2.08-1.4-.61,0-1.16.23-1.64.68-.45.43-.8,1.08-1.04,1.96-.24.85-.36,1.92-.36,3.2,0,1.39.17,2.63.52,3.72.35,1.09.92,1.95,1.72,2.56.8.61,1.88.92,3.24.92.93,0,1.87-.16,2.8-.48.93-.32,1.71-.73,2.32-1.24.27.16.51.48.72.96.21.45.32.92.32,1.4-1.04.88-2.23,1.55-3.56,2-1.31.45-2.83.68-4.56.68ZM213.79,264.68c0,.53-.03,1.08-.08,1.64-.05.53-.16.96-.32,1.28-.77,0-1.49.05-2.16.16-.67.08-1.37.24-2.12.48v-3.56h4.68ZM202.71,263.4c0-2.13.43-3.89,1.28-5.28.85-1.41,2-2.45,3.44-3.12,1.44-.69,3.07-1.04,4.88-1.04,1.09,0,2.13.12,3.12.36,1.01.24,1.8.53,2.36.88-.13.77-.21,1.67-.24,2.68-.03,1.01-.01,1.88.04,2.6-.48.19-1.13.32-1.96.4-.8.08-1.52.11-2.16.08,0-1.28-.2-2.29-.6-3.04-.4-.77-.95-1.16-1.64-1.16-.45,0-.83.16-1.12.48-.29.32-.51.87-.64,1.64-.13.75-.2,1.81-.2,3.2v14.32h-6.56v-13ZM203.63,264.68v3.56c-.8-.29-1.55-.49-2.24-.6-.69-.11-1.28-.16-1.76-.16,0-.51.04-1.01.12-1.52.11-.51.25-.93.44-1.28h3.44ZM209.27,275.24c0,1.15.13,2.05.4,2.72.27.64.69,1.12,1.28,1.44.61.29,1.44.48,2.48.56.13.37.21.81.24,1.32.05.48.08.96.08,1.44-.48-.03-1.09-.05-1.84-.08-.75,0-1.53-.01-2.36-.04h-6.48c-1.39.03-2.49.07-3.32.12,0-.64.01-1.17.04-1.6.03-.45.09-.84.2-1.16.72-.05,1.27-.19,1.64-.4.4-.24.68-.65.84-1.24s.24-1.45.24-2.6v-2.2h6.56v1.72ZM229.99,282.96c-.51-.19-.87-.47-1.08-.84-.21-.37-.32-.87-.32-1.48,0-.35.04-.76.12-1.24.08-.51.2-.99.36-1.44l.16-.16c-.24.83-.55,1.55-.92,2.16-.37.59-.81,1.08-1.32,1.48-.56.48-1.24.84-2.04,1.08s-1.72.36-2.76.36c-1.84,0-3.28-.39-4.32-1.16-1.04-.77-1.56-1.91-1.56-3.4,0-1.01.23-1.88.68-2.6.48-.75,1.12-1.37,1.92-1.88.83-.53,1.73-.96,2.72-1.28,1.01-.32,2.05-.57,3.12-.76,1.09-.21,2.16-.4,3.2-.56,0-.64-.03-1.2-.08-1.68-.03-.48-.11-.89-.24-1.24-.11-.37-.29-.69-.56-.96-.29-.35-.64-.59-1.04-.72-.37-.13-.75-.2-1.12-.2-.67,0-1.21.2-1.64.6-.43.4-.75.95-.96,1.64-.21.67-.36,1.4-.44,2.2-.77,0-1.47-.03-2.08-.08-.61-.05-1.17-.19-1.68-.4.05-.75.07-1.53.04-2.36-.03-.83-.13-1.69-.32-2.6,1.15-.48,2.49-.85,4.04-1.12,1.55-.29,3.03-.44,4.44-.44,1.76,0,3.15.2,4.16.6,1.01.37,1.77.81,2.28,1.32.53.53.96,1.29,1.28,2.28.35.96.52,2.39.52,4.28v3.08c0,.91.05,1.6.16,2.08.11.48.32.81.64,1,.35.16.84.25,1.48.28.08.51.09,1,.04,1.48-.05.48-.19.93-.4,1.36-1.09.03-2.2.15-3.32.36-1.12.21-2.17.53-3.16.96ZM224.55,279.08c.53,0,1.05-.16,1.56-.48.53-.35.97-.87,1.32-1.56.35-.69.52-1.55.52-2.56v-.92c-.83.16-1.57.35-2.24.56-.64.21-1.17.45-1.6.72-.43.27-.75.59-.96.96-.21.37-.32.81-.32,1.32,0,.69.16,1.2.48,1.52.35.29.76.44,1.24.44ZM239.05,282.72c0-.56.03-1.07.08-1.52.05-.48.13-.89.24-1.24,1.07-.05,1.77-.31,2.12-.76.35-.48.52-1.39.52-2.72v-5.8c0-.61-.08-1.12-.24-1.52-.13-.4-.41-.69-.84-.88-.43-.21-1.05-.35-1.88-.4,0-.45.03-.91.08-1.36.08-.48.21-.91.4-1.28,1.09,0,2.16-.07,3.2-.2,1.04-.13,1.96-.29,2.76-.48.83-.21,1.44-.43,1.84-.64.4.16.71.43.92.8.24.37.36.88.36,1.52v10.24c0,1.33.17,2.24.52,2.72.35.45,1.03.71,2.04.76.11.35.17.76.2,1.24.05.48.08.99.08,1.52-.35-.03-.85-.05-1.52-.08-.67,0-1.41-.01-2.24-.04h-4.88c-.83.03-1.57.04-2.24.04-.64.03-1.15.05-1.52.08ZM244.77,261.32c-1.09,0-1.97-.27-2.64-.8-.67-.56-1-1.29-1-2.2,0-1.04.36-1.84,1.08-2.4.75-.59,1.67-.88,2.76-.88,1.25,0,2.2.28,2.84.84.67.56,1,1.36,1,2.4,0,.88-.36,1.61-1.08,2.2-.72.56-1.71.84-2.96.84ZM263.61,275.24c0,1.15.12,2.05.36,2.72.27.64.69,1.12,1.28,1.44.61.29,1.45.48,2.52.56.13.37.21.81.24,1.32.05.48.08.96.08,1.44-.48-.03-1.09-.05-1.84-.08-.75,0-1.55-.01-2.4-.04h-6.48c-1.39.03-2.49.07-3.32.12,0-.64.01-1.17.04-1.6.05-.45.13-.84.24-1.16.72-.05,1.27-.19,1.64-.4.4-.24.67-.65.8-1.24.16-.59.24-1.45.24-2.6v-2.2h6.6v1.72ZM263.61,270.8v3.52h-6.6v-4.32l6.6-3.72c0,.53-.08,1.13-.24,1.8-.13.67-.32,1.51-.56,2.52l.8.2ZM262.73,270.72c.19-.53.4-1.13.64-1.8.24-.69.45-1.2.64-1.52.59-.93,1.32-1.71,2.2-2.32.88-.61,1.85-.92,2.92-.92s2,.32,2.88.96c-.08.56-.16,1.21-.24,1.96-.08.75-.13,1.51-.16,2.28,0,.75.01,1.43.04,2.04-.45.19-1.05.32-1.8.4-.75.05-1.39.08-1.92.08-.05-.96-.21-1.64-.48-2.04-.27-.43-.67-.64-1.2-.64-.37,0-.77.23-1.2.68-.4.45-.75,1.04-1.04,1.76-.27.69-.4,1.44-.4,2.24l-.88-3.16ZM257.01,274.32v-3.08c0-.83-.05-1.47-.16-1.92-.11-.45-.37-.79-.8-1-.4-.24-1.04-.39-1.92-.44,0-.45.03-.91.08-1.36.08-.48.21-.91.4-1.28,1.68,0,3.23-.13,4.64-.4,1.44-.29,2.48-.6,3.12-.92.4.16.71.43.92.8s.32.89.32,1.56l-6.6,8.04ZM284.13,282.96c-2.4,0-4.35-.41-5.84-1.24-1.47-.83-2.55-1.95-3.24-3.36-.69-1.41-1.04-3-1.04-4.76,0-1.97.39-3.68,1.16-5.12.77-1.44,1.89-2.56,3.36-3.36,1.47-.8,3.19-1.2,5.16-1.2s3.6.37,4.88,1.12c1.28.72,2.23,1.73,2.84,3.04.64,1.28.99,2.77,1.04,4.48-.21.88-.6,1.59-1.16,2.12h-2.64c-.99,0-2.03.01-3.12.04-1.07,0-2.16.03-3.28.08-1.09.05-2.15.12-3.16.2v-2.88h7.36c0-1.81-.24-3.19-.72-4.12-.45-.93-1.15-1.4-2.08-1.4-.61,0-1.16.23-1.64.68-.45.43-.8,1.08-1.04,1.96-.24.85-.36,1.92-.36,3.2,0,1.39.17,2.63.52,3.72s.92,1.95,1.72,2.56c.8.61,1.88.92,3.24.92.93,0,1.87-.16,2.8-.48.93-.32,1.71-.73,2.32-1.24.27.16.51.48.72.96.21.45.32.92.32,1.4-1.04.88-2.23,1.55-3.56,2-1.31.45-2.83.68-4.56.68ZM303.11,282.72c0-.51.03-.99.08-1.44.05-.48.15-.91.28-1.28,1.09-.08,1.8-.35,2.12-.8.32-.48.48-1.39.48-2.72v-4.8c0-.99-.05-1.73-.16-2.24-.11-.51-.37-.88-.8-1.12-.4-.24-1.04-.39-1.92-.44,0-.45.03-.89.08-1.32.08-.45.21-.89.4-1.32.96,0,1.93-.05,2.92-.16.99-.13,1.91-.29,2.76-.48.85-.21,1.53-.44,2.04-.68.32.11.6.35.84.72.24.37.36.91.36,1.6,0,.48-.07,1-.2,1.56-.11.53-.32,1.41-.64,2.64h-.24c.51-1.31.91-2.24,1.2-2.8.29-.56.57-.97.84-1.24.59-.67,1.36-1.24,2.32-1.72.96-.48,2.01-.72,3.16-.72,1.28,0,2.41.28,3.4.84,1.01.53,1.79,1.31,2.32,2.32.35.61.52,1.24.52,1.88h-.2c.48-1.25,1.01-2.15,1.6-2.68.59-.59,1.31-1.08,2.16-1.48.85-.43,1.83-.64,2.92-.64,1.41,0,2.6.24,3.56.72.99.45,1.73,1.19,2.24,2.2.53.99.8,2.32.8,4v3.92c0,1.44.04,2.51.12,3.2.11.67.29,1.11.56,1.32.27.21.68.35,1.24.4.13.4.21.84.24,1.32.05.45.08.93.08,1.44-.67-.05-1.47-.09-2.4-.12h-4.96c-.75.03-1.47.04-2.16.04-.69.03-1.28.05-1.76.08,0-.59.01-1.08.04-1.48.05-.43.13-.85.24-1.28.53-.03.96-.16,1.28-.4.32-.24.55-.69.68-1.36.13-.67.2-1.61.2-2.84v-2.92c0-1.65-.23-2.76-.68-3.32-.45-.59-1.05-.88-1.8-.88s-1.41.24-2,.72c-.56.48-1,1.2-1.32,2.16-.29.93-.44,2.08-.44,3.44v1.72c0,1.39.15,2.33.44,2.84.29.51.88.79,1.76.84.11.35.19.77.24,1.28.05.48.08.97.08,1.48-.61-.05-1.47-.09-2.56-.12h-6.4c-1.07.03-1.96.07-2.68.12,0-.51.03-1,.08-1.48.08-.51.17-.93.28-1.28.61-.05,1.08-.19,1.4-.4.32-.24.53-.69.64-1.36.13-.69.2-1.75.2-3.16v-2.96c0-1.49-.23-2.52-.68-3.08-.45-.56-1.13-.84-2.04-.84-.67,0-1.28.27-1.84.8-.53.53-.97,1.28-1.32,2.24-.32.96-.48,2.05-.48,3.28v1.8c0,1.44.15,2.4.44,2.88.29.48.87.75,1.72.8.13.37.23.8.28,1.28.05.48.08.97.08,1.48-.43-.05-1.01-.09-1.76-.12h-8.68c-.67.03-1.2.07-1.6.12ZM352.57,282.96c-2.24,0-4.13-.37-5.68-1.12-1.52-.77-2.67-1.85-3.44-3.24-.77-1.39-1.16-3.01-1.16-4.88,0-2.16.45-3.96,1.36-5.4.93-1.47,2.2-2.56,3.8-3.28,1.6-.75,3.4-1.12,5.4-1.12,2.29,0,4.2.4,5.72,1.2,1.55.8,2.71,1.89,3.48,3.28.77,1.39,1.16,2.99,1.16,4.8,0,2-.43,3.73-1.28,5.2-.85,1.47-2.08,2.6-3.68,3.4-1.6.77-3.49,1.16-5.68,1.16ZM353.21,280.16c1.09,0,1.92-.56,2.48-1.68.56-1.12.84-2.51.84-4.16s-.2-3.17-.6-4.32c-.4-1.15-.92-2-1.56-2.56-.64-.59-1.33-.88-2.08-.88-1.15,0-1.99.56-2.52,1.68-.53,1.12-.8,2.49-.8,4.12,0,1.47.16,2.8.48,4,.32,1.17.8,2.11,1.44,2.8.64.67,1.41,1,2.32,1ZM368.49,274.32v-3.08c0-.83-.05-1.47-.16-1.92-.11-.45-.37-.79-.8-1-.4-.24-1.04-.39-1.92-.44,0-.45.03-.91.08-1.36.08-.48.21-.91.4-1.28,1.68,0,3.23-.13,4.64-.4,1.44-.29,2.48-.6,3.12-.92.4.16.71.43.92.8.21.37.32.89.32,1.56l-6.6,8.04ZM388.13,276.48c0,1.33.13,2.25.4,2.76.27.48.76.72,1.48.72.16.37.25.79.28,1.24.05.43.08.93.08,1.52-.59-.03-1.39-.05-2.4-.08-.99-.03-1.93-.04-2.84-.04h-2.12c-.8.03-1.56.04-2.28.04-.72.03-1.28.05-1.68.08,0-.51.01-.99.04-1.44.05-.48.16-.92.32-1.32.67,0,1.19-.27,1.56-.8.37-.56.56-1.56.56-3v-3.6c0-1.63-.24-2.75-.72-3.36-.48-.64-1.17-.96-2.08-.96-.64,0-1.24.25-1.8.76-.56.51-1.01,1.23-1.36,2.16-.32.93-.48,2.07-.48,3.4v1.92c0,1.36.17,2.28.52,2.76.35.48.87.72,1.56.72.19.43.29.85.32,1.28.05.43.08.92.08,1.48-.4-.03-.93-.05-1.6-.08-.67,0-1.37-.01-2.12-.04h-4.2c-.83.03-1.63.04-2.4.04-.75.03-1.32.05-1.72.08,0-.56.03-1.08.08-1.56.08-.48.17-.88.28-1.2,1.04,0,1.73-.24,2.08-.72.35-.51.52-1.43.52-2.76v-5.24l6.6-4.96c0,.32-.04.69-.12,1.12-.08.4-.19.83-.32,1.28.19-.43.37-.83.56-1.2.21-.37.47-.72.76-1.04.59-.64,1.35-1.19,2.28-1.64.96-.45,2.03-.68,3.2-.68s2.27.21,3.28.64c1.01.43,1.83,1.12,2.44,2.08.64.96.96,2.23.96,3.8v5.84ZM79.8,321.96c-1.97,0-3.47-.51-4.48-1.52-1.01-1.04-1.52-2.79-1.52-5.24v-8.24c-.43-.16-.88-.28-1.36-.36-.45-.08-.99-.12-1.6-.12,0-.53.03-1.01.08-1.44.08-.45.23-.91.44-1.36h2.44v-4.76c1.04-.13,2.05-.4,3.04-.8,1.01-.4,1.83-.84,2.44-1.32.43.16.72.41.88.76.16.35.24.96.24,1.84v4.28h4.8c0,.59-.04,1.11-.12,1.56-.05.43-.15.85-.28,1.28-.85,0-1.65.07-2.4.2-.72.11-1.39.27-2,.48v7.4c0,1.15.07,2.03.2,2.64.13.59.35,1,.64,1.24.29.21.67.32,1.12.32.4,0,.8-.04,1.2-.12.43-.11.83-.25,1.2-.44.37.53.57,1.28.6,2.24-.56.43-1.36.79-2.4,1.08-1.01.27-2.07.4-3.16.4ZM96.83,314.24c0,1.15.12,2.05.36,2.72.27.64.69,1.12,1.28,1.44.61.29,1.45.48,2.52.56.13.37.21.81.24,1.32.05.48.08.96.08,1.44-.48-.03-1.09-.05-1.84-.08-.75,0-1.55-.01-2.4-.04h-6.48c-1.39.03-2.49.07-3.32.12,0-.64.01-1.17.04-1.6.05-.45.13-.84.24-1.16.72-.05,1.27-.19,1.64-.4.4-.24.67-.65.8-1.24.16-.59.24-1.45.24-2.6v-2.2h6.6v1.72ZM96.83,309.8v3.52h-6.6v-4.32l6.6-3.72c0,.53-.08,1.13-.24,1.8-.13.67-.32,1.51-.56,2.52l.8.2ZM95.95,309.72c.19-.53.4-1.13.64-1.8.24-.69.45-1.2.64-1.52.59-.93,1.32-1.71,2.2-2.32.88-.61,1.85-.92,2.92-.92s2,.32,2.88.96c-.08.56-.16,1.21-.24,1.96-.08.75-.13,1.51-.16,2.28,0,.75.01,1.43.04,2.04-.45.19-1.05.32-1.8.4-.75.05-1.39.08-1.92.08-.05-.96-.21-1.64-.48-2.04-.27-.43-.67-.64-1.2-.64-.37,0-.77.23-1.2.68-.4.45-.75,1.04-1.04,1.76-.27.69-.4,1.44-.4,2.24l-.88-3.16ZM90.23,313.32v-3.08c0-.83-.05-1.47-.16-1.92-.11-.45-.37-.79-.8-1-.4-.24-1.04-.39-1.92-.44,0-.45.03-.91.08-1.36.08-.48.21-.91.4-1.28,1.68,0,3.23-.13,4.64-.4,1.44-.29,2.48-.6,3.12-.92.4.16.71.43.92.8.21.37.32.89.32,1.56l-6.6,8.04ZM120.83,321.96c-.51-.19-.87-.47-1.08-.84-.21-.37-.32-.87-.32-1.48,0-.35.04-.76.12-1.24.08-.51.2-.99.36-1.44l.16-.16c-.24.83-.55,1.55-.92,2.16-.37.59-.81,1.08-1.32,1.48-.56.48-1.24.84-2.04,1.08-.8.24-1.72.36-2.76.36-1.84,0-3.28-.39-4.32-1.16s-1.56-1.91-1.56-3.4c0-1.01.23-1.88.68-2.6.48-.75,1.12-1.37,1.92-1.88.83-.53,1.73-.96,2.72-1.28,1.01-.32,2.05-.57,3.12-.76,1.09-.21,2.16-.4,3.2-.56,0-.64-.03-1.2-.08-1.68-.03-.48-.11-.89-.24-1.24-.11-.37-.29-.69-.56-.96-.29-.35-.64-.59-1.04-.72-.37-.13-.75-.2-1.12-.2-.67,0-1.21.2-1.64.6-.43.4-.75.95-.96,1.64-.21.67-.36,1.4-.44,2.2-.77,0-1.47-.03-2.08-.08-.61-.05-1.17-.19-1.68-.4.05-.75.07-1.53.04-2.36-.03-.83-.13-1.69-.32-2.6,1.15-.48,2.49-.85,4.04-1.12,1.55-.29,3.03-.44,4.44-.44,1.76,0,3.15.2,4.16.6,1.01.37,1.77.81,2.28,1.32.53.53.96,1.29,1.28,2.28.35.96.52,2.39.52,4.28v3.08c0,.91.05,1.6.16,2.08.11.48.32.81.64,1,.35.16.84.25,1.48.28.08.51.09,1,.04,1.48-.05.48-.19.93-.4,1.36-1.09.03-2.2.15-3.32.36-1.12.21-2.17.53-3.16.96ZM115.39,318.08c.53,0,1.05-.16,1.56-.48.53-.35.97-.87,1.32-1.56.35-.69.52-1.55.52-2.56v-.92c-.83.16-1.57.35-2.24.56-.64.21-1.17.45-1.6.72s-.75.59-.96.96c-.21.37-.32.81-.32,1.32,0,.69.16,1.2.48,1.52.35.29.76.44,1.24.44ZM136.99,321.96c-.35-.83-.75-1.72-1.2-2.68-.43-.99-.88-2-1.36-3.04-.45-1.04-.92-2.05-1.4-3.04s-.93-1.89-1.36-2.72c-.4-.85-.75-1.59-1.04-2.2-.29-.59-.56-1.04-.8-1.36-.24-.32-.49-.55-.76-.68-.24-.13-.53-.24-.88-.32-.11-.37-.2-.8-.28-1.28-.08-.51-.12-1-.12-1.48.61.03,1.43.05,2.44.08,1.04.03,2.13.04,3.28.04h2.36c.8-.03,1.55-.04,2.24-.04.69-.03,1.25-.05,1.68-.08,0,.45-.04.95-.12,1.48-.08.51-.17.93-.28,1.28-1.01.11-1.6.33-1.76.68-.16.32,0,.97.48,1.96.27.59.53,1.21.8,1.88.29.64.57,1.33.84,2.08.29.72.57,1.47.84,2.24.29.75.57,1.53.84,2.36h-1.32c.56-1.63,1.09-3.05,1.6-4.28.51-1.23,1.04-2.48,1.6-3.76.48-1.15.61-1.93.4-2.36-.21-.43-.76-.69-1.64-.8-.11-.35-.21-.77-.32-1.28-.08-.53-.12-1.03-.12-1.48.53.03,1.13.05,1.8.08.67.03,1.39.04,2.16.04s1.51-.01,2.2-.04c.69-.03,1.32-.05,1.88-.08,0,.45-.04.95-.12,1.48-.08.53-.2.96-.36,1.28-.45.11-.84.27-1.16.48-.32.19-.61.48-.88.88-.24.4-.51.96-.8,1.68l-5.52,12.48c-.45.21-1.05.37-1.8.48-.72.11-1.4.12-2.04.04ZM164.46,321.96c-.51-.19-.87-.47-1.08-.84-.21-.37-.32-.87-.32-1.48,0-.35.04-.76.12-1.24.08-.51.2-.99.36-1.44l.16-.16c-.24.83-.55,1.55-.92,2.16-.37.59-.81,1.08-1.32,1.48-.56.48-1.24.84-2.04,1.08-.8.24-1.72.36-2.76.36-1.84,0-3.28-.39-4.32-1.16s-1.56-1.91-1.56-3.4c0-1.01.23-1.88.68-2.6.48-.75,1.12-1.37,1.92-1.88.83-.53,1.73-.96,2.72-1.28,1.01-.32,2.05-.57,3.12-.76,1.09-.21,2.16-.4,3.2-.56,0-.64-.03-1.2-.08-1.68-.03-.48-.11-.89-.24-1.24-.11-.37-.29-.69-.56-.96-.29-.35-.64-.59-1.04-.72-.37-.13-.75-.2-1.12-.2-.67,0-1.21.2-1.64.6-.43.4-.75.95-.96,1.64-.21.67-.36,1.4-.44,2.2-.77,0-1.47-.03-2.08-.08-.61-.05-1.17-.19-1.68-.4.05-.75.07-1.53.04-2.36s-.13-1.69-.32-2.6c1.15-.48,2.49-.85,4.04-1.12,1.55-.29,3.03-.44,4.44-.44,1.76,0,3.15.2,4.16.6,1.01.37,1.77.81,2.28,1.32.53.53.96,1.29,1.28,2.28.35.96.52,2.39.52,4.28v3.08c0,.91.05,1.6.16,2.08.11.48.32.81.64,1,.35.16.84.25,1.48.28.08.51.09,1,.04,1.48-.05.48-.19.93-.4,1.36-1.09.03-2.2.15-3.32.36-1.12.21-2.17.53-3.16.96ZM159.02,318.08c.53,0,1.05-.16,1.56-.48.53-.35.97-.87,1.32-1.56.35-.69.52-1.55.52-2.56v-.92c-.83.16-1.57.35-2.24.56-.64.21-1.17.45-1.6.72-.43.27-.75.59-.96.96s-.32.81-.32,1.32c0,.69.16,1.2.48,1.52.35.29.76.44,1.24.44ZM173.52,321.72c0-.56.03-1.07.08-1.52.05-.48.13-.89.24-1.24,1.07-.05,1.77-.31,2.12-.76.35-.48.52-1.39.52-2.72v-5.8c0-.61-.08-1.12-.24-1.52-.13-.4-.41-.69-.84-.88-.43-.21-1.05-.35-1.88-.4,0-.45.03-.91.08-1.36.08-.48.21-.91.4-1.28,1.09,0,2.16-.07,3.2-.2s1.96-.29,2.76-.48c.83-.21,1.44-.43,1.84-.64.4.16.71.43.92.8.24.37.36.88.36,1.52v10.24c0,1.33.17,2.24.52,2.72.35.45,1.03.71,2.04.76.11.35.17.76.2,1.24.05.48.08.99.08,1.52-.35-.03-.85-.05-1.52-.08-.67,0-1.41-.01-2.24-.04h-4.88c-.83.03-1.57.04-2.24.04-.64.03-1.15.05-1.52.08ZM179.24,300.32c-1.09,0-1.97-.27-2.64-.8-.67-.56-1-1.29-1-2.2,0-1.04.36-1.84,1.08-2.4.75-.59,1.67-.88,2.76-.88,1.25,0,2.2.28,2.84.84.67.56,1,1.36,1,2.4,0,.88-.36,1.61-1.08,2.2-.72.56-1.71.84-2.96.84ZM188.16,321.72c0-.56.03-1.07.08-1.52.05-.48.13-.89.24-1.24,1.07-.05,1.77-.31,2.12-.76.35-.48.52-1.39.52-2.72v-16.12c0-.53-.09-.97-.28-1.32-.16-.35-.45-.61-.88-.8-.43-.19-1.03-.31-1.8-.36,0-.45.03-.91.08-1.36.08-.48.21-.91.4-1.28,1.09,0,2.16-.07,3.2-.2,1.04-.13,1.96-.29,2.76-.48.83-.21,1.44-.43,1.84-.64.4.16.71.43.92.8.24.37.36.88.36,1.52v20.24c0,1.33.17,2.24.52,2.72.35.45,1.03.71,2.04.76.11.35.17.76.2,1.24.05.48.08.99.08,1.52-.35-.03-.85-.05-1.52-.08-.67,0-1.41-.01-2.24-.04h-4.88c-.83.03-1.57.04-2.24.04-.67.03-1.17.05-1.52.08ZM227.7,319.56c-.69.77-1.64,1.37-2.84,1.8-1.17.4-2.51.6-4,.6-1.97,0-3.72-.35-5.24-1.04-1.49-.69-2.67-1.73-3.52-3.12-.83-1.39-1.24-3.15-1.24-5.28,0-1.6.36-3.13,1.08-4.6.72-1.47,1.79-2.67,3.2-3.6,1.44-.93,3.23-1.4,5.36-1.4,1.52,0,2.83.15,3.92.44,1.12.27,2.12.67,3,1.2-.16.75-.28,1.52-.36,2.32-.05.8-.08,1.72-.08,2.76-.51.21-1.09.37-1.76.48-.64.08-1.25.12-1.84.12-.05-1.55-.33-2.71-.84-3.48-.51-.8-1.16-1.2-1.96-1.2-1.04,0-1.84.6-2.4,1.8-.53,1.17-.8,2.71-.8,4.6,0,1.09.17,2.16.52,3.2.37,1.01.95,1.85,1.72,2.52.77.64,1.79.96,3.04.96.85,0,1.63-.11,2.32-.32.69-.24,1.29-.56,1.8-.96.27.24.48.56.64.96.19.37.28.79.28,1.24ZM240.13,321.96c-2.24,0-4.13-.37-5.68-1.12-1.52-.77-2.67-1.85-3.44-3.24-.77-1.39-1.16-3.01-1.16-4.88,0-2.16.45-3.96,1.36-5.4.93-1.47,2.2-2.56,3.8-3.28,1.6-.75,3.4-1.12,5.4-1.12,2.29,0,4.2.4,5.72,1.2,1.55.8,2.71,1.89,3.48,3.28.77,1.39,1.16,2.99,1.16,4.8,0,2-.43,3.73-1.28,5.2-.85,1.47-2.08,2.6-3.68,3.4-1.6.77-3.49,1.16-5.68,1.16ZM240.77,319.16c1.09,0,1.92-.56,2.48-1.68.56-1.12.84-2.51.84-4.16s-.2-3.17-.6-4.32c-.4-1.15-.92-2-1.56-2.56-.64-.59-1.33-.88-2.08-.88-1.15,0-1.99.56-2.52,1.68-.53,1.12-.8,2.49-.8,4.12,0,1.47.16,2.8.48,4,.32,1.17.8,2.11,1.44,2.8.64.67,1.41,1,2.32,1ZM253.09,321.72c0-.51.03-.99.08-1.44.05-.48.15-.91.28-1.28,1.09-.08,1.8-.35,2.12-.8.32-.48.48-1.39.48-2.72v-4.8c0-.99-.05-1.73-.16-2.24-.11-.51-.37-.88-.8-1.12-.4-.24-1.04-.39-1.92-.44,0-.45.03-.89.08-1.32.08-.45.21-.89.4-1.32.96,0,1.93-.05,2.92-.16.99-.13,1.91-.29,2.76-.48.85-.21,1.53-.44,2.04-.68.32.11.6.35.84.72.24.37.36.91.36,1.6,0,.48-.07,1-.2,1.56-.11.53-.32,1.41-.64,2.64h-.24c.51-1.31.91-2.24,1.2-2.8.29-.56.57-.97.84-1.24.59-.67,1.36-1.24,2.32-1.72.96-.48,2.01-.72,3.16-.72,1.28,0,2.41.28,3.4.84,1.01.53,1.79,1.31,2.32,2.32.35.61.52,1.24.52,1.88h-.2c.48-1.25,1.01-2.15,1.6-2.68.59-.59,1.31-1.08,2.16-1.48.85-.43,1.83-.64,2.92-.64,1.41,0,2.6.24,3.56.72.99.45,1.73,1.19,2.24,2.2.53.99.8,2.32.8,4v3.92c0,1.44.04,2.51.12,3.2.11.67.29,1.11.56,1.32.27.21.68.35,1.24.4.13.4.21.84.24,1.32.05.45.08.93.08,1.44-.67-.05-1.47-.09-2.4-.12h-4.96c-.75.03-1.47.04-2.16.04-.69.03-1.28.05-1.76.08,0-.59.01-1.08.04-1.48.05-.43.13-.85.24-1.28.53-.03.96-.16,1.28-.4.32-.24.55-.69.68-1.36.13-.67.2-1.61.2-2.84v-2.92c0-1.65-.23-2.76-.68-3.32-.45-.59-1.05-.88-1.8-.88s-1.41.24-2,.72c-.56.48-1,1.2-1.32,2.16-.29.93-.44,2.08-.44,3.44v1.72c0,1.39.15,2.33.44,2.84.29.51.88.79,1.76.84.11.35.19.77.24,1.28.05.48.08.97.08,1.48-.61-.05-1.47-.09-2.56-.12h-6.4c-1.07.03-1.96.07-2.68.12,0-.51.03-1,.08-1.48.08-.51.17-.93.28-1.28.61-.05,1.08-.19,1.4-.4.32-.24.53-.69.64-1.36.13-.69.2-1.75.2-3.16v-2.96c0-1.49-.23-2.52-.68-3.08-.45-.56-1.13-.84-2.04-.84-.67,0-1.28.27-1.84.8-.53.53-.97,1.28-1.32,2.24-.32.96-.48,2.05-.48,3.28v1.8c0,1.44.15,2.4.44,2.88s.87.75,1.72.8c.13.37.23.8.28,1.28.05.48.08.97.08,1.48-.43-.05-1.01-.09-1.76-.12h-8.68c-.67.03-1.2.07-1.6.12ZM293.17,321.72c0-.51.03-.99.08-1.44.05-.48.15-.91.28-1.28,1.09-.08,1.8-.35,2.12-.8.32-.48.48-1.39.48-2.72v-4.8c0-.99-.05-1.73-.16-2.24-.11-.51-.37-.88-.8-1.12-.4-.24-1.04-.39-1.92-.44,0-.45.03-.89.08-1.32.08-.45.21-.89.4-1.32.96,0,1.93-.05,2.92-.16.99-.13,1.91-.29,2.76-.48.85-.21,1.53-.44,2.04-.68.32.11.6.35.84.72.24.37.36.91.36,1.6,0,.48-.07,1-.2,1.56-.11.53-.32,1.41-.64,2.64h-.24c.51-1.31.91-2.24,1.2-2.8.29-.56.57-.97.84-1.24.59-.67,1.36-1.24,2.32-1.72.96-.48,2.01-.72,3.16-.72,1.28,0,2.41.28,3.4.84,1.01.53,1.79,1.31,2.32,2.32.35.61.52,1.24.52,1.88h-.2c.48-1.25,1.01-2.15,1.6-2.68.59-.59,1.31-1.08,2.16-1.48.85-.43,1.83-.64,2.92-.64,1.41,0,2.6.24,3.56.72.99.45,1.73,1.19,2.24,2.2.53.99.8,2.32.8,4v3.92c0,1.44.04,2.51.12,3.2.11.67.29,1.11.56,1.32.27.21.68.35,1.24.4.13.4.21.84.24,1.32.05.45.08.93.08,1.44-.67-.05-1.47-.09-2.4-.12h-4.96c-.75.03-1.47.04-2.16.04-.69.03-1.28.05-1.76.08,0-.59.01-1.08.04-1.48.05-.43.13-.85.24-1.28.53-.03.96-.16,1.28-.4.32-.24.55-.69.68-1.36.13-.67.2-1.61.2-2.84v-2.92c0-1.65-.23-2.76-.68-3.32-.45-.59-1.05-.88-1.8-.88s-1.41.24-2,.72c-.56.48-1,1.2-1.32,2.16-.29.93-.44,2.08-.44,3.44v1.72c0,1.39.15,2.33.44,2.84.29.51.88.79,1.76.84.11.35.19.77.24,1.28.05.48.08.97.08,1.48-.61-.05-1.47-.09-2.56-.12h-6.4c-1.07.03-1.96.07-2.68.12,0-.51.03-1,.08-1.48.08-.51.17-.93.28-1.28.61-.05,1.08-.19,1.4-.4.32-.24.53-.69.64-1.36.13-.69.2-1.75.2-3.16v-2.96c0-1.49-.23-2.52-.68-3.08-.45-.56-1.13-.84-2.04-.84-.67,0-1.28.27-1.84.8-.53.53-.97,1.28-1.32,2.24-.32.96-.48,2.05-.48,3.28v1.8c0,1.44.15,2.4.44,2.88s.87.75,1.72.8c.13.37.23.8.28,1.28.05.48.08.97.08,1.48-.43-.05-1.01-.09-1.76-.12h-8.68c-.67.03-1.2.07-1.6.12ZM342.47,321.96c-2.4,0-4.35-.41-5.84-1.24-1.47-.83-2.55-1.95-3.24-3.36-.69-1.41-1.04-3-1.04-4.76,0-1.97.39-3.68,1.16-5.12.77-1.44,1.89-2.56,3.36-3.36,1.47-.8,3.19-1.2,5.16-1.2s3.6.37,4.88,1.12c1.28.72,2.23,1.73,2.84,3.04.64,1.28.99,2.77,1.04,4.48-.21.88-.6,1.59-1.16,2.12h-2.64c-.99,0-2.03.01-3.12.04-1.07,0-2.16.03-3.28.08-1.09.05-2.15.12-3.16.2v-2.88h7.36c0-1.81-.24-3.19-.72-4.12-.45-.93-1.15-1.4-2.08-1.4-.61,0-1.16.23-1.64.68-.45.43-.8,1.08-1.04,1.96-.24.85-.36,1.92-.36,3.2,0,1.39.17,2.63.52,3.72.35,1.09.92,1.95,1.72,2.56.8.61,1.88.92,3.24.92.93,0,1.87-.16,2.8-.48.93-.32,1.71-.73,2.32-1.24.27.16.51.48.72.96.21.45.32.92.32,1.4-1.04.88-2.23,1.55-3.56,2-1.31.45-2.83.68-4.56.68ZM361.45,321.72c0-.56.03-1.07.08-1.52.05-.48.13-.89.24-1.24,1.07-.05,1.77-.31,2.12-.76.35-.48.52-1.39.52-2.72v-5.8c0-.61-.08-1.12-.24-1.52-.13-.4-.41-.69-.84-.88-.43-.21-1.05-.35-1.88-.4,0-.45.03-.91.08-1.36.08-.48.21-.91.4-1.28,1.09,0,2.16-.07,3.2-.2s1.96-.29,2.76-.48c.83-.21,1.44-.43,1.84-.64.4.16.71.43.92.8.24.37.36.88.36,1.52v10.24c0,1.33.17,2.24.52,2.72.35.45,1.03.71,2.04.76.11.35.17.76.2,1.24.05.48.08.99.08,1.52-.35-.03-.85-.05-1.52-.08-.67,0-1.41-.01-2.24-.04h-4.88c-.83.03-1.57.04-2.24.04-.64.03-1.15.05-1.52.08ZM367.17,300.32c-1.09,0-1.97-.27-2.64-.8-.67-.56-1-1.29-1-2.2,0-1.04.36-1.84,1.08-2.4.75-.59,1.67-.88,2.76-.88,1.25,0,2.2.28,2.84.84.67.56,1,1.36,1,2.4,0,.88-.36,1.61-1.08,2.2-.72.56-1.71.84-2.96.84ZM376.09,321.72c0-.56.03-1.07.08-1.52.05-.48.13-.89.24-1.24,1.07-.05,1.77-.31,2.12-.76.35-.48.52-1.39.52-2.72v-16.12c0-.53-.09-.97-.28-1.32-.16-.35-.45-.61-.88-.8-.43-.19-1.03-.31-1.8-.36,0-.45.03-.91.08-1.36.08-.48.21-.91.4-1.28,1.09,0,2.16-.07,3.2-.2,1.04-.13,1.96-.29,2.76-.48.83-.21,1.44-.43,1.84-.64.4.16.71.43.92.8.24.37.36.88.36,1.52v20.24c0,1.33.17,2.24.52,2.72.35.45,1.03.71,2.04.76.11.35.17.76.2,1.24.05.48.08.99.08,1.52-.35-.03-.85-.05-1.52-.08-.67,0-1.41-.01-2.24-.04h-4.88c-.83.03-1.57.04-2.24.04-.67.03-1.17.05-1.52.08ZM183.2,342.68c0,.53-.03,1.08-.08,1.64-.05.53-.16.96-.32,1.28-.77,0-1.49.05-2.16.16-.67.08-1.37.24-2.12.48v-3.56h4.68ZM172.12,341.4c0-2.13.43-3.89,1.28-5.28.85-1.41,2-2.45,3.44-3.12,1.44-.69,3.07-1.04,4.88-1.04,1.09,0,2.13.12,3.12.36,1.01.24,1.8.53,2.36.88-.13.77-.21,1.67-.24,2.68s-.01,1.88.04,2.6c-.48.19-1.13.32-1.96.4-.8.08-1.52.11-2.16.08,0-1.28-.2-2.29-.6-3.04-.4-.77-.95-1.16-1.64-1.16-.45,0-.83.16-1.12.48-.29.32-.51.87-.64,1.64-.13.75-.2,1.81-.2,3.2v14.32h-6.56v-13ZM173.04,342.68v3.56c-.8-.29-1.55-.49-2.24-.6s-1.28-.16-1.76-.16c0-.51.04-1.01.12-1.52.11-.51.25-.93.44-1.28h3.44ZM178.68,353.24c0,1.15.13,2.05.4,2.72.27.64.69,1.12,1.28,1.44.61.29,1.44.48,2.48.56.13.37.21.81.24,1.32.05.48.08.96.08,1.44-.48-.03-1.09-.05-1.84-.08-.75,0-1.53-.01-2.36-.04h-6.48c-1.39.03-2.49.07-3.32.12,0-.64.01-1.17.04-1.6.03-.45.09-.84.2-1.16.72-.05,1.27-.19,1.64-.4.4-.24.68-.65.84-1.24.16-.59.24-1.45.24-2.6v-2.2h6.56v1.72ZM199.4,360.96c-.51-.19-.87-.47-1.08-.84-.21-.37-.32-.87-.32-1.48,0-.35.04-.76.12-1.24.08-.51.2-.99.36-1.44l.16-.16c-.24.83-.55,1.55-.92,2.16-.37.59-.81,1.08-1.32,1.48-.56.48-1.24.84-2.04,1.08-.8.24-1.72.36-2.76.36-1.84,0-3.28-.39-4.32-1.16-1.04-.77-1.56-1.91-1.56-3.4,0-1.01.23-1.88.68-2.6.48-.75,1.12-1.37,1.92-1.88.83-.53,1.73-.96,2.72-1.28,1.01-.32,2.05-.57,3.12-.76,1.09-.21,2.16-.4,3.2-.56,0-.64-.03-1.2-.08-1.68-.03-.48-.11-.89-.24-1.24-.11-.37-.29-.69-.56-.96-.29-.35-.64-.59-1.04-.72-.37-.13-.75-.2-1.12-.2-.67,0-1.21.2-1.64.6-.43.4-.75.95-.96,1.64-.21.67-.36,1.4-.44,2.2-.77,0-1.47-.03-2.08-.08-.61-.05-1.17-.19-1.68-.4.05-.75.07-1.53.04-2.36-.03-.83-.13-1.69-.32-2.6,1.15-.48,2.49-.85,4.04-1.12,1.55-.29,3.03-.44,4.44-.44,1.76,0,3.15.2,4.16.6,1.01.37,1.77.81,2.28,1.32.53.53.96,1.29,1.28,2.28.35.96.52,2.39.52,4.28v3.08c0,.91.05,1.6.16,2.08.11.48.32.81.64,1,.35.16.84.25,1.48.28.08.51.09,1,.04,1.48-.05.48-.19.93-.4,1.36-1.09.03-2.2.15-3.32.36-1.12.21-2.17.53-3.16.96ZM193.96,357.08c.53,0,1.05-.16,1.56-.48.53-.35.97-.87,1.32-1.56.35-.69.52-1.55.52-2.56v-.92c-.83.16-1.57.35-2.24.56-.64.21-1.17.45-1.6.72-.43.27-.75.59-.96.96-.21.37-.32.81-.32,1.32,0,.69.16,1.2.48,1.52.35.29.76.44,1.24.44ZM216.11,360.84c-1.95,0-3.47-.53-4.56-1.6-1.07-1.09-1.6-3.03-1.6-5.8v-4.2c0-1.2-.13-2.04-.4-2.52-.27-.48-.97-.76-2.12-.84,0-.45.03-.91.08-1.36.08-.48.21-.91.4-1.28,1.68,0,3.17-.13,4.48-.4,1.31-.29,2.28-.6,2.92-.92.4.16.71.43.92.8.21.37.32.89.32,1.56v8.16c0,1.79.17,3.03.52,3.72.35.67.88,1,1.6,1,.99,0,1.84-.51,2.56-1.52s1.08-2.57,1.08-4.68v-1.92c0-1.2-.17-2.04-.52-2.52-.35-.48-1.13-.76-2.36-.84,0-.45.03-.91.08-1.36.05-.48.17-.91.36-1.28,1.73,0,3.31-.11,4.72-.32,1.41-.24,2.43-.51,3.04-.8.4.16.71.43.92.8.21.37.32.89.32,1.56v10.96l-5.72,1.44c-.19.51-.4.96-.64,1.36-.24.37-.52.71-.84,1-.56.51-1.31.93-2.24,1.28-.93.35-2.04.52-3.32.52ZM224.27,360.96c-.51-.19-.87-.45-1.08-.8-.21-.37-.32-.87-.32-1.48,0-.48.05-1.01.16-1.6.13-.59.27-1.11.4-1.56l5.44-2.16c0,.93.05,1.65.16,2.16.11.48.32.81.64,1,.35.16.85.25,1.52.28.08.51.09,1,.04,1.48-.05.48-.2.93-.44,1.36-1.07.03-2.17.15-3.32.36-1.15.21-2.21.53-3.2.96ZM241.34,360.96c-1.97,0-3.47-.51-4.48-1.52-1.01-1.04-1.52-2.79-1.52-5.24v-8.24c-.43-.16-.88-.28-1.36-.36-.45-.08-.99-.12-1.6-.12,0-.53.03-1.01.08-1.44.08-.45.23-.91.44-1.36h2.44v-4.76c1.04-.13,2.05-.4,3.04-.8,1.01-.4,1.83-.84,2.44-1.32.43.16.72.41.88.76.16.35.24.96.24,1.84v4.28h4.8c0,.59-.04,1.11-.12,1.56-.05.43-.15.85-.28,1.28-.85,0-1.65.07-2.4.2-.72.11-1.39.27-2,.48v7.4c0,1.15.07,2.03.2,2.64.13.59.35,1,.64,1.24.29.21.67.32,1.12.32.4,0,.8-.04,1.2-.12.43-.11.83-.25,1.2-.44.37.53.57,1.28.6,2.24-.56.43-1.36.79-2.4,1.08-1.01.27-2.07.4-3.16.4ZM266.94,360.96c-2.4,0-4.35-.41-5.84-1.24-1.47-.83-2.55-1.95-3.24-3.36-.69-1.41-1.04-3-1.04-4.76,0-1.97.39-3.68,1.16-5.12.77-1.44,1.89-2.56,3.36-3.36,1.47-.8,3.19-1.2,5.16-1.2s3.6.37,4.88,1.12c1.28.72,2.23,1.73,2.84,3.04.64,1.28.99,2.77,1.04,4.48-.21.88-.6,1.59-1.16,2.12h-2.64c-.99,0-2.03.01-3.12.04-1.07,0-2.16.03-3.28.08-1.09.05-2.15.12-3.16.2v-2.88h7.36c0-1.81-.24-3.19-.72-4.12-.45-.93-1.15-1.4-2.08-1.4-.61,0-1.16.23-1.64.68-.45.43-.8,1.08-1.04,1.96-.24.85-.36,1.92-.36,3.2,0,1.39.17,2.63.52,3.72.35,1.09.92,1.95,1.72,2.56s1.88.92,3.24.92c.93,0,1.87-.16,2.8-.48.93-.32,1.71-.73,2.32-1.24.27.16.51.48.72.96.21.45.32.92.32,1.4-1.04.88-2.23,1.55-3.56,2-1.31.45-2.83.68-4.56.68ZM285.91,360.96c-1.97,0-3.47-.51-4.48-1.52-1.01-1.04-1.52-2.79-1.52-5.24v-8.24c-.43-.16-.88-.28-1.36-.36-.45-.08-.99-.12-1.6-.12,0-.53.03-1.01.08-1.44.08-.45.23-.91.44-1.36h2.44v-4.76c1.04-.13,2.05-.4,3.04-.8,1.01-.4,1.83-.84,2.44-1.32.43.16.72.41.88.76.16.35.24.96.24,1.84v4.28h4.8c0,.59-.04,1.11-.12,1.56-.05.43-.15.85-.28,1.28-.85,0-1.65.07-2.4.2-.72.11-1.39.27-2,.48v7.4c0,1.15.07,2.03.2,2.64.13.59.35,1,.64,1.24.29.21.67.32,1.12.32.4,0,.8-.04,1.2-.12.43-.11.83-.25,1.2-.44.37.53.57,1.28.6,2.24-.56.43-1.36.79-2.4,1.08-1.01.27-2.07.4-3.16.4ZM116.66,399.96c-2.4,0-4.35-.41-5.84-1.24-1.47-.83-2.55-1.95-3.24-3.36-.69-1.41-1.04-3-1.04-4.76,0-1.97.39-3.68,1.16-5.12.77-1.44,1.89-2.56,3.36-3.36,1.47-.8,3.19-1.2,5.16-1.2s3.6.37,4.88,1.12c1.28.72,2.23,1.73,2.84,3.04.64,1.28.99,2.77,1.04,4.48-.21.88-.6,1.59-1.16,2.12h-2.64c-.99,0-2.03.01-3.12.04-1.07,0-2.16.03-3.28.08-1.09.05-2.15.12-3.16.2v-2.88h7.36c0-1.81-.24-3.19-.72-4.12-.45-.93-1.15-1.4-2.08-1.4-.61,0-1.16.23-1.64.68-.45.43-.8,1.08-1.04,1.96-.24.85-.36,1.92-.36,3.2,0,1.39.17,2.63.52,3.72.35,1.09.92,1.95,1.72,2.56.8.61,1.88.92,3.24.92.93,0,1.87-.16,2.8-.48s1.71-.73,2.32-1.24c.27.16.51.48.72.96.21.45.32.92.32,1.4-1.04.88-2.23,1.55-3.56,2-1.31.45-2.83.68-4.56.68ZM142.52,399.72c0-.56.01-1.05.04-1.48.05-.45.13-.88.24-1.28.72-.05,1.27-.19,1.64-.4.4-.24.67-.64.8-1.2.16-.59.24-1.43.24-2.52v-12.52c0-1.84.47-3.45,1.4-4.84.96-1.41,2.39-2.52,4.28-3.32,1.92-.8,4.31-1.2,7.16-1.2,2,0,3.6.16,4.8.48,1.2.29,2.16.6,2.88.92-.16.83-.27,1.67-.32,2.52-.05.83-.08,1.65-.08,2.48-.72.32-1.6.57-2.64.76-1.04.16-2.11.23-3.2.2-.11-1.71-.44-2.89-1-3.56-.53-.69-1.33-1.04-2.4-1.04-1.47,0-2.55.47-3.24,1.4-.69.93-1.04,2.25-1.04,3.96v2.6h6.08c.45,0,1.03-.01,1.72-.04.69-.05,1.4-.11,2.12-.16.75-.08,1.45-.16,2.12-.24.69-.11,1.25-.21,1.68-.32.32.13.6.37.84.72.27.32.4.79.4,1.4v10.44c0,1.41.2,2.33.6,2.76.4.43,1.05.67,1.96.72.13.35.21.77.24,1.28.05.48.08.97.08,1.48-.43-.03-1-.05-1.72-.08-.72,0-1.49-.01-2.32-.04h-6.56c-.72.03-1.32.07-1.8.12,0-.56.03-1.08.08-1.56.05-.48.12-.88.2-1.2,1.07-.05,1.77-.29,2.12-.72.37-.45.56-1.35.56-2.68v-5.72c0-.72-.09-1.31-.28-1.76-.16-.48-.52-.84-1.08-1.08-.56-.24-1.41-.37-2.56-.4-.59,0-1.19.03-1.8.08-.61.03-1.16.08-1.64.16-.45.08-.8.16-1.04.24v7.36c0,1.15.07,2.04.2,2.68.16.61.44,1.05.84,1.32.43.24,1,.41,1.72.52.13.35.21.76.24,1.24.03.48.04.99.04,1.52-.75-.05-1.63-.09-2.64-.12h-7.04c-1.28.03-2.25.07-2.92.12ZM131.48,385.24c-.8-.29-1.55-.49-2.24-.6-.69-.11-1.28-.16-1.76-.16,0-.51.04-1.01.12-1.52.11-.51.25-.93.44-1.28h3.44v3.56ZM127.6,399.72c0-.64.01-1.17.04-1.6.03-.45.09-.84.2-1.16.72-.05,1.27-.19,1.64-.4.4-.24.68-.65.84-1.24.16-.59.24-1.45.24-2.6v-12.12c0-1.95.48-3.57,1.44-4.88.96-1.33,2.27-2.33,3.92-3,1.68-.69,3.55-1.04,5.6-1.04,1.39,0,2.75.16,4.08.48,1.33.32,2.51.8,3.52,1.44l-2.88,4.48c-.43-1.25-1.05-2.16-1.88-2.72-.83-.59-1.76-.88-2.8-.88-1.36,0-2.44.43-3.24,1.28-.8.83-1.2,2.13-1.2,3.92v12.56c0,1.31.09,2.28.28,2.92.19.64.49,1.08.92,1.32.43.24,1.01.4,1.76.48.13.37.21.81.24,1.32.05.48.08.96.08,1.44-.72-.05-1.61-.09-2.68-.12h-7.12c-1.17.03-2.17.07-3,.12ZM136.8,385.08v-3.4h9.12v3.4c-.77-.27-1.56-.45-2.36-.56-.77-.11-1.52-.16-2.24-.16-.88,0-1.68.07-2.4.2-.69.11-1.4.28-2.12.52ZM188.42,397.56c-.69.77-1.64,1.37-2.84,1.8-1.17.4-2.51.6-4,.6-1.97,0-3.72-.35-5.24-1.04-1.49-.69-2.67-1.73-3.52-3.12-.83-1.39-1.24-3.15-1.24-5.28,0-1.6.36-3.13,1.08-4.6.72-1.47,1.79-2.67,3.2-3.6,1.44-.93,3.23-1.4,5.36-1.4,1.52,0,2.83.15,3.92.44,1.12.27,2.12.67,3,1.2-.16.75-.28,1.52-.36,2.32-.05.8-.08,1.72-.08,2.76-.51.21-1.09.37-1.76.48-.64.08-1.25.12-1.84.12-.05-1.55-.33-2.71-.84-3.48-.51-.8-1.16-1.2-1.96-1.2-1.04,0-1.84.6-2.4,1.8-.53,1.17-.8,2.71-.8,4.6,0,1.09.17,2.16.52,3.2.37,1.01.95,1.85,1.72,2.52.77.64,1.79.96,3.04.96.85,0,1.63-.11,2.32-.32.69-.24,1.29-.56,1.8-.96.27.24.48.56.64.96.19.37.28.79.28,1.24ZM204.17,399.96c-.51-.19-.87-.47-1.08-.84-.21-.37-.32-.87-.32-1.48,0-.35.04-.76.12-1.24.08-.51.2-.99.36-1.44l.16-.16c-.24.83-.55,1.55-.92,2.16-.37.59-.81,1.08-1.32,1.48-.56.48-1.24.84-2.04,1.08-.8.24-1.72.36-2.76.36-1.84,0-3.28-.39-4.32-1.16-1.04-.77-1.56-1.91-1.56-3.4,0-1.01.23-1.88.68-2.6.48-.75,1.12-1.37,1.92-1.88.83-.53,1.73-.96,2.72-1.28,1.01-.32,2.05-.57,3.12-.76,1.09-.21,2.16-.4,3.2-.56,0-.64-.03-1.2-.08-1.68-.03-.48-.11-.89-.24-1.24-.11-.37-.29-.69-.56-.96-.29-.35-.64-.59-1.04-.72-.37-.13-.75-.2-1.12-.2-.67,0-1.21.2-1.64.6-.43.4-.75.95-.96,1.64-.21.67-.36,1.4-.44,2.2-.77,0-1.47-.03-2.08-.08-.61-.05-1.17-.19-1.68-.4.05-.75.07-1.53.04-2.36-.03-.83-.13-1.69-.32-2.6,1.15-.48,2.49-.85,4.04-1.12,1.55-.29,3.03-.44,4.44-.44,1.76,0,3.15.2,4.16.6,1.01.37,1.77.81,2.28,1.32.53.53.96,1.29,1.28,2.28.35.96.52,2.39.52,4.28v3.08c0,.91.05,1.6.16,2.08.11.48.32.81.64,1,.35.16.84.25,1.48.28.08.51.09,1,.04,1.48-.05.48-.19.93-.4,1.36-1.09.03-2.2.15-3.32.36-1.12.21-2.17.53-3.16.96ZM198.73,396.08c.53,0,1.05-.16,1.56-.48.53-.35.97-.87,1.32-1.56.35-.69.52-1.55.52-2.56v-.92c-.83.16-1.57.35-2.24.56-.64.21-1.17.45-1.6.72-.43.27-.75.59-.96.96-.21.37-.32.81-.32,1.32,0,.69.16,1.2.48,1.52.35.29.76.44,1.24.44ZM230.07,397.56c-.69.77-1.64,1.37-2.84,1.8-1.17.4-2.51.6-4,.6-1.97,0-3.72-.35-5.24-1.04-1.49-.69-2.67-1.73-3.52-3.12-.83-1.39-1.24-3.15-1.24-5.28,0-1.6.36-3.13,1.08-4.6.72-1.47,1.79-2.67,3.2-3.6,1.44-.93,3.23-1.4,5.36-1.4,1.52,0,2.83.15,3.92.44,1.12.27,2.12.67,3,1.2-.16.75-.28,1.52-.36,2.32-.05.8-.08,1.72-.08,2.76-.51.21-1.09.37-1.76.48-.64.08-1.25.12-1.84.12-.05-1.55-.33-2.71-.84-3.48-.51-.8-1.16-1.2-1.96-1.2-1.04,0-1.84.6-2.4,1.8-.53,1.17-.8,2.71-.8,4.6,0,1.09.17,2.16.52,3.2.37,1.01.95,1.85,1.72,2.52.77.64,1.79.96,3.04.96.85,0,1.63-.11,2.32-.32.69-.24,1.29-.56,1.8-.96.27.24.48.56.64.96.19.37.28.79.28,1.24ZM242.33,399.96c-2.4,0-4.35-.41-5.84-1.24-1.47-.83-2.55-1.95-3.24-3.36-.69-1.41-1.04-3-1.04-4.76,0-1.97.39-3.68,1.16-5.12.77-1.44,1.89-2.56,3.36-3.36,1.47-.8,3.19-1.2,5.16-1.2s3.6.37,4.88,1.12c1.28.72,2.23,1.73,2.84,3.04.64,1.28.99,2.77,1.04,4.48-.21.88-.6,1.59-1.16,2.12h-2.64c-.99,0-2.03.01-3.12.04-1.07,0-2.16.03-3.28.08-1.09.05-2.15.12-3.16.2v-2.88h7.36c0-1.81-.24-3.19-.72-4.12-.45-.93-1.15-1.4-2.08-1.4-.61,0-1.16.23-1.64.68-.45.43-.8,1.08-1.04,1.96-.24.85-.36,1.92-.36,3.2,0,1.39.17,2.63.52,3.72.35,1.09.92,1.95,1.72,2.56s1.88.92,3.24.92c.93,0,1.87-.16,2.8-.48s1.71-.73,2.32-1.24c.27.16.51.48.72.96.21.45.32.92.32,1.4-1.04.88-2.23,1.55-3.56,2-1.31.45-2.83.68-4.56.68ZM253.3,399.72c0-.51.03-.99.08-1.44.05-.48.15-.91.28-1.28,1.09-.08,1.8-.35,2.12-.8.32-.48.48-1.39.48-2.72v-4.8c0-.99-.05-1.73-.16-2.24-.11-.51-.37-.88-.8-1.12-.4-.24-1.04-.39-1.92-.44,0-.45.03-.89.08-1.32.08-.45.21-.89.4-1.32.96,0,1.93-.05,2.92-.16.99-.13,1.91-.29,2.76-.48.85-.21,1.53-.44,2.04-.68.32.11.6.35.84.72.24.37.36.91.36,1.6,0,.48-.07,1-.2,1.56-.11.53-.32,1.41-.64,2.64h-.24c.51-1.31.91-2.24,1.2-2.8.29-.56.57-.97.84-1.24.59-.67,1.36-1.24,2.32-1.72.96-.48,2.01-.72,3.16-.72,1.28,0,2.41.28,3.4.84,1.01.53,1.79,1.31,2.32,2.32.35.61.52,1.24.52,1.88h-.2c.48-1.25,1.01-2.15,1.6-2.68.59-.59,1.31-1.08,2.16-1.48.85-.43,1.83-.64,2.92-.64,1.41,0,2.6.24,3.56.72.99.45,1.73,1.19,2.24,2.2.53.99.8,2.32.8,4v3.92c0,1.44.04,2.51.12,3.2.11.67.29,1.11.56,1.32.27.21.68.35,1.24.4.13.4.21.84.24,1.32.05.45.08.93.08,1.44-.67-.05-1.47-.09-2.4-.12h-4.96c-.75.03-1.47.04-2.16.04-.69.03-1.28.05-1.76.08,0-.59.01-1.08.04-1.48.05-.43.13-.85.24-1.28.53-.03.96-.16,1.28-.4.32-.24.55-.69.68-1.36.13-.67.2-1.61.2-2.84v-2.92c0-1.65-.23-2.76-.68-3.32-.45-.59-1.05-.88-1.8-.88s-1.41.24-2,.72c-.56.48-1,1.2-1.32,2.16-.29.93-.44,2.08-.44,3.44v1.72c0,1.39.15,2.33.44,2.84.29.51.88.79,1.76.84.11.35.19.77.24,1.28.05.48.08.97.08,1.48-.61-.05-1.47-.09-2.56-.12h-6.4c-1.07.03-1.96.07-2.68.12,0-.51.03-1,.08-1.48.08-.51.17-.93.28-1.28.61-.05,1.08-.19,1.4-.4.32-.24.53-.69.64-1.36.13-.69.2-1.75.2-3.16v-2.96c0-1.49-.23-2.52-.68-3.08-.45-.56-1.13-.84-2.04-.84-.67,0-1.28.27-1.84.8-.53.53-.97,1.28-1.32,2.24-.32.96-.48,2.05-.48,3.28v1.8c0,1.44.15,2.4.44,2.88.29.48.87.75,1.72.8.13.37.23.8.28,1.28.05.48.08.97.08,1.48-.43-.05-1.01-.09-1.76-.12h-8.68c-.67.03-1.2.07-1.6.12ZM302.6,399.96c-2.4,0-4.35-.41-5.84-1.24-1.47-.83-2.55-1.95-3.24-3.36-.69-1.41-1.04-3-1.04-4.76,0-1.97.39-3.68,1.16-5.12.77-1.44,1.89-2.56,3.36-3.36,1.47-.8,3.19-1.2,5.16-1.2s3.6.37,4.88,1.12c1.28.72,2.23,1.73,2.84,3.04.64,1.28.99,2.77,1.04,4.48-.21.88-.6,1.59-1.16,2.12h-2.64c-.99,0-2.03.01-3.12.04-1.07,0-2.16.03-3.28.08-1.09.05-2.15.12-3.16.2v-2.88h7.36c0-1.81-.24-3.19-.72-4.12-.45-.93-1.15-1.4-2.08-1.4-.61,0-1.16.23-1.64.68-.45.43-.8,1.08-1.04,1.96-.24.85-.36,1.92-.36,3.2,0,1.39.17,2.63.52,3.72.35,1.09.92,1.95,1.72,2.56s1.88.92,3.24.92c.93,0,1.87-.16,2.8-.48.93-.32,1.71-.73,2.32-1.24.27.16.51.48.72.96.21.45.32.92.32,1.4-1.04.88-2.23,1.55-3.56,2-1.31.45-2.83.68-4.56.68ZM316.54,391.32v-3.08c0-.83-.05-1.47-.16-1.92s-.37-.79-.8-1c-.4-.24-1.04-.39-1.92-.44,0-.45.03-.91.08-1.36.08-.48.21-.91.4-1.28,1.68,0,3.23-.13,4.64-.4,1.44-.29,2.48-.6,3.12-.92.4.16.71.43.92.8.21.37.32.89.32,1.56l-6.6,8.04ZM336.18,393.48c0,1.33.13,2.25.4,2.76.27.48.76.72,1.48.72.16.37.25.79.28,1.24.05.43.08.93.08,1.52-.59-.03-1.39-.05-2.4-.08-.99-.03-1.93-.04-2.84-.04h-2.12c-.8.03-1.56.04-2.28.04-.72.03-1.28.05-1.68.08,0-.51.01-.99.04-1.44.05-.48.16-.92.32-1.32.67,0,1.19-.27,1.56-.8.37-.56.56-1.56.56-3v-3.6c0-1.63-.24-2.75-.72-3.36-.48-.64-1.17-.96-2.08-.96-.64,0-1.24.25-1.8.76-.56.51-1.01,1.23-1.36,2.16-.32.93-.48,2.07-.48,3.4v1.92c0,1.36.17,2.28.52,2.76.35.48.87.72,1.56.72.19.43.29.85.32,1.28.05.43.08.92.08,1.48-.4-.03-.93-.05-1.6-.08-.67,0-1.37-.01-2.12-.04h-4.2c-.83.03-1.63.04-2.4.04-.75.03-1.32.05-1.72.08,0-.56.03-1.08.08-1.56.08-.48.17-.88.28-1.2,1.04,0,1.73-.24,2.08-.72.35-.51.52-1.43.52-2.76v-5.24l6.6-4.96c0,.32-.04.69-.12,1.12-.08.4-.19.83-.32,1.28.19-.43.37-.83.56-1.2.21-.37.47-.72.76-1.04.59-.64,1.35-1.19,2.28-1.64.96-.45,2.03-.68,3.2-.68s2.27.21,3.28.64,1.83,1.12,2.44,2.08c.64.96.96,2.23.96,3.8v5.84ZM348.57,399.96c-1.97,0-3.47-.51-4.48-1.52-1.01-1.04-1.52-2.79-1.52-5.24v-8.24c-.43-.16-.88-.28-1.36-.36-.45-.08-.99-.12-1.6-.12,0-.53.03-1.01.08-1.44.08-.45.23-.91.44-1.36h2.44v-4.76c1.04-.13,2.05-.4,3.04-.8,1.01-.4,1.83-.84,2.44-1.32.43.16.72.41.88.76.16.35.24.96.24,1.84v4.28h4.8c0,.59-.04,1.11-.12,1.56-.05.43-.15.85-.28,1.28-.85,0-1.65.07-2.4.2-.72.11-1.39.27-2,.48v7.4c0,1.15.07,2.03.2,2.64.13.59.35,1,.64,1.24.29.21.67.32,1.12.32.4,0,.8-.04,1.2-.12.43-.11.83-.25,1.2-.44.37.53.57,1.28.6,2.24-.56.43-1.36.79-2.4,1.08-1.01.27-2.07.4-3.16.4Z"/>
  </g>
</svg>