<svg width="252" height="227" viewBox="0 0 252 227" fill="none" xmlns="http://www.w3.org/2000/svg">
<circle cx="138" cy="103.5" r="103" fill="#D4EBFF"/>
<g filter="url(#filter0_d_502_3107)">
<path d="M119.09 63.18C132.947 63.18 144.18 51.9468 144.18 38.09C144.18 24.2332 132.947 13 119.09 13C105.233 13 94 24.2332 94 38.09C94 51.9468 105.233 63.18 119.09 63.18Z" fill="url(#paint0_radial_502_3107)"/>
</g>
<g filter="url(#filter1_d_502_3107)">
<path d="M106.09 179.18C119.947 179.18 131.18 167.947 131.18 154.09C131.18 140.233 119.947 129 106.09 129C92.2332 129 81 140.233 81 154.09C81 167.947 92.2332 179.18 106.09 179.18Z" fill="url(#paint1_radial_502_3107)"/>
</g>
<g filter="url(#filter2_d_502_3107)">
<path d="M203.09 211.18C216.947 211.18 228.18 199.947 228.18 186.09C228.18 172.233 216.947 161 203.09 161C189.233 161 178 172.233 178 186.09C178 199.947 189.233 211.18 203.09 211.18Z" fill="url(#paint2_radial_502_3107)"/>
</g>
<g filter="url(#filter3_d_502_3107)">
<path d="M38.09 113.18C51.9468 113.18 63.18 101.947 63.18 88.09C63.18 74.2332 51.9468 63 38.09 63C24.2332 63 13 74.2332 13 88.09C13 101.947 24.2332 113.18 38.09 113.18Z" fill="url(#paint3_radial_502_3107)"/>
</g>
<g filter="url(#filter4_d_502_3107)">
<path d="M194.09 56.18C207.947 56.18 219.18 44.9468 219.18 31.09C219.18 17.2332 207.947 6 194.09 6C180.233 6 169 17.2332 169 31.09C169 44.9468 180.233 56.18 194.09 56.18Z" fill="url(#paint4_radial_502_3107)"/>
</g>
<g filter="url(#filter5_d_502_3107)">
<path d="M84.112 94.556C84.56 94.556 84.976 94.588 85.36 94.652C85.7653 94.716 86.1813 94.8013 86.608 94.908V98.108C86.2667 97.6387 85.8933 97.276 85.488 97.02C85.104 96.764 84.6347 96.636 84.08 96.636C83.696 96.636 83.2907 96.7107 82.864 96.86C82.4373 97.0093 82.032 97.2867 81.648 97.692C81.2853 98.0973 80.9867 98.684 80.752 99.452C80.5173 100.199 80.4 101.169 80.4 102.364C80.4 103.217 80.496 103.996 80.688 104.7C80.9013 105.383 81.2107 105.927 81.616 106.332C82.0427 106.737 82.5653 106.94 83.184 106.94C83.696 106.94 84.1867 106.78 84.656 106.46C85.1253 106.119 85.52 105.575 85.84 104.828C86.16 104.06 86.32 103.047 86.32 101.788L87.696 105.02C87.312 105.916 86.9493 106.62 86.608 107.132C86.288 107.623 85.9573 107.996 85.616 108.252C85.3813 108.487 85.0507 108.721 84.624 108.956C84.2187 109.191 83.7387 109.383 83.184 109.532C82.6507 109.703 82.0747 109.788 81.456 109.788C80.24 109.788 79.1413 109.564 78.16 109.116C77.2 108.647 76.4427 107.921 75.888 106.94C75.3333 105.959 75.056 104.7 75.056 103.164C75.056 101.457 75.4293 99.964 76.176 98.684C76.9227 97.3827 77.9787 96.3693 79.344 95.644C80.7093 94.9187 82.2987 94.556 84.112 94.556ZM91.568 103.708C91.568 104.455 91.6107 105.031 91.696 105.436C91.7813 105.82 91.952 106.087 92.208 106.236C92.4853 106.364 92.8907 106.439 93.424 106.46C93.488 106.865 93.488 107.26 93.424 107.644C93.3813 108.028 93.2747 108.391 93.104 108.732C92.2293 108.753 91.3333 108.849 90.416 109.02C89.52 109.191 88.6773 109.447 87.888 109.788C87.4827 109.639 87.1947 109.425 87.024 109.148C86.8533 108.849 86.768 108.455 86.768 107.964C86.768 107.537 86.8213 107.1 86.928 106.652C87.0347 106.183 87.1733 105.692 87.344 105.18L91.568 103.708ZM91.568 91.292V105.308H86.32V91.292H91.568ZM90.544 86.556C90.864 86.684 91.1093 86.8973 91.28 87.196C91.472 87.4947 91.568 87.9 91.568 88.412V92.316H86.32V91.964C86.32 91.4733 86.256 91.068 86.128 90.748C86 90.428 85.7653 90.1933 85.424 90.044C85.0827 89.8733 84.5813 89.7667 83.92 89.724C83.92 89.3613 83.9413 88.9987 83.984 88.636C84.048 88.252 84.1547 87.9107 84.304 87.612C85.1787 87.612 86.032 87.5587 86.864 87.452C87.696 87.3453 88.432 87.2173 89.072 87.068C89.7333 86.8973 90.224 86.7267 90.544 86.556ZM95.1497 109.596C95.1497 109.148 95.1711 108.743 95.2138 108.38C95.2564 107.996 95.3204 107.665 95.4058 107.388C96.2591 107.345 96.8244 107.143 97.1018 106.78C97.3791 106.396 97.5178 105.671 97.5178 104.604V99.964C97.5178 99.4733 97.4538 99.068 97.3258 98.748C97.2191 98.428 96.9951 98.1933 96.6538 98.044C96.3124 97.8733 95.8111 97.7667 95.1497 97.724C95.1497 97.3613 95.1711 96.9987 95.2138 96.636C95.2778 96.252 95.3844 95.9107 95.5338 95.612C96.4084 95.612 97.2618 95.5587 98.0938 95.452C98.9258 95.3453 99.6618 95.2173 100.302 95.068C100.963 94.8973 101.454 94.7267 101.774 94.556C102.094 94.684 102.339 94.8973 102.51 95.196C102.702 95.4947 102.798 95.9 102.798 96.412V104.604C102.798 105.671 102.936 106.396 103.214 106.78C103.491 107.143 104.035 107.345 104.846 107.388C104.931 107.665 104.984 107.996 105.006 108.38C105.048 108.764 105.07 109.169 105.07 109.596C104.792 109.575 104.387 109.553 103.854 109.532C103.32 109.532 102.723 109.521 102.062 109.5C101.422 109.5 100.771 109.5 100.11 109.5C99.4698 109.5 98.8191 109.5 98.1578 109.5C97.4964 109.521 96.8991 109.532 96.3658 109.532C95.8538 109.553 95.4484 109.575 95.1497 109.596ZM99.7258 92.476C98.8511 92.476 98.1471 92.2627 97.6138 91.836C97.0804 91.388 96.8138 90.8013 96.8138 90.076C96.8138 89.244 97.1018 88.604 97.6778 88.156C98.2751 87.6867 99.0111 87.452 99.8858 87.452C100.888 87.452 101.646 87.676 102.158 88.124C102.691 88.572 102.958 89.212 102.958 90.044C102.958 90.748 102.67 91.3347 102.094 91.804C101.518 92.252 100.728 92.476 99.7258 92.476ZM119.022 95.548C119 96.1027 118.99 96.6787 118.99 97.276C119.011 97.852 119.064 98.4173 119.15 98.972C118.83 99.1427 118.414 99.292 117.902 99.42C117.411 99.548 116.91 99.612 116.398 99.612C116.334 99.0787 116.184 98.5987 115.95 98.172C115.736 97.724 115.427 97.372 115.022 97.116C114.638 96.86 114.136 96.732 113.518 96.732C113.091 96.732 112.75 96.8493 112.494 97.084C112.259 97.2973 112.142 97.5853 112.142 97.948C112.142 98.204 112.206 98.4493 112.334 98.684C112.483 98.9187 112.792 99.1853 113.262 99.484C113.752 99.7613 114.499 100.113 115.502 100.54C116.718 101.031 117.667 101.5 118.35 101.948C119.054 102.396 119.555 102.876 119.854 103.388C120.152 103.9 120.302 104.519 120.302 105.244C120.302 106.204 120.014 107.025 119.438 107.708C118.883 108.391 118.083 108.913 117.038 109.276C115.992 109.617 114.734 109.788 113.262 109.788C111.918 109.788 110.798 109.692 109.902 109.5C109.006 109.308 108.131 109.041 107.278 108.7C107.342 108.273 107.384 107.825 107.406 107.356C107.427 106.865 107.427 106.396 107.406 105.948C107.406 105.479 107.384 105.073 107.342 104.732C107.662 104.519 108.088 104.369 108.622 104.284C109.176 104.177 109.688 104.124 110.158 104.124C110.286 105.233 110.606 106.076 111.118 106.652C111.651 107.207 112.302 107.484 113.07 107.484C113.603 107.484 114.04 107.367 114.382 107.132C114.744 106.897 114.926 106.556 114.926 106.108C114.926 105.788 114.84 105.511 114.67 105.276C114.52 105.02 114.232 104.775 113.806 104.54C113.4 104.284 112.792 104.007 111.982 103.708C111.043 103.345 110.232 102.961 109.55 102.556C108.867 102.151 108.334 101.649 107.95 101.052C107.587 100.455 107.406 99.6867 107.406 98.748C107.406 98.0227 107.555 97.404 107.854 96.892C108.174 96.3587 108.622 95.9213 109.198 95.58C109.774 95.2387 110.435 94.9827 111.182 94.812C111.95 94.6413 112.771 94.556 113.646 94.556C114.84 94.556 115.854 94.6413 116.686 94.812C117.518 94.9613 118.296 95.2067 119.022 95.548ZM135.841 107.868C135.286 108.487 134.529 108.967 133.569 109.308C132.63 109.628 131.563 109.788 130.369 109.788C128.79 109.788 127.393 109.511 126.177 108.956C124.982 108.401 124.043 107.569 123.361 106.46C122.699 105.351 122.368 103.943 122.368 102.236C122.368 100.956 122.657 99.7293 123.233 98.556C123.809 97.3827 124.662 96.4227 125.793 95.676C126.945 94.9293 128.374 94.556 130.081 94.556C131.297 94.556 132.342 94.6733 133.217 94.908C134.113 95.1213 134.913 95.4413 135.617 95.868C135.489 96.4653 135.393 97.084 135.329 97.724C135.286 98.364 135.265 99.1 135.265 99.932C134.859 100.103 134.39 100.231 133.857 100.316C133.345 100.38 132.854 100.412 132.385 100.412C132.342 99.1747 132.118 98.2467 131.713 97.628C131.307 96.988 130.785 96.668 130.145 96.668C129.313 96.668 128.673 97.148 128.225 98.108C127.798 99.0467 127.585 100.273 127.585 101.788C127.585 102.663 127.723 103.516 128.001 104.348C128.299 105.159 128.758 105.831 129.377 106.364C129.995 106.876 130.806 107.132 131.809 107.132C132.491 107.132 133.11 107.047 133.665 106.876C134.219 106.684 134.699 106.428 135.105 106.108C135.318 106.3 135.489 106.556 135.617 106.876C135.766 107.175 135.841 107.505 135.841 107.868ZM145.204 103.612C145.204 104.529 145.3 105.255 145.492 105.788C145.705 106.3 146.047 106.684 146.516 106.94C147.007 107.175 147.679 107.324 148.532 107.388C148.639 107.687 148.703 108.039 148.724 108.444C148.767 108.828 148.788 109.212 148.788 109.596C148.404 109.575 147.913 109.553 147.316 109.532C146.719 109.532 146.079 109.521 145.396 109.5C144.735 109.5 144.084 109.5 143.444 109.5C142.399 109.5 141.321 109.5 140.212 109.5C139.103 109.521 138.217 109.553 137.556 109.596C137.556 109.084 137.567 108.657 137.588 108.316C137.631 107.953 137.695 107.644 137.78 107.388C138.356 107.345 138.793 107.239 139.092 107.068C139.412 106.876 139.625 106.545 139.732 106.076C139.86 105.607 139.924 104.913 139.924 103.996V102.236H145.204V103.612ZM145.204 100.06V102.876H139.924V99.42L145.204 96.444C145.204 96.8707 145.14 97.3507 145.012 97.884C144.905 98.4173 144.756 99.0893 144.564 99.9L145.204 100.06ZM144.5 99.996C144.649 99.5693 144.82 99.0893 145.012 98.556C145.204 98.0013 145.375 97.596 145.524 97.34C145.993 96.5933 146.58 95.9747 147.284 95.484C147.988 94.9933 148.767 94.748 149.62 94.748C150.452 94.748 151.22 95.004 151.924 95.516C151.86 95.964 151.796 96.4867 151.732 97.084C151.668 97.6813 151.625 98.2893 151.604 98.908C151.604 99.5053 151.615 100.049 151.636 100.54C151.273 100.689 150.793 100.796 150.196 100.86C149.599 100.903 149.087 100.924 148.66 100.924C148.617 100.156 148.489 99.612 148.276 99.292C148.063 98.9507 147.743 98.78 147.316 98.78C147.017 98.78 146.697 98.9613 146.356 99.324C146.036 99.6867 145.759 100.156 145.524 100.732C145.311 101.287 145.204 101.884 145.204 102.524L144.5 99.996ZM139.924 102.876V100.412C139.924 99.7507 139.881 99.2387 139.796 98.876C139.711 98.5133 139.497 98.2467 139.156 98.076C138.836 97.884 138.324 97.7667 137.62 97.724C137.62 97.3613 137.641 96.9987 137.684 96.636C137.748 96.252 137.855 95.9107 138.004 95.612C139.348 95.612 140.585 95.5053 141.716 95.292C142.868 95.0573 143.7 94.812 144.212 94.556C144.532 94.684 144.777 94.8973 144.948 95.196C145.119 95.4947 145.204 95.9107 145.204 96.444L139.924 102.876ZM161.621 109.788C159.701 109.788 158.143 109.457 156.949 108.796C155.775 108.135 154.911 107.239 154.357 106.108C153.802 104.977 153.525 103.708 153.525 102.3C153.525 100.721 153.834 99.356 154.453 98.204C155.071 97.052 155.967 96.156 157.141 95.516C158.314 94.876 159.69 94.556 161.269 94.556C162.847 94.556 164.149 94.8547 165.173 95.452C166.197 96.028 166.954 96.8387 167.445 97.884C167.957 98.908 168.234 100.103 168.277 101.468C168.106 102.172 167.797 102.737 167.349 103.164C166.73 103.164 166.026 103.164 165.237 103.164C164.447 103.164 163.615 103.175 162.741 103.196C161.887 103.196 161.013 103.217 160.117 103.26C159.242 103.303 158.399 103.356 157.589 103.42V101.116H163.477C163.477 99.6653 163.285 98.5667 162.901 97.82C162.538 97.0733 161.983 96.7 161.237 96.7C160.746 96.7 160.309 96.8813 159.925 97.244C159.562 97.5853 159.285 98.108 159.093 98.812C158.901 99.4947 158.805 100.348 158.805 101.372C158.805 102.481 158.943 103.473 159.221 104.348C159.498 105.223 159.957 105.905 160.597 106.396C161.237 106.887 162.101 107.132 163.189 107.132C163.935 107.132 164.682 107.004 165.429 106.748C166.175 106.492 166.794 106.161 167.285 105.756C167.498 105.884 167.69 106.14 167.861 106.524C168.031 106.887 168.117 107.26 168.117 107.644C167.285 108.348 166.335 108.881 165.269 109.244C164.223 109.607 163.007 109.788 161.621 109.788ZM160.533 92.412C159.893 91.516 159.263 90.6733 158.645 89.884C158.026 89.0733 157.269 88.252 156.373 87.42C157.055 87.1213 157.802 86.908 158.613 86.78C159.423 86.6307 160.245 86.5667 161.077 86.588C161.311 87.42 161.621 88.316 162.005 89.276C162.41 90.236 162.837 91.1427 163.285 91.996C162.943 92.1453 162.549 92.2627 162.101 92.348C161.674 92.412 161.151 92.4333 160.533 92.412ZM176.8 109.788C175.221 109.788 174.026 109.383 173.216 108.572C172.405 107.74 172 106.343 172 104.38V97.788C171.658 97.66 171.296 97.564 170.912 97.5C170.549 97.436 170.122 97.404 169.632 97.404C169.632 96.9773 169.653 96.5933 169.696 96.252C169.76 95.8893 169.877 95.5267 170.048 95.164H172V91.356C172.832 91.2493 173.642 91.036 174.432 90.716C175.242 90.396 175.893 90.044 176.384 89.66C176.725 89.788 176.96 89.9907 177.088 90.268C177.216 90.5453 177.28 91.036 177.28 91.74V95.164H181.12C181.12 95.6333 181.088 96.0493 181.024 96.412C180.981 96.7533 180.906 97.0947 180.8 97.436C180.117 97.436 179.477 97.4893 178.88 97.596C178.304 97.6813 177.77 97.8093 177.28 97.98V103.9C177.28 104.817 177.333 105.521 177.44 106.012C177.546 106.481 177.717 106.812 177.952 107.004C178.186 107.175 178.485 107.26 178.848 107.26C179.168 107.26 179.488 107.228 179.808 107.164C180.149 107.079 180.469 106.961 180.768 106.812C181.066 107.239 181.226 107.836 181.248 108.604C180.8 108.945 180.16 109.233 179.328 109.468C178.517 109.681 177.674 109.788 176.8 109.788ZM190.808 109.788C188.888 109.788 187.331 109.457 186.136 108.796C184.963 108.135 184.099 107.239 183.544 106.108C182.99 104.977 182.712 103.708 182.712 102.3C182.712 100.721 183.022 99.356 183.64 98.204C184.259 97.052 185.155 96.156 186.328 95.516C187.502 94.876 188.878 94.556 190.456 94.556C192.035 94.556 193.336 94.8547 194.36 95.452C195.384 96.028 196.142 96.8387 196.632 97.884C197.144 98.908 197.422 100.103 197.464 101.468C197.294 102.172 196.984 102.737 196.536 103.164C195.918 103.164 195.214 103.164 194.424 103.164C193.635 103.164 192.803 103.175 191.928 103.196C191.075 103.196 190.2 103.217 189.304 103.26C188.43 103.303 187.587 103.356 186.776 103.42V101.116H192.664C192.664 99.6653 192.472 98.5667 192.088 97.82C191.726 97.0733 191.171 96.7 190.424 96.7C189.934 96.7 189.496 96.8813 189.112 97.244C188.75 97.5853 188.472 98.108 188.28 98.812C188.088 99.4947 187.992 100.348 187.992 101.372C187.992 102.481 188.131 103.473 188.408 104.348C188.686 105.223 189.144 105.905 189.784 106.396C190.424 106.887 191.288 107.132 192.376 107.132C193.123 107.132 193.87 107.004 194.616 106.748C195.363 106.492 195.982 106.161 196.472 105.756C196.686 105.884 196.878 106.14 197.048 106.524C197.219 106.887 197.304 107.26 197.304 107.644C196.472 108.348 195.523 108.881 194.456 109.244C193.411 109.607 192.195 109.788 190.808 109.788Z" fill="#5A1F06"/>
</g>
<g filter="url(#filter6_d_502_3107)">
<path d="M219.09 128.18C232.947 128.18 244.18 116.947 244.18 103.09C244.18 89.2332 232.947 78 219.09 78C205.233 78 194 89.2332 194 103.09C194 116.947 205.233 128.18 219.09 128.18Z" fill="url(#paint5_radial_502_3107)"/>
</g>
<defs>
<filter id="filter0_d_502_3107" x="81" y="8.67" width="70.1802" height="70.1799" filterUnits="userSpaceOnUse" color-interpolation-filters="sRGB">
<feFlood flood-opacity="0" result="BackgroundImageFix"/>
<feColorMatrix in="SourceAlpha" type="matrix" values="0 0 0 0 0 0 0 0 0 0 0 0 0 0 0 0 0 0 127 0" result="hardAlpha"/>
<feOffset dx="-3" dy="5.67"/>
<feGaussianBlur stdDeviation="5"/>
<feColorMatrix type="matrix" values="0 0 0 0 0.113725 0 0 0 0 0.113725 0 0 0 0 0.105882 0 0 0 0.5 0"/>
<feBlend mode="normal" in2="BackgroundImageFix" result="effect1_dropShadow_502_3107"/>
<feBlend mode="normal" in="SourceGraphic" in2="effect1_dropShadow_502_3107" result="shape"/>
</filter>
<filter id="filter1_d_502_3107" x="68" y="124.67" width="70.1802" height="70.1801" filterUnits="userSpaceOnUse" color-interpolation-filters="sRGB">
<feFlood flood-opacity="0" result="BackgroundImageFix"/>
<feColorMatrix in="SourceAlpha" type="matrix" values="0 0 0 0 0 0 0 0 0 0 0 0 0 0 0 0 0 0 127 0" result="hardAlpha"/>
<feOffset dx="-3" dy="5.67"/>
<feGaussianBlur stdDeviation="5"/>
<feColorMatrix type="matrix" values="0 0 0 0 0.113725 0 0 0 0 0.113725 0 0 0 0 0.105882 0 0 0 0.5 0"/>
<feBlend mode="normal" in2="BackgroundImageFix" result="effect1_dropShadow_502_3107"/>
<feBlend mode="normal" in="SourceGraphic" in2="effect1_dropShadow_502_3107" result="shape"/>
</filter>
<filter id="filter2_d_502_3107" x="165" y="156.67" width="70.1802" height="70.1801" filterUnits="userSpaceOnUse" color-interpolation-filters="sRGB">
<feFlood flood-opacity="0" result="BackgroundImageFix"/>
<feColorMatrix in="SourceAlpha" type="matrix" values="0 0 0 0 0 0 0 0 0 0 0 0 0 0 0 0 0 0 127 0" result="hardAlpha"/>
<feOffset dx="-3" dy="5.67"/>
<feGaussianBlur stdDeviation="5"/>
<feColorMatrix type="matrix" values="0 0 0 0 0.113725 0 0 0 0 0.113725 0 0 0 0 0.105882 0 0 0 0.5 0"/>
<feBlend mode="normal" in2="BackgroundImageFix" result="effect1_dropShadow_502_3107"/>
<feBlend mode="normal" in="SourceGraphic" in2="effect1_dropShadow_502_3107" result="shape"/>
</filter>
<filter id="filter3_d_502_3107" x="0" y="58.67" width="70.1802" height="70.1801" filterUnits="userSpaceOnUse" color-interpolation-filters="sRGB">
<feFlood flood-opacity="0" result="BackgroundImageFix"/>
<feColorMatrix in="SourceAlpha" type="matrix" values="0 0 0 0 0 0 0 0 0 0 0 0 0 0 0 0 0 0 127 0" result="hardAlpha"/>
<feOffset dx="-3" dy="5.67"/>
<feGaussianBlur stdDeviation="5"/>
<feColorMatrix type="matrix" values="0 0 0 0 0.113725 0 0 0 0 0.113725 0 0 0 0 0.105882 0 0 0 0.5 0"/>
<feBlend mode="normal" in2="BackgroundImageFix" result="effect1_dropShadow_502_3107"/>
<feBlend mode="normal" in="SourceGraphic" in2="effect1_dropShadow_502_3107" result="shape"/>
</filter>
<filter id="filter4_d_502_3107" x="156" y="1.67" width="70.1802" height="70.1799" filterUnits="userSpaceOnUse" color-interpolation-filters="sRGB">
<feFlood flood-opacity="0" result="BackgroundImageFix"/>
<feColorMatrix in="SourceAlpha" type="matrix" values="0 0 0 0 0 0 0 0 0 0 0 0 0 0 0 0 0 0 127 0" result="hardAlpha"/>
<feOffset dx="-3" dy="5.67"/>
<feGaussianBlur stdDeviation="5"/>
<feColorMatrix type="matrix" values="0 0 0 0 0.113725 0 0 0 0 0.113725 0 0 0 0 0.105882 0 0 0 0.5 0"/>
<feBlend mode="normal" in2="BackgroundImageFix" result="effect1_dropShadow_502_3107"/>
<feBlend mode="normal" in="SourceGraphic" in2="effect1_dropShadow_502_3107" result="shape"/>
</filter>
<filter id="filter5_d_502_3107" x="70.3562" y="85.8559" width="131.808" height="32.6321" filterUnits="userSpaceOnUse" color-interpolation-filters="sRGB">
<feFlood flood-opacity="0" result="BackgroundImageFix"/>
<feColorMatrix in="SourceAlpha" type="matrix" values="0 0 0 0 0 0 0 0 0 0 0 0 0 0 0 0 0 0 127 0" result="hardAlpha"/>
<feOffset dy="4"/>
<feGaussianBlur stdDeviation="2.35"/>
<feComposite in2="hardAlpha" operator="out"/>
<feColorMatrix type="matrix" values="0 0 0 0 0 0 0 0 0 0 0 0 0 0 0 0 0 0 0.3 0"/>
<feBlend mode="normal" in2="BackgroundImageFix" result="effect1_dropShadow_502_3107"/>
<feBlend mode="normal" in="SourceGraphic" in2="effect1_dropShadow_502_3107" result="shape"/>
</filter>
<filter id="filter6_d_502_3107" x="181" y="73.67" width="70.1802" height="70.1801" filterUnits="userSpaceOnUse" color-interpolation-filters="sRGB">
<feFlood flood-opacity="0" result="BackgroundImageFix"/>
<feColorMatrix in="SourceAlpha" type="matrix" values="0 0 0 0 0 0 0 0 0 0 0 0 0 0 0 0 0 0 127 0" result="hardAlpha"/>
<feOffset dx="-3" dy="5.67"/>
<feGaussianBlur stdDeviation="5"/>
<feColorMatrix type="matrix" values="0 0 0 0 0.113725 0 0 0 0 0.113725 0 0 0 0 0.105882 0 0 0 0.5 0"/>
<feBlend mode="normal" in2="BackgroundImageFix" result="effect1_dropShadow_502_3107"/>
<feBlend mode="normal" in="SourceGraphic" in2="effect1_dropShadow_502_3107" result="shape"/>
</filter>
<radialGradient id="paint0_radial_502_3107" cx="0" cy="0" r="1" gradientUnits="userSpaceOnUse" gradientTransform="translate(119.09 38.09) scale(25.09 25.09)">
<stop stop-color="#AFE3E6"/>
<stop offset="0.255" stop-color="#5BD6DC"/>
<stop offset="0.63" stop-color="#08C8D2"/>
<stop offset="1" stop-color="#04A4AD"/>
</radialGradient>
<radialGradient id="paint1_radial_502_3107" cx="0" cy="0" r="1" gradientUnits="userSpaceOnUse" gradientTransform="translate(106.09 154.09) scale(25.09 25.09)">
<stop stop-color="#AFE3E6"/>
<stop offset="0.255" stop-color="#5BD6DC"/>
<stop offset="0.63" stop-color="#08C8D2"/>
<stop offset="1" stop-color="#04A4AD"/>
</radialGradient>
<radialGradient id="paint2_radial_502_3107" cx="0" cy="0" r="1" gradientUnits="userSpaceOnUse" gradientTransform="translate(203.09 186.09) scale(25.09 25.09)">
<stop stop-color="#D6E4E5"/>
<stop offset="0.63" stop-color="#9AAFB0"/>
<stop offset="1" stop-color="#7F8A8A"/>
</radialGradient>
<radialGradient id="paint3_radial_502_3107" cx="0" cy="0" r="1" gradientUnits="userSpaceOnUse" gradientTransform="translate(38.09 88.09) scale(25.09 25.09)">
<stop stop-color="#D6E4E5"/>
<stop offset="0.63" stop-color="#9AAFB0"/>
<stop offset="1" stop-color="#7F8A8A"/>
</radialGradient>
<radialGradient id="paint4_radial_502_3107" cx="0" cy="0" r="1" gradientUnits="userSpaceOnUse" gradientTransform="translate(194.09 31.09) scale(25.09 25.09)">
<stop stop-color="#D6E4E5"/>
<stop offset="0.63" stop-color="#9AAFB0"/>
<stop offset="1" stop-color="#7F8A8A"/>
</radialGradient>
<radialGradient id="paint5_radial_502_3107" cx="0" cy="0" r="1" gradientUnits="userSpaceOnUse" gradientTransform="translate(219.09 103.09) scale(25.09 25.09)">
<stop stop-color="#AFE3E6"/>
<stop offset="0.255" stop-color="#5BD6DC"/>
<stop offset="0.63" stop-color="#08C8D2"/>
<stop offset="1" stop-color="#04A4AD"/>
</radialGradient>
</defs>
</svg>
