<svg width="220" height="220" viewBox="0 0 220 220" fill="none" xmlns="http://www.w3.org/2000/svg">
<circle cx="110" cy="110" r="110" fill="#05A833"/>
<path d="M48.8161 114.834C49.2186 110.636 48.3644 107.271 45.6201 103.967C40.8033 98.1687 39.9317 91.0204 40.2117 83.689C40.4384 77.7543 40.7457 71.7869 40.1015 65.8848C39.1711 57.361 44.7642 53.3837 51.6637 54.3868C52.6985 54.5372 53.2569 54.2167 53.5805 53.2743C55.1015 48.8457 59.9229 46.4785 65.2961 47.8075C66.5339 48.1137 67.2307 47.9088 68.0276 46.9214C71.7078 42.3614 77.249 41.7154 81.7959 45.3142C82.6394 45.9819 83.2502 46.0776 84.2414 45.6758C90.9985 42.9369 96.7634 46.1782 97.6333 53.3029C97.8447 55.0341 98.5041 55.5375 100.084 55.4296C101.152 55.3567 102.236 55.3352 103.3 55.4306C107.918 55.8445 111.9 55.0685 115.72 51.8435C120.2 48.0616 125.996 46.863 131.868 46.7899C139.837 46.6906 147.81 46.8458 155.778 46.6946C163.223 46.5533 165.588 52.9329 165.107 57.6049C164.999 58.6557 164.564 59.5129 166.031 60.1902C171.015 62.4902 172.71 65.9213 171.625 71.5416C171.334 73.0503 171.638 73.8197 172.822 74.7715C177.004 78.134 177.576 83.8185 174.231 88.0232C173.548 88.8828 173.209 89.4687 173.745 90.6057C175.589 94.514 175.043 98.1519 172.043 101.334C171.48 101.932 171.166 102.559 171.19 103.368C171.201 103.749 171.225 104.133 171.185 104.51C170.765 108.514 171.72 111.851 174.428 115.158C179.023 120.767 180 127.65 179.805 134.77C179.64 140.773 179.344 146.829 179.914 152.784C180.797 161.996 174.714 165.773 168.147 164.597C167.215 164.43 166.785 164.87 166.374 165.635C163.61 170.778 160.383 172.371 154.732 171.206C153.382 170.928 152.656 171.202 151.828 172.246C148.393 176.579 142.851 177.236 138.406 173.827C137.393 173.05 136.582 173.074 135.476 173.479C128.822 175.917 123.512 172.895 122.38 165.842C122.067 163.894 121.273 163.406 119.555 163.559C118.795 163.626 118.018 163.631 117.258 163.561C112.333 163.108 108.036 163.883 103.974 167.346C99.7036 170.988 94.0933 172.127 88.4652 172.209C80.3435 172.328 72.2187 172.295 64.0956 172.256C57.9857 172.227 53.9622 167.373 54.9246 161.291C55.0825 160.293 55.3106 159.503 54.024 158.866C48.8367 156.299 47.2314 152.913 48.4125 147.11C48.6481 145.952 48.4173 145.335 47.5366 144.594C42.8233 140.626 42.2684 135.569 46.039 130.727C46.7475 129.817 46.6404 129.168 46.2036 128.272C44.3146 124.395 45.0423 120.861 47.8526 117.729C48.5918 116.906 48.8542 116.066 48.8161 114.834ZM97.8405 81.1702C97.6871 83.1478 96.8976 84.6312 94.6527 84.5602C92.4983 84.4921 91.9133 82.9369 91.7735 81.1041C91.7098 80.2693 91.5717 79.4358 91.5689 78.6013C91.5472 72.0505 91.5072 65.4992 91.5733 58.9489C91.5917 57.1298 91.9354 55.3128 91.4379 53.5109C90.9937 51.9022 89.8785 51.0977 88.2433 51.0847C86.5214 51.0709 85.5503 52.04 85.2836 53.683C85.1623 54.4298 85.1568 55.2002 85.1538 55.9601C85.1404 59.3117 85.1545 62.6633 85.1409 66.0149C85.1378 66.7744 85.1258 67.5431 85.0106 68.2912C84.7226 70.1607 83.546 71.1988 81.6849 71.0325C79.9331 70.8759 78.9985 69.7095 78.985 67.9093C78.9482 63.0357 79.0208 58.158 78.8298 53.2904C78.729 50.7194 77.1417 49.2452 75.229 49.373C73.4514 49.4918 72.3468 51.0359 72.3279 53.6158C72.2955 58.0335 72.3571 62.4518 72.3175 66.8693C72.2934 69.5635 70.945 71.1249 68.8322 71.0817C66.8748 71.0418 65.7693 69.549 65.7414 66.7983C65.7067 63.3712 65.7242 59.9436 65.7107 56.5163C65.7038 54.758 64.783 53.8962 63.0378 53.7435C60.6004 53.5302 59.7019 54.2065 59.3123 56.6335C58.6559 60.7232 59.8629 64.8203 59.1777 68.9368C58.8588 70.8531 58.3265 72.1719 56.2015 72.243C54.3222 72.3059 53.1173 71.0776 52.9705 68.849C52.8605 67.1798 52.9625 65.4979 52.906 63.8238C52.8262 61.46 51.7357 60.3492 49.585 60.3486C47.6306 60.3481 46.6729 61.4292 46.5284 63.823C46.4963 64.3544 46.513 64.8887 46.5078 65.4216C46.4406 72.2712 46.3176 79.1209 46.3238 85.9705C46.329 91.6735 47.4408 97.2512 51.5514 101.385C54.6576 104.508 55.42 107.843 54.9125 111.847C54.884 112.072 54.929 112.307 54.8953 112.531C54.619 114.368 55.4474 114.885 57.2391 114.862C63.5213 114.78 69.8055 114.846 76.0889 114.851C81.7461 114.856 81.8103 114.855 81.9071 109.289C81.9482 106.93 82.7348 105.243 84.8707 104.067C86.7408 103.037 88.4898 101.778 90.2395 100.546C93.9929 97.9032 97.7434 95.2364 100.77 91.7467C102.295 89.9882 103.748 87.9486 102.608 85.5481C101.424 83.055 99.7778 80.7786 98.0949 78.0148C98.0042 79.3231 97.952 80.0758 97.8405 81.1702ZM117.683 145.935C116.15 143.476 114.692 140.966 113.064 138.571C111.512 136.289 110.485 133.899 110.757 131.101C110.895 129.68 110.211 129.125 108.895 129.197C106.749 129.315 105.275 128.382 104.256 126.53C103.708 125.533 103.003 124.618 102.337 123.688C99.316 119.472 96.409 115.156 92.3769 111.781C91.0975 110.711 89.7541 109.687 87.5543 110.114C87.5543 112.014 87.5458 113.896 87.556 115.777C87.5805 120.287 86.8486 121.026 82.2174 121.03C73.8674 121.038 65.5174 121.022 57.1673 121.026C56.2495 121.026 55.3031 120.958 54.4199 121.149C52.7707 121.506 51.6989 122.496 51.6607 124.306C51.6245 126.024 52.5097 127.027 54.1637 127.337C55.0597 127.505 55.9807 127.61 56.8915 127.618C60.5683 127.649 64.2456 127.619 67.9226 127.637C70.4563 127.65 71.7143 128.617 71.7867 130.545C71.8552 132.371 70.4476 133.696 68.1029 133.745C64.1215 133.828 60.1374 133.775 56.1545 133.798C55.0077 133.804 53.8408 133.754 52.7195 133.942C51.0014 134.231 49.9586 135.375 49.9651 137.1C49.9711 138.716 50.9303 139.756 52.585 140.105C54.4831 140.506 56.3872 140.426 58.3036 140.31C61.7455 140.103 65.1969 140.019 68.6326 140.309C70.6546 140.479 71.968 142.012 71.7808 143.838C71.575 145.844 70.2961 146.71 68.3116 146.698C64.941 146.677 61.5702 146.671 58.1997 146.693C55.4197 146.711 54.2004 147.727 54.1894 149.959C54.1784 152.176 55.4174 153.228 58.1973 153.251C61.9491 153.282 65.702 153.217 69.4532 153.272C71.7891 153.306 72.879 154.358 72.8809 156.355C72.8828 158.312 71.7574 159.361 69.4369 159.446C67.6771 159.51 65.9136 159.468 64.1518 159.481C62.9062 159.49 61.9314 159.945 61.3705 161.124C60.7585 162.411 60.8185 163.68 61.645 164.804C62.5052 165.973 63.8652 166.03 65.1862 166.031C72.617 166.04 80.048 166.08 87.4785 166.036C94.1363 165.997 99.9257 163.752 104.577 158.941C105.678 157.801 106.852 157.311 108.422 157.338C112.251 157.404 116.083 157.322 119.912 157.379C121.376 157.4 121.985 156.855 121.997 155.383C122.01 153.742 121.801 152.245 120.796 150.854C119.727 149.372 118.828 147.769 117.683 145.935ZM134.802 161.364C134.838 157.939 134.795 154.51 134.942 151.09C135.022 149.207 136.032 147.82 138.125 147.957C140.141 148.09 140.882 149.393 141.01 151.38C141.281 155.566 141.286 159.748 141.232 163.935C141.221 164.847 141.251 165.764 141.338 166.672C141.522 168.601 142.818 169.589 144.572 169.579C146.391 169.569 147.568 168.415 147.589 166.506C147.64 161.634 147.573 156.76 147.651 151.888C147.691 149.424 149.201 147.836 151.167 147.912C153.085 147.986 154.213 149.43 154.24 151.98C154.275 155.33 154.2 158.681 154.263 162.031C154.309 164.483 155.265 165.329 157.657 165.273C159.844 165.223 160.708 164.279 160.837 161.703C161.028 157.907 160.286 154.125 160.755 150.311C160.996 148.359 161.422 146.855 163.754 146.792C165.81 146.737 166.899 147.856 167.024 150.322C167.117 152.145 167.065 153.976 167.115 155.802C167.149 157.043 167.635 157.955 168.941 158.392C171.526 159.256 173.377 158.124 173.4 155.331C173.47 147.032 173.458 138.732 173.399 130.433C173.365 125.612 171.946 120.982 168.539 117.701C165.181 114.467 164.61 110.954 165.071 106.823C165.079 106.747 165.066 106.669 165.077 106.595C165.368 104.669 164.498 104.12 162.615 104.144C155.875 104.228 149.134 104.14 142.393 104.163C137.767 104.179 137.941 103.496 138.147 108.442C138.285 111.738 137.119 113.756 134.271 115.488C128.854 118.783 123.628 122.412 119.304 127.134C117.752 128.829 116.349 130.882 117.243 133.091C118.312 135.729 120.121 138.071 121.609 140.541C121.929 139.052 121.932 137.751 122.341 136.51C122.806 135.101 123.838 134.461 125.322 134.509C126.833 134.557 127.809 135.306 128.044 136.779C128.26 138.128 128.403 139.504 128.406 140.868C128.422 147.95 128.376 155.031 128.37 162.113C128.369 163.176 128.349 164.26 128.538 165.298C128.851 167.028 130.017 167.951 131.776 167.917C133.481 167.884 134.455 166.851 134.676 165.229C134.829 164.104 134.767 162.95 134.802 161.364ZM106.072 61.6367C104.539 61.6371 103.007 61.6376 101.474 61.6379C97.6446 61.6385 96.7462 63.0719 98.3589 66.6357C98.546 67.0492 98.821 67.4242 99.063 67.8121C101.607 71.8894 104.132 75.978 106.704 80.0376C108.237 82.4569 109.561 84.9142 109.217 87.9206C109.097 88.9763 109.431 89.869 110.68 89.6643C113.363 89.2246 114.747 90.747 115.947 92.7584C116.688 94.0005 117.554 95.1715 118.397 96.3506C121.151 100.2 123.878 104.078 127.533 107.173C128.815 108.258 130.193 109.189 132.405 109.03C132.405 106.695 132.402 104.44 132.405 102.184C132.41 99.1182 133.379 98.0704 136.517 98.011C140.501 97.9357 144.486 97.9648 148.471 97.9645C153.759 97.9641 159.046 98.0214 164.333 97.9695C167.094 97.9425 168.667 96.3534 168.281 94.0982C167.877 91.7289 165.94 91.467 164.073 91.4267C160.014 91.3388 155.951 91.4131 151.89 91.382C149.509 91.3638 148.365 90.4136 148.27 88.4929C148.173 86.4986 149.366 85.3209 151.84 85.2604C155.592 85.1685 159.348 85.2142 163.102 85.1993C164.251 85.1947 165.402 85.2221 166.549 85.1661C168.61 85.0654 169.894 83.9719 170.017 81.9257C170.144 79.8101 168.613 78.9646 166.815 78.7389C165.386 78.5595 163.915 78.7166 162.462 78.7204C158.787 78.7301 155.108 78.8304 151.436 78.7083C149.483 78.6433 148.113 77.0279 148.238 75.2253C148.38 73.1785 149.652 72.3207 151.639 72.326C155.01 72.3349 158.382 72.3402 161.754 72.3137C164.515 72.292 165.817 71.2451 165.86 69.0846C165.903 66.903 164.633 65.8038 161.847 65.7687C158.022 65.7206 154.197 65.7658 150.372 65.7408C148.398 65.7278 147.155 64.83 147.073 62.7497C146.996 60.7884 148.176 59.6411 150.418 59.5547C152.254 59.4839 154.096 59.5478 155.934 59.4967C157.284 59.4591 158.227 58.8124 158.729 57.5128C159.219 56.2445 159.034 55.0515 158.197 54.0807C157.276 53.0117 155.884 52.9927 154.576 52.9895C146.913 52.9708 139.249 52.8687 131.588 53.004C126.403 53.0955 121.311 54.4116 117.677 58.1131C114.573 61.2749 111.248 62.0556 107.22 61.6401C106.992 61.6166 106.76 61.6369 106.072 61.6367ZM102.223 99.2745C99.7719 101.383 97.3205 103.492 94.6364 105.801C100.762 110.384 105.209 116.053 109.19 122.12C109.65 122.821 110.314 123.019 111.138 123.089C113.302 123.27 115.059 122.891 116.564 121.027C118.991 118.018 122.332 115.916 125.425 113.233C119.246 108.734 114.807 103.065 110.893 96.9466C110.433 96.2278 109.793 96.0612 108.995 95.9001C105.971 95.2894 104.128 96.956 102.223 99.2745Z" fill="white"/>
</svg>
