<?xml version="1.0" encoding="UTF-8"?>
<svg id="Calque_2" data-name="Calque 2" xmlns="http://www.w3.org/2000/svg" viewBox="0 0 220 220">
  <defs>
    <style>
      .cls-1 {
        fill: #16a638;
      }

      .cls-2 {
        fill: #fff;
      }
    </style>
  </defs>
  <g id="Calque_1-2" data-name="Calque 1">
    <circle class="cls-1" cx="110" cy="110" r="110"/>
    <path class="cls-2" d="M39,116.19c.47-4.87-.52-8.78-3.71-12.61-5.59-6.73-6.6-15.02-6.28-23.53.26-6.89.62-13.81-.13-20.66-1.08-9.89,5.41-14.51,13.42-13.34,1.2.17,1.85-.2,2.22-1.29,1.76-5.14,7.36-7.89,13.59-6.34,1.44.36,2.24.12,3.17-1.03,4.27-5.29,10.7-6.04,15.98-1.86.98.77,1.69.89,2.84.42,7.84-3.18,14.53.58,15.54,8.85.25,2.01,1.01,2.59,2.84,2.47,1.24-.08,2.5-.11,3.73,0,5.36.48,9.98-.42,14.41-4.16,5.2-4.39,11.92-5.78,18.74-5.86,9.25-.12,18.5.06,27.74-.11,8.64-.16,11.38,7.24,10.83,12.66-.13,1.22-.63,2.21,1.07,3,5.78,2.67,7.75,6.65,6.49,13.17-.34,1.75.02,2.64,1.39,3.75,4.85,3.9,5.52,10.5,1.64,15.38-.79,1-1.19,1.68-.56,3,2.14,4.54,1.51,8.76-1.97,12.45-.65.69-1.02,1.42-.99,2.36.01.44.04.89,0,1.33-.49,4.65.62,8.52,3.76,12.36,5.33,6.51,6.47,14.5,6.24,22.76-.19,6.97-.53,13.99.13,20.9,1.02,10.69-6.03,15.07-13.65,13.71-1.08-.19-1.58.32-2.06,1.2-3.21,5.97-6.95,7.82-13.51,6.46-1.57-.32-2.41,0-3.37,1.21-3.99,5.03-10.42,5.79-15.58,1.83-1.18-.9-2.12-.87-3.4-.4-7.72,2.83-13.88-.68-15.2-8.86-.36-2.26-1.28-2.83-3.28-2.65-.88.08-1.78.08-2.67,0-5.71-.53-10.7.37-15.41,4.39-4.96,4.23-11.47,5.55-18,5.64-9.42.14-18.85.1-28.28.05-7.09-.03-11.76-5.67-10.64-12.72.18-1.16.45-2.07-1.05-2.81-6.02-2.98-7.88-6.91-6.51-13.64.27-1.34,0-2.06-1.02-2.92-5.47-4.6-6.11-10.47-1.74-16.09.82-1.06.7-1.81.19-2.85-2.19-4.5-1.35-8.6,1.91-12.23.86-.96,1.16-1.93,1.12-3.36ZM95.89,77.13c-.18,2.29-1.09,4.02-3.7,3.93-2.5-.08-3.18-1.88-3.34-4.01-.07-.97-.23-1.94-.24-2.9-.03-7.6-.07-15.2,0-22.8.02-2.11.42-4.22-.16-6.31-.52-1.87-1.81-2.8-3.71-2.82-2-.02-3.12,1.11-3.43,3.02-.14.87-.15,1.76-.15,2.64-.02,3.89,0,7.78-.01,11.67,0,.88-.02,1.77-.15,2.64-.33,2.17-1.7,3.37-3.86,3.18-2.03-.18-3.12-1.54-3.13-3.62-.04-5.66.04-11.32-.18-16.96-.12-2.98-1.96-4.69-4.18-4.55-2.06.14-3.34,1.93-3.37,4.92-.04,5.13.03,10.25-.01,15.38-.03,3.13-1.59,4.94-4.04,4.89-2.27-.05-3.55-1.78-3.59-4.97-.04-3.98-.02-7.95-.04-11.93,0-2.04-1.08-3.04-3.1-3.22-2.83-.25-3.87.54-4.32,3.35-.76,4.75.64,9.5-.16,14.28-.37,2.22-.99,3.75-3.45,3.84-2.18.07-3.58-1.35-3.75-3.94-.13-1.94,0-3.89-.07-5.83-.09-2.74-1.36-4.03-3.85-4.03-2.27,0-3.38,1.25-3.55,4.03-.04.62-.02,1.24-.02,1.86-.08,7.95-.22,15.9-.21,23.84,0,6.62,1.3,13.09,6.07,17.89,3.6,3.62,4.49,7.49,3.9,12.14-.03.26.02.53-.02.79-.32,2.13.64,2.73,2.72,2.7,7.29-.09,14.58-.02,21.87-.01,6.56,0,6.64,0,6.75-6.45.05-2.74.96-4.69,3.44-6.06,2.17-1.2,4.2-2.66,6.23-4.09,4.36-3.07,8.71-6.16,12.22-10.21,1.77-2.04,3.46-4.41,2.13-7.19-1.37-2.89-3.28-5.53-5.24-8.74-.11,1.52-.17,2.39-.3,3.66ZM118.92,152.28c-1.78-2.85-3.47-5.77-5.36-8.54-1.8-2.65-2.99-5.42-2.68-8.67.16-1.65-.63-2.29-2.16-2.21-2.49.14-4.2-.95-5.38-3.09-.64-1.16-1.45-2.22-2.23-3.3-3.51-4.89-6.88-9.9-11.56-13.82-1.48-1.24-3.04-2.43-5.6-1.94,0,2.21,0,4.39,0,6.57.03,5.23-.82,6.09-6.19,6.1-9.69,0-19.38,0-29.07,0-1.07,0-2.16-.08-3.19.14-1.91.41-3.16,1.56-3.2,3.66-.04,1.99.99,3.16,2.9,3.52,1.04.19,2.11.32,3.17.33,4.27.04,8.53,0,12.8.02,2.94.01,4.4,1.14,4.48,3.37.08,2.12-1.55,3.66-4.27,3.71-4.62.1-9.24.04-13.86.06-1.33,0-2.68-.05-3.99.17-1.99.34-3.2,1.66-3.2,3.66,0,1.88,1.12,3.08,3.04,3.49,2.2.47,4.41.37,6.64.24,3.99-.24,8-.34,11.99,0,2.35.2,3.87,1.98,3.65,4.1-.24,2.33-1.72,3.33-4.03,3.32-3.91-.02-7.82-.03-11.73,0-3.23.02-4.64,1.2-4.65,3.79-.01,2.57,1.42,3.79,4.65,3.82,4.35.04,8.71-.04,13.06.02,2.71.04,3.98,1.26,3.98,3.58,0,2.27-1.3,3.49-4,3.59-2.04.07-4.09.03-6.13.04-1.45.01-2.58.54-3.23,1.91-.71,1.49-.64,2.97.32,4.27,1,1.36,2.58,1.42,4.11,1.42,8.62.01,17.25.06,25.87,0,7.73-.05,14.44-2.65,19.84-8.23,1.28-1.32,2.64-1.89,4.46-1.86,4.44.08,8.89-.02,13.33.05,1.7.02,2.41-.61,2.42-2.32.02-1.9-.23-3.64-1.39-5.26-1.24-1.72-2.28-3.58-3.61-5.71ZM138.78,170.18c.04-3.97,0-7.95.16-11.92.09-2.19,1.26-3.79,3.69-3.64,2.34.15,3.2,1.67,3.35,3.97.31,4.86.32,9.71.26,14.57-.01,1.06.02,2.12.12,3.18.21,2.24,1.72,3.38,3.75,3.37,2.11-.01,3.48-1.35,3.5-3.57.06-5.65-.02-11.31.07-16.96.05-2.86,1.8-4.7,4.08-4.61,2.23.09,3.53,1.76,3.57,4.72.04,3.89-.05,7.78.03,11.66.05,2.85,1.16,3.83,3.94,3.76,2.54-.06,3.54-1.15,3.69-4.14.22-4.4-.64-8.79-.1-13.22.28-2.27.77-4.01,3.48-4.08,2.39-.06,3.65,1.23,3.79,4.1.11,2.12.05,4.24.11,6.36.04,1.44.6,2.5,2.12,3.01,3,1,5.15-.31,5.17-3.55.08-9.63.07-19.26,0-28.89-.04-5.6-1.69-10.97-5.64-14.77-3.9-3.75-4.56-7.83-4.02-12.62,0-.09,0-.18,0-.26.34-2.23-.67-2.87-2.86-2.84-7.82.1-15.64,0-23.47.02-5.37.02-5.17-.77-4.93,4.96.16,3.82-1.19,6.17-4.5,8.18-6.29,3.82-12.35,8.04-17.37,13.51-1.8,1.97-3.43,4.35-2.39,6.91,1.24,3.06,3.34,5.78,5.07,8.64.37-1.73.38-3.24.85-4.68.54-1.63,1.74-2.38,3.46-2.32,1.75.06,2.89.92,3.16,2.63.25,1.57.42,3.16.42,4.75.02,8.22-.03,16.43-.04,24.65,0,1.23-.02,2.49.19,3.7.36,2.01,1.72,3.08,3.76,3.04,1.98-.04,3.11-1.24,3.36-3.12.18-1.31.11-2.64.15-4.48ZM105.44,54.46c-1.78,0-3.56,0-5.34,0-4.44,0-5.49,1.66-3.61,5.8.22.48.54.91.82,1.37,2.95,4.73,5.88,9.48,8.87,14.19,1.78,2.81,3.32,5.66,2.92,9.15-.14,1.23.25,2.26,1.7,2.02,3.11-.51,4.72,1.26,6.11,3.59.86,1.44,1.86,2.8,2.84,4.17,3.2,4.47,6.36,8.97,10.6,12.56,1.49,1.26,3.09,2.34,5.65,2.16,0-2.71,0-5.33,0-7.94,0-3.56,1.13-4.77,4.77-4.84,4.62-.09,9.25-.05,13.87-.05,6.14,0,12.27.07,18.41,0,3.2-.03,5.03-1.88,4.58-4.49-.47-2.75-2.72-3.05-4.88-3.1-4.71-.1-9.42-.02-14.14-.05-2.76-.02-4.09-1.12-4.2-3.35-.11-2.31,1.27-3.68,4.14-3.75,4.35-.11,8.71-.05,13.07-.07,1.33,0,2.67.03,4-.04,2.39-.12,3.88-1.39,4.02-3.76.15-2.45-1.63-3.44-3.72-3.7-1.66-.21-3.37-.03-5.05-.02-4.26.01-8.53.13-12.79-.01-2.27-.08-3.86-1.95-3.71-4.04.16-2.38,1.64-3.37,3.95-3.36,3.91.01,7.82.02,11.74-.01,3.2-.03,4.71-1.24,4.76-3.75.05-2.53-1.42-3.81-4.66-3.85-4.44-.06-8.88,0-13.32-.03-2.29-.02-3.73-1.06-3.83-3.47-.09-2.28,1.28-3.61,3.88-3.71,2.13-.08,4.27,0,6.4-.07,1.57-.04,2.66-.79,3.24-2.3.57-1.47.35-2.86-.62-3.98-1.07-1.24-2.68-1.26-4.2-1.27-8.89-.02-17.79-.14-26.68.02-6.02.11-11.93,1.63-16.14,5.93-3.6,3.67-7.46,4.57-12.13,4.09-.26-.03-.53,0-1.33,0ZM100.98,98.13c-2.84,2.45-5.69,4.89-8.8,7.57,7.11,5.32,12.27,11.9,16.89,18.94.53.81,1.3,1.04,2.26,1.12,2.51.21,4.55-.23,6.3-2.39,2.82-3.49,6.69-5.93,10.28-9.04-7.17-5.22-12.32-11.8-16.86-18.9-.53-.83-1.28-1.03-2.2-1.21-3.51-.71-5.65,1.23-7.86,3.92Z"/>
  </g>
</svg>