<svg width="1471" height="408" viewBox="0 0 1471 408" fill="none" xmlns="http://www.w3.org/2000/svg">
<path d="M0 0V408C711.119 285.6 1276.97 357 1471 408V0H0Z" fill="#FFD200"/>
<path d="M574.947 230.864C569.251 230.864 564.483 229.968 560.643 228.176C556.803 226.384 553.923 223.856 552.003 220.592C550.147 217.264 549.219 213.36 549.219 208.88C549.219 203.44 550.403 198.992 552.771 195.536C555.139 192.016 558.339 189.424 562.371 187.76C566.403 186.032 570.883 185.168 575.811 185.168C581.699 185.168 586.563 186.128 590.403 188.048C594.243 189.968 597.091 192.592 598.947 195.92C600.867 199.184 601.827 202.96 601.827 207.248C601.827 212.24 600.739 216.496 598.563 220.016C596.451 223.536 593.379 226.224 589.347 228.08C585.315 229.936 580.515 230.864 574.947 230.864ZM576.771 223.472C578.947 223.472 580.611 222.224 581.763 219.728C582.979 217.168 583.587 214.064 583.587 210.416C583.587 206.256 583.139 202.832 582.243 200.144C581.347 197.392 580.195 195.376 578.787 194.096C577.443 192.752 575.971 192.08 574.371 192.08C572.003 192.08 570.243 193.392 569.091 196.016C568.003 198.576 567.459 201.648 567.459 205.232C567.459 208.496 567.779 211.536 568.419 214.352C569.123 217.104 570.179 219.312 571.587 220.976C572.995 222.64 574.723 223.472 576.771 223.472ZM610.143 210.416V204.08C610.143 201.968 610.015 200.336 609.759 199.184C609.503 198.032 608.895 197.2 607.935 196.688C606.975 196.112 605.439 195.728 603.327 195.536C603.327 194.32 603.391 193.072 603.519 191.792C603.711 190.512 604.063 189.36 604.575 188.336C609.311 188.336 613.535 188.016 617.247 187.376C620.959 186.672 623.583 185.936 625.12 185.168C626.208 185.616 627.007 186.352 627.519 187.376C628.095 188.336 628.383 189.648 628.383 191.312L610.143 210.416ZM660.64 214.448C660.64 217.584 660.928 219.76 661.504 220.976C662.08 222.192 663.168 222.8 664.767 222.8C665.216 223.824 665.504 224.944 665.632 226.16C665.76 227.312 665.824 228.688 665.824 230.288C664.416 230.224 662.4 230.16 659.776 230.096C657.152 230.032 654.72 230 652.48 230C651.008 230 649.216 230 647.104 230C644.992 230.064 642.976 230.096 641.056 230.096C639.2 230.16 637.792 230.224 636.831 230.288C636.831 228.944 636.863 227.664 636.928 226.448C637.056 225.168 637.344 223.952 637.792 222.8C639.136 222.8 640.224 222.128 641.056 220.784C641.952 219.44 642.4 216.976 642.4 213.392V206.768C642.4 203.12 641.92 200.56 640.96 199.088C640 197.616 638.496 196.88 636.448 196.88C634.911 196.88 633.535 197.52 632.319 198.8C631.104 200.08 630.144 201.84 629.439 204.08C628.735 206.256 628.383 208.816 628.383 211.76V214.448C628.383 217.776 628.767 220.016 629.536 221.168C630.368 222.256 631.488 222.8 632.896 222.8C633.408 224.016 633.696 225.2 633.76 226.352C633.887 227.504 633.951 228.816 633.951 230.288C632.991 230.224 631.648 230.16 629.919 230.096C628.192 230.096 626.368 230.064 624.448 230C622.592 230 620.863 230 619.263 230C617.727 230 615.871 230 613.695 230C611.519 230.064 609.439 230.096 607.455 230.096C605.471 230.16 603.999 230.224 603.039 230.288C603.039 228.816 603.103 227.408 603.231 226.064C603.423 224.72 603.679 223.632 603.999 222.8C606.495 222.8 608.127 222.224 608.895 221.072C609.727 219.856 610.143 217.648 610.143 214.448V204.08L628.383 191.312C628.383 192.08 628.255 192.976 628 194C627.807 195.024 627.551 196.08 627.231 197.168C627.744 195.888 628.288 194.704 628.864 193.616C629.439 192.528 630.143 191.568 630.976 190.736C632.511 189.2 634.367 187.984 636.543 187.088C638.783 186.128 641.248 185.648 643.936 185.648C646.816 185.648 649.536 186.192 652.096 187.28C654.656 188.304 656.704 189.968 658.24 192.272C659.84 194.576 660.64 197.584 660.64 201.296V214.448ZM690.452 230.864C684.308 230.864 679.348 229.904 675.572 227.984C671.86 226 669.14 223.344 667.412 220.016C665.684 216.624 664.82 212.784 664.82 208.496C664.82 203.568 665.812 199.376 667.796 195.92C669.78 192.464 672.596 189.808 676.244 187.952C679.956 186.096 684.276 185.168 689.204 185.168C694.196 185.168 698.292 186.032 701.492 187.76C704.756 189.488 707.188 191.952 708.788 195.152C710.388 198.288 711.22 201.968 711.284 206.192C710.708 208.56 709.652 210.448 708.116 211.856C706.004 211.856 703.732 211.888 701.3 211.952C698.868 211.952 696.372 211.984 693.812 212.048C691.252 212.048 688.692 212.112 686.132 212.24C683.572 212.368 681.108 212.528 678.74 212.72V205.136H695.444C695.444 200.784 694.932 197.552 693.908 195.44C692.948 193.328 691.476 192.272 689.492 192.272C688.02 192.272 686.772 192.816 685.748 193.904C684.788 194.992 684.052 196.528 683.54 198.512C683.092 200.496 682.868 202.832 682.868 205.52C682.868 208.912 683.284 211.856 684.116 214.352C685.012 216.848 686.388 218.768 688.244 220.112C690.164 221.392 692.66 222.032 695.732 222.032C698.036 222.032 700.34 221.68 702.644 220.976C704.948 220.272 706.804 219.408 708.212 218.384C708.916 218.832 709.524 219.696 710.036 220.976C710.548 222.256 710.804 223.6 710.804 225.008C708.18 226.8 705.236 228.24 701.972 229.328C698.708 230.352 694.868 230.864 690.452 230.864ZM755.359 186.992C755.359 187.632 755.295 188.368 755.167 189.2C755.039 189.968 754.783 190.672 754.399 191.312C752.543 191.312 750.783 191.44 749.119 191.696C747.519 191.888 746.047 192.208 744.703 192.656V186.992H755.359ZM736.927 183.152C736.927 178.352 737.887 174.352 739.807 171.152C741.791 167.888 744.319 165.456 747.391 163.856C750.463 162.256 753.663 161.456 756.991 161.456C759.487 161.456 761.375 161.712 762.655 162.224C763.935 162.672 765.087 163.216 766.111 163.856C765.983 165.84 765.887 167.792 765.823 169.712C765.759 171.568 765.727 173.36 765.727 175.088C764.895 175.344 763.999 175.536 763.039 175.664C762.079 175.792 761.151 175.856 760.255 175.856C760.255 173.232 759.679 171.056 758.527 169.328C757.375 167.6 755.455 166.736 752.767 166.736C751.039 166.736 749.631 167.28 748.543 168.368C747.519 169.392 746.751 170.896 746.239 172.88C745.791 174.864 745.567 177.296 745.567 180.176V208.688H736.927V183.152ZM738.367 186.992V192.464C736.767 192.016 735.135 191.728 733.471 191.6C731.807 191.408 730.399 191.312 729.247 191.312C729.247 190.48 729.343 189.712 729.535 189.008C729.791 188.304 730.143 187.632 730.591 186.992H738.367ZM745.567 215.888C745.567 218.64 745.855 220.752 746.431 222.224C747.007 223.632 747.935 224.624 749.215 225.2C750.495 225.712 752.127 226.032 754.111 226.16C754.303 226.672 754.431 227.28 754.495 227.984C754.559 228.624 754.591 229.392 754.591 230.288C753.631 230.224 752.479 230.16 751.135 230.096C749.855 230.096 748.479 230.064 747.007 230C745.535 230 744.031 230 742.495 230C740.255 230 737.887 230 735.391 230C732.959 230.064 731.103 230.16 729.823 230.288C729.823 229.392 729.855 228.624 729.919 227.984C729.983 227.28 730.111 226.672 730.303 226.16C732.031 226.032 733.375 225.744 734.335 225.296C735.295 224.784 735.967 223.952 736.351 222.8C736.735 221.584 736.927 219.92 736.927 217.808V208.208H745.567V215.888ZM780.3 230.864C775.948 230.864 772.14 229.936 768.876 228.08C765.612 226.16 763.084 223.504 761.292 220.112C759.5 216.656 758.604 212.624 758.604 208.016C758.604 203.664 759.532 199.76 761.388 196.304C763.244 192.848 765.804 190.128 769.068 188.144C772.332 186.16 776.076 185.168 780.3 185.168C784.844 185.168 788.716 186.128 791.916 188.048C795.18 189.968 797.676 192.656 799.404 196.112C801.132 199.504 801.996 203.472 801.996 208.016C801.996 212.368 801.068 216.272 799.212 219.728C797.42 223.184 794.892 225.904 791.628 227.888C788.428 229.872 784.652 230.864 780.3 230.864ZM781.068 226.256C784.908 226.256 787.756 224.688 789.612 221.552C791.468 218.352 792.396 214.224 792.396 209.168C792.396 205.2 791.788 201.776 790.572 198.896C789.42 195.952 787.852 193.712 785.868 192.176C783.884 190.576 781.708 189.776 779.34 189.776C775.628 189.776 772.844 191.28 770.988 194.288C769.196 197.296 768.3 201.2 768.3 206C768.3 210.288 768.812 213.968 769.836 217.04C770.924 220.048 772.428 222.352 774.348 223.952C776.268 225.488 778.508 226.256 781.068 226.256ZM821.314 215.888C821.314 218.64 821.602 220.752 822.178 222.224C822.754 223.632 823.682 224.624 824.962 225.2C826.242 225.712 827.874 226.032 829.858 226.16C830.05 226.672 830.178 227.28 830.242 227.984C830.306 228.624 830.338 229.392 830.338 230.288C829.378 230.224 828.226 230.16 826.882 230.096C825.602 230.096 824.226 230.064 822.754 230C821.282 230 819.778 230 818.242 230C816.002 230 813.634 230 811.138 230C808.706 230.064 806.85 230.16 805.57 230.288C805.57 229.392 805.602 228.624 805.666 227.984C805.73 227.28 805.858 226.672 806.05 226.16C807.778 226.032 809.122 225.744 810.082 225.296C811.042 224.784 811.714 223.952 812.098 222.8C812.482 221.584 812.674 219.92 812.674 217.808V208.208H821.314V215.888ZM821.314 201.872V209.456H812.674V198.8L821.314 189.392C821.314 191.568 821.122 193.552 820.738 195.344C820.354 197.072 820.002 198.8 819.682 200.528L821.314 201.872ZM819.202 201.104C819.906 199.312 820.45 197.84 820.834 196.688C821.218 195.536 821.634 194.576 822.082 193.808C823.49 191.568 825.154 189.712 827.074 188.24C828.994 186.768 831.202 186.032 833.698 186.032C836.13 186.032 838.338 186.8 840.322 188.336C840.194 189.36 840.066 190.544 839.938 191.888C839.81 193.232 839.714 194.576 839.65 195.92C839.65 197.264 839.65 198.512 839.65 199.664C839.074 199.856 838.274 200.048 837.25 200.24C836.29 200.432 835.266 200.528 834.178 200.528C834.05 197.456 833.538 195.44 832.642 194.48C831.81 193.52 830.754 193.04 829.474 193.04C828.386 193.04 827.202 193.68 825.922 194.96C824.642 196.176 823.554 197.808 822.658 199.856C821.762 201.904 821.314 204.176 821.314 206.672L819.202 201.104ZM812.674 209.456V198.8C812.674 197.264 812.514 196.016 812.194 195.056C811.874 194.096 811.202 193.36 810.178 192.848C809.154 192.336 807.586 192.048 805.474 191.984C805.474 191.28 805.538 190.64 805.666 190.064C805.794 189.488 806.018 188.944 806.338 188.432C808.322 188.304 810.594 187.92 813.154 187.28C815.714 186.64 817.73 185.936 819.202 185.168C819.778 185.36 820.258 185.776 820.642 186.416C821.09 186.992 821.314 187.984 821.314 189.392L812.674 209.456ZM886.703 230.864C885.999 230.544 885.423 229.968 884.975 229.136C884.591 228.304 884.399 226.992 884.399 225.2C884.399 224.624 884.431 223.952 884.495 223.184C884.559 222.352 884.687 221.616 884.879 220.976H885.071C884.879 222 884.431 223.12 883.727 224.336C883.087 225.488 882.223 226.512 881.135 227.408C880.047 228.368 878.671 229.168 877.007 229.808C875.343 230.384 873.327 230.672 870.959 230.672C866.927 230.672 863.855 229.776 861.743 227.984C859.631 226.128 858.575 223.632 858.575 220.496C858.575 218 859.151 215.888 860.303 214.16C861.519 212.368 863.055 210.896 864.911 209.744C866.831 208.528 868.879 207.568 871.055 206.864C873.295 206.16 875.471 205.616 877.583 205.232C879.695 204.848 881.551 204.528 883.151 204.272C883.151 201.648 883.087 199.6 882.959 198.128C882.895 196.656 882.703 195.504 882.383 194.672C882.127 193.776 881.711 193.008 881.135 192.368C880.367 191.408 879.471 190.704 878.447 190.256C877.487 189.744 876.399 189.488 875.183 189.488C873.071 189.488 871.407 190.16 870.191 191.504C868.975 192.784 868.111 194.288 867.599 196.016C867.087 197.744 866.799 199.28 866.735 200.624C866.031 200.624 865.135 200.592 864.047 200.528C863.023 200.4 862.255 200.208 861.743 199.952C861.871 198.352 861.903 196.56 861.839 194.576C861.775 192.592 861.583 190.896 861.263 189.488C863.887 188.144 866.639 187.088 869.519 186.32C872.463 185.552 875.151 185.168 877.583 185.168C879.951 185.168 881.967 185.52 883.631 186.224C885.359 186.864 886.735 187.728 887.759 188.816C889.423 190.416 890.511 192.528 891.023 195.152C891.535 197.712 891.791 201.136 891.791 205.424V215.984C891.791 217.776 891.919 219.216 892.175 220.304C892.495 221.328 893.071 222.096 893.903 222.608C894.735 223.056 896.015 223.344 897.743 223.472C897.743 224.112 897.711 224.848 897.647 225.68C897.583 226.448 897.423 227.184 897.167 227.888C895.567 227.952 893.775 228.272 891.791 228.848C889.871 229.36 888.175 230.032 886.703 230.864ZM873.647 225.392C875.055 225.392 876.495 224.944 877.967 224.048C879.439 223.088 880.655 221.616 881.615 219.632C882.639 217.648 883.151 215.056 883.151 211.856V208.208C881.551 208.4 879.855 208.688 878.063 209.072C876.271 209.392 874.607 209.904 873.071 210.608C871.535 211.312 870.287 212.304 869.327 213.584C868.367 214.8 867.887 216.464 867.887 218.576C867.887 220.944 868.463 222.672 869.615 223.76C870.767 224.848 872.111 225.392 873.647 225.392ZM901.203 230.288C901.203 229.648 901.235 228.976 901.299 228.272C901.363 227.504 901.491 226.8 901.683 226.16C904.243 226.16 905.971 225.584 906.867 224.432C907.827 223.216 908.307 221.008 908.307 217.808V174.8C908.307 173.264 908.147 172.016 907.827 171.056C907.571 170.032 906.931 169.264 905.907 168.752C904.883 168.24 903.283 167.984 901.107 167.984C901.107 167.28 901.171 166.64 901.299 166.064C901.427 165.488 901.651 164.944 901.971 164.432C902.931 164.432 904.275 164.272 906.003 163.952C907.795 163.632 909.523 163.216 911.187 162.704C912.851 162.192 914.067 161.68 914.835 161.168C915.411 161.36 915.891 161.744 916.275 162.32C916.723 162.896 916.947 163.792 916.947 165.008V217.808C916.947 221.008 917.363 223.216 918.195 224.432C919.091 225.584 920.563 226.16 922.611 226.16C922.803 226.8 922.931 227.536 922.995 228.368C923.059 229.2 923.091 229.84 923.091 230.288C922.003 230.224 920.851 230.16 919.635 230.096C918.419 230.096 917.171 230.064 915.891 230C914.675 230 913.459 230 912.243 230C911.027 230 909.747 230 908.403 230C907.123 230.064 905.875 230.096 904.659 230.096C903.443 230.16 902.291 230.224 901.203 230.288ZM926.051 230.288C926.051 229.648 926.083 228.976 926.147 228.272C926.211 227.504 926.339 226.8 926.531 226.16C929.091 226.16 930.819 225.584 931.715 224.432C932.675 223.216 933.155 221.008 933.155 217.808V174.8C933.155 173.264 932.995 172.016 932.675 171.056C932.419 170.032 931.779 169.264 930.755 168.752C929.731 168.24 928.131 167.984 925.955 167.984C925.955 167.28 926.019 166.64 926.147 166.064C926.275 165.488 926.499 164.944 926.819 164.432C927.779 164.432 929.123 164.272 930.851 163.952C932.643 163.632 934.371 163.216 936.035 162.704C937.699 162.192 938.915 161.68 939.683 161.168C940.259 161.36 940.739 161.744 941.123 162.32C941.571 162.896 941.795 163.792 941.795 165.008V217.808C941.795 221.008 942.211 223.216 943.043 224.432C943.939 225.584 945.411 226.16 947.459 226.16C947.651 226.8 947.779 227.536 947.843 228.368C947.907 229.2 947.939 229.84 947.939 230.288C946.851 230.224 945.699 230.16 944.483 230.096C943.267 230.096 942.019 230.064 940.739 230C939.523 230 938.307 230 937.091 230C935.875 230 934.595 230 933.251 230C931.971 230.064 930.723 230.096 929.507 230.096C928.291 230.16 927.139 230.224 926.051 230.288ZM468.54 299.24C470.396 296.232 471.804 293.736 472.764 291.752C473.724 289.704 474.428 287.784 474.876 285.992C475.388 283.752 475.26 282.152 474.492 281.192C473.724 280.232 472.156 279.528 469.788 279.08C469.404 277.928 469.148 276.872 469.02 275.912C468.892 274.952 468.828 273.896 468.828 272.744C470.364 272.872 472.284 272.968 474.588 273.032C476.956 273.032 478.94 273.032 480.54 273.032C482.14 273.032 483.804 273.032 485.532 273.032C487.26 272.968 488.924 272.872 490.524 272.744C490.524 273.832 490.46 274.888 490.332 275.912C490.268 276.872 490.076 277.928 489.756 279.08C488.092 279.528 486.844 280.04 486.012 280.616C485.18 281.192 484.508 281.928 483.996 282.824C483.548 283.72 483.068 284.872 482.556 286.28C481.788 288.328 481.084 290.12 480.444 291.656C479.868 293.128 479.164 294.696 478.332 296.36C477.5 298.024 476.412 300.136 475.068 302.696L468.54 299.24ZM480.636 301.736C482.044 303.208 483.292 304.328 484.38 305.096C485.468 305.8 486.556 306.312 487.644 306.632C488.732 306.888 490.012 307.048 491.484 307.112C491.484 308.456 491.356 309.992 491.1 311.72C490.908 313.384 490.588 314.824 490.14 316.04C488.412 316.04 486.46 316.136 484.284 316.328C482.108 316.456 479.9 316.648 477.66 316.904C475.42 317.16 473.308 317.48 471.324 317.864C467.036 312.168 462.78 306.824 458.556 301.832C454.396 296.84 450.556 292.072 447.036 287.528C443.9 283.432 441.468 279.976 439.74 277.16C438.076 274.344 436.892 271.88 436.188 269.768C435.548 267.592 435.228 265.48 435.228 263.432C435.228 260.424 435.9 257.768 437.244 255.464C438.652 253.16 441.084 251.368 444.54 250.088C447.996 248.808 452.764 248.168 458.844 248.168C462.428 248.168 465.724 248.424 468.732 248.936C471.804 249.448 474.844 250.344 477.852 251.624C477.34 253.48 477.02 255.72 476.892 258.344C476.828 260.904 476.892 263.592 477.084 266.408C475.484 266.792 473.756 267.08 471.9 267.272C470.108 267.464 468.188 267.56 466.14 267.56C465.884 263.784 465.148 260.84 463.932 258.728C462.716 256.616 460.828 255.56 458.268 255.56C456.732 255.56 455.516 256.008 454.62 256.904C453.788 257.736 453.372 259.24 453.372 261.416C453.372 262.888 453.628 264.424 454.14 266.024C454.716 267.624 455.644 269.48 456.924 271.592C458.268 273.704 460.092 276.328 462.396 279.464C463.356 280.744 464.572 282.344 466.044 284.264C467.516 286.184 469.116 288.2 470.844 290.312C472.572 292.424 474.268 294.504 475.932 296.552C477.66 298.536 479.228 300.264 480.636 301.736ZM453.948 310.184C455.996 310.184 457.82 309.672 459.42 308.648C461.084 307.56 462.748 305.864 464.412 303.56L470.364 308.36C467.42 311.624 464.284 314.056 460.956 315.656C457.692 317.192 453.436 317.96 448.188 317.96C444.22 317.96 440.732 317.544 437.724 316.712C434.78 315.816 432.316 314.536 430.332 312.872C428.412 311.144 426.972 309.096 426.012 306.728C425.052 304.296 424.572 301.544 424.572 298.472C424.572 293.16 425.98 288.872 428.796 285.608C431.612 282.28 435.612 279.528 440.796 277.352L446.364 284.072C445.34 284.904 444.508 286.12 443.868 287.72C443.228 289.32 442.908 291.624 442.908 294.632C442.908 298.408 443.42 301.448 444.444 303.752C445.468 305.992 446.812 307.624 448.476 308.648C450.204 309.672 452.028 310.184 453.948 310.184ZM541.107 317.864C540.403 317.544 539.827 316.968 539.379 316.136C538.995 315.304 538.803 313.992 538.803 312.2C538.803 311.624 538.835 310.952 538.899 310.184C538.963 309.352 539.091 308.616 539.283 307.976H539.475C539.283 309 538.835 310.12 538.131 311.336C537.491 312.488 536.627 313.512 535.539 314.408C534.451 315.368 533.075 316.168 531.411 316.808C529.747 317.384 527.731 317.672 525.363 317.672C521.331 317.672 518.259 316.776 516.147 314.984C514.035 313.128 512.979 310.632 512.979 307.496C512.979 305 513.555 302.888 514.707 301.16C515.923 299.368 517.459 297.896 519.315 296.744C521.235 295.528 523.283 294.568 525.459 293.864C527.699 293.16 529.875 292.616 531.987 292.232C534.099 291.848 535.955 291.528 537.555 291.272C537.555 288.648 537.491 286.6 537.363 285.128C537.299 283.656 537.107 282.504 536.787 281.672C536.531 280.776 536.115 280.008 535.539 279.368C534.771 278.408 533.875 277.704 532.851 277.256C531.891 276.744 530.803 276.488 529.587 276.488C527.475 276.488 525.811 277.16 524.595 278.504C523.379 279.784 522.515 281.288 522.003 283.016C521.491 284.744 521.203 286.28 521.139 287.624C520.435 287.624 519.539 287.592 518.451 287.528C517.427 287.4 516.659 287.208 516.147 286.952C516.275 285.352 516.307 283.56 516.243 281.576C516.179 279.592 515.987 277.896 515.667 276.488C518.291 275.144 521.043 274.088 523.923 273.32C526.867 272.552 529.555 272.168 531.987 272.168C534.355 272.168 536.371 272.52 538.035 273.224C539.763 273.864 541.139 274.728 542.163 275.816C543.827 277.416 544.915 279.528 545.427 282.152C545.939 284.712 546.195 288.136 546.195 292.424V302.984C546.195 304.776 546.323 306.216 546.579 307.304C546.899 308.328 547.475 309.096 548.307 309.608C549.139 310.056 550.419 310.344 552.147 310.472C552.147 311.112 552.115 311.848 552.051 312.68C551.987 313.448 551.827 314.184 551.571 314.888C549.971 314.952 548.179 315.272 546.195 315.848C544.275 316.36 542.579 317.032 541.107 317.864ZM528.051 312.392C529.459 312.392 530.899 311.944 532.371 311.048C533.843 310.088 535.059 308.616 536.019 306.632C537.043 304.648 537.555 302.056 537.555 298.856V295.208C535.955 295.4 534.259 295.688 532.467 296.072C530.675 296.392 529.011 296.904 527.475 297.608C525.939 298.312 524.691 299.304 523.731 300.584C522.771 301.8 522.291 303.464 522.291 305.576C522.291 307.944 522.867 309.672 524.019 310.76C525.171 311.848 526.515 312.392 528.051 312.392ZM555.607 317.288C555.607 316.648 555.639 315.976 555.703 315.272C555.767 314.504 555.895 313.8 556.087 313.16C558.647 313.16 560.375 312.584 561.271 311.432C562.231 310.216 562.711 308.008 562.711 304.808V261.8C562.711 260.264 562.551 259.016 562.231 258.056C561.975 257.032 561.335 256.264 560.311 255.752C559.287 255.24 557.687 254.984 555.511 254.984C555.511 254.28 555.575 253.64 555.703 253.064C555.831 252.488 556.055 251.944 556.375 251.432C557.335 251.432 558.679 251.272 560.407 250.952C562.199 250.632 563.927 250.216 565.591 249.704C567.255 249.192 568.471 248.68 569.239 248.168C569.815 248.36 570.295 248.744 570.679 249.32C571.127 249.896 571.351 250.792 571.351 252.008V304.808C571.351 308.008 571.767 310.216 572.599 311.432C573.495 312.584 574.967 313.16 577.015 313.16C577.207 313.8 577.335 314.536 577.399 315.368C577.463 316.2 577.495 316.84 577.495 317.288C576.407 317.224 575.255 317.16 574.039 317.096C572.823 317.096 571.575 317.064 570.295 317C569.079 317 567.863 317 566.647 317C565.431 317 564.151 317 562.807 317C561.527 317.064 560.279 317.096 559.063 317.096C557.847 317.16 556.695 317.224 555.607 317.288ZM580.455 317.288C580.455 316.648 580.487 315.976 580.551 315.272C580.615 314.504 580.743 313.8 580.935 313.16C583.495 313.16 585.223 312.584 586.119 311.432C587.079 310.216 587.559 308.008 587.559 304.808V261.8C587.559 260.264 587.399 259.016 587.079 258.056C586.823 257.032 586.183 256.264 585.159 255.752C584.135 255.24 582.535 254.984 580.359 254.984C580.359 254.28 580.423 253.64 580.551 253.064C580.679 252.488 580.903 251.944 581.223 251.432C582.183 251.432 583.527 251.272 585.255 250.952C587.047 250.632 588.775 250.216 590.439 249.704C592.103 249.192 593.319 248.68 594.087 248.168C594.663 248.36 595.143 248.744 595.527 249.32C595.975 249.896 596.199 250.792 596.199 252.008V304.808C596.199 308.008 596.615 310.216 597.447 311.432C598.343 312.584 599.815 313.16 601.863 313.16C602.055 313.8 602.183 314.536 602.247 315.368C602.311 316.2 602.343 316.84 602.343 317.288C601.255 317.224 600.103 317.16 598.887 317.096C597.671 317.096 596.423 317.064 595.143 317C593.927 317 592.711 317 591.495 317C590.279 317 588.999 317 587.655 317C586.375 317.064 585.127 317.096 583.911 317.096C582.695 317.16 581.543 317.224 580.455 317.288ZM646.793 273.992C646.793 274.632 646.729 275.368 646.601 276.2C646.473 276.968 646.217 277.672 645.833 278.312C643.977 278.312 642.217 278.44 640.553 278.696C638.953 278.888 637.481 279.208 636.137 279.656V273.992H646.793ZM628.361 270.152C628.361 265.352 629.321 261.352 631.241 258.152C633.225 254.888 635.753 252.456 638.825 250.856C641.897 249.256 645.097 248.456 648.425 248.456C650.921 248.456 652.809 248.712 654.089 249.224C655.369 249.672 656.521 250.216 657.545 250.856C657.417 252.84 657.321 254.792 657.257 256.712C657.193 258.568 657.161 260.36 657.161 262.088C656.329 262.344 655.433 262.536 654.473 262.664C653.513 262.792 652.585 262.856 651.689 262.856C651.689 260.232 651.113 258.056 649.961 256.328C648.809 254.6 646.889 253.736 644.201 253.736C642.473 253.736 641.065 254.28 639.977 255.368C638.953 256.392 638.185 257.896 637.673 259.88C637.225 261.864 637.001 264.296 637.001 267.176V295.688H628.361V270.152ZM629.801 273.992V279.464C628.201 279.016 626.569 278.728 624.905 278.6C623.241 278.408 621.833 278.312 620.681 278.312C620.681 277.48 620.777 276.712 620.969 276.008C621.225 275.304 621.577 274.632 622.025 273.992H629.801ZM637.001 302.888C637.001 305.64 637.289 307.752 637.865 309.224C638.441 310.632 639.369 311.624 640.649 312.2C641.929 312.712 643.561 313.032 645.545 313.16C645.737 313.672 645.865 314.28 645.929 314.984C645.993 315.624 646.025 316.392 646.025 317.288C645.065 317.224 643.913 317.16 642.569 317.096C641.289 317.096 639.913 317.064 638.441 317C636.969 317 635.465 317 633.929 317C631.689 317 629.321 317 626.825 317C624.393 317.064 622.537 317.16 621.257 317.288C621.257 316.392 621.289 315.624 621.353 314.984C621.417 314.28 621.545 313.672 621.737 313.16C623.465 313.032 624.809 312.744 625.769 312.296C626.729 311.784 627.401 310.952 627.785 309.8C628.169 308.584 628.361 306.92 628.361 304.808V295.208H637.001V302.888ZM671.733 317.864C667.381 317.864 663.573 316.936 660.309 315.08C657.045 313.16 654.517 310.504 652.725 307.112C650.933 303.656 650.037 299.624 650.037 295.016C650.037 290.664 650.965 286.76 652.821 283.304C654.677 279.848 657.237 277.128 660.501 275.144C663.765 273.16 667.509 272.168 671.733 272.168C676.277 272.168 680.149 273.128 683.349 275.048C686.613 276.968 689.109 279.656 690.837 283.112C692.565 286.504 693.429 290.472 693.429 295.016C693.429 299.368 692.501 303.272 690.645 306.728C688.853 310.184 686.325 312.904 683.061 314.888C679.861 316.872 676.085 317.864 671.733 317.864ZM672.501 313.256C676.341 313.256 679.189 311.688 681.045 308.552C682.901 305.352 683.829 301.224 683.829 296.168C683.829 292.2 683.221 288.776 682.005 285.896C680.853 282.952 679.285 280.712 677.301 279.176C675.317 277.576 673.141 276.776 670.773 276.776C667.061 276.776 664.277 278.28 662.421 281.288C660.629 284.296 659.733 288.2 659.733 293C659.733 297.288 660.245 300.968 661.269 304.04C662.357 307.048 663.861 309.352 665.781 310.952C667.701 312.488 669.941 313.256 672.501 313.256ZM712.747 302.888C712.747 305.64 713.035 307.752 713.611 309.224C714.187 310.632 715.115 311.624 716.395 312.2C717.675 312.712 719.307 313.032 721.291 313.16C721.483 313.672 721.611 314.28 721.675 314.984C721.739 315.624 721.771 316.392 721.771 317.288C720.811 317.224 719.659 317.16 718.315 317.096C717.035 317.096 715.659 317.064 714.187 317C712.715 317 711.211 317 709.675 317C707.435 317 705.067 317 702.571 317C700.139 317.064 698.283 317.16 697.003 317.288C697.003 316.392 697.035 315.624 697.099 314.984C697.163 314.28 697.291 313.672 697.483 313.16C699.211 313.032 700.555 312.744 701.515 312.296C702.475 311.784 703.147 310.952 703.531 309.8C703.915 308.584 704.107 306.92 704.107 304.808V295.208H712.747V302.888ZM712.747 288.872V296.456H704.107V285.8L712.747 276.392C712.747 278.568 712.555 280.552 712.171 282.344C711.787 284.072 711.435 285.8 711.115 287.528L712.747 288.872ZM710.635 288.104C711.339 286.312 711.883 284.84 712.267 283.688C712.651 282.536 713.067 281.576 713.515 280.808C714.923 278.568 716.587 276.712 718.507 275.24C720.427 273.768 722.635 273.032 725.131 273.032C727.563 273.032 729.771 273.8 731.755 275.336C731.627 276.36 731.499 277.544 731.371 278.888C731.243 280.232 731.147 281.576 731.083 282.92C731.083 284.264 731.083 285.512 731.083 286.664C730.507 286.856 729.707 287.048 728.683 287.24C727.723 287.432 726.699 287.528 725.611 287.528C725.483 284.456 724.971 282.44 724.075 281.48C723.243 280.52 722.187 280.04 720.907 280.04C719.819 280.04 718.635 280.68 717.355 281.96C716.075 283.176 714.987 284.808 714.091 286.856C713.195 288.904 712.747 291.176 712.747 293.672L710.635 288.104ZM704.107 296.456V285.8C704.107 284.264 703.947 283.016 703.627 282.056C703.307 281.096 702.635 280.36 701.611 279.848C700.587 279.336 699.019 279.048 696.907 278.984C696.907 278.28 696.971 277.64 697.099 277.064C697.227 276.488 697.451 275.944 697.771 275.432C699.755 275.304 702.027 274.92 704.587 274.28C707.147 273.64 709.163 272.936 710.635 272.168C711.211 272.36 711.691 272.776 712.075 273.416C712.523 273.992 712.747 274.984 712.747 276.392L704.107 296.456ZM765.177 317.864C761.401 317.864 758.585 316.904 756.729 314.984C754.937 313 754.041 309.832 754.041 305.48V279.464C753.081 279.144 752.089 278.888 751.065 278.696C750.041 278.44 748.729 278.28 747.129 278.216C747.129 277.384 747.193 276.68 747.321 276.104C747.449 275.464 747.673 274.76 747.993 273.992H754.041V261.32C755.321 261 756.569 260.488 757.785 259.784C759.065 259.08 760.185 258.312 761.145 257.48C761.785 257.736 762.201 258.12 762.393 258.632C762.585 259.144 762.681 260.424 762.681 262.472V273.992H775.161C775.161 274.632 775.097 275.336 774.969 276.104C774.841 276.808 774.617 277.512 774.297 278.216C771.993 278.28 769.881 278.44 767.961 278.696C766.041 278.888 764.281 279.144 762.681 279.464V303.464C762.681 305.576 762.905 307.336 763.353 308.744C763.801 310.088 764.441 311.08 765.273 311.72C766.105 312.36 767.097 312.68 768.249 312.68C769.593 312.68 770.745 312.488 771.705 312.104C772.729 311.72 773.689 311.144 774.585 310.376C775.417 311.336 775.897 312.392 776.025 313.544C775.001 314.76 773.433 315.784 771.321 316.616C769.273 317.448 767.225 317.864 765.177 317.864ZM822.641 304.808C822.641 308.136 823.089 310.376 823.985 311.528C824.945 312.616 826.385 313.16 828.305 313.16C828.497 313.736 828.625 314.344 828.689 314.984C828.753 315.624 828.785 316.392 828.785 317.288C827.377 317.16 825.777 317.064 823.985 317C822.193 317 820.305 317 818.321 317C817.041 317 815.697 317 814.289 317C812.881 317.064 811.537 317.096 810.257 317.096C809.041 317.16 807.921 317.224 806.897 317.288C806.897 316.392 806.929 315.624 806.993 314.984C807.057 314.28 807.185 313.672 807.377 313.16C809.681 313.16 811.345 312.584 812.369 311.432C813.457 310.216 814.001 308.008 814.001 304.808V290.216C814.001 285.672 813.169 282.6 811.505 281C809.841 279.336 807.697 278.504 805.073 278.504C803.409 278.504 801.745 279.048 800.081 280.136C798.417 281.16 797.009 282.856 795.857 285.224C794.769 287.528 794.225 290.632 794.225 294.536V304.808C794.225 308.008 794.705 310.216 795.665 311.432C796.625 312.584 798.353 313.16 800.849 313.16C801.041 313.736 801.169 314.344 801.233 314.984C801.297 315.624 801.329 316.392 801.329 317.288C800.433 317.224 799.345 317.16 798.065 317.096C796.785 317.096 795.441 317.064 794.033 317C792.625 317 791.249 317 789.905 317C788.625 317 787.281 317 785.873 317C784.465 317.064 783.121 317.096 781.841 317.096C780.561 317.16 779.441 317.224 778.481 317.288C778.481 316.392 778.513 315.624 778.577 314.984C778.641 314.28 778.769 313.672 778.961 313.16C781.457 313.16 783.185 312.584 784.145 311.432C785.105 310.216 785.585 308.008 785.585 304.808V285.8L794.225 276.392C794.225 277.16 794.193 278.024 794.129 278.984C794.065 279.944 793.873 280.968 793.553 282.056C793.745 281.736 793.937 281.384 794.129 281C794.321 280.552 794.609 280.072 794.993 279.56C796.081 278.088 797.809 276.584 800.177 275.048C802.609 273.448 805.521 272.648 808.913 272.648C811.345 272.648 813.585 273.16 815.633 274.184C817.745 275.144 819.441 276.776 820.721 279.08C822.001 281.32 822.641 284.392 822.641 288.296V304.808ZM785.585 261.8C785.585 260.264 785.425 259.016 785.105 258.056C784.849 257.032 784.209 256.264 783.185 255.752C782.161 255.24 780.561 254.984 778.385 254.984C778.385 254.28 778.449 253.64 778.577 253.064C778.705 252.488 778.929 251.944 779.249 251.432C780.209 251.432 781.553 251.272 783.281 250.952C785.073 250.632 786.801 250.216 788.465 249.704C790.129 249.192 791.345 248.68 792.113 248.168C792.689 248.36 793.169 248.744 793.553 249.32C794.001 249.896 794.225 250.792 794.225 252.008V265.352H785.585V261.8ZM785.585 261.8H794.225V276.392L785.585 287.24V261.8ZM852.564 317.864C848.02 317.864 844.244 316.84 841.236 314.792C838.228 312.744 835.956 309.992 834.42 306.536C832.948 303.016 832.212 299.176 832.212 295.016C832.212 290.92 833.012 287.144 834.612 283.688C836.212 280.232 838.484 277.448 841.428 275.336C844.436 273.224 847.988 272.168 852.084 272.168C856.244 272.168 859.572 273.064 862.068 274.856C864.628 276.648 866.517 279.048 867.733 282.056C869.012 285.064 869.78 288.392 870.036 292.04C869.78 293.32 869.3 294.408 868.597 295.304C867.508 295.304 865.876 295.304 863.701 295.304C861.524 295.304 859.06 295.336 856.308 295.4C853.556 295.4 850.74 295.464 847.86 295.592C844.98 295.656 842.26 295.752 839.7 295.88V290.984H860.052C860.052 286.76 859.284 283.336 857.748 280.712C856.212 278.088 854.036 276.776 851.22 276.776C849.684 276.776 848.18 277.256 846.708 278.216C845.236 279.112 844.02 280.744 843.06 283.112C842.1 285.416 841.62 288.712 841.62 293C841.62 296.136 842.004 299.208 842.772 302.216C843.604 305.16 845.012 307.624 846.996 309.608C849.044 311.528 851.924 312.488 855.636 312.488C857.748 312.488 859.828 312.008 861.876 311.048C863.924 310.088 865.748 308.712 867.348 306.92C867.861 307.176 868.341 307.624 868.789 308.264C869.3 308.84 869.588 309.384 869.652 309.896C867.476 312.776 864.948 314.824 862.068 316.04C859.252 317.256 856.084 317.864 852.564 317.864ZM930.404 312.968C928.74 314.504 926.436 315.72 923.492 316.616C920.548 317.448 917.284 317.864 913.7 317.864C908.452 317.864 903.908 317.064 900.068 315.464C896.292 313.8 893.38 311.304 891.332 307.976C889.284 304.648 888.26 300.392 888.26 295.208C888.26 291.368 889.156 287.688 890.948 284.168C892.74 280.648 895.428 277.768 899.012 275.528C902.596 273.288 907.108 272.168 912.548 272.168C916.452 272.168 919.748 272.488 922.436 273.128C925.188 273.768 927.684 274.696 929.924 275.912C929.476 277.704 929.156 279.592 928.964 281.576C928.772 283.496 928.676 285.832 928.676 288.584C927.204 289.224 925.572 289.672 923.78 289.928C921.988 290.12 920.26 290.216 918.596 290.216C918.596 286.504 918.084 283.72 917.06 281.864C916.036 280.008 914.692 279.08 913.028 279.08C910.788 279.08 909.092 280.52 907.94 283.4C906.788 286.216 906.212 289.704 906.212 293.864C906.212 296.296 906.596 298.696 907.364 301.064C908.196 303.368 909.508 305.288 911.3 306.824C913.156 308.296 915.588 309.032 918.596 309.032C920.644 309.032 922.468 308.84 924.068 308.456C925.668 308.008 927.044 307.464 928.196 306.824C928.9 307.528 929.444 308.424 929.828 309.512C930.212 310.536 930.404 311.688 930.404 312.968ZM956.648 317.864C950.952 317.864 946.184 316.968 942.344 315.176C938.504 313.384 935.624 310.856 933.704 307.592C931.848 304.264 930.92 300.36 930.92 295.88C930.92 290.44 932.104 285.992 934.472 282.536C936.84 279.016 940.04 276.424 944.072 274.76C948.104 273.032 952.584 272.168 957.512 272.168C963.4 272.168 968.264 273.128 972.104 275.048C975.944 276.968 978.792 279.592 980.648 282.92C982.568 286.184 983.528 289.96 983.528 294.248C983.528 299.24 982.44 303.496 980.264 307.016C978.152 310.536 975.08 313.224 971.048 315.08C967.016 316.936 962.216 317.864 956.648 317.864ZM958.472 310.472C960.648 310.472 962.312 309.224 963.464 306.728C964.68 304.168 965.288 301.064 965.288 297.416C965.288 293.256 964.84 289.832 963.944 287.144C963.048 284.392 961.896 282.376 960.488 281.096C959.144 279.752 957.672 279.08 956.072 279.08C953.704 279.08 951.944 280.392 950.792 283.016C949.704 285.576 949.16 288.648 949.16 292.232C949.16 295.496 949.48 298.536 950.12 301.352C950.824 304.104 951.88 306.312 953.288 307.976C954.696 309.64 956.424 310.472 958.472 310.472ZM1013.81 272.168C1014.96 272.168 1016.08 272.232 1017.17 272.36C1018.32 272.488 1019.5 272.712 1020.72 273.032V283.4C1019.76 281.928 1018.73 280.84 1017.65 280.136C1016.62 279.368 1015.37 278.984 1013.9 278.984C1012.81 278.984 1011.66 279.208 1010.45 279.656C1009.29 280.104 1008.21 280.904 1007.18 282.056C1006.22 283.208 1005.42 284.904 1004.78 287.144C1004.14 289.32 1003.82 292.168 1003.82 295.688C1003.82 297.736 1004.01 299.752 1004.4 301.736C1004.85 303.656 1005.61 305.256 1006.7 306.536C1007.79 307.816 1009.33 308.456 1011.31 308.456C1012.72 308.456 1014.06 308.008 1015.34 307.112C1016.69 306.152 1017.77 304.616 1018.61 302.504C1019.5 300.392 1019.95 297.544 1019.95 293.96L1024.56 303.56C1023.34 306.44 1022.16 308.712 1021.01 310.376C1019.85 311.976 1018.67 313.224 1017.45 314.12C1016.69 314.696 1015.66 315.272 1014.38 315.848C1013.17 316.424 1011.76 316.904 1010.16 317.288C1008.62 317.672 1006.96 317.864 1005.17 317.864C1001.52 317.864 998.19 317.192 995.182 315.848C992.238 314.504 989.87 312.424 988.078 309.608C986.35 306.728 985.486 303.016 985.486 298.472C985.486 293.16 986.67 288.552 989.038 284.648C991.406 280.68 994.702 277.608 998.926 275.432C1003.21 273.256 1008.17 272.168 1013.81 272.168ZM1038.19 298.184C1038.19 300.68 1038.32 302.568 1038.57 303.848C1038.83 305.064 1039.34 305.896 1040.11 306.344C1040.88 306.728 1042.03 306.952 1043.57 307.016C1043.82 308.424 1043.85 309.768 1043.66 311.048C1043.53 312.328 1043.15 313.512 1042.51 314.6C1039.57 314.664 1036.62 314.952 1033.68 315.464C1030.73 315.976 1027.92 316.776 1025.23 317.864C1023.82 317.352 1022.86 316.648 1022.35 315.752C1021.84 314.792 1021.58 313.672 1021.58 312.392C1021.58 311.112 1021.74 309.736 1022.06 308.264C1022.45 306.728 1022.89 305.352 1023.41 304.136L1038.19 298.184ZM1038.19 262.568V304.328H1019.95V262.568H1038.19ZM1034.83 248.168C1035.92 248.616 1036.75 249.352 1037.33 250.376C1037.9 251.336 1038.19 252.648 1038.19 254.312V265.544H1019.95V265.256C1019.95 263.784 1019.76 262.6 1019.37 261.704C1018.99 260.744 1018.29 260.04 1017.26 259.592C1016.24 259.08 1014.77 258.728 1012.85 258.536C1012.85 257.32 1012.91 256.072 1013.04 254.792C1013.23 253.512 1013.58 252.36 1014.09 251.336C1017.29 251.336 1020.27 251.176 1023.02 250.856C1025.77 250.536 1028.17 250.152 1030.22 249.704C1032.27 249.192 1033.81 248.68 1034.83 248.168ZM1069.72 317.864C1063.57 317.864 1058.61 316.904 1054.84 314.984C1051.12 313 1048.4 310.344 1046.68 307.016C1044.95 303.624 1044.08 299.784 1044.08 295.496C1044.08 290.568 1045.08 286.376 1047.06 282.92C1049.04 279.464 1051.86 276.808 1055.51 274.952C1059.22 273.096 1063.54 272.168 1068.47 272.168C1073.46 272.168 1077.56 273.032 1080.76 274.76C1084.02 276.488 1086.45 278.952 1088.05 282.152C1089.65 285.288 1090.48 288.968 1090.55 293.192C1089.97 295.56 1088.92 297.448 1087.38 298.856C1085.27 298.856 1083 298.888 1080.56 298.952C1078.13 298.952 1075.64 298.984 1073.08 299.048C1070.52 299.048 1067.96 299.112 1065.4 299.24C1062.84 299.368 1060.37 299.528 1058 299.72V292.136H1074.71C1074.71 287.784 1074.2 284.552 1073.17 282.44C1072.21 280.328 1070.74 279.272 1068.76 279.272C1067.28 279.272 1066.04 279.816 1065.01 280.904C1064.05 281.992 1063.32 283.528 1062.8 285.512C1062.36 287.496 1062.13 289.832 1062.13 292.52C1062.13 295.912 1062.55 298.856 1063.38 301.352C1064.28 303.848 1065.65 305.768 1067.51 307.112C1069.43 308.392 1071.92 309.032 1075 309.032C1077.3 309.032 1079.6 308.68 1081.91 307.976C1084.21 307.272 1086.07 306.408 1087.48 305.384C1088.18 305.832 1088.79 306.696 1089.3 307.976C1089.81 309.256 1090.07 310.6 1090.07 312.008C1087.44 313.8 1084.5 315.24 1081.24 316.328C1077.97 317.352 1074.13 317.864 1069.72 317.864Z" fill="#461000"/>
<rect x="503" y="101" width="100" height="68" rx="7" fill="#522357" stroke="#9747FF" stroke-width="2"/>
<rect x="216" y="205" width="75" height="68" rx="7" fill="#029B31" stroke="#73CF11" stroke-width="2"/>
<rect x="356" y="275" width="75" height="68" rx="7" fill="#62432B" stroke="#C48971" stroke-width="2"/>
<rect x="235" y="292" width="95" height="68" rx="7" fill="#F2312F" stroke="#F19F9F" stroke-width="2"/>
<rect x="994" y="162" width="100" height="68" rx="7" fill="#4373B7" stroke="#4C85D7" stroke-width="2"/>
<rect x="1104" y="279" width="100" height="68" rx="7" fill="#FDD240" stroke="#E3A60D" stroke-width="2"/>
<rect x="1218" y="231" width="63" height="68" rx="7" fill="#FF8301" stroke="#FBAF5F" stroke-width="2"/>
<path d="M547.709 149.336C544.221 147.224 540.893 145.304 537.725 143.576C534.589 141.816 531.581 140.216 528.701 138.776C528.445 137.176 528.717 135.672 529.517 134.264L545.741 124.856C547.309 125.176 548.701 126.056 549.917 127.496L533.837 136.52L548.381 144.104C548.541 144.968 548.573 145.928 548.477 146.984C548.381 148.008 548.125 148.792 547.709 149.336ZM558.548 148.952C557.94 148.408 557.476 147.784 557.156 147.08C556.868 146.344 556.74 145.528 556.772 144.632L572.372 135.656L572.324 137.432L556.148 127.592C556.436 126.92 556.884 126.296 557.492 125.72C558.132 125.112 558.836 124.68 559.604 124.424L575.732 134.888C576.116 136.392 575.892 137.8 575.06 139.112C573.236 140.072 571.46 141.048 569.732 142.04C568.036 143.032 566.292 144.088 564.5 145.208C562.708 146.296 560.724 147.544 558.548 148.952Z" fill="white"/>
<path d="M1029.08 210.336C1025.59 208.224 1022.26 206.304 1019.09 204.576C1015.96 202.816 1012.95 201.216 1010.07 199.776C1009.81 198.176 1010.08 196.672 1010.88 195.264L1027.11 185.856C1028.68 186.176 1030.07 187.056 1031.28 188.496L1015.2 197.52L1029.75 205.104C1029.91 205.968 1029.94 206.928 1029.84 207.984C1029.75 209.008 1029.49 209.792 1029.08 210.336ZM1039.44 210.432C1037.55 210.432 1036.16 210.16 1035.26 209.616L1047.98 175.584C1048.72 175.584 1049.42 175.68 1050.09 175.872C1050.8 176.064 1051.42 176.32 1051.96 176.64L1039.44 210.432ZM1059.18 209.952C1058.57 209.408 1058.11 208.784 1057.79 208.08C1057.5 207.344 1057.37 206.528 1057.4 205.632L1073 196.656L1072.96 198.432L1056.78 188.592C1057.07 187.92 1057.52 187.296 1058.12 186.72C1058.76 186.112 1059.47 185.68 1060.24 185.424L1076.36 195.888C1076.75 197.392 1076.52 198.8 1075.69 200.112C1073.87 201.072 1072.09 202.048 1070.36 203.04C1068.67 204.032 1066.92 205.088 1065.13 206.208C1063.34 207.296 1061.36 208.544 1059.18 209.952Z" fill="white"/>
<path d="M231.513 247.06C231.513 246.82 231.533 246.547 231.573 246.24C231.613 245.933 231.66 245.687 231.713 245.5C232.073 245.473 232.347 245.407 232.533 245.3C232.72 245.18 232.84 244.967 232.893 244.66C232.96 244.34 232.993 243.873 232.993 243.26V237.18C232.993 236.58 232.96 236.133 232.893 235.84C232.84 235.547 232.72 235.347 232.533 235.24C232.347 235.12 232.067 235.033 231.693 234.98C231.64 234.78 231.593 234.533 231.553 234.24C231.527 233.947 231.513 233.673 231.513 233.42C231.74 233.433 232.073 233.447 232.513 233.46C232.953 233.46 233.413 233.467 233.893 233.48C234.373 233.48 234.773 233.48 235.093 233.48C235.413 233.48 235.787 233.48 236.213 233.48C236.64 233.467 237.053 233.46 237.453 233.46C237.867 233.447 238.207 233.433 238.473 233.42C238.473 233.687 238.467 233.947 238.453 234.2C238.44 234.453 238.387 234.713 238.293 234.98C237.933 235.02 237.66 235.1 237.473 235.22C237.287 235.327 237.16 235.533 237.093 235.84C237.027 236.133 236.993 236.58 236.993 237.18V243.26C236.993 243.873 237.027 244.34 237.093 244.66C237.173 244.967 237.307 245.18 237.493 245.3C237.68 245.407 237.953 245.473 238.313 245.5C238.367 245.673 238.407 245.913 238.433 246.22C238.46 246.513 238.473 246.793 238.473 247.06C238.18 247.033 237.747 247.013 237.173 247C236.613 247 235.987 247 235.293 247C234.6 247 233.913 247 233.233 247C232.553 247.013 231.98 247.033 231.513 247.06ZM223.633 247.06C223.633 246.82 223.653 246.547 223.693 246.24C223.733 245.933 223.78 245.687 223.833 245.5C224.193 245.473 224.467 245.407 224.653 245.3C224.84 245.18 224.96 244.967 225.013 244.66C225.08 244.34 225.113 243.873 225.113 243.26V237.18C225.113 236.58 225.08 236.133 225.013 235.84C224.96 235.547 224.84 235.347 224.653 235.24C224.467 235.12 224.187 235.033 223.813 234.98C223.76 234.78 223.713 234.533 223.673 234.24C223.647 233.947 223.633 233.673 223.633 233.42C223.86 233.433 224.193 233.447 224.633 233.46C225.073 233.46 225.533 233.467 226.013 233.48C226.493 233.48 226.893 233.48 227.213 233.48C227.533 233.48 227.907 233.48 228.333 233.48C228.76 233.467 229.173 233.46 229.573 233.46C229.987 233.447 230.327 233.433 230.593 233.42C230.593 233.687 230.587 233.947 230.573 234.2C230.56 234.453 230.507 234.713 230.413 234.98C230.053 235.02 229.78 235.1 229.593 235.22C229.407 235.327 229.28 235.533 229.213 235.84C229.147 236.133 229.113 236.58 229.113 237.18V243.26C229.113 243.873 229.147 244.34 229.213 244.66C229.28 244.967 229.407 245.18 229.593 245.3C229.793 245.407 230.073 245.473 230.433 245.5C230.487 245.673 230.527 245.913 230.553 246.22C230.58 246.513 230.593 246.793 230.593 247.06C230.3 247.033 229.867 247.013 229.293 247C228.733 247 228.107 247 227.413 247C226.72 247 226.033 247 225.353 247C224.673 247.013 224.1 247.033 223.633 247.06ZM229.033 241V239.22H233.113V240.8C232.78 240.8 232.433 240.807 232.073 240.82C231.713 240.82 231.353 240.827 230.993 240.84C230.633 240.853 230.287 240.873 229.953 240.9C229.62 240.927 229.313 240.96 229.033 241ZM243.719 234.98C243.239 234.98 242.832 235.073 242.499 235.26C242.179 235.447 241.912 235.727 241.699 236.1C241.499 236.473 241.326 236.953 241.179 237.54C240.806 237.54 240.439 237.527 240.079 237.5C239.719 237.46 239.399 237.373 239.119 237.24C239.266 236.693 239.386 236.06 239.479 235.34C239.572 234.62 239.619 233.98 239.619 233.42C240.179 233.433 240.732 233.447 241.279 233.46C241.826 233.473 242.459 233.48 243.179 233.48C243.899 233.48 244.799 233.48 245.879 233.48C246.839 233.48 247.672 233.48 248.379 233.48C249.099 233.467 249.746 233.46 250.319 233.46C250.906 233.447 251.472 233.433 252.019 233.42C252.019 233.98 252.059 234.607 252.139 235.3C252.232 235.98 252.352 236.62 252.499 237.22C252.232 237.327 251.919 237.407 251.559 237.46C251.212 237.513 250.832 237.54 250.419 237.54C250.246 236.633 249.992 235.98 249.659 235.58C249.339 235.18 248.839 234.98 248.159 234.98H243.719ZM243.759 234.18H247.759V243.26C247.759 243.873 247.806 244.34 247.899 244.66C248.006 244.967 248.199 245.18 248.479 245.3C248.759 245.407 249.172 245.473 249.719 245.5C249.786 245.673 249.832 245.913 249.859 246.22C249.899 246.513 249.919 246.793 249.919 247.06C249.546 247.033 249.012 247.013 248.319 247C247.639 247 246.872 247 246.019 247C245.459 247 244.872 247 244.259 247C243.659 247.013 243.106 247.02 242.599 247.02C242.092 247.033 241.692 247.047 241.399 247.06C241.399 246.82 241.426 246.547 241.479 246.24C241.532 245.933 241.586 245.687 241.639 245.5C242.199 245.473 242.632 245.407 242.939 245.3C243.246 245.18 243.459 244.967 243.579 244.66C243.699 244.34 243.759 243.873 243.759 243.26V234.18ZM260.473 247.18L255.813 236.56H256.353L255.773 242.08C255.68 243.013 255.66 243.72 255.713 244.2C255.767 244.68 255.893 245.013 256.093 245.2C256.307 245.373 256.593 245.473 256.953 245.5C257.02 245.727 257.06 245.973 257.073 246.24C257.1 246.493 257.113 246.767 257.113 247.06C256.913 247.033 256.6 247.013 256.173 247C255.76 247 255.34 247 254.913 247C254.633 247 254.32 247 253.973 247C253.64 247.013 253.327 247.02 253.033 247.02C252.74 247.033 252.527 247.047 252.393 247.06C252.393 246.767 252.407 246.493 252.433 246.24C252.46 245.973 252.5 245.727 252.553 245.5C252.9 245.473 253.18 245.367 253.393 245.18C253.62 244.98 253.8 244.64 253.933 244.16C254.08 243.68 254.193 243.013 254.273 242.16L254.713 237.28C254.78 236.64 254.787 236.153 254.733 235.82C254.68 235.487 254.553 235.267 254.353 235.16C254.153 235.04 253.86 234.98 253.473 234.98C253.407 234.74 253.36 234.5 253.333 234.26C253.32 234.02 253.313 233.74 253.313 233.42C253.513 233.433 253.793 233.447 254.153 233.46C254.513 233.46 254.873 233.467 255.233 233.48C255.607 233.48 255.9 233.48 256.113 233.48C256.327 233.48 256.62 233.48 256.993 233.48C257.38 233.467 257.747 233.46 258.093 233.46C258.453 233.447 258.7 233.433 258.833 233.42L262.853 243H262.113L265.573 233.42C265.813 233.433 266.12 233.447 266.493 233.46C266.867 233.46 267.233 233.467 267.593 233.48C267.953 233.48 268.24 233.48 268.453 233.48C268.667 233.48 268.947 233.48 269.293 233.48C269.64 233.467 269.987 233.46 270.333 233.46C270.68 233.447 270.953 233.433 271.153 233.42C271.153 233.7 271.14 233.98 271.113 234.26C271.1 234.54 271.06 234.78 270.993 234.98C270.38 234.98 269.987 235.147 269.813 235.48C269.653 235.8 269.62 236.407 269.713 237.3L270.273 242.78C270.353 243.567 270.44 244.147 270.533 244.52C270.64 244.893 270.787 245.14 270.973 245.26C271.173 245.367 271.453 245.44 271.813 245.48C271.867 245.707 271.9 245.953 271.913 246.22C271.94 246.473 271.953 246.753 271.953 247.06C271.82 247.047 271.593 247.033 271.273 247.02C270.953 247.02 270.587 247.013 270.173 247C269.773 247 269.38 247 268.993 247C268.607 247 268.293 247 268.053 247C267.733 247 267.36 247 266.933 247C266.52 247.013 266.127 247.02 265.753 247.02C265.393 247.033 265.133 247.047 264.973 247.06C264.973 246.727 264.987 246.447 265.013 246.22C265.053 245.98 265.1 245.74 265.153 245.5C265.567 245.447 265.867 245.36 266.053 245.24C266.24 245.12 266.347 244.893 266.373 244.56C266.4 244.213 266.373 243.693 266.293 243L265.613 236.62H266.053L261.973 247.02C261.8 247.073 261.567 247.113 261.273 247.14C260.98 247.167 260.713 247.18 260.473 247.18ZM280.134 245.5C280.588 245.5 280.974 245.407 281.294 245.22C281.628 245.033 281.908 244.74 282.134 244.34C282.361 243.94 282.561 243.42 282.734 242.78C283.174 242.82 283.581 242.907 283.954 243.04C284.328 243.16 284.601 243.3 284.774 243.46C284.628 243.913 284.501 244.46 284.394 245.1C284.288 245.74 284.208 246.387 284.154 247.04C283.768 247.027 283.268 247.02 282.654 247.02C282.054 247.02 281.421 247.013 280.754 247C280.101 247 279.494 247 278.934 247C278.588 247 278.114 247 277.514 247C276.928 247.013 276.308 247.02 275.654 247.02C275.014 247.033 274.428 247.04 273.894 247.04C273.361 247.053 272.981 247.06 272.754 247.06C272.754 246.767 272.768 246.48 272.794 246.2C272.821 245.92 272.861 245.687 272.914 245.5C273.274 245.473 273.548 245.407 273.734 245.3C273.934 245.18 274.068 244.967 274.134 244.66C274.201 244.34 274.234 243.873 274.234 243.26V237.18C274.234 236.58 274.201 236.133 274.134 235.84C274.068 235.547 273.934 235.347 273.734 235.24C273.548 235.12 273.268 235.033 272.894 234.98C272.841 234.78 272.801 234.527 272.774 234.22C272.761 233.9 272.754 233.633 272.754 233.42C273.181 233.433 273.561 233.447 273.894 233.46C274.228 233.46 274.574 233.467 274.934 233.48C275.308 233.48 275.741 233.48 276.234 233.48C276.554 233.48 276.934 233.48 277.374 233.48C277.814 233.467 278.248 233.46 278.674 233.46C279.101 233.447 279.448 233.433 279.714 233.42C279.714 233.687 279.708 233.96 279.694 234.24C279.681 234.52 279.628 234.767 279.534 234.98C279.174 235.02 278.901 235.1 278.714 235.22C278.528 235.327 278.401 235.533 278.334 235.84C278.268 236.133 278.234 236.58 278.234 237.18V243.16C278.234 243.773 278.281 244.253 278.374 244.6C278.468 244.933 278.628 245.167 278.854 245.3C279.081 245.433 279.394 245.5 279.794 245.5H280.134Z" fill="white"/>
<path d="M1137.42 325.288C1135.23 325.288 1133.3 324.819 1131.63 323.88C1129.99 322.92 1128.71 321.597 1127.79 319.912C1126.88 318.227 1126.42 316.285 1126.42 314.088C1126.42 312.275 1126.72 310.685 1127.31 309.32C1127.91 307.933 1128.72 306.781 1129.74 305.864C1130.79 304.947 1131.97 304.253 1133.3 303.784C1134.62 303.315 1136 303.08 1137.42 303.08C1138.58 303.08 1139.76 303.229 1140.98 303.528C1142.19 303.805 1143.36 304.211 1144.46 304.744C1144.34 305.469 1144.24 306.259 1144.18 307.112C1144.13 307.965 1144.11 308.829 1144.11 309.704C1143.84 309.853 1143.36 309.971 1142.67 310.056C1142.01 310.12 1141.44 310.152 1140.94 310.152C1140.94 309.043 1140.8 308.157 1140.5 307.496C1140.22 306.813 1139.82 306.323 1139.31 306.024C1138.82 305.704 1138.24 305.544 1137.55 305.544C1136.7 305.544 1135.97 305.757 1135.38 306.184C1134.78 306.611 1134.31 307.187 1133.97 307.912C1133.63 308.637 1133.37 309.459 1133.2 310.376C1133.05 311.293 1132.98 312.253 1132.98 313.256C1132.98 314.963 1133.19 316.499 1133.62 317.864C1134.06 319.229 1134.75 320.307 1135.66 321.096C1136.6 321.885 1137.82 322.28 1139.31 322.28C1140.04 322.28 1140.8 322.173 1141.58 321.96C1142.4 321.747 1143.22 321.405 1144.05 320.936C1144.28 321.149 1144.48 321.416 1144.62 321.736C1144.77 322.035 1144.88 322.355 1144.94 322.696C1144.18 323.357 1143.16 323.955 1141.9 324.488C1140.65 325.021 1139.15 325.288 1137.42 325.288ZM1154.35 325.288C1152.92 325.288 1151.54 325.139 1150.22 324.84C1148.92 324.52 1147.67 324.061 1146.47 323.464C1146.67 322.589 1146.78 321.693 1146.83 320.776C1146.89 319.837 1146.92 318.931 1146.92 318.056C1147.54 317.885 1148.19 317.779 1148.87 317.736C1149.56 317.672 1150.22 317.64 1150.86 317.64C1150.96 318.984 1151.11 320.019 1151.31 320.744C1151.52 321.469 1151.85 321.971 1152.3 322.248C1152.77 322.525 1153.4 322.664 1154.19 322.664C1155.27 322.664 1156.05 322.44 1156.52 321.992C1157.01 321.544 1157.26 321.053 1157.26 320.52C1157.26 319.965 1157 319.496 1156.49 319.112C1156 318.707 1155.36 318.333 1154.57 317.992C1153.8 317.629 1152.98 317.245 1152.11 316.84C1151.23 316.413 1150.4 315.901 1149.61 315.304C1148.84 314.685 1148.2 313.928 1147.69 313.032C1147.2 312.136 1146.95 311.027 1146.95 309.704C1146.95 308.083 1147.32 306.792 1148.04 305.832C1148.77 304.872 1149.72 304.179 1150.89 303.752C1152.08 303.304 1153.38 303.08 1154.76 303.08C1155.57 303.08 1156.4 303.144 1157.26 303.272C1158.11 303.4 1158.9 303.571 1159.63 303.784C1160.37 303.976 1160.95 304.211 1161.35 304.488C1161.35 305.405 1161.36 306.323 1161.39 307.24C1161.43 308.136 1161.49 308.829 1161.58 309.32C1161.13 309.597 1160.54 309.789 1159.82 309.896C1159.09 310.003 1158.45 310.056 1157.9 310.056C1157.73 308.904 1157.47 308.008 1157.13 307.368C1156.81 306.728 1156.42 306.28 1155.95 306.024C1155.48 305.768 1154.93 305.64 1154.31 305.64C1153.65 305.64 1153.08 305.789 1152.59 306.088C1152.12 306.387 1151.88 306.856 1151.88 307.496C1151.88 308.136 1152.15 308.68 1152.68 309.128C1153.22 309.576 1153.9 309.992 1154.73 310.376C1155.58 310.739 1156.48 311.133 1157.42 311.56C1158.38 311.987 1159.27 312.509 1160.11 313.128C1160.96 313.725 1161.65 314.472 1162.19 315.368C1162.72 316.243 1162.99 317.341 1162.99 318.664C1162.99 320.029 1162.66 321.213 1161.99 322.216C1161.33 323.197 1160.36 323.955 1159.08 324.488C1157.8 325.021 1156.22 325.288 1154.35 325.288ZM1172.41 325.288C1170.98 325.288 1169.6 325.139 1168.28 324.84C1166.98 324.52 1165.73 324.061 1164.54 323.464C1164.73 322.589 1164.85 321.693 1164.89 320.776C1164.95 319.837 1164.98 318.931 1164.98 318.056C1165.6 317.885 1166.25 317.779 1166.94 317.736C1167.62 317.672 1168.28 317.64 1168.92 317.64C1169.03 318.984 1169.18 320.019 1169.37 320.744C1169.58 321.469 1169.91 321.971 1170.36 322.248C1170.83 322.525 1171.46 322.664 1172.25 322.664C1173.34 322.664 1174.12 322.44 1174.58 321.992C1175.08 321.544 1175.32 321.053 1175.32 320.52C1175.32 319.965 1175.06 319.496 1174.55 319.112C1174.06 318.707 1173.42 318.333 1172.63 317.992C1171.86 317.629 1171.04 317.245 1170.17 316.84C1169.29 316.413 1168.46 315.901 1167.67 315.304C1166.9 314.685 1166.26 313.928 1165.75 313.032C1165.26 312.136 1165.02 311.027 1165.02 309.704C1165.02 308.083 1165.38 306.792 1166.1 305.832C1166.83 304.872 1167.78 304.179 1168.95 303.752C1170.15 303.304 1171.44 303.08 1172.82 303.08C1173.64 303.08 1174.47 303.144 1175.32 303.272C1176.17 303.4 1176.96 303.571 1177.69 303.784C1178.44 303.976 1179.01 304.211 1179.42 304.488C1179.42 305.405 1179.43 306.323 1179.45 307.24C1179.49 308.136 1179.56 308.829 1179.64 309.32C1179.19 309.597 1178.61 309.789 1177.88 309.896C1177.16 310.003 1176.52 310.056 1175.96 310.056C1175.79 308.904 1175.53 308.008 1175.19 307.368C1174.87 306.728 1174.48 306.28 1174.01 306.024C1173.54 305.768 1173 305.64 1172.38 305.64C1171.72 305.64 1171.14 305.789 1170.65 306.088C1170.18 306.387 1169.94 306.856 1169.94 307.496C1169.94 308.136 1170.21 308.68 1170.74 309.128C1171.28 309.576 1171.96 309.992 1172.79 310.376C1173.65 310.739 1174.54 311.133 1175.48 311.56C1176.44 311.987 1177.34 312.509 1178.17 313.128C1179.02 313.725 1179.72 314.472 1180.25 315.368C1180.78 316.243 1181.05 317.341 1181.05 318.664C1181.05 320.029 1180.72 321.213 1180.06 322.216C1179.4 323.197 1178.42 323.955 1177.14 324.488C1175.86 325.021 1174.29 325.288 1172.41 325.288Z" fill="#5A1F06"/>
<path d="M1247.41 284.32C1245.54 284.027 1244.01 283.587 1242.81 283C1241.63 282.44 1240.73 281.76 1240.09 280.96C1239.45 280.187 1238.99 279.347 1238.73 278.44C1238.49 277.56 1238.35 276.667 1238.33 275.76C1238.3 274.8 1238.33 273.84 1238.41 272.88C1238.51 271.92 1238.55 270.987 1238.53 270.08C1238.5 268.827 1238.22 267.707 1237.69 266.72C1237.18 265.733 1236.11 264.987 1234.49 264.48C1234.49 264.24 1234.49 263.827 1234.49 263.24C1234.51 262.653 1234.58 262.24 1234.69 262C1236.23 261.493 1237.26 260.787 1237.77 259.88C1238.3 258.973 1238.58 257.947 1238.61 256.8C1238.63 255.867 1238.58 254.893 1238.45 253.88C1238.31 252.84 1238.26 251.813 1238.29 250.8C1238.31 249.947 1238.43 249.12 1238.65 248.32C1238.86 247.52 1239.26 246.787 1239.85 246.12C1240.43 245.427 1241.29 244.8 1242.41 244.24C1243.55 243.68 1245.05 243.213 1246.89 242.84C1247.23 243.107 1247.46 243.52 1247.57 244.08C1247.67 244.613 1247.73 245.12 1247.73 245.6C1246.37 246.027 1245.46 246.68 1245.01 247.56C1244.55 248.413 1244.34 249.373 1244.37 250.44C1244.39 251.613 1244.55 252.853 1244.85 254.16C1245.14 255.467 1245.29 256.707 1245.29 257.88C1245.29 258.733 1245.13 259.533 1244.81 260.28C1244.51 261 1243.97 261.613 1243.17 262.12C1242.37 262.6 1241.22 262.947 1239.73 263.16C1241.22 263.373 1242.37 263.747 1243.17 264.28C1243.97 264.813 1244.53 265.453 1244.85 266.2C1245.17 266.947 1245.33 267.76 1245.33 268.64C1245.35 269.84 1245.23 271.107 1244.97 272.44C1244.7 273.773 1244.55 275.027 1244.53 276.2C1244.5 277.32 1244.71 278.32 1245.17 279.2C1245.65 280.08 1246.58 280.72 1247.97 281.12C1248.13 281.627 1248.17 282.16 1248.09 282.72C1248.01 283.28 1247.78 283.813 1247.41 284.32ZM1252.6 284.32C1252.23 283.813 1252 283.28 1251.92 282.72C1251.84 282.16 1251.88 281.627 1252.04 281.12C1253.45 280.72 1254.39 280.08 1254.84 279.2C1255.29 278.32 1255.51 277.32 1255.48 276.2C1255.45 275.027 1255.31 273.773 1255.04 272.44C1254.77 271.107 1254.65 269.84 1254.68 268.64C1254.71 267.76 1254.87 266.947 1255.16 266.2C1255.48 265.453 1256.04 264.813 1256.84 264.28C1257.67 263.747 1258.81 263.373 1260.28 263.16C1258.79 262.947 1257.64 262.6 1256.84 262.12C1256.04 261.613 1255.48 261 1255.16 260.28C1254.87 259.533 1254.72 258.733 1254.72 257.88C1254.72 256.707 1254.87 255.467 1255.16 254.16C1255.45 252.853 1255.61 251.613 1255.64 250.44C1255.67 249.373 1255.45 248.413 1255 247.56C1254.55 246.68 1253.64 246.027 1252.28 245.6C1252.28 245.12 1252.33 244.613 1252.44 244.08C1252.55 243.52 1252.77 243.107 1253.12 242.84C1254.96 243.213 1256.44 243.68 1257.56 244.24C1258.71 244.8 1259.57 245.427 1260.16 246.12C1260.75 246.787 1261.15 247.52 1261.36 248.32C1261.57 249.12 1261.69 249.947 1261.72 250.8C1261.75 251.813 1261.69 252.84 1261.56 253.88C1261.43 254.893 1261.37 255.867 1261.4 256.8C1261.45 257.947 1261.73 258.973 1262.24 259.88C1262.75 260.787 1263.77 261.493 1265.32 262C1265.43 262.24 1265.48 262.653 1265.48 263.24C1265.51 263.827 1265.52 264.24 1265.52 264.48C1263.89 264.987 1262.83 265.733 1262.32 266.72C1261.81 267.707 1261.53 268.827 1261.48 270.08C1261.45 270.987 1261.48 271.92 1261.56 272.88C1261.67 273.84 1261.71 274.8 1261.68 275.76C1261.65 276.667 1261.51 277.56 1261.24 278.44C1261 279.347 1260.56 280.187 1259.92 280.96C1259.28 281.76 1258.36 282.44 1257.16 283C1255.99 283.587 1254.47 284.027 1252.6 284.32Z" fill="#5A1F06"/>
<path d="M386.677 315.14C386.677 316.796 386.545 318.32 386.281 319.712C386.041 321.08 385.585 322.316 384.913 323.42C384.241 324.548 383.269 325.568 381.997 326.48C380.749 327.392 379.105 328.22 377.065 328.964C376.633 328.628 376.321 328.232 376.129 327.776C375.913 327.32 375.781 326.828 375.733 326.3C376.621 325.7 377.329 325.064 377.857 324.392C378.409 323.72 378.817 322.868 379.081 321.836C379.345 320.804 379.477 319.448 379.477 317.768V302.432C379.477 301.304 379.417 300.464 379.297 299.912C379.177 299.36 378.949 298.988 378.613 298.796C378.301 298.58 377.809 298.436 377.137 298.364C377.041 298.004 376.957 297.56 376.885 297.032C376.837 296.48 376.813 295.988 376.813 295.556C377.317 295.58 377.929 295.604 378.649 295.628C379.393 295.652 380.149 295.664 380.917 295.664C381.709 295.664 382.429 295.664 383.077 295.664C384.061 295.664 385.141 295.664 386.317 295.664C387.517 295.64 388.525 295.604 389.341 295.556C389.341 296.108 389.317 296.612 389.269 297.068C389.221 297.524 389.137 297.956 389.017 298.364C388.297 298.412 387.769 298.568 387.433 298.832C387.097 299.096 386.881 299.516 386.785 300.092C386.713 300.644 386.677 301.424 386.677 302.432V315.14ZM400.27 320.324C398.662 320.324 397.114 320.156 395.626 319.82C394.162 319.46 392.758 318.944 391.414 318.272C391.63 317.288 391.762 316.28 391.81 315.248C391.882 314.192 391.918 313.172 391.918 312.188C392.614 311.996 393.346 311.876 394.114 311.828C394.882 311.756 395.626 311.72 396.346 311.72C396.466 313.232 396.634 314.396 396.85 315.212C397.09 316.028 397.462 316.592 397.966 316.904C398.494 317.216 399.202 317.372 400.09 317.372C401.314 317.372 402.19 317.12 402.718 316.616C403.27 316.112 403.546 315.56 403.546 314.96C403.546 314.336 403.258 313.808 402.682 313.376C402.13 312.92 401.41 312.5 400.522 312.116C399.658 311.708 398.734 311.276 397.75 310.82C396.766 310.34 395.83 309.764 394.942 309.092C394.078 308.396 393.358 307.544 392.782 306.536C392.23 305.528 391.954 304.28 391.954 302.792C391.954 300.968 392.362 299.516 393.178 298.436C393.994 297.356 395.062 296.576 396.382 296.096C397.726 295.592 399.178 295.34 400.738 295.34C401.65 295.34 402.586 295.412 403.546 295.556C404.506 295.7 405.394 295.892 406.21 296.132C407.05 296.348 407.698 296.612 408.154 296.924C408.154 297.956 408.166 298.988 408.19 300.02C408.238 301.028 408.31 301.808 408.406 302.36C407.902 302.672 407.242 302.888 406.426 303.008C405.61 303.128 404.89 303.188 404.266 303.188C404.074 301.892 403.786 300.884 403.402 300.164C403.042 299.444 402.598 298.94 402.07 298.652C401.542 298.364 400.93 298.22 400.234 298.22C399.49 298.22 398.842 298.388 398.29 298.724C397.762 299.06 397.498 299.588 397.498 300.308C397.498 301.028 397.798 301.64 398.398 302.144C398.998 302.648 399.766 303.116 400.702 303.548C401.662 303.956 402.67 304.4 403.726 304.88C404.806 305.36 405.814 305.948 406.75 306.644C407.71 307.316 408.49 308.156 409.09 309.164C409.69 310.148 409.99 311.384 409.99 312.872C409.99 314.408 409.618 315.74 408.874 316.868C408.13 317.972 407.038 318.824 405.598 319.424C404.158 320.024 402.382 320.324 400.27 320.324Z" fill="white"/>
<path fill-rule="evenodd" clip-rule="evenodd" d="M287.097 305.218V305.218L287.465 308.906C287.629 310.54 287.711 311.357 288.263 311.586C288.816 311.815 289.451 311.295 290.722 310.255L293.591 307.908C294.257 307.363 294.59 307.091 294.975 307.11C295.359 307.129 295.664 307.433 296.272 308.042L299.958 311.728C300.566 312.336 300.871 312.64 300.89 313.025C300.909 313.41 300.637 313.743 300.092 314.409L297.744 317.278L297.744 317.278C296.705 318.548 296.185 319.184 296.414 319.737C296.643 320.289 297.46 320.371 299.093 320.534L302.782 320.903C303.638 320.989 304.066 321.032 304.325 321.317C304.583 321.603 304.583 322.033 304.583 322.893V328.107C304.583 328.967 304.583 329.397 304.325 329.683C304.066 329.968 303.638 330.011 302.782 330.097L299.094 330.466C297.461 330.629 296.644 330.711 296.415 331.263C296.186 331.816 296.706 332.452 297.745 333.722L300.092 336.59C300.637 337.256 300.909 337.589 300.89 337.974C300.871 338.359 300.567 338.663 299.958 339.271L296.272 342.958C295.664 343.566 295.36 343.87 294.975 343.889C294.59 343.908 294.257 343.636 293.591 343.091L290.722 340.744C289.452 339.704 288.816 339.184 288.263 339.413C287.711 339.642 287.629 340.459 287.466 342.093L287.097 345.782C287.011 346.638 286.968 347.066 286.683 347.325C286.397 347.583 285.967 347.583 285.107 347.583H279.893C279.033 347.583 278.603 347.583 278.317 347.325C278.031 347.066 277.989 346.638 277.903 345.782L277.534 342.094C277.371 340.46 277.289 339.643 276.736 339.414C276.184 339.185 275.548 339.705 274.278 340.745L271.408 343.092C270.743 343.637 270.41 343.909 270.025 343.89C269.64 343.871 269.336 343.567 268.728 342.959L265.041 339.272C264.433 338.664 264.129 338.36 264.11 337.975C264.09 337.59 264.363 337.257 264.908 336.591L267.255 333.722C268.295 332.452 268.814 331.816 268.585 331.264C268.356 330.711 267.54 330.629 265.906 330.466L262.217 330.097H262.217C261.362 330.011 260.934 329.968 260.675 329.683C260.417 329.397 260.417 328.967 260.417 328.107L260.417 322.893C260.417 322.033 260.417 321.603 260.675 321.317C260.934 321.032 261.362 320.989 262.217 320.903H262.217L265.907 320.534C267.541 320.371 268.357 320.289 268.586 319.737C268.815 319.184 268.296 318.548 267.256 317.278L264.908 314.408C264.363 313.742 264.091 313.409 264.11 313.024C264.129 312.639 264.433 312.335 265.041 311.727L268.728 308.041C269.336 307.432 269.64 307.128 270.025 307.109C270.41 307.09 270.743 307.362 271.408 307.907L274.278 310.254C275.548 311.294 276.184 311.814 276.736 311.585C277.289 311.356 277.371 310.539 277.534 308.906L277.903 305.218V305.218C277.989 304.362 278.031 303.934 278.317 303.675C278.603 303.417 279.033 303.417 279.893 303.417H285.107C285.967 303.417 286.397 303.417 286.683 303.675C286.968 303.934 287.011 304.362 287.097 305.218ZM282.5 334.333C287.378 334.333 291.333 330.379 291.333 325.5C291.333 320.622 287.378 316.667 282.5 316.667C277.621 316.667 273.667 320.622 273.667 325.5C273.667 330.379 277.621 334.333 282.5 334.333Z" fill="white"/>
</svg>
