<svg width="39" height="39" viewBox="0 0 39 39" fill="none" xmlns="http://www.w3.org/2000/svg">
<path d="M4.875 12.875C4.875 9.10376 4.875 7.21815 6.04657 6.04657C7.21815 4.875 9.10376 4.875 12.875 4.875H26.125C29.8962 4.875 31.7819 4.875 32.9534 6.04657C34.125 7.21815 34.125 9.10376 34.125 12.875V26.125C34.125 29.8962 34.125 31.7819 32.9534 32.9534C31.7819 34.125 29.8962 34.125 26.125 34.125H12.875C9.10376 34.125 7.21815 34.125 6.04657 32.9534C4.875 31.7819 4.875 29.8962 4.875 26.125V12.875Z" stroke="#72402C" stroke-width="2"/>
<circle cx="26.8125" cy="12.1875" r="2.4375" fill="#72402C"/>
<circle cx="19.5" cy="19.5" r="5.5" stroke="#72402C" stroke-width="2"/>
</svg>
