<svg width="34" height="34" viewBox="0 0 34 34" fill="none" xmlns="http://www.w3.org/2000/svg">
<path d="M9.56 12.816L12.272 18.84C12.456 19.216 12.6 19.504 12.704 19.704C12.808 19.896 12.904 20.024 12.992 20.088C13.088 20.152 13.192 20.192 13.304 20.208C13.336 20.312 13.36 20.436 13.376 20.58C13.392 20.716 13.4 20.868 13.4 21.036C13.256 21.02 13.072 21.008 12.848 21C12.624 21 12.4 21 12.176 21C11.952 21 11.776 21 11.648 21C11.552 21 11.416 21 11.24 21C11.072 21 10.888 21 10.688 21C10.496 21.008 10.312 21.012 10.136 21.012C9.96 21.02 9.824 21.028 9.728 21.036C9.728 20.844 9.736 20.684 9.752 20.556C9.768 20.428 9.792 20.312 9.824 20.208C10.104 20.152 10.268 20.06 10.316 19.932C10.372 19.796 10.336 19.58 10.208 19.284L9.128 16.824C8.944 16.4 8.792 16.008 8.672 15.648C8.56 15.28 8.464 14.92 8.384 14.568H8.732C8.636 14.928 8.528 15.292 8.408 15.66C8.296 16.028 8.156 16.412 7.988 16.812L7.076 19.188C6.972 19.444 6.952 19.668 7.016 19.86C7.08 20.052 7.248 20.168 7.52 20.208C7.552 20.32 7.576 20.444 7.592 20.58C7.608 20.716 7.616 20.868 7.616 21.036C7.528 21.028 7.404 21.02 7.244 21.012C7.084 21.012 6.916 21.008 6.74 21C6.572 21 6.42 21 6.284 21C6.084 21 5.876 21 5.66 21C5.452 21.008 5.288 21.02 5.168 21.036C5.168 20.876 5.176 20.732 5.192 20.604C5.208 20.476 5.236 20.344 5.276 20.208C5.412 20.184 5.528 20.136 5.624 20.064C5.72 19.984 5.812 19.86 5.9 19.692C5.996 19.524 6.108 19.284 6.236 18.972L8.768 12.876C8.904 12.844 9.028 12.828 9.14 12.828C9.26 12.82 9.4 12.816 9.56 12.816ZM10.004 18.12L10.22 18.84C9.684 18.84 9.124 18.848 8.54 18.864C7.964 18.88 7.4 18.916 6.848 18.972L7.028 18.12H10.004ZM15.3784 21.108C15.0264 21.108 14.7504 21.008 14.5504 20.808C14.3504 20.6 14.2504 20.332 14.2504 20.004C14.2504 19.668 14.3624 19.404 14.5864 19.212C14.8184 19.012 15.1064 18.912 15.4504 18.912C15.7784 18.912 16.0384 19.02 16.2304 19.236C16.4304 19.452 16.5304 19.688 16.5304 19.944C16.5304 20.272 16.4264 20.548 16.2184 20.772C16.0104 20.996 15.7304 21.108 15.3784 21.108ZM17.6549 21.036C17.6549 20.844 17.6589 20.684 17.6669 20.556C17.6749 20.42 17.6949 20.304 17.7269 20.208C17.9429 20.192 18.1069 20.152 18.2189 20.088C18.3389 20.016 18.4229 19.892 18.4709 19.716C18.5189 19.54 18.5429 19.28 18.5429 18.936V14.928C18.5429 14.592 18.5229 14.34 18.4829 14.172C18.4429 14.004 18.3629 13.888 18.2429 13.824C18.1309 13.752 17.9669 13.704 17.7509 13.68C17.7189 13.576 17.6949 13.456 17.6789 13.32C17.6629 13.176 17.6549 13.02 17.6549 12.852C17.8309 12.86 18.0429 12.868 18.2909 12.876C18.5469 12.876 18.8189 12.88 19.1069 12.888C19.3949 12.888 19.6709 12.888 19.9349 12.888C20.1989 12.888 20.4269 12.888 20.6189 12.888V18.792C20.6189 19.136 20.6549 19.408 20.7269 19.608C20.8069 19.8 20.9349 19.944 21.1109 20.04C21.2949 20.128 21.5429 20.184 21.8549 20.208C21.9029 20.32 21.9309 20.452 21.9389 20.604C21.9469 20.748 21.9509 20.892 21.9509 21.036C21.8069 21.028 21.6149 21.02 21.3749 21.012C21.1429 21.012 20.8949 21.008 20.6309 21C20.3669 21 20.1149 21 19.8749 21C19.4829 21 19.0749 21 18.6509 21C18.2349 21.008 17.9029 21.02 17.6549 21.036ZM23.1029 18.708C22.9109 18.708 22.7389 18.704 22.5869 18.696C22.4429 18.68 22.3109 18.648 22.1909 18.6C22.1589 18.256 22.0669 18.024 21.9149 17.904C21.7629 17.784 21.4909 17.724 21.0989 17.724H20.3669V16.92H21.0989C21.5229 16.92 21.8029 16.856 21.9389 16.728C22.0829 16.6 22.1589 16.372 22.1669 16.044C22.2949 15.988 22.4429 15.952 22.6109 15.936C22.7789 15.92 22.9429 15.912 23.1029 15.912C23.0949 16.104 23.0829 16.312 23.0669 16.536C23.0589 16.76 23.0549 17.012 23.0549 17.292C23.0549 17.596 23.0589 17.864 23.0669 18.096C23.0829 18.32 23.0949 18.524 23.1029 18.708ZM23.1509 15.12C23.1109 14.848 23.0349 14.604 22.9229 14.388C22.8189 14.164 22.6469 13.992 22.4069 13.872C22.1749 13.744 21.8429 13.68 21.4109 13.68H20.1389L20.5109 12.888C21.1509 12.888 21.6869 12.888 22.1189 12.888C22.5509 12.88 22.9109 12.876 23.1989 12.876C23.4949 12.868 23.7429 12.86 23.9429 12.852C23.9509 13.044 23.9629 13.268 23.9789 13.524C24.0029 13.78 24.0309 14.032 24.0629 14.28C24.1029 14.52 24.1469 14.736 24.1949 14.928C24.0589 14.984 23.9109 15.032 23.7509 15.072C23.5909 15.104 23.3909 15.12 23.1509 15.12ZM25.187 21.108C24.835 21.108 24.559 21.008 24.359 20.808C24.159 20.6 24.059 20.332 24.059 20.004C24.059 19.668 24.171 19.404 24.395 19.212C24.627 19.012 24.915 18.912 25.259 18.912C25.587 18.912 25.847 19.02 26.039 19.236C26.239 19.452 26.339 19.688 26.339 19.944C26.339 20.272 26.235 20.548 26.027 20.772C25.819 20.996 25.539 21.108 25.187 21.108Z" fill="#5A1F06"/>
<path d="M30.5 17.5C30.5 25.8281 23.965 32.5 16 32.5C8.03505 32.5 1.5 25.8281 1.5 17.5C1.5 9.17188 8.03505 2.5 16 2.5C23.965 2.5 30.5 9.17188 30.5 17.5Z" stroke="#5A1F06" stroke-width="3"/>
</svg>
