<?xml version="1.0" encoding="UTF-8"?>
<svg id="Calque_2" data-name="Calque 2" xmlns="http://www.w3.org/2000/svg" xmlns:xlink="http://www.w3.org/1999/xlink" viewBox="0 0 460 460">
  <defs>
    <style>
      .cls-1 {
        fill: url(#Dégradé_sans_nom_3);
      }

      .cls-2 {
        fill: #5f2712;
      }
    </style>
    <radialGradient id="Dégradé_sans_nom_3" data-name="Dégradé sans nom 3" cx="-1481.64" cy="-329.84" fx="-1481.64" fy="-329.84" r="1" gradientTransform="translate(76092.79 341006.92) rotate(90) scale(230 -230)" gradientUnits="userSpaceOnUse">
      <stop offset="0" stop-color="#cde5d0"/>
      <stop offset=".59" stop-color="#88c590"/>
      <stop offset="1" stop-color="#0ea438"/>
    </radialGradient>
  </defs>
  <g id="Calque_1-2" data-name="Calque 1">
    <circle class="cls-1" cx="230" cy="230" r="230"/>
    <path class="cls-2" d="M77.86,97.72c0,1.84-.13,3.52-.4,5.04-.24,1.49-.71,2.84-1.4,4.04-.69,1.23-1.69,2.35-3,3.36-1.31,1.01-3.03,1.95-5.16,2.8-.4-.29-.69-.65-.88-1.08-.19-.43-.31-.89-.36-1.4.99-.72,1.79-1.48,2.4-2.28.64-.77,1.11-1.75,1.4-2.92.32-1.17.48-2.67.48-4.48v-17.96c0-1.15-.08-2.01-.24-2.6-.13-.59-.39-.99-.76-1.2-.35-.21-.89-.36-1.64-.44-.11-.35-.19-.77-.24-1.28-.05-.53-.08-1.03-.08-1.48.51.03,1.13.05,1.88.08.75.03,1.52.04,2.32.04h5.6c1.23-.03,2.24-.07,3.04-.12,0,.53-.03,1.03-.08,1.48s-.13.88-.24,1.28c-.77.05-1.36.21-1.76.48-.37.27-.61.69-.72,1.28s-.16,1.41-.16,2.48v14.88ZM93.57,103.36c-2.4,0-4.35-.41-5.84-1.24-1.47-.83-2.55-1.95-3.24-3.36-.69-1.41-1.04-3-1.04-4.76,0-1.97.39-3.68,1.16-5.12.77-1.44,1.89-2.56,3.36-3.36,1.47-.8,3.19-1.2,5.16-1.2s3.6.37,4.88,1.12c1.28.72,2.23,1.73,2.84,3.04.64,1.28.99,2.77,1.04,4.48-.21.88-.6,1.59-1.16,2.12h-2.64c-.99,0-2.03.01-3.12.04-1.07,0-2.16.03-3.28.08-1.09.05-2.15.12-3.16.2v-2.88h7.36c0-1.81-.24-3.19-.72-4.12-.45-.93-1.15-1.4-2.08-1.4-.61,0-1.16.23-1.64.68-.45.43-.8,1.08-1.04,1.96-.24.85-.36,1.92-.36,3.2,0,1.39.17,2.63.52,3.72.35,1.09.92,1.95,1.72,2.56.8.61,1.88.92,3.24.92.93,0,1.87-.16,2.8-.48.93-.32,1.71-.73,2.32-1.24.27.16.51.48.72.96.21.45.32.92.32,1.4-1.04.88-2.23,1.55-3.56,2-1.31.45-2.83.68-4.56.68ZM120.56,103.36c-.35-.83-.75-1.72-1.2-2.68-.43-.99-.88-2-1.36-3.04-.45-1.04-.92-2.05-1.4-3.04s-.93-1.89-1.36-2.72c-.4-.85-.75-1.59-1.04-2.2-.29-.59-.56-1.04-.8-1.36-.24-.32-.49-.55-.76-.68-.24-.13-.53-.24-.88-.32-.11-.37-.2-.8-.28-1.28-.08-.51-.12-1-.12-1.48.61.03,1.43.05,2.44.08,1.04.03,2.13.04,3.28.04h2.36c.8-.03,1.55-.04,2.24-.04.69-.03,1.25-.05,1.68-.08,0,.45-.04.95-.12,1.48-.08.51-.17.93-.28,1.28-1.01.11-1.6.33-1.76.68-.16.32,0,.97.48,1.96.27.59.53,1.21.8,1.88.29.64.57,1.33.84,2.08.29.72.57,1.47.84,2.24.29.75.57,1.53.84,2.36h-1.32c.56-1.63,1.09-3.05,1.6-4.28s1.04-2.48,1.6-3.76c.48-1.15.61-1.93.4-2.36s-.76-.69-1.64-.8c-.11-.35-.21-.77-.32-1.28-.08-.53-.12-1.03-.12-1.48.53.03,1.13.05,1.8.08.67.03,1.39.04,2.16.04s1.51-.01,2.2-.04c.69-.03,1.32-.05,1.88-.08,0,.45-.04.95-.12,1.48s-.2.96-.36,1.28c-.45.11-.84.27-1.16.48-.32.19-.61.48-.88.88-.24.4-.51.96-.8,1.68l-5.52,12.48c-.45.21-1.05.37-1.8.48-.72.11-1.4.12-2.04.04ZM144.43,103.36c-2.4,0-4.35-.41-5.84-1.24-1.47-.83-2.55-1.95-3.24-3.36s-1.04-3-1.04-4.76c0-1.97.39-3.68,1.16-5.12.77-1.44,1.89-2.56,3.36-3.36,1.47-.8,3.19-1.2,5.16-1.2s3.6.37,4.88,1.12c1.28.72,2.23,1.73,2.84,3.04.64,1.28.99,2.77,1.04,4.48-.21.88-.6,1.59-1.16,2.12h-2.64c-.99,0-2.03.01-3.12.04-1.07,0-2.16.03-3.28.08-1.09.05-2.15.12-3.16.2v-2.88h7.36c0-1.81-.24-3.19-.72-4.12-.45-.93-1.15-1.4-2.08-1.4-.61,0-1.16.23-1.64.68-.45.43-.8,1.08-1.04,1.96-.24.85-.36,1.92-.36,3.2,0,1.39.17,2.63.52,3.72.35,1.09.92,1.95,1.72,2.56.8.61,1.88.92,3.24.92.93,0,1.87-.16,2.8-.48.93-.32,1.71-.73,2.32-1.24.27.16.51.48.72.96.21.45.32.92.32,1.4-1.04.88-2.23,1.55-3.56,2-1.31.45-2.83.68-4.56.68ZM163.37,103.24c-1.95,0-3.47-.53-4.56-1.6-1.07-1.09-1.6-3.03-1.6-5.8v-4.2c0-1.2-.13-2.04-.4-2.52-.27-.48-.97-.76-2.12-.84,0-.45.03-.91.08-1.36.08-.48.21-.91.4-1.28,1.68,0,3.17-.13,4.48-.4,1.31-.29,2.28-.6,2.92-.92.4.16.71.43.92.8.21.37.32.89.32,1.56v8.16c0,1.79.17,3.03.52,3.72.35.67.88,1,1.6,1,.99,0,1.84-.51,2.56-1.52.72-1.01,1.08-2.57,1.08-4.68v-1.92c0-1.2-.17-2.04-.52-2.52-.35-.48-1.13-.76-2.36-.84,0-.45.03-.91.08-1.36.05-.48.17-.91.36-1.28,1.73,0,3.31-.11,4.72-.32,1.41-.24,2.43-.51,3.04-.8.4.16.71.43.92.8.21.37.32.89.32,1.56v10.96l-5.72,1.44c-.19.51-.4.96-.64,1.36-.24.37-.52.71-.84,1-.56.51-1.31.93-2.24,1.28-.93.35-2.04.52-3.32.52ZM171.53,103.36c-.51-.19-.87-.45-1.08-.8-.21-.37-.32-.87-.32-1.48,0-.48.05-1.01.16-1.6.13-.59.27-1.11.4-1.56l5.44-2.16c0,.93.05,1.65.16,2.16.11.48.32.81.64,1,.35.16.85.25,1.52.28.08.51.09,1,.04,1.48-.05.48-.2.93-.44,1.36-1.07.03-2.17.15-3.32.36-1.15.21-2.21.53-3.2.96ZM190.44,93.92l-2.04,3.08c-.83,1.23-1.27,2.08-1.32,2.56-.03.45.2.72.68.8.13.37.21.79.24,1.24.03.43.04.92.04,1.48-.59-.05-1.27-.08-2.04-.08h-3.92c-.64,0-1.23.03-1.76.08,0-.53.03-1.03.08-1.48.08-.48.2-.89.36-1.24.43-.03.8-.13,1.12-.32.35-.19.75-.56,1.2-1.12.48-.56,1.11-1.41,1.88-2.56l2.76-4.08,2.72,1.64ZM190.08,97.52c-.29-.48-.55-.88-.76-1.2-.19-.32-.47-.73-.84-1.24l-1.08-.44c-.59-.99-1.2-1.96-1.84-2.92-.64-.96-1.25-1.8-1.84-2.52-.35-.48-.65-.84-.92-1.08-.27-.27-.55-.45-.84-.56-.29-.13-.65-.21-1.08-.24-.13-.4-.24-.84-.32-1.32-.05-.48-.08-.95-.08-1.4.75.03,1.63.05,2.64.08h6.32c1.12-.03,2.09-.05,2.92-.08,0,.45-.03.95-.08,1.48s-.12.95-.2,1.24c-.67.03-1.03.21-1.08.56-.03.35.29,1.03.96,2.04.27.4.53.8.8,1.2.27.37.55.83.84,1.36l1.32.48c.48.67.93,1.32,1.36,1.96.45.64.87,1.25,1.24,1.84.59.91,1.07,1.61,1.44,2.12.4.51.77.87,1.12,1.08.35.19.75.29,1.2.32.13.4.23.83.28,1.28.05.43.08.92.08,1.48-.67-.05-1.31-.07-1.92-.04h-8.52c-.64.03-1.15.05-1.52.08,0-.61.03-1.13.08-1.56.05-.43.13-.81.24-1.16.56-.08.87-.31.92-.68.08-.4-.2-1.12-.84-2.16ZM192.16,92.92l2.04-3.08c.61-.93.92-1.56.92-1.88,0-.35-.29-.56-.88-.64-.11-.35-.2-.76-.28-1.24-.05-.48-.08-.97-.08-1.48.64.03,1.25.05,1.84.08h4c.48-.03,1-.05,1.56-.08,0,.51-.04.99-.12,1.44-.05.45-.15.88-.28,1.28-.4.03-.73.11-1,.24-.27.11-.55.32-.84.64-.29.32-.65.81-1.08,1.48l-3.36,4.96-2.44-1.72ZM221.57,95.64c0,1.15.12,2.05.36,2.72.27.64.69,1.12,1.28,1.44.61.29,1.45.48,2.52.56.13.37.21.81.24,1.32.05.48.08.96.08,1.44-.48-.03-1.09-.05-1.84-.08-.75,0-1.55-.01-2.4-.04h-6.48c-1.39.03-2.49.07-3.32.12,0-.64.01-1.17.04-1.6.05-.45.13-.84.24-1.16.72-.05,1.27-.19,1.64-.4.4-.24.67-.65.8-1.24.16-.59.24-1.45.24-2.6v-2.2h6.6v1.72ZM221.57,91.2v3.52h-6.6v-4.32l6.6-3.72c0,.53-.08,1.13-.24,1.8-.13.67-.32,1.51-.56,2.52l.8.2ZM220.69,91.12c.19-.53.4-1.13.64-1.8.24-.69.45-1.2.64-1.52.59-.93,1.32-1.71,2.2-2.32.88-.61,1.85-.92,2.92-.92s2,.32,2.88.96c-.08.56-.16,1.21-.24,1.96-.08.75-.13,1.51-.16,2.28,0,.75.01,1.43.04,2.04-.45.19-1.05.32-1.8.4-.75.05-1.39.08-1.92.08-.05-.96-.21-1.64-.48-2.04-.27-.43-.67-.64-1.2-.64-.37,0-.77.23-1.2.68-.4.45-.75,1.04-1.04,1.76-.27.69-.4,1.44-.4,2.24l-.88-3.16ZM214.97,94.72v-3.08c0-.83-.05-1.47-.16-1.92-.11-.45-.37-.79-.8-1-.4-.24-1.04-.39-1.92-.44,0-.45.03-.91.08-1.36.08-.48.21-.91.4-1.28,1.68,0,3.23-.13,4.64-.4,1.44-.29,2.48-.6,3.12-.92.4.16.71.43.92.8.21.37.32.89.32,1.56l-6.6,8.04ZM242.09,103.36c-2.4,0-4.35-.41-5.84-1.24-1.47-.83-2.55-1.95-3.24-3.36-.69-1.41-1.04-3-1.04-4.76,0-1.97.39-3.68,1.16-5.12.77-1.44,1.89-2.56,3.36-3.36,1.47-.8,3.19-1.2,5.16-1.2s3.6.37,4.88,1.12c1.28.72,2.23,1.73,2.84,3.04.64,1.28.99,2.77,1.04,4.48-.21.88-.6,1.59-1.16,2.12h-2.64c-.99,0-2.03.01-3.12.04-1.07,0-2.16.03-3.28.08-1.09.05-2.15.12-3.16.2v-2.88h7.36c0-1.81-.24-3.19-.72-4.12-.45-.93-1.15-1.4-2.08-1.4-.61,0-1.16.23-1.64.68-.45.43-.8,1.08-1.04,1.96-.24.85-.36,1.92-.36,3.2,0,1.39.17,2.63.52,3.72.35,1.09.92,1.95,1.72,2.56.8.61,1.88.92,3.24.92.93,0,1.87-.16,2.8-.48.93-.32,1.71-.73,2.32-1.24.27.16.51.48.72.96.21.45.32.92.32,1.4-1.04.88-2.23,1.55-3.56,2-1.31.45-2.83.68-4.56.68ZM242.93,81.8c-.59,0-1.19-.07-1.8-.2-.61-.13-1.09-.29-1.44-.48.61-1.2,1.11-2.29,1.48-3.28.4-1.01.73-2.05,1-3.12.56-.19,1.16-.32,1.8-.4.67-.08,1.33-.12,2-.12.4.03.79.05,1.16.08.4.03.75.07,1.04.12-1.01,1.17-1.97,2.4-2.88,3.68-.88,1.25-1.67,2.49-2.36,3.72ZM261.02,103.24c-1.95,0-3.47-.53-4.56-1.6-1.07-1.09-1.6-3.03-1.6-5.8v-4.2c0-1.2-.13-2.04-.4-2.52-.27-.48-.97-.76-2.12-.84,0-.45.03-.91.08-1.36.08-.48.21-.91.4-1.28,1.68,0,3.17-.13,4.48-.4,1.31-.29,2.28-.6,2.92-.92.4.16.71.43.92.8.21.37.32.89.32,1.56v8.16c0,1.79.17,3.03.52,3.72.35.67.88,1,1.6,1,.99,0,1.84-.51,2.56-1.52.72-1.01,1.08-2.57,1.08-4.68v-1.92c0-1.2-.17-2.04-.52-2.52-.35-.48-1.13-.76-2.36-.84,0-.45.03-.91.08-1.36.05-.48.17-.91.36-1.28,1.73,0,3.31-.11,4.72-.32,1.41-.24,2.43-.51,3.04-.8.4.16.71.43.92.8.21.37.32.89.32,1.56v10.96l-5.72,1.44c-.19.51-.4.96-.64,1.36-.24.37-.52.71-.84,1-.56.51-1.31.93-2.24,1.28-.93.35-2.04.52-3.32.52ZM269.18,103.36c-.51-.19-.87-.45-1.08-.8-.21-.37-.32-.87-.32-1.48,0-.48.05-1.01.16-1.6.13-.59.27-1.11.4-1.56l5.44-2.16c0,.93.05,1.65.16,2.16.11.48.32.81.64,1,.35.16.85.25,1.52.28.08.51.09,1,.04,1.48-.05.48-.2.93-.44,1.36-1.07.03-2.17.15-3.32.36-1.15.21-2.21.53-3.2.96ZM293.1,85.56c-.03.69-.04,1.41-.04,2.16.03.72.09,1.43.2,2.12-.4.21-.92.4-1.56.56-.61.16-1.24.24-1.88.24-.08-.67-.27-1.27-.56-1.8-.27-.56-.65-1-1.16-1.32-.48-.32-1.11-.48-1.88-.48-.53,0-.96.15-1.28.44-.29.27-.44.63-.44,1.08,0,.32.08.63.24.92.19.29.57.63,1.16,1,.61.35,1.55.79,2.8,1.32,1.52.61,2.71,1.2,3.56,1.76.88.56,1.51,1.16,1.88,1.8.37.64.56,1.41.56,2.32,0,1.2-.36,2.23-1.08,3.08-.69.85-1.69,1.51-3,1.96-1.31.43-2.88.64-4.72.64-1.68,0-3.08-.12-4.2-.36s-2.21-.57-3.28-1c.08-.53.13-1.09.16-1.68.03-.61.03-1.2,0-1.76,0-.59-.03-1.09-.08-1.52.4-.27.93-.45,1.6-.56.69-.13,1.33-.2,1.92-.2.16,1.39.56,2.44,1.2,3.16.67.69,1.48,1.04,2.44,1.04.67,0,1.21-.15,1.64-.44.45-.29.68-.72.68-1.28,0-.4-.11-.75-.32-1.04-.19-.32-.55-.63-1.08-.92-.51-.32-1.27-.67-2.28-1.04-1.17-.45-2.19-.93-3.04-1.44-.85-.51-1.52-1.13-2-1.88-.45-.75-.68-1.71-.68-2.88,0-.91.19-1.68.56-2.32.4-.67.96-1.21,1.68-1.64.72-.43,1.55-.75,2.48-.96.96-.21,1.99-.32,3.08-.32,1.49,0,2.76.11,3.8.32,1.04.19,2.01.49,2.92.92ZM312.12,85.56c-.03.69-.04,1.41-.04,2.16.03.72.09,1.43.2,2.12-.4.21-.92.4-1.56.56-.61.16-1.24.24-1.88.24-.08-.67-.27-1.27-.56-1.8-.27-.56-.65-1-1.16-1.32-.48-.32-1.11-.48-1.88-.48-.53,0-.96.15-1.28.44-.29.27-.44.63-.44,1.08,0,.32.08.63.24.92.19.29.57.63,1.16,1,.61.35,1.55.79,2.8,1.32,1.52.61,2.71,1.2,3.56,1.76.88.56,1.51,1.16,1.88,1.8.37.64.56,1.41.56,2.32,0,1.2-.36,2.23-1.08,3.08-.69.85-1.69,1.51-3,1.96-1.31.43-2.88.64-4.72.64-1.68,0-3.08-.12-4.2-.36-1.12-.24-2.21-.57-3.28-1,.08-.53.13-1.09.16-1.68.03-.61.03-1.2,0-1.76,0-.59-.03-1.09-.08-1.52.4-.27.93-.45,1.6-.56.69-.13,1.33-.2,1.92-.2.16,1.39.56,2.44,1.2,3.16.67.69,1.48,1.04,2.44,1.04.67,0,1.21-.15,1.64-.44.45-.29.68-.72.68-1.28,0-.4-.11-.75-.32-1.04-.19-.32-.55-.63-1.08-.92-.51-.32-1.27-.67-2.28-1.04-1.17-.45-2.19-.93-3.04-1.44-.85-.51-1.52-1.13-2-1.88-.45-.75-.68-1.71-.68-2.88,0-.91.19-1.68.56-2.32.4-.67.96-1.21,1.68-1.64.72-.43,1.55-.75,2.48-.96.96-.21,1.99-.32,3.08-.32,1.49,0,2.76.11,3.8.32,1.04.19,2.01.49,2.92.92ZM315.72,103.12c0-.56.03-1.07.08-1.52.05-.48.13-.89.24-1.24,1.07-.05,1.77-.31,2.12-.76.35-.48.52-1.39.52-2.72v-5.8c0-.61-.08-1.12-.24-1.52-.13-.4-.41-.69-.84-.88-.43-.21-1.05-.35-1.88-.4,0-.45.03-.91.08-1.36.08-.48.21-.91.4-1.28,1.09,0,2.16-.07,3.2-.2,1.04-.13,1.96-.29,2.76-.48.83-.21,1.44-.43,1.84-.64.4.16.71.43.92.8.24.37.36.88.36,1.52v10.24c0,1.33.17,2.24.52,2.72.35.45,1.03.71,2.04.76.11.35.17.76.2,1.24.05.48.08.99.08,1.52-.35-.03-.85-.05-1.52-.08-.67,0-1.41-.01-2.24-.04h-4.88c-.83.03-1.57.04-2.24.04-.64.03-1.15.05-1.52.08ZM321.44,81.72c-1.09,0-1.97-.27-2.64-.8-.67-.56-1-1.29-1-2.2,0-1.04.36-1.84,1.08-2.4.75-.59,1.67-.88,2.76-.88,1.25,0,2.2.28,2.84.84.67.56,1,1.36,1,2.4,0,.88-.36,1.61-1.08,2.2-.72.56-1.71.84-2.96.84ZM340.28,95.64c0,1.15.12,2.05.36,2.72.27.64.69,1.12,1.28,1.44.61.29,1.45.48,2.52.56.13.37.21.81.24,1.32.05.48.08.96.08,1.44-.48-.03-1.09-.05-1.84-.08-.75,0-1.55-.01-2.4-.04h-6.48c-1.39.03-2.49.07-3.32.12,0-.64.01-1.17.04-1.6.05-.45.13-.84.24-1.16.72-.05,1.27-.19,1.64-.4.4-.24.67-.65.8-1.24.16-.59.24-1.45.24-2.6v-2.2h6.6v1.72ZM340.28,91.2v3.52h-6.6v-4.32l6.6-3.72c0,.53-.08,1.13-.24,1.8-.13.67-.32,1.51-.56,2.52l.8.2ZM339.4,91.12c.19-.53.4-1.13.64-1.8.24-.69.45-1.2.64-1.52.59-.93,1.32-1.71,2.2-2.32.88-.61,1.85-.92,2.92-.92s2,.32,2.88.96c-.08.56-.16,1.21-.24,1.96-.08.75-.13,1.51-.16,2.28,0,.75.01,1.43.04,2.04-.45.19-1.05.32-1.8.4-.75.05-1.39.08-1.92.08-.05-.96-.21-1.64-.48-2.04-.27-.43-.67-.64-1.2-.64-.37,0-.77.23-1.2.68-.4.45-.75,1.04-1.04,1.76-.27.69-.4,1.44-.4,2.24l-.88-3.16ZM333.68,94.72v-3.08c0-.83-.05-1.47-.16-1.92-.11-.45-.37-.79-.8-1-.4-.24-1.04-.39-1.92-.44,0-.45.03-.91.08-1.36.08-.48.21-.91.4-1.28,1.68,0,3.23-.13,4.64-.4,1.44-.29,2.48-.6,3.12-.92.4.16.71.43.92.8.21.37.32.89.32,1.56l-6.6,8.04ZM368.81,103.36c-2.4,0-4.35-.41-5.84-1.24-1.47-.83-2.55-1.95-3.24-3.36-.69-1.41-1.04-3-1.04-4.76,0-1.97.39-3.68,1.16-5.12.77-1.44,1.89-2.56,3.36-3.36,1.47-.8,3.19-1.2,5.16-1.2s3.6.37,4.88,1.12c1.28.72,2.23,1.73,2.84,3.04.64,1.28.99,2.77,1.04,4.48-.21.88-.6,1.59-1.16,2.12h-2.64c-.99,0-2.03.01-3.12.04-1.07,0-2.16.03-3.28.08-1.09.05-2.15.12-3.16.2v-2.88h7.36c0-1.81-.24-3.19-.72-4.12-.45-.93-1.15-1.4-2.08-1.4-.61,0-1.16.23-1.64.68-.45.43-.8,1.08-1.04,1.96-.24.85-.36,1.92-.36,3.2,0,1.39.17,2.63.52,3.72.35,1.09.92,1.95,1.72,2.56.8.61,1.88.92,3.24.92.93,0,1.87-.16,2.8-.48.93-.32,1.71-.73,2.32-1.24.27.16.51.48.72.96.21.45.32.92.32,1.4-1.04.88-2.23,1.55-3.56,2-1.31.45-2.83.68-4.56.68ZM387.78,103.36c-1.97,0-3.47-.51-4.48-1.52-1.01-1.04-1.52-2.79-1.52-5.24v-8.24c-.43-.16-.88-.28-1.36-.36-.45-.08-.99-.12-1.6-.12,0-.53.03-1.01.08-1.44.08-.45.23-.91.44-1.36h2.44v-4.76c1.04-.13,2.05-.4,3.04-.8,1.01-.4,1.83-.84,2.44-1.32.43.16.72.41.88.76.16.35.24.96.24,1.84v4.28h4.8c0,.59-.04,1.11-.12,1.56-.05.43-.15.85-.28,1.28-.85,0-1.65.07-2.4.2-.72.11-1.39.27-2,.48v7.4c0,1.15.07,2.03.2,2.64.13.59.35,1,.64,1.24.29.21.67.32,1.12.32.4,0,.8-.04,1.2-.12.43-.11.83-.25,1.2-.44.37.53.57,1.28.6,2.24-.56.43-1.36.79-2.4,1.08-1.01.27-2.07.4-3.16.4ZM84.63,151.96c-.43-.21-.79-.55-1.08-1s-.48-.95-.56-1.48c.93-.96,1.65-1.87,2.16-2.72.51-.85.87-1.76,1.08-2.72.24-.96.36-2.07.36-3.32v-10.64c0-.61-.08-1.12-.24-1.52-.16-.4-.45-.69-.88-.88-.43-.21-1.05-.35-1.88-.4,0-.45.03-.91.08-1.36.08-.48.21-.91.4-1.28,1.09,0,2.16-.07,3.2-.2,1.04-.13,1.96-.29,2.76-.48.83-.21,1.44-.43,1.84-.64.4.16.71.43.92.8.24.37.36.88.36,1.52v13.56c0,1.68-.28,3.2-.84,4.56-.53,1.36-1.23,2.57-2.08,3.64-.85,1.07-1.77,1.97-2.76,2.72-.99.77-1.93,1.39-2.84,1.84ZM89.31,120.72c-1.09,0-1.97-.27-2.64-.8-.67-.56-1-1.29-1-2.2,0-1.04.36-1.84,1.08-2.4.75-.59,1.67-.88,2.76-.88,1.25,0,2.2.28,2.84.84.67.56,1,1.36,1,2.4,0,.88-.36,1.61-1.08,2.2-.72.56-1.71.84-2.96.84ZM106.76,142.36c-2.4,0-4.35-.41-5.84-1.24-1.47-.83-2.55-1.95-3.24-3.36-.69-1.41-1.04-3-1.04-4.76,0-1.97.39-3.68,1.16-5.12.77-1.44,1.89-2.56,3.36-3.36,1.47-.8,3.19-1.2,5.16-1.2s3.6.37,4.88,1.12c1.28.72,2.23,1.73,2.84,3.04.64,1.28.99,2.77,1.04,4.48-.21.88-.6,1.59-1.16,2.12h-2.64c-.99,0-2.03.01-3.12.04-1.07,0-2.16.03-3.28.08-1.09.05-2.15.12-3.16.2v-2.88h7.36c0-1.81-.24-3.19-.72-4.12-.45-.93-1.15-1.4-2.08-1.4-.61,0-1.16.23-1.64.68-.45.43-.8,1.08-1.04,1.96-.24.85-.36,1.92-.36,3.2,0,1.39.17,2.63.52,3.72.35,1.09.92,1.95,1.72,2.56.8.61,1.88.92,3.24.92.93,0,1.87-.16,2.8-.48.93-.32,1.71-.73,2.32-1.24.27.16.51.48.72.96.21.45.32.92.32,1.4-1.04.88-2.23,1.55-3.56,2-1.31.45-2.83.68-4.56.68ZM125.74,142.12c0-.51.03-.99.08-1.44.05-.48.15-.91.28-1.28,1.09-.08,1.8-.35,2.12-.8.32-.48.48-1.39.48-2.72v-4.8c0-.99-.05-1.73-.16-2.24-.11-.51-.37-.88-.8-1.12-.4-.24-1.04-.39-1.92-.44,0-.45.03-.89.08-1.32.08-.45.21-.89.4-1.32.96,0,1.93-.05,2.92-.16.99-.13,1.91-.29,2.76-.48.85-.21,1.53-.44,2.04-.68.32.11.6.35.84.72.24.37.36.91.36,1.6,0,.48-.07,1-.2,1.56-.11.53-.32,1.41-.64,2.64h-.24c.51-1.31.91-2.24,1.2-2.8.29-.56.57-.97.84-1.24.59-.67,1.36-1.24,2.32-1.72.96-.48,2.01-.72,3.16-.72,1.28,0,2.41.28,3.4.84,1.01.53,1.79,1.31,2.32,2.32.35.61.52,1.24.52,1.88h-.2c.48-1.25,1.01-2.15,1.6-2.68.59-.59,1.31-1.08,2.16-1.48.85-.43,1.83-.64,2.92-.64,1.41,0,2.6.24,3.56.72.99.45,1.73,1.19,2.24,2.2.53.99.8,2.32.8,4v3.92c0,1.44.04,2.51.12,3.2.11.67.29,1.11.56,1.32.27.21.68.35,1.24.4.13.4.21.84.24,1.32.05.45.08.93.08,1.44-.67-.05-1.47-.09-2.4-.12h-4.96c-.75.03-1.47.04-2.16.04-.69.03-1.28.05-1.76.08,0-.59.01-1.08.04-1.48.05-.43.13-.85.24-1.28.53-.03.96-.16,1.28-.4s.55-.69.68-1.36c.13-.67.2-1.61.2-2.84v-2.92c0-1.65-.23-2.76-.68-3.32-.45-.59-1.05-.88-1.8-.88s-1.41.24-2,.72c-.56.48-1,1.2-1.32,2.16-.29.93-.44,2.08-.44,3.44v1.72c0,1.39.15,2.33.44,2.84.29.51.88.79,1.76.84.11.35.19.77.24,1.28.05.48.08.97.08,1.48-.61-.05-1.47-.09-2.56-.12h-6.4c-1.07.03-1.96.07-2.68.12,0-.51.03-1,.08-1.48.08-.51.17-.93.28-1.28.61-.05,1.08-.19,1.4-.4.32-.24.53-.69.64-1.36.13-.69.2-1.75.2-3.16v-2.96c0-1.49-.23-2.52-.68-3.08-.45-.56-1.13-.84-2.04-.84-.67,0-1.28.27-1.84.8-.53.53-.97,1.28-1.32,2.24-.32.96-.48,2.05-.48,3.28v1.8c0,1.44.15,2.4.44,2.88.29.48.87.75,1.72.8.13.37.23.8.28,1.28.05.48.08.97.08,1.48-.43-.05-1.01-.09-1.76-.12h-8.68c-.67.03-1.2.07-1.6.12ZM175.04,142.36c-2.4,0-4.35-.41-5.84-1.24-1.47-.83-2.55-1.95-3.24-3.36-.69-1.41-1.04-3-1.04-4.76,0-1.97.39-3.68,1.16-5.12.77-1.44,1.89-2.56,3.36-3.36,1.47-.8,3.19-1.2,5.16-1.2s3.6.37,4.88,1.12c1.28.72,2.23,1.73,2.84,3.04.64,1.28.99,2.77,1.04,4.48-.21.88-.6,1.59-1.16,2.12h-2.64c-.99,0-2.03.01-3.12.04-1.07,0-2.16.03-3.28.08-1.09.05-2.15.12-3.16.2v-2.88h7.36c0-1.81-.24-3.19-.72-4.12-.45-.93-1.15-1.4-2.08-1.4-.61,0-1.16.23-1.64.68-.45.43-.8,1.08-1.04,1.96-.24.85-.36,1.92-.36,3.2,0,1.39.17,2.63.52,3.72.35,1.09.92,1.95,1.72,2.56.8.61,1.88.92,3.24.92.93,0,1.87-.16,2.8-.48.93-.32,1.71-.73,2.32-1.24.27.16.51.48.72.96.21.45.32.92.32,1.4-1.04.88-2.23,1.55-3.56,2-1.31.45-2.83.68-4.56.68ZM205.34,123.32c.56,0,1.08.04,1.56.12.51.08,1.03.19,1.56.32v4c-.43-.59-.89-1.04-1.4-1.36-.48-.32-1.07-.48-1.76-.48-.48,0-.99.09-1.52.28s-1.04.53-1.52,1.04c-.45.51-.83,1.24-1.12,2.2-.29.93-.44,2.15-.44,3.64,0,1.07.12,2.04.36,2.92.27.85.65,1.53,1.16,2.04.53.51,1.19.76,1.96.76.64,0,1.25-.2,1.84-.6.59-.43,1.08-1.11,1.48-2.04.4-.96.6-2.23.6-3.8l1.72,4.04c-.48,1.12-.93,2-1.36,2.64-.4.61-.81,1.08-1.24,1.4-.29.29-.71.59-1.24.88-.51.29-1.11.53-1.8.72-.67.21-1.39.32-2.16.32-1.52,0-2.89-.28-4.12-.84-1.2-.59-2.15-1.49-2.84-2.72-.69-1.23-1.04-2.8-1.04-4.72,0-2.13.47-4,1.4-5.6.93-1.63,2.25-2.89,3.96-3.8s3.69-1.36,5.96-1.36ZM214.66,134.76c0,.93.05,1.65.16,2.16.11.48.32.81.64,1,.35.16.85.25,1.52.28.08.51.08,1,0,1.48-.05.48-.19.93-.4,1.36-1.09.03-2.21.15-3.36.36-1.12.21-2.17.53-3.16.96-.51-.19-.87-.45-1.08-.8-.21-.37-.32-.87-.32-1.48,0-.53.07-1.08.2-1.64.13-.59.31-1.2.52-1.84l5.28-1.84ZM214.66,119.24v17.52h-6.56v-17.52h6.56ZM213.38,113.32c.4.16.71.43.92.8.24.37.36.88.36,1.52v4.88h-6.56v-.44c0-.61-.08-1.12-.24-1.52-.16-.4-.45-.69-.88-.88-.43-.21-1.05-.35-1.88-.4,0-.45.03-.91.08-1.36.08-.48.21-.91.4-1.28,1.09,0,2.16-.07,3.2-.2,1.04-.13,1.96-.29,2.76-.48.83-.21,1.44-.43,1.84-.64ZM229.42,142.36c-2.24,0-4.13-.37-5.68-1.12-1.52-.77-2.67-1.85-3.44-3.24-.77-1.39-1.16-3.01-1.16-4.88,0-2.16.45-3.96,1.36-5.4.93-1.47,2.2-2.56,3.8-3.28,1.6-.75,3.4-1.12,5.4-1.12,2.29,0,4.2.4,5.72,1.2,1.55.8,2.71,1.89,3.48,3.28.77,1.39,1.16,2.99,1.16,4.8,0,2-.43,3.73-1.28,5.2-.85,1.47-2.08,2.6-3.68,3.4-1.6.77-3.49,1.16-5.68,1.16ZM230.06,139.56c1.09,0,1.92-.56,2.48-1.68.56-1.12.84-2.51.84-4.16s-.2-3.17-.6-4.32c-.4-1.15-.92-2-1.56-2.56-.64-.59-1.33-.88-2.08-.88-1.15,0-1.99.56-2.52,1.68-.53,1.12-.8,2.49-.8,4.12,0,1.47.16,2.8.48,4,.32,1.17.8,2.11,1.44,2.8.64.67,1.41,1,2.32,1ZM245.34,133.72v-3.08c0-.83-.05-1.47-.16-1.92-.11-.45-.37-.79-.8-1-.4-.24-1.04-.39-1.92-.44,0-.45.03-.91.08-1.36.08-.48.21-.91.4-1.28,1.68,0,3.23-.13,4.64-.4,1.44-.29,2.48-.6,3.12-.92.4.16.71.43.92.8.21.37.32.89.32,1.56l-6.6,8.04ZM264.98,135.88c0,1.33.13,2.25.4,2.76.27.48.76.72,1.48.72.16.37.25.79.28,1.24.05.43.08.93.08,1.52-.59-.03-1.39-.05-2.4-.08-.99-.03-1.93-.04-2.84-.04h-2.12c-.8.03-1.56.04-2.28.04-.72.03-1.28.05-1.68.08,0-.51.01-.99.04-1.44.05-.48.16-.92.32-1.32.67,0,1.19-.27,1.56-.8.37-.56.56-1.56.56-3v-3.6c0-1.63-.24-2.75-.72-3.36-.48-.64-1.17-.96-2.08-.96-.64,0-1.24.25-1.8.76-.56.51-1.01,1.23-1.36,2.16-.32.93-.48,2.07-.48,3.4v1.92c0,1.36.17,2.28.52,2.76.35.48.87.72,1.56.72.19.43.29.85.32,1.28.05.43.08.92.08,1.48-.4-.03-.93-.05-1.6-.08-.67,0-1.37-.01-2.12-.04h-4.2c-.83.03-1.63.04-2.4.04-.75.03-1.32.05-1.72.08,0-.56.03-1.08.08-1.56.08-.48.17-.88.28-1.2,1.04,0,1.73-.24,2.08-.72.35-.51.52-1.43.52-2.76v-5.24l6.6-4.96c0,.32-.04.69-.12,1.12-.08.4-.19.83-.32,1.28.19-.43.37-.83.56-1.2.21-.37.47-.72.76-1.04.59-.64,1.35-1.19,2.28-1.64.96-.45,2.03-.68,3.2-.68s2.27.21,3.28.64c1.01.43,1.83,1.12,2.44,2.08.64.96.96,2.23.96,3.8v5.84ZM272.76,133.72v-3.08c0-.83-.05-1.47-.16-1.92-.11-.45-.37-.79-.8-1-.4-.24-1.04-.39-1.92-.44,0-.45.03-.91.08-1.36.08-.48.21-.91.4-1.28,1.68,0,3.23-.13,4.64-.4,1.44-.29,2.48-.6,3.12-.92.4.16.71.43.92.8.21.37.32.89.32,1.56l-6.6,8.04ZM292.4,135.88c0,1.33.13,2.25.4,2.76.27.48.76.72,1.48.72.16.37.25.79.28,1.24.05.43.08.93.08,1.52-.59-.03-1.39-.05-2.4-.08-.99-.03-1.93-.04-2.84-.04h-2.12c-.8.03-1.56.04-2.28.04-.72.03-1.28.05-1.68.08,0-.51.01-.99.04-1.44.05-.48.16-.92.32-1.32.67,0,1.19-.27,1.56-.8.37-.56.56-1.56.56-3v-3.6c0-1.63-.24-2.75-.72-3.36-.48-.64-1.17-.96-2.08-.96-.64,0-1.24.25-1.8.76-.56.51-1.01,1.23-1.36,2.16-.32.93-.48,2.07-.48,3.4v1.92c0,1.36.17,2.28.52,2.76.35.48.87.72,1.56.72.19.43.29.85.32,1.28.05.43.08.92.08,1.48-.4-.03-.93-.05-1.6-.08-.67,0-1.37-.01-2.12-.04h-4.2c-.83.03-1.63.04-2.4.04-.75.03-1.32.05-1.72.08,0-.56.03-1.08.08-1.56.08-.48.17-.88.28-1.2,1.04,0,1.73-.24,2.08-.72.35-.51.52-1.43.52-2.76v-5.24l6.6-4.96c0,.32-.04.69-.12,1.12-.08.4-.19.83-.32,1.28.19-.43.37-.83.56-1.2.21-.37.47-.72.76-1.04.59-.64,1.35-1.19,2.28-1.64.96-.45,2.03-.68,3.2-.68s2.27.21,3.28.64c1.01.43,1.83,1.12,2.44,2.08.64.96.96,2.23.96,3.8v5.84ZM306.45,142.36c-2.4,0-4.35-.41-5.84-1.24-1.47-.83-2.55-1.95-3.24-3.36-.69-1.41-1.04-3-1.04-4.76,0-1.97.39-3.68,1.16-5.12.77-1.44,1.89-2.56,3.36-3.36,1.47-.8,3.19-1.2,5.16-1.2s3.6.37,4.88,1.12c1.28.72,2.23,1.73,2.84,3.04.64,1.28.99,2.77,1.04,4.48-.21.88-.6,1.59-1.16,2.12h-2.64c-.99,0-2.03.01-3.12.04-1.07,0-2.16.03-3.28.08-1.09.05-2.15.12-3.16.2v-2.88h7.36c0-1.81-.24-3.19-.72-4.12-.45-.93-1.15-1.4-2.08-1.4-.61,0-1.16.23-1.64.68-.45.43-.8,1.08-1.04,1.96-.24.85-.36,1.92-.36,3.2,0,1.39.17,2.63.52,3.72.35,1.09.92,1.95,1.72,2.56.8.61,1.88.92,3.24.92.93,0,1.87-.16,2.8-.48.93-.32,1.71-.73,2.32-1.24.27.16.51.48.72.96.21.45.32.92.32,1.4-1.04.88-2.23,1.55-3.56,2-1.31.45-2.83.68-4.56.68ZM325.07,142.12c0-.56.03-1.07.08-1.52.05-.48.13-.89.24-1.24,1.07-.05,1.77-.31,2.12-.76.35-.48.52-1.39.52-2.72v-16.12c0-.53-.09-.97-.28-1.32-.16-.35-.45-.61-.88-.8-.43-.19-1.03-.31-1.8-.36,0-.45.03-.91.08-1.36.08-.48.21-.91.4-1.28,1.09,0,2.16-.07,3.2-.2,1.04-.13,1.96-.29,2.76-.48.83-.21,1.44-.43,1.84-.64.4.16.71.43.92.8.24.37.36.88.36,1.52v20.24c0,1.33.17,2.24.52,2.72.35.45,1.03.71,2.04.76.11.35.17.76.2,1.24.05.48.08.99.08,1.52-.35-.03-.85-.05-1.52-.08-.67,0-1.41-.01-2.24-.04h-4.88c-.83.03-1.57.04-2.24.04-.67.03-1.17.05-1.52.08ZM349.88,142.36c-2.4,0-4.35-.41-5.84-1.24-1.47-.83-2.55-1.95-3.24-3.36-.69-1.41-1.04-3-1.04-4.76,0-1.97.39-3.68,1.16-5.12.77-1.44,1.89-2.56,3.36-3.36,1.47-.8,3.19-1.2,5.16-1.2s3.6.37,4.88,1.12c1.28.72,2.23,1.73,2.84,3.04.64,1.28.99,2.77,1.04,4.48-.21.88-.6,1.59-1.16,2.12h-2.64c-.99,0-2.03.01-3.12.04-1.07,0-2.16.03-3.28.08-1.09.05-2.15.12-3.16.2v-2.88h7.36c0-1.81-.24-3.19-.72-4.12-.45-.93-1.15-1.4-2.08-1.4-.61,0-1.16.23-1.64.68-.45.43-.8,1.08-1.04,1.96-.24.85-.36,1.92-.36,3.2,0,1.39.17,2.63.52,3.72.35,1.09.92,1.95,1.72,2.56.8.61,1.88.92,3.24.92.93,0,1.87-.16,2.8-.48.93-.32,1.71-.73,2.32-1.24.27.16.51.48.72.96.21.45.32.92.32,1.4-1.04.88-2.23,1.55-3.56,2-1.31.45-2.83.68-4.56.68ZM375.7,124.56c-.03.69-.04,1.41-.04,2.16.03.72.09,1.43.2,2.12-.4.21-.92.4-1.56.56-.61.16-1.24.24-1.88.24-.08-.67-.27-1.27-.56-1.8-.27-.56-.65-1-1.16-1.32-.48-.32-1.11-.48-1.88-.48-.53,0-.96.15-1.28.44-.29.27-.44.63-.44,1.08,0,.32.08.63.24.92.19.29.57.63,1.16,1,.61.35,1.55.79,2.8,1.32,1.52.61,2.71,1.2,3.56,1.76.88.56,1.51,1.16,1.88,1.8.37.64.56,1.41.56,2.32,0,1.2-.36,2.23-1.08,3.08-.69.85-1.69,1.51-3,1.96-1.31.43-2.88.64-4.72.64-1.68,0-3.08-.12-4.2-.36s-2.21-.57-3.28-1c.08-.53.13-1.09.16-1.68.03-.61.03-1.2,0-1.76,0-.59-.03-1.09-.08-1.52.4-.27.93-.45,1.6-.56.69-.13,1.33-.2,1.92-.2.16,1.39.56,2.44,1.2,3.16.67.69,1.48,1.04,2.44,1.04.67,0,1.21-.15,1.64-.44.45-.29.68-.72.68-1.28,0-.4-.11-.75-.32-1.04-.19-.32-.55-.63-1.08-.92-.51-.32-1.27-.67-2.28-1.04-1.17-.45-2.19-.93-3.04-1.44s-1.52-1.13-2-1.88c-.45-.75-.68-1.71-.68-2.88,0-.91.19-1.68.56-2.32.4-.67.96-1.21,1.68-1.64.72-.43,1.55-.75,2.48-.96.96-.21,1.99-.32,3.08-.32,1.49,0,2.76.11,3.8.32,1.04.19,2.01.49,2.92.92ZM89.43,181.12c0-.51.03-.99.08-1.44.05-.48.15-.91.28-1.28,1.09-.08,1.8-.35,2.12-.8.32-.48.48-1.39.48-2.72v-4.8c0-.99-.05-1.73-.16-2.24-.11-.51-.37-.88-.8-1.12-.4-.24-1.04-.39-1.92-.44,0-.45.03-.89.08-1.32.08-.45.21-.89.4-1.32.96,0,1.93-.05,2.92-.16.99-.13,1.91-.29,2.76-.48.85-.21,1.53-.44,2.04-.68.32.11.6.35.84.72.24.37.36.91.36,1.6,0,.48-.07,1-.2,1.56-.11.53-.32,1.41-.64,2.64h-.24c.51-1.31.91-2.24,1.2-2.8s.57-.97.84-1.24c.59-.67,1.36-1.24,2.32-1.72.96-.48,2.01-.72,3.16-.72,1.28,0,2.41.28,3.4.84,1.01.53,1.79,1.31,2.32,2.32.35.61.52,1.24.52,1.88h-.2c.48-1.25,1.01-2.15,1.6-2.68.59-.59,1.31-1.08,2.16-1.48.85-.43,1.83-.64,2.92-.64,1.41,0,2.6.24,3.56.72.99.45,1.73,1.19,2.24,2.2.53.99.8,2.32.8,4v3.92c0,1.44.04,2.51.12,3.2.11.67.29,1.11.56,1.32s.68.35,1.24.4c.13.4.21.84.24,1.32.05.45.08.93.08,1.44-.67-.05-1.47-.09-2.4-.12h-4.96c-.75.03-1.47.04-2.16.04-.69.03-1.28.05-1.76.08,0-.59.01-1.08.04-1.48.05-.43.13-.85.24-1.28.53-.03.96-.16,1.28-.4s.55-.69.68-1.36.2-1.61.2-2.84v-2.92c0-1.65-.23-2.76-.68-3.32-.45-.59-1.05-.88-1.8-.88s-1.41.24-2,.72c-.56.48-1,1.2-1.32,2.16-.29.93-.44,2.08-.44,3.44v1.72c0,1.39.15,2.33.44,2.84.29.51.88.79,1.76.84.11.35.19.77.24,1.28.05.48.08.97.08,1.48-.61-.05-1.47-.09-2.56-.12h-6.4c-1.07.03-1.96.07-2.68.12,0-.51.03-1,.08-1.48.08-.51.17-.93.28-1.28.61-.05,1.08-.19,1.4-.4.32-.24.53-.69.64-1.36.13-.69.2-1.75.2-3.16v-2.96c0-1.49-.23-2.52-.68-3.08-.45-.56-1.13-.84-2.04-.84-.67,0-1.28.27-1.84.8-.53.53-.97,1.28-1.32,2.24-.32.96-.48,2.05-.48,3.28v1.8c0,1.44.15,2.4.44,2.88.29.48.87.75,1.72.8.13.37.23.8.28,1.28.05.48.08.97.08,1.48-.43-.05-1.01-.09-1.76-.12h-8.68c-.67.03-1.2.07-1.6.12ZM138.89,181.36c-2.24,0-4.13-.37-5.68-1.12-1.52-.77-2.67-1.85-3.44-3.24-.77-1.39-1.16-3.01-1.16-4.88,0-2.16.45-3.96,1.36-5.4.93-1.47,2.2-2.56,3.8-3.28,1.6-.75,3.4-1.12,5.4-1.12,2.29,0,4.2.4,5.72,1.2,1.55.8,2.71,1.89,3.48,3.28.77,1.39,1.16,2.99,1.16,4.8,0,2-.43,3.73-1.28,5.2-.85,1.47-2.08,2.6-3.68,3.4-1.6.77-3.49,1.16-5.68,1.16ZM139.53,178.56c1.09,0,1.92-.56,2.48-1.68.56-1.12.84-2.51.84-4.16s-.2-3.17-.6-4.32c-.4-1.15-.92-2-1.56-2.56-.64-.59-1.33-.88-2.08-.88-1.15,0-1.99.56-2.52,1.68-.53,1.12-.8,2.49-.8,4.12,0,1.47.16,2.8.48,4,.32,1.17.8,2.11,1.44,2.8.64.67,1.41,1,2.32,1ZM166.06,169.08c.56-1.36.73-2.29.52-2.8-.21-.51-.75-.83-1.6-.96-.13-.35-.24-.76-.32-1.24-.05-.51-.08-1.01-.08-1.52.61.03,1.27.05,1.96.08.72.03,1.41.04,2.08.04s1.36-.01,2-.04,1.25-.05,1.84-.08c0,.4-.04.87-.12,1.4-.05.51-.16.96-.32,1.36-.43.11-.8.27-1.12.48-.29.21-.57.53-.84.96-.24.4-.52.97-.84,1.72l-5.88,14c-.75,1.81-1.44,3.28-2.08,4.4-.64,1.12-1.25,1.97-1.84,2.56-.56.59-1.15.99-1.76,1.2-.59.21-1.23.32-1.92.32-.85,0-1.67-.19-2.44-.56-.75-.35-1.32-.77-1.72-1.28-.08-.51-.09-1.15-.04-1.92.08-.77.23-1.45.44-2.04.45.16,1.04.31,1.76.44.75.13,1.53.2,2.36.2.88,0,1.6-.15,2.16-.44.56-.27,1.07-.76,1.52-1.48.21-.32.64-1.17,1.28-2.56.67-1.39,1.41-3.15,2.24-5.28l2.76-6.96ZM160.54,182.96c-.67-1.57-1.39-3.21-2.16-4.92-.77-1.73-1.55-3.43-2.32-5.08-.75-1.65-1.45-3.15-2.12-4.48-.4-.85-.76-1.48-1.08-1.88-.29-.43-.6-.72-.92-.88-.29-.19-.63-.32-1-.4-.11-.35-.2-.77-.28-1.28-.05-.53-.08-1.03-.08-1.48.77.03,1.67.05,2.68.08,1.01.03,2.03.04,3.04.04s2.16-.01,3.36-.04c1.23-.03,2.25-.05,3.08-.08,0,.48-.04.99-.12,1.52-.08.53-.17.95-.28,1.24-1.12.19-1.75.49-1.88.92-.13.43.12,1.25.76,2.48.37.75.76,1.57,1.16,2.48.4.88.77,1.8,1.12,2.76.37.96.71,1.95,1,2.96l-3.96,6.04ZM183.65,181.36c-2.4,0-4.35-.41-5.84-1.24-1.47-.83-2.55-1.95-3.24-3.36-.69-1.41-1.04-3-1.04-4.76,0-1.97.39-3.68,1.16-5.12.77-1.44,1.89-2.56,3.36-3.36,1.47-.8,3.19-1.2,5.16-1.2s3.6.37,4.88,1.12c1.28.72,2.23,1.73,2.84,3.04.64,1.28.99,2.77,1.04,4.48-.21.88-.6,1.59-1.16,2.12h-2.64c-.99,0-2.03.01-3.12.04-1.07,0-2.16.03-3.28.08-1.09.05-2.15.12-3.16.2v-2.88h7.36c0-1.81-.24-3.19-.72-4.12-.45-.93-1.15-1.4-2.08-1.4-.61,0-1.16.23-1.64.68-.45.43-.8,1.08-1.04,1.96-.24.85-.36,1.92-.36,3.2,0,1.39.17,2.63.52,3.72.35,1.09.92,1.95,1.72,2.56.8.61,1.88.92,3.24.92.93,0,1.87-.16,2.8-.48.93-.32,1.71-.73,2.32-1.24.27.16.51.48.72.96.21.45.32.92.32,1.4-1.04.88-2.23,1.55-3.56,2-1.31.45-2.83.68-4.56.68ZM197.59,172.72v-3.08c0-.83-.05-1.47-.16-1.92-.11-.45-.37-.79-.8-1-.4-.24-1.04-.39-1.92-.44,0-.45.03-.91.08-1.36.08-.48.21-.91.4-1.28,1.68,0,3.23-.13,4.64-.4,1.44-.29,2.48-.6,3.12-.92.4.16.71.43.92.8.21.37.32.89.32,1.56l-6.6,8.04ZM217.23,174.88c0,1.33.13,2.25.4,2.76.27.48.76.72,1.48.72.16.37.25.79.28,1.24.05.43.08.93.08,1.52-.59-.03-1.39-.05-2.4-.08-.99-.03-1.93-.04-2.84-.04h-2.12c-.8.03-1.56.04-2.28.04-.72.03-1.28.05-1.68.08,0-.51.01-.99.04-1.44.05-.48.16-.92.32-1.32.67,0,1.19-.27,1.56-.8.37-.56.56-1.56.56-3v-3.6c0-1.63-.24-2.75-.72-3.36-.48-.64-1.17-.96-2.08-.96-.64,0-1.24.25-1.8.76s-1.01,1.23-1.36,2.16c-.32.93-.48,2.07-.48,3.4v1.92c0,1.36.17,2.28.52,2.76.35.48.87.72,1.56.72.19.43.29.85.32,1.28.05.43.08.92.08,1.48-.4-.03-.93-.05-1.6-.08-.67,0-1.37-.01-2.12-.04h-4.2c-.83.03-1.63.04-2.4.04-.75.03-1.32.05-1.72.08,0-.56.03-1.08.08-1.56.08-.48.17-.88.28-1.2,1.04,0,1.73-.24,2.08-.72.35-.51.52-1.43.52-2.76v-5.24l6.6-4.96c0,.32-.04.69-.12,1.12-.08.4-.19.83-.32,1.28.19-.43.37-.83.56-1.2.21-.37.47-.72.76-1.04.59-.64,1.35-1.19,2.28-1.64.96-.45,2.03-.68,3.2-.68s2.27.21,3.28.64c1.01.43,1.83,1.12,2.44,2.08.64.96.96,2.23.96,3.8v5.84ZM236.89,163.56c-.03.69-.04,1.41-.04,2.16.03.72.09,1.43.2,2.12-.4.21-.92.4-1.56.56-.61.16-1.24.24-1.88.24-.08-.67-.27-1.27-.56-1.8-.27-.56-.65-1-1.16-1.32-.48-.32-1.11-.48-1.88-.48-.53,0-.96.15-1.28.44-.29.27-.44.63-.44,1.08,0,.32.08.63.24.92.19.29.57.63,1.16,1,.61.35,1.55.79,2.8,1.32,1.52.61,2.71,1.2,3.56,1.76.88.56,1.51,1.16,1.88,1.8.37.64.56,1.41.56,2.32,0,1.2-.36,2.23-1.08,3.08-.69.85-1.69,1.51-3,1.96-1.31.43-2.88.64-4.72.64-1.68,0-3.08-.12-4.2-.36-1.12-.24-2.21-.57-3.28-1,.08-.53.13-1.09.16-1.68.03-.61.03-1.2,0-1.76,0-.59-.03-1.09-.08-1.52.4-.27.93-.45,1.6-.56.69-.13,1.33-.2,1.92-.2.16,1.39.56,2.44,1.2,3.16.67.69,1.48,1.04,2.44,1.04.67,0,1.21-.15,1.64-.44.45-.29.68-.72.68-1.28,0-.4-.11-.75-.32-1.04-.19-.32-.55-.63-1.08-.92-.51-.32-1.27-.67-2.28-1.04-1.17-.45-2.19-.93-3.04-1.44-.85-.51-1.52-1.13-2-1.88-.45-.75-.68-1.71-.68-2.88,0-.91.19-1.68.56-2.32.4-.67.96-1.21,1.68-1.64.72-.43,1.55-.75,2.48-.96.96-.21,1.99-.32,3.08-.32,1.49,0,2.76.11,3.8.32,1.04.19,2.01.49,2.92.92ZM249.08,190.8c0-.64.01-1.19.04-1.64.05-.43.13-.8.24-1.12.72-.05,1.27-.2,1.64-.44.4-.21.67-.61.8-1.2.16-.59.24-1.45.24-2.6v-14.16c0-.83-.05-1.47-.16-1.92-.11-.45-.37-.79-.8-1-.4-.24-1.04-.39-1.92-.44,0-.45.03-.91.08-1.36.08-.48.21-.91.4-1.28,1.68,0,3.23-.13,4.64-.4,1.44-.29,2.48-.6,3.12-.92.4.16.71.43.92.8.21.37.32.89.32,1.56,0,.27-.07.63-.2,1.08-.13.45-.33.97-.6,1.56l.8.84v15.16c0,1.15.12,2.04.36,2.68.27.67.69,1.15,1.28,1.44.61.32,1.45.52,2.52.6.13.37.21.8.24,1.28.05.51.08,1,.08,1.48-.48-.03-1.09-.05-1.84-.08-.75,0-1.55-.01-2.4-.04h-6.48c-1.39.03-2.49.07-3.32.12ZM261.4,181.36c-.56,0-1.08-.04-1.56-.12-.48-.08-1.01-.19-1.6-.32v-4c.43.59.88,1.04,1.36,1.36.51.32,1.11.48,1.8.48.48,0,.99-.09,1.52-.28.53-.19,1.04-.53,1.52-1.04.48-.51.85-1.23,1.12-2.16.29-.96.44-2.19.44-3.68,0-.99-.12-1.91-.36-2.76-.21-.88-.57-1.59-1.08-2.12-.48-.56-1.15-.84-2-.84-.64,0-1.27.21-1.88.64-.59.4-1.08,1.08-1.48,2.04-.37.93-.56,2.19-.56,3.76l-1.72-4.04c.45-1.12.89-1.99,1.32-2.6.43-.64.84-1.12,1.24-1.44.32-.29.73-.59,1.24-.88.53-.29,1.13-.53,1.8-.72.69-.21,1.41-.32,2.16-.32,1.57,0,2.95.29,4.12.88,1.2.56,2.15,1.44,2.84,2.64.72,1.2,1.08,2.76,1.08,4.68,0,2.16-.48,4.05-1.44,5.68-.93,1.63-2.25,2.89-3.96,3.8-1.68.91-3.65,1.36-5.92,1.36ZM285.61,181.36c-2.24,0-4.13-.37-5.68-1.12-1.52-.77-2.67-1.85-3.44-3.24-.77-1.39-1.16-3.01-1.16-4.88,0-2.16.45-3.96,1.36-5.4.93-1.47,2.2-2.56,3.8-3.28,1.6-.75,3.4-1.12,5.4-1.12,2.29,0,4.2.4,5.72,1.2,1.55.8,2.71,1.89,3.48,3.28.77,1.39,1.16,2.99,1.16,4.8,0,2-.43,3.73-1.28,5.2-.85,1.47-2.08,2.6-3.68,3.4-1.6.77-3.49,1.16-5.68,1.16ZM286.25,178.56c1.09,0,1.92-.56,2.48-1.68.56-1.12.84-2.51.84-4.16s-.2-3.17-.6-4.32c-.4-1.15-.92-2-1.56-2.56-.64-.59-1.33-.88-2.08-.88-1.15,0-1.99.56-2.52,1.68-.53,1.12-.8,2.49-.8,4.12,0,1.47.16,2.8.48,4,.32,1.17.8,2.11,1.44,2.8.64.67,1.41,1,2.32,1ZM306.84,181.24c-1.95,0-3.47-.53-4.56-1.6-1.07-1.09-1.6-3.03-1.6-5.8v-4.2c0-1.2-.13-2.04-.4-2.52-.27-.48-.97-.76-2.12-.84,0-.45.03-.91.08-1.36.08-.48.21-.91.4-1.28,1.68,0,3.17-.13,4.48-.4,1.31-.29,2.28-.6,2.92-.92.4.16.71.43.92.8.21.37.32.89.32,1.56v8.16c0,1.79.17,3.03.52,3.72.35.67.88,1,1.6,1,.99,0,1.84-.51,2.56-1.52s1.08-2.57,1.08-4.68v-1.92c0-1.2-.17-2.04-.52-2.52-.35-.48-1.13-.76-2.36-.84,0-.45.03-.91.08-1.36.05-.48.17-.91.36-1.28,1.73,0,3.31-.11,4.72-.32,1.41-.24,2.43-.51,3.04-.8.4.16.71.43.92.8.21.37.32.89.32,1.56v10.96l-5.72,1.44c-.19.51-.4.96-.64,1.36-.24.37-.52.71-.84,1-.56.51-1.31.93-2.24,1.28-.93.35-2.04.52-3.32.52ZM315,181.36c-.51-.19-.87-.45-1.08-.8-.21-.37-.32-.87-.32-1.48,0-.48.05-1.01.16-1.6.13-.59.27-1.11.4-1.56l5.44-2.16c0,.93.05,1.65.16,2.16.11.48.32.81.64,1,.35.16.85.25,1.52.28.08.51.09,1,.04,1.48-.05.48-.2.93-.44,1.36-1.07.03-2.17.15-3.32.36-1.15.21-2.21.53-3.2.96ZM333.64,173.64c0,1.15.12,2.05.36,2.72.27.64.69,1.12,1.28,1.44.61.29,1.45.48,2.52.56.13.37.21.81.24,1.32.05.48.08.96.08,1.44-.48-.03-1.09-.05-1.84-.08-.75,0-1.55-.01-2.4-.04h-6.48c-1.39.03-2.49.07-3.32.12,0-.64.01-1.17.04-1.6.05-.45.13-.84.24-1.16.72-.05,1.27-.19,1.64-.4.4-.24.67-.65.8-1.24.16-.59.24-1.45.24-2.6v-2.2h6.6v1.72ZM333.64,169.2v3.52h-6.6v-4.32l6.6-3.72c0,.53-.08,1.13-.24,1.8-.13.67-.32,1.51-.56,2.52l.8.2ZM332.76,169.12c.19-.53.4-1.13.64-1.8.24-.69.45-1.2.64-1.52.59-.93,1.32-1.71,2.2-2.32.88-.61,1.85-.92,2.92-.92s2,.32,2.88.96c-.08.56-.16,1.21-.24,1.96-.08.75-.13,1.51-.16,2.28,0,.75.01,1.43.04,2.04-.45.19-1.05.32-1.8.4-.75.05-1.39.08-1.92.08-.05-.96-.21-1.64-.48-2.04-.27-.43-.67-.64-1.2-.64-.37,0-.77.23-1.2.68-.4.45-.75,1.04-1.04,1.76-.27.69-.4,1.44-.4,2.24l-.88-3.16ZM327.04,172.72v-3.08c0-.83-.05-1.47-.16-1.92-.11-.45-.37-.79-.8-1-.4-.24-1.04-.39-1.92-.44,0-.45.03-.91.08-1.36.08-.48.21-.91.4-1.28,1.68,0,3.23-.13,4.64-.4,1.44-.29,2.48-.6,3.12-.92.4.16.71.43.92.8.21.37.32.89.32,1.56l-6.6,8.04ZM366.34,169.08c.56-1.36.73-2.29.52-2.8s-.75-.83-1.6-.96c-.13-.35-.24-.76-.32-1.24-.05-.51-.08-1.01-.08-1.52.61.03,1.27.05,1.96.08.72.03,1.41.04,2.08.04s1.36-.01,2-.04c.64-.03,1.25-.05,1.84-.08,0,.4-.04.87-.12,1.4-.05.51-.16.96-.32,1.36-.43.11-.8.27-1.12.48-.29.21-.57.53-.84.96-.24.4-.52.97-.84,1.72l-5.88,14c-.75,1.81-1.44,3.28-2.08,4.4-.64,1.12-1.25,1.97-1.84,2.56-.56.59-1.15.99-1.76,1.2-.59.21-1.23.32-1.92.32-.85,0-1.67-.19-2.44-.56-.75-.35-1.32-.77-1.72-1.28-.08-.51-.09-1.15-.04-1.92.08-.77.23-1.45.44-2.04.45.16,1.04.31,1.76.44.75.13,1.53.2,2.36.2.88,0,1.6-.15,2.16-.44.56-.27,1.07-.76,1.52-1.48.21-.32.64-1.17,1.28-2.56.67-1.39,1.41-3.15,2.24-5.28l2.76-6.96ZM360.82,182.96c-.67-1.57-1.39-3.21-2.16-4.92-.77-1.73-1.55-3.43-2.32-5.08-.75-1.65-1.45-3.15-2.12-4.48-.4-.85-.76-1.48-1.08-1.88-.29-.43-.6-.72-.92-.88-.29-.19-.63-.32-1-.4-.11-.35-.2-.77-.28-1.28-.05-.53-.08-1.03-.08-1.48.77.03,1.67.05,2.68.08s2.03.04,3.04.04,2.16-.01,3.36-.04c1.23-.03,2.25-.05,3.08-.08,0,.48-.04.99-.12,1.52-.08.53-.17.95-.28,1.24-1.12.19-1.75.49-1.88.92-.13.43.12,1.25.76,2.48.37.75.76,1.57,1.16,2.48.4.88.77,1.8,1.12,2.76.37.96.71,1.95,1,2.96l-3.96,6.04ZM147.99,220.36c-.51-.19-.87-.47-1.08-.84-.21-.37-.32-.87-.32-1.48,0-.35.04-.76.12-1.24.08-.51.2-.99.36-1.44l.16-.16c-.24.83-.55,1.55-.92,2.16-.37.59-.81,1.08-1.32,1.48-.56.48-1.24.84-2.04,1.08s-1.72.36-2.76.36c-1.84,0-3.28-.39-4.32-1.16-1.04-.77-1.56-1.91-1.56-3.4,0-1.01.23-1.88.68-2.6.48-.75,1.12-1.37,1.92-1.88.83-.53,1.73-.96,2.72-1.28,1.01-.32,2.05-.57,3.12-.76,1.09-.21,2.16-.4,3.2-.56,0-.64-.03-1.2-.08-1.68-.03-.48-.11-.89-.24-1.24-.11-.37-.29-.69-.56-.96-.29-.35-.64-.59-1.04-.72-.37-.13-.75-.2-1.12-.2-.67,0-1.21.2-1.64.6-.43.4-.75.95-.96,1.64-.21.67-.36,1.4-.44,2.2-.77,0-1.47-.03-2.08-.08-.61-.05-1.17-.19-1.68-.4.05-.75.07-1.53.04-2.36-.03-.83-.13-1.69-.32-2.6,1.15-.48,2.49-.85,4.04-1.12,1.55-.29,3.03-.44,4.44-.44,1.76,0,3.15.2,4.16.6,1.01.37,1.77.81,2.28,1.32.53.53.96,1.29,1.28,2.28.35.96.52,2.39.52,4.28v3.08c0,.91.05,1.6.16,2.08.11.48.32.81.64,1,.35.16.84.25,1.48.28.08.51.09,1,.04,1.48-.05.48-.19.93-.4,1.36-1.09.03-2.2.15-3.32.36-1.12.21-2.17.53-3.16.96ZM142.55,216.48c.53,0,1.05-.16,1.56-.48.53-.35.97-.87,1.32-1.56.35-.69.52-1.55.52-2.56v-.92c-.83.16-1.57.35-2.24.56-.64.21-1.17.45-1.6.72-.43.27-.75.59-.96.96-.21.37-.32.81-.32,1.32,0,.69.16,1.2.48,1.52.35.29.76.44,1.24.44ZM166.61,212.64c0,1.15.12,2.05.36,2.72.27.64.69,1.12,1.28,1.44.61.29,1.45.48,2.52.56.13.37.21.81.24,1.32.05.48.08.96.08,1.44-.48-.03-1.09-.05-1.84-.08-.75,0-1.55-.01-2.4-.04h-6.48c-1.39.03-2.49.07-3.32.12,0-.64.01-1.17.04-1.6.05-.45.13-.84.24-1.16.72-.05,1.27-.19,1.64-.4.4-.24.67-.65.8-1.24.16-.59.24-1.45.24-2.6v-2.2h6.6v1.72ZM166.61,208.2v3.52h-6.6v-4.32l6.6-3.72c0,.53-.08,1.13-.24,1.8-.13.67-.32,1.51-.56,2.52l.8.2ZM165.73,208.12c.19-.53.4-1.13.64-1.8.24-.69.45-1.2.64-1.52.59-.93,1.32-1.71,2.2-2.32.88-.61,1.85-.92,2.92-.92s2,.32,2.88.96c-.08.56-.16,1.21-.24,1.96-.08.75-.13,1.51-.16,2.28,0,.75.01,1.43.04,2.04-.45.19-1.05.32-1.8.4-.75.05-1.39.08-1.92.08-.05-.96-.21-1.64-.48-2.04-.27-.43-.67-.64-1.2-.64-.37,0-.77.23-1.2.68-.4.45-.75,1.04-1.04,1.76-.27.69-.4,1.44-.4,2.24l-.88-3.16ZM160.01,211.72v-3.08c0-.83-.05-1.47-.16-1.92-.11-.45-.37-.79-.8-1-.4-.24-1.04-.39-1.92-.44,0-.45.03-.91.08-1.36.08-.48.21-.91.4-1.28,1.68,0,3.23-.13,4.64-.4,1.44-.29,2.48-.6,3.12-.92.4.16.71.43.92.8.21.37.32.89.32,1.56l-6.6,8.04ZM186.57,212.64c0,1.15.12,2.05.36,2.72.27.64.69,1.12,1.28,1.44.61.29,1.45.48,2.52.56.13.37.21.81.24,1.32.05.48.08.96.08,1.44-.48-.03-1.09-.05-1.84-.08-.75,0-1.55-.01-2.4-.04h-6.48c-1.39.03-2.49.07-3.32.12,0-.64.01-1.17.04-1.6.05-.45.13-.84.24-1.16.72-.05,1.27-.19,1.64-.4.4-.24.67-.65.8-1.24.16-.59.24-1.45.24-2.6v-2.2h6.6v1.72ZM186.57,208.2v3.52h-6.6v-4.32l6.6-3.72c0,.53-.08,1.13-.24,1.8-.13.67-.32,1.51-.56,2.52l.8.2ZM185.69,208.12c.19-.53.4-1.13.64-1.8.24-.69.45-1.2.64-1.52.59-.93,1.32-1.71,2.2-2.32.88-.61,1.85-.92,2.92-.92s2,.32,2.88.96c-.08.56-.16,1.21-.24,1.96-.08.75-.13,1.51-.16,2.28,0,.75.01,1.43.04,2.04-.45.19-1.05.32-1.8.4-.75.05-1.39.08-1.92.08-.05-.96-.21-1.64-.48-2.04-.27-.43-.67-.64-1.2-.64-.37,0-.77.23-1.2.68-.4.45-.75,1.04-1.04,1.76-.27.69-.4,1.44-.4,2.24l-.88-3.16ZM179.97,211.72v-3.08c0-.83-.05-1.47-.16-1.92-.11-.45-.37-.79-.8-1-.4-.24-1.04-.39-1.92-.44,0-.45.03-.91.08-1.36.08-.48.21-.91.4-1.28,1.68,0,3.23-.13,4.64-.4,1.44-.29,2.48-.6,3.12-.92.4.16.71.43.92.8.21.37.32.89.32,1.56l-6.6,8.04ZM196.97,220.12c0-.56.03-1.07.08-1.52.05-.48.13-.89.24-1.24,1.07-.05,1.77-.31,2.12-.76.35-.48.52-1.39.52-2.72v-5.8c0-.61-.08-1.12-.24-1.52-.13-.4-.41-.69-.84-.88-.43-.21-1.05-.35-1.88-.4,0-.45.03-.91.08-1.36.08-.48.21-.91.4-1.28,1.09,0,2.16-.07,3.2-.2,1.04-.13,1.96-.29,2.76-.48.83-.21,1.44-.43,1.84-.64.4.16.71.43.92.8.24.37.36.88.36,1.52v10.24c0,1.33.17,2.24.52,2.72.35.45,1.03.71,2.04.76.11.35.17.76.2,1.24.05.48.08.99.08,1.52-.35-.03-.85-.05-1.52-.08-.67,0-1.41-.01-2.24-.04h-4.88c-.83.03-1.57.04-2.24.04-.64.03-1.15.05-1.52.08ZM202.69,198.72c-1.09,0-1.97-.27-2.64-.8-.67-.56-1-1.29-1-2.2,0-1.04.36-1.84,1.08-2.4.75-.59,1.67-.88,2.76-.88,1.25,0,2.2.28,2.84.84.67.56,1,1.36,1,2.4,0,.88-.36,1.61-1.08,2.2-.72.56-1.71.84-2.96.84ZM220.29,220.36c-.35-.83-.75-1.72-1.2-2.68-.43-.99-.88-2-1.36-3.04-.45-1.04-.92-2.05-1.4-3.04s-.93-1.89-1.36-2.72c-.4-.85-.75-1.59-1.04-2.2-.29-.59-.56-1.04-.8-1.36-.24-.32-.49-.55-.76-.68-.24-.13-.53-.24-.88-.32-.11-.37-.2-.8-.28-1.28-.08-.51-.12-1-.12-1.48.61.03,1.43.05,2.44.08,1.04.03,2.13.04,3.28.04h2.36c.8-.03,1.55-.04,2.24-.04.69-.03,1.25-.05,1.68-.08,0,.45-.04.95-.12,1.48-.08.51-.17.93-.28,1.28-1.01.11-1.6.33-1.76.68-.16.32,0,.97.48,1.96.27.59.53,1.21.8,1.88.29.64.57,1.33.84,2.08.29.72.57,1.47.84,2.24.29.75.57,1.53.84,2.36h-1.32c.56-1.63,1.09-3.05,1.6-4.28.51-1.23,1.04-2.48,1.6-3.76.48-1.15.61-1.93.4-2.36-.21-.43-.76-.69-1.64-.8-.11-.35-.21-.77-.32-1.28-.08-.53-.12-1.03-.12-1.48.53.03,1.13.05,1.8.08.67.03,1.39.04,2.16.04s1.51-.01,2.2-.04c.69-.03,1.32-.05,1.88-.08,0,.45-.04.95-.12,1.48-.08.53-.2.96-.36,1.28-.45.11-.84.27-1.16.48-.32.19-.61.48-.88.88-.24.4-.51.96-.8,1.68l-5.52,12.48c-.45.21-1.05.37-1.8.48-.72.11-1.4.12-2.04.04ZM244.16,220.36c-2.4,0-4.35-.41-5.84-1.24-1.47-.83-2.55-1.95-3.24-3.36-.69-1.41-1.04-3-1.04-4.76,0-1.97.39-3.68,1.16-5.12.77-1.44,1.89-2.56,3.36-3.36,1.47-.8,3.19-1.2,5.16-1.2s3.6.37,4.88,1.12c1.28.72,2.23,1.73,2.84,3.04.64,1.28.99,2.77,1.04,4.48-.21.88-.6,1.59-1.16,2.12h-2.64c-.99,0-2.03.01-3.12.04-1.07,0-2.16.03-3.28.08-1.09.05-2.15.12-3.16.2v-2.88h7.36c0-1.81-.24-3.19-.72-4.12-.45-.93-1.15-1.4-2.08-1.4-.61,0-1.16.23-1.64.68-.45.43-.8,1.08-1.04,1.96-.24.85-.36,1.92-.36,3.2,0,1.39.17,2.63.52,3.72.35,1.09.92,1.95,1.72,2.56.8.61,1.88.92,3.24.92.93,0,1.87-.16,2.8-.48.93-.32,1.71-.73,2.32-1.24.27.16.51.48.72.96.21.45.32.92.32,1.4-1.04.88-2.23,1.55-3.56,2-1.31.45-2.83.68-4.56.68ZM264.69,212.64c0,1.15.12,2.05.36,2.72.27.64.69,1.12,1.28,1.44.61.29,1.45.48,2.52.56.13.37.21.81.24,1.32.05.48.08.96.08,1.44-.48-.03-1.09-.05-1.84-.08-.75,0-1.55-.01-2.4-.04h-6.48c-1.39.03-2.49.07-3.32.12,0-.64.01-1.17.04-1.6.05-.45.13-.84.24-1.16.72-.05,1.27-.19,1.64-.4.4-.24.67-.65.8-1.24.16-.59.24-1.45.24-2.6v-2.2h6.6v1.72ZM264.69,208.2v3.52h-6.6v-4.32l6.6-3.72c0,.53-.08,1.13-.24,1.8-.13.67-.32,1.51-.56,2.52l.8.2ZM263.81,208.12c.19-.53.4-1.13.64-1.8.24-.69.45-1.2.64-1.52.59-.93,1.32-1.71,2.2-2.32.88-.61,1.85-.92,2.92-.92s2,.32,2.88.96c-.08.56-.16,1.21-.24,1.96-.08.75-.13,1.51-.16,2.28,0,.75.01,1.43.04,2.04-.45.19-1.05.32-1.8.4-.75.05-1.39.08-1.92.08-.05-.96-.21-1.64-.48-2.04-.27-.43-.67-.64-1.2-.64-.37,0-.77.23-1.2.68-.4.45-.75,1.04-1.04,1.76-.27.69-.4,1.44-.4,2.24l-.88-3.16ZM258.09,211.72v-3.08c0-.83-.05-1.47-.16-1.92-.11-.45-.37-.79-.8-1-.4-.24-1.04-.39-1.92-.44,0-.45.03-.91.08-1.36.08-.48.21-.91.4-1.28,1.68,0,3.23-.13,4.64-.4,1.44-.29,2.48-.6,3.12-.92.4.16.71.43.92.8.21.37.32.89.32,1.56l-6.6,8.04ZM277.63,220.36c-1.17,0-2.09-.33-2.76-1-.67-.69-1-1.59-1-2.68s.37-2,1.12-2.64c.77-.67,1.73-1,2.88-1s1.96.36,2.6,1.08c.67.72,1,1.51,1,2.36,0,1.09-.35,2.01-1.04,2.76-.69.75-1.63,1.12-2.8,1.12ZM302.54,214.72c0,1.84-.13,3.52-.4,5.04-.24,1.49-.71,2.84-1.4,4.04-.69,1.23-1.69,2.35-3,3.36s-3.03,1.95-5.16,2.8c-.4-.29-.69-.65-.88-1.08-.19-.43-.31-.89-.36-1.4.99-.72,1.79-1.48,2.4-2.28.64-.77,1.11-1.75,1.4-2.92.32-1.17.48-2.67.48-4.48v-17.96c0-1.15-.08-2.01-.24-2.6-.13-.59-.39-.99-.76-1.2-.35-.21-.89-.36-1.64-.44-.11-.35-.19-.77-.24-1.28-.05-.53-.08-1.03-.08-1.48.51.03,1.13.05,1.88.08.75.03,1.52.04,2.32.04h5.6c1.23-.03,2.24-.07,3.04-.12,0,.53-.03,1.03-.08,1.48-.05.45-.13.88-.24,1.28-.77.05-1.36.21-1.76.48-.37.27-.61.69-.72,1.28-.11.59-.16,1.41-.16,2.48v14.88ZM318.26,220.36c-2.4,0-4.35-.41-5.84-1.24-1.47-.83-2.55-1.95-3.24-3.36-.69-1.41-1.04-3-1.04-4.76,0-1.97.39-3.68,1.16-5.12s1.89-2.56,3.36-3.36,3.19-1.2,5.16-1.2,3.6.37,4.88,1.12c1.28.72,2.23,1.73,2.84,3.04.64,1.28.99,2.77,1.04,4.48-.21.88-.6,1.59-1.16,2.12h-2.64c-.99,0-2.03.01-3.12.04-1.07,0-2.16.03-3.28.08-1.09.05-2.15.12-3.16.2v-2.88h7.36c0-1.81-.24-3.19-.72-4.12-.45-.93-1.15-1.4-2.08-1.4-.61,0-1.16.23-1.64.68-.45.43-.8,1.08-1.04,1.96-.24.85-.36,1.92-.36,3.2,0,1.39.17,2.63.52,3.72s.92,1.95,1.72,2.56c.8.61,1.88.92,3.24.92.93,0,1.87-.16,2.8-.48.93-.32,1.71-.73,2.32-1.24.27.16.51.48.72.96.21.45.32.92.32,1.4-1.04.88-2.23,1.55-3.56,2-1.31.45-2.83.68-4.56.68ZM86.44,259.36c-1.97,0-3.47-.51-4.48-1.52-1.01-1.04-1.52-2.79-1.52-5.24v-8.24c-.43-.16-.88-.28-1.36-.36-.45-.08-.99-.12-1.6-.12,0-.53.03-1.01.08-1.44.08-.45.23-.91.44-1.36h2.44v-4.76c1.04-.13,2.05-.4,3.04-.8,1.01-.4,1.83-.84,2.44-1.32.43.16.72.41.88.76s.24.96.24,1.84v4.28h4.8c0,.59-.04,1.11-.12,1.56-.05.43-.15.85-.28,1.28-.85,0-1.65.07-2.4.2-.72.11-1.39.27-2,.48v7.4c0,1.15.07,2.03.2,2.64.13.59.35,1,.64,1.24.29.21.67.32,1.12.32.4,0,.8-.04,1.2-.12.43-.11.83-.25,1.2-.44.37.53.57,1.28.6,2.24-.56.43-1.36.79-2.4,1.08-1.01.27-2.07.4-3.16.4ZM103.46,251.64c0,1.15.12,2.05.36,2.72.27.64.69,1.12,1.28,1.44.61.29,1.45.48,2.52.56.13.37.21.81.24,1.32.05.48.08.96.08,1.44-.48-.03-1.09-.05-1.84-.08-.75,0-1.55-.01-2.4-.04h-6.48c-1.39.03-2.49.07-3.32.12,0-.64.01-1.17.04-1.6.05-.45.13-.84.24-1.16.72-.05,1.27-.19,1.64-.4.4-.24.67-.65.8-1.24.16-.59.24-1.45.24-2.6v-2.2h6.6v1.72ZM103.46,247.2v3.52h-6.6v-4.32l6.6-3.72c0,.53-.08,1.13-.24,1.8-.13.67-.32,1.51-.56,2.52l.8.2ZM102.58,247.12c.19-.53.4-1.13.64-1.8.24-.69.45-1.2.64-1.52.59-.93,1.32-1.71,2.2-2.32.88-.61,1.85-.92,2.92-.92s2,.32,2.88.96c-.08.56-.16,1.21-.24,1.96-.08.75-.13,1.51-.16,2.28,0,.75.01,1.43.04,2.04-.45.19-1.05.32-1.8.4-.75.05-1.39.08-1.92.08-.05-.96-.21-1.64-.48-2.04-.27-.43-.67-.64-1.2-.64-.37,0-.77.23-1.2.68-.4.45-.75,1.04-1.04,1.76-.27.69-.4,1.44-.4,2.24l-.88-3.16ZM96.86,250.72v-3.08c0-.83-.05-1.47-.16-1.92-.11-.45-.37-.79-.8-1-.4-.24-1.04-.39-1.92-.44,0-.45.03-.91.08-1.36.08-.48.21-.91.4-1.28,1.68,0,3.23-.13,4.64-.4,1.44-.29,2.48-.6,3.12-.92.4.16.71.43.92.8.21.37.32.89.32,1.56l-6.6,8.04ZM127.47,259.36c-.51-.19-.87-.47-1.08-.84-.21-.37-.32-.87-.32-1.48,0-.35.04-.76.12-1.24.08-.51.2-.99.36-1.44l.16-.16c-.24.83-.55,1.55-.92,2.16-.37.59-.81,1.08-1.32,1.48-.56.48-1.24.84-2.04,1.08-.8.24-1.72.36-2.76.36-1.84,0-3.28-.39-4.32-1.16-1.04-.77-1.56-1.91-1.56-3.4,0-1.01.23-1.88.68-2.6.48-.75,1.12-1.37,1.92-1.88.83-.53,1.73-.96,2.72-1.28,1.01-.32,2.05-.57,3.12-.76,1.09-.21,2.16-.4,3.2-.56,0-.64-.03-1.2-.08-1.68-.03-.48-.11-.89-.24-1.24-.11-.37-.29-.69-.56-.96-.29-.35-.64-.59-1.04-.72-.37-.13-.75-.2-1.12-.2-.67,0-1.21.2-1.64.6-.43.4-.75.95-.96,1.64-.21.67-.36,1.4-.44,2.2-.77,0-1.47-.03-2.08-.08-.61-.05-1.17-.19-1.68-.4.05-.75.07-1.53.04-2.36-.03-.83-.13-1.69-.32-2.6,1.15-.48,2.49-.85,4.04-1.12,1.55-.29,3.03-.44,4.44-.44,1.76,0,3.15.2,4.16.6,1.01.37,1.77.81,2.28,1.32.53.53.96,1.29,1.28,2.28.35.96.52,2.39.52,4.28v3.08c0,.91.05,1.6.16,2.08.11.48.32.81.64,1,.35.16.84.25,1.48.28.08.51.09,1,.04,1.48-.05.48-.19.93-.4,1.36-1.09.03-2.2.15-3.32.36-1.12.21-2.17.53-3.16.96ZM122.03,255.48c.53,0,1.05-.16,1.56-.48.53-.35.97-.87,1.32-1.56.35-.69.52-1.55.52-2.56v-.92c-.83.16-1.57.35-2.24.56-.64.21-1.17.45-1.6.72-.43.27-.75.59-.96.96-.21.37-.32.81-.32,1.32,0,.69.16,1.2.48,1.52.35.29.76.44,1.24.44ZM143.63,259.36c-.35-.83-.75-1.72-1.2-2.68-.43-.99-.88-2-1.36-3.04-.45-1.04-.92-2.05-1.4-3.04-.48-.99-.93-1.89-1.36-2.72-.4-.85-.75-1.59-1.04-2.2-.29-.59-.56-1.04-.8-1.36-.24-.32-.49-.55-.76-.68-.24-.13-.53-.24-.88-.32-.11-.37-.2-.8-.28-1.28-.08-.51-.12-1-.12-1.48.61.03,1.43.05,2.44.08,1.04.03,2.13.04,3.28.04h2.36c.8-.03,1.55-.04,2.24-.04.69-.03,1.25-.05,1.68-.08,0,.45-.04.95-.12,1.48-.08.51-.17.93-.28,1.28-1.01.11-1.6.33-1.76.68-.16.32,0,.97.48,1.96.27.59.53,1.21.8,1.88.29.64.57,1.33.84,2.08.29.72.57,1.47.84,2.24.29.75.57,1.53.84,2.36h-1.32c.56-1.63,1.09-3.05,1.6-4.28.51-1.23,1.04-2.48,1.6-3.76.48-1.15.61-1.93.4-2.36-.21-.43-.76-.69-1.64-.8-.11-.35-.21-.77-.32-1.28-.08-.53-.12-1.03-.12-1.48.53.03,1.13.05,1.8.08.67.03,1.39.04,2.16.04s1.51-.01,2.2-.04c.69-.03,1.32-.05,1.88-.08,0,.45-.04.95-.12,1.48-.08.53-.2.96-.36,1.28-.45.11-.84.27-1.16.48-.32.19-.61.48-.88.88-.24.4-.51.96-.8,1.68l-5.52,12.48c-.45.21-1.05.37-1.8.48-.72.11-1.4.12-2.04.04ZM171.1,259.36c-.51-.19-.87-.47-1.08-.84-.21-.37-.32-.87-.32-1.48,0-.35.04-.76.12-1.24.08-.51.2-.99.36-1.44l.16-.16c-.24.83-.55,1.55-.92,2.16-.37.59-.81,1.08-1.32,1.48-.56.48-1.24.84-2.04,1.08-.8.24-1.72.36-2.76.36-1.84,0-3.28-.39-4.32-1.16-1.04-.77-1.56-1.91-1.56-3.4,0-1.01.23-1.88.68-2.6.48-.75,1.12-1.37,1.92-1.88.83-.53,1.73-.96,2.72-1.28,1.01-.32,2.05-.57,3.12-.76,1.09-.21,2.16-.4,3.2-.56,0-.64-.03-1.2-.08-1.68-.03-.48-.11-.89-.24-1.24-.11-.37-.29-.69-.56-.96-.29-.35-.64-.59-1.04-.72-.37-.13-.75-.2-1.12-.2-.67,0-1.21.2-1.64.6-.43.4-.75.95-.96,1.64-.21.67-.36,1.4-.44,2.2-.77,0-1.47-.03-2.08-.08-.61-.05-1.17-.19-1.68-.4.05-.75.07-1.53.04-2.36-.03-.83-.13-1.69-.32-2.6,1.15-.48,2.49-.85,4.04-1.12,1.55-.29,3.03-.44,4.44-.44,1.76,0,3.15.2,4.16.6,1.01.37,1.77.81,2.28,1.32.53.53.96,1.29,1.28,2.28.35.96.52,2.39.52,4.28v3.08c0,.91.05,1.6.16,2.08.11.48.32.81.64,1,.35.16.84.25,1.48.28.08.51.09,1,.04,1.48-.05.48-.19.93-.4,1.36-1.09.03-2.2.15-3.32.36-1.12.21-2.17.53-3.16.96ZM165.66,255.48c.53,0,1.05-.16,1.56-.48.53-.35.97-.87,1.32-1.56.35-.69.52-1.55.52-2.56v-.92c-.83.16-1.57.35-2.24.56-.64.21-1.17.45-1.6.72-.43.27-.75.59-.96.96-.21.37-.32.81-.32,1.32,0,.69.16,1.2.48,1.52.35.29.76.44,1.24.44ZM180.15,259.12c0-.56.03-1.07.08-1.52.05-.48.13-.89.24-1.24,1.07-.05,1.77-.31,2.12-.76.35-.48.52-1.39.52-2.72v-5.8c0-.61-.08-1.12-.24-1.52-.13-.4-.41-.69-.84-.88-.43-.21-1.05-.35-1.88-.4,0-.45.03-.91.08-1.36.08-.48.21-.91.4-1.28,1.09,0,2.16-.07,3.2-.2,1.04-.13,1.96-.29,2.76-.48.83-.21,1.44-.43,1.84-.64.4.16.71.43.92.8.24.37.36.88.36,1.52v10.24c0,1.33.17,2.24.52,2.72.35.45,1.03.71,2.04.76.11.35.17.76.2,1.24.05.48.08.99.08,1.52-.35-.03-.85-.05-1.52-.08-.67,0-1.41-.01-2.24-.04h-4.88c-.83.03-1.57.04-2.24.04-.64.03-1.15.05-1.52.08ZM185.87,237.72c-1.09,0-1.97-.27-2.64-.8-.67-.56-1-1.29-1-2.2,0-1.04.36-1.84,1.08-2.4.75-.59,1.67-.88,2.76-.88,1.25,0,2.2.28,2.84.84.67.56,1,1.36,1,2.4,0,.88-.36,1.61-1.08,2.2-.72.56-1.71.84-2.96.84ZM194.79,259.12c0-.56.03-1.07.08-1.52.05-.48.13-.89.24-1.24,1.07-.05,1.77-.31,2.12-.76.35-.48.52-1.39.52-2.72v-16.12c0-.53-.09-.97-.28-1.32-.16-.35-.45-.61-.88-.8-.43-.19-1.03-.31-1.8-.36,0-.45.03-.91.08-1.36.08-.48.21-.91.4-1.28,1.09,0,2.16-.07,3.2-.2,1.04-.13,1.96-.29,2.76-.48.83-.21,1.44-.43,1.84-.64.4.16.71.43.92.8.24.37.36.88.36,1.52v20.24c0,1.33.17,2.24.52,2.72.35.45,1.03.71,2.04.76.11.35.17.76.2,1.24.05.48.08.99.08,1.52-.35-.03-.85-.05-1.52-.08-.67,0-1.41-.01-2.24-.04h-4.88c-.83.03-1.57.04-2.24.04-.67.03-1.17.05-1.52.08ZM209.13,259.12c0-.56.03-1.07.08-1.52.05-.48.13-.89.24-1.24,1.07-.05,1.77-.31,2.12-.76.35-.48.52-1.39.52-2.72v-16.12c0-.53-.09-.97-.28-1.32-.16-.35-.45-.61-.88-.8-.43-.19-1.03-.31-1.8-.36,0-.45.03-.91.08-1.36.08-.48.21-.91.4-1.28,1.09,0,2.16-.07,3.2-.2,1.04-.13,1.96-.29,2.76-.48.83-.21,1.44-.43,1.84-.64.4.16.71.43.92.8.24.37.36.88.36,1.52v20.24c0,1.33.17,2.24.52,2.72.35.45,1.03.71,2.04.76.11.35.17.76.2,1.24.05.48.08.99.08,1.52-.35-.03-.85-.05-1.52-.08-.67,0-1.41-.01-2.24-.04h-4.88c-.83.03-1.57.04-2.24.04-.67.03-1.17.05-1.52.08ZM233.95,259.36c-2.4,0-4.35-.41-5.84-1.24-1.47-.83-2.55-1.95-3.24-3.36-.69-1.41-1.04-3-1.04-4.76,0-1.97.39-3.68,1.16-5.12.77-1.44,1.89-2.56,3.36-3.36,1.47-.8,3.19-1.2,5.16-1.2s3.6.37,4.88,1.12c1.28.72,2.23,1.73,2.84,3.04.64,1.28.99,2.77,1.04,4.48-.21.88-.6,1.59-1.16,2.12h-2.64c-.99,0-2.03.01-3.12.04-1.07,0-2.16.03-3.28.08-1.09.05-2.15.12-3.16.2v-2.88h7.36c0-1.81-.24-3.19-.72-4.12-.45-.93-1.15-1.4-2.08-1.4-.61,0-1.16.23-1.64.68-.45.43-.8,1.08-1.04,1.96-.24.85-.36,1.92-.36,3.2,0,1.39.17,2.63.52,3.72.35,1.09.92,1.95,1.72,2.56.8.61,1.88.92,3.24.92.93,0,1.87-.16,2.8-.48.93-.32,1.71-.73,2.32-1.24.27.16.51.48.72.96.21.45.32.92.32,1.4-1.04.88-2.23,1.55-3.56,2-1.31.45-2.83.68-4.56.68ZM251.32,253.24c.67.21,1.15.6,1.44,1.16.32.53.48,1.44.48,2.72,0,1.65-.41,3.31-1.24,4.96-.8,1.68-1.85,3.13-3.16,4.36-.56-.03-1.09-.13-1.6-.32-.48-.16-.85-.36-1.12-.6,1.76-2,2.64-3.68,2.64-5.04,0-.51-.23-.93-.68-1.28-.43-.35-1.07-.56-1.92-.64,0-.75.04-1.41.12-2,.08-.61.23-1.29.44-2.04.96-.08,1.83-.21,2.6-.4.77-.21,1.44-.51,2-.88ZM265.84,268.96c-.43-.21-.79-.55-1.08-1-.29-.45-.48-.95-.56-1.48.93-.96,1.65-1.87,2.16-2.72.51-.85.87-1.76,1.08-2.72.24-.96.36-2.07.36-3.32v-10.64c0-.61-.08-1.12-.24-1.52-.16-.4-.45-.69-.88-.88-.43-.21-1.05-.35-1.88-.4,0-.45.03-.91.08-1.36.08-.48.21-.91.4-1.28,1.09,0,2.16-.07,3.2-.2s1.96-.29,2.76-.48c.83-.21,1.44-.43,1.84-.64.4.16.71.43.92.8.24.37.36.88.36,1.52v13.56c0,1.68-.28,3.2-.84,4.56-.53,1.36-1.23,2.57-2.08,3.64-.85,1.07-1.77,1.97-2.76,2.72-.99.77-1.93,1.39-2.84,1.84ZM270.52,237.72c-1.09,0-1.97-.27-2.64-.8-.67-.56-1-1.29-1-2.2,0-1.04.36-1.84,1.08-2.4.75-.59,1.67-.88,2.76-.88,1.25,0,2.2.28,2.84.84.67.56,1,1.36,1,2.4,0,.88-.36,1.61-1.08,2.2-.72.56-1.71.84-2.96.84ZM287.97,259.36c-2.4,0-4.35-.41-5.84-1.24-1.47-.83-2.55-1.95-3.24-3.36-.69-1.41-1.04-3-1.04-4.76,0-1.97.39-3.68,1.16-5.12s1.89-2.56,3.36-3.36,3.19-1.2,5.16-1.2,3.6.37,4.88,1.12c1.28.72,2.23,1.73,2.84,3.04.64,1.28.99,2.77,1.04,4.48-.21.88-.6,1.59-1.16,2.12h-2.64c-.99,0-2.03.01-3.12.04-1.07,0-2.16.03-3.28.08-1.09.05-2.15.12-3.16.2v-2.88h7.36c0-1.81-.24-3.19-.72-4.12-.45-.93-1.15-1.4-2.08-1.4-.61,0-1.16.23-1.64.68-.45.43-.8,1.08-1.04,1.96-.24.85-.36,1.92-.36,3.2,0,1.39.17,2.63.52,3.72s.92,1.95,1.72,2.56c.8.61,1.88.92,3.24.92.93,0,1.87-.16,2.8-.48.93-.32,1.71-.73,2.32-1.24.27.16.51.48.72.96.21.45.32.92.32,1.4-1.04.88-2.23,1.55-3.56,2-1.31.45-2.83.68-4.56.68ZM321.79,241.56c-.03.69-.04,1.41-.04,2.16.03.72.09,1.43.2,2.12-.4.21-.92.4-1.56.56-.61.16-1.24.24-1.88.24-.08-.67-.27-1.27-.56-1.8-.27-.56-.65-1-1.16-1.32-.48-.32-1.11-.48-1.88-.48-.53,0-.96.15-1.28.44-.29.27-.44.63-.44,1.08,0,.32.08.63.24.92.19.29.57.63,1.16,1,.61.35,1.55.79,2.8,1.32,1.52.61,2.71,1.2,3.56,1.76.88.56,1.51,1.16,1.88,1.8.37.64.56,1.41.56,2.32,0,1.2-.36,2.23-1.08,3.08-.69.85-1.69,1.51-3,1.96-1.31.43-2.88.64-4.72.64-1.68,0-3.08-.12-4.2-.36-1.12-.24-2.21-.57-3.28-1,.08-.53.13-1.09.16-1.68.03-.61.03-1.2,0-1.76,0-.59-.03-1.09-.08-1.52.4-.27.93-.45,1.6-.56.69-.13,1.33-.2,1.92-.2.16,1.39.56,2.44,1.2,3.16.67.69,1.48,1.04,2.44,1.04.67,0,1.21-.15,1.64-.44.45-.29.68-.72.68-1.28,0-.4-.11-.75-.32-1.04-.19-.32-.55-.63-1.08-.92-.51-.32-1.27-.67-2.28-1.04-1.17-.45-2.19-.93-3.04-1.44-.85-.51-1.52-1.13-2-1.88-.45-.75-.68-1.71-.68-2.88,0-.91.19-1.68.56-2.32.4-.67.96-1.21,1.68-1.64.72-.43,1.55-.75,2.48-.96.96-.21,1.99-.32,3.08-.32,1.49,0,2.76.11,3.8.32,1.04.19,2.01.49,2.92.92ZM333.93,259.24c-1.95,0-3.47-.53-4.56-1.6-1.07-1.09-1.6-3.03-1.6-5.8v-4.2c0-1.2-.13-2.04-.4-2.52-.27-.48-.97-.76-2.12-.84,0-.45.03-.91.08-1.36.08-.48.21-.91.4-1.28,1.68,0,3.17-.13,4.48-.4,1.31-.29,2.28-.6,2.92-.92.4.16.71.43.92.8s.32.89.32,1.56v8.16c0,1.79.17,3.03.52,3.72.35.67.88,1,1.6,1,.99,0,1.84-.51,2.56-1.52s1.08-2.57,1.08-4.68v-1.92c0-1.2-.17-2.04-.52-2.52-.35-.48-1.13-.76-2.36-.84,0-.45.03-.91.08-1.36.05-.48.17-.91.36-1.28,1.73,0,3.31-.11,4.72-.32,1.41-.24,2.43-.51,3.04-.8.4.16.71.43.92.8.21.37.32.89.32,1.56v10.96l-5.72,1.44c-.19.51-.4.96-.64,1.36-.24.37-.52.71-.84,1-.56.51-1.31.93-2.24,1.28-.93.35-2.04.52-3.32.52ZM342.09,259.36c-.51-.19-.87-.45-1.08-.8-.21-.37-.32-.87-.32-1.48,0-.48.05-1.01.16-1.6.13-.59.27-1.11.4-1.56l5.44-2.16c0,.93.05,1.65.16,2.16.11.48.32.81.64,1,.35.16.85.25,1.52.28.08.51.09,1,.04,1.48-.05.48-.2.93-.44,1.36-1.07.03-2.17.15-3.32.36-1.15.21-2.21.53-3.2.96ZM351.17,259.12c0-.56.03-1.07.08-1.52.05-.48.13-.89.24-1.24,1.07-.05,1.77-.31,2.12-.76.35-.48.52-1.39.52-2.72v-5.8c0-.61-.08-1.12-.24-1.52-.13-.4-.41-.69-.84-.88-.43-.21-1.05-.35-1.88-.4,0-.45.03-.91.08-1.36.08-.48.21-.91.4-1.28,1.09,0,2.16-.07,3.2-.2,1.04-.13,1.96-.29,2.76-.48.83-.21,1.44-.43,1.84-.64.4.16.71.43.92.8.24.37.36.88.36,1.52v10.24c0,1.33.17,2.24.52,2.72.35.45,1.03.71,2.04.76.11.35.17.76.2,1.24.05.48.08.99.08,1.52-.35-.03-.85-.05-1.52-.08-.67,0-1.41-.01-2.24-.04h-4.88c-.83.03-1.57.04-2.24.04-.64.03-1.15.05-1.52.08ZM356.89,237.72c-1.09,0-1.97-.27-2.64-.8-.67-.56-1-1.29-1-2.2,0-1.04.36-1.84,1.08-2.4.75-.59,1.67-.88,2.76-.88,1.25,0,2.2.28,2.84.84.67.56,1,1.36,1,2.4,0,.88-.36,1.61-1.08,2.2-.72.56-1.71.84-2.96.84ZM381.01,241.56c-.03.69-.04,1.41-.04,2.16.03.72.09,1.43.2,2.12-.4.21-.92.4-1.56.56-.61.16-1.24.24-1.88.24-.08-.67-.27-1.27-.56-1.8-.27-.56-.65-1-1.16-1.32-.48-.32-1.11-.48-1.88-.48-.53,0-.96.15-1.28.44-.29.27-.44.63-.44,1.08,0,.32.08.63.24.92.19.29.57.63,1.16,1,.61.35,1.55.79,2.8,1.32,1.52.61,2.71,1.2,3.56,1.76.88.56,1.51,1.16,1.88,1.8.37.64.56,1.41.56,2.32,0,1.2-.36,2.23-1.08,3.08-.69.85-1.69,1.51-3,1.96-1.31.43-2.88.64-4.72.64-1.68,0-3.08-.12-4.2-.36s-2.21-.57-3.28-1c.08-.53.13-1.09.16-1.68.03-.61.03-1.2,0-1.76,0-.59-.03-1.09-.08-1.52.4-.27.93-.45,1.6-.56.69-.13,1.33-.2,1.92-.2.16,1.39.56,2.44,1.2,3.16.67.69,1.48,1.04,2.44,1.04.67,0,1.21-.15,1.64-.44.45-.29.68-.72.68-1.28,0-.4-.11-.75-.32-1.04-.19-.32-.55-.63-1.08-.92-.51-.32-1.27-.67-2.28-1.04-1.17-.45-2.19-.93-3.04-1.44-.85-.51-1.52-1.13-2-1.88-.45-.75-.68-1.71-.68-2.88,0-.91.19-1.68.56-2.32.4-.67.96-1.21,1.68-1.64.72-.43,1.55-.75,2.48-.96.96-.21,1.99-.32,3.08-.32,1.49,0,2.76.11,3.8.32,1.04.19,2.01.49,2.92.92ZM138.25,298.36c-.51-.19-.87-.47-1.08-.84-.21-.37-.32-.87-.32-1.48,0-.35.04-.76.12-1.24.08-.51.2-.99.36-1.44l.16-.16c-.24.83-.55,1.55-.92,2.16-.37.59-.81,1.08-1.32,1.48-.56.48-1.24.84-2.04,1.08-.8.24-1.72.36-2.76.36-1.84,0-3.28-.39-4.32-1.16-1.04-.77-1.56-1.91-1.56-3.4,0-1.01.23-1.88.68-2.6.48-.75,1.12-1.37,1.92-1.88.83-.53,1.73-.96,2.72-1.28,1.01-.32,2.05-.57,3.12-.76,1.09-.21,2.16-.4,3.2-.56,0-.64-.03-1.2-.08-1.68-.03-.48-.11-.89-.24-1.24-.11-.37-.29-.69-.56-.96-.29-.35-.64-.59-1.04-.72-.37-.13-.75-.2-1.12-.2-.67,0-1.21.2-1.64.6-.43.4-.75.95-.96,1.64-.21.67-.36,1.4-.44,2.2-.77,0-1.47-.03-2.08-.08-.61-.05-1.17-.19-1.68-.4.05-.75.07-1.53.04-2.36-.03-.83-.13-1.69-.32-2.6,1.15-.48,2.49-.85,4.04-1.12,1.55-.29,3.03-.44,4.44-.44,1.76,0,3.15.2,4.16.6,1.01.37,1.77.81,2.28,1.32.53.53.96,1.29,1.28,2.28.35.96.52,2.39.52,4.28v3.08c0,.91.05,1.6.16,2.08.11.48.32.81.64,1,.35.16.84.25,1.48.28.08.51.09,1,.04,1.48-.05.48-.19.93-.4,1.36-1.09.03-2.2.15-3.32.36-1.12.21-2.17.53-3.16.96ZM132.81,294.48c.53,0,1.05-.16,1.56-.48.53-.35.97-.87,1.32-1.56.35-.69.52-1.55.52-2.56v-.92c-.83.16-1.57.35-2.24.56-.64.21-1.17.45-1.6.72-.43.27-.75.59-.96.96-.21.37-.32.81-.32,1.32,0,.69.16,1.2.48,1.52.35.29.76.44,1.24.44ZM132.97,276.64c-.8-1.12-1.59-2.17-2.36-3.16-.77-1.01-1.72-2.04-2.84-3.08.85-.37,1.79-.64,2.8-.8,1.01-.19,2.04-.27,3.08-.24.29,1.04.68,2.16,1.16,3.36.51,1.2,1.04,2.33,1.6,3.4-.43.19-.92.33-1.48.44-.53.08-1.19.11-1.96.08ZM154.95,298.12c0-.56.03-1.07.08-1.52.05-.48.13-.89.24-1.24,1.07-.05,1.77-.31,2.12-.76.35-.48.52-1.39.52-2.72v-16.12c0-.53-.09-.97-.28-1.32-.16-.35-.45-.61-.88-.8-.43-.19-1.03-.31-1.8-.36,0-.45.03-.91.08-1.36.08-.48.21-.91.4-1.28,1.09,0,2.16-.07,3.2-.2s1.96-.29,2.76-.48c.83-.21,1.44-.43,1.84-.64.4.16.71.43.92.8.24.37.36.88.36,1.52v20.24c0,1.33.17,2.24.52,2.72.35.45,1.03.71,2.04.76.11.35.17.76.2,1.24.05.48.08.99.08,1.52-.35-.03-.85-.05-1.52-.08-.67,0-1.41-.01-2.24-.04h-4.88c-.83.03-1.57.04-2.24.04-.67.03-1.17.05-1.52.08ZM175.26,268.92c.69.21,1.19.59,1.48,1.12.32.53.48,1.41.48,2.64,0,1.49-.33,2.97-1,4.44-.67,1.44-1.61,2.73-2.84,3.88-.56,0-1.05-.05-1.48-.16-.43-.13-.83-.32-1.2-.56.8-.88,1.33-1.63,1.6-2.24.29-.61.44-1.25.44-1.92,0-.56-.21-.99-.64-1.28-.43-.32-1.08-.52-1.96-.6,0-.75.03-1.41.08-2,.08-.61.24-1.29.48-2.04.96-.08,1.83-.21,2.6-.4.77-.21,1.43-.51,1.96-.88ZM203.14,291.88c0,1.33.13,2.25.4,2.76.29.48.79.72,1.48.72.16.37.27.79.32,1.24.05.43.08.93.08,1.52-.59-.03-1.39-.05-2.4-.08-.99-.03-1.93-.04-2.84-.04h-2.12c-.8.03-1.56.04-2.28.04-.72.03-1.28.05-1.68.08,0-.51.01-.99.04-1.44.05-.48.16-.92.32-1.32.64,0,1.15-.27,1.52-.8.4-.56.6-1.56.6-3v-3.6c0-1.63-.24-2.75-.72-3.36-.48-.64-1.17-.96-2.08-.96-.67,0-1.28.25-1.84.76-.53.51-.97,1.23-1.32,2.16-.32.93-.48,2.07-.48,3.4v1.92c0,1.36.17,2.28.52,2.76s.87.72,1.56.72c.19.43.29.85.32,1.28.05.43.08.92.08,1.48-.4-.03-.95-.05-1.64-.08-.67,0-1.37-.01-2.12-.04h-4.2c-.83.03-1.61.04-2.36.04-.75.03-1.32.05-1.72.08,0-.56.03-1.08.08-1.56.05-.48.15-.88.28-1.2,1.04,0,1.73-.24,2.08-.72.35-.51.52-1.43.52-2.76v-5.24l6.6-4.96c0,.32-.04.69-.12,1.12-.08.4-.19.83-.32,1.28.19-.43.37-.83.56-1.2.19-.37.44-.72.76-1.04.59-.64,1.35-1.19,2.28-1.64.93-.45,2-.68,3.2-.68s2.23.21,3.24.64c1.04.43,1.87,1.12,2.48,2.08.61.96.92,2.23.92,3.8v5.84ZM183.54,276.08c0-.61-.08-1.12-.24-1.52-.13-.4-.41-.69-.84-.88-.43-.21-1.05-.35-1.88-.4,0-.45.03-.91.08-1.36.08-.48.21-.91.4-1.28,1.09,0,2.16-.07,3.2-.2s1.96-.29,2.76-.48c.83-.21,1.44-.43,1.84-.64.4.16.71.43.92.8.24.37.36.88.36,1.52v4.88h-6.6v-.44ZM183.54,275.24h6.6v6.44l-6.6,6.2v-12.64ZM217.19,298.36c-2.4,0-4.35-.41-5.84-1.24-1.47-.83-2.55-1.95-3.24-3.36-.69-1.41-1.04-3-1.04-4.76,0-1.97.39-3.68,1.16-5.12.77-1.44,1.89-2.56,3.36-3.36,1.47-.8,3.19-1.2,5.16-1.2s3.6.37,4.88,1.12c1.28.72,2.23,1.73,2.84,3.04.64,1.28.99,2.77,1.04,4.48-.21.88-.6,1.59-1.16,2.12h-2.64c-.99,0-2.03.01-3.12.04-1.07,0-2.16.03-3.28.08-1.09.05-2.15.12-3.16.2v-2.88h7.36c0-1.81-.24-3.19-.72-4.12-.45-.93-1.15-1.4-2.08-1.4-.61,0-1.16.23-1.64.68-.45.43-.8,1.08-1.04,1.96-.24.85-.36,1.92-.36,3.2,0,1.39.17,2.63.52,3.72s.92,1.95,1.72,2.56c.8.61,1.88.92,3.24.92.93,0,1.87-.16,2.8-.48.93-.32,1.71-.73,2.32-1.24.27.16.51.48.72.96.21.45.32.92.32,1.4-1.04.88-2.23,1.55-3.56,2-1.31.45-2.83.68-4.56.68ZM236.12,298.24c-1.95,0-3.47-.53-4.56-1.6-1.07-1.09-1.6-3.03-1.6-5.8v-4.2c0-1.2-.13-2.04-.4-2.52-.27-.48-.97-.76-2.12-.84,0-.45.03-.91.08-1.36.08-.48.21-.91.4-1.28,1.68,0,3.17-.13,4.48-.4,1.31-.29,2.28-.6,2.92-.92.4.16.71.43.92.8.21.37.32.89.32,1.56v8.16c0,1.79.17,3.03.52,3.72.35.67.88,1,1.6,1,.99,0,1.84-.51,2.56-1.52s1.08-2.57,1.08-4.68v-1.92c0-1.2-.17-2.04-.52-2.52-.35-.48-1.13-.76-2.36-.84,0-.45.03-.91.08-1.36.05-.48.17-.91.36-1.28,1.73,0,3.31-.11,4.72-.32,1.41-.24,2.43-.51,3.04-.8.4.16.71.43.92.8.21.37.32.89.32,1.56v10.96l-5.72,1.44c-.19.51-.4.96-.64,1.36-.24.37-.52.71-.84,1-.56.51-1.31.93-2.24,1.28-.93.35-2.04.52-3.32.52ZM244.28,298.36c-.51-.19-.87-.45-1.08-.8-.21-.37-.32-.87-.32-1.48,0-.48.05-1.01.16-1.6.13-.59.27-1.11.4-1.56l5.44-2.16c0,.93.05,1.65.16,2.16.11.48.32.81.64,1,.35.16.85.25,1.52.28.08.51.09,1,.04,1.48-.05.48-.2.93-.44,1.36-1.07.03-2.17.15-3.32.36-1.15.21-2.21.53-3.2.96ZM262.92,290.64c0,1.15.12,2.05.36,2.72.27.64.69,1.12,1.28,1.44.61.29,1.45.48,2.52.56.13.37.21.81.24,1.32.05.48.08.96.08,1.44-.48-.03-1.09-.05-1.84-.08-.75,0-1.55-.01-2.4-.04h-6.48c-1.39.03-2.49.07-3.32.12,0-.64.01-1.17.04-1.6.05-.45.13-.84.24-1.16.72-.05,1.27-.19,1.64-.4.4-.24.67-.65.8-1.24.16-.59.24-1.45.24-2.6v-2.2h6.6v1.72ZM262.92,286.2v3.52h-6.6v-4.32l6.6-3.72c0,.53-.08,1.13-.24,1.8-.13.67-.32,1.51-.56,2.52l.8.2ZM262.04,286.12c.19-.53.4-1.13.64-1.8.24-.69.45-1.2.64-1.52.59-.93,1.32-1.71,2.2-2.32.88-.61,1.85-.92,2.92-.92s2,.32,2.88.96c-.08.56-.16,1.21-.24,1.96-.08.75-.13,1.51-.16,2.28,0,.75.01,1.43.04,2.04-.45.19-1.05.32-1.8.4-.75.05-1.39.08-1.92.08-.05-.96-.21-1.64-.48-2.04-.27-.43-.67-.64-1.2-.64-.37,0-.77.23-1.2.68-.4.45-.75,1.04-1.04,1.76-.27.69-.4,1.44-.4,2.24l-.88-3.16ZM256.32,289.72v-3.08c0-.83-.05-1.47-.16-1.92-.11-.45-.37-.79-.8-1-.4-.24-1.04-.39-1.92-.44,0-.45.03-.91.08-1.36.08-.48.21-.91.4-1.28,1.68,0,3.23-.13,4.64-.4,1.44-.29,2.48-.6,3.12-.92.4.16.71.43.92.8s.32.89.32,1.56l-6.6,8.04ZM283.44,298.36c-2.4,0-4.35-.41-5.84-1.24-1.47-.83-2.55-1.95-3.24-3.36-.69-1.41-1.04-3-1.04-4.76,0-1.97.39-3.68,1.16-5.12.77-1.44,1.89-2.56,3.36-3.36,1.47-.8,3.19-1.2,5.16-1.2s3.6.37,4.88,1.12c1.28.72,2.23,1.73,2.84,3.04.64,1.28.99,2.77,1.04,4.48-.21.88-.6,1.59-1.16,2.12h-2.64c-.99,0-2.03.01-3.12.04-1.07,0-2.16.03-3.28.08-1.09.05-2.15.12-3.16.2v-2.88h7.36c0-1.81-.24-3.19-.72-4.12-.45-.93-1.15-1.4-2.08-1.4-.61,0-1.16.23-1.64.68-.45.43-.8,1.08-1.04,1.96-.24.85-.36,1.92-.36,3.2,0,1.39.17,2.63.52,3.72s.92,1.95,1.72,2.56c.8.61,1.88.92,3.24.92.93,0,1.87-.16,2.8-.48.93-.32,1.71-.73,2.32-1.24.27.16.51.48.72.96.21.45.32.92.32,1.4-1.04.88-2.23,1.55-3.56,2-1.31.45-2.83.68-4.56.68ZM312.54,298.36c-2.4,0-4.35-.41-5.84-1.24-1.47-.83-2.55-1.95-3.24-3.36-.69-1.41-1.04-3-1.04-4.76,0-1.97.39-3.68,1.16-5.12.77-1.44,1.89-2.56,3.36-3.36,1.47-.8,3.19-1.2,5.16-1.2s3.6.37,4.88,1.12c1.28.72,2.23,1.73,2.84,3.04.64,1.28.99,2.77,1.04,4.48-.21.88-.6,1.59-1.16,2.12h-2.64c-.99,0-2.03.01-3.12.04-1.07,0-2.16.03-3.28.08-1.09.05-2.15.12-3.16.2v-2.88h7.36c0-1.81-.24-3.19-.72-4.12-.45-.93-1.15-1.4-2.08-1.4-.61,0-1.16.23-1.64.68-.45.43-.8,1.08-1.04,1.96-.24.85-.36,1.92-.36,3.2,0,1.39.17,2.63.52,3.72.35,1.09.92,1.95,1.72,2.56.8.61,1.88.92,3.24.92.93,0,1.87-.16,2.8-.48.93-.32,1.71-.73,2.32-1.24.27.16.51.48.72.96.21.45.32.92.32,1.4-1.04.88-2.23,1.55-3.56,2-1.31.45-2.83.68-4.56.68ZM331.51,298.36c-1.97,0-3.47-.51-4.48-1.52-1.01-1.04-1.52-2.79-1.52-5.24v-8.24c-.43-.16-.88-.28-1.36-.36-.45-.08-.99-.12-1.6-.12,0-.53.03-1.01.08-1.44.08-.45.23-.91.44-1.36h2.44v-4.76c1.04-.13,2.05-.4,3.04-.8,1.01-.4,1.83-.84,2.44-1.32.43.16.72.41.88.76s.24.96.24,1.84v4.28h4.8c0,.59-.04,1.11-.12,1.56-.05.43-.15.85-.28,1.28-.85,0-1.65.07-2.4.2-.72.11-1.39.27-2,.48v7.4c0,1.15.07,2.03.2,2.64.13.59.35,1,.64,1.24.29.21.67.32,1.12.32.4,0,.8-.04,1.2-.12.43-.11.83-.25,1.2-.44.37.53.57,1.28.6,2.24-.56.43-1.36.79-2.4,1.08-1.01.27-2.07.4-3.16.4ZM84.8,319.56c-.03.69-.04,1.41-.04,2.16.03.72.09,1.43.2,2.12-.4.21-.92.4-1.56.56-.61.16-1.24.24-1.88.24-.08-.67-.27-1.27-.56-1.8-.27-.56-.65-1-1.16-1.32-.48-.32-1.11-.48-1.88-.48-.53,0-.96.15-1.28.44-.29.27-.44.63-.44,1.08,0,.32.08.63.24.92.19.29.57.63,1.16,1,.61.35,1.55.79,2.8,1.32,1.52.61,2.71,1.2,3.56,1.76.88.56,1.51,1.16,1.88,1.8.37.64.56,1.41.56,2.32,0,1.2-.36,2.23-1.08,3.08-.69.85-1.69,1.51-3,1.96-1.31.43-2.88.64-4.72.64-1.68,0-3.08-.12-4.2-.36-1.12-.24-2.21-.57-3.28-1,.08-.53.13-1.09.16-1.68.03-.61.03-1.2,0-1.76,0-.59-.03-1.09-.08-1.52.4-.27.93-.45,1.6-.56.69-.13,1.33-.2,1.92-.2.16,1.39.56,2.44,1.2,3.16.67.69,1.48,1.04,2.44,1.04.67,0,1.21-.15,1.64-.44.45-.29.68-.72.68-1.28,0-.4-.11-.75-.32-1.04-.19-.32-.55-.63-1.08-.92-.51-.32-1.27-.67-2.28-1.04-1.17-.45-2.19-.93-3.04-1.44-.85-.51-1.52-1.13-2-1.88-.45-.75-.68-1.71-.68-2.88,0-.91.19-1.68.56-2.32.4-.67.96-1.21,1.68-1.64.72-.43,1.55-.75,2.48-.96.96-.21,1.99-.32,3.08-.32,1.49,0,2.76.11,3.8.32,1.04.19,2.01.49,2.92.92ZM99.26,337.36c-2.24,0-4.13-.37-5.68-1.12-1.52-.77-2.67-1.85-3.44-3.24-.77-1.39-1.16-3.01-1.16-4.88,0-2.16.45-3.96,1.36-5.4.93-1.47,2.2-2.56,3.8-3.28,1.6-.75,3.4-1.12,5.4-1.12,2.29,0,4.2.4,5.72,1.2,1.55.8,2.71,1.89,3.48,3.28.77,1.39,1.16,2.99,1.16,4.8,0,2-.43,3.73-1.28,5.2-.85,1.47-2.08,2.6-3.68,3.4-1.6.77-3.49,1.16-5.68,1.16ZM99.9,334.56c1.09,0,1.92-.56,2.48-1.68s.84-2.51.84-4.16-.2-3.17-.6-4.32c-.4-1.15-.92-2-1.56-2.56-.64-.59-1.33-.88-2.08-.88-1.15,0-1.99.56-2.52,1.68-.53,1.12-.8,2.49-.8,4.12,0,1.47.16,2.8.48,4,.32,1.17.8,2.11,1.44,2.8.64.67,1.41,1,2.32,1ZM120.5,337.24c-1.95,0-3.47-.53-4.56-1.6-1.07-1.09-1.6-3.03-1.6-5.8v-4.2c0-1.2-.13-2.04-.4-2.52-.27-.48-.97-.76-2.12-.84,0-.45.03-.91.08-1.36.08-.48.21-.91.4-1.28,1.68,0,3.17-.13,4.48-.4,1.31-.29,2.28-.6,2.92-.92.4.16.71.43.92.8.21.37.32.89.32,1.56v8.16c0,1.79.17,3.03.52,3.72.35.67.88,1,1.6,1,.99,0,1.84-.51,2.56-1.52s1.08-2.57,1.08-4.68v-1.92c0-1.2-.17-2.04-.52-2.52-.35-.48-1.13-.76-2.36-.84,0-.45.03-.91.08-1.36.05-.48.17-.91.36-1.28,1.73,0,3.31-.11,4.72-.32,1.41-.24,2.43-.51,3.04-.8.4.16.71.43.92.8.21.37.32.89.32,1.56v10.96l-5.72,1.44c-.19.51-.4.96-.64,1.36-.24.37-.52.71-.84,1-.56.51-1.31.93-2.24,1.28-.93.35-2.04.52-3.32.52ZM128.66,337.36c-.51-.19-.87-.45-1.08-.8-.21-.37-.32-.87-.32-1.48,0-.48.05-1.01.16-1.6.13-.59.27-1.11.4-1.56l5.44-2.16c0,.93.05,1.65.16,2.16.11.48.32.81.64,1,.35.16.85.25,1.52.28.08.51.09,1,.04,1.48-.05.48-.2.93-.44,1.36-1.07.03-2.17.15-3.32.36-1.15.21-2.21.53-3.2.96ZM159.93,330.88c0,1.33.13,2.25.4,2.76.29.48.79.72,1.48.72.16.37.27.79.32,1.24.05.43.08.93.08,1.52-.59-.03-1.39-.05-2.4-.08-.99-.03-1.93-.04-2.84-.04h-2.12c-.8.03-1.56.04-2.28.04-.72.03-1.28.05-1.68.08,0-.51.01-.99.04-1.44.05-.48.16-.92.32-1.32.64,0,1.15-.27,1.52-.8.4-.56.6-1.56.6-3v-3.6c0-1.63-.24-2.75-.72-3.36-.48-.64-1.17-.96-2.08-.96-.67,0-1.28.25-1.84.76-.53.51-.97,1.23-1.32,2.16-.32.93-.48,2.07-.48,3.4v1.92c0,1.36.17,2.28.52,2.76.35.48.87.72,1.56.72.19.43.29.85.32,1.28.05.43.08.92.08,1.48-.4-.03-.95-.05-1.64-.08-.67,0-1.37-.01-2.12-.04h-4.2c-.83.03-1.61.04-2.36.04-.75.03-1.32.05-1.72.08,0-.56.03-1.08.08-1.56.05-.48.15-.88.28-1.2,1.04,0,1.73-.24,2.08-.72.35-.51.52-1.43.52-2.76v-5.24l6.6-4.96c0,.32-.04.69-.12,1.12-.08.4-.19.83-.32,1.28.19-.43.37-.83.56-1.2.19-.37.44-.72.76-1.04.59-.64,1.35-1.19,2.28-1.64.93-.45,2-.68,3.2-.68s2.23.21,3.24.64c1.04.43,1.87,1.12,2.48,2.08.61.96.92,2.23.92,3.8v5.84ZM140.33,315.08c0-.61-.08-1.12-.24-1.52-.13-.4-.41-.69-.84-.88-.43-.21-1.05-.35-1.88-.4,0-.45.03-.91.08-1.36.08-.48.21-.91.4-1.28,1.09,0,2.16-.07,3.2-.2s1.96-.29,2.76-.48c.83-.21,1.44-.43,1.84-.64.4.16.71.43.92.8.24.37.36.88.36,1.52v4.88h-6.6v-.44ZM140.33,314.24h6.6v6.44l-6.6,6.2v-12.64ZM178.36,337.36c-.51-.19-.87-.47-1.08-.84-.21-.37-.32-.87-.32-1.48,0-.35.04-.76.12-1.24.08-.51.2-.99.36-1.44l.16-.16c-.24.83-.55,1.55-.92,2.16-.37.59-.81,1.08-1.32,1.48-.56.48-1.24.84-2.04,1.08-.8.24-1.72.36-2.76.36-1.84,0-3.28-.39-4.32-1.16-1.04-.77-1.56-1.91-1.56-3.4,0-1.01.23-1.88.68-2.6.48-.75,1.12-1.37,1.92-1.88.83-.53,1.73-.96,2.72-1.28,1.01-.32,2.05-.57,3.12-.76,1.09-.21,2.16-.4,3.2-.56,0-.64-.03-1.2-.08-1.68-.03-.48-.11-.89-.24-1.24-.11-.37-.29-.69-.56-.96-.29-.35-.64-.59-1.04-.72-.37-.13-.75-.2-1.12-.2-.67,0-1.21.2-1.64.6-.43.4-.75.95-.96,1.64-.21.67-.36,1.4-.44,2.2-.77,0-1.47-.03-2.08-.08-.61-.05-1.17-.19-1.68-.4.05-.75.07-1.53.04-2.36-.03-.83-.13-1.69-.32-2.6,1.15-.48,2.49-.85,4.04-1.12,1.55-.29,3.03-.44,4.44-.44,1.76,0,3.15.2,4.16.6,1.01.37,1.77.81,2.28,1.32.53.53.96,1.29,1.28,2.28.35.96.52,2.39.52,4.28v3.08c0,.91.05,1.6.16,2.08.11.48.32.81.64,1,.35.16.84.25,1.48.28.08.51.09,1,.04,1.48-.05.48-.19.93-.4,1.36-1.09.03-2.2.15-3.32.36-1.12.21-2.17.53-3.16.96ZM172.92,333.48c.53,0,1.05-.16,1.56-.48.53-.35.97-.87,1.32-1.56.35-.69.52-1.55.52-2.56v-.92c-.83.16-1.57.35-2.24.56-.64.21-1.17.45-1.6.72-.43.27-.75.59-.96.96-.21.37-.32.81-.32,1.32,0,.69.16,1.2.48,1.52.35.29.76.44,1.24.44ZM187.42,337.12c0-.56.03-1.07.08-1.52.05-.48.13-.89.24-1.24,1.07-.05,1.77-.31,2.12-.76.35-.48.52-1.39.52-2.72v-5.8c0-.61-.08-1.12-.24-1.52-.13-.4-.41-.69-.84-.88-.43-.21-1.05-.35-1.88-.4,0-.45.03-.91.08-1.36.08-.48.21-.91.4-1.28,1.09,0,2.16-.07,3.2-.2,1.04-.13,1.96-.29,2.76-.48.83-.21,1.44-.43,1.84-.64.4.16.71.43.92.8.24.37.36.88.36,1.52v10.24c0,1.33.17,2.24.52,2.72.35.45,1.03.71,2.04.76.11.35.17.76.2,1.24.05.48.08.99.08,1.52-.35-.03-.85-.05-1.52-.08-.67,0-1.41-.01-2.24-.04h-4.88c-.83.03-1.57.04-2.24.04-.64.03-1.15.05-1.52.08ZM193.14,315.72c-1.09,0-1.97-.27-2.64-.8-.67-.56-1-1.29-1-2.2,0-1.04.36-1.84,1.08-2.4.75-.59,1.67-.88,2.76-.88,1.25,0,2.2.28,2.84.84.67.56,1,1.36,1,2.4,0,.88-.36,1.61-1.08,2.2-.72.56-1.71.84-2.96.84ZM210.42,337.36c-1.97,0-3.47-.51-4.48-1.52-1.01-1.04-1.52-2.79-1.52-5.24v-8.24c-.43-.16-.88-.28-1.36-.36-.45-.08-.99-.12-1.6-.12,0-.53.03-1.01.08-1.44.08-.45.23-.91.44-1.36h2.44v-4.76c1.04-.13,2.05-.4,3.04-.8,1.01-.4,1.83-.84,2.44-1.32.43.16.72.41.88.76s.24.96.24,1.84v4.28h4.8c0,.59-.04,1.11-.12,1.56-.05.43-.15.85-.28,1.28-.85,0-1.65.07-2.4.2-.72.11-1.39.27-2,.48v7.4c0,1.15.07,2.03.2,2.64.13.59.35,1,.64,1.24.29.21.67.32,1.12.32.4,0,.8-.04,1.2-.12.43-.11.83-.25,1.2-.44.37.53.57,1.28.6,2.24-.56.43-1.36.79-2.4,1.08-1.01.27-2.07.4-3.16.4ZM227.93,337.36c-2.4,0-4.35-.41-5.84-1.24-1.47-.83-2.55-1.95-3.24-3.36-.69-1.41-1.04-3-1.04-4.76,0-1.97.39-3.68,1.16-5.12s1.89-2.56,3.36-3.36,3.19-1.2,5.16-1.2,3.6.37,4.88,1.12c1.28.72,2.23,1.73,2.84,3.04.64,1.28.99,2.77,1.04,4.48-.21.88-.6,1.59-1.16,2.12h-2.64c-.99,0-2.03.01-3.12.04-1.07,0-2.16.03-3.28.08-1.09.05-2.15.12-3.16.2v-2.88h7.36c0-1.81-.24-3.19-.72-4.12-.45-.93-1.15-1.4-2.08-1.4-.61,0-1.16.23-1.64.68-.45.43-.8,1.08-1.04,1.96-.24.85-.36,1.92-.36,3.2,0,1.39.17,2.63.52,3.72.35,1.09.92,1.95,1.72,2.56.8.61,1.88.92,3.24.92.93,0,1.87-.16,2.8-.48s1.71-.73,2.32-1.24c.27.16.51.48.72.96.21.45.32.92.32,1.4-1.04.88-2.23,1.55-3.56,2-1.31.45-2.83.68-4.56.68ZM257.03,337.36c-2.4,0-4.35-.41-5.84-1.24-1.47-.83-2.55-1.95-3.24-3.36-.69-1.41-1.04-3-1.04-4.76,0-1.97.39-3.68,1.16-5.12.77-1.44,1.89-2.56,3.36-3.36,1.47-.8,3.19-1.2,5.16-1.2s3.6.37,4.88,1.12c1.28.72,2.23,1.73,2.84,3.04.64,1.28.99,2.77,1.04,4.48-.21.88-.6,1.59-1.16,2.12h-2.64c-.99,0-2.03.01-3.12.04-1.07,0-2.16.03-3.28.08-1.09.05-2.15.12-3.16.2v-2.88h7.36c0-1.81-.24-3.19-.72-4.12-.45-.93-1.15-1.4-2.08-1.4-.61,0-1.16.23-1.64.68-.45.43-.8,1.08-1.04,1.96-.24.85-.36,1.92-.36,3.2,0,1.39.17,2.63.52,3.72.35,1.09.92,1.95,1.72,2.56s1.88.92,3.24.92c.93,0,1.87-.16,2.8-.48.93-.32,1.71-.73,2.32-1.24.27.16.51.48.72.96.21.45.32.92.32,1.4-1.04.88-2.23,1.55-3.56,2-1.31.45-2.83.68-4.56.68ZM257.87,315.8c-.59,0-1.19-.07-1.8-.2-.61-.13-1.09-.29-1.44-.48.61-1.2,1.11-2.29,1.48-3.28.4-1.01.73-2.05,1-3.12.56-.19,1.16-.32,1.8-.4.67-.08,1.33-.12,2-.12.4.03.79.05,1.16.08.4.03.75.07,1.04.12-1.01,1.17-1.97,2.4-2.88,3.68-.88,1.25-1.67,2.49-2.36,3.72ZM275.86,337.36c-.35-.83-.75-1.72-1.2-2.68-.43-.99-.88-2-1.36-3.04-.45-1.04-.92-2.05-1.4-3.04s-.93-1.89-1.36-2.72c-.4-.85-.75-1.59-1.04-2.2-.29-.59-.56-1.04-.8-1.36-.24-.32-.49-.55-.76-.68-.24-.13-.53-.24-.88-.32-.11-.37-.2-.8-.28-1.28-.08-.51-.12-1-.12-1.48.61.03,1.43.05,2.44.08,1.04.03,2.13.04,3.28.04h2.36c.8-.03,1.55-.04,2.24-.04.69-.03,1.25-.05,1.68-.08,0,.45-.04.95-.12,1.48-.08.51-.17.93-.28,1.28-1.01.11-1.6.33-1.76.68-.16.32,0,.97.48,1.96.27.59.53,1.21.8,1.88.29.64.57,1.33.84,2.08.29.72.57,1.47.84,2.24.29.75.57,1.53.84,2.36h-1.32c.56-1.63,1.09-3.05,1.6-4.28.51-1.23,1.04-2.48,1.6-3.76.48-1.15.61-1.93.4-2.36-.21-.43-.76-.69-1.64-.8-.11-.35-.21-.77-.32-1.28-.08-.53-.12-1.03-.12-1.48.53.03,1.13.05,1.8.08.67.03,1.39.04,2.16.04s1.51-.01,2.2-.04c.69-.03,1.32-.05,1.88-.08,0,.45-.04.95-.12,1.48-.08.53-.2.96-.36,1.28-.45.11-.84.27-1.16.48-.32.19-.61.48-.88.88-.24.4-.51.96-.8,1.68l-5.52,12.48c-.45.21-1.05.37-1.8.48-.72.11-1.4.12-2.04.04ZM299.89,337.36c-2.24,0-4.13-.37-5.68-1.12-1.52-.77-2.67-1.85-3.44-3.24-.77-1.39-1.16-3.01-1.16-4.88,0-2.16.45-3.96,1.36-5.4.93-1.47,2.2-2.56,3.8-3.28,1.6-.75,3.4-1.12,5.4-1.12,2.29,0,4.2.4,5.72,1.2,1.55.8,2.71,1.89,3.48,3.28.77,1.39,1.16,2.99,1.16,4.8,0,2-.43,3.73-1.28,5.2-.85,1.47-2.08,2.6-3.68,3.4-1.6.77-3.49,1.16-5.68,1.16ZM300.53,334.56c1.09,0,1.92-.56,2.48-1.68s.84-2.51.84-4.16-.2-3.17-.6-4.32c-.4-1.15-.92-2-1.56-2.56-.64-.59-1.33-.88-2.08-.88-1.15,0-1.99.56-2.52,1.68s-.8,2.49-.8,4.12c0,1.47.16,2.8.48,4,.32,1.17.8,2.11,1.44,2.8.64.67,1.41,1,2.32,1ZM312.72,337.12c0-.56.03-1.07.08-1.52.05-.48.13-.89.24-1.24,1.07-.05,1.77-.31,2.12-.76.35-.48.52-1.39.52-2.72v-16.12c0-.53-.09-.97-.28-1.32-.16-.35-.45-.61-.88-.8-.43-.19-1.03-.31-1.8-.36,0-.45.03-.91.08-1.36.08-.48.21-.91.4-1.28,1.09,0,2.16-.07,3.2-.2,1.04-.13,1.96-.29,2.76-.48.83-.21,1.44-.43,1.84-.64.4.16.71.43.92.8.24.37.36.88.36,1.52v20.24c0,1.33.17,2.24.52,2.72.35.45,1.03.71,2.04.76.11.35.17.76.2,1.24.05.48.08.99.08,1.52-.35-.03-.85-.05-1.52-.08-.67,0-1.41-.01-2.24-.04h-4.88c-.83.03-1.57.04-2.24.04-.67.03-1.17.05-1.52.08ZM335.38,337.24c-1.95,0-3.47-.53-4.56-1.6-1.07-1.09-1.6-3.03-1.6-5.8v-4.2c0-1.2-.13-2.04-.4-2.52-.27-.48-.97-.76-2.12-.84,0-.45.03-.91.08-1.36.08-.48.21-.91.4-1.28,1.68,0,3.17-.13,4.48-.4,1.31-.29,2.28-.6,2.92-.92.4.16.71.43.92.8.21.37.32.89.32,1.56v8.16c0,1.79.17,3.03.52,3.72.35.67.88,1,1.6,1,.99,0,1.84-.51,2.56-1.52s1.08-2.57,1.08-4.68v-1.92c0-1.2-.17-2.04-.52-2.52-.35-.48-1.13-.76-2.36-.84,0-.45.03-.91.08-1.36.05-.48.17-.91.36-1.28,1.73,0,3.31-.11,4.72-.32,1.41-.24,2.43-.51,3.04-.8.4.16.71.43.92.8.21.37.32.89.32,1.56v10.96l-5.72,1.44c-.19.51-.4.96-.64,1.36-.24.37-.52.71-.84,1-.56.51-1.31.93-2.24,1.28-.93.35-2.04.52-3.32.52ZM343.54,337.36c-.51-.19-.87-.45-1.08-.8-.21-.37-.32-.87-.32-1.48,0-.48.05-1.01.16-1.6.13-.59.27-1.11.4-1.56l5.44-2.16c0,.93.05,1.65.16,2.16.11.48.32.81.64,1,.35.16.85.25,1.52.28.08.51.09,1,.04,1.48-.05.48-.2.93-.44,1.36-1.07.03-2.17.15-3.32.36-1.15.21-2.21.53-3.2.96ZM362.74,337.36c-2.4,0-4.35-.41-5.84-1.24-1.47-.83-2.55-1.95-3.24-3.36-.69-1.41-1.04-3-1.04-4.76,0-1.97.39-3.68,1.16-5.12.77-1.44,1.89-2.56,3.36-3.36,1.47-.8,3.19-1.2,5.16-1.2s3.6.37,4.88,1.12c1.28.72,2.23,1.73,2.84,3.04.64,1.28.99,2.77,1.04,4.48-.21.88-.6,1.59-1.16,2.12h-2.64c-.99,0-2.03.01-3.12.04-1.07,0-2.16.03-3.28.08-1.09.05-2.15.12-3.16.2v-2.88h7.36c0-1.81-.24-3.19-.72-4.12-.45-.93-1.15-1.4-2.08-1.4-.61,0-1.16.23-1.64.68-.45.43-.8,1.08-1.04,1.96-.24.85-.36,1.92-.36,3.2,0,1.39.17,2.63.52,3.72.35,1.09.92,1.95,1.72,2.56s1.88.92,3.24.92c.93,0,1.87-.16,2.8-.48.93-.32,1.71-.73,2.32-1.24.27.16.51.48.72.96.21.45.32.92.32,1.4-1.04.88-2.23,1.55-3.56,2-1.31.45-2.83.68-4.56.68ZM383.27,329.64c0,1.15.12,2.05.36,2.72.27.64.69,1.12,1.28,1.44.61.29,1.45.48,2.52.56.13.37.21.81.24,1.32.05.48.08.96.08,1.44-.48-.03-1.09-.05-1.84-.08-.75,0-1.55-.01-2.4-.04h-6.48c-1.39.03-2.49.07-3.32.12,0-.64.01-1.17.04-1.6.05-.45.13-.84.24-1.16.72-.05,1.27-.19,1.64-.4.4-.24.67-.65.8-1.24.16-.59.24-1.45.24-2.6v-2.2h6.6v1.72ZM383.27,325.2v3.52h-6.6v-4.32l6.6-3.72c0,.53-.08,1.13-.24,1.8-.13.67-.32,1.51-.56,2.52l.8.2ZM382.39,325.12c.19-.53.4-1.13.64-1.8.24-.69.45-1.2.64-1.52.59-.93,1.32-1.71,2.2-2.32.88-.61,1.85-.92,2.92-.92s2,.32,2.88.96c-.08.56-.16,1.21-.24,1.96-.08.75-.13,1.51-.16,2.28,0,.75.01,1.43.04,2.04-.45.19-1.05.32-1.8.4-.75.05-1.39.08-1.92.08-.05-.96-.21-1.64-.48-2.04-.27-.43-.67-.64-1.2-.64-.37,0-.77.23-1.2.68-.4.45-.75,1.04-1.04,1.76-.27.69-.4,1.44-.4,2.24l-.88-3.16ZM376.67,328.72v-3.08c0-.83-.05-1.47-.16-1.92-.11-.45-.37-.79-.8-1-.4-.24-1.04-.39-1.92-.44,0-.45.03-.91.08-1.36.08-.48.21-.91.4-1.28,1.68,0,3.23-.13,4.64-.4,1.44-.29,2.48-.6,3.12-.92.4.16.71.43.92.8.21.37.32.89.32,1.56l-6.6,8.04ZM109.75,376.36c-2.4,0-4.35-.41-5.84-1.24-1.47-.83-2.55-1.95-3.24-3.36-.69-1.41-1.04-3-1.04-4.76,0-1.97.39-3.68,1.16-5.12s1.89-2.56,3.36-3.36c1.47-.8,3.19-1.2,5.16-1.2s3.6.37,4.88,1.12c1.28.72,2.23,1.73,2.84,3.04.64,1.28.99,2.77,1.04,4.48-.21.88-.6,1.59-1.16,2.12h-2.64c-.99,0-2.03.01-3.12.04-1.07,0-2.16.03-3.28.08-1.09.05-2.15.12-3.16.2v-2.88h7.36c0-1.81-.24-3.19-.72-4.12-.45-.93-1.15-1.4-2.08-1.4-.61,0-1.16.23-1.64.68-.45.43-.8,1.08-1.04,1.96-.24.85-.36,1.92-.36,3.2,0,1.39.17,2.63.52,3.72.35,1.09.92,1.95,1.72,2.56s1.88.92,3.24.92c.93,0,1.87-.16,2.8-.48s1.71-.73,2.32-1.24c.27.16.51.48.72.96.21.45.32.92.32,1.4-1.04.88-2.23,1.55-3.56,2-1.31.45-2.83.68-4.56.68ZM123.68,367.72v-3.08c0-.83-.05-1.47-.16-1.92-.11-.45-.37-.79-.8-1-.4-.24-1.04-.39-1.92-.44,0-.45.03-.91.08-1.36.08-.48.21-.91.4-1.28,1.68,0,3.23-.13,4.64-.4,1.44-.29,2.48-.6,3.12-.92.4.16.71.43.92.8.21.37.32.89.32,1.56l-6.6,8.04ZM143.32,369.88c0,1.33.13,2.25.4,2.76.27.48.76.72,1.48.72.16.37.25.79.28,1.24.05.43.08.93.08,1.52-.59-.03-1.39-.05-2.4-.08-.99-.03-1.93-.04-2.84-.04h-2.12c-.8.03-1.56.04-2.28.04-.72.03-1.28.05-1.68.08,0-.51.01-.99.04-1.44.05-.48.16-.92.32-1.32.67,0,1.19-.27,1.56-.8.37-.56.56-1.56.56-3v-3.6c0-1.63-.24-2.75-.72-3.36-.48-.64-1.17-.96-2.08-.96-.64,0-1.24.25-1.8.76-.56.51-1.01,1.23-1.36,2.16-.32.93-.48,2.07-.48,3.4v1.92c0,1.36.17,2.28.52,2.76.35.48.87.72,1.56.72.19.43.29.85.32,1.28.05.43.08.92.08,1.48-.4-.03-.93-.05-1.6-.08-.67,0-1.37-.01-2.12-.04h-4.2c-.83.03-1.63.04-2.4.04-.75.03-1.32.05-1.72.08,0-.56.03-1.08.08-1.56.08-.48.17-.88.28-1.2,1.04,0,1.73-.24,2.08-.72.35-.51.52-1.43.52-2.76v-5.24l6.6-4.96c0,.32-.04.69-.12,1.12-.08.4-.19.83-.32,1.28.19-.43.37-.83.56-1.2.21-.37.47-.72.76-1.04.59-.64,1.35-1.19,2.28-1.64.96-.45,2.03-.68,3.2-.68s2.27.21,3.28.64c1.01.43,1.83,1.12,2.44,2.08.64.96.96,2.23.96,3.8v5.84ZM169.75,376.36c-.51-.19-.87-.47-1.08-.84-.21-.37-.32-.87-.32-1.48,0-.35.04-.76.12-1.24.08-.51.2-.99.36-1.44l.16-.16c-.24.83-.55,1.55-.92,2.16-.37.59-.81,1.08-1.32,1.48-.56.48-1.24.84-2.04,1.08-.8.24-1.72.36-2.76.36-1.84,0-3.28-.39-4.32-1.16s-1.56-1.91-1.56-3.4c0-1.01.23-1.88.68-2.6.48-.75,1.12-1.37,1.92-1.88.83-.53,1.73-.96,2.72-1.28,1.01-.32,2.05-.57,3.12-.76,1.09-.21,2.16-.4,3.2-.56,0-.64-.03-1.2-.08-1.68-.03-.48-.11-.89-.24-1.24-.11-.37-.29-.69-.56-.96-.29-.35-.64-.59-1.04-.72-.37-.13-.75-.2-1.12-.2-.67,0-1.21.2-1.64.6-.43.4-.75.95-.96,1.64-.21.67-.36,1.4-.44,2.2-.77,0-1.47-.03-2.08-.08-.61-.05-1.17-.19-1.68-.4.05-.75.07-1.53.04-2.36-.03-.83-.13-1.69-.32-2.6,1.15-.48,2.49-.85,4.04-1.12,1.55-.29,3.03-.44,4.44-.44,1.76,0,3.15.2,4.16.6,1.01.37,1.77.81,2.28,1.32.53.53.96,1.29,1.28,2.28.35.96.52,2.39.52,4.28v3.08c0,.91.05,1.6.16,2.08.11.48.32.81.64,1,.35.16.84.25,1.48.28.08.51.09,1,.04,1.48-.05.48-.19.93-.4,1.36-1.09.03-2.2.15-3.32.36-1.12.21-2.17.53-3.16.96ZM164.31,372.48c.53,0,1.05-.16,1.56-.48.53-.35.97-.87,1.32-1.56s.52-1.55.52-2.56v-.92c-.83.16-1.57.35-2.24.56-.64.21-1.17.45-1.6.72-.43.27-.75.59-.96.96-.21.37-.32.81-.32,1.32,0,.69.16,1.2.48,1.52.35.29.76.44,1.24.44ZM178.81,385.8c0-.64.01-1.19.04-1.64.05-.43.13-.8.24-1.12.72-.05,1.27-.2,1.64-.44.4-.21.67-.61.8-1.2.16-.59.24-1.45.24-2.6v-14.16c0-.83-.05-1.47-.16-1.92-.11-.45-.37-.79-.8-1-.4-.24-1.04-.39-1.92-.44,0-.45.03-.91.08-1.36.08-.48.21-.91.4-1.28,1.68,0,3.23-.13,4.64-.4,1.44-.29,2.48-.6,3.12-.92.4.16.71.43.92.8.21.37.32.89.32,1.56,0,.27-.07.63-.2,1.08-.13.45-.33.97-.6,1.56l.8.84v15.16c0,1.15.12,2.04.36,2.68.27.67.69,1.15,1.28,1.44.61.32,1.45.52,2.52.6.13.37.21.8.24,1.28.05.51.08,1,.08,1.48-.48-.03-1.09-.05-1.84-.08-.75,0-1.55-.01-2.4-.04h-6.48c-1.39.03-2.49.07-3.32.12ZM191.13,376.36c-.56,0-1.08-.04-1.56-.12-.48-.08-1.01-.19-1.6-.32v-4c.43.59.88,1.04,1.36,1.36.51.32,1.11.48,1.8.48.48,0,.99-.09,1.52-.28.53-.19,1.04-.53,1.52-1.04s.85-1.23,1.12-2.16c.29-.96.44-2.19.44-3.68,0-.99-.12-1.91-.36-2.76-.21-.88-.57-1.59-1.08-2.12-.48-.56-1.15-.84-2-.84-.64,0-1.27.21-1.88.64-.59.4-1.08,1.08-1.48,2.04-.37.93-.56,2.19-.56,3.76l-1.72-4.04c.45-1.12.89-1.99,1.32-2.6.43-.64.84-1.12,1.24-1.44.32-.29.73-.59,1.24-.88.53-.29,1.13-.53,1.8-.72.69-.21,1.41-.32,2.16-.32,1.57,0,2.95.29,4.12.88,1.2.56,2.15,1.44,2.84,2.64.72,1.2,1.08,2.76,1.08,4.68,0,2.16-.48,4.05-1.44,5.68-.93,1.63-2.25,2.89-3.96,3.8-1.68.91-3.65,1.36-5.92,1.36ZM204.47,385.8c0-.64.01-1.19.04-1.64.05-.43.13-.8.24-1.12.72-.05,1.27-.2,1.64-.44.4-.21.67-.61.8-1.2.16-.59.24-1.45.24-2.6v-14.16c0-.83-.05-1.47-.16-1.92-.11-.45-.37-.79-.8-1-.4-.24-1.04-.39-1.92-.44,0-.45.03-.91.08-1.36.08-.48.21-.91.4-1.28,1.68,0,3.23-.13,4.64-.4,1.44-.29,2.48-.6,3.12-.92.4.16.71.43.92.8.21.37.32.89.32,1.56,0,.27-.07.63-.2,1.08-.13.45-.33.97-.6,1.56l.8.84v15.16c0,1.15.12,2.04.36,2.68.27.67.69,1.15,1.28,1.44.61.32,1.45.52,2.52.6.13.37.21.8.24,1.28.05.51.08,1,.08,1.48-.48-.03-1.09-.05-1.84-.08-.75,0-1.55-.01-2.4-.04h-6.48c-1.39.03-2.49.07-3.32.12ZM216.79,376.36c-.56,0-1.08-.04-1.56-.12-.48-.08-1.01-.19-1.6-.32v-4c.43.59.88,1.04,1.36,1.36.51.32,1.11.48,1.8.48.48,0,.99-.09,1.52-.28.53-.19,1.04-.53,1.52-1.04s.85-1.23,1.12-2.16c.29-.96.44-2.19.44-3.68,0-.99-.12-1.91-.36-2.76-.21-.88-.57-1.59-1.08-2.12-.48-.56-1.15-.84-2-.84-.64,0-1.27.21-1.88.64-.59.4-1.08,1.08-1.48,2.04-.37.93-.56,2.19-.56,3.76l-1.72-4.04c.45-1.12.89-1.99,1.32-2.6.43-.64.84-1.12,1.24-1.44.32-.29.73-.59,1.24-.88.53-.29,1.13-.53,1.8-.72.69-.21,1.41-.32,2.16-.32,1.57,0,2.95.29,4.12.88,1.2.56,2.15,1.44,2.84,2.64.72,1.2,1.08,2.76,1.08,4.68,0,2.16-.48,4.05-1.44,5.68-.93,1.63-2.25,2.89-3.96,3.8-1.68.91-3.65,1.36-5.92,1.36ZM239.97,368.64c0,1.15.12,2.05.36,2.72.27.64.69,1.12,1.28,1.44.61.29,1.45.48,2.52.56.13.37.21.81.24,1.32.05.48.08.96.08,1.44-.48-.03-1.09-.05-1.84-.08-.75,0-1.55-.01-2.4-.04h-6.48c-1.39.03-2.49.07-3.32.12,0-.64.01-1.17.04-1.6.05-.45.13-.84.24-1.16.72-.05,1.27-.19,1.64-.4.4-.24.67-.65.8-1.24.16-.59.24-1.45.24-2.6v-2.2h6.6v1.72ZM239.97,364.2v3.52h-6.6v-4.32l6.6-3.72c0,.53-.08,1.13-.24,1.8-.13.67-.32,1.51-.56,2.52l.8.2ZM239.09,364.12c.19-.53.4-1.13.64-1.8.24-.69.45-1.2.64-1.52.59-.93,1.32-1.71,2.2-2.32.88-.61,1.85-.92,2.92-.92s2,.32,2.88.96c-.08.56-.16,1.21-.24,1.96-.08.75-.13,1.51-.16,2.28,0,.75.01,1.43.04,2.04-.45.19-1.05.32-1.8.4-.75.05-1.39.08-1.92.08-.05-.96-.21-1.64-.48-2.04-.27-.43-.67-.64-1.2-.64-.37,0-.77.23-1.2.68-.4.45-.75,1.04-1.04,1.76-.27.69-.4,1.44-.4,2.24l-.88-3.16ZM233.37,367.72v-3.08c0-.83-.05-1.47-.16-1.92-.11-.45-.37-.79-.8-1-.4-.24-1.04-.39-1.92-.44,0-.45.03-.91.08-1.36.08-.48.21-.91.4-1.28,1.68,0,3.23-.13,4.64-.4,1.44-.29,2.48-.6,3.12-.92.4.16.71.43.92.8.21.37.32.89.32,1.56l-6.6,8.04ZM260.49,376.36c-2.4,0-4.35-.41-5.84-1.24-1.47-.83-2.55-1.95-3.24-3.36-.69-1.41-1.04-3-1.04-4.76,0-1.97.39-3.68,1.16-5.12.77-1.44,1.89-2.56,3.36-3.36,1.47-.8,3.19-1.2,5.16-1.2s3.6.37,4.88,1.12c1.28.72,2.23,1.73,2.84,3.04.64,1.28.99,2.77,1.04,4.48-.21.88-.6,1.59-1.16,2.12h-2.64c-.99,0-2.03.01-3.12.04-1.07,0-2.16.03-3.28.08-1.09.05-2.15.12-3.16.2v-2.88h7.36c0-1.81-.24-3.19-.72-4.12-.45-.93-1.15-1.4-2.08-1.4-.61,0-1.16.23-1.64.68-.45.43-.8,1.08-1.04,1.96-.24.85-.36,1.92-.36,3.2,0,1.39.17,2.63.52,3.72.35,1.09.92,1.95,1.72,2.56s1.88.92,3.24.92c.93,0,1.87-.16,2.8-.48.93-.32,1.71-.73,2.32-1.24.27.16.51.48.72.96.21.45.32.92.32,1.4-1.04.88-2.23,1.55-3.56,2-1.31.45-2.83.68-4.56.68ZM274.42,367.72v-3.08c0-.83-.05-1.47-.16-1.92-.11-.45-.37-.79-.8-1-.4-.24-1.04-.39-1.92-.44,0-.45.03-.91.08-1.36.08-.48.21-.91.4-1.28,1.68,0,3.23-.13,4.64-.4,1.44-.29,2.48-.6,3.12-.92.4.16.71.43.92.8.21.37.32.89.32,1.56l-6.6,8.04ZM294.06,369.88c0,1.33.13,2.25.4,2.76.27.48.76.72,1.48.72.16.37.25.79.28,1.24.05.43.08.93.08,1.52-.59-.03-1.39-.05-2.4-.08-.99-.03-1.93-.04-2.84-.04h-2.12c-.8.03-1.56.04-2.28.04-.72.03-1.28.05-1.68.08,0-.51.01-.99.04-1.44.05-.48.16-.92.32-1.32.67,0,1.19-.27,1.56-.8.37-.56.56-1.56.56-3v-3.6c0-1.63-.24-2.75-.72-3.36-.48-.64-1.17-.96-2.08-.96-.64,0-1.24.25-1.8.76-.56.51-1.01,1.23-1.36,2.16-.32.93-.48,2.07-.48,3.4v1.92c0,1.36.17,2.28.52,2.76.35.48.87.72,1.56.72.19.43.29.85.32,1.28.05.43.08.92.08,1.48-.4-.03-.93-.05-1.6-.08-.67,0-1.37-.01-2.12-.04h-4.2c-.83.03-1.63.04-2.4.04-.75.03-1.32.05-1.72.08,0-.56.03-1.08.08-1.56.08-.48.17-.88.28-1.2,1.04,0,1.73-.24,2.08-.72.35-.51.52-1.43.52-2.76v-5.24l6.6-4.96c0,.32-.04.69-.12,1.12-.08.4-.19.83-.32,1.28.19-.43.37-.83.56-1.2.21-.37.47-.72.76-1.04.59-.64,1.35-1.19,2.28-1.64.96-.45,2.03-.68,3.2-.68s2.27.21,3.28.64c1.01.43,1.83,1.12,2.44,2.08.64.96.96,2.23.96,3.8v5.84ZM312.48,376.36c-.51-.19-.87-.47-1.08-.84-.21-.37-.32-.87-.32-1.48,0-.35.04-.76.12-1.24.08-.51.2-.99.36-1.44l.16-.16c-.24.83-.55,1.55-.92,2.16-.37.59-.81,1.08-1.32,1.48-.56.48-1.24.84-2.04,1.08-.8.24-1.72.36-2.76.36-1.84,0-3.28-.39-4.32-1.16-1.04-.77-1.56-1.91-1.56-3.4,0-1.01.23-1.88.68-2.6.48-.75,1.12-1.37,1.92-1.88.83-.53,1.73-.96,2.72-1.28,1.01-.32,2.05-.57,3.12-.76,1.09-.21,2.16-.4,3.2-.56,0-.64-.03-1.2-.08-1.68-.03-.48-.11-.89-.24-1.24-.11-.37-.29-.69-.56-.96-.29-.35-.64-.59-1.04-.72-.37-.13-.75-.2-1.12-.2-.67,0-1.21.2-1.64.6-.43.4-.75.95-.96,1.64-.21.67-.36,1.4-.44,2.2-.77,0-1.47-.03-2.08-.08-.61-.05-1.17-.19-1.68-.4.05-.75.07-1.53.04-2.36-.03-.83-.13-1.69-.32-2.6,1.15-.48,2.49-.85,4.04-1.12,1.55-.29,3.03-.44,4.44-.44,1.76,0,3.15.2,4.16.6,1.01.37,1.77.81,2.28,1.32.53.53.96,1.29,1.28,2.28.35.96.52,2.39.52,4.28v3.08c0,.91.05,1.6.16,2.08.11.48.32.81.64,1,.35.16.84.25,1.48.28.08.51.09,1,.04,1.48-.05.48-.19.93-.4,1.36-1.09.03-2.2.15-3.32.36-1.12.21-2.17.53-3.16.96ZM307.04,372.48c.53,0,1.05-.16,1.56-.48.53-.35.97-.87,1.32-1.56.35-.69.52-1.55.52-2.56v-.92c-.83.16-1.57.35-2.24.56-.64.21-1.17.45-1.6.72-.43.27-.75.59-.96.96-.21.37-.32.81-.32,1.32,0,.69.16,1.2.48,1.52.35.29.76.44,1.24.44ZM324.5,367.72v-3.08c0-.83-.05-1.47-.16-1.92-.11-.45-.37-.79-.8-1-.4-.24-1.04-.39-1.92-.44,0-.45.03-.91.08-1.36.08-.48.21-.91.4-1.28,1.68,0,3.23-.13,4.64-.4,1.44-.29,2.48-.6,3.12-.92.4.16.71.43.92.8.21.37.32.89.32,1.56l-6.6,8.04ZM344.14,369.88c0,1.33.13,2.25.4,2.76.27.48.76.72,1.48.72.16.37.25.79.28,1.24.05.43.08.93.08,1.52-.59-.03-1.39-.05-2.4-.08-.99-.03-1.93-.04-2.84-.04h-2.12c-.8.03-1.56.04-2.28.04-.72.03-1.28.05-1.68.08,0-.51.01-.99.04-1.44.05-.48.16-.92.32-1.32.67,0,1.19-.27,1.56-.8.37-.56.56-1.56.56-3v-3.6c0-1.63-.24-2.75-.72-3.36-.48-.64-1.17-.96-2.08-.96-.64,0-1.24.25-1.8.76-.56.51-1.01,1.23-1.36,2.16-.32.93-.48,2.07-.48,3.4v1.92c0,1.36.17,2.28.52,2.76.35.48.87.72,1.56.72.19.43.29.85.32,1.28.05.43.08.92.08,1.48-.4-.03-.93-.05-1.6-.08-.67,0-1.37-.01-2.12-.04h-4.2c-.83.03-1.63.04-2.4.04-.75.03-1.32.05-1.72.08,0-.56.03-1.08.08-1.56.08-.48.17-.88.28-1.2,1.04,0,1.73-.24,2.08-.72.35-.51.52-1.43.52-2.76v-5.24l6.6-4.96c0,.32-.04.69-.12,1.12-.08.4-.19.83-.32,1.28.19-.43.37-.83.56-1.2.21-.37.47-.72.76-1.04.59-.64,1.35-1.19,2.28-1.64.96-.45,2.03-.68,3.2-.68s2.27.21,3.28.64c1.01.43,1.83,1.12,2.44,2.08.64.96.96,2.23.96,3.8v5.84ZM356.53,376.36c-1.97,0-3.47-.51-4.48-1.52-1.01-1.04-1.52-2.79-1.52-5.24v-8.24c-.43-.16-.88-.28-1.36-.36-.45-.08-.99-.12-1.6-.12,0-.53.03-1.01.08-1.44.08-.45.23-.91.44-1.36h2.44v-4.76c1.04-.13,2.05-.4,3.04-.8,1.01-.4,1.83-.84,2.44-1.32.43.16.72.41.88.76.16.35.24.96.24,1.84v4.28h4.8c0,.59-.04,1.11-.12,1.56-.05.43-.15.85-.28,1.28-.85,0-1.65.07-2.4.2-.72.11-1.39.27-2,.48v7.4c0,1.15.07,2.03.2,2.64.13.59.35,1,.64,1.24.29.21.67.32,1.12.32.4,0,.8-.04,1.2-.12.43-.11.83-.25,1.2-.44.37.53.57,1.28.6,2.24-.56.43-1.36.79-2.4,1.08-1.01.27-2.07.4-3.16.4Z"/>
  </g>
</svg>