<svg width="241" height="259" viewBox="0 0 241 259" fill="none" xmlns="http://www.w3.org/2000/svg">
<circle cx="109" cy="113.5" r="103" fill="#FAEAA3"/>
<g filter="url(#filter0_d_502_3116)">
<path d="M123.09 84.18C136.947 84.18 148.18 72.9468 148.18 59.09C148.18 45.2332 136.947 34 123.09 34C109.233 34 98 45.2332 98 59.09C98 72.9468 109.233 84.18 123.09 84.18Z" fill="url(#paint0_radial_502_3116)"/>
</g>
<g filter="url(#filter1_d_502_3116)">
<path d="M182.09 208.18C195.947 208.18 207.18 196.947 207.18 183.09C207.18 169.233 195.947 158 182.09 158C168.233 158 157 169.233 157 183.09C157 196.947 168.233 208.18 182.09 208.18Z" fill="url(#paint1_radial_502_3116)"/>
</g>
<g filter="url(#filter2_d_502_3116)">
<path d="M201.09 126.18C214.947 126.18 226.18 114.947 226.18 101.09C226.18 87.2332 214.947 76 201.09 76C187.233 76 176 87.2332 176 101.09C176 114.947 187.233 126.18 201.09 126.18Z" fill="url(#paint2_radial_502_3116)"/>
</g>
<g filter="url(#filter3_d_502_3116)">
<path d="M90.09 242.18C103.947 242.18 115.18 230.947 115.18 217.09C115.18 203.233 103.947 192 90.09 192C76.2332 192 65 203.233 65 217.09C65 230.947 76.2332 242.18 90.09 242.18Z" fill="url(#paint3_radial_502_3116)"/>
</g>
<g filter="url(#filter4_d_502_3116)">
<path d="M31.09 54.18C44.9468 54.18 56.18 42.9468 56.18 29.09C56.18 15.2332 44.9468 4 31.09 4C17.2332 4 6 15.2332 6 29.09C6 42.9468 17.2332 54.18 31.09 54.18Z" fill="url(#paint4_radial_502_3116)"/>
</g>
<g filter="url(#filter5_d_502_3116)">
<path d="M21.704 113.612C21.704 114.529 21.8 115.255 21.992 115.788C22.2053 116.3 22.5467 116.684 23.016 116.94C23.5067 117.175 24.1787 117.324 25.032 117.388C25.1387 117.687 25.2027 118.039 25.224 118.444C25.2667 118.828 25.288 119.212 25.288 119.596C24.904 119.575 24.4133 119.553 23.816 119.532C23.2187 119.532 22.5787 119.521 21.896 119.5C21.2347 119.5 20.584 119.5 19.944 119.5C18.8987 119.5 17.8213 119.5 16.712 119.5C15.6027 119.521 14.7173 119.553 14.056 119.596C14.056 119.084 14.0667 118.657 14.088 118.316C14.1307 117.953 14.1947 117.644 14.28 117.388C14.856 117.345 15.2933 117.239 15.592 117.068C15.912 116.876 16.1253 116.545 16.232 116.076C16.36 115.607 16.424 114.913 16.424 113.996V112.236H21.704V113.612ZM21.704 110.06V112.876H16.424V109.42L21.704 106.444C21.704 106.871 21.64 107.351 21.512 107.884C21.4053 108.417 21.256 109.089 21.064 109.9L21.704 110.06ZM21 109.996C21.1493 109.569 21.32 109.089 21.512 108.556C21.704 108.001 21.8747 107.596 22.024 107.34C22.4933 106.593 23.08 105.975 23.784 105.484C24.488 104.993 25.2667 104.748 26.12 104.748C26.952 104.748 27.72 105.004 28.424 105.516C28.36 105.964 28.296 106.487 28.232 107.084C28.168 107.681 28.1253 108.289 28.104 108.908C28.104 109.505 28.1147 110.049 28.136 110.54C27.7733 110.689 27.2933 110.796 26.696 110.86C26.0987 110.903 25.5867 110.924 25.16 110.924C25.1173 110.156 24.9893 109.612 24.776 109.292C24.5627 108.951 24.2427 108.78 23.816 108.78C23.5173 108.78 23.1973 108.961 22.856 109.324C22.536 109.687 22.2587 110.156 22.024 110.732C21.8107 111.287 21.704 111.884 21.704 112.524L21 109.996ZM16.424 112.876V110.412C16.424 109.751 16.3813 109.239 16.296 108.876C16.2107 108.513 15.9973 108.247 15.656 108.076C15.336 107.884 14.824 107.767 14.12 107.724C14.12 107.361 14.1413 106.999 14.184 106.636C14.248 106.252 14.3547 105.911 14.504 105.612C15.848 105.612 17.0853 105.505 18.216 105.292C19.368 105.057 20.2 104.812 20.712 104.556C21.032 104.684 21.2773 104.897 21.448 105.196C21.6187 105.495 21.704 105.911 21.704 106.444L16.424 112.876ZM38.1208 119.788C36.2008 119.788 34.6434 119.457 33.4488 118.796C32.2754 118.135 31.4114 117.239 30.8568 116.108C30.3021 114.977 30.0247 113.708 30.0247 112.3C30.0247 110.721 30.3341 109.356 30.9528 108.204C31.5714 107.052 32.4674 106.156 33.6408 105.516C34.8141 104.876 36.1901 104.556 37.7688 104.556C39.3474 104.556 40.6488 104.855 41.6728 105.452C42.6968 106.028 43.4541 106.839 43.9448 107.884C44.4568 108.908 44.7341 110.103 44.7768 111.468C44.6061 112.172 44.2968 112.737 43.8488 113.164C43.2301 113.164 42.5261 113.164 41.7368 113.164C40.9474 113.164 40.1154 113.175 39.2408 113.196C38.3874 113.196 37.5128 113.217 36.6168 113.26C35.7421 113.303 34.8994 113.356 34.0888 113.42V111.116H39.9768C39.9768 109.665 39.7848 108.567 39.4008 107.82C39.0381 107.073 38.4834 106.7 37.7368 106.7C37.2461 106.7 36.8088 106.881 36.4248 107.244C36.0621 107.585 35.7848 108.108 35.5928 108.812C35.4008 109.495 35.3048 110.348 35.3048 111.372C35.3048 112.481 35.4434 113.473 35.7208 114.348C35.9981 115.223 36.4568 115.905 37.0968 116.396C37.7368 116.887 38.6008 117.132 39.6888 117.132C40.4354 117.132 41.1821 117.004 41.9288 116.748C42.6754 116.492 43.2941 116.161 43.7848 115.756C43.9981 115.884 44.1901 116.14 44.3608 116.524C44.5314 116.887 44.6168 117.26 44.6168 117.644C43.7848 118.348 42.8354 118.881 41.7688 119.244C40.7234 119.607 39.5074 119.788 38.1208 119.788ZM58.7718 105.548C58.7504 106.103 58.7398 106.679 58.7398 107.276C58.7611 107.852 58.8144 108.417 58.8998 108.972C58.5798 109.143 58.1638 109.292 57.6518 109.42C57.1611 109.548 56.6598 109.612 56.1478 109.612C56.0838 109.079 55.9344 108.599 55.6998 108.172C55.4864 107.724 55.1771 107.372 54.7718 107.116C54.3878 106.86 53.8864 106.732 53.2678 106.732C52.8411 106.732 52.4998 106.849 52.2438 107.084C52.0091 107.297 51.8918 107.585 51.8918 107.948C51.8918 108.204 51.9558 108.449 52.0838 108.684C52.2331 108.919 52.5424 109.185 53.0118 109.484C53.5024 109.761 54.2491 110.113 55.2517 110.54C56.4678 111.031 57.4171 111.5 58.0998 111.948C58.8038 112.396 59.3051 112.876 59.6038 113.388C59.9024 113.9 60.0518 114.519 60.0518 115.244C60.0518 116.204 59.7638 117.025 59.1878 117.708C58.6331 118.391 57.8331 118.913 56.7878 119.276C55.7424 119.617 54.4838 119.788 53.0118 119.788C51.6678 119.788 50.5478 119.692 49.6518 119.5C48.7558 119.308 47.8811 119.041 47.0278 118.7C47.0918 118.273 47.1344 117.825 47.1558 117.356C47.1771 116.865 47.1771 116.396 47.1558 115.948C47.1558 115.479 47.1344 115.073 47.0918 114.732C47.4118 114.519 47.8384 114.369 48.3718 114.284C48.9264 114.177 49.4384 114.124 49.9078 114.124C50.0358 115.233 50.3558 116.076 50.8678 116.652C51.4011 117.207 52.0518 117.484 52.8198 117.484C53.3531 117.484 53.7904 117.367 54.1318 117.132C54.4944 116.897 54.6758 116.556 54.6758 116.108C54.6758 115.788 54.5904 115.511 54.4198 115.276C54.2704 115.02 53.9824 114.775 53.5558 114.54C53.1504 114.284 52.5424 114.007 51.7318 113.708C50.7931 113.345 49.9824 112.961 49.2998 112.556C48.6171 112.151 48.0838 111.649 47.6998 111.052C47.3371 110.455 47.1558 109.687 47.1558 108.748C47.1558 108.023 47.3051 107.404 47.6038 106.892C47.9238 106.359 48.3718 105.921 48.9478 105.58C49.5238 105.239 50.1851 104.983 50.9318 104.812C51.6998 104.641 52.5211 104.556 53.3958 104.556C54.5904 104.556 55.6038 104.641 56.4358 104.812C57.2678 104.961 58.0464 105.207 58.7718 105.548ZM61.6497 127.34C61.6497 126.828 61.6604 126.391 61.6818 126.028C61.7244 125.687 61.7884 125.388 61.8738 125.132C62.4498 125.089 62.8871 124.972 63.1858 124.78C63.5058 124.609 63.7191 124.289 63.8258 123.82C63.9538 123.351 64.0178 122.657 64.0178 121.74V110.412C64.0178 109.751 63.9751 109.239 63.8898 108.876C63.8044 108.513 63.5911 108.247 63.2498 108.076C62.9298 107.884 62.4178 107.767 61.7138 107.724C61.7138 107.361 61.7351 106.999 61.7778 106.636C61.8418 106.252 61.9484 105.911 62.0978 105.612C63.4418 105.612 64.6791 105.505 65.8098 105.292C66.9618 105.057 67.7938 104.812 68.3058 104.556C68.6258 104.684 68.8711 104.897 69.0417 105.196C69.2124 105.495 69.2978 105.911 69.2978 106.444C69.2978 106.657 69.2444 106.945 69.1378 107.308C69.0311 107.671 68.8711 108.087 68.6578 108.556L69.2978 109.228V121.356C69.2978 122.273 69.3938 122.988 69.5858 123.5C69.7991 124.033 70.1404 124.417 70.6098 124.652C71.1004 124.908 71.7724 125.068 72.6258 125.132C72.7324 125.431 72.7964 125.772 72.8178 126.156C72.8604 126.561 72.8818 126.956 72.8818 127.34C72.4978 127.319 72.0071 127.297 71.4098 127.276C70.8124 127.276 70.1724 127.265 69.4898 127.244C68.8284 127.244 68.1778 127.244 67.5378 127.244C66.4924 127.244 65.4151 127.244 64.3058 127.244C63.1964 127.265 62.3111 127.297 61.6497 127.34ZM71.5058 119.788C71.0578 119.788 70.6418 119.756 70.2578 119.692C69.8738 119.628 69.4471 119.543 68.9778 119.436V116.236C69.3191 116.705 69.6818 117.068 70.0658 117.324C70.4711 117.58 70.9511 117.708 71.5058 117.708C71.8898 117.708 72.2951 117.633 72.7218 117.484C73.1484 117.335 73.5538 117.057 73.9378 116.652C74.3218 116.247 74.6204 115.671 74.8338 114.924C75.0684 114.156 75.1858 113.175 75.1858 111.98C75.1858 111.191 75.0898 110.455 74.8978 109.772C74.7271 109.068 74.4391 108.503 74.0338 108.076C73.6498 107.628 73.1164 107.404 72.4338 107.404C71.9218 107.404 71.4204 107.575 70.9298 107.916C70.4604 108.236 70.0658 108.78 69.7458 109.548C69.4471 110.295 69.2978 111.297 69.2978 112.556L67.9218 109.324C68.2844 108.428 68.6364 107.735 68.9778 107.244C69.3191 106.732 69.6498 106.348 69.9698 106.092C70.2258 105.857 70.5564 105.623 70.9618 105.388C71.3884 105.153 71.8684 104.961 72.4018 104.812C72.9564 104.641 73.5324 104.556 74.1298 104.556C75.3884 104.556 76.4871 104.791 77.4258 105.26C78.3858 105.708 79.1431 106.412 79.6978 107.372C80.2738 108.332 80.5618 109.58 80.5618 111.116C80.5618 112.844 80.1778 114.359 79.4097 115.66C78.6631 116.961 77.6071 117.975 76.2418 118.7C74.8978 119.425 73.3191 119.788 71.5058 119.788ZM90.8738 119.788C89.0818 119.788 87.5671 119.489 86.3298 118.892C85.1138 118.273 84.1964 117.409 83.5778 116.3C82.9591 115.191 82.6497 113.889 82.6497 112.396C82.6497 110.668 83.0124 109.228 83.7378 108.076C84.4844 106.903 85.4978 106.028 86.7778 105.452C88.0578 104.855 89.4978 104.556 91.0978 104.556C92.9324 104.556 94.4578 104.876 95.6738 105.516C96.9111 106.156 97.8391 107.031 98.4578 108.14C99.0764 109.249 99.3858 110.529 99.3858 111.98C99.3858 113.58 99.0444 114.967 98.3618 116.14C97.6791 117.313 96.6978 118.22 95.4178 118.86C94.1378 119.479 92.6231 119.788 90.8738 119.788ZM91.3858 117.548C92.2604 117.548 92.9218 117.1 93.3698 116.204C93.8178 115.308 94.0418 114.199 94.0418 112.876C94.0418 111.489 93.8818 110.337 93.5618 109.42C93.2418 108.503 92.8258 107.82 92.3138 107.372C91.8018 106.903 91.2471 106.668 90.6498 106.668C89.7324 106.668 89.0604 107.116 88.6338 108.012C88.2071 108.908 87.9938 110.007 87.9938 111.308C87.9938 112.481 88.1218 113.548 88.3778 114.508C88.6338 115.447 89.0178 116.193 89.5298 116.748C90.0418 117.281 90.6604 117.548 91.3858 117.548ZM103.612 112.876V110.412C103.612 109.751 103.569 109.239 103.484 108.876C103.398 108.513 103.185 108.247 102.844 108.076C102.524 107.884 102.012 107.767 101.308 107.724C101.308 107.361 101.329 106.999 101.372 106.636C101.436 106.252 101.542 105.911 101.692 105.612C103.036 105.612 104.273 105.505 105.404 105.292C106.556 105.057 107.388 104.812 107.9 104.556C108.22 104.684 108.465 104.897 108.635 105.196C108.806 105.495 108.892 105.911 108.892 106.444L103.612 112.876ZM119.324 114.604C119.324 115.671 119.43 116.407 119.644 116.812C119.857 117.196 120.252 117.388 120.828 117.388C120.956 117.687 121.03 118.017 121.052 118.38C121.094 118.721 121.116 119.127 121.116 119.596C120.646 119.575 120.006 119.553 119.196 119.532C118.406 119.511 117.649 119.5 116.924 119.5C116.433 119.5 115.868 119.5 115.228 119.5C114.588 119.521 113.98 119.532 113.404 119.532C112.828 119.553 112.38 119.575 112.06 119.596C112.06 119.191 112.07 118.807 112.092 118.444C112.134 118.06 112.22 117.708 112.348 117.388C112.881 117.388 113.297 117.175 113.596 116.748C113.894 116.3 114.044 115.5 114.044 114.348V111.468C114.044 110.167 113.852 109.271 113.468 108.78C113.084 108.268 112.529 108.012 111.804 108.012C111.292 108.012 110.812 108.215 110.364 108.62C109.916 109.025 109.553 109.601 109.276 110.348C109.02 111.095 108.892 112.001 108.892 113.068V114.604C108.892 115.692 109.03 116.428 109.308 116.812C109.585 117.196 110.001 117.388 110.556 117.388C110.705 117.729 110.79 118.071 110.812 118.412C110.854 118.753 110.876 119.148 110.876 119.596C110.556 119.575 110.129 119.553 109.595 119.532C109.062 119.532 108.497 119.521 107.9 119.5C107.302 119.5 106.758 119.5 106.268 119.5C105.777 119.5 105.201 119.5 104.54 119.5C103.878 119.521 103.238 119.532 102.62 119.532C102.022 119.553 101.564 119.575 101.243 119.596C101.243 119.148 101.265 118.732 101.308 118.348C101.372 117.964 101.446 117.644 101.532 117.388C102.364 117.388 102.918 117.196 103.196 116.812C103.473 116.407 103.612 115.671 103.612 114.604V110.412L108.892 106.444C108.892 106.7 108.86 106.999 108.796 107.34C108.732 107.66 108.646 108.001 108.54 108.364C108.689 108.023 108.838 107.703 108.988 107.404C109.158 107.105 109.361 106.828 109.595 106.572C110.065 106.06 110.673 105.623 111.42 105.26C112.188 104.897 113.041 104.716 113.98 104.716C114.918 104.716 115.793 104.887 116.604 105.228C117.414 105.569 118.065 106.124 118.556 106.892C119.068 107.66 119.324 108.673 119.324 109.932V114.604ZM135.053 105.548C135.032 106.103 135.021 106.679 135.021 107.276C135.042 107.852 135.096 108.417 135.181 108.972C134.861 109.143 134.445 109.292 133.933 109.42C133.442 109.548 132.941 109.612 132.429 109.612C132.365 109.079 132.216 108.599 131.981 108.172C131.768 107.724 131.458 107.372 131.053 107.116C130.669 106.86 130.168 106.732 129.549 106.732C129.122 106.732 128.781 106.849 128.525 107.084C128.29 107.297 128.173 107.585 128.173 107.948C128.173 108.204 128.237 108.449 128.365 108.684C128.514 108.919 128.824 109.185 129.293 109.484C129.784 109.761 130.53 110.113 131.533 110.54C132.749 111.031 133.698 111.5 134.381 111.948C135.085 112.396 135.586 112.876 135.885 113.388C136.184 113.9 136.333 114.519 136.333 115.244C136.333 116.204 136.045 117.025 135.469 117.708C134.914 118.391 134.114 118.913 133.069 119.276C132.024 119.617 130.765 119.788 129.293 119.788C127.949 119.788 126.829 119.692 125.933 119.5C125.037 119.308 124.162 119.041 123.309 118.7C123.373 118.273 123.416 117.825 123.437 117.356C123.458 116.865 123.458 116.396 123.437 115.948C123.437 115.479 123.416 115.073 123.373 114.732C123.693 114.519 124.12 114.369 124.653 114.284C125.208 114.177 125.72 114.124 126.189 114.124C126.317 115.233 126.637 116.076 127.149 116.652C127.682 117.207 128.333 117.484 129.101 117.484C129.634 117.484 130.072 117.367 130.413 117.132C130.776 116.897 130.957 116.556 130.957 116.108C130.957 115.788 130.872 115.511 130.701 115.276C130.552 115.02 130.264 114.775 129.837 114.54C129.432 114.284 128.824 114.007 128.013 113.708C127.074 113.345 126.264 112.961 125.581 112.556C124.898 112.151 124.365 111.649 123.981 111.052C123.618 110.455 123.437 109.687 123.437 108.748C123.437 108.023 123.586 107.404 123.885 106.892C124.205 106.359 124.653 105.921 125.229 105.58C125.805 105.239 126.466 104.983 127.213 104.812C127.981 104.641 128.802 104.556 129.677 104.556C130.872 104.556 131.885 104.641 132.717 104.812C133.549 104.961 134.328 105.207 135.053 105.548ZM149.28 119.788C148.874 119.639 148.586 119.415 148.416 119.116C148.245 118.817 148.16 118.423 148.16 117.932C148.16 117.655 148.192 117.324 148.256 116.94C148.32 116.535 148.416 116.151 148.544 115.788L148.672 115.66C148.48 116.321 148.234 116.897 147.936 117.388C147.637 117.857 147.285 118.252 146.88 118.572C146.432 118.956 145.888 119.244 145.248 119.436C144.608 119.628 143.872 119.724 143.04 119.724C141.568 119.724 140.416 119.415 139.584 118.796C138.752 118.177 138.336 117.271 138.336 116.076C138.336 115.265 138.517 114.572 138.88 113.996C139.264 113.399 139.776 112.897 140.416 112.492C141.077 112.065 141.802 111.724 142.592 111.468C143.402 111.212 144.234 111.009 145.088 110.86C145.962 110.689 146.816 110.54 147.648 110.412C147.648 109.9 147.626 109.452 147.584 109.068C147.562 108.684 147.498 108.353 147.392 108.076C147.306 107.777 147.157 107.521 146.944 107.308C146.709 107.031 146.432 106.839 146.112 106.732C145.813 106.625 145.514 106.572 145.216 106.572C144.682 106.572 144.245 106.732 143.904 107.052C143.562 107.372 143.306 107.809 143.136 108.364C142.965 108.897 142.848 109.484 142.784 110.124C142.165 110.124 141.61 110.103 141.12 110.06C140.629 110.017 140.181 109.911 139.776 109.74C139.818 109.143 139.829 108.513 139.808 107.852C139.786 107.191 139.701 106.497 139.552 105.772C140.469 105.388 141.546 105.089 142.784 104.876C144.021 104.641 145.205 104.524 146.336 104.524C147.744 104.524 148.853 104.684 149.664 105.004C150.474 105.303 151.082 105.655 151.488 106.06C151.914 106.487 152.256 107.095 152.512 107.884C152.789 108.652 152.928 109.793 152.928 111.308V113.772C152.928 114.497 152.97 115.052 153.056 115.436C153.141 115.82 153.312 116.087 153.568 116.236C153.845 116.364 154.24 116.439 154.752 116.46C154.816 116.865 154.826 117.26 154.784 117.644C154.741 118.028 154.634 118.391 154.464 118.732C153.589 118.753 152.704 118.849 151.808 119.02C150.912 119.191 150.069 119.447 149.28 119.788ZM144.928 116.684C145.354 116.684 145.77 116.556 146.176 116.3C146.602 116.023 146.954 115.607 147.232 115.052C147.509 114.497 147.648 113.815 147.648 113.004V112.268C146.986 112.396 146.389 112.545 145.856 112.716C145.344 112.887 144.917 113.079 144.576 113.292C144.234 113.505 143.978 113.761 143.808 114.06C143.637 114.359 143.552 114.711 143.552 115.116C143.552 115.671 143.68 116.076 143.936 116.332C144.213 116.567 144.544 116.684 144.928 116.684ZM162.765 116.236C163.106 116.705 163.469 117.068 163.853 117.324C164.258 117.58 164.738 117.708 165.293 117.708C165.677 117.708 166.082 117.633 166.509 117.484C166.935 117.335 167.341 117.057 167.725 116.652C168.109 116.225 168.407 115.639 168.621 114.892C168.855 114.145 168.973 113.175 168.973 111.98C168.973 111.127 168.866 110.359 168.653 109.676C168.461 108.972 168.162 108.417 167.757 108.012C167.351 107.607 166.829 107.404 166.189 107.404C165.698 107.404 165.207 107.575 164.717 107.916C164.247 108.236 163.853 108.78 163.533 109.548C163.234 110.295 163.085 111.308 163.085 112.588V117.164L162.765 116.236ZM165.325 119.788C164.194 119.788 163.074 119.692 161.965 119.5C160.877 119.308 159.895 119.041 159.021 118.7C158.167 118.337 157.517 117.932 157.069 117.484C157.325 117.164 157.506 116.748 157.613 116.236C157.741 115.703 157.805 115.009 157.805 114.156V101.964C157.805 101.473 157.741 101.068 157.613 100.748C157.506 100.428 157.282 100.193 156.941 100.044C156.599 99.8733 156.098 99.7667 155.437 99.724C155.437 99.3613 155.458 98.9987 155.501 98.636C155.565 98.252 155.671 97.9107 155.821 97.612C156.695 97.612 157.549 97.5587 158.381 97.452C159.213 97.3453 159.949 97.2173 160.589 97.068C161.25 96.8973 161.741 96.7267 162.061 96.556C162.381 96.684 162.626 96.8973 162.797 97.196C162.989 97.4947 163.085 97.9 163.085 98.412V104.652C163.085 105.292 163.063 105.804 163.021 106.188C162.978 106.551 162.903 106.956 162.797 107.404L162.445 109.612L161.677 109.324C162.061 108.428 162.423 107.735 162.765 107.244C163.106 106.732 163.437 106.348 163.757 106.092C164.013 105.857 164.343 105.623 164.749 105.388C165.175 105.153 165.655 104.961 166.189 104.812C166.743 104.641 167.319 104.556 167.917 104.556C169.154 104.556 170.253 104.791 171.213 105.26C172.173 105.708 172.93 106.423 173.485 107.404C174.061 108.385 174.349 109.644 174.349 111.18C174.349 112.887 173.965 114.391 173.197 115.692C172.45 116.972 171.405 117.975 170.061 118.7C168.717 119.425 167.138 119.788 165.325 119.788ZM176.081 119.596C176.081 119.148 176.102 118.743 176.145 118.38C176.187 117.996 176.251 117.665 176.337 117.388C177.19 117.345 177.755 117.143 178.033 116.78C178.31 116.396 178.449 115.671 178.449 114.604V101.708C178.449 101.281 178.374 100.929 178.225 100.652C178.097 100.375 177.862 100.161 177.521 100.012C177.179 99.8627 176.699 99.7667 176.081 99.724C176.081 99.3613 176.102 98.9987 176.145 98.636C176.209 98.252 176.315 97.9107 176.465 97.612C177.339 97.612 178.193 97.5587 179.025 97.452C179.857 97.3453 180.593 97.2173 181.233 97.068C181.894 96.8973 182.385 96.7267 182.705 96.556C183.025 96.684 183.27 96.8973 183.441 97.196C183.633 97.4947 183.729 97.9 183.729 98.412V114.604C183.729 115.671 183.867 116.396 184.145 116.78C184.422 117.143 184.966 117.345 185.777 117.388C185.862 117.665 185.915 117.996 185.937 118.38C185.979 118.764 186.001 119.169 186.001 119.596C185.723 119.575 185.318 119.553 184.785 119.532C184.251 119.532 183.654 119.521 182.993 119.5C182.353 119.5 181.702 119.5 181.041 119.5C180.401 119.5 179.75 119.5 179.089 119.5C178.427 119.521 177.83 119.532 177.297 119.532C176.763 119.553 176.358 119.575 176.081 119.596ZM195.933 119.788C194.013 119.788 192.456 119.457 191.261 118.796C190.088 118.135 189.224 117.239 188.669 116.108C188.115 114.977 187.837 113.708 187.837 112.3C187.837 110.721 188.147 109.356 188.765 108.204C189.384 107.052 190.28 106.156 191.453 105.516C192.627 104.876 194.003 104.556 195.581 104.556C197.16 104.556 198.461 104.855 199.485 105.452C200.509 106.028 201.267 106.839 201.757 107.884C202.269 108.908 202.547 110.103 202.589 111.468C202.419 112.172 202.109 112.737 201.661 113.164C201.043 113.164 200.339 113.164 199.549 113.164C198.76 113.164 197.928 113.175 197.053 113.196C196.2 113.196 195.325 113.217 194.429 113.26C193.555 113.303 192.712 113.356 191.901 113.42V111.116H197.789C197.789 109.665 197.597 108.567 197.213 107.82C196.851 107.073 196.296 106.7 195.549 106.7C195.059 106.7 194.621 106.881 194.237 107.244C193.875 107.585 193.597 108.108 193.405 108.812C193.213 109.495 193.117 110.348 193.117 111.372C193.117 112.481 193.256 113.473 193.533 114.348C193.811 115.223 194.269 115.905 194.909 116.396C195.549 116.887 196.413 117.132 197.501 117.132C198.248 117.132 198.995 117.004 199.741 116.748C200.488 116.492 201.107 116.161 201.597 115.756C201.811 115.884 202.003 116.14 202.173 116.524C202.344 116.887 202.429 117.26 202.429 117.644C201.597 118.348 200.648 118.881 199.581 119.244C198.536 119.607 197.32 119.788 195.933 119.788Z" fill="#5A1F06"/>
</g>
<g filter="url(#filter6_d_502_3116)">
<path d="M65.09 170.18C78.9468 170.18 90.18 158.947 90.18 145.09C90.18 131.233 78.9468 120 65.09 120C51.2332 120 40 131.233 40 145.09C40 158.947 51.2332 170.18 65.09 170.18Z" fill="url(#paint5_radial_502_3116)"/>
</g>
<defs>
<filter id="filter0_d_502_3116" x="92" y="30" width="70.1802" height="70.1801" filterUnits="userSpaceOnUse" color-interpolation-filters="sRGB">
<feFlood flood-opacity="0" result="BackgroundImageFix"/>
<feColorMatrix in="SourceAlpha" type="matrix" values="0 0 0 0 0 0 0 0 0 0 0 0 0 0 0 0 0 0 127 0" result="hardAlpha"/>
<feOffset dx="4" dy="6"/>
<feGaussianBlur stdDeviation="5"/>
<feColorMatrix type="matrix" values="0 0 0 0 0.113725 0 0 0 0 0.113725 0 0 0 0 0.105882 0 0 0 0.5 0"/>
<feBlend mode="normal" in2="BackgroundImageFix" result="effect1_dropShadow_502_3116"/>
<feBlend mode="normal" in="SourceGraphic" in2="effect1_dropShadow_502_3116" result="shape"/>
</filter>
<filter id="filter1_d_502_3116" x="151" y="154" width="70.1802" height="70.1801" filterUnits="userSpaceOnUse" color-interpolation-filters="sRGB">
<feFlood flood-opacity="0" result="BackgroundImageFix"/>
<feColorMatrix in="SourceAlpha" type="matrix" values="0 0 0 0 0 0 0 0 0 0 0 0 0 0 0 0 0 0 127 0" result="hardAlpha"/>
<feOffset dx="4" dy="6"/>
<feGaussianBlur stdDeviation="5"/>
<feColorMatrix type="matrix" values="0 0 0 0 0.113725 0 0 0 0 0.113725 0 0 0 0 0.105882 0 0 0 0.5 0"/>
<feBlend mode="normal" in2="BackgroundImageFix" result="effect1_dropShadow_502_3116"/>
<feBlend mode="normal" in="SourceGraphic" in2="effect1_dropShadow_502_3116" result="shape"/>
</filter>
<filter id="filter2_d_502_3116" x="170" y="72" width="70.1802" height="70.1801" filterUnits="userSpaceOnUse" color-interpolation-filters="sRGB">
<feFlood flood-opacity="0" result="BackgroundImageFix"/>
<feColorMatrix in="SourceAlpha" type="matrix" values="0 0 0 0 0 0 0 0 0 0 0 0 0 0 0 0 0 0 127 0" result="hardAlpha"/>
<feOffset dx="4" dy="6"/>
<feGaussianBlur stdDeviation="5"/>
<feColorMatrix type="matrix" values="0 0 0 0 0.113725 0 0 0 0 0.113725 0 0 0 0 0.105882 0 0 0 0.5 0"/>
<feBlend mode="normal" in2="BackgroundImageFix" result="effect1_dropShadow_502_3116"/>
<feBlend mode="normal" in="SourceGraphic" in2="effect1_dropShadow_502_3116" result="shape"/>
</filter>
<filter id="filter3_d_502_3116" x="59" y="188" width="70.1802" height="70.1801" filterUnits="userSpaceOnUse" color-interpolation-filters="sRGB">
<feFlood flood-opacity="0" result="BackgroundImageFix"/>
<feColorMatrix in="SourceAlpha" type="matrix" values="0 0 0 0 0 0 0 0 0 0 0 0 0 0 0 0 0 0 127 0" result="hardAlpha"/>
<feOffset dx="4" dy="6"/>
<feGaussianBlur stdDeviation="5"/>
<feColorMatrix type="matrix" values="0 0 0 0 0.113725 0 0 0 0 0.113725 0 0 0 0 0.105882 0 0 0 0.5 0"/>
<feBlend mode="normal" in2="BackgroundImageFix" result="effect1_dropShadow_502_3116"/>
<feBlend mode="normal" in="SourceGraphic" in2="effect1_dropShadow_502_3116" result="shape"/>
</filter>
<filter id="filter4_d_502_3116" x="0" y="0" width="70.1802" height="70.1799" filterUnits="userSpaceOnUse" color-interpolation-filters="sRGB">
<feFlood flood-opacity="0" result="BackgroundImageFix"/>
<feColorMatrix in="SourceAlpha" type="matrix" values="0 0 0 0 0 0 0 0 0 0 0 0 0 0 0 0 0 0 127 0" result="hardAlpha"/>
<feOffset dx="4" dy="6"/>
<feGaussianBlur stdDeviation="5"/>
<feColorMatrix type="matrix" values="0 0 0 0 0.113725 0 0 0 0 0.113725 0 0 0 0 0.105882 0 0 0 0.5 0"/>
<feBlend mode="normal" in2="BackgroundImageFix" result="effect1_dropShadow_502_3116"/>
<feBlend mode="normal" in="SourceGraphic" in2="effect1_dropShadow_502_3116" result="shape"/>
</filter>
<filter id="filter5_d_502_3116" x="10.0562" y="95.556" width="196.533" height="38.7839" filterUnits="userSpaceOnUse" color-interpolation-filters="sRGB">
<feFlood flood-opacity="0" result="BackgroundImageFix"/>
<feColorMatrix in="SourceAlpha" type="matrix" values="0 0 0 0 0 0 0 0 0 0 0 0 0 0 0 0 0 0 127 0" result="hardAlpha"/>
<feOffset dy="3"/>
<feGaussianBlur stdDeviation="2"/>
<feComposite in2="hardAlpha" operator="out"/>
<feColorMatrix type="matrix" values="0 0 0 0 0 0 0 0 0 0 0 0 0 0 0 0 0 0 0.3 0"/>
<feBlend mode="normal" in2="BackgroundImageFix" result="effect1_dropShadow_502_3116"/>
<feBlend mode="normal" in="SourceGraphic" in2="effect1_dropShadow_502_3116" result="shape"/>
</filter>
<filter id="filter6_d_502_3116" x="34" y="116" width="70.1802" height="70.1801" filterUnits="userSpaceOnUse" color-interpolation-filters="sRGB">
<feFlood flood-opacity="0" result="BackgroundImageFix"/>
<feColorMatrix in="SourceAlpha" type="matrix" values="0 0 0 0 0 0 0 0 0 0 0 0 0 0 0 0 0 0 127 0" result="hardAlpha"/>
<feOffset dx="4" dy="6"/>
<feGaussianBlur stdDeviation="5"/>
<feColorMatrix type="matrix" values="0 0 0 0 0.113725 0 0 0 0 0.113725 0 0 0 0 0.105882 0 0 0 0.5 0"/>
<feBlend mode="normal" in2="BackgroundImageFix" result="effect1_dropShadow_502_3116"/>
<feBlend mode="normal" in="SourceGraphic" in2="effect1_dropShadow_502_3116" result="shape"/>
</filter>
<radialGradient id="paint0_radial_502_3116" cx="0" cy="0" r="1" gradientUnits="userSpaceOnUse" gradientTransform="translate(123.09 59.09) scale(25.09 25.09)">
<stop stop-color="#FAEAA3"/>
<stop offset="0.135" stop-color="#FAEAA3"/>
<stop offset="0.53" stop-color="#FADD5D"/>
<stop offset="0.6925" stop-color="#F6D335"/>
<stop offset="0.985" stop-color="#DCB404"/>
</radialGradient>
<radialGradient id="paint1_radial_502_3116" cx="0" cy="0" r="1" gradientUnits="userSpaceOnUse" gradientTransform="translate(182.09 183.09) scale(25.09 25.09)">
<stop stop-color="#FAEAA3"/>
<stop offset="0.135" stop-color="#FAEAA3"/>
<stop offset="0.53" stop-color="#FADD5D"/>
<stop offset="0.6925" stop-color="#F6D335"/>
<stop offset="0.985" stop-color="#DCB404"/>
</radialGradient>
<radialGradient id="paint2_radial_502_3116" cx="0" cy="0" r="1" gradientUnits="userSpaceOnUse" gradientTransform="translate(201.09 101.09) scale(25.09 25.09)">
<stop stop-color="#F2CBB1"/>
<stop offset="0.365" stop-color="#ECA373"/>
<stop offset="0.685" stop-color="#F57926"/>
<stop offset="1" stop-color="#E1600A"/>
</radialGradient>
<radialGradient id="paint3_radial_502_3116" cx="0" cy="0" r="1" gradientUnits="userSpaceOnUse" gradientTransform="translate(90.09 217.09) scale(25.09 25.09)">
<stop stop-color="#F2CBB1"/>
<stop offset="0.365" stop-color="#ECA373"/>
<stop offset="0.685" stop-color="#F57926"/>
<stop offset="1" stop-color="#E1600A"/>
</radialGradient>
<radialGradient id="paint4_radial_502_3116" cx="0" cy="0" r="1" gradientUnits="userSpaceOnUse" gradientTransform="translate(31.09 29.09) scale(25.09 25.09)">
<stop stop-color="#F2CBB1"/>
<stop offset="0.365" stop-color="#ECA373"/>
<stop offset="0.685" stop-color="#F57926"/>
<stop offset="1" stop-color="#E1600A"/>
</radialGradient>
<radialGradient id="paint5_radial_502_3116" cx="0" cy="0" r="1" gradientUnits="userSpaceOnUse" gradientTransform="translate(65.09 145.09) scale(25.09 25.09)">
<stop stop-color="#FAEAA3"/>
<stop offset="0.135" stop-color="#FAEAA3"/>
<stop offset="0.53" stop-color="#FADD5D"/>
<stop offset="0.6925" stop-color="#F6D335"/>
<stop offset="0.985" stop-color="#DCB404"/>
</radialGradient>
</defs>
</svg>
