<?xml version="1.0" encoding="UTF-8"?>
<svg id="Calque_2" data-name="Calque 2" xmlns="http://www.w3.org/2000/svg" viewBox="0 0 83.5 74.16">
  <defs>
    <style>
      .cls-1 {
        fill: #ffd103;
      }

      .cls-2 {
        fill: #16a638;
        stroke: #fff;
        stroke-miterlimit: 10;
        stroke-width: 3px;
      }

      .cls-3 {
        fill: #d61016;
      }
    </style>
  </defs>
  <g id="Calque_1-2" data-name="Calque 1">
    <path class="cls-2" d="M28.79,17.78s7.06-15.24,21.49-14.92,19.25,16.04,19.41,20.53c0,0,14.76,4.65,9.14,20.53,0,0,12.03,17.8-10.75,20.05,0,0-9.46,11.55-19.25,2.09,0,0-25.02,20.37-34.8-10.43,0,0-25.04-10.64-4.33-25.66,0,0,1.6-13.79,19.09-12.19Z"/>
    <polygon class="cls-1" points="47.32 13.85 42.83 10.58 38.32 13.84 40.05 8.55 35.56 5.28 41.12 5.29 42.84 0 44.55 5.29 50.11 5.3 45.61 8.56 47.32 13.85"/>
    <polygon class="cls-1" points="17.47 59.84 14.6 57.74 11.72 59.83 12.82 56.45 9.95 54.35 13.5 54.36 14.61 50.98 15.7 54.36 19.26 54.37 16.38 56.45 17.47 59.84"/>
    <polygon class="cls-1" points="73.81 31.2 70.47 28.77 67.12 31.19 68.4 27.27 65.06 24.83 69.2 24.84 70.48 20.91 71.75 24.84 75.88 24.85 72.54 27.27 73.81 31.2"/>
    <polygon class="cls-3" points="32.1 42.71 21.05 56.09 30.59 56.09 33.14 65.16 42.8 52.37 32.1 42.71"/>
    <polygon class="cls-3" points="46.87 51.44 56.53 65.16 59.43 56.21 69.21 56.32 59.43 44.46 46.87 51.44"/>
    <circle class="cls-1" cx="44.84" cy="36.08" r="17"/>
    <polygon class="cls-3" points="49.33 42.28 44.84 39.01 40.33 42.27 42.06 36.98 37.57 33.71 43.13 33.72 44.85 28.43 46.56 33.72 52.12 33.73 47.62 36.99 49.33 42.28"/>
  </g>
</svg>