<svg width="97" height="86" viewBox="0 0 97 86" fill="none" xmlns="http://www.w3.org/2000/svg">
<g clip-path="url(#clip0_262_241)">
<path d="M33.4447 20.6188C33.4447 20.6188 41.6461 2.94571 58.4091 3.3168C75.1721 3.68789 80.7714 21.9177 80.9572 27.1245C80.9572 27.1245 98.1036 32.5169 91.575 50.9322C91.575 50.9322 105.55 71.5741 79.0869 74.1833C79.0869 74.1833 68.0975 87.5773 56.7247 76.607C56.7247 76.607 27.6595 100.229 16.2983 64.5118C16.2983 64.5118 -12.7901 52.1731 11.2683 34.755C11.2683 34.755 13.1269 18.7634 33.4447 20.6188Z" fill="#16A638" stroke="white" stroke-width="3" stroke-miterlimit="10"/>
<path d="M54.9704 16.0612L49.7545 12.2691L44.5153 16.0496L46.525 9.91505L41.3091 6.12298L47.768 6.13457L49.7661 0L51.7526 6.13457L58.2115 6.14617L52.9839 9.92665L54.9704 16.0612Z" fill="#FFD103"/>
<path d="M20.2944 69.3937L16.9604 66.9584L13.6148 69.3821L14.8926 65.4625L11.5586 63.0272L15.6825 63.0388L16.972 59.1191L18.2382 63.0388L22.3738 63.0504L19.0282 65.4625L20.2944 69.3937Z" fill="#FFD103"/>
<path d="M85.7433 36.1814L81.8633 33.3634L77.9717 36.1698L79.4586 31.6239L75.5786 28.7944L80.388 28.806L81.8749 24.2485L83.3502 28.806L88.148 28.8176L84.268 31.6239L85.7433 36.1814Z" fill="#FFD103"/>
<path d="M37.2897 49.5288L24.4531 65.045H35.5355L38.4978 75.5631L49.7196 60.7311L37.2897 49.5288Z" fill="#D61016"/>
<path d="M54.4478 59.6525L65.6695 75.563L69.0384 65.184L80.3996 65.3116L69.0384 51.5581L54.4478 59.6525Z" fill="#D61016"/>
<path d="M52.0898 61.5542C62.9966 61.5542 71.8383 52.7279 71.8383 41.8401C71.8383 30.9523 62.9966 22.126 52.0898 22.126C41.183 22.126 32.3413 30.9523 32.3413 41.8401C32.3413 52.7279 41.183 61.5542 52.0898 61.5542Z" fill="#FFD103"/>
<path d="M57.3054 49.03L52.0894 45.2379L46.8503 49.0184L48.86 42.8838L43.644 39.0917L50.103 39.1033L52.101 32.9688L54.0875 39.1033L60.5464 39.1149L55.3189 42.8954L57.3054 49.03Z" fill="#D61016"/>
</g>
<defs>
<clipPath id="clip0_262_241">
<rect width="97" height="86" fill="white"/>
</clipPath>
</defs>
</svg>
