<svg width="108" height="33" viewBox="0 0 108 33" fill="none" xmlns="http://www.w3.org/2000/svg">
<path d="M13 1L15.9187 9.98278H25.3637L17.7225 15.5344L20.6412 24.5172L13 18.9656L5.35879 24.5172L8.27747 15.5344L0.636266 9.98278H10.0813L13 1Z" fill="#2BC191"/>
<path d="M36.2832 8.78125V23H34.4277V8.78125H36.2832ZM40.8535 8.78125V10.3242H29.8672V8.78125H40.8535ZM43.7539 14.0938V23H41.9473V12.4336H43.7051L43.7539 14.0938ZM47.0547 12.375L47.0449 14.0547C46.8952 14.0221 46.752 14.0026 46.6152 13.9961C46.485 13.9831 46.3353 13.9766 46.166 13.9766C45.7493 13.9766 45.3815 14.0417 45.0625 14.1719C44.7435 14.3021 44.4733 14.4844 44.252 14.7188C44.0306 14.9531 43.8548 15.2331 43.7246 15.5586C43.6009 15.8776 43.5195 16.2292 43.4805 16.6133L42.9727 16.9062C42.9727 16.2682 43.0345 15.6693 43.1582 15.1094C43.2884 14.5495 43.487 14.0547 43.7539 13.625C44.0208 13.1888 44.3594 12.8503 44.7695 12.6094C45.1862 12.362 45.681 12.2383 46.2539 12.2383C46.3841 12.2383 46.5339 12.2546 46.7031 12.2871C46.8724 12.3132 46.9896 12.3424 47.0547 12.375ZM55.1895 20.5586V12.4336H57.0059V23H55.2773L55.1895 20.5586ZM55.5312 18.332L56.2832 18.3125C56.2832 19.0156 56.2083 19.6667 56.0586 20.2656C55.9154 20.8581 55.681 21.3724 55.3555 21.8086C55.0299 22.2448 54.6035 22.5866 54.0762 22.834C53.5488 23.0749 52.9076 23.1953 52.1523 23.1953C51.638 23.1953 51.166 23.1204 50.7363 22.9707C50.3132 22.821 49.9486 22.5898 49.6426 22.2773C49.3366 21.9648 49.099 21.5579 48.9297 21.0566C48.7669 20.5553 48.6855 19.9531 48.6855 19.25V12.4336H50.4922V19.2695C50.4922 19.7448 50.5443 20.1387 50.6484 20.4512C50.7591 20.7572 50.9056 21.0013 51.0879 21.1836C51.2767 21.3594 51.485 21.4831 51.7129 21.5547C51.9473 21.6263 52.1882 21.6621 52.4355 21.6621C53.2038 21.6621 53.8125 21.5156 54.2617 21.2227C54.7109 20.9232 55.0332 20.5228 55.2285 20.0215C55.4303 19.5137 55.5312 18.9505 55.5312 18.332ZM65.9121 20.1973C65.9121 19.9368 65.8535 19.696 65.7363 19.4746C65.6257 19.2467 65.3945 19.0417 65.043 18.8594C64.6979 18.6706 64.1771 18.5078 63.4805 18.3711C62.8945 18.2474 62.3639 18.1009 61.8887 17.9316C61.4199 17.7624 61.0195 17.5573 60.6875 17.3164C60.362 17.0755 60.1113 16.7923 59.9355 16.4668C59.7598 16.1413 59.6719 15.7604 59.6719 15.3242C59.6719 14.9076 59.763 14.5137 59.9453 14.1426C60.1341 13.7715 60.3978 13.4427 60.7363 13.1562C61.0814 12.8698 61.4948 12.6452 61.9766 12.4824C62.4583 12.3197 62.9954 12.2383 63.5879 12.2383C64.4342 12.2383 65.1569 12.388 65.7559 12.6875C66.3548 12.987 66.8138 13.3874 67.1328 13.8887C67.4518 14.3835 67.6113 14.9336 67.6113 15.5391H65.8047C65.8047 15.2461 65.7168 14.9629 65.541 14.6895C65.3717 14.4095 65.1211 14.1784 64.7891 13.9961C64.4635 13.8138 64.0632 13.7227 63.5879 13.7227C63.0866 13.7227 62.6797 13.8008 62.3672 13.957C62.0612 14.1068 61.8366 14.2988 61.6934 14.5332C61.5566 14.7676 61.4883 15.015 61.4883 15.2754C61.4883 15.4707 61.5208 15.6465 61.5859 15.8027C61.6576 15.9525 61.7812 16.0924 61.957 16.2227C62.1328 16.3464 62.3802 16.4635 62.6992 16.5742C63.0182 16.6849 63.4251 16.7956 63.9199 16.9062C64.7858 17.1016 65.4987 17.3359 66.0586 17.6094C66.6185 17.8828 67.0352 18.2181 67.3086 18.6152C67.582 19.0124 67.7188 19.4941 67.7188 20.0605C67.7188 20.5228 67.6211 20.946 67.4258 21.3301C67.237 21.7142 66.9603 22.0462 66.5957 22.3262C66.2376 22.5996 65.8079 22.8145 65.3066 22.9707C64.8118 23.1204 64.2552 23.1953 63.6367 23.1953C62.7057 23.1953 61.918 23.0293 61.2734 22.6973C60.6289 22.3652 60.1406 21.9355 59.8086 21.4082C59.4766 20.8809 59.3105 20.3242 59.3105 19.7383H61.127C61.153 20.2331 61.2962 20.627 61.5566 20.9199C61.8171 21.2064 62.1361 21.4115 62.5137 21.5352C62.8913 21.6523 63.2656 21.7109 63.6367 21.7109C64.1315 21.7109 64.5449 21.6458 64.877 21.5156C65.2155 21.3854 65.4727 21.2064 65.6484 20.9785C65.8242 20.7507 65.9121 20.4902 65.9121 20.1973ZM71.8984 14.4648V27.0625H70.082V12.4336H71.7422L71.8984 14.4648ZM79.0176 17.6289V17.834C79.0176 18.6022 78.9264 19.3151 78.7441 19.9727C78.5618 20.6237 78.2949 21.1901 77.9434 21.6719C77.5983 22.1536 77.1719 22.528 76.6641 22.7949C76.1562 23.0618 75.5736 23.1953 74.916 23.1953C74.2454 23.1953 73.653 23.0846 73.1387 22.8633C72.6243 22.6419 72.1882 22.3197 71.8301 21.8965C71.472 21.4733 71.1855 20.9655 70.9707 20.373C70.7624 19.7806 70.6191 19.1133 70.541 18.3711V17.2773C70.6191 16.4961 70.7656 15.7962 70.9805 15.1777C71.1953 14.5592 71.4785 14.0319 71.8301 13.5957C72.1882 13.153 72.6211 12.8177 73.1289 12.5898C73.6367 12.3555 74.2227 12.2383 74.8867 12.2383C75.5508 12.2383 76.14 12.3685 76.6543 12.6289C77.1686 12.8828 77.6016 13.2474 77.9531 13.7227C78.3047 14.1979 78.5684 14.7676 78.7441 15.4316C78.9264 16.0892 79.0176 16.8216 79.0176 17.6289ZM77.2012 17.834V17.6289C77.2012 17.1016 77.1458 16.6068 77.0352 16.1445C76.9245 15.6758 76.752 15.2656 76.5176 14.9141C76.2897 14.556 75.9967 14.276 75.6387 14.0742C75.2806 13.8659 74.8542 13.7617 74.3594 13.7617C73.9036 13.7617 73.5065 13.8398 73.168 13.9961C72.8359 14.1523 72.5527 14.3639 72.3184 14.6309C72.084 14.8913 71.8919 15.1908 71.7422 15.5293C71.599 15.8613 71.4915 16.2064 71.4199 16.5645V19.0938C71.5501 19.5495 71.7324 19.9792 71.9668 20.3828C72.2012 20.7799 72.5137 21.1022 72.9043 21.3496C73.2949 21.5905 73.7865 21.7109 74.3789 21.7109C74.8672 21.7109 75.2871 21.61 75.6387 21.4082C75.9967 21.1999 76.2897 20.9167 76.5176 20.5586C76.752 20.2005 76.9245 19.7904 77.0352 19.3281C77.1458 18.8594 77.2012 18.3613 77.2012 17.834ZM83.2852 12.4336V23H81.4688V12.4336H83.2852ZM81.332 9.63086C81.332 9.33789 81.4199 9.09049 81.5957 8.88867C81.778 8.68685 82.0449 8.58594 82.3965 8.58594C82.7415 8.58594 83.0052 8.68685 83.1875 8.88867C83.3763 9.09049 83.4707 9.33789 83.4707 9.63086C83.4707 9.91081 83.3763 10.1517 83.1875 10.3535C83.0052 10.5488 82.7415 10.6465 82.3965 10.6465C82.0449 10.6465 81.778 10.5488 81.5957 10.3535C81.4199 10.1517 81.332 9.91081 81.332 9.63086ZM88.1484 8V23H86.332V8H88.1484ZM90.5703 17.834V17.6094C90.5703 16.8477 90.681 16.1413 90.9023 15.4902C91.1237 14.8327 91.4427 14.263 91.8594 13.7812C92.276 13.293 92.7806 12.9154 93.373 12.6484C93.9655 12.375 94.6296 12.2383 95.3652 12.2383C96.1074 12.2383 96.7747 12.375 97.3672 12.6484C97.9661 12.9154 98.474 13.293 98.8906 13.7812C99.3138 14.263 99.6361 14.8327 99.8574 15.4902C100.079 16.1413 100.189 16.8477 100.189 17.6094V17.834C100.189 18.5957 100.079 19.3021 99.8574 19.9531C99.6361 20.6042 99.3138 21.1738 98.8906 21.6621C98.474 22.1439 97.9694 22.5215 97.377 22.7949C96.791 23.0618 96.127 23.1953 95.3848 23.1953C94.6426 23.1953 93.9753 23.0618 93.3828 22.7949C92.7904 22.5215 92.2826 22.1439 91.8594 21.6621C91.4427 21.1738 91.1237 20.6042 90.9023 19.9531C90.681 19.3021 90.5703 18.5957 90.5703 17.834ZM92.377 17.6094V17.834C92.377 18.3613 92.4388 18.8594 92.5625 19.3281C92.6862 19.7904 92.8717 20.2005 93.1191 20.5586C93.373 20.9167 93.6888 21.1999 94.0664 21.4082C94.444 21.61 94.8835 21.7109 95.3848 21.7109C95.8796 21.7109 96.3125 21.61 96.6836 21.4082C97.0612 21.1999 97.3737 20.9167 97.6211 20.5586C97.8685 20.2005 98.054 19.7904 98.1777 19.3281C98.3079 18.8594 98.373 18.3613 98.373 17.834V17.6094C98.373 17.0885 98.3079 16.597 98.1777 16.1348C98.054 15.666 97.8652 15.2526 97.6113 14.8945C97.3639 14.5299 97.0514 14.2435 96.6738 14.0352C96.3027 13.8268 95.8665 13.7227 95.3652 13.7227C94.8704 13.7227 94.4342 13.8268 94.0566 14.0352C93.6855 14.2435 93.373 14.5299 93.1191 14.8945C92.8717 15.2526 92.6862 15.666 92.5625 16.1348C92.4388 16.597 92.377 17.0885 92.377 17.6094ZM106.879 12.4336V13.8203H101.166V12.4336H106.879ZM103.1 9.86523H104.906V20.3828C104.906 20.7409 104.962 21.0111 105.072 21.1934C105.183 21.3757 105.326 21.4961 105.502 21.5547C105.678 21.6133 105.867 21.6426 106.068 21.6426C106.218 21.6426 106.374 21.6296 106.537 21.6035C106.706 21.571 106.833 21.5449 106.918 21.5254L106.928 23C106.785 23.0456 106.596 23.0879 106.361 23.127C106.133 23.1725 105.857 23.1953 105.531 23.1953C105.089 23.1953 104.682 23.1074 104.311 22.9316C103.939 22.7559 103.643 22.4629 103.422 22.0527C103.207 21.6361 103.1 21.0762 103.1 20.373V9.86523Z" fill="black"/>
</svg>
