<svg width="220" height="220" viewBox="0 0 220 220" fill="none" xmlns="http://www.w3.org/2000/svg">
<circle cx="110" cy="110" r="110" fill="#FFD200"/>
<path d="M150.814 166V158.072H145.573C145.323 158.072 142.953 156.887 142.578 156.625C139.707 154.609 139.456 151.032 138.591 147.911C134.615 146.954 130.776 144.448 129.067 140.62C128.874 140.199 127.962 137.51 127.962 137.294V127.611H133.043V116.824C128.532 115.514 126.732 110.399 128.805 106.184C124.283 102.778 124.237 96.6266 128.805 93.1864C126.652 88.721 128.589 83.8683 133.225 82.2507C133.316 80.6787 132.838 79.3573 133.123 77.7055C133.601 74.8805 136.711 72.0782 139.547 71.7592C146.678 70.9618 155.347 72.2946 162.638 71.839C167.126 73.0578 169.621 77.3524 168.265 81.9203H172.867C173.482 81.9203 175.943 83.4923 176.478 84.0163C179.053 86.5224 179.338 89.9854 177.891 93.1864C180.966 95.5216 182.356 99.5884 180.499 103.199C180.032 104.099 177.925 105.842 177.891 106.184C177.845 106.617 178.688 108.326 178.757 109.351C178.95 112.734 176.911 115.946 173.665 116.812V127.6H178.745V137.282C178.745 137.567 177.754 140.369 177.538 140.825C175.795 144.493 171.99 146.988 168.117 147.899C167.308 150.963 166.932 154.62 164.13 156.614C163.754 156.876 161.385 158.06 161.134 158.06H155.894V165.989H150.814V166ZM162.786 77.5688C162.433 77.2157 161.351 76.8967 160.815 76.8398C156.498 76.3613 145.141 76.3613 140.812 76.8398C137.269 77.2385 137.372 81.4647 140.527 81.9089C146.633 82.7633 154.516 81.3052 160.815 81.9431C163.036 82.0229 164.369 79.175 162.786 77.5802V77.5688ZM172.936 87.7185C172.469 87.2515 171.329 87.0351 170.657 86.9781C159.573 85.9757 146.975 87.7755 135.731 86.9781C132.246 87.3085 132.109 91.6713 135.731 92.07C146.656 93.2889 159.801 91.136 170.965 92.07C173.186 92.1384 174.519 89.3019 172.936 87.7071V87.7185ZM175.476 97.8683C175.009 97.4012 173.87 97.1848 173.198 97.1278C160.508 95.9773 146.075 98.0277 133.202 97.1278C129.671 97.4354 129.671 101.912 133.202 102.22H173.517C175.738 102.288 177.071 99.4517 175.487 97.8569L175.476 97.8683ZM172.936 108.029C172.469 107.562 171.329 107.346 170.657 107.289C159.573 106.286 146.975 108.086 135.731 107.289C132.246 107.619 132.109 111.982 135.731 112.381C146.656 113.6 159.801 111.447 170.965 112.381C173.186 112.449 174.519 109.613 172.936 108.018V108.029ZM143.204 117.461H138.124V127.611H143.204V117.461ZM158.434 117.461H148.285V127.611H158.434V117.461ZM168.584 117.461H163.504V127.611H168.584V117.461ZM173.665 132.68H133.054C132.211 139.048 136.449 143.593 142.874 142.853C143.534 145.37 143.876 148.89 144.799 151.237C145.243 152.353 145.984 152.854 147.157 153.003C149.914 153.321 156.418 153.265 159.232 153.003C160.234 152.911 161.214 152.672 161.738 151.693C162.455 150.348 163.504 143.16 163.834 142.841C170.247 143.582 174.496 139.048 173.653 132.669L173.665 132.68Z" fill="#5A1F06"/>
<path d="M67.053 166V155.224C60.6966 154.518 54.9326 148.332 54.363 142.033C53.7934 135.733 56.0945 129.377 51.3101 124.148C47.3117 119.774 44.3386 118.099 41.7072 112.176C31.1246 88.2539 53.2922 63.2499 78.319 70.4948C99.1197 76.5208 107.025 102.516 93.0595 119.193C90.542 122.2 86.7373 124.239 85.4387 128.078C84.0261 132.259 85.245 137.647 84.8121 142.044C84.197 148.378 78.4899 154.518 72.1335 155.224V166H67.0416H67.053ZM79.743 130.151C79.9594 128.989 80.0961 127.702 80.4606 126.586C82.4199 120.64 87.9675 118.225 91.1002 113.11C104.781 90.7828 79.9594 64.7535 57.0058 77.7397C43.5754 85.3377 39.9985 103.712 49.9317 115.696C52.1075 118.327 55.1946 120.252 57.04 123.191C58.35 125.287 59.1474 127.691 59.4435 130.14H64.2051L62.9407 107.3H57.7007C57.0172 107.3 54.4997 105.626 53.9301 105.045C47.7674 98.6998 55.5819 88.6754 63.4761 92.9586C67.1441 94.9407 67.4403 98.4492 67.7137 102.208L71.3247 102.243C72.1221 99.1555 71.4956 96.8316 73.922 94.3255C80.1303 87.935 90.9976 95.4533 86.3614 103.598C85.564 104.999 82.8072 107.3 81.1783 107.3H76.2572L74.9928 130.14H79.7544L79.743 130.151ZM61.5737 97.8683C60.0928 96.3874 57.0172 97.3215 56.9033 99.5542C56.7552 102.413 60.2637 102.402 62.2914 102.231C62.28 100.989 62.5192 98.8251 61.5623 97.8797L61.5737 97.8683ZM81.5542 97.8683C81.2466 97.5607 80.0391 97.1278 79.5835 97.1278C76.7926 97.1278 76.7015 100.101 76.8837 102.231C78.2051 102.186 80.5518 102.516 81.5542 101.502C82.4313 100.625 82.4199 98.7454 81.5542 97.8683ZM71.1767 107.3H67.9985L69.2743 129.514L69.9122 129.046L71.188 107.3H71.1767ZM79.743 135.221H59.4321V141.406C59.4321 146.19 65.1734 150.542 69.7413 150.474C74.3093 150.405 79.743 146.065 79.743 141.406V135.221Z" fill="#5A1F06"/>
<path d="M43.4138 62.2581L39.7729 65.8989L47.5379 73.6639L51.1787 70.023L43.4138 62.2581Z" fill="#5A1F06"/>
<path d="M95.7679 62.248L88.0029 70.0129L91.6438 73.6538L99.4087 65.8888L95.7679 62.248Z" fill="#5A1F06"/>
<path d="M124.631 62.2618L120.99 65.9026L128.755 73.6675L132.396 70.0267L124.631 62.2618Z" fill="#5A1F06"/>
<path d="M176.74 62.6005C177.481 62.4069 180.488 65.4028 180.295 66.1546L172.867 73.6729L169.222 70.0277L176.74 62.6005Z" fill="#5A1F06"/>
<path d="M72.1333 54H67.0527V64.1497H72.1333V54Z" fill="#5A1F06"/>
<path d="M153.354 54H148.273V64.1497H153.354V54Z" fill="#5A1F06"/>
</svg>
