<svg width="160" height="160" viewBox="0 0 160 160" fill="none" xmlns="http://www.w3.org/2000/svg">
<circle cx="80" cy="80" r="80" fill="#0E74E1"/>
<path d="M62.5 2C27.9844 2 0 29.9678 0 64.463C0 93.7321 20.1667 118.223 47.3542 125C47.0625 124.157 46.875 123.178 46.875 121.965V111.289C44.3385 111.289 40.0885 111.289 39.0208 111.289C34.7448 111.289 30.9427 109.452 29.099 106.037C27.0521 102.243 26.6979 96.4388 21.625 92.8888C20.1198 91.7072 21.2656 90.3591 23 90.5413C26.2031 91.447 28.8594 93.6436 31.3594 96.9021C33.849 100.166 35.0208 100.905 39.6719 100.905C41.9271 100.905 45.3021 100.775 48.4792 100.275C50.1875 95.9391 53.1406 91.9467 56.75 90.0624C35.9375 87.923 26.0052 77.575 26.0052 63.526C26.0052 57.4775 28.5833 51.6268 32.9635 46.6975C31.526 41.8045 29.7188 31.8261 33.5156 28.0262C42.8802 28.0262 48.5417 34.0956 49.901 35.7352C54.5677 34.1372 59.6927 33.2315 65.0781 33.2315C70.474 33.2315 75.6198 34.1372 80.2969 35.7456C81.6406 34.1164 87.3073 28.0262 96.6927 28.0262C100.505 31.8313 98.6771 41.8514 97.224 46.7339C101.578 51.6529 104.141 57.4879 104.141 63.526C104.141 77.5646 94.224 87.9074 73.4427 90.0572C79.1615 93.0398 83.3333 101.42 83.3333 107.734V121.965C83.3333 122.507 83.2135 122.897 83.151 123.36C107.505 114.829 125 91.7177 125 64.463C125 29.9678 97.0156 2 62.5 2Z" fill="white"/>
</svg>
