<svg width="160" height="160" viewBox="0 0 160 160" fill="none" xmlns="http://www.w3.org/2000/svg">
<circle cx="80" cy="80" r="80" fill="#D7A1FF"/>
<path d="M64.7951 9C59.7649 9 55.4589 12.9158 55.0397 17.9177L50.162 71.5762C49.9334 74.282 50.9146 77.045 52.7533 79.0457C54.6015 81.0465 57.2023 82.1707 59.9174 82.1707H133.083C135.798 82.1707 138.408 81.0465 140.247 79.0457C142.095 77.045 143.067 74.3106 142.838 71.5762L137.96 17.9177C137.541 12.8967 133.235 9 128.205 9H64.7951ZM49.7809 22.186C46.7133 23.6532 44.5508 26.6448 44.2173 30.2652L38.044 97.5671C37.7773 100.492 38.7299 103.398 40.7115 105.57C42.6931 107.742 45.4749 109 48.4091 109H144.591C147.525 109 150.307 107.742 152.288 105.57C154.27 103.398 155.223 100.492 154.956 97.5671L148.783 30.2652C148.449 26.6448 146.287 23.6532 143.219 22.186L147.716 70.0518V87.0488C147.716 95.1185 141.152 101.683 133.083 101.683H59.9174C51.8482 101.683 45.2843 95.1185 45.2843 87.0488V74.9299L45.3605 70.0518L49.7809 22.186ZM96.2714 23.6341C101.111 23.6341 110.295 24.8346 110.295 29.122C110.295 31.7896 107.77 32.5518 105.798 32.5518C102.292 32.5518 99.7486 30.4177 96.3476 30.4177C92.9465 30.4177 91.3175 31.9516 91.3175 34.0762C91.3175 39.5545 114.258 36.3533 114.258 50.5396C114.258 62.2965 101.016 64.1067 97.7956 64.1067C92.4035 64.1067 77.6752 63.2588 77.6752 57.1707C77.6752 53.3026 81.3335 52.5976 83.5437 52.5976C86.335 52.5976 90.3076 55.4177 95.3568 55.4177C98.9388 55.4177 102.673 53.6075 102.673 50.9207C102.673 43.7656 80.1902 46.5572 80.1902 35.372C80.1902 26.2066 89.8218 23.6341 96.2714 23.6341ZM50.162 83.314V87.0488C50.162 92.4318 54.5348 96.8049 59.9174 96.8049H133.083C138.465 96.8049 142.838 92.4318 142.838 87.0488V83.314C140.171 85.7054 136.693 87.0488 133.083 87.0488H59.9174C56.3163 87.0488 52.8295 85.6959 50.162 83.314Z" fill="white"/>
</svg>
