<svg width="259" height="178" viewBox="0 0 259 178" fill="none" xmlns="http://www.w3.org/2000/svg">
<path d="M79.2122 94.1322C79.622 91.0061 81.2976 88.6356 83.1705 86.3874C84.5999 84.6715 86.1034 83.0092 87.8871 81.6466C88.8056 80.945 89.0867 80.1392 88.8366 79.011C88.5289 77.6229 88.8957 76.149 88.3531 74.6304C87.7279 75.3263 87.4675 76.1266 87.0876 76.8476C83.5508 83.5593 78.2485 88.2489 71.0531 90.7036C67.5347 91.9039 63.9281 92.0486 60.373 90.8624C55.0836 89.0975 51.6213 84.3563 51.2744 78.5088C50.3519 62.9592 56.9351 51.1674 69.5001 42.4487C75.5045 38.2823 82.1663 35.6112 89.3908 34.4726C93.9164 33.7594 98.4605 33.5956 102.857 35.2722C108.457 37.4079 110.798 42.1858 108.94 47.844C108.544 49.0514 108.75 49.5448 109.923 49.9833C113.672 51.3842 117.369 52.9243 121.457 53.0587C124.456 53.1574 126.385 51.5565 127.667 49.083C128.93 46.6457 128.592 44.2811 126.914 42.1136C126.202 41.1952 126.285 40.7154 127.432 40.3828C130.889 39.38 134.217 39.7515 137.217 41.7838C139.005 42.9953 139.528 44.8624 139.042 46.9293C138.008 51.3223 134.969 53.9413 130.953 55.4417C124.45 57.8711 118.056 57.2852 111.837 54.303C110.621 53.7201 109.376 53.1991 108.166 52.6047C107.453 52.2546 107.014 52.3216 106.481 53.0152C103.019 57.5204 98.2083 59.6124 92.7583 60.5135C91.4153 60.7356 90.0743 60.7498 88.7384 60.4897C86.2596 60.0071 84.4467 58.6732 83.8025 56.1715C83.195 53.8124 84.085 51.8516 85.917 50.3407C88.444 48.2566 91.4937 47.6513 94.6507 47.4804C97.4801 47.3273 100.298 47.5434 103.07 48.1349C104.136 48.3623 104.615 47.9896 104.892 46.9896C105.963 43.1324 104.227 40.1072 100.212 39.0102C96.2631 37.9313 92.4189 38.6237 88.6875 39.9661C79.758 43.1783 73.2142 49.2172 68.6475 57.419C64.7254 64.463 62.2554 71.9764 62.1329 80.1204C62.1013 82.2215 62.3238 84.3327 63.3017 86.2636C64.3108 88.256 65.8043 88.9718 67.9797 88.5284C73.495 87.4044 77.6361 84.0963 81.2697 80.0481C84.3178 76.6522 86.6615 72.838 87.7471 68.3389C87.9664 67.43 88.6709 67.1908 89.5055 67.2822C90.3266 67.372 90.5989 67.9083 90.6307 68.6911C90.7588 71.8447 90.9184 74.9969 91.0718 78.1494C91.0818 78.3548 91.1373 78.5581 91.1663 78.7306C91.6031 78.9805 91.8459 78.6711 92.1132 78.5036C92.827 78.0561 93.502 77.5396 94.2419 77.1426C96.0882 76.152 97.5281 74.8783 98.6353 72.9909C100.657 69.5452 105.646 68.0261 109.45 69.3666C111.097 69.9468 111.131 70.567 109.523 72.3777C111.038 72.3495 112.343 73.3375 113.871 72.7693C114.505 72.5339 115.014 72.2777 115.265 71.6232C116.731 67.7911 123.118 64.8781 127.906 66.2547C128.228 66.3472 128.545 66.4736 128.843 66.6274C129.259 66.8427 129.696 67.1013 129.629 67.6565C129.566 68.1897 129.119 68.4229 128.661 68.5361C128.095 68.6762 127.489 68.6893 127 69.2811C128.739 70.1447 130.43 70.2661 132.172 69.4749C132.528 69.313 132.836 69.1053 132.991 68.7304C134.364 65.4111 137.206 64.2471 140.436 63.6093C141.691 63.3614 142.956 63.2602 144.205 63.4166C145.157 63.536 145.455 63.1786 145.623 62.3349C146.391 58.4864 147.392 54.7055 149.198 51.1897C150.943 47.7925 153.166 44.7331 155.87 42.0361C157.205 40.7037 158.855 39.9965 160.747 39.9508C161.372 39.9357 162.049 40.0133 162.432 40.6233C162.843 41.2761 162.289 41.723 162 42.2091C157.715 49.4279 154.345 57.0164 152.742 65.305C152.367 67.2467 152.174 69.2073 152.526 71.2003C153.217 75.1058 156.825 77.0621 160.533 75.4875C164.311 73.8831 166.952 68.7809 166.021 64.8025C165.79 63.8181 165.421 62.9258 164.354 62.4205C163.282 61.9132 163.335 61.1447 164.435 60.6118C166.284 59.7159 168.253 59.543 170.224 60.0597C171.904 60.4999 172.92 62.0995 173.085 64.1235C173.235 65.9612 172.694 67.6134 171.878 69.2135C168.446 75.9397 159.785 79.533 152.58 77.2359C149.37 76.2123 147.147 74.1182 145.784 71.0101C145.206 71.2265 145.047 71.7374 144.777 72.128C143.49 73.9825 141.892 75.4068 139.646 75.9928C136.828 76.7279 134.279 75.4658 133.19 72.7495C132.943 72.1318 132.77 71.4842 132.536 70.7704C131.349 70.9678 130.196 71.1962 129.018 71.1606C128.392 71.1417 128.329 71.6734 128.181 72.1049C127.511 74.0634 126.668 75.9215 125.499 77.6573C123.217 81.0468 118.798 80.7841 116.396 79.1309C115.046 78.2024 114.389 76.8676 114.497 75.2267C114.567 74.1743 114.284 73.7296 113.147 74.0378C112.643 74.1743 112.072 74.0608 111.45 74.0608C111.104 75.5905 110.934 77.1377 110.312 78.579C108.638 82.4567 105.518 84.1506 101.612 83.2439C99.3444 82.7176 97.9049 81.3523 97.3479 79.078C97.2309 78.6002 97.2438 78.0772 96.8176 77.5739C94.8915 78.6918 93.1025 80.0007 91.3869 81.4108C90.9848 81.7412 91.1363 82.2776 91.1218 82.7301C91.0246 85.7762 90.6249 88.7744 89.5729 91.6477C88.8101 93.7312 87.7402 95.6313 85.8621 96.946C85.5182 97.1868 85.1605 97.4154 84.7861 97.6037C82.3126 98.8479 79.0531 98.1352 79.2122 94.1322ZM86.8588 56.3598C87.8175 58.3721 89.4549 59.187 92.0039 58.7942C95.3429 58.2797 98.2896 56.8798 100.719 54.5255C101.79 53.4872 102.844 52.3771 103.297 50.8286C102.254 50.1898 101.131 49.9934 100.031 49.7578C96.8256 49.0704 93.6066 48.769 90.4372 49.9021C87.6815 50.8874 86.1871 53.5402 86.8588 56.3598ZM81.4762 94.6812C81.4991 95.4783 81.3944 96.3738 82.2741 96.7872C83.1986 97.2217 83.8934 96.5338 84.5327 96.0381C85.7542 95.0912 86.5427 93.7797 87.2198 92.4163C88.5676 89.7023 89.2398 86.8517 88.9579 83.7988C88.3513 83.7458 88.0969 84.1268 87.8053 84.4009C86.4528 85.6724 85.2135 87.0504 84.1349 88.5604C82.8595 90.3461 81.626 92.1623 81.4762 94.6812ZM107.575 78.575C108.413 76.9097 108.894 75.1593 108.817 73.2644C107.181 75.5368 106.131 78.0415 105.44 81.0434C106.639 80.3842 107.009 79.5183 107.575 78.575ZM124.302 75.0709C125.266 73.5407 125.89 71.8872 126.219 69.8573C124.375 71.9713 123.341 74.1961 122.728 76.8375C123.448 76.3233 123.837 75.7832 124.302 75.0709ZM143.472 67.9597C142.569 69.355 141.821 70.8214 141.235 72.7277C142.854 70.7984 144.368 69.1962 145.245 66.9375C144.258 66.9512 143.986 67.4816 143.472 67.9597Z" fill="#DBDEE2"/>
<path d="M169.948 136.864C171.645 130.48 175.311 125.372 179.492 120.567C179.769 120.25 180.069 119.953 180.363 119.651C182.685 117.264 182.693 117.259 180.725 114.471C180.222 113.759 179.769 112.991 178.942 112.36C178.07 113.449 177.268 114.51 176.406 115.521C171.394 121.395 164.277 122.29 158.215 119.459C155.411 118.15 154.325 115.736 154.905 112.675C155.876 107.554 159.249 104.266 164.327 103.464C165.747 103.24 167.105 103.468 168.414 103.986C170.716 104.896 171.649 106.792 170.917 109.183C170.059 111.982 167.946 113.509 165.281 114.317C164.227 114.637 163.527 114.963 163.72 116.256C163.922 117.611 164.542 118.38 165.819 118.551C167.245 118.741 168.601 118.471 169.858 117.804C172.666 116.315 174.916 114.2 176.739 111.604C177.269 110.85 177.331 110.201 176.768 109.429C175.944 108.299 175.362 107.03 174.974 105.685C173.696 101.251 175.499 96.1175 179.589 92.9445C184.196 89.3717 189.51 88.0285 195.262 88.4882C198.43 88.7414 200.348 90.444 200.735 93.1702C201.047 95.3708 200.264 97.2984 198.551 98.6634C197.032 99.8727 195.24 100.666 193.308 101.068C192.807 101.173 192.308 101.206 191.802 101.121C190.24 100.856 189.909 100.298 190.596 98.8855C191.408 97.2185 192.235 95.5598 192.863 93.8141C193.056 93.2777 193.319 92.7387 193.267 92.1188C188.291 94.3633 186.311 99.2724 188.172 104.69C188.874 106.737 189.966 108.584 191.071 110.431C191.504 111.155 191.951 110.983 192.542 110.713C195.768 109.241 199.118 108.429 202.709 108.631C206.972 108.87 210.703 111.749 211.378 115.47C211.709 117.299 210.962 119.078 209.344 120.013C207.579 121.033 205.676 121.227 203.737 120.567C202.378 120.105 202.115 119.199 202.975 118.034C203.692 117.064 204.144 116.004 204.358 114.819C204.799 112.366 203.599 110.597 201.148 110.358C198.132 110.064 195.443 111.216 192.823 112.518C192.072 112.892 192.558 113.469 192.752 113.936C193.737 116.308 194.819 118.655 195.186 121.222C196.419 129.851 194.178 137.282 187.267 142.896C183.813 145.702 179.752 146.799 175.293 146.013C171.028 145.261 169 142.35 169.727 138.088C169.791 137.715 169.859 137.342 169.948 136.864ZM184.553 138.096C187.215 131.679 185.848 125.557 183.379 119.433C182.507 119.74 182.12 120.316 181.677 120.801C180.198 122.415 178.794 124.095 177.571 125.913C175.188 129.457 173.121 133.139 172.411 137.446C171.688 141.829 174.106 144.826 178.039 144.309C179.288 144.145 180.351 143.561 181.305 142.768C182.765 141.555 183.722 139.983 184.553 138.096ZM166.11 106.609C164.71 107.862 163.68 111.352 164.28 112.876C165.109 112.723 165.686 112.174 166.207 111.581C167.502 110.106 167.522 107.806 166.11 106.609Z" fill="#DBDEE2"/>
<path d="M110.412 132.378C113.999 123.6 115.298 114.554 114.714 105.216C114.654 104.255 114.352 103.309 114.293 102.349C114.219 101.164 113.576 100.811 112.502 100.698C109.967 100.431 107.71 99.3962 105.71 97.8564C103.025 95.7902 103.455 91.6263 106.537 90.2254C109.868 88.7111 114.136 89.3185 116.111 93.6064C116.672 94.824 117.118 96.0944 117.643 97.407C118.802 97.304 119.693 96.6484 120.571 96.046C123.09 94.3182 124.749 92.0427 124.897 88.8693C124.97 87.3125 124.489 86.0004 123.368 84.8772C122.072 83.5787 122.291 82.6436 123.962 81.9337C126.34 80.9235 128.731 81.5977 130.874 83.8825C132.556 85.6761 132.902 87.9622 131.761 90.1854C130.285 93.0624 127.807 94.9605 125.193 96.6932C123.436 97.8581 121.597 98.9027 119.602 99.6032C118.753 99.9011 118.556 100.311 118.673 101.181C120.275 113.1 117.754 124.365 113.1 135.255C111.612 138.737 109.502 141.849 106.472 144.208C99.5879 149.566 89.4237 147.677 84.4337 140.175C82.2245 136.854 81.0932 133.145 80.9266 129.239C80.4736 118.614 83.1265 108.891 89.9076 100.5C91.2088 98.8902 92.6786 97.4324 94.4754 96.3632C95.1227 95.978 95.812 95.6381 96.5213 95.3889C97.4562 95.0605 98.5137 94.8799 99.2705 95.6389C100.01 96.3804 99.5126 97.34 99.1825 98.1266C96.7987 103.808 94.8569 109.637 93.588 115.661C92.2168 122.17 91.8047 128.752 92.9309 135.351C93.3809 137.989 94.2768 140.488 96.0883 142.55C97.6665 144.347 98.9259 144.651 101.122 143.712C104.385 142.318 106.467 139.685 108.198 136.742C109.007 135.366 109.653 133.894 110.412 132.378ZM110.181 97.3218C111.141 97.8537 112.057 98.5175 113.368 98.4581C112.755 96.2527 111.962 94.2793 110.559 92.6141C109.601 91.4775 108.804 91.6624 108.269 93.0683C107.694 94.5793 108.231 95.8482 110.181 97.3218Z" fill="#DBDEE2"/>
<path d="M150.13 112.765C147.354 114.018 145.969 116.328 144.942 118.937C144.881 119.094 144.82 119.251 144.753 119.406C144.273 120.522 144.304 122.014 142.732 122.353C141.023 122.721 139.38 122.601 137.93 121.475C137.703 121.298 137.447 121.156 137.118 120.942C135.789 122.479 134.281 123.73 132.225 124.073C130.152 124.419 128.109 124.318 126.144 123.514C124.012 122.641 122.789 120.629 122.869 118.027C122.935 115.864 123.65 113.909 125.015 112.21C125.472 111.641 126.035 111.212 126.707 110.924C129.355 109.788 131.207 111.076 130.944 113.944C130.763 115.91 130.443 117.862 130.174 119.819C130.07 120.582 129.93 121.372 130.638 121.918C131.4 122.506 132.16 122.151 132.877 121.754C133.208 121.572 133.523 121.355 133.824 121.127C136.031 119.452 136.029 119.449 135.342 116.805C134.342 112.962 135.004 109.19 135.951 105.469C137.712 98.5477 141.261 92.7701 147.171 88.5892C148.907 87.3612 150.805 86.4682 152.9 86.031C153.777 85.8479 154.655 85.8104 155.525 86.0683C156.713 86.4207 156.909 86.9162 156.138 87.8613C155.207 89.0023 154.185 90.0684 153.231 91.1906C150.718 94.146 148.868 97.4887 147.64 101.156C146.357 104.989 145.323 108.892 144.803 112.914C144.771 113.156 144.799 113.406 144.799 113.821C146.081 112.943 147.182 112.041 148.522 111.527C150.499 110.768 152.422 110.992 153.321 112.147C154.179 113.249 153.922 115.092 152.608 116.809C151.347 118.457 149.588 119.181 147.569 119.306C147.171 119.33 146.739 119.172 146.359 119.011C145.979 118.85 145.769 118.499 145.939 118.077C146.092 117.697 146.452 117.705 146.803 117.749C149.194 118.046 151.264 115.941 150.937 113.544C150.879 113.117 150.823 112.675 150.13 112.765Z" fill="#DBDEE2"/>
<path d="M125.641 105.133C125.091 102.549 125.935 100.961 128.326 100.124C129.993 99.5412 131.708 99.4272 133.382 100.114C134.828 100.708 135.18 101.912 134.231 103.156C133.392 104.256 132.489 105.32 131.516 106.302C129.875 107.96 126.679 107.346 125.641 105.133Z" fill="#DBDEE2"/>
</svg>
