<svg width="265" height="245" viewBox="0 0 265 245" fill="none" xmlns="http://www.w3.org/2000/svg">
<circle cx="132" cy="123" r="103" fill="#FFD8FC"/>
<path d="M62.936 129.288C62.5307 129.139 62.2427 128.915 62.072 128.616C61.9013 128.317 61.816 127.923 61.816 127.432C61.816 127.155 61.848 126.824 61.912 126.44C61.976 126.035 62.072 125.651 62.2 125.288L62.328 125.16C62.136 125.821 61.8907 126.397 61.592 126.888C61.2933 127.357 60.9413 127.752 60.536 128.072C60.088 128.456 59.544 128.744 58.904 128.936C58.264 129.128 57.528 129.224 56.696 129.224C55.224 129.224 54.072 128.915 53.24 128.296C52.408 127.677 51.992 126.771 51.992 125.576C51.992 124.765 52.1733 124.072 52.536 123.496C52.92 122.899 53.432 122.397 54.072 121.992C54.7333 121.565 55.4587 121.224 56.248 120.968C57.0587 120.712 57.8907 120.509 58.744 120.36C59.6187 120.189 60.472 120.04 61.304 119.912C61.304 119.4 61.2827 118.952 61.24 118.568C61.2187 118.184 61.1547 117.853 61.048 117.576C60.9627 117.277 60.8133 117.021 60.6 116.808C60.3653 116.531 60.088 116.339 59.768 116.232C59.4693 116.125 59.1707 116.072 58.872 116.072C58.3387 116.072 57.9013 116.232 57.56 116.552C57.2187 116.872 56.9627 117.309 56.792 117.864C56.6213 118.397 56.504 118.984 56.44 119.624C55.8213 119.624 55.2667 119.603 54.776 119.56C54.2853 119.517 53.8373 119.411 53.432 119.24C53.4747 118.643 53.4853 118.013 53.464 117.352C53.4427 116.691 53.3573 115.997 53.208 115.272C54.1253 114.888 55.2027 114.589 56.44 114.376C57.6773 114.141 58.8613 114.024 59.992 114.024C61.4 114.024 62.5093 114.184 63.32 114.504C64.1307 114.803 64.7387 115.155 65.144 115.56C65.5707 115.987 65.912 116.595 66.168 117.384C66.4453 118.152 66.584 119.293 66.584 120.808V123.272C66.584 123.997 66.6267 124.552 66.712 124.936C66.7973 125.32 66.968 125.587 67.224 125.736C67.5013 125.864 67.896 125.939 68.408 125.96C68.472 126.365 68.4827 126.76 68.44 127.144C68.3973 127.528 68.2907 127.891 68.12 128.232C67.2453 128.253 66.36 128.349 65.464 128.52C64.568 128.691 63.7253 128.947 62.936 129.288ZM58.584 126.184C59.0107 126.184 59.4267 126.056 59.832 125.8C60.2587 125.523 60.6107 125.107 60.888 124.552C61.1653 123.997 61.304 123.315 61.304 122.504V121.768C60.6427 121.896 60.0453 122.045 59.512 122.216C59 122.387 58.5733 122.579 58.232 122.792C57.8907 123.005 57.6347 123.261 57.464 123.56C57.2933 123.859 57.208 124.211 57.208 124.616C57.208 125.171 57.336 125.576 57.592 125.832C57.8693 126.067 58.2 126.184 58.584 126.184ZM76.299 129.192C74.7417 129.192 73.5257 128.765 72.651 127.912C71.7977 127.037 71.371 125.491 71.371 123.272V119.912C71.371 118.952 71.2643 118.28 71.051 117.896C70.8377 117.512 70.2723 117.288 69.355 117.224C69.355 116.861 69.3763 116.499 69.419 116.136C69.483 115.752 69.5897 115.411 69.739 115.112C71.083 115.112 72.2777 115.005 73.323 114.792C74.3683 114.557 75.147 114.312 75.659 114.056C75.979 114.184 76.2243 114.397 76.395 114.696C76.5657 114.995 76.651 115.411 76.651 115.944V122.472C76.651 123.901 76.7897 124.893 77.067 125.448C77.3443 125.981 77.771 126.248 78.347 126.248C79.1363 126.248 79.819 125.843 80.395 125.032C80.971 124.221 81.259 122.973 81.259 121.288V119.752C81.259 118.792 81.1203 118.12 80.843 117.736C80.5657 117.352 79.9363 117.128 78.955 117.064C78.955 116.701 78.9763 116.339 79.019 115.976C79.0617 115.592 79.1577 115.251 79.307 114.952C80.6937 114.952 81.9523 114.867 83.083 114.696C84.2137 114.504 85.0243 114.291 85.515 114.056C85.835 114.184 86.0803 114.397 86.251 114.696C86.4217 114.995 86.507 115.411 86.507 115.944V124.712L81.931 125.864C81.7817 126.269 81.611 126.632 81.419 126.952C81.227 127.251 81.003 127.517 80.747 127.752C80.299 128.157 79.7017 128.499 78.955 128.776C78.2083 129.053 77.323 129.192 76.299 129.192ZM82.827 129.288C82.4217 129.139 82.1337 128.925 81.963 128.648C81.7923 128.349 81.707 127.955 81.707 127.464C81.707 127.08 81.7497 126.653 81.835 126.184C81.9417 125.715 82.0483 125.299 82.155 124.936L86.507 123.208C86.507 123.955 86.5497 124.531 86.635 124.936C86.7203 125.32 86.891 125.587 87.147 125.736C87.4243 125.864 87.8297 125.939 88.363 125.96C88.427 126.365 88.4377 126.76 88.395 127.144C88.3523 127.528 88.235 127.891 88.043 128.232C87.1897 128.253 86.3043 128.349 85.387 128.52C84.4697 128.691 83.6163 128.947 82.827 129.288ZM96.4873 129.288C94.9086 129.288 93.7139 128.883 92.9033 128.072C92.0926 127.24 91.6873 125.843 91.6873 123.88V117.288C91.3459 117.16 90.9833 117.064 90.5993 117C90.2366 116.936 89.8099 116.904 89.3193 116.904C89.3193 116.477 89.3406 116.093 89.3833 115.752C89.4473 115.389 89.5646 115.027 89.7353 114.664H91.6873V110.856C92.5193 110.749 93.3299 110.536 94.1193 110.216C94.9299 109.896 95.5806 109.544 96.0713 109.16C96.4126 109.288 96.6473 109.491 96.7753 109.768C96.9033 110.045 96.9673 110.536 96.9673 111.24V114.664H100.807C100.807 115.133 100.775 115.549 100.711 115.912C100.669 116.253 100.594 116.595 100.487 116.936C99.8046 116.936 99.1646 116.989 98.5673 117.096C97.9913 117.181 97.4579 117.309 96.9673 117.48V123.4C96.9673 124.317 97.0206 125.021 97.1273 125.512C97.2339 125.981 97.4046 126.312 97.6393 126.504C97.8739 126.675 98.1726 126.76 98.5353 126.76C98.8553 126.76 99.1753 126.728 99.4953 126.664C99.8366 126.579 100.157 126.461 100.455 126.312C100.754 126.739 100.914 127.336 100.935 128.104C100.487 128.445 99.8473 128.733 99.0153 128.968C98.2046 129.181 97.3619 129.288 96.4873 129.288ZM110.624 129.288C108.832 129.288 107.317 128.989 106.08 128.392C104.864 127.773 103.946 126.909 103.328 125.8C102.709 124.691 102.4 123.389 102.4 121.896C102.4 120.168 102.762 118.728 103.488 117.576C104.234 116.403 105.248 115.528 106.528 114.952C107.808 114.355 109.248 114.056 110.848 114.056C112.682 114.056 114.208 114.376 115.424 115.016C116.661 115.656 117.589 116.531 118.208 117.64C118.826 118.749 119.136 120.029 119.136 121.48C119.136 123.08 118.794 124.467 118.112 125.64C117.429 126.813 116.448 127.72 115.168 128.36C113.888 128.979 112.373 129.288 110.624 129.288ZM111.136 127.048C112.01 127.048 112.672 126.6 113.12 125.704C113.568 124.808 113.792 123.699 113.792 122.376C113.792 120.989 113.632 119.837 113.312 118.92C112.992 118.003 112.576 117.32 112.064 116.872C111.552 116.403 110.997 116.168 110.4 116.168C109.482 116.168 108.81 116.616 108.384 117.512C107.957 118.408 107.744 119.507 107.744 120.808C107.744 121.981 107.872 123.048 108.128 124.008C108.384 124.947 108.768 125.693 109.28 126.248C109.792 126.781 110.41 127.048 111.136 127.048ZM123.362 122.376V119.912C123.362 119.251 123.319 118.739 123.234 118.376C123.148 118.013 122.935 117.747 122.594 117.576C122.274 117.384 121.762 117.267 121.058 117.224C121.058 116.861 121.079 116.499 121.122 116.136C121.186 115.752 121.292 115.411 121.442 115.112C122.786 115.112 124.023 115.005 125.154 114.792C126.306 114.557 127.138 114.312 127.65 114.056C127.97 114.184 128.215 114.397 128.385 114.696C128.556 114.995 128.642 115.411 128.642 115.944L123.362 122.376ZM139.074 124.104C139.074 125.171 139.18 125.907 139.394 126.312C139.607 126.696 140.002 126.888 140.578 126.888C140.706 127.187 140.78 127.517 140.802 127.88C140.844 128.221 140.866 128.627 140.866 129.096C140.396 129.075 139.756 129.053 138.946 129.032C138.156 129.011 137.399 129 136.674 129C136.183 129 135.618 129 134.978 129C134.338 129.021 133.73 129.032 133.154 129.032C132.578 129.053 132.13 129.075 131.81 129.096C131.81 128.691 131.82 128.307 131.842 127.944C131.884 127.56 131.97 127.208 132.098 126.888C132.631 126.888 133.047 126.675 133.346 126.248C133.644 125.8 133.794 125 133.794 123.848V120.968C133.794 119.667 133.602 118.771 133.218 118.28C132.834 117.768 132.279 117.512 131.554 117.512C131.042 117.512 130.562 117.715 130.114 118.12C129.666 118.525 129.303 119.101 129.026 119.848C128.77 120.595 128.642 121.501 128.642 122.568V124.104C128.642 125.192 128.78 125.928 129.058 126.312C129.335 126.696 129.751 126.888 130.306 126.888C130.455 127.229 130.54 127.571 130.562 127.912C130.604 128.253 130.626 128.648 130.626 129.096C130.306 129.075 129.879 129.053 129.345 129.032C128.812 129.032 128.247 129.021 127.65 129C127.052 129 126.508 129 126.018 129C125.527 129 124.951 129 124.29 129C123.628 129.021 122.988 129.032 122.37 129.032C121.772 129.053 121.314 129.075 120.993 129.096C120.993 128.648 121.015 128.232 121.058 127.848C121.122 127.464 121.196 127.144 121.282 126.888C122.114 126.888 122.668 126.696 122.946 126.312C123.223 125.907 123.362 125.171 123.362 124.104V119.912L128.642 115.944C128.642 116.2 128.61 116.499 128.546 116.84C128.482 117.16 128.396 117.501 128.29 117.864C128.439 117.523 128.588 117.203 128.738 116.904C128.908 116.605 129.111 116.328 129.345 116.072C129.815 115.56 130.423 115.123 131.17 114.76C131.938 114.397 132.791 114.216 133.73 114.216C134.668 114.216 135.543 114.387 136.354 114.728C137.164 115.069 137.815 115.624 138.306 116.392C138.818 117.16 139.074 118.173 139.074 119.432V124.104ZM150.436 129.288C148.644 129.288 147.13 128.989 145.892 128.392C144.676 127.773 143.759 126.909 143.14 125.8C142.522 124.691 142.212 123.389 142.212 121.896C142.212 120.168 142.575 118.728 143.3 117.576C144.047 116.403 145.06 115.528 146.34 114.952C147.62 114.355 149.06 114.056 150.66 114.056C152.495 114.056 154.02 114.376 155.236 115.016C156.474 115.656 157.402 116.531 158.02 117.64C158.639 118.749 158.948 120.029 158.948 121.48C158.948 123.08 158.607 124.467 157.924 125.64C157.242 126.813 156.26 127.72 154.98 128.36C153.7 128.979 152.186 129.288 150.436 129.288ZM150.948 127.048C151.823 127.048 152.484 126.6 152.932 125.704C153.38 124.808 153.604 123.699 153.604 122.376C153.604 120.989 153.444 119.837 153.124 118.92C152.804 118.003 152.388 117.32 151.876 116.872C151.364 116.403 150.81 116.168 150.212 116.168C149.295 116.168 148.623 116.616 148.196 117.512C147.77 118.408 147.556 119.507 147.556 120.808C147.556 121.981 147.684 123.048 147.94 124.008C148.196 124.947 148.58 125.693 149.092 126.248C149.604 126.781 150.223 127.048 150.948 127.048ZM160.806 129.096C160.806 128.691 160.827 128.307 160.87 127.944C160.913 127.56 160.987 127.219 161.094 126.92C161.969 126.856 162.534 126.643 162.79 126.28C163.046 125.896 163.174 125.171 163.174 124.104V120.264C163.174 119.475 163.131 118.877 163.046 118.472C162.961 118.067 162.747 117.768 162.406 117.576C162.086 117.384 161.574 117.267 160.87 117.224C160.87 116.861 160.891 116.509 160.934 116.168C160.998 115.805 161.105 115.453 161.254 115.112C162.022 115.112 162.801 115.069 163.59 114.984C164.379 114.877 165.115 114.749 165.798 114.6C166.481 114.429 167.025 114.248 167.43 114.056C167.686 114.141 167.91 114.333 168.102 114.632C168.294 114.931 168.39 115.357 168.39 115.912C168.39 116.296 168.337 116.712 168.23 117.16C168.145 117.587 167.974 118.291 167.718 119.272H167.526C167.931 118.227 168.251 117.48 168.486 117.032C168.721 116.584 168.945 116.253 169.158 116.04C169.627 115.507 170.246 115.048 171.014 114.664C171.782 114.28 172.625 114.088 173.542 114.088C174.566 114.088 175.473 114.312 176.262 114.76C177.073 115.187 177.691 115.805 178.118 116.616C178.395 117.107 178.534 117.608 178.534 118.12H178.374C178.758 117.117 179.185 116.403 179.654 115.976C180.123 115.507 180.699 115.112 181.382 114.792C182.065 114.451 182.843 114.28 183.718 114.28C184.849 114.28 185.798 114.472 186.566 114.856C187.355 115.219 187.953 115.805 188.358 116.616C188.785 117.405 188.998 118.472 188.998 119.816V122.952C188.998 124.104 189.03 124.957 189.094 125.512C189.179 126.045 189.329 126.397 189.542 126.568C189.755 126.739 190.086 126.845 190.534 126.888C190.641 127.208 190.705 127.56 190.726 127.944C190.769 128.307 190.79 128.691 190.79 129.096C190.257 129.053 189.617 129.021 188.87 129C188.123 129 187.355 129 186.566 129C186.054 129 185.499 129 184.902 129C184.305 129.021 183.729 129.032 183.174 129.032C182.619 129.053 182.15 129.075 181.766 129.096C181.766 128.627 181.777 128.232 181.798 127.912C181.841 127.571 181.905 127.229 181.99 126.888C182.417 126.867 182.758 126.76 183.014 126.568C183.27 126.376 183.451 126.013 183.558 125.48C183.665 124.947 183.718 124.189 183.718 123.208V120.872C183.718 119.549 183.537 118.664 183.174 118.216C182.811 117.747 182.331 117.512 181.734 117.512C181.137 117.512 180.603 117.704 180.134 118.088C179.686 118.472 179.334 119.048 179.078 119.816C178.843 120.563 178.726 121.48 178.726 122.568V123.944C178.726 125.053 178.843 125.811 179.078 126.216C179.313 126.621 179.782 126.845 180.486 126.888C180.571 127.165 180.635 127.507 180.678 127.912C180.721 128.296 180.742 128.691 180.742 129.096C180.251 129.053 179.569 129.021 178.694 129C177.841 129 176.998 129 176.166 129C175.313 129 174.449 129 173.574 129C172.721 129.021 172.006 129.053 171.43 129.096C171.43 128.691 171.451 128.296 171.494 127.912C171.558 127.507 171.633 127.165 171.718 126.888C172.209 126.845 172.582 126.739 172.838 126.568C173.094 126.376 173.265 126.013 173.35 125.48C173.457 124.925 173.51 124.083 173.51 122.952V120.584C173.51 119.389 173.329 118.568 172.966 118.12C172.603 117.672 172.059 117.448 171.334 117.448C170.801 117.448 170.31 117.661 169.862 118.088C169.435 118.515 169.083 119.112 168.806 119.88C168.55 120.648 168.422 121.523 168.422 122.504V123.944C168.422 125.096 168.539 125.864 168.774 126.248C169.009 126.632 169.467 126.845 170.15 126.888C170.257 127.187 170.331 127.528 170.374 127.912C170.417 128.296 170.438 128.691 170.438 129.096C170.097 129.053 169.627 129.021 169.03 129C168.454 129 167.846 129 167.206 129C166.587 129 166.033 129 165.542 129C165.051 129 164.486 129 163.846 129C163.227 129 162.641 129 162.086 129C161.553 129.021 161.126 129.053 160.806 129.096ZM200.246 129.288C198.326 129.288 196.768 128.957 195.574 128.296C194.4 127.635 193.536 126.739 192.982 125.608C192.427 124.477 192.15 123.208 192.15 121.8C192.15 120.221 192.459 118.856 193.078 117.704C193.696 116.552 194.592 115.656 195.766 115.016C196.939 114.376 198.315 114.056 199.894 114.056C201.472 114.056 202.774 114.355 203.798 114.952C204.822 115.528 205.579 116.339 206.07 117.384C206.582 118.408 206.859 119.603 206.902 120.968C206.731 121.672 206.422 122.237 205.974 122.664C205.355 122.664 204.651 122.664 203.862 122.664C203.072 122.664 202.24 122.675 201.366 122.696C200.512 122.696 199.638 122.717 198.742 122.76C197.867 122.803 197.024 122.856 196.214 122.92V120.616H202.102C202.102 119.165 201.91 118.067 201.526 117.32C201.163 116.573 200.608 116.2 199.862 116.2C199.371 116.2 198.934 116.381 198.55 116.744C198.187 117.085 197.91 117.608 197.718 118.312C197.526 118.995 197.43 119.848 197.43 120.872C197.43 121.981 197.568 122.973 197.846 123.848C198.123 124.723 198.582 125.405 199.222 125.896C199.862 126.387 200.726 126.632 201.814 126.632C202.56 126.632 203.307 126.504 204.054 126.248C204.8 125.992 205.419 125.661 205.91 125.256C206.123 125.384 206.315 125.64 206.486 126.024C206.656 126.387 206.742 126.76 206.742 127.144C205.91 127.848 204.96 128.381 203.894 128.744C202.848 129.107 201.632 129.288 200.246 129.288Z" fill="#5F260E"/>
<circle cx="131" cy="124.5" r="103" fill="#FFD8FC"/>
<g filter="url(#filter0_d_408_2199)">
<path d="M61.936 130.788C61.5307 130.639 61.2427 130.415 61.072 130.116C60.9013 129.817 60.816 129.423 60.816 128.932C60.816 128.655 60.848 128.324 60.912 127.94C60.976 127.535 61.072 127.151 61.2 126.788L61.328 126.66C61.136 127.321 60.8907 127.897 60.592 128.388C60.2933 128.857 59.9413 129.252 59.536 129.572C59.088 129.956 58.544 130.244 57.904 130.436C57.264 130.628 56.528 130.724 55.696 130.724C54.224 130.724 53.072 130.415 52.24 129.796C51.408 129.177 50.992 128.271 50.992 127.076C50.992 126.265 51.1733 125.572 51.536 124.996C51.92 124.399 52.432 123.897 53.072 123.492C53.7333 123.065 54.4587 122.724 55.248 122.468C56.0587 122.212 56.8907 122.009 57.744 121.86C58.6187 121.689 59.472 121.54 60.304 121.412C60.304 120.9 60.2827 120.452 60.24 120.068C60.2187 119.684 60.1547 119.353 60.048 119.076C59.9627 118.777 59.8133 118.521 59.6 118.308C59.3653 118.031 59.088 117.839 58.768 117.732C58.4693 117.625 58.1707 117.572 57.872 117.572C57.3387 117.572 56.9013 117.732 56.56 118.052C56.2187 118.372 55.9627 118.809 55.792 119.364C55.6213 119.897 55.504 120.484 55.44 121.124C54.8213 121.124 54.2667 121.103 53.776 121.06C53.2853 121.017 52.8373 120.911 52.432 120.74C52.4747 120.143 52.4853 119.513 52.464 118.852C52.4427 118.191 52.3573 117.497 52.208 116.772C53.1253 116.388 54.2027 116.089 55.44 115.876C56.6773 115.641 57.8613 115.524 58.992 115.524C60.4 115.524 61.5093 115.684 62.32 116.004C63.1307 116.303 63.7387 116.655 64.144 117.06C64.5707 117.487 64.912 118.095 65.168 118.884C65.4453 119.652 65.584 120.793 65.584 122.308V124.772C65.584 125.497 65.6267 126.052 65.712 126.436C65.7973 126.82 65.968 127.087 66.224 127.236C66.5013 127.364 66.896 127.439 67.408 127.46C67.472 127.865 67.4827 128.26 67.44 128.644C67.3973 129.028 67.2907 129.391 67.12 129.732C66.2453 129.753 65.36 129.849 64.464 130.02C63.568 130.191 62.7253 130.447 61.936 130.788ZM57.584 127.684C58.0107 127.684 58.4267 127.556 58.832 127.3C59.2587 127.023 59.6107 126.607 59.888 126.052C60.1653 125.497 60.304 124.815 60.304 124.004V123.268C59.6427 123.396 59.0453 123.545 58.512 123.716C58 123.887 57.5733 124.079 57.232 124.292C56.8907 124.505 56.6347 124.761 56.464 125.06C56.2933 125.359 56.208 125.711 56.208 126.116C56.208 126.671 56.336 127.076 56.592 127.332C56.8693 127.567 57.2 127.684 57.584 127.684ZM75.299 130.692C73.7417 130.692 72.5257 130.265 71.651 129.412C70.7977 128.537 70.371 126.991 70.371 124.772V121.412C70.371 120.452 70.2643 119.78 70.051 119.396C69.8377 119.012 69.2723 118.788 68.355 118.724C68.355 118.361 68.3763 117.999 68.419 117.636C68.483 117.252 68.5897 116.911 68.739 116.612C70.083 116.612 71.2777 116.505 72.323 116.292C73.3683 116.057 74.147 115.812 74.659 115.556C74.979 115.684 75.2243 115.897 75.395 116.196C75.5657 116.495 75.651 116.911 75.651 117.444V123.972C75.651 125.401 75.7897 126.393 76.067 126.948C76.3443 127.481 76.771 127.748 77.347 127.748C78.1363 127.748 78.819 127.343 79.395 126.532C79.971 125.721 80.259 124.473 80.259 122.788V121.252C80.259 120.292 80.1203 119.62 79.843 119.236C79.5657 118.852 78.9363 118.628 77.955 118.564C77.955 118.201 77.9763 117.839 78.019 117.476C78.0617 117.092 78.1577 116.751 78.307 116.452C79.6937 116.452 80.9523 116.367 82.083 116.196C83.2137 116.004 84.0243 115.791 84.515 115.556C84.835 115.684 85.0803 115.897 85.251 116.196C85.4217 116.495 85.507 116.911 85.507 117.444V126.212L80.931 127.364C80.7817 127.769 80.611 128.132 80.419 128.452C80.227 128.751 80.003 129.017 79.747 129.252C79.299 129.657 78.7017 129.999 77.955 130.276C77.2083 130.553 76.323 130.692 75.299 130.692ZM81.827 130.788C81.4217 130.639 81.1337 130.425 80.963 130.148C80.7923 129.849 80.707 129.455 80.707 128.964C80.707 128.58 80.7497 128.153 80.835 127.684C80.9417 127.215 81.0483 126.799 81.155 126.436L85.507 124.708C85.507 125.455 85.5497 126.031 85.635 126.436C85.7203 126.82 85.891 127.087 86.147 127.236C86.4243 127.364 86.8297 127.439 87.363 127.46C87.427 127.865 87.4377 128.26 87.395 128.644C87.3523 129.028 87.235 129.391 87.043 129.732C86.1897 129.753 85.3043 129.849 84.387 130.02C83.4697 130.191 82.6163 130.447 81.827 130.788ZM95.4873 130.788C93.9086 130.788 92.7139 130.383 91.9033 129.572C91.0926 128.74 90.6873 127.343 90.6873 125.38V118.788C90.3459 118.66 89.9833 118.564 89.5993 118.5C89.2366 118.436 88.8099 118.404 88.3193 118.404C88.3193 117.977 88.3406 117.593 88.3833 117.252C88.4473 116.889 88.5646 116.527 88.7353 116.164H90.6873V112.356C91.5193 112.249 92.3299 112.036 93.1193 111.716C93.9299 111.396 94.5806 111.044 95.0713 110.66C95.4126 110.788 95.6473 110.991 95.7753 111.268C95.9033 111.545 95.9673 112.036 95.9673 112.74V116.164H99.8073C99.8073 116.633 99.7753 117.049 99.7113 117.412C99.6686 117.753 99.5939 118.095 99.4873 118.436C98.8046 118.436 98.1646 118.489 97.5673 118.596C96.9913 118.681 96.4579 118.809 95.9673 118.98V124.9C95.9673 125.817 96.0206 126.521 96.1273 127.012C96.2339 127.481 96.4046 127.812 96.6393 128.004C96.8739 128.175 97.1726 128.26 97.5353 128.26C97.8553 128.26 98.1753 128.228 98.4953 128.164C98.8366 128.079 99.1566 127.961 99.4553 127.812C99.7539 128.239 99.9139 128.836 99.9353 129.604C99.4873 129.945 98.8473 130.233 98.0153 130.468C97.2046 130.681 96.3619 130.788 95.4873 130.788ZM109.624 130.788C107.832 130.788 106.317 130.489 105.08 129.892C103.864 129.273 102.946 128.409 102.328 127.3C101.709 126.191 101.4 124.889 101.4 123.396C101.4 121.668 101.762 120.228 102.488 119.076C103.234 117.903 104.248 117.028 105.528 116.452C106.808 115.855 108.248 115.556 109.848 115.556C111.682 115.556 113.208 115.876 114.424 116.516C115.661 117.156 116.589 118.031 117.208 119.14C117.826 120.249 118.136 121.529 118.136 122.98C118.136 124.58 117.794 125.967 117.112 127.14C116.429 128.313 115.448 129.22 114.168 129.86C112.888 130.479 111.373 130.788 109.624 130.788ZM110.136 128.548C111.01 128.548 111.672 128.1 112.12 127.204C112.568 126.308 112.792 125.199 112.792 123.876C112.792 122.489 112.632 121.337 112.312 120.42C111.992 119.503 111.576 118.82 111.064 118.372C110.552 117.903 109.997 117.668 109.4 117.668C108.482 117.668 107.81 118.116 107.384 119.012C106.957 119.908 106.744 121.007 106.744 122.308C106.744 123.481 106.872 124.548 107.128 125.508C107.384 126.447 107.768 127.193 108.28 127.748C108.792 128.281 109.41 128.548 110.136 128.548ZM122.362 123.876V121.412C122.362 120.751 122.319 120.239 122.234 119.876C122.148 119.513 121.935 119.247 121.594 119.076C121.274 118.884 120.762 118.767 120.058 118.724C120.058 118.361 120.079 117.999 120.122 117.636C120.186 117.252 120.292 116.911 120.442 116.612C121.786 116.612 123.023 116.505 124.154 116.292C125.306 116.057 126.138 115.812 126.65 115.556C126.97 115.684 127.215 115.897 127.385 116.196C127.556 116.495 127.642 116.911 127.642 117.444L122.362 123.876ZM138.074 125.604C138.074 126.671 138.18 127.407 138.394 127.812C138.607 128.196 139.002 128.388 139.578 128.388C139.706 128.687 139.78 129.017 139.802 129.38C139.844 129.721 139.866 130.127 139.866 130.596C139.396 130.575 138.756 130.553 137.946 130.532C137.156 130.511 136.399 130.5 135.674 130.5C135.183 130.5 134.618 130.5 133.978 130.5C133.338 130.521 132.73 130.532 132.154 130.532C131.578 130.553 131.13 130.575 130.81 130.596C130.81 130.191 130.82 129.807 130.842 129.444C130.884 129.06 130.97 128.708 131.098 128.388C131.631 128.388 132.047 128.175 132.346 127.748C132.644 127.3 132.794 126.5 132.794 125.348V122.468C132.794 121.167 132.602 120.271 132.218 119.78C131.834 119.268 131.279 119.012 130.554 119.012C130.042 119.012 129.562 119.215 129.114 119.62C128.666 120.025 128.303 120.601 128.026 121.348C127.77 122.095 127.642 123.001 127.642 124.068V125.604C127.642 126.692 127.78 127.428 128.058 127.812C128.335 128.196 128.751 128.388 129.306 128.388C129.455 128.729 129.54 129.071 129.562 129.412C129.604 129.753 129.626 130.148 129.626 130.596C129.306 130.575 128.879 130.553 128.345 130.532C127.812 130.532 127.247 130.521 126.65 130.5C126.052 130.5 125.508 130.5 125.018 130.5C124.527 130.5 123.951 130.5 123.29 130.5C122.628 130.521 121.988 130.532 121.37 130.532C120.772 130.553 120.314 130.575 119.993 130.596C119.993 130.148 120.015 129.732 120.058 129.348C120.122 128.964 120.196 128.644 120.282 128.388C121.114 128.388 121.668 128.196 121.946 127.812C122.223 127.407 122.362 126.671 122.362 125.604V121.412L127.642 117.444C127.642 117.7 127.61 117.999 127.546 118.34C127.482 118.66 127.396 119.001 127.29 119.364C127.439 119.023 127.588 118.703 127.738 118.404C127.908 118.105 128.111 117.828 128.345 117.572C128.815 117.06 129.423 116.623 130.17 116.26C130.938 115.897 131.791 115.716 132.73 115.716C133.668 115.716 134.543 115.887 135.354 116.228C136.164 116.569 136.815 117.124 137.306 117.892C137.818 118.66 138.074 119.673 138.074 120.932V125.604ZM149.436 130.788C147.644 130.788 146.13 130.489 144.892 129.892C143.676 129.273 142.759 128.409 142.14 127.3C141.522 126.191 141.212 124.889 141.212 123.396C141.212 121.668 141.575 120.228 142.3 119.076C143.047 117.903 144.06 117.028 145.34 116.452C146.62 115.855 148.06 115.556 149.66 115.556C151.495 115.556 153.02 115.876 154.236 116.516C155.474 117.156 156.402 118.031 157.02 119.14C157.639 120.249 157.948 121.529 157.948 122.98C157.948 124.58 157.607 125.967 156.924 127.14C156.242 128.313 155.26 129.22 153.98 129.86C152.7 130.479 151.186 130.788 149.436 130.788ZM149.948 128.548C150.823 128.548 151.484 128.1 151.932 127.204C152.38 126.308 152.604 125.199 152.604 123.876C152.604 122.489 152.444 121.337 152.124 120.42C151.804 119.503 151.388 118.82 150.876 118.372C150.364 117.903 149.81 117.668 149.212 117.668C148.295 117.668 147.623 118.116 147.196 119.012C146.77 119.908 146.556 121.007 146.556 122.308C146.556 123.481 146.684 124.548 146.94 125.508C147.196 126.447 147.58 127.193 148.092 127.748C148.604 128.281 149.223 128.548 149.948 128.548ZM159.806 130.596C159.806 130.191 159.827 129.807 159.87 129.444C159.913 129.06 159.987 128.719 160.094 128.42C160.969 128.356 161.534 128.143 161.79 127.78C162.046 127.396 162.174 126.671 162.174 125.604V121.764C162.174 120.975 162.131 120.377 162.046 119.972C161.961 119.567 161.747 119.268 161.406 119.076C161.086 118.884 160.574 118.767 159.87 118.724C159.87 118.361 159.891 118.009 159.934 117.668C159.998 117.305 160.105 116.953 160.254 116.612C161.022 116.612 161.801 116.569 162.59 116.484C163.379 116.377 164.115 116.249 164.798 116.1C165.481 115.929 166.025 115.748 166.43 115.556C166.686 115.641 166.91 115.833 167.102 116.132C167.294 116.431 167.39 116.857 167.39 117.412C167.39 117.796 167.337 118.212 167.23 118.66C167.145 119.087 166.974 119.791 166.718 120.772H166.526C166.931 119.727 167.251 118.98 167.486 118.532C167.721 118.084 167.945 117.753 168.158 117.54C168.627 117.007 169.246 116.548 170.014 116.164C170.782 115.78 171.625 115.588 172.542 115.588C173.566 115.588 174.473 115.812 175.262 116.26C176.073 116.687 176.691 117.305 177.118 118.116C177.395 118.607 177.534 119.108 177.534 119.62H177.374C177.758 118.617 178.185 117.903 178.654 117.476C179.123 117.007 179.699 116.612 180.382 116.292C181.065 115.951 181.843 115.78 182.718 115.78C183.849 115.78 184.798 115.972 185.566 116.356C186.355 116.719 186.953 117.305 187.358 118.116C187.785 118.905 187.998 119.972 187.998 121.316V124.452C187.998 125.604 188.03 126.457 188.094 127.012C188.179 127.545 188.329 127.897 188.542 128.068C188.755 128.239 189.086 128.345 189.534 128.388C189.641 128.708 189.705 129.06 189.726 129.444C189.769 129.807 189.79 130.191 189.79 130.596C189.257 130.553 188.617 130.521 187.87 130.5C187.123 130.5 186.355 130.5 185.566 130.5C185.054 130.5 184.499 130.5 183.902 130.5C183.305 130.521 182.729 130.532 182.174 130.532C181.619 130.553 181.15 130.575 180.766 130.596C180.766 130.127 180.777 129.732 180.798 129.412C180.841 129.071 180.905 128.729 180.99 128.388C181.417 128.367 181.758 128.26 182.014 128.068C182.27 127.876 182.451 127.513 182.558 126.98C182.665 126.447 182.718 125.689 182.718 124.708V122.372C182.718 121.049 182.537 120.164 182.174 119.716C181.811 119.247 181.331 119.012 180.734 119.012C180.137 119.012 179.603 119.204 179.134 119.588C178.686 119.972 178.334 120.548 178.078 121.316C177.843 122.063 177.726 122.98 177.726 124.068V125.444C177.726 126.553 177.843 127.311 178.078 127.716C178.313 128.121 178.782 128.345 179.486 128.388C179.571 128.665 179.635 129.007 179.678 129.412C179.721 129.796 179.742 130.191 179.742 130.596C179.251 130.553 178.569 130.521 177.694 130.5C176.841 130.5 175.998 130.5 175.166 130.5C174.313 130.5 173.449 130.5 172.574 130.5C171.721 130.521 171.006 130.553 170.43 130.596C170.43 130.191 170.451 129.796 170.494 129.412C170.558 129.007 170.633 128.665 170.718 128.388C171.209 128.345 171.582 128.239 171.838 128.068C172.094 127.876 172.265 127.513 172.35 126.98C172.457 126.425 172.51 125.583 172.51 124.452V122.084C172.51 120.889 172.329 120.068 171.966 119.62C171.603 119.172 171.059 118.948 170.334 118.948C169.801 118.948 169.31 119.161 168.862 119.588C168.435 120.015 168.083 120.612 167.806 121.38C167.55 122.148 167.422 123.023 167.422 124.004V125.444C167.422 126.596 167.539 127.364 167.774 127.748C168.009 128.132 168.467 128.345 169.15 128.388C169.257 128.687 169.331 129.028 169.374 129.412C169.417 129.796 169.438 130.191 169.438 130.596C169.097 130.553 168.627 130.521 168.03 130.5C167.454 130.5 166.846 130.5 166.206 130.5C165.587 130.5 165.033 130.5 164.542 130.5C164.051 130.5 163.486 130.5 162.846 130.5C162.227 130.5 161.641 130.5 161.086 130.5C160.553 130.521 160.126 130.553 159.806 130.596ZM199.246 130.788C197.326 130.788 195.768 130.457 194.574 129.796C193.4 129.135 192.536 128.239 191.982 127.108C191.427 125.977 191.15 124.708 191.15 123.3C191.15 121.721 191.459 120.356 192.078 119.204C192.696 118.052 193.592 117.156 194.766 116.516C195.939 115.876 197.315 115.556 198.894 115.556C200.472 115.556 201.774 115.855 202.798 116.452C203.822 117.028 204.579 117.839 205.07 118.884C205.582 119.908 205.859 121.103 205.902 122.468C205.731 123.172 205.422 123.737 204.974 124.164C204.355 124.164 203.651 124.164 202.862 124.164C202.072 124.164 201.24 124.175 200.366 124.196C199.512 124.196 198.638 124.217 197.742 124.26C196.867 124.303 196.024 124.356 195.214 124.42V122.116H201.102C201.102 120.665 200.91 119.567 200.526 118.82C200.163 118.073 199.608 117.7 198.862 117.7C198.371 117.7 197.934 117.881 197.55 118.244C197.187 118.585 196.91 119.108 196.718 119.812C196.526 120.495 196.43 121.348 196.43 122.372C196.43 123.481 196.568 124.473 196.846 125.348C197.123 126.223 197.582 126.905 198.222 127.396C198.862 127.887 199.726 128.132 200.814 128.132C201.56 128.132 202.307 128.004 203.054 127.748C203.8 127.492 204.419 127.161 204.91 126.756C205.123 126.884 205.315 127.14 205.486 127.524C205.656 127.887 205.742 128.26 205.742 128.644C204.91 129.348 203.96 129.881 202.894 130.244C201.848 130.607 200.632 130.788 199.246 130.788Z" fill="#5F260E"/>
</g>
<g filter="url(#filter1_d_408_2199)">
<path d="M167.09 55.18C180.947 55.18 192.18 43.9468 192.18 30.09C192.18 16.2332 180.947 5 167.09 5C153.233 5 142 16.2332 142 30.09C142 43.9468 153.233 55.18 167.09 55.18Z" fill="url(#paint0_radial_408_2199)"/>
</g>
<g filter="url(#filter2_d_408_2199)">
<path d="M141.51 85.02C155.046 85.02 166.02 74.0465 166.02 60.51C166.02 46.9735 155.046 36 141.51 36C127.973 36 117 46.9735 117 60.51C117 74.0465 127.973 85.02 141.51 85.02Z" fill="url(#paint1_radial_408_2199)"/>
</g>
<g filter="url(#filter3_d_408_2199)">
<path d="M32.51 118.02C46.0465 118.02 57.02 107.047 57.02 93.51C57.02 79.9735 46.0465 69 32.51 69C18.9735 69 8 79.9735 8 93.51C8 107.047 18.9735 118.02 32.51 118.02Z" fill="url(#paint2_radial_408_2199)"/>
</g>
<g filter="url(#filter4_d_408_2199)">
<path d="M227.51 134.02C241.047 134.02 252.02 123.046 252.02 109.51C252.02 95.9735 241.047 85 227.51 85C213.974 85 203 95.9735 203 109.51C203 123.046 213.974 134.02 227.51 134.02Z" fill="url(#paint3_radial_408_2199)"/>
</g>
<g filter="url(#filter5_d_408_2199)">
<path d="M75.81 198.62C90.0645 198.62 101.62 187.064 101.62 172.81C101.62 158.556 90.0645 147 75.81 147C61.5555 147 50 158.556 50 172.81C50 187.064 61.5555 198.62 75.81 198.62Z" fill="url(#paint4_radial_408_2199)"/>
</g>
<g filter="url(#filter6_d_408_2199)">
<path d="M184.51 229.02C198.047 229.02 209.02 218.046 209.02 204.51C209.02 190.973 198.047 180 184.51 180C170.974 180 160 190.973 160 204.51C160 218.046 170.974 229.02 184.51 229.02Z" fill="url(#paint5_radial_408_2199)"/>
</g>
<defs>
<filter id="filter0_d_408_2199" x="45.9922" y="108.66" width="164.91" height="30.1282" filterUnits="userSpaceOnUse" color-interpolation-filters="sRGB">
<feFlood flood-opacity="0" result="BackgroundImageFix"/>
<feColorMatrix in="SourceAlpha" type="matrix" values="0 0 0 0 0 0 0 0 0 0 0 0 0 0 0 0 0 0 127 0" result="hardAlpha"/>
<feOffset dy="3"/>
<feGaussianBlur stdDeviation="2.5"/>
<feComposite in2="hardAlpha" operator="out"/>
<feColorMatrix type="matrix" values="0 0 0 0 0 0 0 0 0 0 0 0 0 0 0 0 0 0 0.25 0"/>
<feBlend mode="normal" in2="BackgroundImageFix" result="effect1_dropShadow_408_2199"/>
<feBlend mode="normal" in="SourceGraphic" in2="effect1_dropShadow_408_2199" result="shape"/>
</filter>
<filter id="filter1_d_408_2199" x="134.83" y="0.67" width="70.1802" height="70.1799" filterUnits="userSpaceOnUse" color-interpolation-filters="sRGB">
<feFlood flood-opacity="0" result="BackgroundImageFix"/>
<feColorMatrix in="SourceAlpha" type="matrix" values="0 0 0 0 0 0 0 0 0 0 0 0 0 0 0 0 0 0 127 0" result="hardAlpha"/>
<feOffset dx="2.83" dy="5.67"/>
<feGaussianBlur stdDeviation="5"/>
<feColorMatrix type="matrix" values="0 0 0 0 0.113725 0 0 0 0 0.113725 0 0 0 0 0.105882 0 0 0 0.5 0"/>
<feBlend mode="normal" in2="BackgroundImageFix" result="effect1_dropShadow_408_2199"/>
<feBlend mode="normal" in="SourceGraphic" in2="effect1_dropShadow_408_2199" result="shape"/>
</filter>
<filter id="filter2_d_408_2199" x="109.83" y="31.67" width="69.02" height="69.02" filterUnits="userSpaceOnUse" color-interpolation-filters="sRGB">
<feFlood flood-opacity="0" result="BackgroundImageFix"/>
<feColorMatrix in="SourceAlpha" type="matrix" values="0 0 0 0 0 0 0 0 0 0 0 0 0 0 0 0 0 0 127 0" result="hardAlpha"/>
<feOffset dx="2.83" dy="5.67"/>
<feGaussianBlur stdDeviation="5"/>
<feColorMatrix type="matrix" values="0 0 0 0 0.113725 0 0 0 0 0.113725 0 0 0 0 0.105882 0 0 0 0.5 0"/>
<feBlend mode="normal" in2="BackgroundImageFix" result="effect1_dropShadow_408_2199"/>
<feBlend mode="normal" in="SourceGraphic" in2="effect1_dropShadow_408_2199" result="shape"/>
</filter>
<filter id="filter3_d_408_2199" x="0.83" y="64.67" width="69.02" height="69.02" filterUnits="userSpaceOnUse" color-interpolation-filters="sRGB">
<feFlood flood-opacity="0" result="BackgroundImageFix"/>
<feColorMatrix in="SourceAlpha" type="matrix" values="0 0 0 0 0 0 0 0 0 0 0 0 0 0 0 0 0 0 127 0" result="hardAlpha"/>
<feOffset dx="2.83" dy="5.67"/>
<feGaussianBlur stdDeviation="5"/>
<feColorMatrix type="matrix" values="0 0 0 0 0.113725 0 0 0 0 0.113725 0 0 0 0 0.105882 0 0 0 0.5 0"/>
<feBlend mode="normal" in2="BackgroundImageFix" result="effect1_dropShadow_408_2199"/>
<feBlend mode="normal" in="SourceGraphic" in2="effect1_dropShadow_408_2199" result="shape"/>
</filter>
<filter id="filter4_d_408_2199" x="195.83" y="80.67" width="69.02" height="69.02" filterUnits="userSpaceOnUse" color-interpolation-filters="sRGB">
<feFlood flood-opacity="0" result="BackgroundImageFix"/>
<feColorMatrix in="SourceAlpha" type="matrix" values="0 0 0 0 0 0 0 0 0 0 0 0 0 0 0 0 0 0 127 0" result="hardAlpha"/>
<feOffset dx="2.83" dy="5.67"/>
<feGaussianBlur stdDeviation="5"/>
<feColorMatrix type="matrix" values="0 0 0 0 0.113725 0 0 0 0 0.113725 0 0 0 0 0.105882 0 0 0 0.5 0"/>
<feBlend mode="normal" in2="BackgroundImageFix" result="effect1_dropShadow_408_2199"/>
<feBlend mode="normal" in="SourceGraphic" in2="effect1_dropShadow_408_2199" result="shape"/>
</filter>
<filter id="filter5_d_408_2199" x="42.83" y="142.67" width="71.6201" height="71.6201" filterUnits="userSpaceOnUse" color-interpolation-filters="sRGB">
<feFlood flood-opacity="0" result="BackgroundImageFix"/>
<feColorMatrix in="SourceAlpha" type="matrix" values="0 0 0 0 0 0 0 0 0 0 0 0 0 0 0 0 0 0 127 0" result="hardAlpha"/>
<feOffset dx="2.83" dy="5.67"/>
<feGaussianBlur stdDeviation="5"/>
<feColorMatrix type="matrix" values="0 0 0 0 0.113725 0 0 0 0 0.113725 0 0 0 0 0.105882 0 0 0 0.5 0"/>
<feBlend mode="normal" in2="BackgroundImageFix" result="effect1_dropShadow_408_2199"/>
<feBlend mode="normal" in="SourceGraphic" in2="effect1_dropShadow_408_2199" result="shape"/>
</filter>
<filter id="filter6_d_408_2199" x="152.83" y="175.67" width="69.02" height="69.02" filterUnits="userSpaceOnUse" color-interpolation-filters="sRGB">
<feFlood flood-opacity="0" result="BackgroundImageFix"/>
<feColorMatrix in="SourceAlpha" type="matrix" values="0 0 0 0 0 0 0 0 0 0 0 0 0 0 0 0 0 0 127 0" result="hardAlpha"/>
<feOffset dx="2.83" dy="5.67"/>
<feGaussianBlur stdDeviation="5"/>
<feColorMatrix type="matrix" values="0 0 0 0 0.113725 0 0 0 0 0.113725 0 0 0 0 0.105882 0 0 0 0.5 0"/>
<feBlend mode="normal" in2="BackgroundImageFix" result="effect1_dropShadow_408_2199"/>
<feBlend mode="normal" in="SourceGraphic" in2="effect1_dropShadow_408_2199" result="shape"/>
</filter>
<radialGradient id="paint0_radial_408_2199" cx="0" cy="0" r="1" gradientUnits="userSpaceOnUse" gradientTransform="translate(167.09 30.09) scale(25.09 25.09)">
<stop stop-color="#E5A5AA"/>
<stop offset="0.16" stop-color="#D98895"/>
<stop offset="0.8" stop-color="#BC3461"/>
<stop offset="0.97" stop-color="#9E2F56"/>
</radialGradient>
<radialGradient id="paint1_radial_408_2199" cx="0" cy="0" r="1" gradientUnits="userSpaceOnUse" gradientTransform="translate(141.51 60.51) scale(24.51 24.51)">
<stop offset="0.01" stop-color="#E0E0E0"/>
<stop offset="0.34" stop-color="#C6C4C1"/>
<stop offset="0.63" stop-color="#ADAAA6"/>
<stop offset="1" stop-color="#747270"/>
</radialGradient>
<radialGradient id="paint2_radial_408_2199" cx="0" cy="0" r="1" gradientUnits="userSpaceOnUse" gradientTransform="translate(32.51 93.51) scale(24.51 24.51)">
<stop offset="0.01" stop-color="#E0E0E0"/>
<stop offset="0.34" stop-color="#C6C4C1"/>
<stop offset="0.63" stop-color="#ADAAA6"/>
<stop offset="1" stop-color="#747270"/>
</radialGradient>
<radialGradient id="paint3_radial_408_2199" cx="0" cy="0" r="1" gradientUnits="userSpaceOnUse" gradientTransform="translate(227.51 109.51) scale(24.51 24.51)">
<stop stop-color="#E5A5AA"/>
<stop offset="0.16" stop-color="#D98895"/>
<stop offset="0.8" stop-color="#BC3461"/>
<stop offset="0.97" stop-color="#9E2F56"/>
</radialGradient>
<radialGradient id="paint4_radial_408_2199" cx="0" cy="0" r="1" gradientUnits="userSpaceOnUse" gradientTransform="translate(75.81 172.81) scale(25.81 25.81)">
<stop stop-color="#E5A5AA"/>
<stop offset="0.16" stop-color="#D98895"/>
<stop offset="0.8" stop-color="#BC3461"/>
<stop offset="0.97" stop-color="#9E2F56"/>
</radialGradient>
<radialGradient id="paint5_radial_408_2199" cx="0" cy="0" r="1" gradientUnits="userSpaceOnUse" gradientTransform="translate(184.51 204.51) scale(24.51 24.51)">
<stop offset="0.01" stop-color="#E0E0E0"/>
<stop offset="0.34" stop-color="#C6C4C1"/>
<stop offset="0.63" stop-color="#ADAAA6"/>
<stop offset="1" stop-color="#747270"/>
</radialGradient>
</defs>
</svg>
