<svg width="241" height="259" viewBox="0 0 241 259" fill="none" xmlns="http://www.w3.org/2000/svg">
<circle cx="110" cy="112" r="103" fill="#FAEAA3"/>
<path d="M24.704 112.112C24.704 113.029 24.8 113.755 24.992 114.288C25.2053 114.8 25.5467 115.184 26.016 115.44C26.5067 115.675 27.1787 115.824 28.032 115.888C28.1387 116.187 28.2027 116.539 28.224 116.944C28.2667 117.328 28.288 117.712 28.288 118.096C27.904 118.075 27.4133 118.053 26.816 118.032C26.2187 118.032 25.5787 118.021 24.896 118C24.2347 118 23.584 118 22.944 118C21.8987 118 20.8213 118 19.712 118C18.6027 118.021 17.7173 118.053 17.056 118.096C17.056 117.584 17.0667 117.157 17.088 116.816C17.1307 116.453 17.1947 116.144 17.28 115.888C17.856 115.845 18.2933 115.739 18.592 115.568C18.912 115.376 19.1253 115.045 19.232 114.576C19.36 114.107 19.424 113.413 19.424 112.496V110.736H24.704V112.112ZM24.704 108.56V111.376H19.424V107.92L24.704 104.944C24.704 105.371 24.64 105.851 24.512 106.384C24.4053 106.917 24.256 107.589 24.064 108.4L24.704 108.56ZM24 108.496C24.1493 108.069 24.32 107.589 24.512 107.056C24.704 106.501 24.8747 106.096 25.024 105.84C25.4933 105.093 26.08 104.475 26.784 103.984C27.488 103.493 28.2667 103.248 29.12 103.248C29.952 103.248 30.72 103.504 31.424 104.016C31.36 104.464 31.296 104.987 31.232 105.584C31.168 106.181 31.1253 106.789 31.104 107.408C31.104 108.005 31.1147 108.549 31.136 109.04C30.7733 109.189 30.2933 109.296 29.696 109.36C29.0987 109.403 28.5867 109.424 28.16 109.424C28.1173 108.656 27.9893 108.112 27.776 107.792C27.5627 107.451 27.2427 107.28 26.816 107.28C26.5173 107.28 26.1973 107.461 25.856 107.824C25.536 108.187 25.2587 108.656 25.024 109.232C24.8107 109.787 24.704 110.384 24.704 111.024L24 108.496ZM19.424 111.376V108.912C19.424 108.251 19.3813 107.739 19.296 107.376C19.2107 107.013 18.9973 106.747 18.656 106.576C18.336 106.384 17.824 106.267 17.12 106.224C17.12 105.861 17.1413 105.499 17.184 105.136C17.248 104.752 17.3547 104.411 17.504 104.112C18.848 104.112 20.0853 104.005 21.216 103.792C22.368 103.557 23.2 103.312 23.712 103.056C24.032 103.184 24.2773 103.397 24.448 103.696C24.6187 103.995 24.704 104.411 24.704 104.944L19.424 111.376ZM41.1208 118.288C39.2008 118.288 37.6434 117.957 36.4488 117.296C35.2754 116.635 34.4114 115.739 33.8568 114.608C33.3021 113.477 33.0247 112.208 33.0247 110.8C33.0247 109.221 33.3341 107.856 33.9528 106.704C34.5714 105.552 35.4674 104.656 36.6408 104.016C37.8141 103.376 39.1901 103.056 40.7688 103.056C42.3474 103.056 43.6488 103.355 44.6728 103.952C45.6968 104.528 46.4541 105.339 46.9448 106.384C47.4568 107.408 47.7341 108.603 47.7768 109.968C47.6061 110.672 47.2968 111.237 46.8488 111.664C46.2301 111.664 45.5261 111.664 44.7368 111.664C43.9474 111.664 43.1154 111.675 42.2408 111.696C41.3874 111.696 40.5128 111.717 39.6168 111.76C38.7421 111.803 37.8994 111.856 37.0888 111.92V109.616H42.9768C42.9768 108.165 42.7848 107.067 42.4008 106.32C42.0381 105.573 41.4834 105.2 40.7368 105.2C40.2461 105.2 39.8088 105.381 39.4248 105.744C39.0621 106.085 38.7848 106.608 38.5928 107.312C38.4008 107.995 38.3048 108.848 38.3048 109.872C38.3048 110.981 38.4434 111.973 38.7208 112.848C38.9981 113.723 39.4568 114.405 40.0968 114.896C40.7368 115.387 41.6008 115.632 42.6888 115.632C43.4354 115.632 44.1821 115.504 44.9288 115.248C45.6754 114.992 46.2941 114.661 46.7848 114.256C46.9981 114.384 47.1901 114.64 47.3608 115.024C47.5314 115.387 47.6168 115.76 47.6168 116.144C46.7848 116.848 45.8354 117.381 44.7688 117.744C43.7234 118.107 42.5074 118.288 41.1208 118.288ZM61.7718 104.048C61.7504 104.603 61.7398 105.179 61.7398 105.776C61.7611 106.352 61.8144 106.917 61.8998 107.472C61.5798 107.643 61.1638 107.792 60.6518 107.92C60.1611 108.048 59.6598 108.112 59.1478 108.112C59.0838 107.579 58.9344 107.099 58.6998 106.672C58.4864 106.224 58.1771 105.872 57.7718 105.616C57.3878 105.36 56.8864 105.232 56.2678 105.232C55.8411 105.232 55.4998 105.349 55.2438 105.584C55.0091 105.797 54.8918 106.085 54.8918 106.448C54.8918 106.704 54.9558 106.949 55.0838 107.184C55.2331 107.419 55.5424 107.685 56.0118 107.984C56.5024 108.261 57.2491 108.613 58.2517 109.04C59.4678 109.531 60.4171 110 61.0998 110.448C61.8038 110.896 62.3051 111.376 62.6038 111.888C62.9024 112.4 63.0518 113.019 63.0518 113.744C63.0518 114.704 62.7638 115.525 62.1878 116.208C61.6331 116.891 60.8331 117.413 59.7878 117.776C58.7424 118.117 57.4838 118.288 56.0118 118.288C54.6678 118.288 53.5478 118.192 52.6518 118C51.7558 117.808 50.8811 117.541 50.0278 117.2C50.0918 116.773 50.1344 116.325 50.1558 115.856C50.1771 115.365 50.1771 114.896 50.1558 114.448C50.1558 113.979 50.1344 113.573 50.0918 113.232C50.4118 113.019 50.8384 112.869 51.3718 112.784C51.9264 112.677 52.4384 112.624 52.9078 112.624C53.0358 113.733 53.3558 114.576 53.8678 115.152C54.4011 115.707 55.0518 115.984 55.8198 115.984C56.3531 115.984 56.7904 115.867 57.1318 115.632C57.4944 115.397 57.6758 115.056 57.6758 114.608C57.6758 114.288 57.5904 114.011 57.4198 113.776C57.2704 113.52 56.9824 113.275 56.5558 113.04C56.1504 112.784 55.5424 112.507 54.7318 112.208C53.7931 111.845 52.9824 111.461 52.2998 111.056C51.6171 110.651 51.0838 110.149 50.6998 109.552C50.3371 108.955 50.1558 108.187 50.1558 107.248C50.1558 106.523 50.3051 105.904 50.6038 105.392C50.9238 104.859 51.3718 104.421 51.9478 104.08C52.5238 103.739 53.1851 103.483 53.9318 103.312C54.6998 103.141 55.5211 103.056 56.3958 103.056C57.5904 103.056 58.6038 103.141 59.4358 103.312C60.2678 103.461 61.0464 103.707 61.7718 104.048ZM64.6497 125.84C64.6497 125.328 64.6604 124.891 64.6818 124.528C64.7244 124.187 64.7884 123.888 64.8738 123.632C65.4498 123.589 65.8871 123.472 66.1858 123.28C66.5058 123.109 66.7191 122.789 66.8258 122.32C66.9538 121.851 67.0178 121.157 67.0178 120.24V108.912C67.0178 108.251 66.9751 107.739 66.8898 107.376C66.8044 107.013 66.5911 106.747 66.2498 106.576C65.9298 106.384 65.4178 106.267 64.7138 106.224C64.7138 105.861 64.7351 105.499 64.7778 105.136C64.8418 104.752 64.9484 104.411 65.0978 104.112C66.4418 104.112 67.6791 104.005 68.8098 103.792C69.9618 103.557 70.7938 103.312 71.3058 103.056C71.6258 103.184 71.8711 103.397 72.0417 103.696C72.2124 103.995 72.2978 104.411 72.2978 104.944C72.2978 105.157 72.2444 105.445 72.1378 105.808C72.0311 106.171 71.8711 106.587 71.6578 107.056L72.2978 107.728V119.856C72.2978 120.773 72.3938 121.488 72.5858 122C72.7991 122.533 73.1404 122.917 73.6098 123.152C74.1004 123.408 74.7724 123.568 75.6258 123.632C75.7324 123.931 75.7964 124.272 75.8178 124.656C75.8604 125.061 75.8818 125.456 75.8818 125.84C75.4978 125.819 75.0071 125.797 74.4098 125.776C73.8124 125.776 73.1724 125.765 72.4898 125.744C71.8284 125.744 71.1778 125.744 70.5378 125.744C69.4924 125.744 68.4151 125.744 67.3058 125.744C66.1964 125.765 65.3111 125.797 64.6497 125.84ZM74.5058 118.288C74.0578 118.288 73.6418 118.256 73.2578 118.192C72.8738 118.128 72.4471 118.043 71.9778 117.936V114.736C72.3191 115.205 72.6818 115.568 73.0658 115.824C73.4711 116.08 73.9511 116.208 74.5058 116.208C74.8898 116.208 75.2951 116.133 75.7218 115.984C76.1484 115.835 76.5538 115.557 76.9378 115.152C77.3218 114.747 77.6204 114.171 77.8338 113.424C78.0684 112.656 78.1858 111.675 78.1858 110.48C78.1858 109.691 78.0898 108.955 77.8978 108.272C77.7271 107.568 77.4391 107.003 77.0338 106.576C76.6498 106.128 76.1164 105.904 75.4338 105.904C74.9218 105.904 74.4204 106.075 73.9298 106.416C73.4604 106.736 73.0658 107.28 72.7458 108.048C72.4471 108.795 72.2978 109.797 72.2978 111.056L70.9218 107.824C71.2844 106.928 71.6364 106.235 71.9778 105.744C72.3191 105.232 72.6498 104.848 72.9698 104.592C73.2258 104.357 73.5564 104.123 73.9618 103.888C74.3884 103.653 74.8684 103.461 75.4018 103.312C75.9564 103.141 76.5324 103.056 77.1298 103.056C78.3884 103.056 79.4871 103.291 80.4258 103.76C81.3858 104.208 82.1431 104.912 82.6978 105.872C83.2738 106.832 83.5618 108.08 83.5618 109.616C83.5618 111.344 83.1778 112.859 82.4097 114.16C81.6631 115.461 80.6071 116.475 79.2418 117.2C77.8978 117.925 76.3191 118.288 74.5058 118.288ZM93.8738 118.288C92.0818 118.288 90.5671 117.989 89.3298 117.392C88.1138 116.773 87.1964 115.909 86.5778 114.8C85.9591 113.691 85.6497 112.389 85.6497 110.896C85.6497 109.168 86.0124 107.728 86.7378 106.576C87.4844 105.403 88.4978 104.528 89.7778 103.952C91.0578 103.355 92.4978 103.056 94.0978 103.056C95.9324 103.056 97.4578 103.376 98.6738 104.016C99.9111 104.656 100.839 105.531 101.458 106.64C102.076 107.749 102.386 109.029 102.386 110.48C102.386 112.08 102.044 113.467 101.362 114.64C100.679 115.813 99.6978 116.72 98.4178 117.36C97.1378 117.979 95.6231 118.288 93.8738 118.288ZM94.3858 116.048C95.2604 116.048 95.9218 115.6 96.3698 114.704C96.8178 113.808 97.0418 112.699 97.0418 111.376C97.0418 109.989 96.8818 108.837 96.5618 107.92C96.2418 107.003 95.8258 106.32 95.3138 105.872C94.8018 105.403 94.2471 105.168 93.6498 105.168C92.7324 105.168 92.0604 105.616 91.6338 106.512C91.2071 107.408 90.9938 108.507 90.9938 109.808C90.9938 110.981 91.1218 112.048 91.3778 113.008C91.6338 113.947 92.0178 114.693 92.5298 115.248C93.0418 115.781 93.6604 116.048 94.3858 116.048ZM106.612 111.376V108.912C106.612 108.251 106.569 107.739 106.484 107.376C106.398 107.013 106.185 106.747 105.844 106.576C105.524 106.384 105.012 106.267 104.308 106.224C104.308 105.861 104.329 105.499 104.372 105.136C104.436 104.752 104.542 104.411 104.692 104.112C106.036 104.112 107.273 104.005 108.404 103.792C109.556 103.557 110.388 103.312 110.9 103.056C111.22 103.184 111.465 103.397 111.635 103.696C111.806 103.995 111.892 104.411 111.892 104.944L106.612 111.376ZM122.324 113.104C122.324 114.171 122.43 114.907 122.644 115.312C122.857 115.696 123.252 115.888 123.828 115.888C123.956 116.187 124.03 116.517 124.052 116.88C124.094 117.221 124.116 117.627 124.116 118.096C123.646 118.075 123.006 118.053 122.196 118.032C121.406 118.011 120.649 118 119.924 118C119.433 118 118.868 118 118.228 118C117.588 118.021 116.98 118.032 116.404 118.032C115.828 118.053 115.38 118.075 115.06 118.096C115.06 117.691 115.07 117.307 115.092 116.944C115.134 116.56 115.22 116.208 115.348 115.888C115.881 115.888 116.297 115.675 116.596 115.248C116.894 114.8 117.044 114 117.044 112.848V109.968C117.044 108.667 116.852 107.771 116.468 107.28C116.084 106.768 115.529 106.512 114.804 106.512C114.292 106.512 113.812 106.715 113.364 107.12C112.916 107.525 112.553 108.101 112.276 108.848C112.02 109.595 111.892 110.501 111.892 111.568V113.104C111.892 114.192 112.03 114.928 112.308 115.312C112.585 115.696 113.001 115.888 113.556 115.888C113.705 116.229 113.79 116.571 113.812 116.912C113.854 117.253 113.876 117.648 113.876 118.096C113.556 118.075 113.129 118.053 112.595 118.032C112.062 118.032 111.497 118.021 110.9 118C110.302 118 109.758 118 109.268 118C108.777 118 108.201 118 107.54 118C106.878 118.021 106.238 118.032 105.62 118.032C105.022 118.053 104.564 118.075 104.243 118.096C104.243 117.648 104.265 117.232 104.308 116.848C104.372 116.464 104.446 116.144 104.532 115.888C105.364 115.888 105.918 115.696 106.196 115.312C106.473 114.907 106.612 114.171 106.612 113.104V108.912L111.892 104.944C111.892 105.2 111.86 105.499 111.796 105.84C111.732 106.16 111.646 106.501 111.54 106.864C111.689 106.523 111.838 106.203 111.988 105.904C112.158 105.605 112.361 105.328 112.595 105.072C113.065 104.56 113.673 104.123 114.42 103.76C115.188 103.397 116.041 103.216 116.98 103.216C117.918 103.216 118.793 103.387 119.604 103.728C120.414 104.069 121.065 104.624 121.556 105.392C122.068 106.16 122.324 107.173 122.324 108.432V113.104ZM138.053 104.048C138.032 104.603 138.021 105.179 138.021 105.776C138.042 106.352 138.096 106.917 138.181 107.472C137.861 107.643 137.445 107.792 136.933 107.92C136.442 108.048 135.941 108.112 135.429 108.112C135.365 107.579 135.216 107.099 134.981 106.672C134.768 106.224 134.458 105.872 134.053 105.616C133.669 105.36 133.168 105.232 132.549 105.232C132.122 105.232 131.781 105.349 131.525 105.584C131.29 105.797 131.173 106.085 131.173 106.448C131.173 106.704 131.237 106.949 131.365 107.184C131.514 107.419 131.824 107.685 132.293 107.984C132.784 108.261 133.53 108.613 134.533 109.04C135.749 109.531 136.698 110 137.381 110.448C138.085 110.896 138.586 111.376 138.885 111.888C139.184 112.4 139.333 113.019 139.333 113.744C139.333 114.704 139.045 115.525 138.469 116.208C137.914 116.891 137.114 117.413 136.069 117.776C135.024 118.117 133.765 118.288 132.293 118.288C130.949 118.288 129.829 118.192 128.933 118C128.037 117.808 127.162 117.541 126.309 117.2C126.373 116.773 126.416 116.325 126.437 115.856C126.458 115.365 126.458 114.896 126.437 114.448C126.437 113.979 126.416 113.573 126.373 113.232C126.693 113.019 127.12 112.869 127.653 112.784C128.208 112.677 128.72 112.624 129.189 112.624C129.317 113.733 129.637 114.576 130.149 115.152C130.682 115.707 131.333 115.984 132.101 115.984C132.634 115.984 133.072 115.867 133.413 115.632C133.776 115.397 133.957 115.056 133.957 114.608C133.957 114.288 133.872 114.011 133.701 113.776C133.552 113.52 133.264 113.275 132.837 113.04C132.432 112.784 131.824 112.507 131.013 112.208C130.074 111.845 129.264 111.461 128.581 111.056C127.898 110.651 127.365 110.149 126.981 109.552C126.618 108.955 126.437 108.187 126.437 107.248C126.437 106.523 126.586 105.904 126.885 105.392C127.205 104.859 127.653 104.421 128.229 104.08C128.805 103.739 129.466 103.483 130.213 103.312C130.981 103.141 131.802 103.056 132.677 103.056C133.872 103.056 134.885 103.141 135.717 103.312C136.549 103.461 137.328 103.707 138.053 104.048ZM152.28 118.288C151.874 118.139 151.586 117.915 151.416 117.616C151.245 117.317 151.16 116.923 151.16 116.432C151.16 116.155 151.192 115.824 151.256 115.44C151.32 115.035 151.416 114.651 151.544 114.288L151.672 114.16C151.48 114.821 151.234 115.397 150.936 115.888C150.637 116.357 150.285 116.752 149.88 117.072C149.432 117.456 148.888 117.744 148.248 117.936C147.608 118.128 146.872 118.224 146.04 118.224C144.568 118.224 143.416 117.915 142.584 117.296C141.752 116.677 141.336 115.771 141.336 114.576C141.336 113.765 141.517 113.072 141.88 112.496C142.264 111.899 142.776 111.397 143.416 110.992C144.077 110.565 144.802 110.224 145.592 109.968C146.402 109.712 147.234 109.509 148.088 109.36C148.962 109.189 149.816 109.04 150.648 108.912C150.648 108.4 150.626 107.952 150.584 107.568C150.562 107.184 150.498 106.853 150.392 106.576C150.306 106.277 150.157 106.021 149.944 105.808C149.709 105.531 149.432 105.339 149.112 105.232C148.813 105.125 148.514 105.072 148.216 105.072C147.682 105.072 147.245 105.232 146.904 105.552C146.562 105.872 146.306 106.309 146.136 106.864C145.965 107.397 145.848 107.984 145.784 108.624C145.165 108.624 144.61 108.603 144.12 108.56C143.629 108.517 143.181 108.411 142.776 108.24C142.818 107.643 142.829 107.013 142.808 106.352C142.786 105.691 142.701 104.997 142.552 104.272C143.469 103.888 144.546 103.589 145.784 103.376C147.021 103.141 148.205 103.024 149.336 103.024C150.744 103.024 151.853 103.184 152.664 103.504C153.474 103.803 154.082 104.155 154.488 104.56C154.914 104.987 155.256 105.595 155.512 106.384C155.789 107.152 155.928 108.293 155.928 109.808V112.272C155.928 112.997 155.97 113.552 156.056 113.936C156.141 114.32 156.312 114.587 156.568 114.736C156.845 114.864 157.24 114.939 157.752 114.96C157.816 115.365 157.826 115.76 157.784 116.144C157.741 116.528 157.634 116.891 157.464 117.232C156.589 117.253 155.704 117.349 154.808 117.52C153.912 117.691 153.069 117.947 152.28 118.288ZM147.928 115.184C148.354 115.184 148.77 115.056 149.176 114.8C149.602 114.523 149.954 114.107 150.232 113.552C150.509 112.997 150.648 112.315 150.648 111.504V110.768C149.986 110.896 149.389 111.045 148.856 111.216C148.344 111.387 147.917 111.579 147.576 111.792C147.234 112.005 146.978 112.261 146.808 112.56C146.637 112.859 146.552 113.211 146.552 113.616C146.552 114.171 146.68 114.576 146.936 114.832C147.213 115.067 147.544 115.184 147.928 115.184ZM165.765 114.736C166.106 115.205 166.469 115.568 166.853 115.824C167.258 116.08 167.738 116.208 168.293 116.208C168.677 116.208 169.082 116.133 169.509 115.984C169.935 115.835 170.341 115.557 170.725 115.152C171.109 114.725 171.407 114.139 171.621 113.392C171.855 112.645 171.973 111.675 171.973 110.48C171.973 109.627 171.866 108.859 171.653 108.176C171.461 107.472 171.162 106.917 170.757 106.512C170.351 106.107 169.829 105.904 169.189 105.904C168.698 105.904 168.207 106.075 167.717 106.416C167.247 106.736 166.853 107.28 166.533 108.048C166.234 108.795 166.085 109.808 166.085 111.088V115.664L165.765 114.736ZM168.325 118.288C167.194 118.288 166.074 118.192 164.965 118C163.877 117.808 162.895 117.541 162.021 117.2C161.167 116.837 160.517 116.432 160.069 115.984C160.325 115.664 160.506 115.248 160.613 114.736C160.741 114.203 160.805 113.509 160.805 112.656V100.464C160.805 99.9733 160.741 99.568 160.613 99.248C160.506 98.928 160.282 98.6933 159.941 98.544C159.599 98.3733 159.098 98.2667 158.437 98.224C158.437 97.8613 158.458 97.4987 158.501 97.136C158.565 96.752 158.671 96.4107 158.821 96.112C159.695 96.112 160.549 96.0587 161.381 95.952C162.213 95.8453 162.949 95.7173 163.589 95.568C164.25 95.3973 164.741 95.2267 165.061 95.056C165.381 95.184 165.626 95.3973 165.797 95.696C165.989 95.9947 166.085 96.4 166.085 96.912V103.152C166.085 103.792 166.063 104.304 166.021 104.688C165.978 105.051 165.903 105.456 165.797 105.904L165.445 108.112L164.677 107.824C165.061 106.928 165.423 106.235 165.765 105.744C166.106 105.232 166.437 104.848 166.757 104.592C167.013 104.357 167.343 104.123 167.749 103.888C168.175 103.653 168.655 103.461 169.189 103.312C169.743 103.141 170.319 103.056 170.917 103.056C172.154 103.056 173.253 103.291 174.213 103.76C175.173 104.208 175.93 104.923 176.485 105.904C177.061 106.885 177.349 108.144 177.349 109.68C177.349 111.387 176.965 112.891 176.197 114.192C175.45 115.472 174.405 116.475 173.061 117.2C171.717 117.925 170.138 118.288 168.325 118.288ZM179.081 118.096C179.081 117.648 179.102 117.243 179.145 116.88C179.187 116.496 179.251 116.165 179.337 115.888C180.19 115.845 180.755 115.643 181.033 115.28C181.31 114.896 181.449 114.171 181.449 113.104V100.208C181.449 99.7813 181.374 99.4293 181.225 99.152C181.097 98.8747 180.862 98.6613 180.521 98.512C180.179 98.3627 179.699 98.2667 179.081 98.224C179.081 97.8613 179.102 97.4987 179.145 97.136C179.209 96.752 179.315 96.4107 179.465 96.112C180.339 96.112 181.193 96.0587 182.025 95.952C182.857 95.8453 183.593 95.7173 184.233 95.568C184.894 95.3973 185.385 95.2267 185.705 95.056C186.025 95.184 186.27 95.3973 186.441 95.696C186.633 95.9947 186.729 96.4 186.729 96.912V113.104C186.729 114.171 186.867 114.896 187.145 115.28C187.422 115.643 187.966 115.845 188.777 115.888C188.862 116.165 188.915 116.496 188.937 116.88C188.979 117.264 189.001 117.669 189.001 118.096C188.723 118.075 188.318 118.053 187.785 118.032C187.251 118.032 186.654 118.021 185.993 118C185.353 118 184.702 118 184.041 118C183.401 118 182.75 118 182.089 118C181.427 118.021 180.83 118.032 180.297 118.032C179.763 118.053 179.358 118.075 179.081 118.096ZM198.933 118.288C197.013 118.288 195.456 117.957 194.261 117.296C193.088 116.635 192.224 115.739 191.669 114.608C191.115 113.477 190.837 112.208 190.837 110.8C190.837 109.221 191.147 107.856 191.765 106.704C192.384 105.552 193.28 104.656 194.453 104.016C195.627 103.376 197.003 103.056 198.581 103.056C200.16 103.056 201.461 103.355 202.485 103.952C203.509 104.528 204.267 105.339 204.757 106.384C205.269 107.408 205.547 108.603 205.589 109.968C205.419 110.672 205.109 111.237 204.661 111.664C204.043 111.664 203.339 111.664 202.549 111.664C201.76 111.664 200.928 111.675 200.053 111.696C199.2 111.696 198.325 111.717 197.429 111.76C196.555 111.803 195.712 111.856 194.901 111.92V109.616H200.789C200.789 108.165 200.597 107.067 200.213 106.32C199.851 105.573 199.296 105.2 198.549 105.2C198.059 105.2 197.621 105.381 197.237 105.744C196.875 106.085 196.597 106.608 196.405 107.312C196.213 107.995 196.117 108.848 196.117 109.872C196.117 110.981 196.256 111.973 196.533 112.848C196.811 113.723 197.269 114.405 197.909 114.896C198.549 115.387 199.413 115.632 200.501 115.632C201.248 115.632 201.995 115.504 202.741 115.248C203.488 114.992 204.107 114.661 204.597 114.256C204.811 114.384 205.003 114.64 205.173 115.024C205.344 115.387 205.429 115.76 205.429 116.144C204.597 116.848 203.648 117.381 202.581 117.744C201.536 118.107 200.32 118.288 198.933 118.288Z" fill="#5F260E"/>
<circle cx="109" cy="113.5" r="103" fill="#FAEAA3"/>
<g filter="url(#filter0_d_408_2202)">
<path d="M123.09 84.18C136.947 84.18 148.18 72.9468 148.18 59.09C148.18 45.2332 136.947 34 123.09 34C109.233 34 98 45.2332 98 59.09C98 72.9468 109.233 84.18 123.09 84.18Z" fill="url(#paint0_radial_408_2202)"/>
</g>
<g filter="url(#filter1_d_408_2202)">
<path d="M182.09 208.18C195.947 208.18 207.18 196.947 207.18 183.09C207.18 169.233 195.947 158 182.09 158C168.233 158 157 169.233 157 183.09C157 196.947 168.233 208.18 182.09 208.18Z" fill="url(#paint1_radial_408_2202)"/>
</g>
<g filter="url(#filter2_d_408_2202)">
<path d="M201.09 126.18C214.947 126.18 226.18 114.947 226.18 101.09C226.18 87.2332 214.947 76 201.09 76C187.233 76 176 87.2332 176 101.09C176 114.947 187.233 126.18 201.09 126.18Z" fill="url(#paint2_radial_408_2202)"/>
</g>
<g filter="url(#filter3_d_408_2202)">
<path d="M90.09 242.18C103.947 242.18 115.18 230.947 115.18 217.09C115.18 203.233 103.947 192 90.09 192C76.2332 192 65 203.233 65 217.09C65 230.947 76.2332 242.18 90.09 242.18Z" fill="url(#paint3_radial_408_2202)"/>
</g>
<g filter="url(#filter4_d_408_2202)">
<path d="M31.09 54.18C44.9468 54.18 56.18 42.9468 56.18 29.09C56.18 15.2332 44.9468 4 31.09 4C17.2332 4 6 15.2332 6 29.09C6 42.9468 17.2332 54.18 31.09 54.18Z" fill="url(#paint4_radial_408_2202)"/>
</g>
<g filter="url(#filter5_d_408_2202)">
<path d="M21.704 113.612C21.704 114.529 21.8 115.255 21.992 115.788C22.2053 116.3 22.5467 116.684 23.016 116.94C23.5067 117.175 24.1787 117.324 25.032 117.388C25.1387 117.687 25.2027 118.039 25.224 118.444C25.2667 118.828 25.288 119.212 25.288 119.596C24.904 119.575 24.4133 119.553 23.816 119.532C23.2187 119.532 22.5787 119.521 21.896 119.5C21.2347 119.5 20.584 119.5 19.944 119.5C18.8987 119.5 17.8213 119.5 16.712 119.5C15.6027 119.521 14.7173 119.553 14.056 119.596C14.056 119.084 14.0667 118.657 14.088 118.316C14.1307 117.953 14.1947 117.644 14.28 117.388C14.856 117.345 15.2933 117.239 15.592 117.068C15.912 116.876 16.1253 116.545 16.232 116.076C16.36 115.607 16.424 114.913 16.424 113.996V112.236H21.704V113.612ZM21.704 110.06V112.876H16.424V109.42L21.704 106.444C21.704 106.871 21.64 107.351 21.512 107.884C21.4053 108.417 21.256 109.089 21.064 109.9L21.704 110.06ZM21 109.996C21.1493 109.569 21.32 109.089 21.512 108.556C21.704 108.001 21.8747 107.596 22.024 107.34C22.4933 106.593 23.08 105.975 23.784 105.484C24.488 104.993 25.2667 104.748 26.12 104.748C26.952 104.748 27.72 105.004 28.424 105.516C28.36 105.964 28.296 106.487 28.232 107.084C28.168 107.681 28.1253 108.289 28.104 108.908C28.104 109.505 28.1147 110.049 28.136 110.54C27.7733 110.689 27.2933 110.796 26.696 110.86C26.0987 110.903 25.5867 110.924 25.16 110.924C25.1173 110.156 24.9893 109.612 24.776 109.292C24.5627 108.951 24.2427 108.78 23.816 108.78C23.5173 108.78 23.1973 108.961 22.856 109.324C22.536 109.687 22.2587 110.156 22.024 110.732C21.8107 111.287 21.704 111.884 21.704 112.524L21 109.996ZM16.424 112.876V110.412C16.424 109.751 16.3813 109.239 16.296 108.876C16.2107 108.513 15.9973 108.247 15.656 108.076C15.336 107.884 14.824 107.767 14.12 107.724C14.12 107.361 14.1413 106.999 14.184 106.636C14.248 106.252 14.3547 105.911 14.504 105.612C15.848 105.612 17.0853 105.505 18.216 105.292C19.368 105.057 20.2 104.812 20.712 104.556C21.032 104.684 21.2773 104.897 21.448 105.196C21.6187 105.495 21.704 105.911 21.704 106.444L16.424 112.876ZM38.1208 119.788C36.2008 119.788 34.6434 119.457 33.4488 118.796C32.2754 118.135 31.4114 117.239 30.8568 116.108C30.3021 114.977 30.0247 113.708 30.0247 112.3C30.0247 110.721 30.3341 109.356 30.9528 108.204C31.5714 107.052 32.4674 106.156 33.6408 105.516C34.8141 104.876 36.1901 104.556 37.7688 104.556C39.3474 104.556 40.6488 104.855 41.6728 105.452C42.6968 106.028 43.4541 106.839 43.9448 107.884C44.4568 108.908 44.7341 110.103 44.7768 111.468C44.6061 112.172 44.2968 112.737 43.8488 113.164C43.2301 113.164 42.5261 113.164 41.7368 113.164C40.9474 113.164 40.1154 113.175 39.2408 113.196C38.3874 113.196 37.5128 113.217 36.6168 113.26C35.7421 113.303 34.8994 113.356 34.0888 113.42V111.116H39.9768C39.9768 109.665 39.7848 108.567 39.4008 107.82C39.0381 107.073 38.4834 106.7 37.7368 106.7C37.2461 106.7 36.8088 106.881 36.4248 107.244C36.0621 107.585 35.7848 108.108 35.5928 108.812C35.4008 109.495 35.3048 110.348 35.3048 111.372C35.3048 112.481 35.4434 113.473 35.7208 114.348C35.9981 115.223 36.4568 115.905 37.0968 116.396C37.7368 116.887 38.6008 117.132 39.6888 117.132C40.4354 117.132 41.1821 117.004 41.9288 116.748C42.6754 116.492 43.2941 116.161 43.7848 115.756C43.9981 115.884 44.1901 116.14 44.3608 116.524C44.5314 116.887 44.6168 117.26 44.6168 117.644C43.7848 118.348 42.8354 118.881 41.7688 119.244C40.7234 119.607 39.5074 119.788 38.1208 119.788ZM58.7718 105.548C58.7504 106.103 58.7398 106.679 58.7398 107.276C58.7611 107.852 58.8144 108.417 58.8998 108.972C58.5798 109.143 58.1638 109.292 57.6518 109.42C57.1611 109.548 56.6598 109.612 56.1478 109.612C56.0838 109.079 55.9344 108.599 55.6998 108.172C55.4864 107.724 55.1771 107.372 54.7718 107.116C54.3878 106.86 53.8864 106.732 53.2678 106.732C52.8411 106.732 52.4998 106.849 52.2438 107.084C52.0091 107.297 51.8918 107.585 51.8918 107.948C51.8918 108.204 51.9558 108.449 52.0838 108.684C52.2331 108.919 52.5424 109.185 53.0118 109.484C53.5024 109.761 54.2491 110.113 55.2517 110.54C56.4678 111.031 57.4171 111.5 58.0998 111.948C58.8038 112.396 59.3051 112.876 59.6038 113.388C59.9024 113.9 60.0518 114.519 60.0518 115.244C60.0518 116.204 59.7638 117.025 59.1878 117.708C58.6331 118.391 57.8331 118.913 56.7878 119.276C55.7424 119.617 54.4838 119.788 53.0118 119.788C51.6678 119.788 50.5478 119.692 49.6518 119.5C48.7558 119.308 47.8811 119.041 47.0278 118.7C47.0918 118.273 47.1344 117.825 47.1558 117.356C47.1771 116.865 47.1771 116.396 47.1558 115.948C47.1558 115.479 47.1344 115.073 47.0918 114.732C47.4118 114.519 47.8384 114.369 48.3718 114.284C48.9264 114.177 49.4384 114.124 49.9078 114.124C50.0358 115.233 50.3558 116.076 50.8678 116.652C51.4011 117.207 52.0518 117.484 52.8198 117.484C53.3531 117.484 53.7904 117.367 54.1318 117.132C54.4944 116.897 54.6758 116.556 54.6758 116.108C54.6758 115.788 54.5904 115.511 54.4198 115.276C54.2704 115.02 53.9824 114.775 53.5558 114.54C53.1504 114.284 52.5424 114.007 51.7318 113.708C50.7931 113.345 49.9824 112.961 49.2998 112.556C48.6171 112.151 48.0838 111.649 47.6998 111.052C47.3371 110.455 47.1558 109.687 47.1558 108.748C47.1558 108.023 47.3051 107.404 47.6038 106.892C47.9238 106.359 48.3718 105.921 48.9478 105.58C49.5238 105.239 50.1851 104.983 50.9318 104.812C51.6998 104.641 52.5211 104.556 53.3958 104.556C54.5904 104.556 55.6038 104.641 56.4358 104.812C57.2678 104.961 58.0464 105.207 58.7718 105.548ZM61.6497 127.34C61.6497 126.828 61.6604 126.391 61.6818 126.028C61.7244 125.687 61.7884 125.388 61.8738 125.132C62.4498 125.089 62.8871 124.972 63.1858 124.78C63.5058 124.609 63.7191 124.289 63.8258 123.82C63.9538 123.351 64.0178 122.657 64.0178 121.74V110.412C64.0178 109.751 63.9751 109.239 63.8898 108.876C63.8044 108.513 63.5911 108.247 63.2498 108.076C62.9298 107.884 62.4178 107.767 61.7138 107.724C61.7138 107.361 61.7351 106.999 61.7778 106.636C61.8418 106.252 61.9484 105.911 62.0978 105.612C63.4418 105.612 64.6791 105.505 65.8098 105.292C66.9618 105.057 67.7938 104.812 68.3058 104.556C68.6258 104.684 68.8711 104.897 69.0417 105.196C69.2124 105.495 69.2978 105.911 69.2978 106.444C69.2978 106.657 69.2444 106.945 69.1378 107.308C69.0311 107.671 68.8711 108.087 68.6578 108.556L69.2978 109.228V121.356C69.2978 122.273 69.3938 122.988 69.5858 123.5C69.7991 124.033 70.1404 124.417 70.6098 124.652C71.1004 124.908 71.7724 125.068 72.6258 125.132C72.7324 125.431 72.7964 125.772 72.8178 126.156C72.8604 126.561 72.8818 126.956 72.8818 127.34C72.4978 127.319 72.0071 127.297 71.4098 127.276C70.8124 127.276 70.1724 127.265 69.4898 127.244C68.8284 127.244 68.1778 127.244 67.5378 127.244C66.4924 127.244 65.4151 127.244 64.3058 127.244C63.1964 127.265 62.3111 127.297 61.6497 127.34ZM71.5058 119.788C71.0578 119.788 70.6418 119.756 70.2578 119.692C69.8738 119.628 69.4471 119.543 68.9778 119.436V116.236C69.3191 116.705 69.6818 117.068 70.0658 117.324C70.4711 117.58 70.9511 117.708 71.5058 117.708C71.8898 117.708 72.2951 117.633 72.7218 117.484C73.1484 117.335 73.5538 117.057 73.9378 116.652C74.3218 116.247 74.6204 115.671 74.8338 114.924C75.0684 114.156 75.1858 113.175 75.1858 111.98C75.1858 111.191 75.0898 110.455 74.8978 109.772C74.7271 109.068 74.4391 108.503 74.0338 108.076C73.6498 107.628 73.1164 107.404 72.4338 107.404C71.9218 107.404 71.4204 107.575 70.9298 107.916C70.4604 108.236 70.0658 108.78 69.7458 109.548C69.4471 110.295 69.2978 111.297 69.2978 112.556L67.9218 109.324C68.2844 108.428 68.6364 107.735 68.9778 107.244C69.3191 106.732 69.6498 106.348 69.9698 106.092C70.2258 105.857 70.5564 105.623 70.9618 105.388C71.3884 105.153 71.8684 104.961 72.4018 104.812C72.9564 104.641 73.5324 104.556 74.1298 104.556C75.3884 104.556 76.4871 104.791 77.4258 105.26C78.3858 105.708 79.1431 106.412 79.6978 107.372C80.2738 108.332 80.5618 109.58 80.5618 111.116C80.5618 112.844 80.1778 114.359 79.4097 115.66C78.6631 116.961 77.6071 117.975 76.2418 118.7C74.8978 119.425 73.3191 119.788 71.5058 119.788ZM90.8738 119.788C89.0818 119.788 87.5671 119.489 86.3298 118.892C85.1138 118.273 84.1964 117.409 83.5778 116.3C82.9591 115.191 82.6497 113.889 82.6497 112.396C82.6497 110.668 83.0124 109.228 83.7378 108.076C84.4844 106.903 85.4978 106.028 86.7778 105.452C88.0578 104.855 89.4978 104.556 91.0978 104.556C92.9324 104.556 94.4578 104.876 95.6738 105.516C96.9111 106.156 97.8391 107.031 98.4578 108.14C99.0764 109.249 99.3858 110.529 99.3858 111.98C99.3858 113.58 99.0444 114.967 98.3618 116.14C97.6791 117.313 96.6978 118.22 95.4178 118.86C94.1378 119.479 92.6231 119.788 90.8738 119.788ZM91.3858 117.548C92.2604 117.548 92.9218 117.1 93.3698 116.204C93.8178 115.308 94.0418 114.199 94.0418 112.876C94.0418 111.489 93.8818 110.337 93.5618 109.42C93.2418 108.503 92.8258 107.82 92.3138 107.372C91.8018 106.903 91.2471 106.668 90.6498 106.668C89.7324 106.668 89.0604 107.116 88.6338 108.012C88.2071 108.908 87.9938 110.007 87.9938 111.308C87.9938 112.481 88.1218 113.548 88.3778 114.508C88.6338 115.447 89.0178 116.193 89.5298 116.748C90.0418 117.281 90.6604 117.548 91.3858 117.548ZM103.612 112.876V110.412C103.612 109.751 103.569 109.239 103.484 108.876C103.398 108.513 103.185 108.247 102.844 108.076C102.524 107.884 102.012 107.767 101.308 107.724C101.308 107.361 101.329 106.999 101.372 106.636C101.436 106.252 101.542 105.911 101.692 105.612C103.036 105.612 104.273 105.505 105.404 105.292C106.556 105.057 107.388 104.812 107.9 104.556C108.22 104.684 108.465 104.897 108.635 105.196C108.806 105.495 108.892 105.911 108.892 106.444L103.612 112.876ZM119.324 114.604C119.324 115.671 119.43 116.407 119.644 116.812C119.857 117.196 120.252 117.388 120.828 117.388C120.956 117.687 121.03 118.017 121.052 118.38C121.094 118.721 121.116 119.127 121.116 119.596C120.646 119.575 120.006 119.553 119.196 119.532C118.406 119.511 117.649 119.5 116.924 119.5C116.433 119.5 115.868 119.5 115.228 119.5C114.588 119.521 113.98 119.532 113.404 119.532C112.828 119.553 112.38 119.575 112.06 119.596C112.06 119.191 112.07 118.807 112.092 118.444C112.134 118.06 112.22 117.708 112.348 117.388C112.881 117.388 113.297 117.175 113.596 116.748C113.894 116.3 114.044 115.5 114.044 114.348V111.468C114.044 110.167 113.852 109.271 113.468 108.78C113.084 108.268 112.529 108.012 111.804 108.012C111.292 108.012 110.812 108.215 110.364 108.62C109.916 109.025 109.553 109.601 109.276 110.348C109.02 111.095 108.892 112.001 108.892 113.068V114.604C108.892 115.692 109.03 116.428 109.308 116.812C109.585 117.196 110.001 117.388 110.556 117.388C110.705 117.729 110.79 118.071 110.812 118.412C110.854 118.753 110.876 119.148 110.876 119.596C110.556 119.575 110.129 119.553 109.595 119.532C109.062 119.532 108.497 119.521 107.9 119.5C107.302 119.5 106.758 119.5 106.268 119.5C105.777 119.5 105.201 119.5 104.54 119.5C103.878 119.521 103.238 119.532 102.62 119.532C102.022 119.553 101.564 119.575 101.243 119.596C101.243 119.148 101.265 118.732 101.308 118.348C101.372 117.964 101.446 117.644 101.532 117.388C102.364 117.388 102.918 117.196 103.196 116.812C103.473 116.407 103.612 115.671 103.612 114.604V110.412L108.892 106.444C108.892 106.7 108.86 106.999 108.796 107.34C108.732 107.66 108.646 108.001 108.54 108.364C108.689 108.023 108.838 107.703 108.988 107.404C109.158 107.105 109.361 106.828 109.595 106.572C110.065 106.06 110.673 105.623 111.42 105.26C112.188 104.897 113.041 104.716 113.98 104.716C114.918 104.716 115.793 104.887 116.604 105.228C117.414 105.569 118.065 106.124 118.556 106.892C119.068 107.66 119.324 108.673 119.324 109.932V114.604ZM135.053 105.548C135.032 106.103 135.021 106.679 135.021 107.276C135.042 107.852 135.096 108.417 135.181 108.972C134.861 109.143 134.445 109.292 133.933 109.42C133.442 109.548 132.941 109.612 132.429 109.612C132.365 109.079 132.216 108.599 131.981 108.172C131.768 107.724 131.458 107.372 131.053 107.116C130.669 106.86 130.168 106.732 129.549 106.732C129.122 106.732 128.781 106.849 128.525 107.084C128.29 107.297 128.173 107.585 128.173 107.948C128.173 108.204 128.237 108.449 128.365 108.684C128.514 108.919 128.824 109.185 129.293 109.484C129.784 109.761 130.53 110.113 131.533 110.54C132.749 111.031 133.698 111.5 134.381 111.948C135.085 112.396 135.586 112.876 135.885 113.388C136.184 113.9 136.333 114.519 136.333 115.244C136.333 116.204 136.045 117.025 135.469 117.708C134.914 118.391 134.114 118.913 133.069 119.276C132.024 119.617 130.765 119.788 129.293 119.788C127.949 119.788 126.829 119.692 125.933 119.5C125.037 119.308 124.162 119.041 123.309 118.7C123.373 118.273 123.416 117.825 123.437 117.356C123.458 116.865 123.458 116.396 123.437 115.948C123.437 115.479 123.416 115.073 123.373 114.732C123.693 114.519 124.12 114.369 124.653 114.284C125.208 114.177 125.72 114.124 126.189 114.124C126.317 115.233 126.637 116.076 127.149 116.652C127.682 117.207 128.333 117.484 129.101 117.484C129.634 117.484 130.072 117.367 130.413 117.132C130.776 116.897 130.957 116.556 130.957 116.108C130.957 115.788 130.872 115.511 130.701 115.276C130.552 115.02 130.264 114.775 129.837 114.54C129.432 114.284 128.824 114.007 128.013 113.708C127.074 113.345 126.264 112.961 125.581 112.556C124.898 112.151 124.365 111.649 123.981 111.052C123.618 110.455 123.437 109.687 123.437 108.748C123.437 108.023 123.586 107.404 123.885 106.892C124.205 106.359 124.653 105.921 125.229 105.58C125.805 105.239 126.466 104.983 127.213 104.812C127.981 104.641 128.802 104.556 129.677 104.556C130.872 104.556 131.885 104.641 132.717 104.812C133.549 104.961 134.328 105.207 135.053 105.548ZM149.28 119.788C148.874 119.639 148.586 119.415 148.416 119.116C148.245 118.817 148.16 118.423 148.16 117.932C148.16 117.655 148.192 117.324 148.256 116.94C148.32 116.535 148.416 116.151 148.544 115.788L148.672 115.66C148.48 116.321 148.234 116.897 147.936 117.388C147.637 117.857 147.285 118.252 146.88 118.572C146.432 118.956 145.888 119.244 145.248 119.436C144.608 119.628 143.872 119.724 143.04 119.724C141.568 119.724 140.416 119.415 139.584 118.796C138.752 118.177 138.336 117.271 138.336 116.076C138.336 115.265 138.517 114.572 138.88 113.996C139.264 113.399 139.776 112.897 140.416 112.492C141.077 112.065 141.802 111.724 142.592 111.468C143.402 111.212 144.234 111.009 145.088 110.86C145.962 110.689 146.816 110.54 147.648 110.412C147.648 109.9 147.626 109.452 147.584 109.068C147.562 108.684 147.498 108.353 147.392 108.076C147.306 107.777 147.157 107.521 146.944 107.308C146.709 107.031 146.432 106.839 146.112 106.732C145.813 106.625 145.514 106.572 145.216 106.572C144.682 106.572 144.245 106.732 143.904 107.052C143.562 107.372 143.306 107.809 143.136 108.364C142.965 108.897 142.848 109.484 142.784 110.124C142.165 110.124 141.61 110.103 141.12 110.06C140.629 110.017 140.181 109.911 139.776 109.74C139.818 109.143 139.829 108.513 139.808 107.852C139.786 107.191 139.701 106.497 139.552 105.772C140.469 105.388 141.546 105.089 142.784 104.876C144.021 104.641 145.205 104.524 146.336 104.524C147.744 104.524 148.853 104.684 149.664 105.004C150.474 105.303 151.082 105.655 151.488 106.06C151.914 106.487 152.256 107.095 152.512 107.884C152.789 108.652 152.928 109.793 152.928 111.308V113.772C152.928 114.497 152.97 115.052 153.056 115.436C153.141 115.82 153.312 116.087 153.568 116.236C153.845 116.364 154.24 116.439 154.752 116.46C154.816 116.865 154.826 117.26 154.784 117.644C154.741 118.028 154.634 118.391 154.464 118.732C153.589 118.753 152.704 118.849 151.808 119.02C150.912 119.191 150.069 119.447 149.28 119.788ZM144.928 116.684C145.354 116.684 145.77 116.556 146.176 116.3C146.602 116.023 146.954 115.607 147.232 115.052C147.509 114.497 147.648 113.815 147.648 113.004V112.268C146.986 112.396 146.389 112.545 145.856 112.716C145.344 112.887 144.917 113.079 144.576 113.292C144.234 113.505 143.978 113.761 143.808 114.06C143.637 114.359 143.552 114.711 143.552 115.116C143.552 115.671 143.68 116.076 143.936 116.332C144.213 116.567 144.544 116.684 144.928 116.684ZM162.765 116.236C163.106 116.705 163.469 117.068 163.853 117.324C164.258 117.58 164.738 117.708 165.293 117.708C165.677 117.708 166.082 117.633 166.509 117.484C166.935 117.335 167.341 117.057 167.725 116.652C168.109 116.225 168.407 115.639 168.621 114.892C168.855 114.145 168.973 113.175 168.973 111.98C168.973 111.127 168.866 110.359 168.653 109.676C168.461 108.972 168.162 108.417 167.757 108.012C167.351 107.607 166.829 107.404 166.189 107.404C165.698 107.404 165.207 107.575 164.717 107.916C164.247 108.236 163.853 108.78 163.533 109.548C163.234 110.295 163.085 111.308 163.085 112.588V117.164L162.765 116.236ZM165.325 119.788C164.194 119.788 163.074 119.692 161.965 119.5C160.877 119.308 159.895 119.041 159.021 118.7C158.167 118.337 157.517 117.932 157.069 117.484C157.325 117.164 157.506 116.748 157.613 116.236C157.741 115.703 157.805 115.009 157.805 114.156V101.964C157.805 101.473 157.741 101.068 157.613 100.748C157.506 100.428 157.282 100.193 156.941 100.044C156.599 99.8733 156.098 99.7667 155.437 99.724C155.437 99.3613 155.458 98.9987 155.501 98.636C155.565 98.252 155.671 97.9107 155.821 97.612C156.695 97.612 157.549 97.5587 158.381 97.452C159.213 97.3453 159.949 97.2173 160.589 97.068C161.25 96.8973 161.741 96.7267 162.061 96.556C162.381 96.684 162.626 96.8973 162.797 97.196C162.989 97.4947 163.085 97.9 163.085 98.412V104.652C163.085 105.292 163.063 105.804 163.021 106.188C162.978 106.551 162.903 106.956 162.797 107.404L162.445 109.612L161.677 109.324C162.061 108.428 162.423 107.735 162.765 107.244C163.106 106.732 163.437 106.348 163.757 106.092C164.013 105.857 164.343 105.623 164.749 105.388C165.175 105.153 165.655 104.961 166.189 104.812C166.743 104.641 167.319 104.556 167.917 104.556C169.154 104.556 170.253 104.791 171.213 105.26C172.173 105.708 172.93 106.423 173.485 107.404C174.061 108.385 174.349 109.644 174.349 111.18C174.349 112.887 173.965 114.391 173.197 115.692C172.45 116.972 171.405 117.975 170.061 118.7C168.717 119.425 167.138 119.788 165.325 119.788ZM176.081 119.596C176.081 119.148 176.102 118.743 176.145 118.38C176.187 117.996 176.251 117.665 176.337 117.388C177.19 117.345 177.755 117.143 178.033 116.78C178.31 116.396 178.449 115.671 178.449 114.604V101.708C178.449 101.281 178.374 100.929 178.225 100.652C178.097 100.375 177.862 100.161 177.521 100.012C177.179 99.8627 176.699 99.7667 176.081 99.724C176.081 99.3613 176.102 98.9987 176.145 98.636C176.209 98.252 176.315 97.9107 176.465 97.612C177.339 97.612 178.193 97.5587 179.025 97.452C179.857 97.3453 180.593 97.2173 181.233 97.068C181.894 96.8973 182.385 96.7267 182.705 96.556C183.025 96.684 183.27 96.8973 183.441 97.196C183.633 97.4947 183.729 97.9 183.729 98.412V114.604C183.729 115.671 183.867 116.396 184.145 116.78C184.422 117.143 184.966 117.345 185.777 117.388C185.862 117.665 185.915 117.996 185.937 118.38C185.979 118.764 186.001 119.169 186.001 119.596C185.723 119.575 185.318 119.553 184.785 119.532C184.251 119.532 183.654 119.521 182.993 119.5C182.353 119.5 181.702 119.5 181.041 119.5C180.401 119.5 179.75 119.5 179.089 119.5C178.427 119.521 177.83 119.532 177.297 119.532C176.763 119.553 176.358 119.575 176.081 119.596ZM195.933 119.788C194.013 119.788 192.456 119.457 191.261 118.796C190.088 118.135 189.224 117.239 188.669 116.108C188.115 114.977 187.837 113.708 187.837 112.3C187.837 110.721 188.147 109.356 188.765 108.204C189.384 107.052 190.28 106.156 191.453 105.516C192.627 104.876 194.003 104.556 195.581 104.556C197.16 104.556 198.461 104.855 199.485 105.452C200.509 106.028 201.267 106.839 201.757 107.884C202.269 108.908 202.547 110.103 202.589 111.468C202.419 112.172 202.109 112.737 201.661 113.164C201.043 113.164 200.339 113.164 199.549 113.164C198.76 113.164 197.928 113.175 197.053 113.196C196.2 113.196 195.325 113.217 194.429 113.26C193.555 113.303 192.712 113.356 191.901 113.42V111.116H197.789C197.789 109.665 197.597 108.567 197.213 107.82C196.851 107.073 196.296 106.7 195.549 106.7C195.059 106.7 194.621 106.881 194.237 107.244C193.875 107.585 193.597 108.108 193.405 108.812C193.213 109.495 193.117 110.348 193.117 111.372C193.117 112.481 193.256 113.473 193.533 114.348C193.811 115.223 194.269 115.905 194.909 116.396C195.549 116.887 196.413 117.132 197.501 117.132C198.248 117.132 198.995 117.004 199.741 116.748C200.488 116.492 201.107 116.161 201.597 115.756C201.811 115.884 202.003 116.14 202.173 116.524C202.344 116.887 202.429 117.26 202.429 117.644C201.597 118.348 200.648 118.881 199.581 119.244C198.536 119.607 197.32 119.788 195.933 119.788Z" fill="#5F260E"/>
</g>
<g filter="url(#filter6_d_408_2202)">
<path d="M65.09 170.18C78.9468 170.18 90.18 158.947 90.18 145.09C90.18 131.233 78.9468 120 65.09 120C51.2332 120 40 131.233 40 145.09C40 158.947 51.2332 170.18 65.09 170.18Z" fill="url(#paint5_radial_408_2202)"/>
</g>
<defs>
<filter id="filter0_d_408_2202" x="92" y="30" width="70.1802" height="70.1799" filterUnits="userSpaceOnUse" color-interpolation-filters="sRGB">
<feFlood flood-opacity="0" result="BackgroundImageFix"/>
<feColorMatrix in="SourceAlpha" type="matrix" values="0 0 0 0 0 0 0 0 0 0 0 0 0 0 0 0 0 0 127 0" result="hardAlpha"/>
<feOffset dx="4" dy="6"/>
<feGaussianBlur stdDeviation="5"/>
<feColorMatrix type="matrix" values="0 0 0 0 0.113725 0 0 0 0 0.113725 0 0 0 0 0.105882 0 0 0 0.5 0"/>
<feBlend mode="normal" in2="BackgroundImageFix" result="effect1_dropShadow_408_2202"/>
<feBlend mode="normal" in="SourceGraphic" in2="effect1_dropShadow_408_2202" result="shape"/>
</filter>
<filter id="filter1_d_408_2202" x="151" y="154" width="70.1802" height="70.1799" filterUnits="userSpaceOnUse" color-interpolation-filters="sRGB">
<feFlood flood-opacity="0" result="BackgroundImageFix"/>
<feColorMatrix in="SourceAlpha" type="matrix" values="0 0 0 0 0 0 0 0 0 0 0 0 0 0 0 0 0 0 127 0" result="hardAlpha"/>
<feOffset dx="4" dy="6"/>
<feGaussianBlur stdDeviation="5"/>
<feColorMatrix type="matrix" values="0 0 0 0 0.113725 0 0 0 0 0.113725 0 0 0 0 0.105882 0 0 0 0.5 0"/>
<feBlend mode="normal" in2="BackgroundImageFix" result="effect1_dropShadow_408_2202"/>
<feBlend mode="normal" in="SourceGraphic" in2="effect1_dropShadow_408_2202" result="shape"/>
</filter>
<filter id="filter2_d_408_2202" x="170" y="72" width="70.1802" height="70.1799" filterUnits="userSpaceOnUse" color-interpolation-filters="sRGB">
<feFlood flood-opacity="0" result="BackgroundImageFix"/>
<feColorMatrix in="SourceAlpha" type="matrix" values="0 0 0 0 0 0 0 0 0 0 0 0 0 0 0 0 0 0 127 0" result="hardAlpha"/>
<feOffset dx="4" dy="6"/>
<feGaussianBlur stdDeviation="5"/>
<feColorMatrix type="matrix" values="0 0 0 0 0.113725 0 0 0 0 0.113725 0 0 0 0 0.105882 0 0 0 0.5 0"/>
<feBlend mode="normal" in2="BackgroundImageFix" result="effect1_dropShadow_408_2202"/>
<feBlend mode="normal" in="SourceGraphic" in2="effect1_dropShadow_408_2202" result="shape"/>
</filter>
<filter id="filter3_d_408_2202" x="59" y="188" width="70.1802" height="70.1799" filterUnits="userSpaceOnUse" color-interpolation-filters="sRGB">
<feFlood flood-opacity="0" result="BackgroundImageFix"/>
<feColorMatrix in="SourceAlpha" type="matrix" values="0 0 0 0 0 0 0 0 0 0 0 0 0 0 0 0 0 0 127 0" result="hardAlpha"/>
<feOffset dx="4" dy="6"/>
<feGaussianBlur stdDeviation="5"/>
<feColorMatrix type="matrix" values="0 0 0 0 0.113725 0 0 0 0 0.113725 0 0 0 0 0.105882 0 0 0 0.5 0"/>
<feBlend mode="normal" in2="BackgroundImageFix" result="effect1_dropShadow_408_2202"/>
<feBlend mode="normal" in="SourceGraphic" in2="effect1_dropShadow_408_2202" result="shape"/>
</filter>
<filter id="filter4_d_408_2202" x="0" y="0" width="70.1802" height="70.1799" filterUnits="userSpaceOnUse" color-interpolation-filters="sRGB">
<feFlood flood-opacity="0" result="BackgroundImageFix"/>
<feColorMatrix in="SourceAlpha" type="matrix" values="0 0 0 0 0 0 0 0 0 0 0 0 0 0 0 0 0 0 127 0" result="hardAlpha"/>
<feOffset dx="4" dy="6"/>
<feGaussianBlur stdDeviation="5"/>
<feColorMatrix type="matrix" values="0 0 0 0 0.113725 0 0 0 0 0.113725 0 0 0 0 0.105882 0 0 0 0.5 0"/>
<feBlend mode="normal" in2="BackgroundImageFix" result="effect1_dropShadow_408_2202"/>
<feBlend mode="normal" in="SourceGraphic" in2="effect1_dropShadow_408_2202" result="shape"/>
</filter>
<filter id="filter5_d_408_2202" x="10.0562" y="95.5559" width="196.533" height="38.7842" filterUnits="userSpaceOnUse" color-interpolation-filters="sRGB">
<feFlood flood-opacity="0" result="BackgroundImageFix"/>
<feColorMatrix in="SourceAlpha" type="matrix" values="0 0 0 0 0 0 0 0 0 0 0 0 0 0 0 0 0 0 127 0" result="hardAlpha"/>
<feOffset dy="3"/>
<feGaussianBlur stdDeviation="2"/>
<feComposite in2="hardAlpha" operator="out"/>
<feColorMatrix type="matrix" values="0 0 0 0 0 0 0 0 0 0 0 0 0 0 0 0 0 0 0.3 0"/>
<feBlend mode="normal" in2="BackgroundImageFix" result="effect1_dropShadow_408_2202"/>
<feBlend mode="normal" in="SourceGraphic" in2="effect1_dropShadow_408_2202" result="shape"/>
</filter>
<filter id="filter6_d_408_2202" x="34" y="116" width="70.1802" height="70.1799" filterUnits="userSpaceOnUse" color-interpolation-filters="sRGB">
<feFlood flood-opacity="0" result="BackgroundImageFix"/>
<feColorMatrix in="SourceAlpha" type="matrix" values="0 0 0 0 0 0 0 0 0 0 0 0 0 0 0 0 0 0 127 0" result="hardAlpha"/>
<feOffset dx="4" dy="6"/>
<feGaussianBlur stdDeviation="5"/>
<feColorMatrix type="matrix" values="0 0 0 0 0.113725 0 0 0 0 0.113725 0 0 0 0 0.105882 0 0 0 0.5 0"/>
<feBlend mode="normal" in2="BackgroundImageFix" result="effect1_dropShadow_408_2202"/>
<feBlend mode="normal" in="SourceGraphic" in2="effect1_dropShadow_408_2202" result="shape"/>
</filter>
<radialGradient id="paint0_radial_408_2202" cx="0" cy="0" r="1" gradientUnits="userSpaceOnUse" gradientTransform="translate(123.09 59.09) scale(25.09 25.09)">
<stop stop-color="#FAEAA3"/>
<stop offset="0.135" stop-color="#FAEAA3"/>
<stop offset="0.53" stop-color="#FADD5D"/>
<stop offset="0.6925" stop-color="#F6D335"/>
<stop offset="0.985" stop-color="#DCB404"/>
</radialGradient>
<radialGradient id="paint1_radial_408_2202" cx="0" cy="0" r="1" gradientUnits="userSpaceOnUse" gradientTransform="translate(182.09 183.09) scale(25.09 25.09)">
<stop stop-color="#FAEAA3"/>
<stop offset="0.135" stop-color="#FAEAA3"/>
<stop offset="0.53" stop-color="#FADD5D"/>
<stop offset="0.6925" stop-color="#F6D335"/>
<stop offset="0.985" stop-color="#DCB404"/>
</radialGradient>
<radialGradient id="paint2_radial_408_2202" cx="0" cy="0" r="1" gradientUnits="userSpaceOnUse" gradientTransform="translate(201.09 101.09) scale(25.09 25.09)">
<stop stop-color="#F2CBB1"/>
<stop offset="0.365" stop-color="#ECA373"/>
<stop offset="0.685" stop-color="#F57926"/>
<stop offset="1" stop-color="#E1600A"/>
</radialGradient>
<radialGradient id="paint3_radial_408_2202" cx="0" cy="0" r="1" gradientUnits="userSpaceOnUse" gradientTransform="translate(90.09 217.09) scale(25.09 25.09)">
<stop stop-color="#F2CBB1"/>
<stop offset="0.365" stop-color="#ECA373"/>
<stop offset="0.685" stop-color="#F57926"/>
<stop offset="1" stop-color="#E1600A"/>
</radialGradient>
<radialGradient id="paint4_radial_408_2202" cx="0" cy="0" r="1" gradientUnits="userSpaceOnUse" gradientTransform="translate(31.09 29.09) scale(25.09 25.09)">
<stop stop-color="#F2CBB1"/>
<stop offset="0.365" stop-color="#ECA373"/>
<stop offset="0.685" stop-color="#F57926"/>
<stop offset="1" stop-color="#E1600A"/>
</radialGradient>
<radialGradient id="paint5_radial_408_2202" cx="0" cy="0" r="1" gradientUnits="userSpaceOnUse" gradientTransform="translate(65.09 145.09) scale(25.09 25.09)">
<stop stop-color="#FAEAA3"/>
<stop offset="0.135" stop-color="#FAEAA3"/>
<stop offset="0.53" stop-color="#FADD5D"/>
<stop offset="0.6925" stop-color="#F6D335"/>
<stop offset="0.985" stop-color="#DCB404"/>
</radialGradient>
</defs>
</svg>
