<svg width="252" height="228" viewBox="0 0 252 228" fill="none" xmlns="http://www.w3.org/2000/svg">
<circle cx="139" cy="103" r="103" fill="#D4EBFF"/>
<path d="M84.112 101.056C84.56 101.056 84.976 101.088 85.36 101.152C85.7653 101.216 86.1813 101.301 86.608 101.408V104.608C86.2667 104.139 85.8933 103.776 85.488 103.52C85.104 103.264 84.6347 103.136 84.08 103.136C83.696 103.136 83.2907 103.211 82.864 103.36C82.4373 103.509 82.032 103.787 81.648 104.192C81.2853 104.597 80.9867 105.184 80.752 105.952C80.5173 106.699 80.4 107.669 80.4 108.864C80.4 109.717 80.496 110.496 80.688 111.2C80.9013 111.883 81.2107 112.427 81.616 112.832C82.0427 113.237 82.5653 113.44 83.184 113.44C83.696 113.44 84.1867 113.28 84.656 112.96C85.1253 112.619 85.52 112.075 85.84 111.328C86.16 110.56 86.32 109.547 86.32 108.288L87.696 111.52C87.312 112.416 86.9493 113.12 86.608 113.632C86.288 114.123 85.9573 114.496 85.616 114.752C85.3813 114.987 85.0507 115.221 84.624 115.456C84.2187 115.691 83.7387 115.883 83.184 116.032C82.6507 116.203 82.0747 116.288 81.456 116.288C80.24 116.288 79.1413 116.064 78.16 115.616C77.2 115.147 76.4427 114.421 75.888 113.44C75.3333 112.459 75.056 111.2 75.056 109.664C75.056 107.957 75.4293 106.464 76.176 105.184C76.9227 103.883 77.9787 102.869 79.344 102.144C80.7093 101.419 82.2987 101.056 84.112 101.056ZM91.568 110.208C91.568 110.955 91.6107 111.531 91.696 111.936C91.7813 112.32 91.952 112.587 92.208 112.736C92.4853 112.864 92.8907 112.939 93.424 112.96C93.488 113.365 93.488 113.76 93.424 114.144C93.3813 114.528 93.2747 114.891 93.104 115.232C92.2293 115.253 91.3333 115.349 90.416 115.52C89.52 115.691 88.6773 115.947 87.888 116.288C87.4827 116.139 87.1947 115.925 87.024 115.648C86.8533 115.349 86.768 114.955 86.768 114.464C86.768 114.037 86.8213 113.6 86.928 113.152C87.0347 112.683 87.1733 112.192 87.344 111.68L91.568 110.208ZM91.568 97.792V111.808H86.32V97.792H91.568ZM90.544 93.056C90.864 93.184 91.1093 93.3973 91.28 93.696C91.472 93.9947 91.568 94.4 91.568 94.912V98.816H86.32V98.464C86.32 97.9733 86.256 97.568 86.128 97.248C86 96.928 85.7653 96.6933 85.424 96.544C85.0827 96.3733 84.5813 96.2667 83.92 96.224C83.92 95.8613 83.9413 95.4987 83.984 95.136C84.048 94.752 84.1547 94.4107 84.304 94.112C85.1787 94.112 86.032 94.0587 86.864 93.952C87.696 93.8453 88.432 93.7173 89.072 93.568C89.7333 93.3973 90.224 93.2267 90.544 93.056ZM95.1497 116.096C95.1497 115.648 95.1711 115.243 95.2138 114.88C95.2564 114.496 95.3204 114.165 95.4058 113.888C96.2591 113.845 96.8244 113.643 97.1018 113.28C97.3791 112.896 97.5178 112.171 97.5178 111.104V106.464C97.5178 105.973 97.4538 105.568 97.3258 105.248C97.2191 104.928 96.9951 104.693 96.6538 104.544C96.3124 104.373 95.8111 104.267 95.1497 104.224C95.1497 103.861 95.1711 103.499 95.2138 103.136C95.2778 102.752 95.3844 102.411 95.5338 102.112C96.4084 102.112 97.2618 102.059 98.0938 101.952C98.9258 101.845 99.6618 101.717 100.302 101.568C100.963 101.397 101.454 101.227 101.774 101.056C102.094 101.184 102.339 101.397 102.51 101.696C102.702 101.995 102.798 102.4 102.798 102.912V111.104C102.798 112.171 102.936 112.896 103.214 113.28C103.491 113.643 104.035 113.845 104.846 113.888C104.931 114.165 104.984 114.496 105.006 114.88C105.048 115.264 105.07 115.669 105.07 116.096C104.792 116.075 104.387 116.053 103.854 116.032C103.32 116.032 102.723 116.021 102.062 116C101.422 116 100.771 116 100.11 116C99.4698 116 98.8191 116 98.1578 116C97.4964 116.021 96.8991 116.032 96.3658 116.032C95.8538 116.053 95.4484 116.075 95.1497 116.096ZM99.7258 98.976C98.8511 98.976 98.1471 98.7627 97.6138 98.336C97.0804 97.888 96.8138 97.3013 96.8138 96.576C96.8138 95.744 97.1018 95.104 97.6778 94.656C98.2751 94.1867 99.0111 93.952 99.8858 93.952C100.888 93.952 101.646 94.176 102.158 94.624C102.691 95.072 102.958 95.712 102.958 96.544C102.958 97.248 102.67 97.8347 102.094 98.304C101.518 98.752 100.728 98.976 99.7258 98.976ZM119.022 102.048C119 102.603 118.99 103.179 118.99 103.776C119.011 104.352 119.064 104.917 119.15 105.472C118.83 105.643 118.414 105.792 117.902 105.92C117.411 106.048 116.91 106.112 116.398 106.112C116.334 105.579 116.184 105.099 115.95 104.672C115.736 104.224 115.427 103.872 115.022 103.616C114.638 103.36 114.136 103.232 113.518 103.232C113.091 103.232 112.75 103.349 112.494 103.584C112.259 103.797 112.142 104.085 112.142 104.448C112.142 104.704 112.206 104.949 112.334 105.184C112.483 105.419 112.792 105.685 113.262 105.984C113.752 106.261 114.499 106.613 115.502 107.04C116.718 107.531 117.667 108 118.35 108.448C119.054 108.896 119.555 109.376 119.854 109.888C120.152 110.4 120.302 111.019 120.302 111.744C120.302 112.704 120.014 113.525 119.438 114.208C118.883 114.891 118.083 115.413 117.038 115.776C115.992 116.117 114.734 116.288 113.262 116.288C111.918 116.288 110.798 116.192 109.902 116C109.006 115.808 108.131 115.541 107.278 115.2C107.342 114.773 107.384 114.325 107.406 113.856C107.427 113.365 107.427 112.896 107.406 112.448C107.406 111.979 107.384 111.573 107.342 111.232C107.662 111.019 108.088 110.869 108.622 110.784C109.176 110.677 109.688 110.624 110.158 110.624C110.286 111.733 110.606 112.576 111.118 113.152C111.651 113.707 112.302 113.984 113.07 113.984C113.603 113.984 114.04 113.867 114.382 113.632C114.744 113.397 114.926 113.056 114.926 112.608C114.926 112.288 114.84 112.011 114.67 111.776C114.52 111.52 114.232 111.275 113.806 111.04C113.4 110.784 112.792 110.507 111.982 110.208C111.043 109.845 110.232 109.461 109.55 109.056C108.867 108.651 108.334 108.149 107.95 107.552C107.587 106.955 107.406 106.187 107.406 105.248C107.406 104.523 107.555 103.904 107.854 103.392C108.174 102.859 108.622 102.421 109.198 102.08C109.774 101.739 110.435 101.483 111.182 101.312C111.95 101.141 112.771 101.056 113.646 101.056C114.84 101.056 115.854 101.141 116.686 101.312C117.518 101.461 118.296 101.707 119.022 102.048ZM135.841 114.368C135.286 114.987 134.529 115.467 133.569 115.808C132.63 116.128 131.563 116.288 130.369 116.288C128.79 116.288 127.393 116.011 126.177 115.456C124.982 114.901 124.043 114.069 123.361 112.96C122.699 111.851 122.368 110.443 122.368 108.736C122.368 107.456 122.657 106.229 123.233 105.056C123.809 103.883 124.662 102.923 125.793 102.176C126.945 101.429 128.374 101.056 130.081 101.056C131.297 101.056 132.342 101.173 133.217 101.408C134.113 101.621 134.913 101.941 135.617 102.368C135.489 102.965 135.393 103.584 135.329 104.224C135.286 104.864 135.265 105.6 135.265 106.432C134.859 106.603 134.39 106.731 133.857 106.816C133.345 106.88 132.854 106.912 132.385 106.912C132.342 105.675 132.118 104.747 131.713 104.128C131.307 103.488 130.785 103.168 130.145 103.168C129.313 103.168 128.673 103.648 128.225 104.608C127.798 105.547 127.585 106.773 127.585 108.288C127.585 109.163 127.723 110.016 128.001 110.848C128.299 111.659 128.758 112.331 129.377 112.864C129.995 113.376 130.806 113.632 131.809 113.632C132.491 113.632 133.11 113.547 133.665 113.376C134.219 113.184 134.699 112.928 135.105 112.608C135.318 112.8 135.489 113.056 135.617 113.376C135.766 113.675 135.841 114.005 135.841 114.368ZM145.204 110.112C145.204 111.029 145.3 111.755 145.492 112.288C145.705 112.8 146.047 113.184 146.516 113.44C147.007 113.675 147.679 113.824 148.532 113.888C148.639 114.187 148.703 114.539 148.724 114.944C148.767 115.328 148.788 115.712 148.788 116.096C148.404 116.075 147.913 116.053 147.316 116.032C146.719 116.032 146.079 116.021 145.396 116C144.735 116 144.084 116 143.444 116C142.399 116 141.321 116 140.212 116C139.103 116.021 138.217 116.053 137.556 116.096C137.556 115.584 137.567 115.157 137.588 114.816C137.631 114.453 137.695 114.144 137.78 113.888C138.356 113.845 138.793 113.739 139.092 113.568C139.412 113.376 139.625 113.045 139.732 112.576C139.86 112.107 139.924 111.413 139.924 110.496V108.736H145.204V110.112ZM145.204 106.56V109.376H139.924V105.92L145.204 102.944C145.204 103.371 145.14 103.851 145.012 104.384C144.905 104.917 144.756 105.589 144.564 106.4L145.204 106.56ZM144.5 106.496C144.649 106.069 144.82 105.589 145.012 105.056C145.204 104.501 145.375 104.096 145.524 103.84C145.993 103.093 146.58 102.475 147.284 101.984C147.988 101.493 148.767 101.248 149.62 101.248C150.452 101.248 151.22 101.504 151.924 102.016C151.86 102.464 151.796 102.987 151.732 103.584C151.668 104.181 151.625 104.789 151.604 105.408C151.604 106.005 151.615 106.549 151.636 107.04C151.273 107.189 150.793 107.296 150.196 107.36C149.599 107.403 149.087 107.424 148.66 107.424C148.617 106.656 148.489 106.112 148.276 105.792C148.063 105.451 147.743 105.28 147.316 105.28C147.017 105.28 146.697 105.461 146.356 105.824C146.036 106.187 145.759 106.656 145.524 107.232C145.311 107.787 145.204 108.384 145.204 109.024L144.5 106.496ZM139.924 109.376V106.912C139.924 106.251 139.881 105.739 139.796 105.376C139.711 105.013 139.497 104.747 139.156 104.576C138.836 104.384 138.324 104.267 137.62 104.224C137.62 103.861 137.641 103.499 137.684 103.136C137.748 102.752 137.855 102.411 138.004 102.112C139.348 102.112 140.585 102.005 141.716 101.792C142.868 101.557 143.7 101.312 144.212 101.056C144.532 101.184 144.777 101.397 144.948 101.696C145.119 101.995 145.204 102.411 145.204 102.944L139.924 109.376ZM161.621 116.288C159.701 116.288 158.143 115.957 156.949 115.296C155.775 114.635 154.911 113.739 154.357 112.608C153.802 111.477 153.525 110.208 153.525 108.8C153.525 107.221 153.834 105.856 154.453 104.704C155.071 103.552 155.967 102.656 157.141 102.016C158.314 101.376 159.69 101.056 161.269 101.056C162.847 101.056 164.149 101.355 165.173 101.952C166.197 102.528 166.954 103.339 167.445 104.384C167.957 105.408 168.234 106.603 168.277 107.968C168.106 108.672 167.797 109.237 167.349 109.664C166.73 109.664 166.026 109.664 165.237 109.664C164.447 109.664 163.615 109.675 162.741 109.696C161.887 109.696 161.013 109.717 160.117 109.76C159.242 109.803 158.399 109.856 157.589 109.92V107.616H163.477C163.477 106.165 163.285 105.067 162.901 104.32C162.538 103.573 161.983 103.2 161.237 103.2C160.746 103.2 160.309 103.381 159.925 103.744C159.562 104.085 159.285 104.608 159.093 105.312C158.901 105.995 158.805 106.848 158.805 107.872C158.805 108.981 158.943 109.973 159.221 110.848C159.498 111.723 159.957 112.405 160.597 112.896C161.237 113.387 162.101 113.632 163.189 113.632C163.935 113.632 164.682 113.504 165.429 113.248C166.175 112.992 166.794 112.661 167.285 112.256C167.498 112.384 167.69 112.64 167.861 113.024C168.031 113.387 168.117 113.76 168.117 114.144C167.285 114.848 166.335 115.381 165.269 115.744C164.223 116.107 163.007 116.288 161.621 116.288ZM160.533 98.912C159.893 98.016 159.263 97.1733 158.645 96.384C158.026 95.5733 157.269 94.752 156.373 93.92C157.055 93.6213 157.802 93.408 158.613 93.28C159.423 93.1307 160.245 93.0667 161.077 93.088C161.311 93.92 161.621 94.816 162.005 95.776C162.41 96.736 162.837 97.6427 163.285 98.496C162.943 98.6453 162.549 98.7627 162.101 98.848C161.674 98.912 161.151 98.9333 160.533 98.912ZM176.8 116.288C175.221 116.288 174.026 115.883 173.216 115.072C172.405 114.24 172 112.843 172 110.88V104.288C171.658 104.16 171.296 104.064 170.912 104C170.549 103.936 170.122 103.904 169.632 103.904C169.632 103.477 169.653 103.093 169.696 102.752C169.76 102.389 169.877 102.027 170.048 101.664H172V97.856C172.832 97.7493 173.642 97.536 174.432 97.216C175.242 96.896 175.893 96.544 176.384 96.16C176.725 96.288 176.96 96.4907 177.088 96.768C177.216 97.0453 177.28 97.536 177.28 98.24V101.664H181.12C181.12 102.133 181.088 102.549 181.024 102.912C180.981 103.253 180.906 103.595 180.8 103.936C180.117 103.936 179.477 103.989 178.88 104.096C178.304 104.181 177.77 104.309 177.28 104.48V110.4C177.28 111.317 177.333 112.021 177.44 112.512C177.546 112.981 177.717 113.312 177.952 113.504C178.186 113.675 178.485 113.76 178.848 113.76C179.168 113.76 179.488 113.728 179.808 113.664C180.149 113.579 180.469 113.461 180.768 113.312C181.066 113.739 181.226 114.336 181.248 115.104C180.8 115.445 180.16 115.733 179.328 115.968C178.517 116.181 177.674 116.288 176.8 116.288ZM190.808 116.288C188.888 116.288 187.331 115.957 186.136 115.296C184.963 114.635 184.099 113.739 183.544 112.608C182.99 111.477 182.712 110.208 182.712 108.8C182.712 107.221 183.022 105.856 183.64 104.704C184.259 103.552 185.155 102.656 186.328 102.016C187.502 101.376 188.878 101.056 190.456 101.056C192.035 101.056 193.336 101.355 194.36 101.952C195.384 102.528 196.142 103.339 196.632 104.384C197.144 105.408 197.422 106.603 197.464 107.968C197.294 108.672 196.984 109.237 196.536 109.664C195.918 109.664 195.214 109.664 194.424 109.664C193.635 109.664 192.803 109.675 191.928 109.696C191.075 109.696 190.2 109.717 189.304 109.76C188.43 109.803 187.587 109.856 186.776 109.92V107.616H192.664C192.664 106.165 192.472 105.067 192.088 104.32C191.726 103.573 191.171 103.2 190.424 103.2C189.934 103.2 189.496 103.381 189.112 103.744C188.75 104.085 188.472 104.608 188.28 105.312C188.088 105.995 187.992 106.848 187.992 107.872C187.992 108.981 188.131 109.973 188.408 110.848C188.686 111.723 189.144 112.405 189.784 112.896C190.424 113.387 191.288 113.632 192.376 113.632C193.123 113.632 193.87 113.504 194.616 113.248C195.363 112.992 195.982 112.661 196.472 112.256C196.686 112.384 196.878 112.64 197.048 113.024C197.219 113.387 197.304 113.76 197.304 114.144C196.472 114.848 195.523 115.381 194.456 115.744C193.411 116.107 192.195 116.288 190.808 116.288Z" fill="#5F260E"/>
<circle cx="138" cy="104.5" r="103" fill="#D4EBFF"/>
<g filter="url(#filter0_d_408_2201)">
<path d="M119.09 64.18C132.947 64.18 144.18 52.9468 144.18 39.09C144.18 25.2332 132.947 14 119.09 14C105.233 14 94 25.2332 94 39.09C94 52.9468 105.233 64.18 119.09 64.18Z" fill="url(#paint0_radial_408_2201)"/>
</g>
<g filter="url(#filter1_d_408_2201)">
<path d="M106.09 180.18C119.947 180.18 131.18 168.947 131.18 155.09C131.18 141.233 119.947 130 106.09 130C92.2332 130 81 141.233 81 155.09C81 168.947 92.2332 180.18 106.09 180.18Z" fill="url(#paint1_radial_408_2201)"/>
</g>
<g filter="url(#filter2_d_408_2201)">
<path d="M203.09 212.18C216.947 212.18 228.18 200.947 228.18 187.09C228.18 173.233 216.947 162 203.09 162C189.233 162 178 173.233 178 187.09C178 200.947 189.233 212.18 203.09 212.18Z" fill="url(#paint2_radial_408_2201)"/>
</g>
<g filter="url(#filter3_d_408_2201)">
<path d="M38.09 114.18C51.9468 114.18 63.18 102.947 63.18 89.09C63.18 75.2332 51.9468 64 38.09 64C24.2332 64 13 75.2332 13 89.09C13 102.947 24.2332 114.18 38.09 114.18Z" fill="url(#paint3_radial_408_2201)"/>
</g>
<g filter="url(#filter4_d_408_2201)">
<path d="M194.09 57.18C207.947 57.18 219.18 45.9468 219.18 32.09C219.18 18.2332 207.947 7 194.09 7C180.233 7 169 18.2332 169 32.09C169 45.9468 180.233 57.18 194.09 57.18Z" fill="url(#paint4_radial_408_2201)"/>
</g>
<g filter="url(#filter5_d_408_2201)">
<path d="M84.112 95.556C84.56 95.556 84.976 95.588 85.36 95.652C85.7653 95.716 86.1813 95.8013 86.608 95.908V99.108C86.2667 98.6387 85.8933 98.276 85.488 98.02C85.104 97.764 84.6347 97.636 84.08 97.636C83.696 97.636 83.2907 97.7107 82.864 97.86C82.4373 98.0093 82.032 98.2867 81.648 98.692C81.2853 99.0973 80.9867 99.684 80.752 100.452C80.5173 101.199 80.4 102.169 80.4 103.364C80.4 104.217 80.496 104.996 80.688 105.7C80.9013 106.383 81.2107 106.927 81.616 107.332C82.0427 107.737 82.5653 107.94 83.184 107.94C83.696 107.94 84.1867 107.78 84.656 107.46C85.1253 107.119 85.52 106.575 85.84 105.828C86.16 105.06 86.32 104.047 86.32 102.788L87.696 106.02C87.312 106.916 86.9493 107.62 86.608 108.132C86.288 108.623 85.9573 108.996 85.616 109.252C85.3813 109.487 85.0507 109.721 84.624 109.956C84.2187 110.191 83.7387 110.383 83.184 110.532C82.6507 110.703 82.0747 110.788 81.456 110.788C80.24 110.788 79.1413 110.564 78.16 110.116C77.2 109.647 76.4427 108.921 75.888 107.94C75.3333 106.959 75.056 105.7 75.056 104.164C75.056 102.457 75.4293 100.964 76.176 99.684C76.9227 98.3827 77.9787 97.3693 79.344 96.644C80.7093 95.9187 82.2987 95.556 84.112 95.556ZM91.568 104.708C91.568 105.455 91.6107 106.031 91.696 106.436C91.7813 106.82 91.952 107.087 92.208 107.236C92.4853 107.364 92.8907 107.439 93.424 107.46C93.488 107.865 93.488 108.26 93.424 108.644C93.3813 109.028 93.2747 109.391 93.104 109.732C92.2293 109.753 91.3333 109.849 90.416 110.02C89.52 110.191 88.6773 110.447 87.888 110.788C87.4827 110.639 87.1947 110.425 87.024 110.148C86.8533 109.849 86.768 109.455 86.768 108.964C86.768 108.537 86.8213 108.1 86.928 107.652C87.0347 107.183 87.1733 106.692 87.344 106.18L91.568 104.708ZM91.568 92.292V106.308H86.32V92.292H91.568ZM90.544 87.556C90.864 87.684 91.1093 87.8973 91.28 88.196C91.472 88.4947 91.568 88.9 91.568 89.412V93.316H86.32V92.964C86.32 92.4733 86.256 92.068 86.128 91.748C86 91.428 85.7653 91.1933 85.424 91.044C85.0827 90.8733 84.5813 90.7667 83.92 90.724C83.92 90.3613 83.9413 89.9987 83.984 89.636C84.048 89.252 84.1547 88.9107 84.304 88.612C85.1787 88.612 86.032 88.5587 86.864 88.452C87.696 88.3453 88.432 88.2173 89.072 88.068C89.7333 87.8973 90.224 87.7267 90.544 87.556ZM95.1497 110.596C95.1497 110.148 95.1711 109.743 95.2138 109.38C95.2564 108.996 95.3204 108.665 95.4058 108.388C96.2591 108.345 96.8244 108.143 97.1018 107.78C97.3791 107.396 97.5178 106.671 97.5178 105.604V100.964C97.5178 100.473 97.4538 100.068 97.3258 99.748C97.2191 99.428 96.9951 99.1933 96.6538 99.044C96.3124 98.8733 95.8111 98.7667 95.1497 98.724C95.1497 98.3613 95.1711 97.9987 95.2138 97.636C95.2778 97.252 95.3844 96.9107 95.5338 96.612C96.4084 96.612 97.2618 96.5587 98.0938 96.452C98.9258 96.3453 99.6618 96.2173 100.302 96.068C100.963 95.8973 101.454 95.7267 101.774 95.556C102.094 95.684 102.339 95.8973 102.51 96.196C102.702 96.4947 102.798 96.9 102.798 97.412V105.604C102.798 106.671 102.936 107.396 103.214 107.78C103.491 108.143 104.035 108.345 104.846 108.388C104.931 108.665 104.984 108.996 105.006 109.38C105.048 109.764 105.07 110.169 105.07 110.596C104.792 110.575 104.387 110.553 103.854 110.532C103.32 110.532 102.723 110.521 102.062 110.5C101.422 110.5 100.771 110.5 100.11 110.5C99.4698 110.5 98.8191 110.5 98.1578 110.5C97.4964 110.521 96.8991 110.532 96.3658 110.532C95.8538 110.553 95.4484 110.575 95.1497 110.596ZM99.7258 93.476C98.8511 93.476 98.1471 93.2627 97.6138 92.836C97.0804 92.388 96.8138 91.8013 96.8138 91.076C96.8138 90.244 97.1018 89.604 97.6778 89.156C98.2751 88.6867 99.0111 88.452 99.8858 88.452C100.888 88.452 101.646 88.676 102.158 89.124C102.691 89.572 102.958 90.212 102.958 91.044C102.958 91.748 102.67 92.3347 102.094 92.804C101.518 93.252 100.728 93.476 99.7258 93.476ZM119.022 96.548C119 97.1027 118.99 97.6787 118.99 98.276C119.011 98.852 119.064 99.4173 119.15 99.972C118.83 100.143 118.414 100.292 117.902 100.42C117.411 100.548 116.91 100.612 116.398 100.612C116.334 100.079 116.184 99.5987 115.95 99.172C115.736 98.724 115.427 98.372 115.022 98.116C114.638 97.86 114.136 97.732 113.518 97.732C113.091 97.732 112.75 97.8493 112.494 98.084C112.259 98.2973 112.142 98.5853 112.142 98.948C112.142 99.204 112.206 99.4493 112.334 99.684C112.483 99.9187 112.792 100.185 113.262 100.484C113.752 100.761 114.499 101.113 115.502 101.54C116.718 102.031 117.667 102.5 118.35 102.948C119.054 103.396 119.555 103.876 119.854 104.388C120.152 104.9 120.302 105.519 120.302 106.244C120.302 107.204 120.014 108.025 119.438 108.708C118.883 109.391 118.083 109.913 117.038 110.276C115.992 110.617 114.734 110.788 113.262 110.788C111.918 110.788 110.798 110.692 109.902 110.5C109.006 110.308 108.131 110.041 107.278 109.7C107.342 109.273 107.384 108.825 107.406 108.356C107.427 107.865 107.427 107.396 107.406 106.948C107.406 106.479 107.384 106.073 107.342 105.732C107.662 105.519 108.088 105.369 108.622 105.284C109.176 105.177 109.688 105.124 110.158 105.124C110.286 106.233 110.606 107.076 111.118 107.652C111.651 108.207 112.302 108.484 113.07 108.484C113.603 108.484 114.04 108.367 114.382 108.132C114.744 107.897 114.926 107.556 114.926 107.108C114.926 106.788 114.84 106.511 114.67 106.276C114.52 106.02 114.232 105.775 113.806 105.54C113.4 105.284 112.792 105.007 111.982 104.708C111.043 104.345 110.232 103.961 109.55 103.556C108.867 103.151 108.334 102.649 107.95 102.052C107.587 101.455 107.406 100.687 107.406 99.748C107.406 99.0227 107.555 98.404 107.854 97.892C108.174 97.3587 108.622 96.9213 109.198 96.58C109.774 96.2387 110.435 95.9827 111.182 95.812C111.95 95.6413 112.771 95.556 113.646 95.556C114.84 95.556 115.854 95.6413 116.686 95.812C117.518 95.9613 118.296 96.2067 119.022 96.548ZM135.841 108.868C135.286 109.487 134.529 109.967 133.569 110.308C132.63 110.628 131.563 110.788 130.369 110.788C128.79 110.788 127.393 110.511 126.177 109.956C124.982 109.401 124.043 108.569 123.361 107.46C122.699 106.351 122.368 104.943 122.368 103.236C122.368 101.956 122.657 100.729 123.233 99.556C123.809 98.3827 124.662 97.4227 125.793 96.676C126.945 95.9293 128.374 95.556 130.081 95.556C131.297 95.556 132.342 95.6733 133.217 95.908C134.113 96.1213 134.913 96.4413 135.617 96.868C135.489 97.4653 135.393 98.084 135.329 98.724C135.286 99.364 135.265 100.1 135.265 100.932C134.859 101.103 134.39 101.231 133.857 101.316C133.345 101.38 132.854 101.412 132.385 101.412C132.342 100.175 132.118 99.2467 131.713 98.628C131.307 97.988 130.785 97.668 130.145 97.668C129.313 97.668 128.673 98.148 128.225 99.108C127.798 100.047 127.585 101.273 127.585 102.788C127.585 103.663 127.723 104.516 128.001 105.348C128.299 106.159 128.758 106.831 129.377 107.364C129.995 107.876 130.806 108.132 131.809 108.132C132.491 108.132 133.11 108.047 133.665 107.876C134.219 107.684 134.699 107.428 135.105 107.108C135.318 107.3 135.489 107.556 135.617 107.876C135.766 108.175 135.841 108.505 135.841 108.868ZM145.204 104.612C145.204 105.529 145.3 106.255 145.492 106.788C145.705 107.3 146.047 107.684 146.516 107.94C147.007 108.175 147.679 108.324 148.532 108.388C148.639 108.687 148.703 109.039 148.724 109.444C148.767 109.828 148.788 110.212 148.788 110.596C148.404 110.575 147.913 110.553 147.316 110.532C146.719 110.532 146.079 110.521 145.396 110.5C144.735 110.5 144.084 110.5 143.444 110.5C142.399 110.5 141.321 110.5 140.212 110.5C139.103 110.521 138.217 110.553 137.556 110.596C137.556 110.084 137.567 109.657 137.588 109.316C137.631 108.953 137.695 108.644 137.78 108.388C138.356 108.345 138.793 108.239 139.092 108.068C139.412 107.876 139.625 107.545 139.732 107.076C139.86 106.607 139.924 105.913 139.924 104.996V103.236H145.204V104.612ZM145.204 101.06V103.876H139.924V100.42L145.204 97.444C145.204 97.8707 145.14 98.3507 145.012 98.884C144.905 99.4173 144.756 100.089 144.564 100.9L145.204 101.06ZM144.5 100.996C144.649 100.569 144.82 100.089 145.012 99.556C145.204 99.0013 145.375 98.596 145.524 98.34C145.993 97.5933 146.58 96.9747 147.284 96.484C147.988 95.9933 148.767 95.748 149.62 95.748C150.452 95.748 151.22 96.004 151.924 96.516C151.86 96.964 151.796 97.4867 151.732 98.084C151.668 98.6813 151.625 99.2893 151.604 99.908C151.604 100.505 151.615 101.049 151.636 101.54C151.273 101.689 150.793 101.796 150.196 101.86C149.599 101.903 149.087 101.924 148.66 101.924C148.617 101.156 148.489 100.612 148.276 100.292C148.063 99.9507 147.743 99.78 147.316 99.78C147.017 99.78 146.697 99.9613 146.356 100.324C146.036 100.687 145.759 101.156 145.524 101.732C145.311 102.287 145.204 102.884 145.204 103.524L144.5 100.996ZM139.924 103.876V101.412C139.924 100.751 139.881 100.239 139.796 99.876C139.711 99.5133 139.497 99.2467 139.156 99.076C138.836 98.884 138.324 98.7667 137.62 98.724C137.62 98.3613 137.641 97.9987 137.684 97.636C137.748 97.252 137.855 96.9107 138.004 96.612C139.348 96.612 140.585 96.5053 141.716 96.292C142.868 96.0573 143.7 95.812 144.212 95.556C144.532 95.684 144.777 95.8973 144.948 96.196C145.119 96.4947 145.204 96.9107 145.204 97.444L139.924 103.876ZM161.621 110.788C159.701 110.788 158.143 110.457 156.949 109.796C155.775 109.135 154.911 108.239 154.357 107.108C153.802 105.977 153.525 104.708 153.525 103.3C153.525 101.721 153.834 100.356 154.453 99.204C155.071 98.052 155.967 97.156 157.141 96.516C158.314 95.876 159.69 95.556 161.269 95.556C162.847 95.556 164.149 95.8547 165.173 96.452C166.197 97.028 166.954 97.8387 167.445 98.884C167.957 99.908 168.234 101.103 168.277 102.468C168.106 103.172 167.797 103.737 167.349 104.164C166.73 104.164 166.026 104.164 165.237 104.164C164.447 104.164 163.615 104.175 162.741 104.196C161.887 104.196 161.013 104.217 160.117 104.26C159.242 104.303 158.399 104.356 157.589 104.42V102.116H163.477C163.477 100.665 163.285 99.5667 162.901 98.82C162.538 98.0733 161.983 97.7 161.237 97.7C160.746 97.7 160.309 97.8813 159.925 98.244C159.562 98.5853 159.285 99.108 159.093 99.812C158.901 100.495 158.805 101.348 158.805 102.372C158.805 103.481 158.943 104.473 159.221 105.348C159.498 106.223 159.957 106.905 160.597 107.396C161.237 107.887 162.101 108.132 163.189 108.132C163.935 108.132 164.682 108.004 165.429 107.748C166.175 107.492 166.794 107.161 167.285 106.756C167.498 106.884 167.69 107.14 167.861 107.524C168.031 107.887 168.117 108.26 168.117 108.644C167.285 109.348 166.335 109.881 165.269 110.244C164.223 110.607 163.007 110.788 161.621 110.788ZM160.533 93.412C159.893 92.516 159.263 91.6733 158.645 90.884C158.026 90.0733 157.269 89.252 156.373 88.42C157.055 88.1213 157.802 87.908 158.613 87.78C159.423 87.6307 160.245 87.5667 161.077 87.588C161.311 88.42 161.621 89.316 162.005 90.276C162.41 91.236 162.837 92.1427 163.285 92.996C162.943 93.1453 162.549 93.2627 162.101 93.348C161.674 93.412 161.151 93.4333 160.533 93.412ZM176.8 110.788C175.221 110.788 174.026 110.383 173.216 109.572C172.405 108.74 172 107.343 172 105.38V98.788C171.658 98.66 171.296 98.564 170.912 98.5C170.549 98.436 170.122 98.404 169.632 98.404C169.632 97.9773 169.653 97.5933 169.696 97.252C169.76 96.8893 169.877 96.5267 170.048 96.164H172V92.356C172.832 92.2493 173.642 92.036 174.432 91.716C175.242 91.396 175.893 91.044 176.384 90.66C176.725 90.788 176.96 90.9907 177.088 91.268C177.216 91.5453 177.28 92.036 177.28 92.74V96.164H181.12C181.12 96.6333 181.088 97.0493 181.024 97.412C180.981 97.7533 180.906 98.0947 180.8 98.436C180.117 98.436 179.477 98.4893 178.88 98.596C178.304 98.6813 177.77 98.8093 177.28 98.98V104.9C177.28 105.817 177.333 106.521 177.44 107.012C177.546 107.481 177.717 107.812 177.952 108.004C178.186 108.175 178.485 108.26 178.848 108.26C179.168 108.26 179.488 108.228 179.808 108.164C180.149 108.079 180.469 107.961 180.768 107.812C181.066 108.239 181.226 108.836 181.248 109.604C180.8 109.945 180.16 110.233 179.328 110.468C178.517 110.681 177.674 110.788 176.8 110.788ZM190.808 110.788C188.888 110.788 187.331 110.457 186.136 109.796C184.963 109.135 184.099 108.239 183.544 107.108C182.99 105.977 182.712 104.708 182.712 103.3C182.712 101.721 183.022 100.356 183.64 99.204C184.259 98.052 185.155 97.156 186.328 96.516C187.502 95.876 188.878 95.556 190.456 95.556C192.035 95.556 193.336 95.8547 194.36 96.452C195.384 97.028 196.142 97.8387 196.632 98.884C197.144 99.908 197.422 101.103 197.464 102.468C197.294 103.172 196.984 103.737 196.536 104.164C195.918 104.164 195.214 104.164 194.424 104.164C193.635 104.164 192.803 104.175 191.928 104.196C191.075 104.196 190.2 104.217 189.304 104.26C188.43 104.303 187.587 104.356 186.776 104.42V102.116H192.664C192.664 100.665 192.472 99.5667 192.088 98.82C191.726 98.0733 191.171 97.7 190.424 97.7C189.934 97.7 189.496 97.8813 189.112 98.244C188.75 98.5853 188.472 99.108 188.28 99.812C188.088 100.495 187.992 101.348 187.992 102.372C187.992 103.481 188.131 104.473 188.408 105.348C188.686 106.223 189.144 106.905 189.784 107.396C190.424 107.887 191.288 108.132 192.376 108.132C193.123 108.132 193.87 108.004 194.616 107.748C195.363 107.492 195.982 107.161 196.472 106.756C196.686 106.884 196.878 107.14 197.048 107.524C197.219 107.887 197.304 108.26 197.304 108.644C196.472 109.348 195.523 109.881 194.456 110.244C193.411 110.607 192.195 110.788 190.808 110.788Z" fill="#5F260E"/>
</g>
<g filter="url(#filter6_d_408_2201)">
<path d="M219.09 129.18C232.947 129.18 244.18 117.947 244.18 104.09C244.18 90.2332 232.947 79 219.09 79C205.233 79 194 90.2332 194 104.09C194 117.947 205.233 129.18 219.09 129.18Z" fill="url(#paint5_radial_408_2201)"/>
</g>
<defs>
<filter id="filter0_d_408_2201" x="81" y="9.67" width="70.1802" height="70.1799" filterUnits="userSpaceOnUse" color-interpolation-filters="sRGB">
<feFlood flood-opacity="0" result="BackgroundImageFix"/>
<feColorMatrix in="SourceAlpha" type="matrix" values="0 0 0 0 0 0 0 0 0 0 0 0 0 0 0 0 0 0 127 0" result="hardAlpha"/>
<feOffset dx="-3" dy="5.67"/>
<feGaussianBlur stdDeviation="5"/>
<feColorMatrix type="matrix" values="0 0 0 0 0.113725 0 0 0 0 0.113725 0 0 0 0 0.105882 0 0 0 0.5 0"/>
<feBlend mode="normal" in2="BackgroundImageFix" result="effect1_dropShadow_408_2201"/>
<feBlend mode="normal" in="SourceGraphic" in2="effect1_dropShadow_408_2201" result="shape"/>
</filter>
<filter id="filter1_d_408_2201" x="68" y="125.67" width="70.1802" height="70.1799" filterUnits="userSpaceOnUse" color-interpolation-filters="sRGB">
<feFlood flood-opacity="0" result="BackgroundImageFix"/>
<feColorMatrix in="SourceAlpha" type="matrix" values="0 0 0 0 0 0 0 0 0 0 0 0 0 0 0 0 0 0 127 0" result="hardAlpha"/>
<feOffset dx="-3" dy="5.67"/>
<feGaussianBlur stdDeviation="5"/>
<feColorMatrix type="matrix" values="0 0 0 0 0.113725 0 0 0 0 0.113725 0 0 0 0 0.105882 0 0 0 0.5 0"/>
<feBlend mode="normal" in2="BackgroundImageFix" result="effect1_dropShadow_408_2201"/>
<feBlend mode="normal" in="SourceGraphic" in2="effect1_dropShadow_408_2201" result="shape"/>
</filter>
<filter id="filter2_d_408_2201" x="165" y="157.67" width="70.1802" height="70.1799" filterUnits="userSpaceOnUse" color-interpolation-filters="sRGB">
<feFlood flood-opacity="0" result="BackgroundImageFix"/>
<feColorMatrix in="SourceAlpha" type="matrix" values="0 0 0 0 0 0 0 0 0 0 0 0 0 0 0 0 0 0 127 0" result="hardAlpha"/>
<feOffset dx="-3" dy="5.67"/>
<feGaussianBlur stdDeviation="5"/>
<feColorMatrix type="matrix" values="0 0 0 0 0.113725 0 0 0 0 0.113725 0 0 0 0 0.105882 0 0 0 0.5 0"/>
<feBlend mode="normal" in2="BackgroundImageFix" result="effect1_dropShadow_408_2201"/>
<feBlend mode="normal" in="SourceGraphic" in2="effect1_dropShadow_408_2201" result="shape"/>
</filter>
<filter id="filter3_d_408_2201" x="0" y="59.67" width="70.1802" height="70.1799" filterUnits="userSpaceOnUse" color-interpolation-filters="sRGB">
<feFlood flood-opacity="0" result="BackgroundImageFix"/>
<feColorMatrix in="SourceAlpha" type="matrix" values="0 0 0 0 0 0 0 0 0 0 0 0 0 0 0 0 0 0 127 0" result="hardAlpha"/>
<feOffset dx="-3" dy="5.67"/>
<feGaussianBlur stdDeviation="5"/>
<feColorMatrix type="matrix" values="0 0 0 0 0.113725 0 0 0 0 0.113725 0 0 0 0 0.105882 0 0 0 0.5 0"/>
<feBlend mode="normal" in2="BackgroundImageFix" result="effect1_dropShadow_408_2201"/>
<feBlend mode="normal" in="SourceGraphic" in2="effect1_dropShadow_408_2201" result="shape"/>
</filter>
<filter id="filter4_d_408_2201" x="156" y="2.67" width="70.1802" height="70.1799" filterUnits="userSpaceOnUse" color-interpolation-filters="sRGB">
<feFlood flood-opacity="0" result="BackgroundImageFix"/>
<feColorMatrix in="SourceAlpha" type="matrix" values="0 0 0 0 0 0 0 0 0 0 0 0 0 0 0 0 0 0 127 0" result="hardAlpha"/>
<feOffset dx="-3" dy="5.67"/>
<feGaussianBlur stdDeviation="5"/>
<feColorMatrix type="matrix" values="0 0 0 0 0.113725 0 0 0 0 0.113725 0 0 0 0 0.105882 0 0 0 0.5 0"/>
<feBlend mode="normal" in2="BackgroundImageFix" result="effect1_dropShadow_408_2201"/>
<feBlend mode="normal" in="SourceGraphic" in2="effect1_dropShadow_408_2201" result="shape"/>
</filter>
<filter id="filter5_d_408_2201" x="70.3562" y="86.8559" width="131.808" height="32.6322" filterUnits="userSpaceOnUse" color-interpolation-filters="sRGB">
<feFlood flood-opacity="0" result="BackgroundImageFix"/>
<feColorMatrix in="SourceAlpha" type="matrix" values="0 0 0 0 0 0 0 0 0 0 0 0 0 0 0 0 0 0 127 0" result="hardAlpha"/>
<feOffset dy="4"/>
<feGaussianBlur stdDeviation="2.35"/>
<feComposite in2="hardAlpha" operator="out"/>
<feColorMatrix type="matrix" values="0 0 0 0 0 0 0 0 0 0 0 0 0 0 0 0 0 0 0.3 0"/>
<feBlend mode="normal" in2="BackgroundImageFix" result="effect1_dropShadow_408_2201"/>
<feBlend mode="normal" in="SourceGraphic" in2="effect1_dropShadow_408_2201" result="shape"/>
</filter>
<filter id="filter6_d_408_2201" x="181" y="74.67" width="70.1802" height="70.1799" filterUnits="userSpaceOnUse" color-interpolation-filters="sRGB">
<feFlood flood-opacity="0" result="BackgroundImageFix"/>
<feColorMatrix in="SourceAlpha" type="matrix" values="0 0 0 0 0 0 0 0 0 0 0 0 0 0 0 0 0 0 127 0" result="hardAlpha"/>
<feOffset dx="-3" dy="5.67"/>
<feGaussianBlur stdDeviation="5"/>
<feColorMatrix type="matrix" values="0 0 0 0 0.113725 0 0 0 0 0.113725 0 0 0 0 0.105882 0 0 0 0.5 0"/>
<feBlend mode="normal" in2="BackgroundImageFix" result="effect1_dropShadow_408_2201"/>
<feBlend mode="normal" in="SourceGraphic" in2="effect1_dropShadow_408_2201" result="shape"/>
</filter>
<radialGradient id="paint0_radial_408_2201" cx="0" cy="0" r="1" gradientUnits="userSpaceOnUse" gradientTransform="translate(119.09 39.09) scale(25.09 25.09)">
<stop stop-color="#AFE3E6"/>
<stop offset="0.255" stop-color="#5BD6DC"/>
<stop offset="0.63" stop-color="#08C8D2"/>
<stop offset="1" stop-color="#04A4AD"/>
</radialGradient>
<radialGradient id="paint1_radial_408_2201" cx="0" cy="0" r="1" gradientUnits="userSpaceOnUse" gradientTransform="translate(106.09 155.09) scale(25.09 25.09)">
<stop stop-color="#AFE3E6"/>
<stop offset="0.255" stop-color="#5BD6DC"/>
<stop offset="0.63" stop-color="#08C8D2"/>
<stop offset="1" stop-color="#04A4AD"/>
</radialGradient>
<radialGradient id="paint2_radial_408_2201" cx="0" cy="0" r="1" gradientUnits="userSpaceOnUse" gradientTransform="translate(203.09 187.09) scale(25.09 25.09)">
<stop stop-color="#D6E4E5"/>
<stop offset="0.63" stop-color="#9AAFB0"/>
<stop offset="1" stop-color="#7F8A8A"/>
</radialGradient>
<radialGradient id="paint3_radial_408_2201" cx="0" cy="0" r="1" gradientUnits="userSpaceOnUse" gradientTransform="translate(38.09 89.09) scale(25.09 25.09)">
<stop stop-color="#D6E4E5"/>
<stop offset="0.63" stop-color="#9AAFB0"/>
<stop offset="1" stop-color="#7F8A8A"/>
</radialGradient>
<radialGradient id="paint4_radial_408_2201" cx="0" cy="0" r="1" gradientUnits="userSpaceOnUse" gradientTransform="translate(194.09 32.09) scale(25.09 25.09)">
<stop stop-color="#D6E4E5"/>
<stop offset="0.63" stop-color="#9AAFB0"/>
<stop offset="1" stop-color="#7F8A8A"/>
</radialGradient>
<radialGradient id="paint5_radial_408_2201" cx="0" cy="0" r="1" gradientUnits="userSpaceOnUse" gradientTransform="translate(219.09 104.09) scale(25.09 25.09)">
<stop stop-color="#AFE3E6"/>
<stop offset="0.255" stop-color="#5BD6DC"/>
<stop offset="0.63" stop-color="#08C8D2"/>
<stop offset="1" stop-color="#04A4AD"/>
</radialGradient>
</defs>
</svg>
