<svg width="232" height="232" viewBox="0 0 232 232" fill="none" xmlns="http://www.w3.org/2000/svg">
<path d="M133.484 136.154C137.702 136.534 141.744 136.924 145.79 137.256C148.734 137.497 150.118 138.964 149.672 141.457C149.492 142.469 148.839 143.145 148.116 143.781C144.014 147.393 139.951 151.051 135.783 154.586C134.558 155.625 134.196 156.539 134.605 158.156C135.927 163.377 137.045 168.65 138.227 173.907C138.587 175.509 138.787 177.174 137.196 178.231C135.677 179.241 134.127 178.963 132.561 178.017C127.827 175.159 123.016 172.429 118.291 169.556C117.136 168.855 116.304 168.932 115.187 169.61C110.406 172.513 105.564 175.313 100.751 178.162C99.43 178.944 98.115 179.424 96.647 178.507C95.1533 177.574 94.9841 176.134 95.2877 174.647C96.1628 170.361 96.815 165.992 98.159 161.851C99.5273 157.636 98.7499 154.836 95.015 152.252C91.432 149.774 88.3715 146.543 85.057 143.672C83.7975 142.581 83.5051 141.231 83.8724 139.707C84.2177 138.275 85.2733 137.698 86.6757 137.56C91.4088 137.094 96.13 136.42 100.874 136.176C104.223 136.004 106.609 135.392 107.803 131.633C109.219 127.176 111.467 122.985 113.294 118.653C113.967 117.057 114.887 115.899 116.763 115.906C118.664 115.913 119.545 117.198 120.207 118.73C122.145 123.221 124.337 127.625 125.929 132.235C126.964 135.234 128.858 136.052 131.593 136.094C132.165 136.102 132.737 136.125 133.484 136.154ZM117.442 127.079C117.26 126.758 117.161 126.352 116.654 126.322C115.942 126.827 115.764 127.674 115.444 128.408C114.075 131.551 112.723 134.702 111.425 137.875C110.665 139.733 109.396 141.002 107.412 141.269C104.712 141.632 101.983 141.77 99.2757 142.08C97.4443 142.289 95.5574 142.248 93.8179 142.818C93.8437 143.766 94.452 143.98 94.8611 144.342C97.6664 146.827 100.468 149.316 103.295 151.775C104.644 152.947 105.277 154.372 105.1 156.156C104.874 158.436 104.228 160.631 103.774 162.865C103.307 165.166 102.438 167.409 102.468 169.835C103.517 169.882 104.115 169.379 104.762 168.998C107.662 167.29 110.593 165.631 113.451 163.856C115.773 162.415 117.964 162.536 120.248 163.92C123.289 165.762 126.377 167.529 129.456 169.309C129.916 169.575 130.338 170.096 131.071 169.708C131.229 169.116 131.076 168.519 130.931 167.898C130.163 164.626 129.413 161.349 128.678 158.07C128.064 155.331 128.475 153.004 130.885 151.114C133.429 149.118 135.77 146.862 138.17 144.687C138.748 144.164 139.569 143.777 139.612 142.692C139.245 142.612 138.895 142.497 138.536 142.462C134.623 142.081 130.711 141.69 126.795 141.347C124.55 141.151 123.043 140.086 122.165 137.974C120.679 134.399 119.09 130.867 117.442 127.079Z" fill="white"/>
<path d="M133.416 85.9414C138.985 88.3911 143.39 91.9654 146.527 97.0751C147.272 98.2877 147.173 99.0176 145.933 99.6653C144.79 100.262 144.133 101.411 142.99 102.478C137.295 92.3384 128.103 88.7175 117.186 88.6282C106.227 88.5386 96.9977 92.0951 90.987 102.16C89.6662 100.983 88.5675 99.7731 87.151 98.9358C86.2868 98.425 86.9605 97.7059 87.2947 97.1256C90.6215 91.3481 95.7284 87.7637 101.801 85.3738C102.612 85.0547 103.509 84.9137 104.33 84.0882C98.9606 78.854 96.6346 72.562 98.1602 65.1303C99.1012 60.5467 101.467 56.7283 105.235 53.9417C113.173 48.0717 124.1 48.9382 130.802 55.8839C136.59 61.8811 139.566 74.1143 129.39 84.3594C130.723 84.8787 132.005 85.3778 133.416 85.9414ZM106.635 77.8522C111.742 83.697 119.227 84.418 125.355 79.6556C129.626 76.3366 131.407 70.4151 129.68 65.2779C127.857 59.8539 122.664 55.87 117.3 55.8393C111.755 55.8075 107.652 58.3793 105.076 63.1696C102.363 68.2146 103.162 73.0868 106.635 77.8522Z" fill="white"/>
<path d="M130.367 123.747C132.618 123.524 134.704 123.176 136.789 123.175C138.879 123.173 139.987 122.296 140.759 120.39C142.689 115.621 144.799 110.925 146.826 106.194C147.495 104.632 148.204 103.073 150.235 103.09C152.319 103.108 153.313 104.485 154.06 106.263C156.099 111.124 158.287 115.922 160.292 120.797C160.98 122.47 162.078 123.016 163.771 123.149C169.206 123.575 174.632 124.123 180.063 124.617C181.626 124.759 182.887 125.272 183.385 126.957C183.874 128.61 183.154 129.808 182.003 130.831C178.109 134.293 174.289 137.847 170.247 141.127C168.398 142.628 167.924 144.043 168.515 146.316C169.791 151.223 170.754 156.211 171.933 161.144C172.335 162.826 172.364 164.364 170.891 165.459C169.347 166.606 167.79 166.108 166.268 165.197C161.579 162.39 156.848 159.652 152.178 156.813C151.005 156.1 150.082 156.044 148.893 156.8C146.231 158.492 143.475 160.036 140.747 161.647C139.067 158.351 139.137 157.971 141.598 155.813C142.937 154.64 144.274 153.466 145.588 152.265C148.478 149.625 150.876 149.329 154.231 151.285C157.031 152.917 159.805 154.594 162.595 156.243C163.294 156.656 163.949 157.184 165.117 157.235C164.296 153.581 163.701 149.966 162.646 146.49C161.446 142.538 162.353 139.694 165.735 137.246C168.544 135.213 170.994 132.682 173.876 130.129C171.281 129.161 168.844 129.53 166.53 129.14C164.724 128.836 162.869 128.823 161.037 128.669C158.476 128.454 156.659 127.312 155.672 124.8C154.373 121.492 152.894 118.255 151.478 114.994C151.232 114.427 151.08 113.784 150.327 113.338C148.915 115.691 148.068 118.281 146.937 120.733C146.245 122.232 145.581 123.746 144.963 125.277C144.169 127.239 142.672 128.348 140.66 128.607C137.705 128.985 134.725 129.163 131.759 129.465C130.599 129.583 129.836 129.277 129.437 128.066C129.027 126.822 128.429 125.64 127.946 124.508C128.653 123.623 129.514 124.009 130.367 123.747Z" fill="white"/>
<path d="M78.2926 125.552C77.0728 127.789 75.2109 128.563 72.8838 128.728C68.8471 129.014 64.8211 129.453 60.8117 129.826C60.6718 130.752 61.3272 130.983 61.7058 131.322C64.3585 133.693 66.9716 136.118 69.7477 138.338C72.106 140.224 72.6478 142.463 71.9513 145.273C71.1272 148.599 70.4422 151.958 69.7051 155.305C69.5839 155.855 69.4094 156.412 69.6806 157.092C70.5959 157.086 71.2815 156.501 72.0176 156.071C74.9803 154.339 77.9122 152.554 80.9003 150.867C83.4296 149.44 84.738 149.613 86.937 151.507C88.7665 153.082 90.4953 154.785 92.4045 156.255C94.1997 157.638 94.1184 159.127 93.0362 161.157C90.7057 159.833 88.3437 158.648 86.1577 157.198C84.6021 156.166 83.4304 156.033 81.7572 157.101C77.4206 159.87 72.9262 162.391 68.488 165C67.6731 165.479 66.8966 166.032 65.8883 166.11C63.4653 166.299 61.805 164.592 62.3034 162.21C63.4979 156.499 64.7335 150.796 66.0531 145.113C66.3547 143.814 66.1028 142.955 65.1156 142.108C60.9678 138.551 56.8777 134.927 52.7258 131.374C51.3203 130.172 50.3363 128.871 50.9745 126.932C51.5686 125.127 53.0602 124.774 54.7416 124.628C60.1776 124.157 65.6066 123.607 71.0414 123.122C72.4636 122.995 73.3334 122.336 73.8908 121.002C75.9965 115.961 78.1983 110.96 80.3133 105.923C81.0129 104.257 82.0358 103.063 83.9457 103.072C85.8392 103.081 86.6897 104.481 87.3403 105.979C89.4403 110.815 91.586 115.634 93.5392 120.529C94.2653 122.348 95.3664 123.064 97.2319 123.148C99.941 123.269 102.643 123.556 105.535 123.788C105.309 125.831 104.438 127.363 103.62 128.898C103.31 129.479 102.644 129.434 102.071 129.381C99.2898 129.126 96.5043 128.903 93.7319 128.572C91.4592 128.301 89.9576 127.04 89.0883 124.865C87.7445 121.504 86.2564 118.201 84.8169 114.878C84.6189 114.421 84.4389 113.924 83.6342 113.612C81.5559 117.386 80.1363 121.492 78.2926 125.552Z" fill="white"/>
</svg>
