<svg width="232" height="254" viewBox="0 0 232 254" fill="none" xmlns="http://www.w3.org/2000/svg">
<circle cx="111" cy="122" r="103" fill="#CAFFDA"/>
<path d="M49.056 128.096C49.056 127.691 49.0773 127.307 49.12 126.944C49.1627 126.56 49.2373 126.219 49.344 125.92C50.2187 125.856 50.784 125.643 51.04 125.28C51.296 124.896 51.424 124.171 51.424 123.104V119.264C51.424 118.475 51.3813 117.877 51.296 117.472C51.2107 117.067 50.9973 116.768 50.656 116.576C50.336 116.384 49.824 116.267 49.12 116.224C49.12 115.861 49.1413 115.509 49.184 115.168C49.248 114.805 49.3547 114.453 49.504 114.112C50.272 114.112 51.0507 114.069 51.84 113.984C52.6293 113.877 53.3653 113.749 54.048 113.6C54.7307 113.429 55.2747 113.248 55.68 113.056C55.936 113.141 56.16 113.333 56.352 113.632C56.544 113.931 56.64 114.357 56.64 114.912C56.64 115.296 56.5867 115.712 56.48 116.16C56.3947 116.587 56.224 117.291 55.968 118.272H55.776C56.1813 117.227 56.5013 116.48 56.736 116.032C56.9707 115.584 57.1947 115.253 57.408 115.04C57.8773 114.507 58.496 114.048 59.264 113.664C60.032 113.28 60.8747 113.088 61.792 113.088C62.816 113.088 63.7227 113.312 64.512 113.76C65.3227 114.187 65.9413 114.805 66.368 115.616C66.6453 116.107 66.784 116.608 66.784 117.12H66.624C67.008 116.117 67.4347 115.403 67.904 114.976C68.3733 114.507 68.9493 114.112 69.632 113.792C70.3147 113.451 71.0933 113.28 71.968 113.28C73.0987 113.28 74.048 113.472 74.816 113.856C75.6053 114.219 76.2027 114.805 76.608 115.616C77.0347 116.405 77.248 117.472 77.248 118.816V121.952C77.248 123.104 77.28 123.957 77.344 124.512C77.4293 125.045 77.5787 125.397 77.792 125.568C78.0053 125.739 78.336 125.845 78.784 125.888C78.8907 126.208 78.9547 126.56 78.976 126.944C79.0187 127.307 79.04 127.691 79.04 128.096C78.5067 128.053 77.8667 128.021 77.12 128C76.3733 128 75.6053 128 74.816 128C74.304 128 73.7493 128 73.152 128C72.5547 128.021 71.9787 128.032 71.424 128.032C70.8693 128.053 70.4 128.075 70.016 128.096C70.016 127.627 70.0267 127.232 70.048 126.912C70.0907 126.571 70.1547 126.229 70.24 125.888C70.6667 125.867 71.008 125.76 71.264 125.568C71.52 125.376 71.7013 125.013 71.808 124.48C71.9147 123.947 71.968 123.189 71.968 122.208V119.872C71.968 118.549 71.7867 117.664 71.424 117.216C71.0613 116.747 70.5813 116.512 69.984 116.512C69.3867 116.512 68.8533 116.704 68.384 117.088C67.936 117.472 67.584 118.048 67.328 118.816C67.0933 119.563 66.976 120.48 66.976 121.568V122.944C66.976 124.053 67.0933 124.811 67.328 125.216C67.5627 125.621 68.032 125.845 68.736 125.888C68.8213 126.165 68.8853 126.507 68.928 126.912C68.9707 127.296 68.992 127.691 68.992 128.096C68.5013 128.053 67.8187 128.021 66.944 128C66.0907 128 65.248 128 64.416 128C63.5627 128 62.6987 128 61.824 128C60.9707 128.021 60.256 128.053 59.68 128.096C59.68 127.691 59.7013 127.296 59.744 126.912C59.808 126.507 59.8827 126.165 59.968 125.888C60.4587 125.845 60.832 125.739 61.088 125.568C61.344 125.376 61.5147 125.013 61.6 124.48C61.7067 123.925 61.76 123.083 61.76 121.952V119.584C61.76 118.389 61.5787 117.568 61.216 117.12C60.8533 116.672 60.3093 116.448 59.584 116.448C59.0507 116.448 58.56 116.661 58.112 117.088C57.6853 117.515 57.3333 118.112 57.056 118.88C56.8 119.648 56.672 120.523 56.672 121.504V122.944C56.672 124.096 56.7893 124.864 57.024 125.248C57.2587 125.632 57.7173 125.845 58.4 125.888C58.5067 126.187 58.5813 126.528 58.624 126.912C58.6667 127.296 58.688 127.691 58.688 128.096C58.3467 128.053 57.8773 128.021 57.28 128C56.704 128 56.096 128 55.456 128C54.8373 128 54.2827 128 53.792 128C53.3013 128 52.736 128 52.096 128C51.4773 128 50.8907 128 50.336 128C49.8027 128.021 49.376 128.053 49.056 128.096ZM88.6238 128.288C86.8318 128.288 85.3171 127.989 84.0798 127.392C82.8638 126.773 81.9464 125.909 81.3278 124.8C80.7091 123.691 80.3997 122.389 80.3997 120.896C80.3997 119.168 80.7624 117.728 81.4878 116.576C82.2344 115.403 83.2478 114.528 84.5278 113.952C85.8078 113.355 87.2478 113.056 88.8478 113.056C90.6824 113.056 92.2078 113.376 93.4238 114.016C94.6611 114.656 95.5891 115.531 96.2078 116.64C96.8264 117.749 97.1358 119.029 97.1358 120.48C97.1358 122.08 96.7944 123.467 96.1118 124.64C95.4291 125.813 94.4478 126.72 93.1678 127.36C91.8878 127.979 90.3731 128.288 88.6238 128.288ZM89.1358 126.048C90.0104 126.048 90.6718 125.6 91.1198 124.704C91.5678 123.808 91.7918 122.699 91.7918 121.376C91.7918 119.989 91.6318 118.837 91.3118 117.92C90.9918 117.003 90.5758 116.32 90.0638 115.872C89.5518 115.403 88.9971 115.168 88.3998 115.168C87.4824 115.168 86.8104 115.616 86.3838 116.512C85.9571 117.408 85.7438 118.507 85.7438 119.808C85.7438 120.981 85.8718 122.048 86.1278 123.008C86.3838 123.947 86.7678 124.693 87.2798 125.248C87.7918 125.781 88.4104 126.048 89.1358 126.048ZM105.644 128.288C104.065 128.288 102.87 127.883 102.06 127.072C101.249 126.24 100.844 124.843 100.844 122.88V116.288C100.502 116.16 100.14 116.064 99.7555 116C99.3928 115.936 98.9662 115.904 98.4755 115.904C98.4755 115.477 98.4968 115.093 98.5395 114.752C98.6035 114.389 98.7208 114.027 98.8915 113.664H100.844V109.856C101.676 109.749 102.486 109.536 103.276 109.216C104.086 108.896 104.737 108.544 105.228 108.16C105.569 108.288 105.804 108.491 105.932 108.768C106.06 109.045 106.124 109.536 106.124 110.24V113.664H109.964C109.964 114.133 109.932 114.549 109.868 114.912C109.825 115.253 109.75 115.595 109.644 115.936C108.961 115.936 108.321 115.989 107.724 116.096C107.148 116.181 106.614 116.309 106.124 116.48V122.4C106.124 123.317 106.177 124.021 106.284 124.512C106.39 124.981 106.561 125.312 106.796 125.504C107.03 125.675 107.329 125.76 107.692 125.76C108.012 125.76 108.332 125.728 108.652 125.664C108.993 125.579 109.313 125.461 109.612 125.312C109.91 125.739 110.07 126.336 110.092 127.104C109.644 127.445 109.004 127.733 108.172 127.968C107.361 128.181 106.518 128.288 105.644 128.288ZM111.618 128.096C111.618 127.648 111.64 127.243 111.683 126.88C111.725 126.496 111.789 126.165 111.875 125.888C112.728 125.845 113.293 125.643 113.571 125.28C113.848 124.896 113.987 124.171 113.987 123.104V118.464C113.987 117.973 113.923 117.568 113.795 117.248C113.688 116.928 113.464 116.693 113.123 116.544C112.781 116.373 112.28 116.267 111.618 116.224C111.618 115.861 111.64 115.499 111.683 115.136C111.747 114.752 111.853 114.411 112.003 114.112C112.877 114.112 113.731 114.059 114.562 113.952C115.395 113.845 116.131 113.717 116.771 113.568C117.432 113.397 117.923 113.227 118.243 113.056C118.563 113.184 118.808 113.397 118.979 113.696C119.171 113.995 119.267 114.4 119.267 114.912V123.104C119.267 124.171 119.405 124.896 119.683 125.28C119.96 125.643 120.504 125.845 121.315 125.888C121.4 126.165 121.453 126.496 121.475 126.88C121.517 127.264 121.539 127.669 121.539 128.096C121.261 128.075 120.856 128.053 120.323 128.032C119.789 128.032 119.192 128.021 118.531 128C117.891 128 117.24 128 116.579 128C115.939 128 115.288 128 114.627 128C113.965 128.021 113.368 128.032 112.835 128.032C112.323 128.053 111.917 128.075 111.618 128.096ZM116.195 110.976C115.32 110.976 114.616 110.763 114.083 110.336C113.549 109.888 113.283 109.301 113.283 108.576C113.283 107.744 113.571 107.104 114.147 106.656C114.744 106.187 115.48 105.952 116.355 105.952C117.357 105.952 118.115 106.176 118.627 106.624C119.16 107.072 119.427 107.712 119.427 108.544C119.427 109.248 119.139 109.835 118.562 110.304C117.987 110.752 117.197 110.976 116.195 110.976ZM130.275 128.288C129.997 127.627 129.677 126.912 129.315 126.144C128.973 125.355 128.611 124.544 128.227 123.712C127.864 122.88 127.491 122.069 127.107 121.28C126.723 120.491 126.36 119.765 126.019 119.104C125.699 118.421 125.421 117.835 125.187 117.344C124.952 116.875 124.739 116.512 124.547 116.256C124.355 116 124.152 115.819 123.939 115.712C123.747 115.605 123.512 115.52 123.235 115.456C123.149 115.157 123.075 114.816 123.011 114.432C122.947 114.027 122.915 113.632 122.915 113.248C123.405 113.269 124.056 113.291 124.867 113.312C125.699 113.333 126.573 113.344 127.491 113.344C128.109 113.344 128.739 113.344 129.379 113.344C130.019 113.323 130.616 113.312 131.171 113.312C131.725 113.291 132.173 113.269 132.515 113.248C132.515 113.611 132.483 114.005 132.419 114.432C132.355 114.837 132.28 115.179 132.195 115.456C131.384 115.541 130.915 115.723 130.786 116C130.659 116.256 130.787 116.779 131.171 117.568C131.384 118.037 131.597 118.539 131.811 119.072C132.045 119.584 132.269 120.139 132.483 120.736C132.717 121.312 132.941 121.909 133.155 122.528C133.389 123.125 133.613 123.755 133.827 124.416H132.771C133.219 123.115 133.645 121.973 134.051 120.992C134.456 120.011 134.883 119.008 135.331 117.984C135.715 117.067 135.821 116.437 135.651 116.096C135.48 115.755 135.043 115.541 134.339 115.456C134.253 115.179 134.168 114.837 134.083 114.432C134.019 114.005 133.987 113.611 133.987 113.248C134.413 113.269 134.893 113.291 135.427 113.312C135.96 113.333 136.536 113.344 137.155 113.344C137.773 113.344 138.36 113.333 138.915 113.312C139.469 113.291 139.971 113.269 140.419 113.248C140.419 113.611 140.387 114.005 140.323 114.432C140.259 114.859 140.163 115.2 140.035 115.456C139.672 115.541 139.363 115.669 139.107 115.84C138.851 115.989 138.616 116.224 138.403 116.544C138.211 116.864 137.997 117.312 137.763 117.888L133.347 127.872C132.984 128.043 132.504 128.171 131.907 128.256C131.331 128.341 130.787 128.352 130.275 128.288ZM149.371 128.288C147.451 128.288 145.893 127.957 144.699 127.296C143.525 126.635 142.661 125.739 142.107 124.608C141.552 123.477 141.275 122.208 141.275 120.8C141.275 119.221 141.584 117.856 142.203 116.704C142.821 115.552 143.717 114.656 144.891 114.016C146.064 113.376 147.44 113.056 149.019 113.056C150.597 113.056 151.899 113.355 152.923 113.952C153.947 114.528 154.704 115.339 155.195 116.384C155.707 117.408 155.984 118.603 156.027 119.968C155.856 120.672 155.547 121.237 155.099 121.664C154.48 121.664 153.776 121.664 152.987 121.664C152.197 121.664 151.365 121.675 150.491 121.696C149.637 121.696 148.763 121.717 147.867 121.76C146.992 121.803 146.149 121.856 145.339 121.92V119.616H151.227C151.227 118.165 151.035 117.067 150.651 116.32C150.288 115.573 149.733 115.2 148.987 115.2C148.496 115.2 148.059 115.381 147.675 115.744C147.312 116.085 147.035 116.608 146.843 117.312C146.651 117.995 146.555 118.848 146.555 119.872C146.555 120.981 146.693 121.973 146.971 122.848C147.248 123.723 147.707 124.405 148.347 124.896C148.987 125.387 149.851 125.632 150.939 125.632C151.685 125.632 152.432 125.504 153.179 125.248C153.925 124.992 154.544 124.661 155.035 124.256C155.248 124.384 155.44 124.64 155.611 125.024C155.781 125.387 155.867 125.76 155.867 126.144C155.035 126.848 154.085 127.381 153.019 127.744C151.973 128.107 150.757 128.288 149.371 128.288ZM150.043 111.04C149.573 111.04 149.093 110.987 148.603 110.88C148.112 110.773 147.728 110.645 147.451 110.496C147.941 109.536 148.336 108.661 148.635 107.872C148.955 107.061 149.221 106.229 149.435 105.376C149.883 105.227 150.363 105.12 150.875 105.056C151.408 104.992 151.941 104.96 152.475 104.96C152.795 104.981 153.104 105.003 153.403 105.024C153.723 105.045 154 105.077 154.235 105.12C153.424 106.059 152.656 107.04 151.931 108.064C151.227 109.067 150.597 110.059 150.043 111.04ZM166.246 128.288C164.326 128.288 162.768 127.957 161.574 127.296C160.4 126.635 159.536 125.739 158.982 124.608C158.427 123.477 158.15 122.208 158.15 120.8C158.15 119.221 158.459 117.856 159.078 116.704C159.696 115.552 160.592 114.656 161.766 114.016C162.939 113.376 164.315 113.056 165.894 113.056C167.472 113.056 168.774 113.355 169.798 113.952C170.822 114.528 171.579 115.339 172.07 116.384C172.582 117.408 172.859 118.603 172.902 119.968C172.731 120.672 172.422 121.237 171.974 121.664C171.355 121.664 170.651 121.664 169.862 121.664C169.072 121.664 168.24 121.675 167.366 121.696C166.512 121.696 165.638 121.717 164.742 121.76C163.867 121.803 163.024 121.856 162.214 121.92V119.616H168.102C168.102 118.165 167.91 117.067 167.526 116.32C167.163 115.573 166.608 115.2 165.862 115.2C165.371 115.2 164.934 115.381 164.55 115.744C164.187 116.085 163.91 116.608 163.718 117.312C163.526 117.995 163.43 118.848 163.43 119.872C163.43 120.981 163.568 121.973 163.846 122.848C164.123 123.723 164.582 124.405 165.222 124.896C165.862 125.387 166.726 125.632 167.814 125.632C168.56 125.632 169.307 125.504 170.054 125.248C170.8 124.992 171.419 124.661 171.91 124.256C172.123 124.384 172.315 124.64 172.486 125.024C172.656 125.387 172.742 125.76 172.742 126.144C171.91 126.848 170.96 127.381 169.894 127.744C168.848 128.107 167.632 128.288 166.246 128.288Z" fill="#5F260E"/>
<circle cx="110" cy="123.5" r="103" fill="#CAFFDA"/>
<g filter="url(#filter0_d_408_2200)">
<path d="M63.09 55.18C76.9468 55.18 88.18 43.9468 88.18 30.09C88.18 16.2332 76.9468 5 63.09 5C49.2332 5 38 16.2332 38 30.09C38 43.9468 49.2332 55.18 63.09 55.18Z" fill="url(#paint0_radial_408_2200)"/>
</g>
<g filter="url(#filter1_d_408_2200)">
<path d="M199.09 188.18C212.947 188.18 224.18 176.947 224.18 163.09C224.18 149.233 212.947 138 199.09 138C185.233 138 174 149.233 174 163.09C174 176.947 185.233 188.18 199.09 188.18Z" fill="url(#paint1_radial_408_2200)"/>
</g>
<g filter="url(#filter2_d_408_2200)">
<path d="M38.09 216.18C51.9468 216.18 63.18 204.947 63.18 191.09C63.18 177.233 51.9468 166 38.09 166C24.2332 166 13 177.233 13 191.09C13 204.947 24.2332 216.18 38.09 216.18Z" fill="url(#paint2_radial_408_2200)"/>
</g>
<g filter="url(#filter3_d_408_2200)">
<path d="M163.09 80.18C176.947 80.18 188.18 68.9468 188.18 55.09C188.18 41.2332 176.947 30 163.09 30C149.233 30 138 41.2332 138 55.09C138 68.9468 149.233 80.18 163.09 80.18Z" fill="url(#paint3_radial_408_2200)"/>
</g>
<g filter="url(#filter4_d_408_2200)">
<path d="M143.09 238.18C156.947 238.18 168.18 226.947 168.18 213.09C168.18 199.233 156.947 188 143.09 188C129.233 188 118 199.233 118 213.09C118 226.947 129.233 238.18 143.09 238.18Z" fill="url(#paint4_radial_408_2200)"/>
</g>
<g filter="url(#filter5_d_408_2200)">
<path d="M41.09 139.18C54.9468 139.18 66.18 127.947 66.18 114.09C66.18 100.233 54.9468 89 41.09 89C27.2332 89 16 100.233 16 114.09C16 127.947 27.2332 139.18 41.09 139.18Z" fill="url(#paint5_radial_408_2200)"/>
</g>
<g filter="url(#filter6_d_408_2200)">
<path d="M48.056 129.596C48.056 129.191 48.0773 128.807 48.12 128.444C48.1627 128.06 48.2373 127.719 48.344 127.42C49.2187 127.356 49.784 127.143 50.04 126.78C50.296 126.396 50.424 125.671 50.424 124.604V120.764C50.424 119.975 50.3813 119.377 50.296 118.972C50.2107 118.567 49.9973 118.268 49.656 118.076C49.336 117.884 48.824 117.767 48.12 117.724C48.12 117.361 48.1413 117.009 48.184 116.668C48.248 116.305 48.3547 115.953 48.504 115.612C49.272 115.612 50.0507 115.569 50.84 115.484C51.6293 115.377 52.3653 115.249 53.048 115.1C53.7307 114.929 54.2747 114.748 54.68 114.556C54.936 114.641 55.16 114.833 55.352 115.132C55.544 115.431 55.64 115.857 55.64 116.412C55.64 116.796 55.5867 117.212 55.48 117.66C55.3947 118.087 55.224 118.791 54.968 119.772H54.776C55.1813 118.727 55.5013 117.98 55.736 117.532C55.9707 117.084 56.1947 116.753 56.408 116.54C56.8773 116.007 57.496 115.548 58.264 115.164C59.032 114.78 59.8747 114.588 60.792 114.588C61.816 114.588 62.7227 114.812 63.512 115.26C64.3227 115.687 64.9413 116.305 65.368 117.116C65.6453 117.607 65.784 118.108 65.784 118.62H65.624C66.008 117.617 66.4347 116.903 66.904 116.476C67.3733 116.007 67.9493 115.612 68.632 115.292C69.3147 114.951 70.0933 114.78 70.968 114.78C72.0987 114.78 73.048 114.972 73.816 115.356C74.6053 115.719 75.2027 116.305 75.608 117.116C76.0347 117.905 76.248 118.972 76.248 120.316V123.452C76.248 124.604 76.28 125.457 76.344 126.012C76.4293 126.545 76.5787 126.897 76.792 127.068C77.0053 127.239 77.336 127.345 77.784 127.388C77.8907 127.708 77.9547 128.06 77.976 128.444C78.0187 128.807 78.04 129.191 78.04 129.596C77.5067 129.553 76.8667 129.521 76.12 129.5C75.3733 129.5 74.6053 129.5 73.816 129.5C73.304 129.5 72.7493 129.5 72.152 129.5C71.5547 129.521 70.9787 129.532 70.424 129.532C69.8693 129.553 69.4 129.575 69.016 129.596C69.016 129.127 69.0267 128.732 69.048 128.412C69.0907 128.071 69.1547 127.729 69.24 127.388C69.6667 127.367 70.008 127.26 70.264 127.068C70.52 126.876 70.7013 126.513 70.808 125.98C70.9147 125.447 70.968 124.689 70.968 123.708V121.372C70.968 120.049 70.7867 119.164 70.424 118.716C70.0613 118.247 69.5813 118.012 68.984 118.012C68.3867 118.012 67.8533 118.204 67.384 118.588C66.936 118.972 66.584 119.548 66.328 120.316C66.0933 121.063 65.976 121.98 65.976 123.068V124.444C65.976 125.553 66.0933 126.311 66.328 126.716C66.5627 127.121 67.032 127.345 67.736 127.388C67.8213 127.665 67.8853 128.007 67.928 128.412C67.9707 128.796 67.992 129.191 67.992 129.596C67.5013 129.553 66.8187 129.521 65.944 129.5C65.0907 129.5 64.248 129.5 63.416 129.5C62.5627 129.5 61.6987 129.5 60.824 129.5C59.9707 129.521 59.256 129.553 58.68 129.596C58.68 129.191 58.7013 128.796 58.744 128.412C58.808 128.007 58.8827 127.665 58.968 127.388C59.4587 127.345 59.832 127.239 60.088 127.068C60.344 126.876 60.5147 126.513 60.6 125.98C60.7067 125.425 60.76 124.583 60.76 123.452V121.084C60.76 119.889 60.5787 119.068 60.216 118.62C59.8533 118.172 59.3093 117.948 58.584 117.948C58.0507 117.948 57.56 118.161 57.112 118.588C56.6853 119.015 56.3333 119.612 56.056 120.38C55.8 121.148 55.672 122.023 55.672 123.004V124.444C55.672 125.596 55.7893 126.364 56.024 126.748C56.2587 127.132 56.7173 127.345 57.4 127.388C57.5067 127.687 57.5813 128.028 57.624 128.412C57.6667 128.796 57.688 129.191 57.688 129.596C57.3467 129.553 56.8773 129.521 56.28 129.5C55.704 129.5 55.096 129.5 54.456 129.5C53.8373 129.5 53.2827 129.5 52.792 129.5C52.3013 129.5 51.736 129.5 51.096 129.5C50.4773 129.5 49.8907 129.5 49.336 129.5C48.8027 129.521 48.376 129.553 48.056 129.596ZM87.6238 129.788C85.8318 129.788 84.3171 129.489 83.0798 128.892C81.8638 128.273 80.9464 127.409 80.3278 126.3C79.7091 125.191 79.3997 123.889 79.3997 122.396C79.3997 120.668 79.7624 119.228 80.4878 118.076C81.2344 116.903 82.2478 116.028 83.5278 115.452C84.8078 114.855 86.2478 114.556 87.8478 114.556C89.6824 114.556 91.2078 114.876 92.4238 115.516C93.6611 116.156 94.5891 117.031 95.2078 118.14C95.8264 119.249 96.1358 120.529 96.1358 121.98C96.1358 123.58 95.7944 124.967 95.1118 126.14C94.4291 127.313 93.4478 128.22 92.1678 128.86C90.8878 129.479 89.3731 129.788 87.6238 129.788ZM88.1358 127.548C89.0104 127.548 89.6718 127.1 90.1198 126.204C90.5678 125.308 90.7918 124.199 90.7918 122.876C90.7918 121.489 90.6318 120.337 90.3118 119.42C89.9918 118.503 89.5758 117.82 89.0638 117.372C88.5518 116.903 87.9971 116.668 87.3998 116.668C86.4824 116.668 85.8104 117.116 85.3838 118.012C84.9571 118.908 84.7438 120.007 84.7438 121.308C84.7438 122.481 84.8718 123.548 85.1278 124.508C85.3838 125.447 85.7678 126.193 86.2798 126.748C86.7918 127.281 87.4104 127.548 88.1358 127.548ZM104.644 129.788C103.065 129.788 101.87 129.383 101.06 128.572C100.249 127.74 99.8435 126.343 99.8435 124.38V117.788C99.5022 117.66 99.1395 117.564 98.7555 117.5C98.3928 117.436 97.9662 117.404 97.4755 117.404C97.4755 116.977 97.4968 116.593 97.5395 116.252C97.6035 115.889 97.7208 115.527 97.8915 115.164H99.8435V111.356C100.676 111.249 101.486 111.036 102.276 110.716C103.086 110.396 103.737 110.044 104.228 109.66C104.569 109.788 104.804 109.991 104.932 110.268C105.06 110.545 105.124 111.036 105.124 111.74V115.164H108.964C108.964 115.633 108.932 116.049 108.868 116.412C108.825 116.753 108.75 117.095 108.644 117.436C107.961 117.436 107.321 117.489 106.724 117.596C106.148 117.681 105.614 117.809 105.124 117.98V123.9C105.124 124.817 105.177 125.521 105.284 126.012C105.39 126.481 105.561 126.812 105.796 127.004C106.03 127.175 106.329 127.26 106.692 127.26C107.012 127.26 107.332 127.228 107.652 127.164C107.993 127.079 108.313 126.961 108.612 126.812C108.91 127.239 109.07 127.836 109.092 128.604C108.644 128.945 108.004 129.233 107.172 129.468C106.361 129.681 105.518 129.788 104.644 129.788ZM110.618 129.596C110.618 129.148 110.64 128.743 110.683 128.38C110.725 127.996 110.789 127.665 110.875 127.388C111.728 127.345 112.293 127.143 112.571 126.78C112.848 126.396 112.987 125.671 112.987 124.604V119.964C112.987 119.473 112.923 119.068 112.795 118.748C112.688 118.428 112.464 118.193 112.123 118.044C111.781 117.873 111.28 117.767 110.618 117.724C110.618 117.361 110.64 116.999 110.683 116.636C110.747 116.252 110.853 115.911 111.003 115.612C111.877 115.612 112.731 115.559 113.562 115.452C114.395 115.345 115.131 115.217 115.771 115.068C116.432 114.897 116.923 114.727 117.243 114.556C117.563 114.684 117.808 114.897 117.979 115.196C118.171 115.495 118.267 115.9 118.267 116.412V124.604C118.267 125.671 118.405 126.396 118.683 126.78C118.96 127.143 119.504 127.345 120.315 127.388C120.4 127.665 120.453 127.996 120.475 128.38C120.517 128.764 120.539 129.169 120.539 129.596C120.261 129.575 119.856 129.553 119.323 129.532C118.789 129.532 118.192 129.521 117.531 129.5C116.891 129.5 116.24 129.5 115.579 129.5C114.939 129.5 114.288 129.5 113.627 129.5C112.965 129.521 112.368 129.532 111.835 129.532C111.323 129.553 110.917 129.575 110.618 129.596ZM115.195 112.476C114.32 112.476 113.616 112.263 113.083 111.836C112.549 111.388 112.283 110.801 112.283 110.076C112.283 109.244 112.571 108.604 113.147 108.156C113.744 107.687 114.48 107.452 115.355 107.452C116.357 107.452 117.115 107.676 117.627 108.124C118.16 108.572 118.427 109.212 118.427 110.044C118.427 110.748 118.139 111.335 117.562 111.804C116.987 112.252 116.197 112.476 115.195 112.476ZM129.275 129.788C128.997 129.127 128.677 128.412 128.315 127.644C127.973 126.855 127.611 126.044 127.227 125.212C126.864 124.38 126.491 123.569 126.107 122.78C125.723 121.991 125.36 121.265 125.019 120.604C124.699 119.921 124.421 119.335 124.187 118.844C123.952 118.375 123.739 118.012 123.547 117.756C123.355 117.5 123.152 117.319 122.939 117.212C122.747 117.105 122.512 117.02 122.235 116.956C122.149 116.657 122.075 116.316 122.011 115.932C121.947 115.527 121.915 115.132 121.915 114.748C122.405 114.769 123.056 114.791 123.867 114.812C124.699 114.833 125.573 114.844 126.491 114.844C127.109 114.844 127.739 114.844 128.379 114.844C129.019 114.823 129.616 114.812 130.171 114.812C130.725 114.791 131.173 114.769 131.515 114.748C131.515 115.111 131.483 115.505 131.419 115.932C131.355 116.337 131.28 116.679 131.195 116.956C130.384 117.041 129.915 117.223 129.786 117.5C129.659 117.756 129.787 118.279 130.171 119.068C130.384 119.537 130.597 120.039 130.811 120.572C131.045 121.084 131.269 121.639 131.483 122.236C131.717 122.812 131.941 123.409 132.155 124.028C132.389 124.625 132.613 125.255 132.827 125.916H131.771C132.219 124.615 132.645 123.473 133.051 122.492C133.456 121.511 133.883 120.508 134.331 119.484C134.715 118.567 134.821 117.937 134.651 117.596C134.48 117.255 134.043 117.041 133.339 116.956C133.253 116.679 133.168 116.337 133.083 115.932C133.019 115.505 132.987 115.111 132.987 114.748C133.413 114.769 133.893 114.791 134.427 114.812C134.96 114.833 135.536 114.844 136.155 114.844C136.773 114.844 137.36 114.833 137.915 114.812C138.469 114.791 138.971 114.769 139.419 114.748C139.419 115.111 139.387 115.505 139.323 115.932C139.259 116.359 139.163 116.7 139.035 116.956C138.672 117.041 138.363 117.169 138.107 117.34C137.851 117.489 137.616 117.724 137.403 118.044C137.211 118.364 136.997 118.812 136.763 119.388L132.347 129.372C131.984 129.543 131.504 129.671 130.907 129.756C130.331 129.841 129.787 129.852 129.275 129.788ZM148.371 129.788C146.451 129.788 144.893 129.457 143.699 128.796C142.525 128.135 141.661 127.239 141.107 126.108C140.552 124.977 140.275 123.708 140.275 122.3C140.275 120.721 140.584 119.356 141.203 118.204C141.821 117.052 142.717 116.156 143.891 115.516C145.064 114.876 146.44 114.556 148.019 114.556C149.597 114.556 150.899 114.855 151.923 115.452C152.947 116.028 153.704 116.839 154.195 117.884C154.707 118.908 154.984 120.103 155.027 121.468C154.856 122.172 154.547 122.737 154.099 123.164C153.48 123.164 152.776 123.164 151.987 123.164C151.197 123.164 150.365 123.175 149.491 123.196C148.637 123.196 147.763 123.217 146.867 123.26C145.992 123.303 145.149 123.356 144.339 123.42V121.116H150.227C150.227 119.665 150.035 118.567 149.651 117.82C149.288 117.073 148.733 116.7 147.987 116.7C147.496 116.7 147.059 116.881 146.675 117.244C146.312 117.585 146.035 118.108 145.843 118.812C145.651 119.495 145.555 120.348 145.555 121.372C145.555 122.481 145.693 123.473 145.971 124.348C146.248 125.223 146.707 125.905 147.347 126.396C147.987 126.887 148.851 127.132 149.939 127.132C150.685 127.132 151.432 127.004 152.179 126.748C152.925 126.492 153.544 126.161 154.035 125.756C154.248 125.884 154.44 126.14 154.611 126.524C154.781 126.887 154.867 127.26 154.867 127.644C154.035 128.348 153.085 128.881 152.019 129.244C150.973 129.607 149.757 129.788 148.371 129.788ZM149.043 112.54C148.573 112.54 148.093 112.487 147.603 112.38C147.112 112.273 146.728 112.145 146.451 111.996C146.941 111.036 147.336 110.161 147.635 109.372C147.955 108.561 148.221 107.729 148.435 106.876C148.883 106.727 149.363 106.62 149.875 106.556C150.408 106.492 150.941 106.46 151.475 106.46C151.795 106.481 152.104 106.503 152.403 106.524C152.723 106.545 153 106.577 153.235 106.62C152.424 107.559 151.656 108.54 150.931 109.564C150.227 110.567 149.597 111.559 149.043 112.54ZM165.246 129.788C163.326 129.788 161.768 129.457 160.574 128.796C159.4 128.135 158.536 127.239 157.982 126.108C157.427 124.977 157.15 123.708 157.15 122.3C157.15 120.721 157.459 119.356 158.078 118.204C158.696 117.052 159.592 116.156 160.766 115.516C161.939 114.876 163.315 114.556 164.894 114.556C166.472 114.556 167.774 114.855 168.798 115.452C169.822 116.028 170.579 116.839 171.07 117.884C171.582 118.908 171.859 120.103 171.902 121.468C171.731 122.172 171.422 122.737 170.974 123.164C170.355 123.164 169.651 123.164 168.862 123.164C168.072 123.164 167.24 123.175 166.366 123.196C165.512 123.196 164.638 123.217 163.742 123.26C162.867 123.303 162.024 123.356 161.214 123.42V121.116H167.102C167.102 119.665 166.91 118.567 166.526 117.82C166.163 117.073 165.608 116.7 164.862 116.7C164.371 116.7 163.934 116.881 163.55 117.244C163.187 117.585 162.91 118.108 162.718 118.812C162.526 119.495 162.43 120.348 162.43 121.372C162.43 122.481 162.568 123.473 162.846 124.348C163.123 125.223 163.582 125.905 164.222 126.396C164.862 126.887 165.726 127.132 166.814 127.132C167.56 127.132 168.307 127.004 169.054 126.748C169.8 126.492 170.419 126.161 170.91 125.756C171.123 125.884 171.315 126.14 171.486 126.524C171.656 126.887 171.742 127.26 171.742 127.644C170.91 128.348 169.96 128.881 168.894 129.244C167.848 129.607 166.632 129.788 165.246 129.788Z" fill="#5F260E"/>
</g>
<defs>
<filter id="filter0_d_408_2200" x="25" y="0.67" width="70.1802" height="70.1799" filterUnits="userSpaceOnUse" color-interpolation-filters="sRGB">
<feFlood flood-opacity="0" result="BackgroundImageFix"/>
<feColorMatrix in="SourceAlpha" type="matrix" values="0 0 0 0 0 0 0 0 0 0 0 0 0 0 0 0 0 0 127 0" result="hardAlpha"/>
<feOffset dx="-3" dy="5.67"/>
<feGaussianBlur stdDeviation="5"/>
<feColorMatrix type="matrix" values="0 0 0 0 0.113725 0 0 0 0 0.113725 0 0 0 0 0.105882 0 0 0 0.5 0"/>
<feBlend mode="normal" in2="BackgroundImageFix" result="effect1_dropShadow_408_2200"/>
<feBlend mode="normal" in="SourceGraphic" in2="effect1_dropShadow_408_2200" result="shape"/>
</filter>
<filter id="filter1_d_408_2200" x="161" y="133.67" width="70.1802" height="70.1799" filterUnits="userSpaceOnUse" color-interpolation-filters="sRGB">
<feFlood flood-opacity="0" result="BackgroundImageFix"/>
<feColorMatrix in="SourceAlpha" type="matrix" values="0 0 0 0 0 0 0 0 0 0 0 0 0 0 0 0 0 0 127 0" result="hardAlpha"/>
<feOffset dx="-3" dy="5.67"/>
<feGaussianBlur stdDeviation="5"/>
<feColorMatrix type="matrix" values="0 0 0 0 0.113725 0 0 0 0 0.113725 0 0 0 0 0.105882 0 0 0 0.5 0"/>
<feBlend mode="normal" in2="BackgroundImageFix" result="effect1_dropShadow_408_2200"/>
<feBlend mode="normal" in="SourceGraphic" in2="effect1_dropShadow_408_2200" result="shape"/>
</filter>
<filter id="filter2_d_408_2200" x="0" y="161.67" width="70.1802" height="70.1799" filterUnits="userSpaceOnUse" color-interpolation-filters="sRGB">
<feFlood flood-opacity="0" result="BackgroundImageFix"/>
<feColorMatrix in="SourceAlpha" type="matrix" values="0 0 0 0 0 0 0 0 0 0 0 0 0 0 0 0 0 0 127 0" result="hardAlpha"/>
<feOffset dx="-3" dy="5.67"/>
<feGaussianBlur stdDeviation="5"/>
<feColorMatrix type="matrix" values="0 0 0 0 0.113725 0 0 0 0 0.113725 0 0 0 0 0.105882 0 0 0 0.5 0"/>
<feBlend mode="normal" in2="BackgroundImageFix" result="effect1_dropShadow_408_2200"/>
<feBlend mode="normal" in="SourceGraphic" in2="effect1_dropShadow_408_2200" result="shape"/>
</filter>
<filter id="filter3_d_408_2200" x="125" y="25.67" width="70.1802" height="70.1799" filterUnits="userSpaceOnUse" color-interpolation-filters="sRGB">
<feFlood flood-opacity="0" result="BackgroundImageFix"/>
<feColorMatrix in="SourceAlpha" type="matrix" values="0 0 0 0 0 0 0 0 0 0 0 0 0 0 0 0 0 0 127 0" result="hardAlpha"/>
<feOffset dx="-3" dy="5.67"/>
<feGaussianBlur stdDeviation="5"/>
<feColorMatrix type="matrix" values="0 0 0 0 0.113725 0 0 0 0 0.113725 0 0 0 0 0.105882 0 0 0 0.5 0"/>
<feBlend mode="normal" in2="BackgroundImageFix" result="effect1_dropShadow_408_2200"/>
<feBlend mode="normal" in="SourceGraphic" in2="effect1_dropShadow_408_2200" result="shape"/>
</filter>
<filter id="filter4_d_408_2200" x="105" y="183.67" width="70.1802" height="70.1799" filterUnits="userSpaceOnUse" color-interpolation-filters="sRGB">
<feFlood flood-opacity="0" result="BackgroundImageFix"/>
<feColorMatrix in="SourceAlpha" type="matrix" values="0 0 0 0 0 0 0 0 0 0 0 0 0 0 0 0 0 0 127 0" result="hardAlpha"/>
<feOffset dx="-3" dy="5.67"/>
<feGaussianBlur stdDeviation="5"/>
<feColorMatrix type="matrix" values="0 0 0 0 0.113725 0 0 0 0 0.113725 0 0 0 0 0.105882 0 0 0 0.5 0"/>
<feBlend mode="normal" in2="BackgroundImageFix" result="effect1_dropShadow_408_2200"/>
<feBlend mode="normal" in="SourceGraphic" in2="effect1_dropShadow_408_2200" result="shape"/>
</filter>
<filter id="filter5_d_408_2200" x="3" y="84.67" width="70.1802" height="70.1799" filterUnits="userSpaceOnUse" color-interpolation-filters="sRGB">
<feFlood flood-opacity="0" result="BackgroundImageFix"/>
<feColorMatrix in="SourceAlpha" type="matrix" values="0 0 0 0 0 0 0 0 0 0 0 0 0 0 0 0 0 0 127 0" result="hardAlpha"/>
<feOffset dx="-3" dy="5.67"/>
<feGaussianBlur stdDeviation="5"/>
<feColorMatrix type="matrix" values="0 0 0 0 0.113725 0 0 0 0 0.113725 0 0 0 0 0.105882 0 0 0 0.5 0"/>
<feBlend mode="normal" in2="BackgroundImageFix" result="effect1_dropShadow_408_2200"/>
<feBlend mode="normal" in="SourceGraphic" in2="effect1_dropShadow_408_2200" result="shape"/>
</filter>
<filter id="filter6_d_408_2200" x="44.0562" y="106.46" width="131.846" height="31.4241" filterUnits="userSpaceOnUse" color-interpolation-filters="sRGB">
<feFlood flood-opacity="0" result="BackgroundImageFix"/>
<feColorMatrix in="SourceAlpha" type="matrix" values="0 0 0 0 0 0 0 0 0 0 0 0 0 0 0 0 0 0 127 0" result="hardAlpha"/>
<feOffset dy="4"/>
<feGaussianBlur stdDeviation="2"/>
<feComposite in2="hardAlpha" operator="out"/>
<feColorMatrix type="matrix" values="0 0 0 0 0 0 0 0 0 0 0 0 0 0 0 0 0 0 0.25 0"/>
<feBlend mode="normal" in2="BackgroundImageFix" result="effect1_dropShadow_408_2200"/>
<feBlend mode="normal" in="SourceGraphic" in2="effect1_dropShadow_408_2200" result="shape"/>
</filter>
<radialGradient id="paint0_radial_408_2200" cx="0" cy="0" r="1" gradientUnits="userSpaceOnUse" gradientTransform="translate(63.09 30.09) scale(25.09 25.09)">
<stop stop-color="#92E4AB"/>
<stop offset="0.309316" stop-color="#54D471"/>
<stop offset="1" stop-color="#0B8C24"/>
</radialGradient>
<radialGradient id="paint1_radial_408_2200" cx="0" cy="0" r="1" gradientUnits="userSpaceOnUse" gradientTransform="translate(199.09 163.09) scale(25.09 25.09)">
<stop stop-color="#92E4AB"/>
<stop offset="0.309316" stop-color="#54D471"/>
<stop offset="1" stop-color="#0B8C24"/>
</radialGradient>
<radialGradient id="paint2_radial_408_2200" cx="0" cy="0" r="1" gradientUnits="userSpaceOnUse" gradientTransform="translate(38.09 191.09) scale(25.09 25.09)">
<stop stop-color="#92E4AB"/>
<stop offset="0.309316" stop-color="#54D471"/>
<stop offset="1" stop-color="#0B8C24"/>
</radialGradient>
<radialGradient id="paint3_radial_408_2200" cx="0" cy="0" r="1" gradientUnits="userSpaceOnUse" gradientTransform="translate(163.09 55.09) scale(25.09 25.09)">
<stop offset="0.23" stop-color="#10C7AD"/>
<stop offset="0.775" stop-color="#068E7B"/>
<stop offset="1" stop-color="#077A6A"/>
</radialGradient>
<radialGradient id="paint4_radial_408_2200" cx="0" cy="0" r="1" gradientUnits="userSpaceOnUse" gradientTransform="translate(143.09 213.09) scale(25.09 25.09)">
<stop offset="0.23" stop-color="#10C7AD"/>
<stop offset="0.775" stop-color="#068E7B"/>
<stop offset="1" stop-color="#077A6A"/>
</radialGradient>
<radialGradient id="paint5_radial_408_2200" cx="0" cy="0" r="1" gradientUnits="userSpaceOnUse" gradientTransform="translate(41.09 114.09) scale(25.09 25.09)">
<stop offset="0.23" stop-color="#10C7AD"/>
<stop offset="0.775" stop-color="#068E7B"/>
<stop offset="1" stop-color="#077A6A"/>
</radialGradient>
</defs>
</svg>
