<svg width="140" height="133" viewBox="0 0 140 133" fill="none" xmlns="http://www.w3.org/2000/svg">
<path d="M8.81612 71.8335C9.21858 67.6362 8.36437 64.2713 5.62005 60.9674C0.803326 55.1687 -0.0682983 48.0204 0.211726 40.689C0.438409 34.7543 0.745697 28.7869 0.101493 22.8848C-0.828869 14.361 4.76418 10.3837 11.6637 11.3868C12.6985 11.5372 13.2569 11.2167 13.5805 10.2743C15.1015 5.84566 19.9229 3.47848 25.2961 4.80751C26.5339 5.11367 27.2307 4.90885 28.0276 3.92138C31.7078 -0.63862 37.249 -1.28465 41.7959 2.31423C42.6394 2.98185 43.2502 3.07761 44.2414 2.67583C50.9985 -0.0630873 56.7634 3.17824 57.6333 10.3029C57.8447 12.0341 58.5041 12.5375 60.0838 12.4296C61.1516 12.3567 62.236 12.3352 63.3003 12.4306C67.9177 12.8445 71.9002 12.0685 75.7202 8.84352C80.1999 5.06158 85.9963 3.86304 91.8682 3.78991C99.8373 3.69065 107.81 3.84582 115.778 3.6946C123.223 3.55328 125.588 9.93291 125.107 14.6049C124.999 15.6557 124.564 16.5129 126.031 17.1902C131.015 19.4902 132.71 22.9213 131.625 28.5416C131.334 30.0503 131.638 30.8197 132.822 31.7715C137.004 35.134 137.576 40.8185 134.231 45.0232C133.548 45.8828 133.209 46.4687 133.745 47.6057C135.589 51.514 135.043 55.1519 132.043 58.3344C131.48 58.9315 131.166 59.5595 131.19 60.368C131.201 60.7485 131.225 61.1332 131.185 61.5101C130.765 65.514 131.72 68.8514 134.428 72.1576C139.023 77.7668 140 84.6496 139.805 91.7699C139.64 97.7735 139.344 103.829 139.914 109.784C140.797 118.996 134.714 122.773 128.147 121.597C127.215 121.43 126.785 121.87 126.374 122.635C123.61 127.778 120.383 129.371 114.732 128.206C113.382 127.928 112.656 128.202 111.828 129.246C108.393 133.579 102.851 134.236 98.4059 130.827C97.3926 130.05 96.5819 130.074 95.4758 130.479C88.8224 132.917 83.5118 129.895 82.3795 122.842C82.0667 120.894 81.2729 120.406 79.5551 120.559C78.7947 120.626 78.0177 120.631 77.2579 120.561C72.3334 120.108 68.0363 120.883 63.9741 124.346C59.7036 127.988 54.0933 129.127 48.4652 129.209C40.3435 129.328 32.2187 129.295 24.0956 129.256C17.9857 129.227 13.9622 124.373 14.9246 118.291C15.0825 117.293 15.3106 116.503 14.024 115.866C8.83674 113.299 7.23142 109.913 8.41249 104.11C8.64815 102.952 8.41734 102.335 7.53657 101.594C2.82331 97.6264 2.26842 92.5687 6.03901 87.7271C6.74751 86.8173 6.64041 86.1679 6.20361 85.2716C4.31456 81.3953 5.04233 77.8609 7.85261 74.7294C8.59182 73.9057 8.85419 73.0663 8.81612 71.8335ZM57.8405 38.1702C57.6871 40.1478 56.8976 41.6312 54.6527 41.5602C52.4983 41.4921 51.9133 39.9369 51.7735 38.1041C51.7098 37.2693 51.5717 36.4358 51.5689 35.6013C51.5472 29.0505 51.5072 22.4992 51.5733 15.9489C51.5917 14.1298 51.9354 12.3128 51.4379 10.5109C50.9937 8.90225 49.8785 8.09772 48.2433 8.08467C46.5214 8.07092 45.5503 9.04001 45.2836 10.683C45.1623 11.4298 45.1568 12.2002 45.1538 12.9601C45.1404 16.3117 45.1545 19.6633 45.1409 23.0149C45.1378 23.7744 45.1258 24.5431 45.0106 25.2912C44.7226 27.1607 43.546 28.1988 41.6849 28.0325C39.9331 27.8759 38.9985 26.7095 38.985 24.9093C38.9482 20.0357 39.0208 15.158 38.8298 10.2904C38.729 7.71936 37.1417 6.24519 35.229 6.373C33.4514 6.49179 32.3468 8.03592 32.3279 10.6158C32.2955 15.0335 32.3571 19.4518 32.3175 23.8693C32.2934 26.5635 30.945 28.1249 28.8322 28.0817C26.8748 28.0418 25.7693 26.549 25.7414 23.7983C25.7067 20.3712 25.7242 16.9436 25.7107 13.5163C25.7038 11.758 24.783 10.8962 23.0378 10.7435C20.6004 10.5302 19.7019 11.2065 19.3123 13.6335C18.6559 17.7232 19.8629 21.8203 19.1777 25.9368C18.8588 27.8531 18.3265 29.1719 16.2015 29.243C14.3222 29.3059 13.1173 28.0776 12.9705 25.849C12.8605 24.1798 12.9625 22.4979 12.906 20.8238C12.8262 18.46 11.7357 17.3492 9.58495 17.3486C7.63057 17.3481 6.67295 18.4292 6.52839 20.823C6.4963 21.3544 6.51302 21.8887 6.50779 22.4216C6.44063 29.2712 6.31756 36.1209 6.32381 42.9705C6.32901 48.6735 7.44084 54.2512 11.5514 58.3846C14.6576 61.5081 15.42 64.8428 14.9125 68.8468C14.884 69.0721 14.929 69.3073 14.8953 69.5313C14.619 71.3683 15.4474 71.8851 17.2391 71.8618C23.5213 71.7802 29.8055 71.846 36.0889 71.8513C41.7461 71.8561 41.8103 71.8546 41.9071 66.2886C41.9482 63.9299 42.7348 62.2434 44.8707 61.0669C46.7408 60.0369 48.4898 58.7778 50.2395 57.5459C53.9929 54.9032 57.7434 52.2364 60.7697 48.7467C62.2946 46.9882 63.7479 44.9486 62.6077 42.5481C61.4235 40.055 59.7778 37.7786 58.0949 35.0148C58.0042 36.3231 57.952 37.0758 57.8405 38.1702ZM77.683 102.935C76.1505 100.476 74.6924 97.9663 73.064 95.5715C71.5121 93.2892 70.485 90.8989 70.7572 88.1012C70.8955 86.6804 70.211 86.1246 68.8955 86.1969C66.7492 86.315 65.2751 85.3821 64.2563 83.53C63.7078 82.533 63.0028 81.618 62.3367 80.6884C59.316 76.4722 56.409 72.1564 52.3769 68.7814C51.0975 67.7105 49.7541 66.6871 47.5543 67.1136C47.5543 69.0143 47.5458 70.8956 47.556 72.7768C47.5805 77.2865 46.8486 78.0261 42.2174 78.0303C33.8674 78.0378 25.5174 78.0222 17.1673 78.0256C16.2495 78.026 15.3031 77.9575 14.4199 78.149C12.7707 78.5065 11.6989 79.4958 11.6607 81.306C11.6245 83.0239 12.5097 84.0274 14.1637 84.3371C15.0597 84.5048 15.9807 84.6102 16.8915 84.618C20.5683 84.6494 24.2456 84.6188 27.9226 84.6371C30.4563 84.6497 31.7143 85.6171 31.7867 87.5451C31.8552 89.3714 30.4476 90.6956 28.1029 90.7448C24.1215 90.8284 20.1374 90.7751 16.1545 90.7977C15.0077 90.8042 13.8408 90.7536 12.7195 90.9422C11.0014 91.2312 9.95864 92.3751 9.96508 94.0996C9.97112 95.716 10.9303 96.7556 12.585 97.1053C14.4831 97.5064 16.3872 97.4257 18.3036 97.3101C21.7455 97.1025 25.1969 97.0191 28.6326 97.3086C30.6546 97.479 31.968 99.0122 31.7808 100.838C31.575 102.844 30.2961 103.71 28.3116 103.698C24.941 103.677 21.5702 103.671 18.1997 103.693C15.4197 103.711 14.2004 104.727 14.1894 106.959C14.1784 109.176 15.4174 110.228 18.1973 110.251C21.9491 110.282 25.702 110.217 29.4532 110.272C31.7891 110.306 32.879 111.358 32.8809 113.355C32.8828 115.312 31.7574 116.361 29.4369 116.446C27.6771 116.51 25.9136 116.468 24.1518 116.481C22.9062 116.49 21.9314 116.945 21.3705 118.124C20.7585 119.411 20.8185 120.68 21.645 121.804C22.5052 122.973 23.8652 123.03 25.1862 123.031C32.617 123.04 40.048 123.08 47.4785 123.036C54.1363 122.997 59.9257 120.752 64.5766 115.941C65.678 114.801 66.8521 114.311 68.4218 114.338C72.251 114.404 76.0826 114.322 79.912 114.379C81.3759 114.4 81.985 113.855 81.9969 112.383C82.0101 110.742 81.8012 109.245 80.7963 107.854C79.7266 106.372 78.8279 104.769 77.683 102.935ZM94.802 118.364C94.8382 114.939 94.7954 111.51 94.9418 108.09C95.0224 106.207 96.0317 104.82 98.1246 104.957C100.141 105.09 100.882 106.393 101.01 108.38C101.281 112.566 101.286 116.748 101.232 120.935C101.221 121.847 101.251 122.764 101.338 123.672C101.522 125.601 102.818 126.589 104.572 126.579C106.391 126.569 107.568 125.415 107.589 123.506C107.64 118.634 107.573 113.76 107.651 108.888C107.691 106.424 109.201 104.836 111.167 104.912C113.085 104.986 114.213 106.43 114.24 108.98C114.275 112.33 114.2 115.681 114.263 119.031C114.309 121.483 115.265 122.329 117.657 122.273C119.844 122.223 120.708 121.279 120.837 118.703C121.028 114.907 120.286 111.125 120.755 107.311C120.996 105.359 121.422 103.855 123.754 103.792C125.81 103.737 126.899 104.856 127.024 107.322C127.117 109.145 127.065 110.976 127.115 112.802C127.149 114.043 127.635 114.955 128.941 115.392C131.526 116.256 133.377 115.124 133.4 112.331C133.47 104.032 133.458 95.7323 133.399 87.4335C133.365 82.6117 131.946 77.9823 128.539 74.7013C125.181 71.4673 124.61 67.9544 125.071 63.8227C125.079 63.7474 125.066 63.6693 125.077 63.5946C125.368 61.6693 124.498 61.12 122.615 61.1436C115.875 61.2281 109.134 61.1405 102.393 61.1634C97.7668 61.1791 97.9414 60.4962 98.1475 65.4417C98.2847 68.7376 97.1185 70.756 94.2714 72.4878C88.8542 75.7827 83.6284 79.4123 79.3039 84.1343C77.7522 85.8287 76.3485 87.8823 77.2431 90.0911C78.3116 92.7292 80.1206 95.071 81.6087 97.5411C81.9287 96.0523 81.932 94.7507 82.3412 93.5098C82.8056 92.1014 83.8385 91.4607 85.3222 91.5085C86.8327 91.5571 87.8087 92.3056 88.0444 93.7791C88.2601 95.128 88.4029 96.5039 88.406 97.8683C88.4219 104.95 88.3762 112.031 88.3698 119.113C88.3689 120.176 88.3493 121.26 88.5375 122.298C88.8509 124.028 90.0167 124.951 91.7761 124.917C93.481 124.884 94.4548 123.851 94.6756 122.229C94.8286 121.104 94.7673 119.95 94.802 118.364ZM66.0717 18.6367C64.5391 18.6371 63.0066 18.6376 61.474 18.6379C57.6446 18.6385 56.7462 20.0719 58.3589 23.6357C58.546 24.0492 58.821 24.4242 59.063 24.8121C61.6067 28.8894 64.1322 32.978 66.7041 37.0376C68.2369 39.4569 69.561 41.9142 69.2174 44.9206C69.0967 45.9763 69.4314 46.869 70.6801 46.6643C73.3627 46.2246 74.7473 47.747 75.9473 49.7584C76.6884 51.0005 77.5541 52.1715 78.3975 53.3506C81.1512 57.2003 83.8783 61.0776 87.5325 64.1725C88.8146 65.2584 90.1926 66.1892 92.4046 66.0303C92.4046 63.6955 92.4017 61.4396 92.4053 59.1838C92.4103 56.1182 93.3794 55.0704 96.5174 55.011C100.501 54.9357 104.486 54.9648 108.471 54.9645C113.759 54.9641 119.046 55.0214 124.333 54.9695C127.094 54.9425 128.667 53.3534 128.281 51.0982C127.877 48.7289 125.94 48.467 124.073 48.4267C120.014 48.3388 115.951 48.4131 111.89 48.382C109.509 48.3638 108.365 47.4136 108.27 45.4929C108.173 43.4986 109.366 42.3209 111.84 42.2604C115.592 42.1685 119.348 42.2142 123.102 42.1993C124.251 42.1947 125.402 42.2221 126.549 42.1661C128.61 42.0654 129.894 40.9719 130.017 38.9257C130.144 36.8101 128.613 35.9646 126.815 35.7389C125.386 35.5595 123.915 35.7166 122.462 35.7204C118.787 35.7301 115.108 35.8304 111.436 35.7083C109.483 35.6433 108.113 34.0279 108.238 32.2253C108.38 30.1785 109.652 29.3207 111.639 29.326C115.01 29.3349 118.382 29.3402 121.754 29.3137C124.515 29.292 125.817 28.2451 125.86 26.0846C125.903 23.903 124.633 22.8038 121.847 22.7687C118.022 22.7206 114.197 22.7658 110.372 22.7408C108.398 22.7278 107.155 21.83 107.073 19.7497C106.996 17.7884 108.176 16.6411 110.418 16.5547C112.254 16.4839 114.096 16.5478 115.934 16.4967C117.284 16.4591 118.227 15.8124 118.729 14.5128C119.219 13.2445 119.034 12.0515 118.197 11.0807C117.276 10.0117 115.884 9.99273 114.576 9.98953C106.913 9.97077 99.2486 9.86865 91.5882 10.004C86.403 10.0955 81.3114 11.4116 77.6773 15.1131C74.573 18.2749 71.2481 19.0556 67.2199 18.6401C66.9924 18.6166 66.7604 18.6369 66.0717 18.6367ZM62.2234 56.2745C59.7719 58.3834 57.3205 60.4923 54.6364 62.8014C60.7621 67.3844 65.2086 73.0529 69.1897 79.12C69.6498 79.8213 70.3136 80.0193 71.1382 80.0886C73.3025 80.2703 75.0587 79.8913 76.5635 78.0268C78.9914 75.0184 82.3321 72.916 85.4253 70.233C79.2459 65.734 74.8069 60.0648 70.8929 53.9466C70.4331 53.2278 69.7928 53.0612 68.9949 52.9001C65.9709 52.2894 64.1278 53.956 62.2234 56.2745Z" fill="white"/>
</svg>
