<svg width="99" height="19" viewBox="0 0 99 19" fill="none" xmlns="http://www.w3.org/2000/svg">
<rect width="19" height="19" fill="#00B67A"/>
<rect x="20" width="19" height="19" fill="#00B67A"/>
<rect x="40" width="19" height="19" fill="#00B67A"/>
<rect x="60" width="19" height="19" fill="#00B67A"/>
<rect x="81" width="18" height="19" fill="#00B67A"/>
<path d="M9.5 3L10.9593 7.49139H15.6819L11.8613 10.2672L13.3206 14.7586L9.5 11.9828L5.6794 14.7586L7.13874 10.2672L3.31813 7.49139H8.04066L9.5 3Z" fill="white"/>
<path d="M29.5 3L30.9593 7.49139H35.6819L31.8613 10.2672L33.3206 14.7586L29.5 11.9828L25.6794 14.7586L27.1387 10.2672L23.3181 7.49139H28.0407L29.5 3Z" fill="white"/>
<path d="M49.5 3L50.9593 7.49139H55.6819L51.8613 10.2672L53.3206 14.7586L49.5 11.9828L45.6794 14.7586L47.1387 10.2672L43.3181 7.49139H48.0407L49.5 3Z" fill="white"/>
<path d="M69.5 3L70.9593 7.49139H75.6819L71.8613 10.2672L73.3206 14.7586L69.5 11.9828L65.6794 14.7586L67.1387 10.2672L63.3181 7.49139H68.0407L69.5 3Z" fill="white"/>
<path d="M90 3L91.3471 7.49139H95.7063L92.1796 10.2672L93.5267 14.7586L90 11.9828L86.4733 14.7586L87.8204 10.2672L84.2937 7.49139H88.6529L90 3Z" fill="white"/>
</svg>
