<svg width="89" height="36" viewBox="0 0 89 36" fill="none" xmlns="http://www.w3.org/2000/svg">
<path d="M19 0.899998L30.3 26C31.0667 27.5667 31.6667 28.7667 32.1 29.6C32.5333 30.4 32.9333 30.9333 33.3 31.2C33.7 31.4667 34.1333 31.6333 34.6 31.7C34.7333 32.1333 34.8333 32.65 34.9 33.25C34.9667 33.8167 35 34.45 35 35.15C34.4 35.0833 33.6333 35.0333 32.7 35C31.7667 35 30.8333 35 29.9 35C28.9667 35 28.2333 35 27.7 35C27.3 35 26.7333 35 26 35C25.3 35 24.5333 35 23.7 35C22.9 35.0333 22.1333 35.05 21.4 35.05C20.6667 35.0833 20.1 35.1167 19.7 35.15C19.7 34.35 19.7333 33.6833 19.8 33.15C19.8667 32.6167 19.9667 32.1333 20.1 31.7C21.2667 31.4667 21.95 31.0833 22.15 30.55C22.3833 29.9833 22.2333 29.0833 21.7 27.85L17.2 17.6C16.4333 15.8333 15.8 14.2 15.3 12.7C14.8333 11.1667 14.4333 9.66667 14.1 8.2H15.55C15.15 9.7 14.7 11.2167 14.2 12.75C13.7333 14.2833 13.15 15.8833 12.45 17.55L8.65 27.45C8.21667 28.5167 8.13333 29.45 8.4 30.25C8.66667 31.05 9.36667 31.5333 10.5 31.7C10.6333 32.1667 10.7333 32.6833 10.8 33.25C10.8667 33.8167 10.9 34.45 10.9 35.15C10.5333 35.1167 10.0167 35.0833 9.35 35.05C8.68333 35.05 7.98333 35.0333 7.25 35C6.55 35 5.91667 35 5.35 35C4.51667 35 3.65 35 2.75 35C1.88333 35.0333 1.2 35.0833 0.7 35.15C0.7 34.4833 0.733333 33.8833 0.8 33.35C0.866667 32.8167 0.983333 32.2667 1.15 31.7C1.71667 31.6 2.2 31.4 2.6 31.1C3 30.7667 3.38333 30.25 3.75 29.55C4.15 28.85 4.61667 27.85 5.15 26.55L15.7 1.15C16.2667 1.01666 16.7833 0.949997 17.25 0.949997C17.75 0.916664 18.3333 0.899998 19 0.899998ZM20.85 23L21.75 26C19.5167 26 17.1833 26.0333 14.75 26.1C12.35 26.1667 10 26.3167 7.7 26.55L8.45 23H20.85ZM43.2434 35.45C41.7767 35.45 40.6267 35.0333 39.7934 34.2C38.96 33.3333 38.5434 32.2167 38.5434 30.85C38.5434 29.45 39.01 28.35 39.9434 27.55C40.91 26.7167 42.11 26.3 43.5434 26.3C44.91 26.3 45.9934 26.75 46.7934 27.65C47.6267 28.55 48.0434 29.5333 48.0434 30.6C48.0434 31.9667 47.61 33.1167 46.7434 34.05C45.8767 34.9833 44.71 35.45 43.2434 35.45ZM52.7289 35.15C52.7289 34.35 52.7456 33.6833 52.7789 33.15C52.8122 32.5833 52.8956 32.1 53.0289 31.7C53.9289 31.6333 54.6122 31.4667 55.0789 31.2C55.5789 30.9 55.9289 30.3833 56.1289 29.65C56.3289 28.9167 56.4289 27.8333 56.4289 26.4V9.7C56.4289 8.3 56.3456 7.25 56.1789 6.55C56.0122 5.85 55.6789 5.36666 55.1789 5.1C54.7122 4.8 54.0289 4.6 53.1289 4.5C52.9956 4.06667 52.8956 3.56667 52.8289 3C52.7622 2.4 52.7289 1.75 52.7289 1.05C53.4622 1.08333 54.3456 1.11666 55.3789 1.15C56.4456 1.15 57.5789 1.16666 58.7789 1.2C59.9789 1.2 61.1289 1.2 62.2289 1.2C63.3289 1.2 64.2789 1.2 65.0789 1.2V25.8C65.0789 27.2333 65.2289 28.3667 65.5289 29.2C65.8622 30 66.3956 30.6 67.1289 31C67.8956 31.3667 68.9289 31.6 70.2289 31.7C70.4289 32.1667 70.5456 32.7167 70.5789 33.35C70.6122 33.95 70.6289 34.55 70.6289 35.15C70.0289 35.1167 69.2289 35.0833 68.2289 35.05C67.2622 35.05 66.2289 35.0333 65.1289 35C64.0289 35 62.9789 35 61.9789 35C60.3456 35 58.6456 35 56.8789 35C55.1456 35.0333 53.7622 35.0833 52.7289 35.15ZM75.4289 25.45C74.6289 25.45 73.9122 25.4333 73.2789 25.4C72.6789 25.3333 72.1289 25.2 71.6289 25C71.4956 23.5667 71.1122 22.6 70.4789 22.1C69.8456 21.6 68.7122 21.35 67.0789 21.35H64.0289V18H67.0789C68.8456 18 70.0122 17.7333 70.5789 17.2C71.1789 16.6667 71.4956 15.7167 71.5289 14.35C72.0622 14.1167 72.6789 13.9667 73.3789 13.9C74.0789 13.8333 74.7622 13.8 75.4289 13.8C75.3956 14.6 75.3456 15.4667 75.2789 16.4C75.2456 17.3333 75.2289 18.3833 75.2289 19.55C75.2289 20.8167 75.2456 21.9333 75.2789 22.9C75.3456 23.8333 75.3956 24.6833 75.4289 25.45ZM75.6289 10.5C75.4622 9.36666 75.1456 8.35 74.6789 7.45C74.2456 6.51666 73.5289 5.8 72.5289 5.3C71.5622 4.76667 70.1789 4.5 68.3789 4.5H63.0789L64.6289 1.2C67.2956 1.2 69.5289 1.2 71.3289 1.2C73.1289 1.16666 74.6289 1.15 75.8289 1.15C77.0622 1.11666 78.0956 1.08333 78.9289 1.05C78.9622 1.85 79.0122 2.78333 79.0789 3.85C79.1789 4.91667 79.2956 5.96667 79.4289 7C79.5956 8 79.7789 8.9 79.9789 9.7C79.4122 9.93333 78.7956 10.1333 78.1289 10.3C77.4622 10.4333 76.6289 10.5 75.6289 10.5ZM84.1125 35.45C82.6458 35.45 81.4958 35.0333 80.6625 34.2C79.8292 33.3333 79.4125 32.2167 79.4125 30.85C79.4125 29.45 79.8792 28.35 80.8125 27.55C81.7792 26.7167 82.9792 26.3 84.4125 26.3C85.7792 26.3 86.8625 26.75 87.6625 27.65C88.4958 28.55 88.9125 29.5333 88.9125 30.6C88.9125 31.9667 88.4792 33.1167 87.6125 34.05C86.7458 34.9833 85.5792 35.45 84.1125 35.45Z" fill="#5A1F06"/>
</svg>
