<?xml version="1.0" encoding="UTF-8"?>
<svg id="Calque_2" data-name="Calque 2" xmlns="http://www.w3.org/2000/svg" viewBox="0 0 220 220">
  <defs>
    <style>
      .cls-1 {
        fill: #d61016;
      }

      .cls-2 {
        fill: #dbdee1;
      }
    </style>
  </defs>
  <g id="Calque_1-2" data-name="Calque 1">
    <circle class="cls-1" cx="110" cy="110" r="110"/>
    <g>
      <path class="cls-2" d="M51.66,113.83c.46-3.4,2.33-5.98,4.43-8.43,1.6-1.87,3.28-3.68,5.28-5.16,1.03-.76,1.34-1.64,1.06-2.87-.34-1.51.07-3.11-.54-4.77-.7.76-.99,1.63-1.42,2.41-3.96,7.3-9.9,12.41-17.95,15.08-3.94,1.31-7.98,1.46-11.96.17-5.92-1.92-9.8-7.08-10.19-13.44-1.03-16.92,6.34-29.76,20.41-39.24,6.72-4.53,14.18-7.44,22.27-8.68,5.07-.78,10.15-.95,15.08.87,6.27,2.32,8.89,7.52,6.81,13.68-.44,1.31-.21,1.85,1.1,2.33,4.2,1.52,8.34,3.2,12.91,3.35,3.36.11,5.52-1.63,6.95-4.33,1.41-2.65,1.04-5.23-.84-7.58-.8-1-.7-1.52.58-1.88,3.87-1.09,7.6-.69,10.96,1.52,2,1.32,2.59,3.35,2.04,5.6-1.16,4.78-4.56,7.63-9.06,9.26-7.28,2.64-14.44,2.01-21.4-1.24-1.36-.63-2.76-1.2-4.11-1.85-.8-.38-1.29-.31-1.89.45-3.88,4.9-9.26,7.18-15.36,8.16-1.5.24-3,.26-4.5-.03-2.78-.53-4.8-1.98-5.53-4.7-.68-2.57.32-4.7,2.37-6.35,2.83-2.27,6.24-2.93,9.78-3.11,3.17-.17,6.32.07,9.43.71,1.19.25,1.73-.16,2.04-1.25,1.2-4.2-.74-7.49-5.24-8.68-4.42-1.17-8.72-.42-12.9,1.04-10,3.5-17.32,10.07-22.44,18.99-4.39,7.67-7.16,15.84-7.29,24.71-.04,2.29.21,4.58,1.31,6.69,1.13,2.17,2.8,2.95,5.24,2.46,6.17-1.22,10.81-4.82,14.88-9.23,3.41-3.7,6.04-7.85,7.25-12.74.25-.99,1.03-1.25,1.97-1.15.92.1,1.22.68,1.26,1.53.14,3.43.32,6.86.49,10.29.01.22.07.44.11.63.49.27.76-.06,1.06-.25.8-.49,1.55-1.05,2.38-1.48,2.07-1.08,3.68-2.46,4.92-4.52,2.26-3.75,7.85-5.4,12.11-3.94,1.84.63,1.88,1.31.08,3.28,1.7-.03,3.16,1.04,4.87.43.71-.26,1.28-.54,1.56-1.25,1.64-4.17,8.79-7.34,14.15-5.84.36.1.72.24,1.05.41.47.23.95.52.88,1.12-.07.58-.57.83-1.08.96-.63.15-1.31.17-1.86.81,1.95.94,3.84,1.07,5.79.21.4-.18.74-.4.92-.81,1.54-3.61,4.72-4.88,8.34-5.57,1.41-.27,2.82-.38,4.22-.21,1.07.13,1.4-.26,1.59-1.18.86-4.19,1.98-8.3,4-12.13,1.95-3.7,4.44-7.03,7.47-9.96,1.49-1.45,3.34-2.22,5.46-2.27.7-.02,1.46.07,1.89.73.46.71-.16,1.2-.48,1.73-4.8,7.86-8.57,16.12-10.37,25.14-.42,2.11-.64,4.25-.24,6.42.77,4.25,4.81,6.38,8.96,4.67,4.23-1.75,7.19-7.3,6.14-11.63-.26-1.07-.67-2.04-1.87-2.59-1.2-.55-1.14-1.39.09-1.97,2.07-.98,4.27-1.16,6.48-.6,1.88.48,3.02,2.22,3.2,4.42.17,2-.44,3.8-1.35,5.54-3.84,7.32-13.54,11.23-21.61,8.73-3.59-1.11-6.08-3.39-7.61-6.78-.65.24-.83.79-1.13,1.22-1.44,2.02-3.23,3.57-5.74,4.21-3.15.8-6.01-.57-7.23-3.53-.28-.67-.47-1.38-.73-2.15-1.33.21-2.62.46-3.94.42-.7-.02-.77.56-.94,1.03-.75,2.13-1.69,4.15-3,6.04-2.55,3.69-7.5,3.4-10.19,1.6-1.51-1.01-2.25-2.46-2.13-4.25.08-1.15-.24-1.63-1.51-1.29-.56.15-1.2.03-1.9.03-.39,1.66-.58,3.35-1.27,4.92-1.87,4.22-5.37,6.06-9.74,5.08-2.54-.57-4.15-2.06-4.77-4.53-.13-.52-.12-1.09-.59-1.64-2.16,1.22-4.16,2.64-6.08,4.18-.45.36-.28.94-.3,1.44-.11,3.32-.56,6.58-1.73,9.71-.85,2.27-2.05,4.34-4.15,5.77-.39.26-.79.51-1.2.72-2.77,1.35-6.42.58-6.24-3.78ZM60.22,72.72c1.07,2.19,2.91,3.08,5.76,2.65,3.74-.56,7.04-2.08,9.76-4.65,1.2-1.13,2.38-2.34,2.89-4.02-1.17-.7-2.43-.91-3.66-1.17-3.59-.75-7.19-1.08-10.74.16-3.09,1.07-4.76,3.96-4.01,7.03ZM54.19,114.43c.03.87-.09,1.84.89,2.29,1.04.47,1.81-.28,2.53-.82,1.37-1.03,2.25-2.46,3.01-3.94,1.51-2.95,2.26-6.06,1.95-9.38-.68-.06-.96.36-1.29.66-1.51,1.38-2.9,2.88-4.11,4.53-1.43,1.94-2.81,3.92-2.98,6.66ZM83.41,96.9c.94-1.81,1.48-3.72,1.39-5.78-1.83,2.47-3.01,5.2-3.78,8.47,1.34-.72,1.76-1.66,2.39-2.69ZM102.14,93.08c1.08-1.67,1.78-3.46,2.15-5.67-2.06,2.3-3.22,4.72-3.91,7.6.81-.56,1.24-1.15,1.76-1.92ZM123.6,85.35c-1.01,1.52-1.85,3.11-2.5,5.19,1.81-2.1,3.51-3.84,4.49-6.3-1.11.01-1.41.59-1.99,1.11Z"/>
      <path class="cls-2" d="M153.24,160.34c1.9-6.95,6-12.51,10.69-17.74.31-.34.65-.67.98-1q2.6-2.6.41-5.64c-.56-.77-1.07-1.61-2-2.3-.98,1.19-1.87,2.34-2.84,3.44-5.61,6.39-13.58,7.37-20.37,4.29-3.14-1.42-4.36-4.05-3.71-7.38,1.09-5.57,4.86-9.15,10.55-10.02,1.59-.24,3.11,0,4.58.57,2.58.99,3.62,3.05,2.8,5.66-.96,3.05-3.33,4.71-6.31,5.59-1.18.35-1.96.7-1.75,2.11.23,1.47.92,2.31,2.35,2.5,1.6.21,3.11-.09,4.52-.81,3.14-1.62,5.66-3.92,7.7-6.75.59-.82.66-1.53.03-2.37-.92-1.23-1.57-2.61-2.01-4.07-1.43-4.83.59-10.41,5.17-13.87,5.16-3.89,11.11-5.35,17.55-4.85,3.55.28,5.69,2.13,6.13,5.1.35,2.39-.53,4.49-2.45,5.98-1.7,1.32-3.71,2.18-5.87,2.62-.56.11-1.12.15-1.69.06-1.75-.29-2.12-.9-1.35-2.43.91-1.81,1.83-3.62,2.54-5.52.22-.58.51-1.17.45-1.85-5.57,2.44-7.79,7.79-5.7,13.68.79,2.23,2.01,4.24,3.25,6.25.48.79.99.6,1.65.31,3.61-1.6,7.36-2.49,11.38-2.27,4.77.26,8.95,3.39,9.71,7.44.37,1.99-.47,3.93-2.28,4.94-1.98,1.11-4.11,1.32-6.28.6-1.52-.5-1.82-1.49-.85-2.76.8-1.06,1.31-2.21,1.55-3.5.49-2.67-.85-4.59-3.59-4.86-3.38-.32-6.39.93-9.32,2.35-.84.41-.3,1.03-.08,1.54,1.1,2.58,2.31,5.14,2.73,7.93,1.38,9.39-1.13,17.48-8.87,23.59-3.87,3.05-8.41,4.25-13.41,3.39-4.77-.82-7.05-3.99-6.23-8.62.07-.41.15-.81.25-1.33ZM169.6,161.68c2.98-6.98,1.45-13.65-1.31-20.31-.98.33-1.41.96-1.91,1.49-1.66,1.76-3.23,3.58-4.6,5.56-2.67,3.86-4.98,7.86-5.78,12.55-.81,4.77,1.9,8.03,6.3,7.47,1.4-.18,2.59-.81,3.66-1.68,1.63-1.32,2.71-3.03,3.64-5.08ZM148.95,127.41c-1.57,1.36-2.72,5.16-2.05,6.82.93-.17,1.57-.76,2.16-1.41,1.45-1.61,1.47-4.11-.11-5.41Z"/>
      <path class="cls-2" d="M86.59,155.45c4.02-9.55,5.47-19.4,4.82-29.56-.07-1.05-.41-2.08-.47-3.12-.08-1.29-.8-1.67-2.01-1.8-2.84-.29-5.37-1.42-7.6-3.09-3.01-2.25-2.52-6.78.93-8.3,3.73-1.65,8.51-.99,10.72,3.68.63,1.33,1.13,2.71,1.72,4.14,1.3-.11,2.3-.83,3.28-1.48,2.82-1.88,4.68-4.36,4.84-7.81.08-1.69-.46-3.12-1.71-4.34-1.45-1.41-1.21-2.43.67-3.2,2.66-1.1,5.34-.37,7.74,2.12,1.88,1.95,2.27,4.44.99,6.86-1.65,3.13-4.43,5.2-7.35,7.08-1.97,1.27-4.03,2.4-6.26,3.17-.95.32-1.17.77-1.04,1.72,1.79,12.97-1.03,25.23-6.24,37.08-1.67,3.79-4.03,7.18-7.42,9.74-7.71,5.83-19.09,3.78-24.67-4.39-2.47-3.61-3.74-7.65-3.93-11.9-.51-11.56,2.46-22.15,10.05-31.28,1.46-1.75,3.1-3.34,5.11-4.5.72-.42,1.5-.79,2.29-1.06,1.05-.36,2.23-.55,3.08.27.83.81.27,1.85-.1,2.71-2.67,6.18-4.84,12.53-6.26,19.08-1.54,7.08-2,14.25-.74,21.43.5,2.87,1.51,5.59,3.53,7.83,1.77,1.96,3.18,2.29,5.64,1.26,3.65-1.52,5.98-4.38,7.92-7.59.91-1.5,1.63-3.1,2.48-4.75ZM86.33,117.3c1.07.58,2.1,1.3,3.57,1.24-.69-2.4-1.57-4.55-3.14-6.36-1.07-1.24-1.96-1.04-2.56.49-.64,1.64-.04,3.03,2.14,4.63Z"/>
      <path class="cls-2" d="M131.06,134.11c-3.11,1.36-4.66,3.88-5.81,6.72-.07.17-.14.34-.21.51-.54,1.21-.5,2.84-2.26,3.21-1.91.4-3.75.27-5.38-.96-.25-.19-.54-.35-.91-.58-1.49,1.67-3.18,3.03-5.48,3.41-2.32.38-4.61.27-6.81-.61-2.39-.95-3.76-3.14-3.67-5.97.07-2.35.87-4.48,2.4-6.33.51-.62,1.14-1.09,1.89-1.4,2.96-1.24,5.04.17,4.74,3.29-.2,2.14-.56,4.26-.86,6.39-.12.83-.27,1.69.52,2.28.85.64,1.7.25,2.51-.18.37-.2.72-.43,1.06-.68q2.47-1.82,1.7-4.7c-1.12-4.18-.38-8.29.68-12.34,1.97-7.53,5.94-13.82,12.56-18.37,1.94-1.34,4.07-2.31,6.41-2.78.98-.2,1.96-.24,2.94.04,1.33.38,1.55.92.69,1.95-1.04,1.24-2.19,2.4-3.25,3.62-2.81,3.22-4.88,6.85-6.26,10.85-1.44,4.17-2.59,8.42-3.18,12.8-.04.26,0,.54,0,.99,1.44-.96,2.67-1.94,4.17-2.5,2.21-.83,4.37-.58,5.37.67.96,1.2.67,3.21-.8,5.07-1.41,1.79-3.38,2.58-5.64,2.72-.45.03-.93-.15-1.35-.32-.43-.18-.66-.56-.47-1.02.17-.41.57-.4.97-.36,2.68.32,4.99-1.97,4.63-4.58-.06-.46-.13-.95-.9-.85Z"/>
      <path class="cls-2" d="M103.64,125.8c-.62-2.81.33-4.54,3.01-5.45,1.87-.63,3.79-.76,5.66-.01,1.62.65,2.01,1.96.95,3.31-.94,1.2-1.95,2.36-3.04,3.42-1.84,1.8-5.42,1.14-6.58-1.27Z"/>
    </g>
  </g>
</svg>