<?xml version="1.0" encoding="UTF-8"?>
<svg id="Calque_2" data-name="Calque 2" xmlns="http://www.w3.org/2000/svg" viewBox="0 0 83.42 63.79">
  <defs>
    <style>
      .cls-1 {
        fill: none;
        stroke: #fff;
        stroke-miterlimit: 10;
        stroke-width: 3px;
      }

      .cls-2 {
        fill: #ffd103;
      }

      .cls-3 {
        fill: #d61016;
      }
    </style>
  </defs>
  <g id="Calque_1-2" data-name="Calque 1">
    <g>
      <path class="cls-2" d="M81.92,22.74v-12.8c0-4.66-3.78-8.43-8.43-8.43h-10.23c0,.08.02.16.02.24,0,1.98-1.6,3.58-3.58,3.58s-3.58-1.6-3.58-3.58c0-.08.02-.16.02-.24H9.93C5.28,1.5,1.5,5.28,1.5,9.93v12.8c5.06,0,9.16,4.1,9.16,9.16s-4.1,9.16-9.16,9.16v12.8c0,4.66,3.78,8.43,8.43,8.43h46.2c0-.08-.02-.16-.02-.24,0-1.98,1.6-3.58,3.58-3.58s3.58,1.6,3.58,3.58c0,.08-.02.16-.02.24h10.23c4.66,0,8.43-3.78,8.43-8.43v-12.8c-5.06,0-9.16-4.1-9.16-9.16s4.1-9.16,9.16-9.16ZM59.7,55.6c-1.98,0-3.58-1.6-3.58-3.58s1.6-3.58,3.58-3.58,3.58,1.6,3.58,3.58-1.6,3.58-3.58,3.58ZM59.7,45.56c-1.98,0-3.58-1.6-3.58-3.58s1.6-3.58,3.58-3.58,3.58,1.6,3.58,3.58-1.6,3.58-3.58,3.58ZM59.7,35.52c-1.98,0-3.58-1.6-3.58-3.58s1.6-3.58,3.58-3.58,3.58,1.6,3.58,3.58-1.6,3.58-3.58,3.58ZM59.7,25.48c-1.98,0-3.58-1.6-3.58-3.58s1.6-3.58,3.58-3.58,3.58,1.6,3.58,3.58-1.6,3.58-3.58,3.58ZM59.7,15.51c-1.98,0-3.58-1.6-3.58-3.58s1.6-3.58,3.58-3.58,3.58,1.6,3.58,3.58-1.6,3.58-3.58,3.58Z"/>
      <path class="cls-2" d="M81.92,22.74v-12.8c0-4.66-3.78-8.43-8.43-8.43h-10.23c0,.08.02.16.02.24,0,1.98-1.6,3.58-3.58,3.58s-3.58-1.6-3.58-3.58c0-.08.02-.16.02-.24H9.93C5.28,1.5,1.5,5.28,1.5,9.93v12.8c5.06,0,9.16,4.1,9.16,9.16s-4.1,9.16-9.16,9.16v12.8c0,4.66,3.78,8.43,8.43,8.43h46.2c0-.08-.02-.16-.02-.24,0-1.98,1.6-3.58,3.58-3.58s3.58,1.6,3.58,3.58c0,.08-.02.16-.02.24h10.23c4.66,0,8.43-3.78,8.43-8.43v-12.8c-5.06,0-9.16-4.1-9.16-9.16s4.1-9.16,9.16-9.16ZM59.7,55.6c-1.98,0-3.58-1.6-3.58-3.58s1.6-3.58,3.58-3.58,3.58,1.6,3.58,3.58-1.6,3.58-3.58,3.58ZM59.7,45.56c-1.98,0-3.58-1.6-3.58-3.58s1.6-3.58,3.58-3.58,3.58,1.6,3.58,3.58-1.6,3.58-3.58,3.58ZM59.7,35.52c-1.98,0-3.58-1.6-3.58-3.58s1.6-3.58,3.58-3.58,3.58,1.6,3.58,3.58-1.6,3.58-3.58,3.58ZM59.7,25.48c-1.98,0-3.58-1.6-3.58-3.58s1.6-3.58,3.58-3.58,3.58,1.6,3.58,3.58-1.6,3.58-3.58,3.58ZM59.7,15.51c-1.98,0-3.58-1.6-3.58-3.58s1.6-3.58,3.58-3.58,3.58,1.6,3.58,3.58-1.6,3.58-3.58,3.58Z"/>
      <path class="cls-1" d="M81.92,22.74v-12.8c0-4.66-3.78-8.43-8.43-8.43h-10.23c0,.08.02.16.02.24,0,1.98-1.6,3.58-3.58,3.58s-3.58-1.6-3.58-3.58c0-.08.02-.16.02-.24H9.93C5.28,1.5,1.5,5.28,1.5,9.93v12.8c5.06,0,9.16,4.1,9.16,9.16s-4.1,9.16-9.16,9.16v12.8c0,4.66,3.78,8.43,8.43,8.43h46.2c0-.08-.02-.16-.02-.24,0-1.98,1.6-3.58,3.58-3.58s3.58,1.6,3.58,3.58c0,.08-.02.16-.02.24h10.23c4.66,0,8.43-3.78,8.43-8.43v-12.8c-5.06,0-9.16-4.1-9.16-9.16s4.1-9.16,9.16-9.16ZM59.7,55.6c-1.98,0-3.58-1.6-3.58-3.58s1.6-3.58,3.58-3.58,3.58,1.6,3.58,3.58-1.6,3.58-3.58,3.58ZM59.7,45.56c-1.98,0-3.58-1.6-3.58-3.58s1.6-3.58,3.58-3.58,3.58,1.6,3.58,3.58-1.6,3.58-3.58,3.58ZM59.7,35.52c-1.98,0-3.58-1.6-3.58-3.58s1.6-3.58,3.58-3.58,3.58,1.6,3.58,3.58-1.6,3.58-3.58,3.58ZM59.7,25.48c-1.98,0-3.58-1.6-3.58-3.58s1.6-3.58,3.58-3.58,3.58,1.6,3.58,3.58-1.6,3.58-3.58,3.58ZM59.7,15.51c-1.98,0-3.58-1.6-3.58-3.58s1.6-3.58,3.58-3.58,3.58,1.6,3.58,3.58-1.6,3.58-3.58,3.58Z"/>
    </g>
    <polygon class="cls-3" points="33.12 17.2 36.77 28.42 48.57 28.42 39.02 35.36 42.67 46.59 33.12 39.65 23.57 46.59 27.22 35.36 17.66 28.42 29.47 28.42 33.12 17.2"/>
  </g>
</svg>