<?xml version="1.0" encoding="UTF-8"?>
<svg id="Calque_2" data-name="Calque 2" xmlns="http://www.w3.org/2000/svg" xmlns:xlink="http://www.w3.org/1999/xlink" viewBox="0 0 231.18 212.18">
  <defs>
    <style>
      .cls-1 {
        filter: url(#drop-shadow-1);
      }

      .cls-2 {
        filter: url(#drop-shadow-3);
      }

      .cls-3 {
        filter: url(#drop-shadow-2);
      }

      .cls-4 {
        filter: url(#drop-shadow-6);
      }

      .cls-5 {
        filter: url(#drop-shadow-7);
      }

      .cls-6 {
        filter: url(#drop-shadow-5);
      }

      .cls-7 {
        filter: url(#drop-shadow-4);
      }

      .cls-8 {
        fill: #5f2712;
      }

      .cls-9 {
        fill: #d6ebfb;
      }

      .cls-10 {
        fill: url(#Dégradé_sans_nom_13);
      }

      .cls-11 {
        fill: url(#Dégradé_sans_nom_12);
      }

      .cls-12 {
        fill: url(#Dégradé_sans_nom_12-3);
      }

      .cls-13 {
        fill: url(#Dégradé_sans_nom_12-2);
      }

      .cls-14 {
        fill: url(#Dégradé_sans_nom_13-3);
      }

      .cls-15 {
        fill: url(#Dégradé_sans_nom_13-2);
      }
    </style>
    <filter id="drop-shadow-1" x="70.79" y="5.78" width="80.4" height="80.64" filterUnits="userSpaceOnUse">
      <feOffset dx="5" dy="7"/>
      <feGaussianBlur result="blur" stdDeviation="5"/>
      <feFlood flood-color="#1d1d1b" flood-opacity=".8"/>
      <feComposite in2="blur" operator="in"/>
      <feComposite in="SourceGraphic"/>
    </filter>
    <radialGradient id="Dégradé_sans_nom_12" data-name="Dégradé sans nom 12" cx="-1365.17" cy="-349.79" fx="-1365.17" fy="-349.79" r="1" gradientTransform="translate(34358.18 -8737.04) scale(25.09 -25.09)" gradientUnits="userSpaceOnUse">
      <stop offset="0" stop-color="#b2dde2"/>
      <stop offset=".26" stop-color="#6dc5d1"/>
      <stop offset=".63" stop-color="#3ebac9"/>
      <stop offset="1" stop-color="#08a4ad"/>
    </radialGradient>
    <filter id="drop-shadow-2" x="57.83" y="121.94" width="80.4" height="80.4" filterUnits="userSpaceOnUse">
      <feOffset dx="5" dy="7"/>
      <feGaussianBlur result="blur-2" stdDeviation="5"/>
      <feFlood flood-color="#1d1d1b" flood-opacity=".8"/>
      <feComposite in2="blur-2" operator="in"/>
      <feComposite in="SourceGraphic"/>
    </filter>
    <radialGradient id="Dégradé_sans_nom_12-2" data-name="Dégradé sans nom 12" cy="-349.79" fy="-349.79" r="1" gradientTransform="translate(34345.18 -8621.04) scale(25.09 -25.09)" xlink:href="#Dégradé_sans_nom_12"/>
    <filter id="drop-shadow-3" x="154.79" y="153.86" width="80.4" height="80.4" filterUnits="userSpaceOnUse">
      <feOffset dx="5" dy="7"/>
      <feGaussianBlur result="blur-3" stdDeviation="5"/>
      <feFlood flood-color="#1d1d1b" flood-opacity=".8"/>
      <feComposite in2="blur-3" operator="in"/>
      <feComposite in="SourceGraphic"/>
    </filter>
    <radialGradient id="Dégradé_sans_nom_13" data-name="Dégradé sans nom 13" cx="-1365.17" cy="-349.79" fx="-1365.17" fy="-349.79" r="1" gradientTransform="translate(34442.18 -8589.04) scale(25.09 -25.09)" gradientUnits="userSpaceOnUse">
      <stop offset="0" stop-color="#d6e4e5"/>
      <stop offset=".63" stop-color="#9aafb0"/>
      <stop offset="1" stop-color="#808a8a"/>
    </radialGradient>
    <filter id="drop-shadow-4" x="-10.09" y="55.94" width="80.4" height="80.4" filterUnits="userSpaceOnUse">
      <feOffset dx="5" dy="7"/>
      <feGaussianBlur result="blur-4" stdDeviation="5"/>
      <feFlood flood-color="#1d1d1b" flood-opacity=".8"/>
      <feComposite in2="blur-4" operator="in"/>
      <feComposite in="SourceGraphic"/>
    </filter>
    <radialGradient id="Dégradé_sans_nom_13-2" data-name="Dégradé sans nom 13" cx="-1365.17" cy="-349.79" fx="-1365.17" fy="-349.79" r="1" gradientTransform="translate(34277.18 -8687.04) scale(25.09 -25.09)" xlink:href="#Dégradé_sans_nom_13"/>
    <filter id="drop-shadow-5" x="145.91" y="-1.18" width="80.4" height="80.4" filterUnits="userSpaceOnUse">
      <feOffset dx="5" dy="7"/>
      <feGaussianBlur result="blur-5" stdDeviation="5"/>
      <feFlood flood-color="#1d1d1b" flood-opacity=".8"/>
      <feComposite in2="blur-5" operator="in"/>
      <feComposite in="SourceGraphic"/>
    </filter>
    <radialGradient id="Dégradé_sans_nom_13-3" data-name="Dégradé sans nom 13" cx="-1365.17" fx="-1365.17" r="1" gradientTransform="translate(34433.18 -8744.04) scale(25.09 -25.09)" xlink:href="#Dégradé_sans_nom_13"/>
    <filter id="drop-shadow-6" x="51.83" y="79.46" width="152.64" height="53.52" filterUnits="userSpaceOnUse">
      <feOffset dx="5" dy="7"/>
      <feGaussianBlur result="blur-6" stdDeviation="5"/>
      <feFlood flood-color="#1d1d1b" flood-opacity=".8"/>
      <feComposite in2="blur-6" operator="in"/>
      <feComposite in="SourceGraphic"/>
    </filter>
    <filter id="drop-shadow-7" x="170.87" y="70.82" width="80.4" height="80.4" filterUnits="userSpaceOnUse">
      <feOffset dx="5" dy="7"/>
      <feGaussianBlur result="blur-7" stdDeviation="5"/>
      <feFlood flood-color="#1d1d1b" flood-opacity=".8"/>
      <feComposite in2="blur-7" operator="in"/>
      <feComposite in="SourceGraphic"/>
    </filter>
    <radialGradient id="Dégradé_sans_nom_12-3" data-name="Dégradé sans nom 12" r="1" gradientTransform="translate(34458.18 -8672.04) scale(25.09 -25.09)" xlink:href="#Dégradé_sans_nom_12"/>
  </defs>
  <g id="Calque_1-2" data-name="Calque 1">
    <g>
      <circle class="cls-9" cx="126" cy="103" r="103"/>
      <path class="cls-8" d="M71.11,101.06c.45,0,.86.03,1.25.1.41.06.82.15,1.25.26v3.2c-.34-.47-.71-.83-1.12-1.09-.38-.26-.85-.38-1.41-.38-.38,0-.79.07-1.22.22-.43.15-.83.43-1.22.83-.36.4-.66.99-.9,1.76-.23.75-.35,1.72-.35,2.91,0,.85.1,1.63.29,2.34.21.68.52,1.23.93,1.63.43.4.95.61,1.57.61.51,0,1-.16,1.47-.48.47-.34.86-.89,1.18-1.63.32-.77.48-1.78.48-3.04l1.38,3.23c-.38.9-.75,1.6-1.09,2.11-.32.49-.65.86-.99,1.12-.23.24-.57.47-.99.7-.41.24-.89.43-1.44.58-.53.17-1.11.26-1.73.26-1.22,0-2.31-.22-3.3-.67-.96-.47-1.72-1.19-2.27-2.18-.55-.98-.83-2.24-.83-3.78,0-1.71.37-3.2,1.12-4.48.75-1.3,1.8-2.31,3.17-3.04,1.37-.72,2.95-1.09,4.77-1.09ZM78.57,110.21c0,.75.04,1.32.13,1.73.09.38.26.65.51.8.28.13.68.2,1.22.22.06.4.06.8,0,1.18-.04.38-.15.75-.32,1.09-.87.02-1.77.12-2.69.29-.9.17-1.74.43-2.53.77-.41-.15-.69-.36-.86-.64-.17-.3-.26-.69-.26-1.18,0-.43.05-.86.16-1.31.11-.47.25-.96.42-1.47l4.22-1.47ZM78.57,97.79v14.02h-5.25v-14.02h5.25ZM77.54,93.06c.32.13.57.34.74.64.19.3.29.7.29,1.22v3.9h-5.25v-.35c0-.49-.06-.9-.19-1.22s-.36-.55-.7-.7c-.34-.17-.84-.28-1.5-.32,0-.36.02-.73.06-1.09.06-.38.17-.73.32-1.02.87,0,1.73-.05,2.56-.16.83-.11,1.57-.23,2.21-.38.66-.17,1.15-.34,1.47-.51ZM82.15,116.1c0-.45.02-.85.06-1.22.04-.38.11-.71.19-.99.85-.04,1.42-.25,1.7-.61.28-.38.42-1.11.42-2.18v-4.64c0-.49-.06-.9-.19-1.22-.11-.32-.33-.56-.67-.7-.34-.17-.84-.28-1.5-.32,0-.36.02-.72.06-1.09.06-.38.17-.72.32-1.02.87,0,1.73-.05,2.56-.16.83-.11,1.57-.24,2.21-.38.66-.17,1.15-.34,1.47-.51.32.13.56.34.74.64.19.3.29.7.29,1.22v8.19c0,1.07.14,1.79.42,2.18.28.36.82.57,1.63.61.08.28.14.61.16.99.04.38.06.79.06,1.22-.28-.02-.68-.04-1.22-.06-.53,0-1.13-.01-1.79-.03h-3.9c-.66.02-1.26.03-1.79.03-.51.02-.92.04-1.22.06ZM86.73,98.98c-.87,0-1.58-.21-2.11-.64-.53-.45-.8-1.03-.8-1.76,0-.83.29-1.47.86-1.92.6-.47,1.33-.7,2.21-.7,1,0,1.76.22,2.27.67.53.45.8,1.09.8,1.92,0,.7-.29,1.29-.86,1.76-.58.45-1.37.67-2.37.67ZM106.02,102.05c-.02.56-.03,1.13-.03,1.73.02.58.07,1.14.16,1.7-.32.17-.74.32-1.25.45-.49.13-.99.19-1.5.19-.06-.53-.21-1.01-.45-1.44-.21-.45-.52-.8-.93-1.06-.38-.26-.89-.38-1.5-.38-.43,0-.77.12-1.02.35-.24.21-.35.5-.35.86,0,.26.06.5.19.74.15.24.46.5.93.8.49.28,1.24.63,2.24,1.06,1.22.49,2.17.96,2.85,1.41.7.45,1.21.93,1.5,1.44.3.51.45,1.13.45,1.86,0,.96-.29,1.78-.86,2.46-.56.68-1.36,1.21-2.4,1.57-1.05.34-2.3.51-3.78.51-1.34,0-2.46-.1-3.36-.29-.9-.19-1.77-.46-2.62-.8.06-.43.11-.88.13-1.34.02-.49.02-.96,0-1.41,0-.47-.02-.88-.06-1.22.32-.21.75-.36,1.28-.45.55-.11,1.07-.16,1.54-.16.13,1.11.45,1.95.96,2.53.53.56,1.18.83,1.95.83.53,0,.97-.12,1.31-.35.36-.24.54-.58.54-1.02,0-.32-.09-.6-.26-.83-.15-.26-.44-.5-.86-.74-.41-.26-1.01-.53-1.82-.83-.94-.36-1.75-.75-2.43-1.15-.68-.4-1.22-.91-1.6-1.5-.36-.6-.54-1.37-.54-2.3,0-.72.15-1.34.45-1.86.32-.53.77-.97,1.34-1.31.58-.34,1.24-.6,1.98-.77.77-.17,1.59-.26,2.46-.26,1.19,0,2.21.08,3.04.26.83.15,1.61.4,2.34.74ZM122.84,114.37c-.56.62-1.31,1.1-2.27,1.44-.94.32-2.01.48-3.2.48-1.58,0-2.98-.28-4.19-.83-1.19-.56-2.13-1.39-2.82-2.5-.66-1.11-.99-2.52-.99-4.22,0-1.28.29-2.51.87-3.68.58-1.17,1.43-2.13,2.56-2.88,1.15-.75,2.58-1.12,4.29-1.12,1.22,0,2.26.12,3.14.35.9.21,1.7.53,2.4.96-.13.6-.22,1.22-.29,1.86-.04.64-.06,1.38-.06,2.21-.41.17-.88.3-1.41.38-.51.06-1,.1-1.47.1-.04-1.24-.27-2.17-.67-2.78-.41-.64-.93-.96-1.57-.96-.83,0-1.47.48-1.92,1.44-.43.94-.64,2.17-.64,3.68,0,.88.14,1.73.42,2.56.3.81.76,1.48,1.38,2.02.62.51,1.43.77,2.43.77.68,0,1.3-.09,1.86-.26.55-.19,1.03-.45,1.44-.77.21.19.38.45.51.77.15.3.22.63.22.99ZM132.2,110.11c0,.92.1,1.64.29,2.18.21.51.55.9,1.02,1.15.49.24,1.16.38,2.02.45.11.3.17.65.19,1.06.04.38.06.77.06,1.15-.38-.02-.88-.04-1.47-.06-.6,0-1.24-.01-1.92-.03h-5.18c-1.11.02-2,.05-2.66.1,0-.51.01-.94.03-1.28.04-.36.11-.67.19-.93.58-.04,1.01-.15,1.31-.32.32-.19.53-.52.64-.99.13-.47.19-1.16.19-2.08v-1.76h5.28v1.38ZM132.2,106.56v2.82h-5.28v-3.46l5.28-2.98c0,.43-.06.91-.19,1.44-.11.53-.26,1.2-.45,2.02l.64.16ZM131.5,106.5c.15-.43.32-.91.51-1.44.19-.56.36-.96.51-1.22.47-.75,1.06-1.36,1.76-1.86.7-.49,1.48-.74,2.34-.74s1.6.26,2.3.77c-.06.45-.13.97-.19,1.57-.06.6-.11,1.21-.13,1.82,0,.6.01,1.14.03,1.63-.36.15-.84.26-1.44.32-.6.04-1.11.06-1.54.06-.04-.77-.17-1.31-.38-1.63-.21-.34-.53-.51-.96-.51-.3,0-.62.18-.96.54-.32.36-.6.83-.83,1.41-.21.56-.32,1.15-.32,1.79l-.7-2.53ZM126.92,109.38v-2.46c0-.66-.04-1.17-.13-1.54-.09-.36-.3-.63-.64-.8-.32-.19-.83-.31-1.54-.35,0-.36.02-.72.06-1.09.06-.38.17-.72.32-1.02,1.34,0,2.58-.11,3.71-.32,1.15-.24,1.98-.48,2.5-.74.32.13.56.34.74.64.17.3.26.72.26,1.25l-5.28,6.43ZM148.62,116.29c-1.92,0-3.48-.33-4.67-.99-1.17-.66-2.04-1.56-2.59-2.69-.55-1.13-.83-2.4-.83-3.81,0-1.58.31-2.94.93-4.1.62-1.15,1.51-2.05,2.69-2.69,1.17-.64,2.55-.96,4.13-.96s2.88.3,3.9.9c1.02.58,1.78,1.39,2.27,2.43.51,1.02.79,2.22.83,3.58-.17.7-.48,1.27-.93,1.7h-2.11c-.79,0-1.62.01-2.5.03-.85,0-1.73.02-2.62.06-.88.04-1.72.1-2.53.16v-2.3h5.89c0-1.45-.19-2.55-.58-3.3-.36-.75-.92-1.12-1.66-1.12-.49,0-.93.18-1.31.54-.36.34-.64.86-.83,1.57-.19.68-.29,1.54-.29,2.56,0,1.11.14,2.1.42,2.98.28.88.74,1.56,1.38,2.05.64.49,1.5.74,2.59.74.75,0,1.49-.13,2.24-.38.75-.26,1.37-.59,1.86-.99.21.13.4.38.58.77.17.36.26.74.26,1.12-.83.7-1.78,1.24-2.85,1.6-1.05.36-2.26.54-3.65.54ZM147.53,98.91c-.64-.9-1.27-1.74-1.89-2.53-.62-.81-1.38-1.63-2.27-2.46.68-.3,1.43-.51,2.24-.64.81-.15,1.63-.21,2.46-.19.23.83.54,1.73.93,2.69.4.96.83,1.87,1.28,2.72-.34.15-.74.27-1.18.35-.43.06-.95.09-1.57.06ZM163.8,116.29c-1.58,0-2.77-.4-3.58-1.22-.81-.83-1.22-2.23-1.22-4.19v-6.59c-.34-.13-.7-.22-1.09-.29-.36-.06-.79-.1-1.28-.1,0-.43.02-.81.06-1.15.06-.36.18-.72.35-1.09h1.95v-3.81c.83-.11,1.64-.32,2.43-.64.81-.32,1.46-.67,1.95-1.06.34.13.58.33.7.61.13.28.19.77.19,1.47v3.42h3.84c0,.47-.03.89-.1,1.25-.04.34-.12.68-.22,1.02-.68,0-1.32.05-1.92.16-.58.08-1.11.21-1.6.38v5.92c0,.92.05,1.62.16,2.11.11.47.28.8.51.99.23.17.53.26.9.26.32,0,.64-.03.96-.1.34-.08.66-.2.96-.35.3.43.46,1.02.48,1.79-.45.34-1.09.63-1.92.86-.81.21-1.65.32-2.53.32ZM177.81,116.29c-1.92,0-3.48-.33-4.67-.99-1.17-.66-2.04-1.56-2.59-2.69-.55-1.13-.83-2.4-.83-3.81,0-1.58.31-2.94.93-4.1.62-1.15,1.51-2.05,2.69-2.69,1.17-.64,2.55-.96,4.13-.96s2.88.3,3.9.9c1.02.58,1.78,1.39,2.27,2.43.51,1.02.79,2.22.83,3.58-.17.7-.48,1.27-.93,1.7h-2.11c-.79,0-1.62.01-2.5.03-.85,0-1.73.02-2.62.06-.87.04-1.72.1-2.53.16v-2.3h5.89c0-1.45-.19-2.55-.58-3.3-.36-.75-.92-1.12-1.66-1.12-.49,0-.93.18-1.31.54-.36.34-.64.86-.83,1.57-.19.68-.29,1.54-.29,2.56,0,1.11.14,2.1.42,2.98.28.88.74,1.56,1.38,2.05.64.49,1.5.74,2.59.74.75,0,1.49-.13,2.24-.38.75-.26,1.37-.59,1.86-.99.21.13.41.38.58.77.17.36.26.74.26,1.12-.83.7-1.78,1.24-2.85,1.6-1.04.36-2.26.54-3.65.54Z"/>
      <circle class="cls-9" cx="125" cy="104.5" r="103"/>
      <g class="cls-1">
        <path class="cls-11" d="M106.09,64.18c13.86,0,25.09-11.23,25.09-25.09s-11.23-25.09-25.09-25.09-25.09,11.23-25.09,25.09,11.23,25.09,25.09,25.09Z"/>
      </g>
      <g class="cls-3">
        <path class="cls-13" d="M93.09,180.18c13.86,0,25.09-11.23,25.09-25.09s-11.23-25.09-25.09-25.09-25.09,11.23-25.09,25.09,11.23,25.09,25.09,25.09Z"/>
      </g>
      <g class="cls-2">
        <path class="cls-10" d="M190.09,212.18c13.86,0,25.09-11.23,25.09-25.09s-11.23-25.09-25.09-25.09-25.09,11.23-25.09,25.09,11.23,25.09,25.09,25.09Z"/>
      </g>
      <g class="cls-7">
        <path class="cls-15" d="M25.09,114.18c13.86,0,25.09-11.23,25.09-25.09s-11.23-25.09-25.09-25.09S0,75.23,0,89.09s11.23,25.09,25.09,25.09Z"/>
      </g>
      <g class="cls-6">
        <path class="cls-14" d="M181.09,57.18c13.86,0,25.09-11.23,25.09-25.09s-11.23-25.09-25.09-25.09-25.09,11.23-25.09,25.09,11.23,25.09,25.09,25.09Z"/>
      </g>
      <g class="cls-4">
        <path class="cls-8" d="M71.11,95.56c.45,0,.86.03,1.25.1.41.06.82.15,1.25.26v3.2c-.34-.47-.71-.83-1.12-1.09-.38-.26-.85-.38-1.41-.38-.38,0-.79.07-1.22.22-.43.15-.83.43-1.22.83-.36.41-.66.99-.9,1.76-.23.75-.35,1.72-.35,2.91,0,.85.1,1.63.29,2.34.21.68.52,1.23.93,1.63.43.4.95.61,1.57.61.51,0,1-.16,1.47-.48.47-.34.86-.89,1.18-1.63.32-.77.48-1.78.48-3.04l1.38,3.23c-.38.9-.75,1.6-1.09,2.11-.32.49-.65.86-.99,1.12-.23.24-.57.47-.99.7-.41.24-.89.43-1.44.58-.53.17-1.11.26-1.73.26-1.22,0-2.31-.22-3.3-.67-.96-.47-1.72-1.19-2.27-2.18-.55-.98-.83-2.24-.83-3.78,0-1.71.37-3.2,1.12-4.48.75-1.3,1.8-2.31,3.17-3.04,1.37-.73,2.95-1.09,4.77-1.09ZM78.57,104.71c0,.75.04,1.32.13,1.73.09.38.26.65.51.8.28.13.68.2,1.22.22.06.4.06.8,0,1.18-.04.38-.15.75-.32,1.09-.87.02-1.77.12-2.69.29-.9.17-1.74.43-2.53.77-.41-.15-.69-.36-.86-.64-.17-.3-.26-.69-.26-1.18,0-.43.05-.86.16-1.31.11-.47.25-.96.42-1.47l4.22-1.47ZM78.57,92.29v14.02h-5.25v-14.02h5.25ZM77.54,87.56c.32.13.57.34.74.64.19.3.29.7.29,1.22v3.9h-5.25v-.35c0-.49-.06-.9-.19-1.22s-.36-.55-.7-.7c-.34-.17-.84-.28-1.5-.32,0-.36.02-.73.06-1.09.06-.38.17-.73.32-1.02.87,0,1.73-.05,2.56-.16.83-.11,1.57-.23,2.21-.38.66-.17,1.15-.34,1.47-.51ZM82.15,110.6c0-.45.02-.85.06-1.22.04-.38.11-.71.19-.99.85-.04,1.42-.25,1.7-.61.28-.38.42-1.11.42-2.18v-4.64c0-.49-.06-.9-.19-1.22-.11-.32-.33-.55-.67-.7-.34-.17-.84-.28-1.5-.32,0-.36.02-.73.06-1.09.06-.38.17-.73.32-1.02.87,0,1.73-.05,2.56-.16.83-.11,1.57-.23,2.21-.38.66-.17,1.15-.34,1.47-.51.32.13.56.34.74.64.19.3.29.7.29,1.22v8.19c0,1.07.14,1.79.42,2.18.28.36.82.57,1.63.61.08.28.14.61.16.99.04.38.06.79.06,1.22-.28-.02-.68-.04-1.22-.06-.53,0-1.13-.01-1.79-.03h-3.9c-.66.02-1.26.03-1.79.03-.51.02-.92.04-1.22.06ZM86.73,93.48c-.87,0-1.58-.21-2.11-.64-.53-.45-.8-1.03-.8-1.76,0-.83.29-1.47.86-1.92.6-.47,1.33-.7,2.21-.7,1,0,1.76.22,2.27.67.53.45.8,1.09.8,1.92,0,.7-.29,1.29-.86,1.76-.58.45-1.37.67-2.37.67ZM106.02,96.55c-.02.55-.03,1.13-.03,1.73.02.58.07,1.14.16,1.7-.32.17-.74.32-1.25.45-.49.13-.99.19-1.5.19-.06-.53-.21-1.01-.45-1.44-.21-.45-.52-.8-.93-1.06-.38-.26-.89-.38-1.5-.38-.43,0-.77.12-1.02.35-.24.21-.35.5-.35.86,0,.26.06.5.19.74.15.23.46.5.93.8.49.28,1.24.63,2.24,1.06,1.22.49,2.17.96,2.85,1.41.7.45,1.21.93,1.5,1.44.3.51.45,1.13.45,1.86,0,.96-.29,1.78-.86,2.46-.56.68-1.36,1.21-2.4,1.57-1.05.34-2.3.51-3.78.51-1.34,0-2.46-.1-3.36-.29-.9-.19-1.77-.46-2.62-.8.06-.43.11-.88.13-1.34.02-.49.02-.96,0-1.41,0-.47-.02-.88-.06-1.22.32-.21.75-.36,1.28-.45.55-.11,1.07-.16,1.54-.16.13,1.11.45,1.95.96,2.53.53.56,1.18.83,1.95.83.53,0,.97-.12,1.31-.35.36-.24.54-.58.54-1.02,0-.32-.09-.6-.26-.83-.15-.26-.44-.5-.86-.74-.41-.26-1.01-.53-1.82-.83-.94-.36-1.75-.75-2.43-1.15-.68-.4-1.22-.91-1.6-1.5-.36-.6-.54-1.37-.54-2.3,0-.73.15-1.34.45-1.86.32-.53.77-.97,1.34-1.31.58-.34,1.24-.6,1.98-.77.77-.17,1.59-.26,2.46-.26,1.19,0,2.21.09,3.04.26.83.15,1.61.39,2.34.74ZM122.84,108.87c-.56.62-1.31,1.1-2.27,1.44-.94.32-2.01.48-3.2.48-1.58,0-2.98-.28-4.19-.83-1.19-.56-2.13-1.39-2.82-2.5-.66-1.11-.99-2.52-.99-4.22,0-1.28.29-2.51.87-3.68.58-1.17,1.43-2.13,2.56-2.88,1.15-.75,2.58-1.12,4.29-1.12,1.22,0,2.26.12,3.14.35.9.21,1.7.53,2.4.96-.13.6-.22,1.22-.29,1.86-.04.64-.06,1.38-.06,2.21-.41.17-.88.3-1.41.38-.51.06-1,.1-1.47.1-.04-1.24-.27-2.17-.67-2.78-.41-.64-.93-.96-1.57-.96-.83,0-1.47.48-1.92,1.44-.43.94-.64,2.17-.64,3.68,0,.88.14,1.73.42,2.56.3.81.76,1.48,1.38,2.02.62.51,1.43.77,2.43.77.68,0,1.3-.09,1.86-.26.55-.19,1.03-.45,1.44-.77.21.19.38.45.51.77.15.3.22.63.22.99ZM132.2,104.61c0,.92.1,1.64.29,2.18.21.51.55.9,1.02,1.15.49.24,1.16.38,2.02.45.11.3.17.65.19,1.06.04.38.06.77.06,1.15-.38-.02-.88-.04-1.47-.06-.6,0-1.24-.01-1.92-.03h-5.18c-1.11.02-2,.05-2.66.1,0-.51.01-.94.03-1.28.04-.36.11-.67.19-.93.58-.04,1.01-.15,1.31-.32.32-.19.53-.52.64-.99.13-.47.19-1.16.19-2.08v-1.76h5.28v1.38ZM132.2,101.06v2.82h-5.28v-3.46l5.28-2.98c0,.43-.06.91-.19,1.44-.11.53-.26,1.2-.45,2.02l.64.16ZM131.5,101c.15-.43.32-.91.51-1.44.19-.55.36-.96.51-1.22.47-.75,1.06-1.37,1.76-1.86.7-.49,1.48-.74,2.34-.74s1.6.26,2.3.77c-.06.45-.13.97-.19,1.57-.06.6-.11,1.21-.13,1.82,0,.6.01,1.14.03,1.63-.36.15-.84.26-1.44.32-.6.04-1.11.06-1.54.06-.04-.77-.17-1.31-.38-1.63-.21-.34-.53-.51-.96-.51-.3,0-.62.18-.96.54-.32.36-.6.83-.83,1.41-.21.56-.32,1.15-.32,1.79l-.7-2.53ZM126.92,103.88v-2.46c0-.66-.04-1.17-.13-1.54-.09-.36-.3-.63-.64-.8-.32-.19-.83-.31-1.54-.35,0-.36.02-.73.06-1.09.06-.38.17-.73.32-1.02,1.34,0,2.58-.11,3.71-.32,1.15-.23,1.98-.48,2.5-.74.32.13.56.34.74.64s.26.71.26,1.25l-5.28,6.43ZM148.62,110.79c-1.92,0-3.48-.33-4.67-.99-1.17-.66-2.04-1.56-2.59-2.69-.55-1.13-.83-2.4-.83-3.81,0-1.58.31-2.94.93-4.1.62-1.15,1.51-2.05,2.69-2.69,1.17-.64,2.55-.96,4.13-.96s2.88.3,3.9.9c1.02.58,1.78,1.39,2.27,2.43.51,1.02.79,2.22.83,3.58-.17.7-.48,1.27-.93,1.7h-2.11c-.79,0-1.62.01-2.5.03-.85,0-1.73.02-2.62.06-.88.04-1.72.1-2.53.16v-2.3h5.89c0-1.45-.19-2.55-.58-3.3-.36-.75-.92-1.12-1.66-1.12-.49,0-.93.18-1.31.54-.36.34-.64.86-.83,1.57-.19.68-.29,1.54-.29,2.56,0,1.11.14,2.1.42,2.98.28.88.74,1.56,1.38,2.05.64.49,1.5.74,2.59.74.75,0,1.49-.13,2.24-.38.75-.26,1.37-.59,1.86-.99.21.13.4.38.58.77.17.36.26.74.26,1.12-.83.7-1.78,1.24-2.85,1.6-1.05.36-2.26.54-3.65.54ZM147.53,93.41c-.64-.9-1.27-1.74-1.89-2.53-.62-.81-1.38-1.63-2.27-2.46.68-.3,1.43-.51,2.24-.64.81-.15,1.63-.21,2.46-.19.23.83.54,1.73.93,2.69.4.96.83,1.87,1.28,2.72-.34.15-.74.27-1.18.35-.43.06-.95.09-1.57.06ZM163.8,110.79c-1.58,0-2.77-.4-3.58-1.22-.81-.83-1.22-2.23-1.22-4.19v-6.59c-.34-.13-.7-.22-1.09-.29-.36-.06-.79-.1-1.28-.1,0-.43.02-.81.06-1.15.06-.36.18-.73.35-1.09h1.95v-3.81c.83-.11,1.64-.32,2.43-.64.81-.32,1.46-.67,1.95-1.06.34.13.58.33.7.61.13.28.19.77.19,1.47v3.42h3.84c0,.47-.03.89-.1,1.25-.04.34-.12.68-.22,1.02-.68,0-1.32.05-1.92.16-.58.09-1.11.21-1.6.38v5.92c0,.92.05,1.62.16,2.11.11.47.28.8.51.99.23.17.53.26.9.26.32,0,.64-.03.96-.1.34-.08.66-.2.96-.35.3.43.46,1.02.48,1.79-.45.34-1.09.63-1.92.86-.81.21-1.65.32-2.53.32ZM177.81,110.79c-1.92,0-3.48-.33-4.67-.99-1.17-.66-2.04-1.56-2.59-2.69-.55-1.13-.83-2.4-.83-3.81,0-1.58.31-2.94.93-4.1.62-1.15,1.51-2.05,2.69-2.69,1.17-.64,2.55-.96,4.13-.96s2.88.3,3.9.9c1.02.58,1.78,1.39,2.27,2.43.51,1.02.79,2.22.83,3.58-.17.7-.48,1.27-.93,1.7h-2.11c-.79,0-1.62.01-2.5.03-.85,0-1.73.02-2.62.06-.87.04-1.72.1-2.53.16v-2.3h5.89c0-1.45-.19-2.55-.58-3.3-.36-.75-.92-1.12-1.66-1.12-.49,0-.93.18-1.31.54-.36.34-.64.86-.83,1.57-.19.68-.29,1.54-.29,2.56,0,1.11.14,2.1.42,2.98.28.88.74,1.56,1.38,2.05.64.49,1.5.74,2.59.74.75,0,1.49-.13,2.24-.38.75-.26,1.37-.59,1.86-.99.21.13.41.38.58.77.17.36.26.74.26,1.12-.83.7-1.78,1.24-2.85,1.6-1.04.36-2.26.54-3.65.54Z"/>
      </g>
      <g class="cls-5">
        <path class="cls-12" d="M206.09,129.18c13.86,0,25.09-11.23,25.09-25.09s-11.23-25.09-25.09-25.09-25.09,11.23-25.09,25.09,11.23,25.09,25.09,25.09Z"/>
      </g>
    </g>
  </g>
</svg>