<?xml version="1.0" encoding="UTF-8"?>
<svg id="Calque_2" data-name="Calque 2" xmlns="http://www.w3.org/2000/svg" viewBox="0 0 95.64 100.49">
  <defs>
    <style>
      .cls-1 {
        fill: none;
        stroke: #64a7dc;
        stroke-miterlimit: 10;
        stroke-width: .5px;
      }

      .cls-2 {
        fill: #a7a6a6;
      }

      .cls-3 {
        fill: #ffd103;
      }

      .cls-4 {
        fill: #a7daea;
      }

      .cls-5 {
        fill: #fff;
      }

      .cls-6 {
        fill: #64a7dc;
      }

      .cls-7 {
        fill: #9e4217;
      }

      .cls-8 {
        fill: #e52a21;
      }
    </style>
  </defs>
  <g id="Calque_1-2" data-name="Calque 1">
    <g>
      <g>
        <rect class="cls-3" x="2.84" y="55.58" width="89.9" height="39.29"/>
        <path class="cls-5" d="M94.24,96.37H1.34v-42.29h92.9v42.29ZM4.34,93.37h86.9v-36.29H4.34v36.29Z"/>
      </g>
      <g>
        <rect class="cls-2" x="2.84" y="94.87" width="89.9" height="4.13"/>
        <path class="cls-5" d="M94.24,100.49H1.34v-7.13h92.9v7.13ZM4.34,97.49h86.9v-1.13H4.34v1.13Z"/>
      </g>
      <g>
        <polygon class="cls-8" points="2.84 55.58 8.66 47.06 86.72 47.06 92.74 55.58 2.84 55.58"/>
        <path class="cls-5" d="M95.64,57.08H0l7.87-11.52h79.63l8.14,11.52ZM5.68,54.08h84.16l-3.9-5.52H9.45l-3.77,5.52Z"/>
      </g>
      <g>
        <polygon class="cls-8" points="32.88 43.93 30.54 45.77 24.38 39 45.89 20.44 49.29 20.44 70.77 40.43 63.96 46.33 47.64 32.38 32.88 43.93"/>
        <path class="cls-5" d="M63.97,48.31l-16.37-13.99-17.23,13.49-8.13-8.94,23.1-19.93h4.55l23.13,21.53-9.05,7.84ZM47.68,30.44l16.27,13.91,4.57-3.96-19.82-18.45h-2.25l-19.92,17.19,4.18,4.6,16.98-13.29Z"/>
      </g>
      <g>
        <polygon class="cls-3" points="32.88 55.58 32.88 42.91 47.64 32.38 62.9 43.98 62.9 55.58 32.88 55.58"/>
        <path class="cls-5" d="M64.41,57.08H31.38v-14.94l16.29-11.62,16.74,12.72v13.84ZM34.38,54.08h27.02v-9.36l-13.79-10.48-13.23,9.44v10.4Z"/>
      </g>
      <g>
        <path class="cls-8" d="M49.29,1.84s5.76,1.2,7.35,2.36,9.78-1.18,9.78-1.18v14.76s-4.23,2.2-10.05,0-7.09-2.2-7.09-2.2V1.84Z"/>
        <path class="cls-5" d="M61.57,20.26c-1.65,0-3.59-.27-5.72-1.07-5.2-1.96-6.57-2.1-6.63-2.1h-1.5l.07-1.5V0l1.81.38c1.02.21,6.17,1.33,7.93,2.62.75.29,4.75-.35,8.49-1.42l1.91-.55v17.66l-.81.42c-.13.07-2.26,1.15-5.55,1.15ZM50.79,14.35c1.13.28,3.01.86,6.12,2.03,3.72,1.4,6.66.82,8.02.39V4.99c-3.65.93-7.64,1.55-9.17.43-.69-.51-2.93-1.19-4.96-1.69v10.62Z"/>
      </g>
      <g>
        <rect class="cls-6" x="45.89" y="1.84" width="3.4" height="18.59"/>
        <path class="cls-5" d="M50.79,21.94h-6.4V.34h6.4v21.59ZM47.39,18.94h.4V3.34h-.4v15.59Z"/>
      </g>
    </g>
    <rect class="cls-6" x="8.33" y="62.28" width="5.44" height="11.68"/>
    <rect class="cls-6" x="20.75" y="62.28" width="5.44" height="11.68"/>
    <rect class="cls-6" x="8.33" y="76.97" width="5.44" height="11.68"/>
    <rect class="cls-6" x="20.75" y="76.97" width="5.44" height="11.68"/>
    <rect class="cls-6" x="69.6" y="62.28" width="5.44" height="11.68"/>
    <rect class="cls-6" x="82.02" y="62.28" width="5.44" height="11.68"/>
    <rect class="cls-6" x="69.6" y="76.97" width="5.44" height="11.68"/>
    <rect class="cls-6" x="82.02" y="76.97" width="5.44" height="11.68"/>
    <ellipse class="cls-4" cx="47.58" cy="45.84" rx="8.13" ry="7.95"/>
    <polyline class="cls-1" points="47.25 39.74 47.25 46.4 54.91 46.4"/>
    <path class="cls-7" d="M40.51,93.3v-18.66s6.71-10.71,13.96,0v18.66h-13.96Z"/>
  </g>
</svg>