<?xml version="1.0" encoding="UTF-8"?>
<svg id="Calque_2" data-name="Calque 2" xmlns="http://www.w3.org/2000/svg" viewBox="0 0 93.04 80.67">
  <defs>
    <style>
      .cls-1 {
        fill: #16a638;
      }

      .cls-2 {
        fill: #ffd103;
      }

      .cls-3 {
        fill: #fff;
      }

      .cls-4 {
        fill: #d61016;
      }
    </style>
  </defs>
  <g id="Calque_1-2" data-name="Calque 1">
    <path class="cls-3" d="M31.54,17.24S39.69-.36,56.37,0c16.68.37,22.24,18.54,22.43,23.73,0,0,17.05,5.38,10.57,23.73,0,0,13.9,20.58-12.42,23.17,0,0-10.94,13.35-22.24,2.41,0,0-28.92,23.54-40.22-12.05,0,0-28.93-12.3-5-29.66,0,0,1.85-15.94,22.06-14.09Z"/>
    <path class="cls-1" d="M33.61,20.48s7.06-15.24,21.49-14.92,19.25,16.04,19.41,20.53c0,0,14.76,4.65,9.14,20.53,0,0,12.03,17.8-10.75,20.05,0,0-9.46,11.55-19.25,2.09,0,0-25.02,20.37-34.8-10.43,0,0-25.04-10.64-4.33-25.66,0,0,1.6-13.79,19.09-12.19Z"/>
    <polygon class="cls-2" points="52.14 16.55 47.65 13.27 43.14 16.53 44.87 11.25 40.38 7.97 45.94 7.98 47.66 2.7 49.37 7.99 54.93 8 50.43 11.26 52.14 16.55"/>
    <polygon class="cls-2" points="22.29 62.54 19.42 60.44 16.54 62.53 17.64 59.15 14.77 57.05 18.32 57.06 19.43 53.68 20.52 57.06 24.08 57.07 21.2 59.15 22.29 62.54"/>
    <polygon class="cls-2" points="78.63 33.9 75.29 31.47 71.94 33.89 73.22 29.96 69.89 27.53 74.02 27.54 75.3 23.61 76.57 27.54 80.7 27.55 77.36 29.97 78.63 33.9"/>
    <polygon class="cls-4" points="36.92 45.41 25.87 58.79 35.41 58.79 37.96 67.86 47.62 55.06 36.92 45.41"/>
    <polygon class="cls-4" points="51.69 54.13 61.35 67.86 64.25 58.9 74.03 59.02 64.25 47.15 51.69 54.13"/>
    <circle class="cls-2" cx="49.66" cy="38.78" r="17"/>
    <polygon class="cls-4" points="54.15 44.98 49.66 41.7 45.15 44.97 46.88 39.68 42.39 36.4 47.95 36.41 49.67 31.13 51.38 36.42 56.94 36.43 52.44 39.69 54.15 44.98"/>
  </g>
</svg>