<?xml version="1.0" encoding="UTF-8"?>
<svg id="Calque_2" data-name="Calque 2" xmlns="http://www.w3.org/2000/svg" viewBox="0 0 85.42 65.79">
  <defs>
    <style>
      .cls-1 {
        stroke-width: 5px;
      }

      .cls-1, .cls-2 {
        fill: none;
        stroke: #fff;
        stroke-miterlimit: 10;
      }

      .cls-2 {
        stroke-width: 4px;
      }

      .cls-3 {
        fill: #ffd103;
      }

      .cls-4 {
        fill: #d61016;
      }
    </style>
  </defs>
  <g id="Calque_1-2" data-name="Calque 1">
    <g>
      <path class="cls-3" d="M82.92,23.74v-12.8c0-4.66-3.78-8.43-8.43-8.43h-10.23c0,.08.02.16.02.24,0,1.98-1.6,3.58-3.58,3.58s-3.58-1.6-3.58-3.58c0-.08.02-.16.02-.24H10.93C6.28,2.5,2.5,6.28,2.5,10.93v12.8c5.06,0,9.16,4.1,9.16,9.16s-4.1,9.16-9.16,9.16v12.8c0,4.66,3.78,8.43,8.43,8.43h46.2c0-.08-.02-.16-.02-.24,0-1.98,1.6-3.58,3.58-3.58s3.58,1.6,3.58,3.58c0,.08-.02.16-.02.24h10.23c4.66,0,8.43-3.78,8.43-8.43v-12.8c-5.06,0-9.16-4.1-9.16-9.16s4.1-9.16,9.16-9.16ZM60.7,56.6c-1.98,0-3.58-1.6-3.58-3.58s1.6-3.58,3.58-3.58,3.58,1.6,3.58,3.58-1.6,3.58-3.58,3.58ZM60.7,46.56c-1.98,0-3.58-1.6-3.58-3.58s1.6-3.58,3.58-3.58,3.58,1.6,3.58,3.58-1.6,3.58-3.58,3.58ZM60.7,36.52c-1.98,0-3.58-1.6-3.58-3.58s1.6-3.58,3.58-3.58,3.58,1.6,3.58,3.58-1.6,3.58-3.58,3.58ZM60.7,26.48c-1.98,0-3.58-1.6-3.58-3.58s1.6-3.58,3.58-3.58,3.58,1.6,3.58,3.58-1.6,3.58-3.58,3.58ZM60.7,16.51c-1.98,0-3.58-1.6-3.58-3.58s1.6-3.58,3.58-3.58,3.58,1.6,3.58,3.58-1.6,3.58-3.58,3.58Z"/>
      <path class="cls-1" d="M82.92,23.74v-12.8c0-4.66-3.78-8.43-8.43-8.43h-10.23c0,.08.02.16.02.24,0,1.98-1.6,3.58-3.58,3.58s-3.58-1.6-3.58-3.58c0-.08.02-.16.02-.24H10.93C6.28,2.5,2.5,6.28,2.5,10.93v12.8c5.06,0,9.16,4.1,9.16,9.16s-4.1,9.16-9.16,9.16v12.8c0,4.66,3.78,8.43,8.43,8.43h46.2c0-.08-.02-.16-.02-.24,0-1.98,1.6-3.58,3.58-3.58s3.58,1.6,3.58,3.58c0,.08-.02.16-.02.24h10.23c4.66,0,8.43-3.78,8.43-8.43v-12.8c-5.06,0-9.16-4.1-9.16-9.16s4.1-9.16,9.16-9.16ZM60.7,56.6c-1.98,0-3.58-1.6-3.58-3.58s1.6-3.58,3.58-3.58,3.58,1.6,3.58,3.58-1.6,3.58-3.58,3.58ZM60.7,46.56c-1.98,0-3.58-1.6-3.58-3.58s1.6-3.58,3.58-3.58,3.58,1.6,3.58,3.58-1.6,3.58-3.58,3.58ZM60.7,36.52c-1.98,0-3.58-1.6-3.58-3.58s1.6-3.58,3.58-3.58,3.58,1.6,3.58,3.58-1.6,3.58-3.58,3.58ZM60.7,26.48c-1.98,0-3.58-1.6-3.58-3.58s1.6-3.58,3.58-3.58,3.58,1.6,3.58,3.58-1.6,3.58-3.58,3.58ZM60.7,16.51c-1.98,0-3.58-1.6-3.58-3.58s1.6-3.58,3.58-3.58,3.58,1.6,3.58,3.58-1.6,3.58-3.58,3.58Z"/>
      <path class="cls-3" d="M82.92,23.74v-12.8c0-4.66-3.78-8.43-8.43-8.43h-10.23c0,.08.02.16.02.24,0,1.98-1.6,3.58-3.58,3.58s-3.58-1.6-3.58-3.58c0-.08.02-.16.02-.24H10.93C6.28,2.5,2.5,6.28,2.5,10.93v12.8c5.06,0,9.16,4.1,9.16,9.16s-4.1,9.16-9.16,9.16v12.8c0,4.66,3.78,8.43,8.43,8.43h46.2c0-.08-.02-.16-.02-.24,0-1.98,1.6-3.58,3.58-3.58s3.58,1.6,3.58,3.58c0,.08-.02.16-.02.24h10.23c4.66,0,8.43-3.78,8.43-8.43v-12.8c-5.06,0-9.16-4.1-9.16-9.16s4.1-9.16,9.16-9.16ZM60.7,56.6c-1.98,0-3.58-1.6-3.58-3.58s1.6-3.58,3.58-3.58,3.58,1.6,3.58,3.58-1.6,3.58-3.58,3.58ZM60.7,46.56c-1.98,0-3.58-1.6-3.58-3.58s1.6-3.58,3.58-3.58,3.58,1.6,3.58,3.58-1.6,3.58-3.58,3.58ZM60.7,36.52c-1.98,0-3.58-1.6-3.58-3.58s1.6-3.58,3.58-3.58,3.58,1.6,3.58,3.58-1.6,3.58-3.58,3.58ZM60.7,26.48c-1.98,0-3.58-1.6-3.58-3.58s1.6-3.58,3.58-3.58,3.58,1.6,3.58,3.58-1.6,3.58-3.58,3.58ZM60.7,16.51c-1.98,0-3.58-1.6-3.58-3.58s1.6-3.58,3.58-3.58,3.58,1.6,3.58,3.58-1.6,3.58-3.58,3.58Z"/>
      <path class="cls-2" d="M82.92,23.74v-12.8c0-4.66-3.78-8.43-8.43-8.43h-10.23c0,.08.02.16.02.24,0,1.98-1.6,3.58-3.58,3.58s-3.58-1.6-3.58-3.58c0-.08.02-.16.02-.24H10.93C6.28,2.5,2.5,6.28,2.5,10.93v12.8c5.06,0,9.16,4.1,9.16,9.16s-4.1,9.16-9.16,9.16v12.8c0,4.66,3.78,8.43,8.43,8.43h46.2c0-.08-.02-.16-.02-.24,0-1.98,1.6-3.58,3.58-3.58s3.58,1.6,3.58,3.58c0,.08-.02.16-.02.24h10.23c4.66,0,8.43-3.78,8.43-8.43v-12.8c-5.06,0-9.16-4.1-9.16-9.16s4.1-9.16,9.16-9.16ZM60.7,56.6c-1.98,0-3.58-1.6-3.58-3.58s1.6-3.58,3.58-3.58,3.58,1.6,3.58,3.58-1.6,3.58-3.58,3.58ZM60.7,46.56c-1.98,0-3.58-1.6-3.58-3.58s1.6-3.58,3.58-3.58,3.58,1.6,3.58,3.58-1.6,3.58-3.58,3.58ZM60.7,36.52c-1.98,0-3.58-1.6-3.58-3.58s1.6-3.58,3.58-3.58,3.58,1.6,3.58,3.58-1.6,3.58-3.58,3.58ZM60.7,26.48c-1.98,0-3.58-1.6-3.58-3.58s1.6-3.58,3.58-3.58,3.58,1.6,3.58,3.58-1.6,3.58-3.58,3.58ZM60.7,16.51c-1.98,0-3.58-1.6-3.58-3.58s1.6-3.58,3.58-3.58,3.58,1.6,3.58,3.58-1.6,3.58-3.58,3.58Z"/>
    </g>
    <polygon class="cls-4" points="34.12 18.2 37.77 29.42 49.57 29.42 40.02 36.36 43.67 47.59 34.12 40.65 24.57 47.59 28.22 36.36 18.66 29.42 30.47 29.42 34.12 18.2"/>
  </g>
</svg>