<svg width="160" height="160" viewBox="0 0 160 160" fill="none" xmlns="http://www.w3.org/2000/svg">
<circle cx="80" cy="80" r="80" fill="#FFC3C2"/>
<path d="M130.278 10.764C129.813 10.2506 129.145 9.95996 128.447 9.95996H31.5528C30.8553 9.95996 30.1869 10.2506 29.7219 10.764C29.2472 11.2775 29.0147 11.9653 29.0825 12.6628L37.8109 110.439C37.8981 111.466 38.615 112.318 39.6031 112.609L79.3122 123.943C79.5253 124.011 79.7578 124.04 79.9903 124.04C80.2228 124.04 80.4456 124.011 80.6685 123.943L120.407 112.609C121.395 112.318 122.102 111.466 122.199 110.439L130.918 12.6628C130.985 11.9653 130.753 11.2775 130.278 10.764ZM109.382 44.4765H62.7272L63.8412 57.0993H108.258L104.926 94.4059L79.9806 101.943L79.7384 101.865L55.0837 94.3962L53.7372 79.1965H65.8175L66.3406 85.0962L80.1259 87.9831L93.6593 85.0962L95.1028 69.1312H52.8362L49.5521 32.4156H110.457L109.382 44.4765Z" fill="#D4091A"/>
</svg>
