<?xml version="1.0" encoding="UTF-8"?>
<svg id="Calque_2" data-name="Calque 2" xmlns="http://www.w3.org/2000/svg" viewBox="0 0 220 220">
  <defs>
    <style>
      .cls-1 {
        fill: #16a638;
      }

      .cls-2 {
        fill: #fff;
      }
    </style>
  </defs>
  <g id="Calque_1-2" data-name="Calque 1">
    <circle class="cls-1" cx="110" cy="110" r="110"/>
    <g>
      <path class="cls-2" d="M131.19,138.9c5.47.51,10.72,1.03,15.97,1.47,3.82.32,5.62,2.28,5.04,5.61-.23,1.35-1.08,2.26-2.02,3.11-5.32,4.83-10.6,9.71-16.01,14.44-1.59,1.39-2.06,2.61-1.53,4.77,1.72,6.98,3.17,14.02,4.7,21.05.47,2.14.73,4.37-1.34,5.78-1.97,1.35-3.98.98-6.02-.29-6.14-3.82-12.39-7.47-18.52-11.31-1.5-.94-2.58-.83-4.03.07-6.21,3.88-12.49,7.62-18.74,11.43-1.71,1.04-3.42,1.69-5.33.46-1.94-1.25-2.16-3.17-1.76-5.16,1.14-5.73,1.98-11.57,3.73-17.1,1.78-5.63.77-9.37-4.08-12.83-4.65-3.31-8.62-7.63-12.92-11.47-1.63-1.46-2.01-3.26-1.54-5.3.45-1.91,1.82-2.68,3.64-2.87,6.14-.62,12.27-1.52,18.43-1.85,4.35-.23,7.44-1.05,8.99-6.07,1.84-5.96,4.76-11.56,7.13-17.34.87-2.13,2.07-3.68,4.5-3.67,2.47,0,3.61,1.73,4.47,3.77,2.52,6,5.36,11.89,7.43,18.05,1.34,4.01,3.8,5.1,7.35,5.16.74.01,1.48.04,2.45.08ZM110.37,126.77c-.24-.43-.36-.97-1.02-1.01-.92.67-1.16,1.81-1.57,2.79-1.78,4.2-3.53,8.41-5.22,12.65-.99,2.48-2.63,4.18-5.21,4.54-3.5.49-7.05.67-10.56,1.08-2.38.28-4.83.22-7.08.99.03,1.27.82,1.55,1.35,2.04,3.64,3.32,7.28,6.65,10.95,9.93,1.75,1.57,2.57,3.47,2.34,5.85-.29,3.05-1.13,5.98-1.72,8.96-.61,3.07-1.73,6.07-1.7,9.31,1.36.06,2.14-.61,2.98-1.12,3.76-2.28,7.57-4.5,11.28-6.87,3.01-1.93,5.86-1.76,8.82.09,3.95,2.46,7.96,4.82,11.95,7.2.6.36,1.14,1.05,2.1.53.21-.79,0-1.59-.18-2.42-1-4.37-1.97-8.75-2.92-13.13-.8-3.66-.26-6.77,2.86-9.3,3.3-2.67,6.34-5.68,9.46-8.59.75-.7,1.82-1.22,1.87-2.67-.48-.11-.93-.26-1.4-.31-5.08-.51-10.16-1.03-15.24-1.49-2.91-.26-4.87-1.69-6.01-4.51-1.93-4.78-3.99-9.5-6.13-14.56Z"/>
      <path class="cls-2" d="M131.1,71.8c7.23,3.27,12.95,8.05,17.02,14.88.97,1.62.84,2.6-.77,3.46-1.48.8-2.34,2.33-3.82,3.76-7.39-13.55-19.32-18.39-33.49-18.51-14.22-.12-26.2,4.63-34,18.08-1.71-1.57-3.14-3.19-4.98-4.31-1.12-.68-.25-1.64.19-2.42,4.32-7.72,10.95-12.51,18.83-15.7,1.05-.43,2.22-.61,3.28-1.72-6.97-6.99-9.99-15.4-8.01-25.33,1.22-6.12,4.29-11.23,9.18-14.95,10.3-7.84,24.49-6.69,33.18,2.6,7.51,8.01,11.38,24.36-1.83,38.05,1.73.69,3.39,1.36,5.23,2.11ZM96.34,60.99c6.63,7.81,16.34,8.77,24.3,2.41,5.54-4.44,7.86-12.35,5.61-19.21-2.37-7.25-9.11-12.57-16.07-12.61-7.2-.04-12.52,3.39-15.87,9.8-3.52,6.74-2.48,13.25,2.02,19.62Z"/>
      <path class="cls-2" d="M127.14,122.32c2.92-.3,5.63-.76,8.34-.76,2.71,0,4.15-1.17,5.15-3.72,2.51-6.37,5.24-12.65,7.87-18.97.87-2.09,1.79-4.17,4.42-4.15,2.7.02,4,1.86,4.96,4.24,2.65,6.5,5.49,12.91,8.09,19.42.89,2.24,2.32,2.97,4.52,3.14,7.05.57,14.1,1.3,21.15,1.96,2.03.19,3.67.88,4.31,3.13.63,2.21-.3,3.81-1.79,5.18-5.05,4.63-10.01,9.38-15.26,13.76-2.4,2.01-3.02,3.9-2.25,6.93,1.66,6.56,2.91,13.22,4.44,19.81.52,2.25.56,4.3-1.35,5.77-2,1.53-4.02.87-6-.35-6.09-3.75-12.23-7.41-18.29-11.2-1.52-.95-2.72-1.03-4.26-.02-3.46,2.26-7.03,4.32-10.57,6.48-2.18-4.4-2.09-4.91,1.1-7.8,1.74-1.57,3.47-3.14,5.18-4.74,3.75-3.53,6.86-3.92,11.22-1.31,3.63,2.18,7.23,4.42,10.86,6.63.91.55,1.76,1.26,3.27,1.33-1.07-4.88-1.84-9.71-3.21-14.36-1.56-5.28-.38-9.08,4.01-12.35,3.65-2.72,6.83-6.1,10.57-9.51-3.37-1.29-6.53-.8-9.53-1.32-2.34-.41-4.75-.42-7.13-.63-3.32-.29-5.68-1.81-6.96-5.17-1.69-4.42-3.61-8.75-5.44-13.1-.32-.76-.52-1.62-1.49-2.21-1.83,3.14-2.93,6.61-4.4,9.88-.9,2-1.76,4.03-2.56,6.07-1.03,2.62-2.97,4.1-5.59,4.45-3.84.51-7.7.74-11.55,1.15-1.51.16-2.5-.25-3.01-1.87-.53-1.66-1.31-3.24-1.94-4.75.92-1.18,2.04-.67,3.14-1.02Z"/>
      <path class="cls-2" d="M59.55,124.73c-1.58,2.99-4,4.02-7.02,4.24-5.24.38-10.46.97-15.67,1.47-.18,1.24.67,1.55,1.16,2,3.44,3.17,6.83,6.41,10.44,9.38,3.06,2.52,3.76,5.51,2.86,9.27-1.07,4.44-1.96,8.93-2.92,13.41-.16.73-.38,1.48-.03,2.39,1.19,0,2.08-.79,3.03-1.36,3.85-2.31,7.65-4.7,11.53-6.95,3.28-1.91,4.98-1.68,7.84.86,2.37,2.1,4.62,4.38,7.1,6.34,2.33,1.85,2.22,3.84.82,6.55-3.02-1.77-6.09-3.35-8.93-5.29-2.02-1.38-3.54-1.56-5.71-.13-5.63,3.7-11.46,7.07-17.22,10.56-1.06.64-2.07,1.38-3.37,1.48-3.14.25-5.3-2.03-4.65-5.21,1.55-7.63,3.15-15.25,4.87-22.85.39-1.74.06-2.88-1.22-4.02-5.38-4.75-10.69-9.6-16.08-14.34-1.82-1.61-3.1-3.34-2.27-5.94.77-2.41,2.71-2.88,4.89-3.08,7.06-.63,14.1-1.36,21.16-2.01,1.85-.17,2.97-1.05,3.7-2.83,2.73-6.74,5.59-13.42,8.34-20.15.91-2.23,2.24-3.82,4.71-3.81,2.46.01,3.56,1.88,4.41,3.88,2.73,6.46,5.51,12.9,8.05,19.44.94,2.43,2.37,3.39,4.79,3.5,3.52.16,7.02.55,10.78.86-.29,2.73-1.42,4.78-2.49,6.83-.4.78-1.27.72-2.01.65-3.61-.34-7.23-.64-10.82-1.08-2.95-.36-4.9-2.05-6.03-4.95-1.74-4.49-3.68-8.9-5.54-13.35-.26-.61-.49-1.27-1.54-1.69-2.7,5.04-4.54,10.53-6.93,15.95Z"/>
    </g>
  </g>
</svg>