<svg width="160" height="160" viewBox="0 0 160 160" fill="none" xmlns="http://www.w3.org/2000/svg">
<circle cx="80" cy="80" r="80" fill="#FFC3C2"/>
<path d="M27 29V146H144V29H27ZM44.7188 49.354H49.8867V61.274C49.8867 63.5187 49.2098 65.3151 48.0938 66.433C46.9778 67.5508 45.1668 68.2289 42.9258 68.2289C39.5598 68.4543 37.7629 67.1177 36.4219 65.3237L39.7969 62.172C40.6969 63.2989 41.5723 63.9679 42.6973 63.9679C44.0473 63.9679 44.7188 63.068 44.7188 61.274V49.354ZM51.0117 49.5828H66.041V53.8614H56.1621V56.7842H65.127V60.8339H56.1621V63.7391H66.252V68.2465H51.2227L51.0117 49.5828ZM67.166 49.5828H83.5313V54.0903H77.9238V68.2289H72.7734V54.0903H67.166V49.5828ZM123.012 72.2786C126.153 72.2786 128.625 73.175 130.641 74.7436L127.951 78.353C126.16 77.2262 124.367 76.5571 122.801 76.5571C121.451 76.5571 121.008 77.0079 121.008 77.684C121.008 78.5855 121.688 78.8128 124.154 79.4799C128.42 80.3814 131.098 81.7286 131.098 85.3255C131.089 89.1388 128.185 91.3824 123.469 91.3824C120.103 91.6078 116.956 90.4789 114.715 88.4596L117.633 85.079C119.424 86.6476 121.439 87.3327 123.68 87.3327C125.03 87.3327 125.93 86.8785 125.93 85.977C125.93 85.0755 125.249 84.8481 122.783 84.181C118.742 83.2795 115.822 82.1578 115.822 78.3354C115.822 74.9639 118.521 72.2786 123.012 72.2786ZM36.8789 72.5075H46.5293C48.7703 72.5075 50.5637 73.182 51.6797 74.0745C52.3547 74.7506 52.8047 75.8563 52.8047 77.2086C52.8047 79.4533 51.6777 80.5856 49.8867 81.4871C52.1277 82.1632 53.4727 83.5245 53.4727 85.9946C53.4727 89.1408 50.7777 91.1535 46.5117 91.1535H36.8789V72.5075ZM54.3691 72.5075H63.123C66.039 72.5075 67.8199 73.1715 69.1699 74.5147C70.2949 75.6415 70.752 76.9993 70.752 78.7932C70.752 81.7141 69.1875 83.512 66.9375 84.6388L69.8203 88.8293L76.7988 72.5075H81.7383L89.5781 91.3824H83.9707L82.6348 88.0018H75.4629L74.1094 91.3824H68.7305L68.8184 91.1535H65.584L61.7695 85.5368H59.5195V91.1535H54.3691V72.5075ZM90.2637 72.5075H95.4141V91.1535H90.2637V72.5075ZM96.7676 72.5075H101.479L109.09 82.3851V72.5075H114.258V91.1535H109.775L101.918 81.047V91.3824H96.7676V72.5075ZM42.0293 76.786V80.149H45.1758C46.7418 79.9146 47.6367 79.4709 47.6367 78.353C47.6367 77.2262 46.7453 76.786 45.4043 76.786H42.0293ZM59.5195 76.9973V81.5047H62.8945C64.6855 81.5047 65.584 80.5942 65.584 79.251C65.584 77.6734 64.4695 76.9973 62.8945 76.9973H59.5195ZM79.2773 78.5819L77.2383 83.7409H81.2813L79.2773 78.5819ZM41.8008 83.7409V87.1214H45.8438C47.4097 87.1214 48.3047 86.4434 48.3047 85.3255C48.3047 84.1986 47.4097 83.7409 45.8438 83.7409H41.8008ZM36.8789 128.234H79.7168V135.418H36.8789V128.234Z" fill="#D4091A"/>
</svg>
