<svg width="160" height="160" viewBox="0 0 160 160" fill="none" xmlns="http://www.w3.org/2000/svg">
<circle cx="80" cy="80" r="80" fill="#D7A1FF"/>
<path d="M143.273 10.6401H45.7367C41.8194 10.6401 38.6399 13.8197 38.6399 17.7369V115.263C38.6399 119.181 41.8194 122.36 45.7367 122.36H143.263C147.18 122.36 150.36 119.181 150.36 115.274V17.7369C150.36 13.8197 147.18 10.6401 143.273 10.6401ZM99.8199 96.2485C99.8199 106.878 93.5855 111.72 84.4833 111.72C76.254 111.72 70.3209 106.203 67.8999 101.08L76.2643 96.0199C77.8749 98.8773 80.3271 101.08 83.8599 101.08C87.2368 101.08 89.1799 99.7605 89.1799 94.6276V61.1801H99.8199V96.2485ZM122.897 111.72C113.473 111.72 108.122 106.972 105.14 101.08L113.12 95.7601C115.292 99.3137 117.661 102.711 122.669 102.711C126.877 102.711 129.08 100.613 129.08 97.7032C129.08 94.2327 126.794 92.9962 122.17 90.9701L119.635 89.879C112.309 86.7619 107.436 82.855 107.436 74.584C107.436 66.9781 113.245 61.1801 122.305 61.1801C128.758 61.1801 133.392 63.4245 136.738 69.3056L128.841 74.3866C127.095 71.259 125.225 70.033 122.305 70.033C119.333 70.033 117.453 71.924 117.453 74.3866C117.453 77.4311 119.333 78.6572 123.687 80.5483L126.222 81.6393C134.857 85.3279 139.72 89.0997 139.72 97.5785C139.72 106.712 132.54 111.72 122.897 111.72Z" fill="#D4091A"/>
</svg>
