<?xml version="1.0" encoding="UTF-8"?>
<svg id="Calque_2" data-name="Calque 2" xmlns="http://www.w3.org/2000/svg" xmlns:xlink="http://www.w3.org/1999/xlink" viewBox="0 0 217.18 233.18">
  <defs>
    <style>
      .cls-1 {
        filter: url(#drop-shadow-1);
      }

      .cls-2 {
        filter: url(#drop-shadow-3);
      }

      .cls-3 {
        filter: url(#drop-shadow-2);
      }

      .cls-4 {
        filter: url(#drop-shadow-6);
      }

      .cls-5 {
        filter: url(#drop-shadow-7);
      }

      .cls-6 {
        filter: url(#drop-shadow-5);
      }

      .cls-7 {
        filter: url(#drop-shadow-4);
      }

      .cls-8 {
        fill: #5f2712;
      }

      .cls-9 {
        fill: #cde5d0;
      }

      .cls-10 {
        fill: url(#Dégradé_sans_nom_10);
      }

      .cls-11 {
        fill: url(#Dégradé_sans_nom_11);
      }

      .cls-12 {
        fill: url(#Dégradé_sans_nom_11-3);
      }

      .cls-13 {
        fill: url(#Dégradé_sans_nom_11-2);
      }

      .cls-14 {
        fill: url(#Dégradé_sans_nom_10-3);
      }

      .cls-15 {
        fill: url(#Dégradé_sans_nom_10-2);
      }
    </style>
    <filter id="drop-shadow-1" x="7.84" y="-10.06" width="80.4" height="80.4" filterUnits="userSpaceOnUse">
      <feOffset dx="-8" dy="5"/>
      <feGaussianBlur result="blur" stdDeviation="5"/>
      <feFlood flood-color="#1d1d1b" flood-opacity=".8"/>
      <feComposite in2="blur" operator="in"/>
      <feComposite in="SourceGraphic"/>
    </filter>
    <radialGradient id="Dégradé_sans_nom_11" data-name="Dégradé sans nom 11" cx="-1082.49" cy="-314.89" fx="-1082.49" fy="-314.89" r="1" gradientTransform="translate(27215.65 -7875.52) scale(25.09 -25.09)" gradientUnits="userSpaceOnUse">
      <stop offset="0" stop-color="#9acda4"/>
      <stop offset=".31" stop-color="#6cb96e"/>
      <stop offset="1" stop-color="#138e38"/>
    </radialGradient>
    <filter id="drop-shadow-2" x="143.92" y="122.9" width="80.4" height="80.4" filterUnits="userSpaceOnUse">
      <feOffset dx="-8" dy="5"/>
      <feGaussianBlur result="blur-2" stdDeviation="5"/>
      <feFlood flood-color="#1d1d1b" flood-opacity=".8"/>
      <feComposite in2="blur-2" operator="in"/>
      <feComposite in="SourceGraphic"/>
    </filter>
    <radialGradient id="Dégradé_sans_nom_11-2" data-name="Dégradé sans nom 11" r="1" gradientTransform="translate(27351.65 -7742.52) scale(25.09 -25.09)" xlink:href="#Dégradé_sans_nom_11"/>
    <filter id="drop-shadow-3" x="-17.12" y="150.98" width="80.4" height="80.4" filterUnits="userSpaceOnUse">
      <feOffset dx="-8" dy="5"/>
      <feGaussianBlur result="blur-3" stdDeviation="5"/>
      <feFlood flood-color="#1d1d1b" flood-opacity=".8"/>
      <feComposite in2="blur-3" operator="in"/>
      <feComposite in="SourceGraphic"/>
    </filter>
    <radialGradient id="Dégradé_sans_nom_11-3" data-name="Dégradé sans nom 11" cx="-1082.49" fx="-1082.49" r="1" gradientTransform="translate(27190.65 -7714.52) scale(25.09 -25.09)" xlink:href="#Dégradé_sans_nom_11"/>
    <filter id="drop-shadow-4" x="107.92" y="14.9" width="80.4" height="80.4" filterUnits="userSpaceOnUse">
      <feOffset dx="-8" dy="5"/>
      <feGaussianBlur result="blur-4" stdDeviation="5"/>
      <feFlood flood-color="#1d1d1b" flood-opacity=".8"/>
      <feComposite in2="blur-4" operator="in"/>
      <feComposite in="SourceGraphic"/>
    </filter>
    <radialGradient id="Dégradé_sans_nom_10" data-name="Dégradé sans nom 10" cx="-1082.49" cy="-314.89" fx="-1082.49" fy="-314.89" r="1" gradientTransform="translate(27315.65 -7850.52) scale(25.09 -25.09)" gradientUnits="userSpaceOnUse">
      <stop offset=".23" stop-color="#42b6a5"/>
      <stop offset=".78" stop-color="#038f7c"/>
      <stop offset="1" stop-color="#097b6b"/>
    </radialGradient>
    <filter id="drop-shadow-5" x="87.76" y="172.82" width="80.64" height="80.4" filterUnits="userSpaceOnUse">
      <feOffset dx="-8" dy="5"/>
      <feGaussianBlur result="blur-5" stdDeviation="5"/>
      <feFlood flood-color="#1d1d1b" flood-opacity=".8"/>
      <feComposite in2="blur-5" operator="in"/>
      <feComposite in="SourceGraphic"/>
    </filter>
    <radialGradient id="Dégradé_sans_nom_10-2" data-name="Dégradé sans nom 10" r="1" gradientTransform="translate(27295.65 -7692.52) scale(25.09 -25.09)" xlink:href="#Dégradé_sans_nom_10"/>
    <filter id="drop-shadow-6" x="-14.24" y="73.94" width="80.64" height="80.4" filterUnits="userSpaceOnUse">
      <feOffset dx="-8" dy="5"/>
      <feGaussianBlur result="blur-6" stdDeviation="5"/>
      <feFlood flood-color="#1d1d1b" flood-opacity=".8"/>
      <feComposite in2="blur-6" operator="in"/>
      <feComposite in="SourceGraphic"/>
    </filter>
    <radialGradient id="Dégradé_sans_nom_10-3" data-name="Dégradé sans nom 10" r="1" gradientTransform="translate(27193.65 -7791.52) scale(25.09 -25.09)" xlink:href="#Dégradé_sans_nom_10"/>
    <filter id="drop-shadow-7" x="17.92" y="91.22" width="154.08" height="53.76" filterUnits="userSpaceOnUse">
      <feOffset dx="-8" dy="5"/>
      <feGaussianBlur result="blur-7" stdDeviation="5"/>
      <feFlood flood-color="#1d1d1b" flood-opacity=".8"/>
      <feComposite in2="blur-7" operator="in"/>
      <feComposite in="SourceGraphic"/>
    </filter>
  </defs>
  <g id="Calque_1-2" data-name="Calque 1">
    <g>
      <circle class="cls-9" cx="104" cy="117" r="103"/>
      <path class="cls-8" d="M42.06,123.1c0-.4.02-.79.06-1.15.04-.38.12-.72.22-1.02.87-.06,1.44-.28,1.7-.64.26-.38.38-1.11.38-2.18v-3.84c0-.79-.04-1.39-.13-1.79s-.3-.7-.64-.9c-.32-.19-.83-.31-1.54-.35,0-.36.02-.71.06-1.06.06-.36.17-.71.32-1.06.77,0,1.55-.04,2.34-.13.79-.11,1.53-.24,2.21-.38.68-.17,1.23-.35,1.63-.54.26.08.48.28.67.58.19.3.29.72.29,1.28,0,.38-.05.8-.16,1.25-.09.43-.26,1.13-.51,2.11h-.19c.41-1.05.73-1.79.96-2.24.23-.45.46-.78.67-.99.47-.53,1.09-.99,1.86-1.38.77-.38,1.61-.58,2.53-.58,1.02,0,1.93.22,2.72.67.81.43,1.43,1.04,1.86,1.86.28.49.42.99.42,1.5h-.16c.38-1,.81-1.72,1.28-2.14.47-.47,1.05-.86,1.73-1.18.68-.34,1.46-.51,2.34-.51,1.13,0,2.08.19,2.85.58.79.36,1.39.95,1.79,1.76.43.79.64,1.86.64,3.2v3.14c0,1.15.03,2,.1,2.56.09.53.23.89.45,1.06s.54.28.99.32c.11.32.17.67.19,1.06.04.36.06.75.06,1.15-.53-.04-1.17-.07-1.92-.1h-3.97c-.6.02-1.17.03-1.73.03-.55.02-1.02.04-1.41.06,0-.47.01-.86.03-1.18.04-.34.11-.68.19-1.02.43-.02.77-.13,1.02-.32s.44-.56.54-1.09c.11-.53.16-1.29.16-2.27v-2.34c0-1.32-.18-2.21-.54-2.66-.36-.47-.84-.7-1.44-.7s-1.13.19-1.6.58c-.45.38-.8.96-1.06,1.73-.23.75-.35,1.66-.35,2.75v1.38c0,1.11.12,1.87.35,2.27.23.4.7.63,1.41.67.09.28.15.62.19,1.02.04.38.06.78.06,1.18-.49-.04-1.17-.07-2.05-.1h-5.12c-.85.02-1.57.05-2.14.1,0-.4.02-.8.06-1.18.06-.4.14-.75.22-1.02.49-.04.86-.15,1.12-.32.26-.19.43-.56.51-1.09.11-.56.16-1.4.16-2.53v-2.37c0-1.19-.18-2.02-.54-2.46-.36-.45-.91-.67-1.63-.67-.53,0-1.02.21-1.47.64-.43.43-.78,1.02-1.06,1.79-.26.77-.38,1.64-.38,2.62v1.44c0,1.15.12,1.92.35,2.3.23.38.69.6,1.38.64.11.3.18.64.22,1.02.04.38.06.78.06,1.18-.34-.04-.81-.07-1.41-.1h-6.94c-.53.02-.96.05-1.28.1ZM81.62,123.29c-1.79,0-3.31-.3-4.54-.9-1.22-.62-2.13-1.48-2.75-2.59-.62-1.11-.93-2.41-.93-3.9,0-1.73.36-3.17,1.09-4.32.75-1.17,1.76-2.05,3.04-2.62,1.28-.6,2.72-.9,4.32-.9,1.83,0,3.36.32,4.58.96,1.24.64,2.17,1.51,2.78,2.62.62,1.11.93,2.39.93,3.84,0,1.6-.34,2.99-1.02,4.16-.68,1.17-1.66,2.08-2.94,2.72-1.28.62-2.79.93-4.54.93ZM82.14,121.05c.87,0,1.54-.45,1.98-1.34.45-.9.67-2.01.67-3.33s-.16-2.54-.48-3.46-.74-1.6-1.25-2.05c-.51-.47-1.07-.7-1.66-.7-.92,0-1.59.45-2.02,1.34-.43.9-.64,2-.64,3.3,0,1.17.13,2.24.38,3.2.26.94.64,1.68,1.15,2.24.51.53,1.13.8,1.86.8ZM98.64,123.29c-1.58,0-2.77-.4-3.58-1.22-.81-.83-1.22-2.23-1.22-4.19v-6.59c-.34-.13-.7-.22-1.09-.29-.36-.06-.79-.1-1.28-.1,0-.43.02-.81.06-1.15.06-.36.18-.72.35-1.09h1.95v-3.81c.83-.11,1.64-.32,2.43-.64.81-.32,1.46-.67,1.95-1.06.34.13.58.33.7.61s.19.77.19,1.47v3.42h3.84c0,.47-.03.89-.1,1.25-.04.34-.12.68-.22,1.02-.68,0-1.32.05-1.92.16-.58.08-1.11.21-1.6.38v5.92c0,.92.05,1.62.16,2.11.11.47.28.8.51.99.23.17.53.26.9.26.32,0,.64-.03.96-.1.34-.08.66-.2.96-.35.3.43.46,1.02.48,1.79-.45.34-1.09.63-1.92.86-.81.21-1.65.32-2.53.32ZM104.62,123.1c0-.45.02-.85.07-1.22.04-.38.11-.71.19-.99.85-.04,1.42-.25,1.7-.61.28-.38.42-1.11.42-2.18v-4.64c0-.49-.06-.9-.19-1.22-.11-.32-.33-.56-.67-.7-.34-.17-.84-.28-1.51-.32,0-.36.02-.72.07-1.09.06-.38.17-.72.32-1.02.87,0,1.73-.05,2.56-.16.83-.11,1.57-.24,2.21-.38.66-.17,1.15-.34,1.47-.51.32.13.57.34.74.64.19.3.29.7.29,1.22v8.19c0,1.07.14,1.79.42,2.18.28.36.82.57,1.63.61.08.28.14.61.16.99.04.38.06.79.06,1.22-.28-.02-.68-.04-1.22-.06-.53,0-1.13-.01-1.79-.03h-3.9c-.66.02-1.26.03-1.79.03-.51.02-.92.04-1.22.06ZM109.19,105.98c-.88,0-1.58-.21-2.11-.64-.53-.45-.8-1.03-.8-1.76,0-.83.29-1.47.86-1.92.6-.47,1.33-.7,2.21-.7,1,0,1.76.22,2.27.67.53.45.8,1.09.8,1.92,0,.7-.29,1.29-.87,1.76-.57.45-1.36.67-2.37.67ZM123.27,123.29c-.28-.66-.6-1.38-.96-2.14-.34-.79-.7-1.6-1.09-2.43-.36-.83-.74-1.64-1.12-2.43-.38-.79-.75-1.51-1.09-2.18-.32-.68-.6-1.27-.83-1.76-.23-.47-.45-.83-.64-1.09-.19-.26-.39-.44-.61-.54-.19-.11-.43-.19-.7-.26-.09-.3-.16-.64-.22-1.02-.06-.4-.1-.8-.1-1.18.49.02,1.14.04,1.95.06.83.02,1.71.03,2.62.03h1.89c.64-.02,1.24-.03,1.79-.03.55-.02,1-.04,1.34-.06,0,.36-.03.76-.1,1.18-.06.4-.14.75-.22,1.02-.81.08-1.28.27-1.41.54-.13.26,0,.78.39,1.57.21.47.43.97.64,1.5.23.51.46,1.07.67,1.66.23.58.46,1.17.67,1.79.23.6.46,1.23.67,1.89h-1.06c.45-1.3.87-2.44,1.28-3.42.4-.98.83-1.98,1.28-3.01.38-.92.49-1.55.32-1.89-.17-.34-.61-.56-1.31-.64-.09-.28-.17-.62-.26-1.02-.06-.43-.1-.82-.1-1.18.43.02.91.04,1.44.06.53.02,1.11.03,1.73.03s1.21-.01,1.76-.03c.55-.02,1.06-.04,1.5-.06,0,.36-.03.76-.1,1.18s-.16.77-.29,1.02c-.36.08-.67.21-.93.38-.26.15-.49.38-.7.7-.19.32-.41.77-.64,1.34l-4.42,9.98c-.36.17-.84.3-1.44.38-.58.09-1.12.1-1.63.03ZM142.37,123.29c-1.92,0-3.48-.33-4.67-.99-1.17-.66-2.04-1.56-2.59-2.69-.55-1.13-.83-2.4-.83-3.81,0-1.58.31-2.94.93-4.1.62-1.15,1.51-2.05,2.69-2.69,1.17-.64,2.55-.96,4.13-.96s2.88.3,3.9.9c1.02.58,1.78,1.39,2.27,2.43.51,1.02.79,2.22.83,3.58-.17.7-.48,1.27-.93,1.7h-2.11c-.79,0-1.62.01-2.5.03-.85,0-1.73.02-2.62.06-.88.04-1.72.1-2.53.16v-2.3h5.89c0-1.45-.19-2.55-.58-3.3-.36-.75-.92-1.12-1.66-1.12-.49,0-.93.18-1.31.54-.36.34-.64.86-.83,1.57-.19.68-.29,1.54-.29,2.56,0,1.11.14,2.1.42,2.98.28.88.74,1.56,1.38,2.05.64.49,1.5.74,2.59.74.75,0,1.49-.13,2.24-.38.75-.26,1.37-.59,1.86-.99.21.13.4.38.58.77.17.36.26.74.26,1.12-.83.7-1.78,1.24-2.85,1.6-1.05.36-2.26.54-3.65.54ZM143.04,106.04c-.47,0-.95-.05-1.44-.16-.49-.11-.88-.24-1.15-.38.49-.96.88-1.83,1.18-2.62.32-.81.59-1.64.8-2.5.45-.15.93-.26,1.44-.32.53-.06,1.07-.1,1.6-.1.32.02.63.04.93.06.32.02.6.05.83.1-.81.94-1.58,1.92-2.3,2.94-.7,1-1.33,1.99-1.89,2.98ZM159.25,123.29c-1.92,0-3.48-.33-4.67-.99-1.17-.66-2.04-1.56-2.59-2.69-.55-1.13-.83-2.4-.83-3.81,0-1.58.31-2.94.93-4.1.62-1.15,1.51-2.05,2.69-2.69,1.17-.64,2.55-.96,4.13-.96s2.88.3,3.9.9c1.02.58,1.78,1.39,2.27,2.43.51,1.02.79,2.22.83,3.58-.17.7-.48,1.27-.93,1.7h-2.11c-.79,0-1.62.01-2.5.03-.85,0-1.73.02-2.62.06-.88.04-1.72.1-2.53.16v-2.3h5.89c0-1.45-.19-2.55-.58-3.3-.36-.75-.92-1.12-1.66-1.12-.49,0-.93.18-1.31.54-.36.34-.64.86-.83,1.57-.19.68-.29,1.54-.29,2.56,0,1.11.14,2.1.42,2.98.28.88.74,1.56,1.38,2.05.64.49,1.5.74,2.59.74.75,0,1.49-.13,2.24-.38.75-.26,1.37-.59,1.86-.99.21.13.4.38.58.77.17.36.26.74.26,1.12-.83.7-1.78,1.24-2.85,1.6-1.05.36-2.26.54-3.65.54Z"/>
      <circle class="cls-9" cx="103" cy="118.5" r="103"/>
      <g class="cls-1">
        <path class="cls-11" d="M56.09,50.18c13.86,0,25.09-11.23,25.09-25.09S69.95,0,56.09,0s-25.09,11.23-25.09,25.09,11.23,25.09,25.09,25.09Z"/>
      </g>
      <g class="cls-3">
        <path class="cls-13" d="M192.09,183.18c13.86,0,25.09-11.23,25.09-25.09s-11.23-25.09-25.09-25.09-25.09,11.23-25.09,25.09,11.23,25.09,25.09,25.09Z"/>
      </g>
      <g class="cls-2">
        <path class="cls-12" d="M31.09,211.18c13.86,0,25.09-11.23,25.09-25.09s-11.23-25.09-25.09-25.09-25.09,11.23-25.09,25.09,11.23,25.09,25.09,25.09Z"/>
      </g>
      <g class="cls-7">
        <path class="cls-10" d="M156.09,75.18c13.86,0,25.09-11.23,25.09-25.09s-11.23-25.09-25.09-25.09-25.09,11.23-25.09,25.09,11.23,25.09,25.09,25.09Z"/>
      </g>
      <g class="cls-6">
        <path class="cls-15" d="M136.09,233.18c13.86,0,25.09-11.23,25.09-25.09s-11.23-25.09-25.09-25.09-25.09,11.23-25.09,25.09,11.23,25.09,25.09,25.09Z"/>
      </g>
      <g class="cls-4">
        <path class="cls-14" d="M34.09,134.18c13.86,0,25.09-11.23,25.09-25.09s-11.23-25.09-25.09-25.09-25.09,11.23-25.09,25.09,11.23,25.09,25.09,25.09Z"/>
      </g>
      <g class="cls-5">
        <path class="cls-8" d="M41.06,124.6c0-.4.02-.79.06-1.15.04-.38.12-.72.22-1.02.87-.06,1.44-.28,1.7-.64.26-.38.38-1.11.38-2.18v-3.84c0-.79-.04-1.39-.13-1.79s-.3-.7-.64-.9c-.32-.19-.83-.31-1.54-.35,0-.36.02-.71.06-1.06.06-.36.17-.71.32-1.06.77,0,1.55-.04,2.34-.13.79-.11,1.53-.24,2.21-.38.68-.17,1.23-.35,1.63-.54.26.08.48.28.67.58.19.3.29.72.29,1.28,0,.38-.05.8-.16,1.25-.09.43-.26,1.13-.51,2.11h-.19c.41-1.05.73-1.79.96-2.24.23-.45.46-.78.67-.99.47-.53,1.09-.99,1.86-1.38.77-.38,1.61-.58,2.53-.58,1.02,0,1.93.22,2.72.67.81.43,1.43,1.04,1.86,1.86.28.49.42.99.42,1.5h-.16c.38-1,.81-1.72,1.28-2.14.47-.47,1.05-.86,1.73-1.18.68-.34,1.46-.51,2.34-.51,1.13,0,2.08.19,2.85.58.79.36,1.39.95,1.79,1.76.43.79.64,1.86.64,3.2v3.14c0,1.15.03,2,.1,2.56.09.53.23.89.45,1.06s.54.28.99.32c.11.32.17.67.19,1.06.04.36.06.75.06,1.15-.53-.04-1.17-.07-1.92-.1h-3.97c-.6.02-1.17.03-1.73.03-.55.02-1.02.04-1.41.06,0-.47.01-.86.03-1.18.04-.34.11-.68.19-1.02.43-.02.77-.13,1.02-.32s.44-.56.54-1.09c.11-.53.16-1.29.16-2.27v-2.34c0-1.32-.18-2.21-.54-2.66-.36-.47-.84-.7-1.44-.7s-1.13.19-1.6.58c-.45.38-.8.96-1.06,1.73-.23.75-.35,1.66-.35,2.75v1.38c0,1.11.12,1.87.35,2.27.23.4.7.63,1.41.67.09.28.15.62.19,1.02.04.38.06.78.06,1.18-.49-.04-1.17-.07-2.05-.1h-5.12c-.85.02-1.57.05-2.14.1,0-.4.02-.8.06-1.18.06-.4.14-.75.22-1.02.49-.04.86-.15,1.12-.32.26-.19.43-.56.51-1.09.11-.56.16-1.4.16-2.53v-2.37c0-1.19-.18-2.02-.54-2.46-.36-.45-.91-.67-1.63-.67-.53,0-1.02.21-1.47.64-.43.43-.78,1.02-1.06,1.79-.26.77-.38,1.64-.38,2.62v1.44c0,1.15.12,1.92.35,2.3.23.38.69.6,1.38.64.11.3.18.64.22,1.02.04.38.06.78.06,1.18-.34-.04-.81-.07-1.41-.1h-6.94c-.53.02-.96.05-1.28.1ZM80.62,124.79c-1.79,0-3.31-.3-4.54-.9-1.22-.62-2.13-1.48-2.75-2.59-.62-1.11-.93-2.41-.93-3.9,0-1.73.36-3.17,1.09-4.32.75-1.17,1.76-2.05,3.04-2.62,1.28-.6,2.72-.9,4.32-.9,1.83,0,3.36.32,4.58.96,1.24.64,2.17,1.51,2.78,2.62.62,1.11.93,2.39.93,3.84,0,1.6-.34,2.99-1.02,4.16-.68,1.17-1.66,2.08-2.94,2.72-1.28.62-2.79.93-4.54.93ZM81.14,122.55c.87,0,1.54-.45,1.98-1.34.45-.9.67-2.01.67-3.33s-.16-2.54-.48-3.46-.74-1.6-1.25-2.05c-.51-.47-1.07-.7-1.66-.7-.92,0-1.59.45-2.02,1.34-.43.9-.64,2-.64,3.3,0,1.17.13,2.24.38,3.2.26.94.64,1.68,1.15,2.24.51.53,1.13.8,1.86.8ZM97.64,124.79c-1.58,0-2.77-.4-3.58-1.22-.81-.83-1.22-2.23-1.22-4.19v-6.59c-.34-.13-.7-.22-1.09-.29-.36-.06-.79-.1-1.28-.1,0-.43.02-.81.06-1.15.06-.36.18-.72.35-1.09h1.95v-3.81c.83-.11,1.64-.32,2.43-.64.81-.32,1.46-.67,1.95-1.06.34.13.58.33.7.61s.19.77.19,1.47v3.42h3.84c0,.47-.03.89-.1,1.25-.04.34-.12.68-.22,1.02-.68,0-1.32.05-1.92.16-.58.08-1.11.21-1.6.38v5.92c0,.92.05,1.62.16,2.11.11.47.28.8.51.99.23.17.53.26.9.26.32,0,.64-.03.96-.1.34-.08.66-.2.96-.35.3.43.46,1.02.48,1.79-.45.34-1.09.63-1.92.86-.81.21-1.65.32-2.53.32ZM103.62,124.6c0-.45.02-.85.07-1.22.04-.38.11-.72.19-.99.85-.04,1.42-.25,1.7-.61.28-.38.42-1.11.42-2.18v-4.64c0-.49-.06-.9-.19-1.22-.11-.32-.33-.56-.67-.7-.34-.17-.84-.28-1.51-.32,0-.36.02-.72.07-1.09.06-.38.17-.72.32-1.02.87,0,1.73-.05,2.56-.16.83-.11,1.57-.24,2.21-.38.66-.17,1.15-.34,1.47-.51.32.13.57.34.74.64.19.3.29.7.29,1.22v8.19c0,1.07.14,1.79.42,2.18.28.36.82.57,1.63.61.08.28.14.61.16.99.04.38.06.79.06,1.22-.28-.02-.68-.04-1.22-.06-.53,0-1.13-.01-1.79-.03h-3.9c-.66.02-1.26.03-1.79.03-.51.02-.92.04-1.22.06ZM108.19,107.48c-.88,0-1.58-.21-2.11-.64-.53-.45-.8-1.03-.8-1.76,0-.83.29-1.47.86-1.92.6-.47,1.33-.7,2.21-.7,1,0,1.76.22,2.27.67.53.45.8,1.09.8,1.92,0,.7-.29,1.29-.87,1.76-.57.45-1.36.67-2.37.67ZM122.27,124.79c-.28-.66-.6-1.38-.96-2.14-.34-.79-.7-1.6-1.09-2.43-.36-.83-.74-1.64-1.12-2.43-.38-.79-.75-1.51-1.09-2.18-.32-.68-.6-1.27-.83-1.76-.23-.47-.45-.83-.64-1.09-.19-.26-.39-.44-.61-.54-.19-.11-.43-.19-.7-.26-.09-.3-.16-.64-.22-1.02-.06-.4-.1-.8-.1-1.18.49.02,1.14.04,1.95.06.83.02,1.71.03,2.62.03h1.89c.64-.02,1.24-.03,1.79-.03.55-.02,1-.04,1.34-.06,0,.36-.03.76-.1,1.18-.06.4-.14.75-.22,1.02-.81.08-1.28.27-1.41.54-.13.26,0,.78.39,1.57.21.47.43.97.64,1.5.23.51.46,1.07.67,1.66.23.58.46,1.17.67,1.79.23.6.46,1.23.67,1.89h-1.06c.45-1.3.87-2.44,1.28-3.42.4-.98.83-1.98,1.28-3.01.38-.92.49-1.55.32-1.89-.17-.34-.61-.56-1.31-.64-.09-.28-.17-.62-.26-1.02-.06-.43-.1-.82-.1-1.18.43.02.91.04,1.44.06.53.02,1.11.03,1.73.03s1.21-.01,1.76-.03c.55-.02,1.06-.04,1.5-.06,0,.36-.03.76-.1,1.18s-.16.77-.29,1.02c-.36.08-.67.21-.93.38-.26.15-.49.38-.7.7-.19.32-.41.77-.64,1.34l-4.42,9.98c-.36.17-.84.3-1.44.38-.58.09-1.12.1-1.63.03ZM141.37,124.79c-1.92,0-3.48-.33-4.67-.99-1.17-.66-2.04-1.56-2.59-2.69-.55-1.13-.83-2.4-.83-3.81,0-1.58.31-2.94.93-4.1.62-1.15,1.51-2.05,2.69-2.69,1.17-.64,2.55-.96,4.13-.96s2.88.3,3.9.9c1.02.58,1.78,1.39,2.27,2.43.51,1.02.79,2.22.83,3.58-.17.7-.48,1.27-.93,1.7h-2.11c-.79,0-1.62.01-2.5.03-.85,0-1.73.02-2.62.06-.88.04-1.72.1-2.53.16v-2.3h5.89c0-1.45-.19-2.55-.58-3.3-.36-.75-.92-1.12-1.66-1.12-.49,0-.93.18-1.31.54-.36.34-.64.86-.83,1.57-.19.68-.29,1.54-.29,2.56,0,1.11.14,2.1.42,2.98.28.88.74,1.56,1.38,2.05.64.49,1.5.74,2.59.74.75,0,1.49-.13,2.24-.38.75-.26,1.37-.59,1.86-.99.21.13.4.38.58.77.17.36.26.74.26,1.12-.83.7-1.78,1.24-2.85,1.6-1.05.36-2.26.54-3.65.54ZM142.04,107.54c-.47,0-.95-.05-1.44-.16-.49-.11-.88-.24-1.15-.38.49-.96.88-1.83,1.18-2.62.32-.81.59-1.64.8-2.5.45-.15.93-.26,1.44-.32.53-.06,1.07-.1,1.6-.1.32.02.63.04.93.06.32.02.6.05.83.1-.81.94-1.58,1.92-2.3,2.94-.7,1-1.33,1.99-1.89,2.98ZM158.25,124.79c-1.92,0-3.48-.33-4.67-.99-1.17-.66-2.04-1.56-2.59-2.69-.55-1.13-.83-2.4-.83-3.81,0-1.58.31-2.94.93-4.1.62-1.15,1.51-2.05,2.69-2.69,1.17-.64,2.55-.96,4.13-.96s2.88.3,3.9.9c1.02.58,1.78,1.39,2.27,2.43.51,1.02.79,2.22.83,3.58-.17.7-.48,1.27-.93,1.7h-2.11c-.79,0-1.62.01-2.5.03-.85,0-1.73.02-2.62.06-.88.04-1.72.1-2.53.16v-2.3h5.89c0-1.45-.19-2.55-.58-3.3-.36-.75-.92-1.12-1.66-1.12-.49,0-.93.18-1.31.54-.36.34-.64.86-.83,1.57-.19.68-.29,1.54-.29,2.56,0,1.11.14,2.1.42,2.98.28.88.74,1.56,1.38,2.05.64.49,1.5.74,2.59.74.75,0,1.49-.13,2.24-.38.75-.26,1.37-.59,1.86-.99.21.13.4.38.58.77.17.36.26.74.26,1.12-.83.7-1.78,1.24-2.85,1.6-1.05.36-2.26.54-3.65.54Z"/>
      </g>
    </g>
  </g>
</svg>