<svg width="162" height="29" viewBox="0 0 162 29" fill="none" xmlns="http://www.w3.org/2000/svg">
<rect width="30" height="29" fill="#00B67A"/>
<rect x="33" width="30" height="29" fill="#00B67A"/>
<rect x="66" width="30" height="29" fill="#00B67A"/>
<rect x="99" width="30" height="29" fill="#00B67A"/>
<rect x="133" width="29" height="29" fill="#DCDCE6"/>
<path d="M15 5L17.2451 11.5643H24.5106L18.6327 15.6213L20.8779 22.1857L15 18.1287L9.12215 22.1857L11.3673 15.6213L5.48944 11.5643H12.7549L15 5Z" fill="white"/>
<path d="M47.5 5L49.8574 11.5643H57.4861L51.3143 15.6213L53.6717 22.1857L47.5 18.1287L41.3283 22.1857L43.6857 15.6213L37.5139 11.5643H45.1426L47.5 5Z" fill="white"/>
<path d="M81 5L83.2451 11.5643H90.5106L84.6327 15.6213L86.8779 22.1857L81 18.1287L75.1221 22.1857L77.3673 15.6213L71.4894 11.5643H78.7549L81 5Z" fill="white"/>
<path d="M113.5 5L115.857 11.5643H123.486L117.314 15.6213L119.672 22.1857L113.5 18.1287L107.328 22.1857L109.686 15.6213L103.514 11.5643H111.143L113.5 5Z" fill="white"/>
<path d="M147.5 5L149.857 11.5643H157.486L151.314 15.6213L153.672 22.1857L147.5 18.1287L141.328 22.1857L143.686 15.6213L137.514 11.5643H145.143L147.5 5Z" fill="white"/>
</svg>
