<?xml version="1.0" encoding="UTF-8"?>
<svg id="Calque_2" data-name="Calque 2" xmlns="http://www.w3.org/2000/svg" xmlns:xlink="http://www.w3.org/1999/xlink" viewBox="0 0 220.18 238.18">
  <defs>
    <style>
      .cls-1 {
        filter: url(#drop-shadow-1);
      }

      .cls-2 {
        filter: url(#drop-shadow-3);
      }

      .cls-3 {
        filter: url(#drop-shadow-2);
      }

      .cls-4 {
        filter: url(#drop-shadow-6);
      }

      .cls-5 {
        filter: url(#drop-shadow-7);
      }

      .cls-6 {
        filter: url(#drop-shadow-5);
      }

      .cls-7 {
        filter: url(#drop-shadow-4);
      }

      .cls-8 {
        fill: #5f2712;
      }

      .cls-9 {
        fill: #fbeba3;
      }

      .cls-10 {
        fill: url(#Dégradé_sans_nom_15);
      }

      .cls-11 {
        fill: url(#Dégradé_sans_nom_14);
      }

      .cls-12 {
        fill: url(#Dégradé_sans_nom_15-3);
      }

      .cls-13 {
        fill: url(#Dégradé_sans_nom_15-2);
      }

      .cls-14 {
        fill: url(#Dégradé_sans_nom_14-3);
      }

      .cls-15 {
        fill: url(#Dégradé_sans_nom_14-2);
      }
    </style>
    <filter id="drop-shadow-1" x="69.86" y="21.82" width="80.4" height="80.4" filterUnits="userSpaceOnUse">
      <feOffset dx="-7" dy="7"/>
      <feGaussianBlur result="blur" stdDeviation="5"/>
      <feFlood flood-color="#1d1d1b" flood-opacity=".8"/>
      <feComposite in2="blur" operator="in"/>
      <feComposite in="SourceGraphic"/>
    </filter>
    <radialGradient id="Dégradé_sans_nom_14" data-name="Dégradé sans nom 14" cx="-1706.37" cy="-356.91" fx="-1706.37" fy="-356.91" r="1" gradientTransform="translate(42929.96 -8899.67) scale(25.09 -25.09)" gradientUnits="userSpaceOnUse">
      <stop offset="0" stop-color="#fbeba3"/>
      <stop offset=".14" stop-color="#fbeba3"/>
      <stop offset=".53" stop-color="#fadd5d"/>
      <stop offset=".69" stop-color="#f7d438"/>
      <stop offset=".98" stop-color="#dcb408"/>
    </radialGradient>
    <filter id="drop-shadow-2" x="128.9" y="145.9" width="80.4" height="80.4" filterUnits="userSpaceOnUse">
      <feOffset dx="-7" dy="7"/>
      <feGaussianBlur result="blur-2" stdDeviation="5"/>
      <feFlood flood-color="#1d1d1b" flood-opacity=".8"/>
      <feComposite in2="blur-2" operator="in"/>
      <feComposite in="SourceGraphic"/>
    </filter>
    <radialGradient id="Dégradé_sans_nom_14-2" data-name="Dégradé sans nom 14" r="1" gradientTransform="translate(42988.96 -8775.67) scale(25.09 -25.09)" xlink:href="#Dégradé_sans_nom_14"/>
    <filter id="drop-shadow-3" x="147.86" y="63.82" width="80.4" height="80.4" filterUnits="userSpaceOnUse">
      <feOffset dx="-7" dy="7"/>
      <feGaussianBlur result="blur-3" stdDeviation="5"/>
      <feFlood flood-color="#1d1d1b" flood-opacity=".8"/>
      <feComposite in2="blur-3" operator="in"/>
      <feComposite in="SourceGraphic"/>
    </filter>
    <radialGradient id="Dégradé_sans_nom_15" data-name="Dégradé sans nom 15" cx="-1706.37" cy="-356.91" fx="-1706.37" fy="-356.91" r="1" gradientTransform="translate(43007.96 -8857.67) scale(25.09 -25.09)" gradientUnits="userSpaceOnUse">
      <stop offset="0" stop-color="#f2ccb2"/>
      <stop offset=".36" stop-color="#eca472"/>
      <stop offset=".69" stop-color="#ef792b"/>
      <stop offset="1" stop-color="#e26110"/>
    </radialGradient>
    <filter id="drop-shadow-4" x="36.98" y="179.98" width="80.4" height="80.4" filterUnits="userSpaceOnUse">
      <feOffset dx="-7" dy="7"/>
      <feGaussianBlur result="blur-4" stdDeviation="5"/>
      <feFlood flood-color="#1d1d1b" flood-opacity=".8"/>
      <feComposite in2="blur-4" operator="in"/>
      <feComposite in="SourceGraphic"/>
    </filter>
    <radialGradient id="Dégradé_sans_nom_15-2" data-name="Dégradé sans nom 15" cx="-1706.37" cy="-356.91" fx="-1706.37" fy="-356.91" gradientTransform="translate(42896.96 -8741.67) scale(25.09 -25.09)" xlink:href="#Dégradé_sans_nom_15"/>
    <filter id="drop-shadow-5" x="-22.06" y="-8.18" width="80.4" height="80.4" filterUnits="userSpaceOnUse">
      <feOffset dx="-7" dy="7"/>
      <feGaussianBlur result="blur-5" stdDeviation="5"/>
      <feFlood flood-color="#1d1d1b" flood-opacity=".8"/>
      <feComposite in2="blur-5" operator="in"/>
      <feComposite in="SourceGraphic"/>
    </filter>
    <radialGradient id="Dégradé_sans_nom_15-3" data-name="Dégradé sans nom 15" cx="-1706.37" cy="-356.91" fx="-1706.37" fy="-356.91" r="1" gradientTransform="translate(42837.96 -8929.67) scale(25.09 -25.09)" xlink:href="#Dégradé_sans_nom_15"/>
    <filter id="drop-shadow-6" x="-14.14" y="84.46" width="218.88" height="60.96" filterUnits="userSpaceOnUse">
      <feOffset dx="-7" dy="7"/>
      <feGaussianBlur result="blur-6" stdDeviation="5"/>
      <feFlood flood-color="#1d1d1b" flood-opacity=".8"/>
      <feComposite in2="blur-6" operator="in"/>
      <feComposite in="SourceGraphic"/>
    </filter>
    <filter id="drop-shadow-7" x="11.78" y="107.98" width="80.64" height="80.4" filterUnits="userSpaceOnUse">
      <feOffset dx="-7" dy="7"/>
      <feGaussianBlur result="blur-7" stdDeviation="5"/>
      <feFlood flood-color="#1d1d1b" flood-opacity=".8"/>
      <feComposite in2="blur-7" operator="in"/>
      <feComposite in="SourceGraphic"/>
    </filter>
    <radialGradient id="Dégradé_sans_nom_14-3" data-name="Dégradé sans nom 14" cx="-1706.37" fx="-1706.37" gradientTransform="translate(42871.96 -8813.67) scale(25.09 -25.09)" xlink:href="#Dégradé_sans_nom_14"/>
  </defs>
  <g id="Calque_1-2" data-name="Calque 1">
    <g>
      <circle class="cls-9" cx="104" cy="108" r="103"/>
      <path class="cls-8" d="M18.7,108.11c0,.92.1,1.64.29,2.18.21.51.55.9,1.02,1.15.49.24,1.16.38,2.02.45.11.3.17.65.19,1.06.04.38.06.77.06,1.15-.38-.02-.87-.04-1.47-.06-.6,0-1.24-.01-1.92-.03h-5.18c-1.11.02-1.99.05-2.66.1,0-.51.01-.94.03-1.28.04-.36.11-.67.19-.93.58-.04,1.01-.15,1.31-.32.32-.19.53-.52.64-.99.13-.47.19-1.16.19-2.08v-1.76h5.28v1.38ZM18.7,104.56v2.82h-5.28v-3.46l5.28-2.98c0,.43-.06.91-.19,1.44-.11.53-.26,1.2-.45,2.02l.64.16ZM18,104.5c.15-.43.32-.91.51-1.44.19-.56.36-.96.51-1.22.47-.75,1.06-1.36,1.76-1.86.7-.49,1.48-.74,2.34-.74s1.6.26,2.3.77c-.06.45-.13.97-.19,1.57-.06.6-.11,1.21-.13,1.82,0,.6.01,1.14.03,1.63-.36.15-.84.26-1.44.32-.6.04-1.11.06-1.54.06-.04-.77-.17-1.31-.38-1.63-.21-.34-.53-.51-.96-.51-.3,0-.62.18-.96.54-.32.36-.6.83-.83,1.41-.21.56-.32,1.15-.32,1.79l-.7-2.53ZM13.42,107.38v-2.46c0-.66-.04-1.17-.13-1.54s-.3-.63-.64-.8c-.32-.19-.83-.31-1.54-.35,0-.36.02-.72.06-1.09.06-.38.17-.72.32-1.02,1.34,0,2.58-.11,3.71-.32,1.15-.24,1.98-.48,2.5-.74.32.13.57.34.74.64.17.3.26.72.26,1.25l-5.28,6.43ZM35.12,114.29c-1.92,0-3.48-.33-4.67-.99-1.17-.66-2.04-1.56-2.59-2.69-.55-1.13-.83-2.4-.83-3.81,0-1.58.31-2.94.93-4.1.62-1.15,1.51-2.05,2.69-2.69,1.17-.64,2.55-.96,4.13-.96s2.88.3,3.9.9c1.02.58,1.78,1.39,2.27,2.43.51,1.02.79,2.22.83,3.58-.17.7-.48,1.27-.93,1.7h-2.11c-.79,0-1.62.01-2.5.03-.85,0-1.73.02-2.62.06-.87.04-1.72.1-2.53.16v-2.3h5.89c0-1.45-.19-2.55-.58-3.3-.36-.75-.92-1.12-1.66-1.12-.49,0-.93.18-1.31.54-.36.34-.64.86-.83,1.57-.19.68-.29,1.54-.29,2.56,0,1.11.14,2.1.42,2.98.28.88.74,1.56,1.38,2.05.64.49,1.5.74,2.59.74.75,0,1.49-.13,2.24-.38.75-.26,1.37-.59,1.86-.99.21.13.41.38.58.77.17.36.26.74.26,1.12-.83.7-1.78,1.24-2.85,1.6-1.05.36-2.26.54-3.65.54ZM55.77,100.05c-.02.56-.03,1.13-.03,1.73.02.58.07,1.14.16,1.7-.32.17-.74.32-1.25.45-.49.13-.99.19-1.5.19-.06-.53-.21-1.01-.45-1.44-.21-.45-.52-.8-.93-1.06-.38-.26-.89-.38-1.5-.38-.43,0-.77.12-1.02.35-.23.21-.35.5-.35.86,0,.26.06.5.19.74.15.24.46.5.93.8.49.28,1.24.63,2.24,1.06,1.22.49,2.17.96,2.85,1.41.7.45,1.21.93,1.5,1.44.3.51.45,1.13.45,1.86,0,.96-.29,1.78-.86,2.46-.55.68-1.35,1.21-2.4,1.57-1.05.34-2.3.51-3.78.51-1.34,0-2.46-.1-3.36-.29s-1.77-.46-2.62-.8c.06-.43.11-.88.13-1.34.02-.49.02-.96,0-1.41,0-.47-.02-.88-.06-1.22.32-.21.75-.36,1.28-.45.55-.11,1.07-.16,1.54-.16.13,1.11.45,1.95.96,2.53.53.56,1.18.83,1.95.83.53,0,.97-.12,1.31-.35.36-.24.54-.58.54-1.02,0-.32-.09-.6-.26-.83-.15-.26-.44-.5-.86-.74-.41-.26-1.01-.53-1.82-.83-.94-.36-1.75-.75-2.43-1.15-.68-.4-1.22-.91-1.6-1.5-.36-.6-.54-1.37-.54-2.3,0-.72.15-1.34.45-1.86.32-.53.77-.97,1.34-1.31.58-.34,1.24-.6,1.98-.77.77-.17,1.59-.26,2.46-.26,1.19,0,2.21.08,3.04.26.83.15,1.61.4,2.34.74ZM58.65,121.84c0-.51.01-.95.03-1.31.04-.34.11-.64.19-.9.58-.04,1.01-.16,1.31-.35.32-.17.53-.49.64-.96.13-.47.19-1.16.19-2.08v-11.33c0-.66-.04-1.17-.13-1.54-.09-.36-.3-.63-.64-.8-.32-.19-.83-.31-1.54-.35,0-.36.02-.72.06-1.09.06-.38.17-.72.32-1.02,1.34,0,2.58-.11,3.71-.32,1.15-.24,1.98-.48,2.5-.74.32.13.57.34.74.64.17.3.26.72.26,1.25,0,.21-.05.5-.16.86-.11.36-.27.78-.48,1.25l.64.67v12.13c0,.92.1,1.63.29,2.14.21.53.55.92,1.02,1.15.49.26,1.16.42,2.02.48.11.3.17.64.19,1.02.04.4.06.8.06,1.18-.38-.02-.87-.04-1.47-.06-.6,0-1.24-.01-1.92-.03h-5.18c-1.11.02-1.99.05-2.66.1ZM68.51,114.29c-.45,0-.86-.03-1.25-.1-.38-.06-.81-.15-1.28-.26v-3.2c.34.47.7.83,1.09,1.09.41.26.89.38,1.44.38.38,0,.79-.07,1.22-.22.43-.15.83-.43,1.22-.83.38-.4.68-.98.9-1.73.23-.77.35-1.75.35-2.94,0-.79-.1-1.53-.29-2.21-.17-.7-.46-1.27-.86-1.7-.38-.45-.92-.67-1.6-.67-.51,0-1.01.17-1.5.51-.47.32-.86.86-1.18,1.63-.3.75-.45,1.75-.45,3.01l-1.38-3.23c.36-.9.71-1.59,1.06-2.08.34-.51.67-.9.99-1.15.26-.24.59-.47.99-.7.43-.24.91-.43,1.44-.58.55-.17,1.13-.26,1.73-.26,1.26,0,2.36.24,3.3.7.96.45,1.72,1.15,2.27,2.11.58.96.86,2.21.86,3.74,0,1.73-.38,3.24-1.15,4.54-.75,1.3-1.8,2.31-3.17,3.04-1.34.73-2.92,1.09-4.74,1.09ZM87.87,114.29c-1.79,0-3.31-.3-4.54-.9-1.22-.62-2.13-1.48-2.75-2.59-.62-1.11-.93-2.41-.93-3.9,0-1.73.36-3.17,1.09-4.32.75-1.17,1.76-2.05,3.04-2.62,1.28-.6,2.72-.9,4.32-.9,1.83,0,3.36.32,4.58.96,1.24.64,2.17,1.51,2.78,2.62.62,1.11.93,2.39.93,3.84,0,1.6-.34,2.99-1.02,4.16-.68,1.17-1.66,2.08-2.94,2.72-1.28.62-2.79.93-4.54.93ZM88.39,112.05c.87,0,1.54-.45,1.98-1.34.45-.9.67-2.01.67-3.33s-.16-2.54-.48-3.46-.74-1.6-1.25-2.05c-.51-.47-1.07-.7-1.66-.7-.92,0-1.59.45-2.02,1.34-.43.9-.64,2-.64,3.3,0,1.17.13,2.24.38,3.2.26.94.64,1.68,1.15,2.24.51.53,1.13.8,1.86.8ZM100.61,107.38v-2.46c0-.66-.04-1.17-.13-1.54-.09-.36-.3-.63-.64-.8-.32-.19-.83-.31-1.54-.35,0-.36.02-.72.06-1.09.06-.38.17-.72.32-1.02,1.34,0,2.58-.11,3.71-.32,1.15-.24,1.98-.48,2.5-.74.32.13.56.34.74.64.17.3.26.72.26,1.25l-5.28,6.43ZM116.32,109.1c0,1.07.11,1.8.32,2.21.21.38.61.58,1.18.58.13.3.2.63.22.99.04.34.06.75.06,1.22-.47-.02-1.11-.04-1.92-.06-.79-.02-1.55-.03-2.27-.03h-1.7c-.64.02-1.25.03-1.82.03-.58.02-1.02.04-1.34.06,0-.4.01-.79.03-1.15.04-.38.13-.74.26-1.06.53,0,.95-.21,1.25-.64.3-.45.45-1.25.45-2.4v-2.88c0-1.3-.19-2.2-.58-2.69-.38-.51-.94-.77-1.66-.77-.51,0-.99.2-1.44.61-.45.4-.81.98-1.09,1.73-.26.75-.38,1.65-.38,2.72v1.54c0,1.09.14,1.82.42,2.21.28.38.69.58,1.25.58.15.34.23.68.26,1.02.04.34.06.74.06,1.18-.32-.02-.75-.04-1.28-.06-.53,0-1.1-.01-1.69-.03h-3.36c-.66.02-1.3.03-1.92.03-.6.02-1.06.04-1.38.06,0-.45.02-.86.07-1.25.06-.38.14-.7.22-.96.83,0,1.39-.19,1.66-.58.28-.4.42-1.14.42-2.21v-4.19l5.28-3.97c0,.26-.03.56-.1.9-.06.32-.15.66-.26,1.02.15-.34.3-.66.45-.96.17-.3.37-.58.61-.83.47-.51,1.08-.95,1.82-1.31.77-.36,1.62-.54,2.56-.54s1.81.17,2.62.51c.81.34,1.46.9,1.95,1.66.51.77.77,1.78.77,3.04v4.67ZM132.05,100.05c-.02.56-.03,1.13-.03,1.73.02.58.07,1.14.16,1.7-.32.17-.74.32-1.25.45-.49.13-.99.19-1.5.19-.06-.53-.21-1.01-.45-1.44-.21-.45-.52-.8-.93-1.06-.38-.26-.88-.38-1.5-.38-.43,0-.77.12-1.02.35-.24.21-.35.5-.35.86,0,.26.06.5.19.74.15.24.46.5.93.8.49.28,1.24.63,2.24,1.06,1.22.49,2.16.96,2.85,1.41.7.45,1.21.93,1.5,1.44.3.51.45,1.13.45,1.86,0,.96-.29,1.78-.86,2.46-.55.68-1.35,1.21-2.4,1.57-1.04.34-2.3.51-3.78.51-1.34,0-2.46-.1-3.36-.29s-1.77-.46-2.62-.8c.06-.43.11-.88.13-1.34.02-.49.02-.96,0-1.41,0-.47-.02-.88-.06-1.22.32-.21.75-.36,1.28-.45.55-.11,1.07-.16,1.54-.16.13,1.11.45,1.95.96,2.53.53.56,1.18.83,1.95.83.53,0,.97-.12,1.31-.35.36-.24.54-.58.54-1.02,0-.32-.09-.6-.26-.83-.15-.26-.44-.5-.86-.74-.4-.26-1.01-.53-1.82-.83-.94-.36-1.75-.75-2.43-1.15-.68-.4-1.22-.91-1.6-1.5-.36-.6-.54-1.37-.54-2.3,0-.72.15-1.34.45-1.86.32-.53.77-.97,1.34-1.31.58-.34,1.24-.6,1.98-.77.77-.17,1.59-.26,2.46-.26,1.19,0,2.21.08,3.04.26.83.15,1.61.4,2.34.74ZM146.28,114.29c-.41-.15-.69-.37-.86-.67-.17-.3-.26-.69-.26-1.18,0-.28.03-.61.1-.99.06-.4.16-.79.29-1.15l.13-.13c-.19.66-.44,1.24-.74,1.73-.3.47-.65.86-1.06,1.18-.45.38-.99.67-1.63.86-.64.19-1.38.29-2.21.29-1.47,0-2.62-.31-3.46-.93-.83-.62-1.25-1.52-1.25-2.72,0-.81.18-1.5.54-2.08.38-.6.9-1.1,1.54-1.5.66-.43,1.39-.77,2.18-1.02.81-.26,1.64-.46,2.5-.61.87-.17,1.73-.32,2.56-.45,0-.51-.02-.96-.06-1.34-.02-.38-.09-.72-.19-.99-.09-.3-.24-.55-.45-.77-.24-.28-.51-.47-.83-.58-.3-.11-.6-.16-.9-.16-.53,0-.97.16-1.31.48-.34.32-.6.76-.77,1.31-.17.53-.29,1.12-.35,1.76-.62,0-1.17-.02-1.66-.06-.49-.04-.94-.15-1.34-.32.04-.6.05-1.23.03-1.89-.02-.66-.11-1.35-.26-2.08.92-.38,1.99-.68,3.23-.9,1.24-.24,2.42-.35,3.55-.35,1.41,0,2.52.16,3.33.48.81.3,1.42.65,1.82,1.06.43.43.77,1.04,1.02,1.82.28.77.42,1.91.42,3.42v2.46c0,.72.04,1.28.13,1.66.09.38.26.65.51.8.28.13.67.2,1.18.22.06.4.07.8.03,1.18-.04.38-.15.75-.32,1.09-.88.02-1.76.12-2.66.29-.9.17-1.74.43-2.53.77ZM141.93,111.18c.43,0,.84-.13,1.25-.38.43-.28.78-.69,1.06-1.25.28-.56.42-1.24.42-2.05v-.74c-.66.13-1.26.28-1.79.45-.51.17-.94.36-1.28.58-.34.21-.6.47-.77.77-.17.3-.26.65-.26,1.06,0,.56.13.96.38,1.22.28.24.61.35.99.35ZM159.76,110.74c.34.47.7.83,1.09,1.09.4.26.89.38,1.44.38.38,0,.79-.07,1.22-.22.43-.15.83-.43,1.22-.83.38-.43.68-1.01.9-1.76.23-.75.35-1.72.35-2.91,0-.85-.11-1.62-.32-2.3-.19-.7-.49-1.26-.9-1.66-.41-.4-.93-.61-1.57-.61-.49,0-.98.17-1.47.51-.47.32-.86.86-1.18,1.63-.3.75-.45,1.76-.45,3.04v4.58l-.32-.93ZM162.32,114.29c-1.13,0-2.25-.1-3.36-.29-1.09-.19-2.07-.46-2.94-.8-.85-.36-1.5-.77-1.95-1.22.26-.32.44-.74.54-1.25.13-.53.19-1.23.19-2.08v-12.19c0-.49-.06-.9-.19-1.22-.11-.32-.33-.55-.67-.7-.34-.17-.84-.28-1.5-.32,0-.36.02-.73.06-1.09.06-.38.17-.73.32-1.02.87,0,1.73-.05,2.56-.16.83-.11,1.57-.23,2.21-.38.66-.17,1.15-.34,1.47-.51.32.13.57.34.74.64.19.3.29.7.29,1.22v6.24c0,.64-.02,1.15-.06,1.54-.04.36-.12.77-.22,1.22l-.35,2.21-.77-.29c.38-.9.75-1.59,1.09-2.08.34-.51.67-.9.99-1.15.26-.24.59-.47.99-.7.43-.24.91-.43,1.44-.58.55-.17,1.13-.26,1.73-.26,1.24,0,2.34.24,3.3.7.96.45,1.72,1.16,2.27,2.14.58.98.86,2.24.86,3.78,0,1.71-.38,3.21-1.15,4.51-.75,1.28-1.79,2.28-3.14,3.01-1.34.73-2.92,1.09-4.74,1.09ZM173.08,114.1c0-.45.02-.85.06-1.22.04-.38.11-.71.19-.99.85-.04,1.42-.25,1.7-.61.28-.38.42-1.11.42-2.18v-12.9c0-.43-.08-.78-.22-1.06-.13-.28-.36-.49-.7-.64-.34-.15-.82-.25-1.44-.29,0-.36.02-.73.06-1.09.06-.38.17-.73.32-1.02.87,0,1.73-.05,2.56-.16.83-.11,1.57-.23,2.21-.38.66-.17,1.15-.34,1.47-.51.32.13.57.34.74.64.19.3.29.7.29,1.22v16.19c0,1.07.14,1.79.42,2.18.28.36.82.57,1.63.61.09.28.14.61.16.99.04.38.06.79.06,1.22-.28-.02-.68-.04-1.22-.06-.53,0-1.13-.01-1.79-.03h-3.9c-.66.02-1.26.03-1.79.03-.53.02-.94.04-1.22.06ZM192.93,114.29c-1.92,0-3.48-.33-4.67-.99-1.17-.66-2.04-1.56-2.59-2.69-.55-1.13-.83-2.4-.83-3.81,0-1.58.31-2.94.93-4.1.62-1.15,1.51-2.05,2.69-2.69,1.17-.64,2.55-.96,4.13-.96s2.88.3,3.9.9c1.02.58,1.78,1.39,2.27,2.43.51,1.02.79,2.22.83,3.58-.17.7-.48,1.27-.93,1.7h-2.11c-.79,0-1.62.01-2.5.03-.85,0-1.73.02-2.62.06-.87.04-1.72.1-2.53.16v-2.3h5.89c0-1.45-.19-2.55-.58-3.3-.36-.75-.92-1.12-1.66-1.12-.49,0-.93.18-1.31.54-.36.34-.64.86-.83,1.57-.19.68-.29,1.54-.29,2.56,0,1.11.14,2.1.42,2.98.28.88.74,1.56,1.38,2.05.64.49,1.5.74,2.59.74.75,0,1.49-.13,2.24-.38.75-.26,1.37-.59,1.86-.99.21.13.41.38.58.77.17.36.26.74.26,1.12-.83.7-1.78,1.24-2.85,1.6-1.04.36-2.26.54-3.65.54Z"/>
      <circle class="cls-9" cx="103" cy="109.5" r="103"/>
      <g class="cls-1">
        <path class="cls-11" d="M117.09,80.18c13.86,0,25.09-11.23,25.09-25.09s-11.23-25.09-25.09-25.09-25.09,11.23-25.09,25.09,11.23,25.09,25.09,25.09Z"/>
      </g>
      <g class="cls-3">
        <path class="cls-15" d="M176.09,204.18c13.86,0,25.09-11.23,25.09-25.09s-11.23-25.09-25.09-25.09-25.09,11.23-25.09,25.09,11.23,25.09,25.09,25.09Z"/>
      </g>
      <g class="cls-2">
        <path class="cls-10" d="M195.09,122.18c13.86,0,25.09-11.23,25.09-25.09s-11.23-25.09-25.09-25.09-25.09,11.23-25.09,25.09,11.23,25.09,25.09,25.09Z"/>
      </g>
      <g class="cls-7">
        <path class="cls-13" d="M84.09,238.18c13.86,0,25.09-11.23,25.09-25.09s-11.23-25.09-25.09-25.09-25.09,11.23-25.09,25.09,11.23,25.09,25.09,25.09Z"/>
      </g>
      <g class="cls-6">
        <path class="cls-12" d="M25.09,50.18c13.86,0,25.09-11.23,25.09-25.09S38.95,0,25.09,0,0,11.23,0,25.09s11.23,25.09,25.09,25.09Z"/>
      </g>
      <g class="cls-4">
        <path class="cls-8" d="M15.7,109.61c0,.92.1,1.64.29,2.18.21.51.55.9,1.02,1.15.49.24,1.16.38,2.02.45.11.3.17.65.19,1.06.04.38.06.77.06,1.15-.38-.02-.87-.04-1.47-.06-.6,0-1.24-.01-1.92-.03h-5.18c-1.11.02-1.99.05-2.66.1,0-.51.01-.94.03-1.28.04-.36.11-.67.19-.93.58-.04,1.01-.15,1.31-.32.32-.19.53-.52.64-.99.13-.47.19-1.16.19-2.08v-1.76h5.28v1.38ZM15.7,106.06v2.82h-5.28v-3.46l5.28-2.98c0,.43-.06.91-.19,1.44-.11.53-.26,1.2-.45,2.02l.64.16ZM15,106c.15-.43.32-.91.51-1.44.19-.56.36-.96.51-1.22.47-.75,1.06-1.36,1.76-1.86.7-.49,1.48-.74,2.34-.74s1.6.26,2.3.77c-.06.45-.13.97-.19,1.57-.06.6-.11,1.21-.13,1.82,0,.6.01,1.14.03,1.63-.36.15-.84.26-1.44.32-.6.04-1.11.06-1.54.06-.04-.77-.17-1.31-.38-1.63-.21-.34-.53-.51-.96-.51-.3,0-.62.18-.96.54-.32.36-.6.83-.83,1.41-.21.56-.32,1.15-.32,1.79l-.7-2.53ZM10.42,108.88v-2.46c0-.66-.04-1.17-.13-1.54s-.3-.63-.64-.8c-.32-.19-.83-.31-1.54-.35,0-.36.02-.72.06-1.09.06-.38.17-.72.32-1.02,1.34,0,2.58-.11,3.71-.32,1.15-.24,1.98-.48,2.5-.74.32.13.57.34.74.64.17.3.26.72.26,1.25l-5.28,6.43ZM32.12,115.79c-1.92,0-3.48-.33-4.67-.99-1.17-.66-2.04-1.56-2.59-2.69-.55-1.13-.83-2.4-.83-3.81,0-1.58.31-2.94.93-4.1.62-1.15,1.51-2.05,2.69-2.69,1.17-.64,2.55-.96,4.13-.96s2.88.3,3.9.9c1.02.58,1.78,1.39,2.27,2.43.51,1.02.79,2.22.83,3.58-.17.7-.48,1.27-.93,1.7h-2.11c-.79,0-1.62.01-2.5.03-.85,0-1.73.02-2.62.06-.87.04-1.72.1-2.53.16v-2.3h5.89c0-1.45-.19-2.55-.58-3.3-.36-.75-.92-1.12-1.66-1.12-.49,0-.93.18-1.31.54-.36.34-.64.86-.83,1.57-.19.68-.29,1.54-.29,2.56,0,1.11.14,2.1.42,2.98.28.88.74,1.56,1.38,2.05.64.49,1.5.74,2.59.74.75,0,1.49-.13,2.24-.38.75-.26,1.37-.59,1.86-.99.21.13.41.38.58.77.17.36.26.74.26,1.12-.83.7-1.78,1.24-2.85,1.6-1.05.36-2.26.54-3.65.54ZM52.77,101.55c-.02.56-.03,1.13-.03,1.73.02.58.07,1.14.16,1.7-.32.17-.74.32-1.25.45-.49.13-.99.19-1.5.19-.06-.53-.21-1.01-.45-1.44-.21-.45-.52-.8-.93-1.06-.38-.26-.89-.38-1.5-.38-.43,0-.77.12-1.02.35-.23.21-.35.5-.35.86,0,.26.06.5.19.74.15.24.46.5.93.8.49.28,1.24.63,2.24,1.06,1.22.49,2.17.96,2.85,1.41.7.45,1.21.93,1.5,1.44.3.51.45,1.13.45,1.86,0,.96-.29,1.78-.86,2.46-.55.68-1.35,1.21-2.4,1.57-1.05.34-2.3.51-3.78.51-1.34,0-2.46-.1-3.36-.29s-1.77-.46-2.62-.8c.06-.43.11-.88.13-1.34.02-.49.02-.96,0-1.41,0-.47-.02-.88-.06-1.22.32-.21.75-.36,1.28-.45.55-.11,1.07-.16,1.54-.16.13,1.11.45,1.95.96,2.53.53.56,1.18.83,1.95.83.53,0,.97-.12,1.31-.35.36-.24.54-.58.54-1.02,0-.32-.09-.6-.26-.83-.15-.26-.44-.5-.86-.74-.41-.26-1.01-.53-1.82-.83-.94-.36-1.75-.75-2.43-1.15-.68-.4-1.22-.91-1.6-1.5-.36-.6-.54-1.37-.54-2.3,0-.72.15-1.34.45-1.86.32-.53.77-.97,1.34-1.31.58-.34,1.24-.6,1.98-.77.77-.17,1.59-.26,2.46-.26,1.19,0,2.21.08,3.04.26.83.15,1.61.4,2.34.74ZM55.65,123.34c0-.51.01-.95.03-1.31.04-.34.11-.64.19-.9.58-.04,1.01-.16,1.31-.35.32-.17.53-.49.64-.96.13-.47.19-1.16.19-2.08v-11.33c0-.66-.04-1.17-.13-1.54-.09-.36-.3-.63-.64-.8-.32-.19-.83-.31-1.54-.35,0-.36.02-.72.06-1.09.06-.38.17-.72.32-1.02,1.34,0,2.58-.11,3.71-.32,1.15-.24,1.98-.48,2.5-.74.32.13.57.34.74.64.17.3.26.72.26,1.25,0,.21-.05.5-.16.86-.11.36-.27.78-.48,1.25l.64.67v12.13c0,.92.1,1.63.29,2.14.21.53.55.92,1.02,1.15.49.26,1.16.42,2.02.48.11.3.17.64.19,1.02.04.4.06.8.06,1.18-.38-.02-.87-.04-1.47-.06-.6,0-1.24-.01-1.92-.03h-5.18c-1.11.02-1.99.05-2.66.1ZM65.51,115.79c-.45,0-.86-.03-1.25-.1-.38-.06-.81-.15-1.28-.26v-3.2c.34.47.7.83,1.09,1.09.41.26.89.38,1.44.38.38,0,.79-.07,1.22-.22.43-.15.83-.43,1.22-.83.38-.4.68-.98.9-1.73.23-.77.35-1.75.35-2.94,0-.79-.1-1.53-.29-2.21-.17-.7-.46-1.27-.86-1.7-.38-.45-.92-.67-1.6-.67-.51,0-1.01.17-1.5.51-.47.32-.86.86-1.18,1.63-.3.75-.45,1.75-.45,3.01l-1.38-3.23c.36-.9.71-1.59,1.06-2.08.34-.51.67-.9.99-1.15.26-.24.59-.47.99-.7.43-.24.91-.43,1.44-.58.55-.17,1.13-.26,1.73-.26,1.26,0,2.36.24,3.3.7.96.45,1.72,1.15,2.27,2.11.58.96.86,2.21.86,3.74,0,1.73-.38,3.24-1.15,4.54-.75,1.3-1.8,2.31-3.17,3.04-1.34.73-2.92,1.09-4.74,1.09ZM84.87,115.79c-1.79,0-3.31-.3-4.54-.9-1.22-.62-2.13-1.48-2.75-2.59-.62-1.11-.93-2.41-.93-3.9,0-1.73.36-3.17,1.09-4.32.75-1.17,1.76-2.05,3.04-2.62,1.28-.6,2.72-.9,4.32-.9,1.83,0,3.36.32,4.58.96,1.24.64,2.17,1.51,2.78,2.62.62,1.11.93,2.39.93,3.84,0,1.6-.34,2.99-1.02,4.16-.68,1.17-1.66,2.08-2.94,2.72-1.28.62-2.79.93-4.54.93ZM85.39,113.55c.87,0,1.54-.45,1.98-1.34.45-.9.67-2.01.67-3.33s-.16-2.54-.48-3.46-.74-1.6-1.25-2.05c-.51-.47-1.07-.7-1.66-.7-.92,0-1.59.45-2.02,1.34-.43.9-.64,2-.64,3.3,0,1.17.13,2.24.38,3.2.26.94.64,1.68,1.15,2.24.51.53,1.13.8,1.86.8ZM97.61,108.88v-2.46c0-.66-.04-1.17-.13-1.54-.09-.36-.3-.63-.64-.8-.32-.19-.83-.31-1.54-.35,0-.36.02-.72.06-1.09.06-.38.17-.72.32-1.02,1.34,0,2.58-.11,3.71-.32,1.15-.24,1.98-.48,2.5-.74.32.13.56.34.74.64.17.3.26.72.26,1.25l-5.28,6.43ZM113.32,110.6c0,1.07.11,1.8.32,2.21.21.38.61.58,1.18.58.13.3.2.63.22.99.04.34.06.75.06,1.22-.47-.02-1.11-.04-1.92-.06-.79-.02-1.55-.03-2.27-.03h-1.7c-.64.02-1.25.03-1.82.03-.58.02-1.02.04-1.34.06,0-.4.01-.79.03-1.15.04-.38.13-.74.26-1.06.53,0,.95-.21,1.25-.64.3-.45.45-1.25.45-2.4v-2.88c0-1.3-.19-2.2-.58-2.69-.38-.51-.94-.77-1.66-.77-.51,0-.99.2-1.44.61-.45.4-.81.98-1.09,1.73-.26.75-.38,1.65-.38,2.72v1.54c0,1.09.14,1.82.42,2.21.28.38.69.58,1.25.58.15.34.23.68.26,1.02.04.34.06.74.06,1.18-.32-.02-.75-.04-1.28-.06-.53,0-1.1-.01-1.69-.03h-3.36c-.66.02-1.3.03-1.92.03-.6.02-1.06.04-1.38.06,0-.45.02-.86.07-1.25.06-.38.14-.7.22-.96.83,0,1.39-.19,1.66-.58.28-.4.42-1.14.42-2.21v-4.19l5.28-3.97c0,.26-.03.56-.1.9-.06.32-.15.66-.26,1.02.15-.34.3-.66.45-.96.17-.3.37-.58.61-.83.47-.51,1.08-.95,1.82-1.31.77-.36,1.62-.54,2.56-.54s1.81.17,2.62.51c.81.34,1.46.9,1.95,1.66.51.77.77,1.78.77,3.04v4.67ZM129.05,101.55c-.02.56-.03,1.13-.03,1.73.02.58.07,1.14.16,1.7-.32.17-.74.32-1.25.45-.49.13-.99.19-1.5.19-.06-.53-.21-1.01-.45-1.44-.21-.45-.52-.8-.93-1.06-.38-.26-.88-.38-1.5-.38-.43,0-.77.12-1.02.35-.24.21-.35.5-.35.86,0,.26.06.5.19.74.15.24.46.5.93.8.49.28,1.24.63,2.24,1.06,1.22.49,2.16.96,2.85,1.41.7.45,1.21.93,1.5,1.44.3.51.45,1.13.45,1.86,0,.96-.29,1.78-.86,2.46-.55.68-1.35,1.21-2.4,1.57-1.04.34-2.3.51-3.78.51-1.34,0-2.46-.1-3.36-.29-.9-.19-1.77-.46-2.62-.8.06-.43.11-.88.13-1.34.02-.49.02-.96,0-1.41,0-.47-.02-.88-.06-1.22.32-.21.75-.36,1.28-.45.56-.11,1.07-.16,1.54-.16.13,1.11.45,1.95.96,2.53.53.56,1.18.83,1.95.83.53,0,.97-.12,1.31-.35.36-.24.54-.58.54-1.02,0-.32-.09-.6-.26-.83-.15-.26-.44-.5-.86-.74-.4-.26-1.01-.53-1.82-.83-.94-.36-1.75-.75-2.43-1.15s-1.22-.91-1.6-1.5c-.36-.6-.54-1.37-.54-2.3,0-.72.15-1.34.45-1.86.32-.53.77-.97,1.34-1.31.58-.34,1.24-.6,1.98-.77.77-.17,1.59-.26,2.46-.26,1.19,0,2.21.08,3.04.26.83.15,1.61.4,2.34.74ZM143.28,115.79c-.41-.15-.69-.37-.86-.67-.17-.3-.26-.69-.26-1.18,0-.28.03-.61.1-.99.06-.4.16-.79.29-1.15l.13-.13c-.19.66-.44,1.24-.74,1.73-.3.47-.65.86-1.06,1.18-.45.38-.99.67-1.63.86-.64.19-1.38.29-2.21.29-1.47,0-2.62-.31-3.46-.93-.83-.62-1.25-1.52-1.25-2.72,0-.81.18-1.5.54-2.08.38-.6.9-1.1,1.54-1.5.66-.43,1.39-.77,2.18-1.02.81-.26,1.64-.46,2.5-.61.87-.17,1.73-.32,2.56-.45,0-.51-.02-.96-.06-1.34-.02-.38-.09-.72-.19-.99-.09-.3-.24-.55-.45-.77-.24-.28-.51-.47-.83-.58-.3-.11-.6-.16-.9-.16-.53,0-.97.16-1.31.48-.34.32-.6.76-.77,1.31-.17.53-.29,1.12-.35,1.76-.62,0-1.17-.02-1.66-.06-.49-.04-.94-.15-1.34-.32.04-.6.05-1.23.03-1.89-.02-.66-.11-1.35-.26-2.08.92-.38,1.99-.68,3.23-.9,1.24-.24,2.42-.35,3.55-.35,1.41,0,2.52.16,3.33.48.81.3,1.42.65,1.82,1.06.43.43.77,1.04,1.02,1.82.28.77.42,1.91.42,3.42v2.46c0,.72.04,1.28.13,1.66.09.38.26.65.51.8.28.13.67.2,1.18.22.06.4.07.8.03,1.18-.04.38-.15.75-.32,1.09-.88.02-1.76.12-2.66.29-.9.17-1.74.43-2.53.77ZM138.93,112.68c.43,0,.84-.13,1.25-.38.43-.28.78-.69,1.06-1.25.28-.56.42-1.24.42-2.05v-.74c-.66.13-1.26.28-1.79.45-.51.17-.94.36-1.28.58-.34.21-.6.47-.77.77-.17.3-.26.65-.26,1.06,0,.56.13.96.38,1.22.28.24.61.35.99.35ZM156.76,112.24c.34.47.7.83,1.09,1.09.4.26.89.38,1.44.38.38,0,.79-.07,1.22-.22.43-.15.83-.43,1.22-.83.38-.43.68-1.01.9-1.76.23-.75.35-1.72.35-2.91,0-.85-.11-1.62-.32-2.3-.19-.7-.49-1.26-.9-1.66-.41-.4-.93-.61-1.57-.61-.49,0-.98.17-1.47.51-.47.32-.86.86-1.18,1.63-.3.75-.45,1.76-.45,3.04v4.58l-.32-.93ZM159.32,115.79c-1.13,0-2.25-.1-3.36-.29-1.09-.19-2.07-.46-2.94-.8-.85-.36-1.5-.77-1.95-1.22.26-.32.44-.74.54-1.25.13-.53.19-1.23.19-2.08v-12.19c0-.49-.06-.9-.19-1.22-.11-.32-.33-.56-.67-.7-.34-.17-.84-.28-1.5-.32,0-.36.02-.73.06-1.09.06-.38.17-.73.32-1.02.87,0,1.73-.05,2.56-.16.83-.11,1.57-.23,2.21-.38.66-.17,1.15-.34,1.47-.51.32.13.57.34.74.64.19.3.29.7.29,1.22v6.24c0,.64-.02,1.15-.06,1.54-.04.36-.12.77-.22,1.22l-.35,2.21-.77-.29c.38-.9.75-1.59,1.09-2.08.34-.51.67-.9.99-1.15.26-.24.59-.47.99-.7.43-.24.91-.43,1.44-.58.55-.17,1.13-.26,1.73-.26,1.24,0,2.34.24,3.3.7.96.45,1.72,1.16,2.27,2.14.58.98.86,2.24.86,3.78,0,1.71-.38,3.21-1.15,4.51-.75,1.28-1.79,2.28-3.14,3.01-1.34.73-2.92,1.09-4.74,1.09ZM170.08,115.6c0-.45.02-.85.06-1.22.04-.38.11-.71.19-.99.85-.04,1.42-.25,1.7-.61.28-.38.42-1.11.42-2.18v-12.9c0-.43-.08-.78-.22-1.06-.13-.28-.36-.49-.7-.64-.34-.15-.82-.25-1.44-.29,0-.36.02-.73.06-1.09.06-.38.17-.73.32-1.02.87,0,1.73-.05,2.56-.16.83-.11,1.57-.23,2.21-.38.66-.17,1.15-.34,1.47-.51.32.13.57.34.74.64.19.3.29.7.29,1.22v16.19c0,1.07.14,1.79.42,2.18.28.36.82.57,1.63.61.09.28.14.61.16.99.04.38.06.79.06,1.22-.28-.02-.68-.04-1.22-.06-.53,0-1.13-.01-1.79-.03h-3.9c-.66.02-1.26.03-1.79.03-.53.02-.94.04-1.22.06ZM189.93,115.79c-1.92,0-3.48-.33-4.67-.99-1.17-.66-2.04-1.56-2.59-2.69-.55-1.13-.83-2.4-.83-3.81,0-1.58.31-2.94.93-4.1.62-1.15,1.51-2.05,2.69-2.69,1.17-.64,2.55-.96,4.13-.96s2.88.3,3.9.9c1.02.58,1.78,1.39,2.27,2.43.51,1.02.79,2.22.83,3.58-.17.7-.48,1.27-.93,1.7h-2.11c-.79,0-1.62.01-2.5.03-.85,0-1.73.02-2.62.06-.87.04-1.72.1-2.53.16v-2.3h5.89c0-1.45-.19-2.55-.58-3.3-.36-.75-.92-1.12-1.66-1.12-.49,0-.93.18-1.31.54-.36.34-.64.86-.83,1.57-.19.68-.29,1.54-.29,2.56,0,1.11.14,2.1.42,2.98.28.88.74,1.56,1.38,2.05.64.49,1.5.74,2.59.74.75,0,1.49-.13,2.24-.38.75-.26,1.37-.59,1.86-.99.21.13.41.38.58.77.17.36.26.74.26,1.12-.83.7-1.78,1.24-2.85,1.6-1.04.36-2.26.54-3.65.54Z"/>
      </g>
      <g class="cls-5">
        <path class="cls-14" d="M59.09,166.18c13.86,0,25.09-11.23,25.09-25.09s-11.23-25.09-25.09-25.09-25.09,11.23-25.09,25.09,11.23,25.09,25.09,25.09Z"/>
      </g>
    </g>
  </g>
</svg>