<svg width="160" height="165" viewBox="0 0 160 165" fill="none" xmlns="http://www.w3.org/2000/svg">
<circle cx="80" cy="80" r="80" fill="#0E74E1"/>
<path d="M79 117.5C45.4 117.5 31.3333 105.833 28.5 100V84C34.6667 88.8333 53.4 98.5 79 98.5C104.6 98.5 121.667 88.8333 127 84V98.5C125 104.833 112.6 117.5 79 117.5Z" fill="#D4091A"/>
<path d="M79.2437 141C45.8142 141 31.819 129.507 29 123.761V108C35.1354 112.761 53.7736 122.284 79.2437 122.284C104.714 122.284 121.694 112.761 127 108V122.284C125.01 128.522 112.673 141 79.2437 141Z" fill="#D4091A"/>
<path d="M79.2437 165C45.8142 165 31.819 153.507 29 147.761V132C35.1354 136.761 53.7736 146.284 79.2437 146.284C104.714 146.284 121.694 136.761 127 132V146.284C125.01 152.522 112.673 165 79.2437 165Z" fill="#D4091A"/>
<path d="M76.5 93C43.5807 93 28.5 79.9987 28.5 72.0002C28.5 59.9987 50.5 51.999 81 51.499C111.5 50.999 127 66 127 74.0002C127 78.7942 119.5 93 76.5 93Z" fill="#D4091A"/>
</svg>
