<?xml version="1.0" encoding="UTF-8"?>
<svg id="Calque_2" data-name="Calque 2" xmlns="http://www.w3.org/2000/svg" viewBox="0 0 105.19 105.28">
  <defs>
    <style>
      .cls-1 {
        fill: #59210f;
      }
    </style>
  </defs>
  <g id="Calque_1-2" data-name="Calque 1">
    <path class="cls-1" d="M19.3,14.06v5.92c1.31-1.07,2.62-2.32,4.26-2.86,3.8-1.25,5.92,1.84,9.76,1.11.71-12.2,12.37-20.68,24.27-17.59,7.9,2.05,13.92,9.4,14.29,17.59,1.01-.07,2.13.12,3.13-.05.88-.15,1.93-.86,2.83-1.11,3.4-.95,5.62.81,8.06,2.91v-5.92h-4.05c-.9,0-1.71-2.12-.87-2.84L91.59.59c.54-.56,1.27-.69,1.99-.45l11.26,11.09c.84.71.04,2.84-.87,2.84h-4.05v14.57c0,1.18-3.21,2.14-3.51-.43-.58-4.99.43-11.09.02-16.2.22-1.42,1.46-1.43,2.62-1.55l-6.05-6.01-6.21,6.01c1.16.11,2.39.13,2.62,1.55.52,3.35-.51,8.04.02,11.37.13.78,1.2,1.9,1.56,2.82,1.34,3.46-.61,4.49-.92,7.27-.41,3.74,2.07,9.53,5.28,11.6,1.58,1.02,3.51,1.35,4.68,2.99,2.28,3.19,2.28,12.65.17,15.91-1.35,2.08-3.01,2.12-4.84,3.26-3.18,1.98-5.68,7.95-5.28,11.6.28,2.52,1.99,3.66,1.11,6.8-.82,2.92-6.65,8.58-9.53,9.53-3.34,1.1-4.15-.66-6.86-1.05-3.4-.49-9.09,1.47-11.34,4.1-1.48,1.74-1.6,4.14-3.63,5.58-2.83,2-11.25,1.98-14.16.17-2.04-1.28-2.15-3.05-3.26-4.84-2.01-3.24-8.12-5.48-11.79-5.03-1.66.2-3.34,1.51-5.06,1.51-3.85,0-11.44-7.28-11.73-11.05-.19-2.48,1.1-3.68,1.32-5.7.4-3.65-2.09-9.62-5.28-11.6-1.84-1.14-3.5-1.19-4.84-3.26-2.12-3.26-2.11-12.72.17-15.91,1.17-1.64,3.09-1.97,4.68-2.99,3.2-2.07,5.69-7.86,5.28-11.6-.31-2.78-2.26-3.81-.92-7.27.36-.92,1.43-2.04,1.56-2.82.53-3.33-.5-8.02.02-11.37.22-1.42,1.46-1.43,2.62-1.55l-6.05-6.01-6.21,6.01c1.16.11,2.39.13,2.62,1.55-.41,5.11.6,11.21.02,16.2-.3,2.57-3.51,1.61-3.51.43v-14.57H1.22c-.9,0-1.71-2.12-.87-2.84L10.97.59c.54-.56,1.27-.69,1.99-.45l11.26,11.09c.84.71.04,2.84-.87,2.84h-4.05ZM36.82,17.9c-.1,1.01.07,2.15,0,3.18,2.12.21,4.57-.29,6.01-1.99.95-1.12.99-3.22,2.65-3.29.88-.03,3,1.09,4.13,1.36,2.06.49,3.54.52,5.62.09,1.35-.28,3.81-1.62,4.87-1.39,1.16.25,1.11,1.36,1.57,2.16,1.48,2.55,3.82,3.29,6.69,3.06.83-11.59-9.66-20.31-20.93-16.66-5.7,1.85-10.05,7.54-10.62,13.48ZM64.84,24.38c-2.69-.45-4.75-2.18-6.24-4.38-3.88,1.47-8.13,1.46-12.01,0-1.49,2.19-3.55,3.93-6.24,4.38-.54,5.95.95,11.65,6.55,14.55,6.74,3.49,15.21.13,17.37-7.18.73-2.45.66-4.84.58-7.37ZM33.32,21.73c-1.29.39-2.66.19-3.95-.1-2.52-.58-3.2-2.1-5.89-.43-1.6.99-4.9,4.22-5.72,5.89-.95,1.95.29,3.07.74,4.97,1.13,4.84-1.98,12.68-6.05,15.57-1.91,1.36-4.25,1.33-4.91,3.85-.61,2.32-.66,6.06-.23,8.42.66,3.67,2.93,3.02,5.4,4.89,3.22,2.44,6.3,9.33,6.16,13.34-.07,1.96-1.54,4.35-1.54,5.7,0,2.01,5.68,7.55,7.61,7.95,1.45.3,3.01-.84,4.43-1.16,5.04-1.15,13.3,2.09,16.04,6.54.6.97,1.3,3.2,2.16,3.75,1.13.73,5.04.87,6.45.77.77-.05,2.86-.35,3.48-.68.98-.52,1.98-3.52,2.8-4.65,2.85-3.88,10.86-6.81,15.53-5.74,1.55.35,2.98,1.52,4.6,1.11,1.8-.46,6.94-5.51,7.35-7.33.3-1.35-1.49-4.59-1.46-6.69.04-3.79,2.88-10.15,5.82-12.6,1.28-1.07,4.36-2.1,5.03-3.07,1.19-1.72,1.09-7.18.75-9.28-.68-4.26-2.49-3.11-5.3-5.21-3.97-2.98-7.04-10.65-5.92-15.48.26-1.12,1.23-2.85,1.16-3.84-.14-1.92-5.73-7.37-7.6-7.76-1.45-.3-3.01.84-4.43,1.16-1.29.3-2.66.5-3.95.1,2.25,1.86,3.71,3.83,3.51,6.91-.06.99-.52,1.78-.57,2.73,12.75,11.15,14.71,30.48,4.81,44.23-10.18,14.14-29.62,18.1-44.54,8.88-18.85-11.64-21.35-38.42-4.71-53.11-.05-.95-.5-1.74-.57-2.73-.2-3.08,1.27-5.05,3.51-6.91ZM36.82,24.58c-3.57.09-4.84,4.95-1.61,6.54,2.65,1.31,1.66-.02,1.61-1.61s.06-3.3,0-4.94ZM68.15,31.59c4.56.04,4.98-6.45.54-7.01-.44-.06-.28.01-.32.32-.28,2.05.27,4.55-.22,6.69ZM43.81,43.84l-.08-2.61c-2.31-1.56-3.96-3.64-5.37-6.02-1.92-.14-3.7-.09-5.4-1.17-.92-.08-4.66,4.84-5.29,5.81-4.18,6.41-5.63,14.21-4.42,21.76l1.43-6.13c1.62-4.01,6.46-5.85,10.1-7.64,2.93-1.44,6-2.82,9.04-4ZM81.95,61.39c1.67-10.02-1.78-20.59-9.42-27.29l-.28-.06c-1.7,1.09-3.49,1.03-5.41,1.17-1.4,2.41-3.09,4.42-5.37,6.02l-.08,2.61c3.04,1.18,6.1,2.56,9.04,4,3.64,1.79,8.48,3.63,10.1,7.64.72,1.79.68,3.45,1.1,5.26.06.24,0,.71.33.65ZM57.86,42.98c-3.38,1.21-7.13,1.22-10.52,0v3.61c0,.29,3.79,3.92,4.04,4.07.6.34,1.85.34,2.43,0,.25-.14,4.04-3.78,4.04-4.07v-3.61ZM40.77,48.9l4.96,6.12,2.47-2.31-4.59-4.8-2.84,1ZM64.43,48.9l-2.84-1-4.59,4.8,2.47,2.31,4.96-6.12ZM37.66,50.68l-.63.07c-3.07,1.72-8.36,3.02-9.36,6.86-.92,3.55-1.02,7.85-1.78,11.5,3.91,8.29,12.09,14.73,21.22,16.16-.48-1.09-1.71-1.84-1.55-3.17l3.26-21.86c-.06-.21-1.27-1.43-1.41-1.46-.4-.07-1.4,1.73-3.04.43l-6.71-8.52ZM67.99,50.69h-.46s-6.71,8.51-6.71,8.51c-1.64,1.3-2.64-.5-3.04-.43-.15.03-1.35,1.25-1.41,1.46l3.26,21.86c.16,1.33-1.07,2.09-1.55,3.17,9.14-1.42,17.29-7.87,21.22-16.16-.76-3.64-.85-7.95-1.78-11.5M51.66,54.42c-.28.08-1.72,1.52-1.67,1.79l2.69,2.53,2.53-2.69c-.99-1.19-1.83-2.14-3.56-1.63ZM53.01,63.17h-.82l-2.9,18.27c-.07.43.15.68.32,1.02s2.06,2.91,2.33,3.14c.17.16.29.34.56.34.39.04.51-.1.76-.34.43-.39,2.6-3.47,2.64-3.95l-2.9-18.48Z"/>
  </g>
</svg>