<?xml version="1.0" encoding="UTF-8"?>
<svg id="Calque_2" data-name="Calque 2" xmlns="http://www.w3.org/2000/svg" viewBox="0 0 124.95 98.32">
  <defs>
    <style>
      .cls-1 {
        fill: #333;
      }
    </style>
  </defs>
  <g id="Calque_1-2" data-name="Calque 1">
    <g>
      <path class="cls-1" d="M98.15,98.32v-6.96h-4.6c-.22,0-2.3-1.04-2.63-1.27-2.52-1.77-2.74-4.91-3.5-7.65-3.49-.84-6.86-3.04-8.36-6.4-.17-.37-.97-2.73-.97-2.92v-8.5h4.46v-9.47c-3.96-1.15-5.54-5.64-3.72-9.34-3.97-2.99-4.01-8.39,0-11.41-1.89-3.92-.19-8.18,3.88-9.6.08-1.38-.34-2.54-.09-3.99.42-2.48,3.15-4.94,5.64-5.22,6.26-.7,13.87.47,20.27.07,3.94,1.07,6.13,4.84,4.94,8.85h4.04c.54,0,2.7,1.38,3.17,1.84,2.26,2.2,2.51,5.24,1.24,8.05,2.7,2.05,3.92,5.62,2.29,8.79-.41.79-2.26,2.32-2.29,2.62-.04.38.7,1.88.76,2.78.17,2.97-1.62,5.79-4.47,6.55v9.47h4.46v8.5c0,.25-.87,2.71-1.06,3.11-1.53,3.22-4.87,5.41-8.27,6.21-.71,2.69-1.04,5.9-3.5,7.65-.33.23-2.41,1.27-2.63,1.27h-4.6v6.96h-4.46ZM108.66,20.69c-.31-.31-1.26-.59-1.73-.64-3.79-.42-13.76-.42-17.56,0-3.11.35-3.02,4.06-.25,4.45,5.36.75,12.28-.53,17.81.03,1.95.07,3.12-2.43,1.73-3.83ZM117.57,29.6c-.41-.41-1.41-.6-2-.65-9.73-.88-20.79.7-30.66,0-3.06.29-3.18,4.12,0,4.47,9.59,1.07,21.13-.82,30.93,0,1.95.06,3.12-2.43,1.73-3.83ZM119.8,38.51c-.41-.41-1.41-.6-2-.65-11.14-1.01-23.81.79-35.11,0-3.1.27-3.1,4.2,0,4.47h35.39c1.95.06,3.12-2.43,1.73-3.83ZM117.57,47.43c-.41-.41-1.41-.6-2-.65-9.73-.88-20.79.7-30.66,0-3.06.29-3.18,4.12,0,4.47,9.59,1.07,21.13-.82,30.93,0,1.95.06,3.12-2.43,1.73-3.83ZM91.47,55.71h-4.46v8.91h4.46v-8.91ZM104.84,55.71h-8.91v8.91h8.91v-8.91ZM113.75,55.71h-4.46v8.91h4.46v-8.91ZM118.21,69.07h-35.65c-.74,5.59,2.98,9.58,8.62,8.93.58,2.21.88,5.3,1.69,7.36.39.98,1.04,1.42,2.07,1.55,2.42.28,8.13.23,10.6,0,.88-.08,1.74-.29,2.2-1.15.63-1.18,1.55-7.49,1.84-7.77,5.63.65,9.36-3.33,8.62-8.93Z"/>
      <path class="cls-1" d="M24.62,98.32v-9.46c-5.58-.62-10.64-6.05-11.14-11.58s1.52-11.11-2.68-15.7c-3.51-3.84-6.12-5.31-8.43-10.51C-6.92,30.07,12.54,8.12,34.51,14.48c18.26,5.29,25.2,28.11,12.94,42.75-2.21,2.64-5.55,4.43-6.69,7.8-1.24,3.67-.17,8.4-.55,12.26-.54,5.56-5.55,10.95-11.13,11.57v9.46h-4.47ZM35.76,66.85c.19-1.02.31-2.15.63-3.13,1.72-5.22,6.59-7.34,9.34-11.83,12.01-19.6-9.78-42.45-29.93-31.05C4.01,27.51.87,43.64,9.59,54.16c1.91,2.31,4.62,4,6.24,6.58,1.15,1.84,1.85,3.95,2.11,6.1h4.18l-1.11-20.05h-4.6c-.6,0-2.81-1.47-3.31-1.98-5.41-5.57,1.45-14.37,8.38-10.61,3.22,1.74,3.48,4.82,3.72,8.12l3.17.03c.7-2.71.15-4.75,2.28-6.95,5.45-5.61,14.99.99,10.92,8.14-.7,1.23-3.12,3.25-4.55,3.25h-4.32l-1.11,20.05h4.18ZM19.81,38.51c-1.3-1.3-4-.48-4.1,1.48-.13,2.51,2.95,2.5,4.73,2.35-.01-1.09.2-2.99-.64-3.82ZM37.35,38.51c-.27-.27-1.33-.65-1.73-.65-2.45,0-2.53,2.61-2.37,4.48,1.16-.04,3.22.25,4.1-.64.77-.77.76-2.42,0-3.19ZM28.24,46.79h-2.79l1.12,19.5.56-.41,1.12-19.09ZM35.76,71.3h-17.83v5.43c0,4.2,5.04,8.02,9.05,7.96s8.78-3.87,8.78-7.96v-5.43Z"/>
      <rect class="cls-1" x="3.42" y="7.43" width="4.52" height="9.64" transform="translate(-7 7.61) rotate(-45)"/>
      <rect class="cls-1" x="43.2" y="9.99" width="9.64" height="4.52" transform="translate(5.4 37.54) rotate(-45)"/>
      <rect class="cls-1" x="74.72" y="7.43" width="4.52" height="9.64" transform="translate(13.88 58.03) rotate(-45)"/>
      <path class="cls-1" d="M120.91,7.55c.65-.17,3.29,2.46,3.12,3.12l-6.52,6.6-3.2-3.2,6.6-6.52Z"/>
      <rect class="cls-1" x="24.62" width="4.46" height="8.91"/>
      <rect class="cls-1" x="95.92" width="4.46" height="8.91"/>
    </g>
  </g>
</svg>