<svg width="26" height="26" viewBox="0 0 26 26" fill="none" xmlns="http://www.w3.org/2000/svg">
<g clip-path="url(#clip0_81_96)">
<path d="M8.125 4.87698V6.50198H23.5625V9.71872L21.7598 15.4395H7.61373L5.58248 0.8125H0.8125V2.4375H4.16752L6.19877 17.0645H22.9515L25.1875 9.96867V4.87698H8.125Z" fill="#5A1F06"/>
<path d="M8.98755 18.7051C8.1259 18.7061 7.29982 19.0488 6.69054 19.6581C6.08125 20.2673 5.73853 21.0934 5.73755 21.9551C5.73755 22.817 6.07996 23.6437 6.68945 24.2532C7.29895 24.8627 8.1256 25.2051 8.98755 25.2051C9.8495 25.2051 10.6762 24.8627 11.2856 24.2532C11.8951 23.6437 12.2375 22.817 12.2375 21.9551C12.2366 21.0934 11.8939 20.2673 11.2846 19.658C10.6753 19.0488 9.84921 18.706 8.98755 18.7051ZM8.98755 23.5801C8.66615 23.5801 8.35198 23.4848 8.08475 23.3062C7.81752 23.1277 7.60924 22.8739 7.48624 22.5769C7.36325 22.28 7.33107 21.9533 7.39377 21.6381C7.45647 21.3228 7.61124 21.0333 7.8385 20.806C8.06576 20.5788 8.35531 20.424 8.67053 20.3613C8.98575 20.2986 9.31248 20.3308 9.60941 20.4538C9.90634 20.5768 10.1601 20.785 10.3387 21.0523C10.5172 21.3195 10.6125 21.6337 10.6125 21.9551C10.612 22.3859 10.4407 22.7989 10.136 23.1036C9.8314 23.4082 9.41837 23.5796 8.98755 23.5801Z" fill="#5A1F06"/>
<path d="M20.3625 18.7051C19.5009 18.7061 18.6748 19.0488 18.0655 19.6581C17.4563 20.2673 17.1135 21.0934 17.1125 21.9551C17.1125 22.817 17.455 23.6437 18.0645 24.2532C18.6739 24.8627 19.5006 25.2051 20.3625 25.2051C21.2245 25.2051 22.0512 24.8627 22.6606 24.2532C23.2701 23.6437 23.6125 22.817 23.6125 21.9551C23.6116 21.0934 23.2689 20.2673 22.6596 19.658C22.0503 19.0488 21.2242 18.706 20.3625 18.7051ZM20.3625 23.5801C20.0412 23.5801 19.727 23.4848 19.4597 23.3062C19.1925 23.1277 18.9842 22.8739 18.8612 22.5769C18.7383 22.28 18.7061 21.9533 18.7688 21.6381C18.8315 21.3228 18.9862 21.0333 19.2135 20.806C19.4408 20.5788 19.7303 20.424 20.0455 20.3613C20.3607 20.2986 20.6875 20.3308 20.9844 20.4538C21.2813 20.5768 21.5351 20.785 21.7137 21.0523C21.8922 21.3195 21.9875 21.6337 21.9875 21.9551C21.987 22.3859 21.8157 22.7989 21.511 23.1036C21.2064 23.4082 20.7934 23.5796 20.3625 23.5801Z" fill="#5A1F06"/>
</g>
<defs>
<clipPath id="clip0_81_96">
<rect width="26" height="26" fill="white"/>
</clipPath>
</defs>
</svg>
