<svg width="65" height="26" viewBox="0 0 65 26" fill="none" xmlns="http://www.w3.org/2000/svg">
<path d="M13.68 0.447999L21.816 18.52C22.368 19.648 22.8 20.512 23.112 21.112C23.424 21.688 23.712 22.072 23.976 22.264C24.264 22.456 24.576 22.576 24.912 22.624C25.008 22.936 25.08 23.308 25.128 23.74C25.176 24.148 25.2 24.604 25.2 25.108C24.768 25.06 24.216 25.024 23.544 25C22.872 25 22.2 25 21.528 25C20.856 25 20.328 25 19.944 25C19.656 25 19.248 25 18.72 25C18.216 25 17.664 25 17.064 25C16.488 25.024 15.936 25.036 15.408 25.036C14.88 25.06 14.472 25.084 14.184 25.108C14.184 24.532 14.208 24.052 14.256 23.668C14.304 23.284 14.376 22.936 14.472 22.624C15.312 22.456 15.804 22.18 15.948 21.796C16.116 21.388 16.008 20.74 15.624 19.852L12.384 12.472C11.832 11.2 11.376 10.024 11.016 8.944C10.68 7.84 10.392 6.76 10.152 5.704H11.196C10.908 6.784 10.584 7.876 10.224 8.98C9.888 10.084 9.468 11.236 8.964 12.436L6.228 19.564C5.916 20.332 5.856 21.004 6.048 21.58C6.24 22.156 6.744 22.504 7.56 22.624C7.656 22.96 7.728 23.332 7.776 23.74C7.824 24.148 7.848 24.604 7.848 25.108C7.584 25.084 7.212 25.06 6.732 25.036C6.252 25.036 5.748 25.024 5.22 25C4.716 25 4.26 25 3.852 25C3.252 25 2.628 25 1.98 25C1.356 25.024 0.864 25.06 0.504 25.108C0.504 24.628 0.528 24.196 0.576 23.812C0.624 23.428 0.708 23.032 0.828 22.624C1.236 22.552 1.584 22.408 1.872 22.192C2.16 21.952 2.436 21.58 2.7 21.076C2.988 20.572 3.324 19.852 3.708 18.916L11.304 0.627998C11.712 0.531998 12.084 0.483998 12.42 0.483998C12.78 0.459998 13.2 0.447999 13.68 0.447999ZM15.012 16.36L15.66 18.52C14.052 18.52 12.372 18.544 10.62 18.592C8.892 18.64 7.2 18.748 5.544 18.916L6.084 16.36H15.012ZM31.1352 25.324C30.0792 25.324 29.2512 25.024 28.6512 24.424C28.0512 23.8 27.7512 22.996 27.7512 22.012C27.7512 21.004 28.0872 20.212 28.7592 19.636C29.4552 19.036 30.3192 18.736 31.3512 18.736C32.3352 18.736 33.1152 19.06 33.6912 19.708C34.2912 20.356 34.5912 21.064 34.5912 21.832C34.5912 22.816 34.2792 23.644 33.6552 24.316C33.0312 24.988 32.1912 25.324 31.1352 25.324ZM37.9648 25.108C37.9648 24.532 37.9768 24.052 38.0008 23.668C38.0248 23.26 38.0848 22.912 38.1808 22.624C38.8288 22.576 39.3208 22.456 39.6568 22.264C40.0168 22.048 40.2688 21.676 40.4128 21.148C40.5568 20.62 40.6288 19.84 40.6288 18.808V6.784C40.6288 5.776 40.5688 5.02 40.4488 4.516C40.3288 4.012 40.0888 3.664 39.7288 3.472C39.3928 3.256 38.9008 3.112 38.2528 3.04C38.1568 2.728 38.0848 2.368 38.0368 1.96C37.9888 1.528 37.9648 1.06 37.9648 0.555999C38.4928 0.579999 39.1288 0.603999 39.8728 0.627998C40.6408 0.627998 41.4568 0.639998 42.3208 0.663998C43.1848 0.663998 44.0128 0.663998 44.8048 0.663998C45.5968 0.663998 46.2808 0.663998 46.8568 0.663998V18.376C46.8568 19.408 46.9648 20.224 47.1808 20.824C47.4208 21.4 47.8048 21.832 48.3328 22.12C48.8848 22.384 49.6288 22.552 50.5648 22.624C50.7088 22.96 50.7928 23.356 50.8168 23.812C50.8408 24.244 50.8528 24.676 50.8528 25.108C50.4208 25.084 49.8448 25.06 49.1248 25.036C48.4288 25.036 47.6848 25.024 46.8928 25C46.1008 25 45.3448 25 44.6248 25C43.4488 25 42.2248 25 40.9528 25C39.7048 25.024 38.7088 25.06 37.9648 25.108ZM54.3088 18.124C53.7328 18.124 53.2168 18.112 52.7608 18.088C52.3288 18.04 51.9328 17.944 51.5728 17.8C51.4768 16.768 51.2008 16.072 50.7448 15.712C50.2888 15.352 49.4728 15.172 48.2968 15.172H46.1008V12.76H48.2968C49.5688 12.76 50.4088 12.568 50.8168 12.184C51.2488 11.8 51.4768 11.116 51.5008 10.132C51.8848 9.964 52.3288 9.856 52.8328 9.808C53.3368 9.76 53.8288 9.736 54.3088 9.736C54.2848 10.312 54.2488 10.936 54.2008 11.608C54.1768 12.28 54.1648 13.036 54.1648 13.876C54.1648 14.788 54.1768 15.592 54.2008 16.288C54.2488 16.96 54.2848 17.572 54.3088 18.124ZM54.4528 7.36C54.3328 6.544 54.1048 5.812 53.7688 5.164C53.4568 4.492 52.9408 3.976 52.2208 3.616C51.5248 3.232 50.5288 3.04 49.2328 3.04H45.4168L46.5328 0.663998C48.4528 0.663998 50.0608 0.663998 51.3568 0.663998C52.6528 0.639998 53.7328 0.627998 54.5968 0.627998C55.4848 0.603999 56.2288 0.579999 56.8288 0.555999C56.8528 1.132 56.8888 1.804 56.9368 2.572C57.0088 3.34 57.0928 4.096 57.1888 4.84C57.3088 5.56 57.4408 6.208 57.5848 6.784C57.1768 6.952 56.7328 7.096 56.2528 7.216C55.7728 7.312 55.1728 7.36 54.4528 7.36ZM60.561 25.324C59.505 25.324 58.677 25.024 58.077 24.424C57.477 23.8 57.177 22.996 57.177 22.012C57.177 21.004 57.513 20.212 58.185 19.636C58.881 19.036 59.745 18.736 60.777 18.736C61.761 18.736 62.541 19.06 63.117 19.708C63.717 20.356 64.017 21.064 64.017 21.832C64.017 22.816 63.705 23.644 63.081 24.316C62.457 24.988 61.617 25.324 60.561 25.324Z" fill="#5A1F06"/>
</svg>
