<svg width="86" height="86" viewBox="0 0 86 86" fill="none" xmlns="http://www.w3.org/2000/svg">
<circle cx="43" cy="43" r="43" fill="white"/>
<g clip-path="url(#clip0_478_2250)">
<path d="M57.7857 32.8393C57.7857 42.7835 47.3441 49.9638 44.519 51.7246C44.0619 52.0095 43.5386 52.1429 43 52.1429C42.4614 52.1429 41.9381 52.0095 41.481 51.7246C38.6559 49.9638 28.2143 42.7835 28.2143 32.8393C28.2143 24.6734 34.8341 18.0536 43 18.0536C51.1659 18.0536 57.7857 24.6734 57.7857 32.8393Z" fill="#FF7972"/>
<path fill-rule="evenodd" clip-rule="evenodd" d="M43 20.1071C35.9682 20.1071 30.2679 25.8075 30.2679 32.8393C30.2679 37.0798 32.5029 40.8856 35.3074 43.969C38.0921 47.0306 41.2329 49.1502 42.5672 49.9818C42.6635 50.0416 42.802 50.0893 43 50.0893C43.198 50.0893 43.3365 50.0416 43.4328 49.9818C44.7671 49.1502 47.9079 47.0306 50.6926 43.969C53.4972 40.8856 55.7321 37.0798 55.7321 32.8393C55.7321 25.8075 50.0318 20.1071 43 20.1071ZM26.1607 32.8393C26.1607 23.5392 33.6999 16 43 16C52.3001 16 59.8393 23.5392 59.8393 32.8393C59.8393 38.5431 56.8536 43.2995 53.7308 46.7325C50.5886 50.1872 47.0961 52.5381 45.6052 53.4673C44.7873 53.9773 43.8793 54.1964 43 54.1964C42.1207 54.1964 41.2127 53.9773 40.3948 53.4673C38.9039 52.5381 35.4114 50.1872 32.2691 46.7325C29.1465 43.2995 26.1607 38.5431 26.1607 32.8393ZM27.5297 46.8036C28.1881 47.6783 28.8662 48.4848 29.5346 49.2196C32.9987 53.0284 36.8078 55.5873 38.4397 56.6045C39.907 57.5189 41.5075 57.8929 43 57.8929C44.4925 57.8929 46.093 57.5189 47.5603 56.6045C49.1922 55.5873 53.0014 53.0284 56.4655 49.2196C57.1338 48.4848 57.812 47.6783 58.4701 46.8036H60.25C61.1339 46.8036 61.9188 47.3692 62.1981 48.2078L65.8945 59.2972C66.1035 59.9234 65.9984 60.6118 65.6123 61.147C65.2265 61.6826 64.6065 62 63.9464 62H22.0536C21.3935 62 20.7736 61.6826 20.3876 61.147C20.0017 60.6118 19.8967 59.9234 20.1054 59.2972L23.8018 48.2078C24.0814 47.3692 24.8661 46.8036 25.75 46.8036H27.5297ZM43 37.3571C46.1756 37.3571 48.75 34.7828 48.75 31.6071C48.75 28.4315 46.1756 25.8571 43 25.8571C39.8244 25.8571 37.25 28.4315 37.25 31.6071C37.25 34.7828 39.8244 37.3571 43 37.3571Z" fill="#5A1F06"/>
</g>
<defs>
<clipPath id="clip0_478_2250">
<rect width="46" height="46" fill="white" transform="translate(20 16)"/>
</clipPath>
</defs>
</svg>
