<svg width="239" height="186" viewBox="0 0 239 186" fill="none" xmlns="http://www.w3.org/2000/svg">
<circle cx="120" cy="93" r="93" fill="#D70200"/>
<path d="M73.0956 97.7287C73.4738 94.8485 75.02 92.6643 76.7482 90.593C78.0673 89.012 79.4547 87.4805 81.1007 86.2251C81.9482 85.5787 82.2076 84.8362 81.9769 83.7968C81.6929 82.5178 82.0313 81.1599 81.5306 79.7607C80.9537 80.4019 80.7134 81.1392 80.3628 81.8035C77.0991 87.9874 72.2063 92.3081 65.5665 94.5697C62.3198 95.6756 58.9917 95.809 55.7111 94.716C50.8302 93.09 47.6352 88.7216 47.3151 83.3341C46.4639 69.0075 52.5388 58.1431 64.1335 50.1102C69.6743 46.2714 75.8215 43.8104 82.4882 42.7614C86.6644 42.1043 90.8576 41.9533 94.9145 43.4981C100.082 45.4658 102.242 49.8679 100.528 55.0811C100.162 56.1935 100.352 56.6481 101.435 57.0521C104.895 58.3428 108.306 59.7618 112.078 59.8857C114.845 59.9765 116.626 58.5016 117.809 56.2227C118.974 53.9771 118.663 51.7984 117.113 49.8014C116.457 48.9552 116.534 48.5131 117.592 48.2067C120.782 47.2828 123.853 47.6251 126.621 49.4976C128.271 50.6138 128.754 52.334 128.305 54.2383C127.352 58.2858 124.547 60.6988 120.841 62.0812C114.84 64.3195 108.94 63.7797 103.201 61.0321C102.079 60.495 100.93 60.015 99.8135 59.4674C99.1559 59.1448 98.7502 59.2065 98.2583 59.8456C95.0637 63.9965 90.6248 65.9239 85.5957 66.7541C84.3564 66.9587 83.119 66.9719 81.8862 66.7322C79.5988 66.2875 77.9259 65.0585 77.3314 62.7536C76.7709 60.5801 77.5922 58.7735 79.2827 57.3814C81.6145 55.4612 84.4288 54.9036 87.342 54.7461C89.9529 54.605 92.5529 54.8042 95.111 55.3491C96.0943 55.5586 96.5365 55.2153 96.7927 54.2939C97.7807 50.7401 96.1785 47.9528 92.4736 46.9421C88.8298 45.9481 85.2825 46.586 81.8392 47.8228C73.5993 50.7824 67.5608 56.3463 63.3467 63.903C59.7275 70.393 57.4482 77.3155 57.3352 84.8189C57.306 86.7547 57.5114 88.6999 58.4137 90.4789C59.3449 92.3146 60.7231 92.9741 62.7304 92.5656C67.8199 91.53 71.6412 88.4821 74.9942 84.7523C77.8069 81.6235 79.9697 78.1093 80.9714 73.964C81.1738 73.1266 81.8239 72.9062 82.5941 72.9904C83.3517 73.0732 83.603 73.5673 83.6324 74.2885C83.7506 77.1941 83.8979 80.0984 84.0394 83.0029C84.0487 83.1922 84.0999 83.3794 84.1266 83.5384C84.5297 83.7687 84.7538 83.4836 85.0004 83.3292C85.6591 82.917 86.282 82.441 86.9647 82.0753C88.6684 81.1627 89.9971 79.9891 91.0189 78.2501C92.8842 75.0754 97.4881 73.6759 100.999 74.9109C102.518 75.4455 102.55 76.0169 101.066 77.6852C102.464 77.6592 103.668 78.5694 105.078 78.046C105.663 77.8291 106.133 77.5931 106.364 76.99C107.718 73.4593 113.611 70.7754 118.029 72.0438C118.326 72.129 118.619 72.2455 118.894 72.3871C119.278 72.5855 119.681 72.8238 119.62 73.3353C119.561 73.8266 119.149 74.0415 118.726 74.1457C118.204 74.2748 117.644 74.2869 117.193 74.8322C118.798 75.6278 120.358 75.7396 121.965 75.0107C122.294 74.8615 122.578 74.6702 122.721 74.3247C123.989 71.2665 126.611 70.1941 129.592 69.6064C130.75 69.3781 131.917 69.2848 133.069 69.4289C133.948 69.5389 134.223 69.2096 134.378 68.4323C135.087 64.8865 136.011 61.4029 137.677 58.1637C139.288 55.0336 141.338 52.2149 143.833 49.73C145.066 48.5024 146.589 47.8508 148.335 47.8087C148.911 47.7948 149.536 47.8663 149.889 48.4283C150.268 49.0298 149.757 49.4415 149.491 49.8894C145.537 56.5404 142.427 63.5321 140.948 71.1687C140.601 72.9577 140.423 74.7641 140.748 76.6004C141.386 80.1987 144.715 82.0011 148.137 80.5504C151.623 79.0722 154.06 74.3713 153.201 70.7058C152.988 69.7988 152.647 68.9767 151.662 68.5111C150.674 68.0437 150.722 67.3357 151.737 66.8447C153.444 66.0193 155.26 65.8599 157.08 66.336C158.63 66.7416 159.567 68.2154 159.719 70.0802C159.858 71.7734 159.359 73.2956 158.605 74.7699C155.439 80.967 147.447 84.2777 140.798 82.1613C137.835 81.2182 135.784 79.2888 134.526 76.4252C133.993 76.6245 133.847 77.0953 133.597 77.4552C132.41 79.1638 130.935 80.476 128.863 81.0159C126.262 81.6933 123.91 80.5304 122.906 78.0277C122.677 77.4586 122.517 76.862 122.302 76.2043C121.206 76.3862 120.142 76.5966 119.055 76.5638C118.478 76.5464 118.42 77.0363 118.283 77.4338C117.664 79.2383 116.887 80.9503 115.808 82.5495C113.702 85.6724 109.625 85.4304 107.408 83.9072C106.163 83.0518 105.556 81.8219 105.656 80.3101C105.72 79.3405 105.459 78.9308 104.41 79.2147C103.945 79.3404 103.418 79.2359 102.844 79.2359C102.525 80.6453 102.368 82.0708 101.794 83.3988C100.249 86.9715 97.3703 88.5321 93.7653 87.6967C91.6732 87.2119 90.3449 85.9539 89.8309 83.8585C89.7229 83.4183 89.7348 82.9364 89.3415 82.4727C87.5641 83.5027 85.9133 84.7086 84.3301 86.0078C83.9591 86.3123 84.0989 86.8065 84.0856 87.2233C83.9959 90.0299 83.6271 92.7923 82.6563 95.4396C81.9523 97.3592 80.965 99.1098 79.232 100.321C78.9147 100.543 78.5846 100.754 78.2391 100.927C75.9566 102.073 72.9488 101.417 73.0956 97.7287ZM80.1517 62.9272C81.0364 64.7811 82.5474 65.5319 84.8996 65.17C87.9807 64.696 90.6998 63.4062 92.9416 61.237C93.9302 60.2805 94.9022 59.2576 95.3206 57.831C94.3581 57.2424 93.3214 57.0615 92.3072 56.8443C89.3489 56.211 86.3784 55.9333 83.4539 56.9774C80.9109 57.8852 79.5319 60.3293 80.1517 62.9272ZM75.1848 98.2344C75.2059 98.9688 75.1093 99.794 75.9211 100.175C76.7742 100.575 77.4153 99.9413 78.0053 99.4847C79.1324 98.6122 79.86 97.4039 80.4848 96.1477C81.7286 93.6472 82.3489 91.0208 82.0887 88.208C81.529 88.1591 81.2943 88.5102 81.0251 88.7628C79.7771 89.9342 78.6335 91.2039 77.6382 92.5951C76.4613 94.2403 75.3231 95.9137 75.1848 98.2344ZM99.2683 83.3951C100.041 81.8607 100.486 80.248 100.415 78.5022C98.9047 80.5958 97.9357 82.9035 97.2979 85.6693C98.4046 85.0619 98.746 84.2642 99.2683 83.3951ZM114.704 80.1665C115.593 78.7567 116.169 77.2333 116.472 75.363C114.771 77.3108 113.816 79.3605 113.251 81.7942C113.915 81.3205 114.274 80.8229 114.704 80.1665ZM132.393 73.6147C131.56 74.9002 130.87 76.2512 130.329 78.0077C131.823 76.2301 133.22 74.7539 134.029 72.6728C133.119 72.6855 132.867 73.1741 132.393 73.6147Z" fill="#DBDEE2"/>
<path d="M156.825 137.099C158.391 131.218 161.773 126.511 165.632 122.084C165.887 121.792 166.165 121.519 166.436 121.24C168.578 119.041 168.586 119.036 166.77 116.468C166.306 115.812 165.888 115.104 165.124 114.522C164.32 115.526 163.579 116.504 162.784 117.435C158.159 122.847 151.591 123.671 145.997 121.064C143.41 119.857 142.408 117.633 142.944 114.813C143.839 110.094 146.952 107.065 151.638 106.327C152.949 106.12 154.201 106.331 155.409 106.807C157.533 107.646 158.394 109.393 157.719 111.595C156.928 114.175 154.977 115.581 152.518 116.326C151.545 116.621 150.899 116.921 151.077 118.113C151.264 119.36 151.836 120.07 153.015 120.227C154.331 120.402 155.582 120.153 156.741 119.539C159.333 118.167 161.409 116.218 163.092 113.826C163.58 113.132 163.638 112.533 163.118 111.822C162.358 110.781 161.82 109.612 161.463 108.372C160.283 104.287 161.947 99.5577 165.722 96.6343C169.972 93.3425 174.876 92.1049 180.184 92.5284C183.107 92.7618 184.877 94.3305 185.234 96.8422C185.522 98.8697 184.8 100.646 183.219 101.903C181.817 103.018 180.163 103.748 178.381 104.119C177.919 104.215 177.458 104.246 176.991 104.167C175.55 103.924 175.244 103.409 175.879 102.108C176.627 100.572 177.391 99.0439 177.971 97.4355C178.149 96.9413 178.391 96.4447 178.343 95.8735C173.751 97.9415 171.925 102.465 173.641 107.456C174.29 109.342 175.297 111.044 176.316 112.745C176.716 113.413 177.129 113.254 177.674 113.006C180.651 111.649 183.742 110.9 187.056 111.087C190.99 111.308 194.432 113.96 195.055 117.388C195.361 119.073 194.672 120.713 193.179 121.574C191.55 122.514 189.794 122.692 188.005 122.085C186.751 121.659 186.508 120.824 187.301 119.75C187.963 118.856 188.381 117.88 188.577 116.789C188.984 114.529 187.877 112.898 185.616 112.678C182.833 112.407 180.351 113.468 177.933 114.669C177.24 115.013 177.688 115.544 177.868 115.975C178.776 118.16 179.776 120.323 180.114 122.687C181.252 130.638 179.184 137.485 172.807 142.657C169.619 145.242 165.872 146.253 161.757 145.529C157.821 144.836 155.95 142.154 156.621 138.227C156.68 137.883 156.743 137.54 156.825 137.099ZM170.302 138.234C172.758 132.322 171.497 126.682 169.219 121.039C168.414 121.322 168.057 121.853 167.648 122.299C166.284 123.787 164.987 125.335 163.859 127.01C161.661 130.275 159.753 133.668 159.097 137.635C158.43 141.674 160.662 144.435 164.291 143.959C165.444 143.808 166.424 143.27 167.305 142.539C168.652 141.421 169.535 139.973 170.302 138.234ZM153.284 109.224C151.991 110.379 151.041 113.594 151.594 114.998C152.359 114.857 152.892 114.351 153.372 113.805C154.567 112.446 154.586 110.327 153.284 109.224Z" fill="#DBDEE2"/>
<path d="M101.886 132.966C105.196 124.879 106.395 116.544 105.856 107.941C105.801 107.055 105.522 106.184 105.467 105.299C105.399 104.207 104.806 103.882 103.815 103.778C101.475 103.532 99.393 102.578 97.5467 101.16C95.0691 99.256 95.4663 95.4196 98.3101 94.1289C101.384 92.7337 105.323 93.2933 107.145 97.244C107.663 98.3658 108.074 99.5363 108.559 100.746C109.628 100.651 110.45 100.047 111.26 99.4917C113.585 97.8998 115.116 95.8033 115.252 92.8795C115.32 91.4451 114.876 90.2362 113.842 89.2013C112.646 88.0049 112.848 87.1435 114.39 86.4893C116.585 85.5586 118.791 86.1797 120.768 88.2848C122.32 89.9374 122.64 92.0437 121.587 94.0921C120.224 96.7428 117.938 98.4916 115.526 100.088C113.905 101.161 112.207 102.124 110.366 102.769C109.583 103.044 109.402 103.421 109.509 104.223C110.988 115.204 108.662 125.583 104.366 135.617C102.993 138.825 101.047 141.693 98.2501 143.866C91.8978 148.802 82.5185 147.061 77.9138 140.15C75.8752 137.09 74.8313 133.673 74.6776 130.074C74.2595 120.285 76.7076 111.327 82.9651 103.596C84.1658 102.112 85.5221 100.769 87.1801 99.784C87.7774 99.4291 88.4135 99.1158 89.0681 98.8862C89.9307 98.5837 90.9066 98.4173 91.6049 99.1166C92.2873 99.7998 91.8283 100.684 91.5238 101.409C89.324 106.643 87.5322 112.013 86.3612 117.564C85.096 123.561 84.7157 129.625 85.7549 135.706C86.1702 138.136 86.9969 140.438 88.6685 142.338C90.1248 143.994 91.287 144.274 93.3138 143.409C96.3243 142.124 98.2453 139.698 99.8427 136.987C100.589 135.719 101.186 134.363 101.886 132.966ZM101.673 100.667C102.559 101.157 103.404 101.769 104.614 101.714C104.048 99.6821 103.317 97.864 102.021 96.3297C101.137 95.2826 100.402 95.4529 99.9083 96.7482C99.3776 98.1404 99.8736 99.3095 101.673 100.667Z" fill="#DBDEE2"/>
<path d="M138.537 114.896C135.975 116.05 134.697 118.179 133.75 120.583C133.693 120.727 133.637 120.872 133.575 121.014C133.132 122.043 133.161 123.417 131.71 123.729C130.133 124.069 128.617 123.958 127.279 122.921C127.069 122.758 126.834 122.627 126.53 122.43C125.303 123.846 123.911 124.999 122.014 125.314C120.101 125.633 118.216 125.54 116.403 124.799C114.436 123.995 113.308 122.142 113.381 119.744C113.442 117.751 114.101 115.95 115.361 114.384C115.783 113.86 116.302 113.465 116.923 113.2C119.366 112.153 121.075 113.34 120.832 115.983C120.665 117.793 120.37 119.592 120.122 121.395C120.026 122.098 119.897 122.826 120.55 123.329C121.254 123.871 121.955 123.543 122.616 123.178C122.921 123.01 123.212 122.811 123.49 122.6C125.526 121.057 125.525 121.055 124.89 118.618C123.968 115.078 124.579 111.602 125.453 108.173C127.078 101.797 130.353 96.4736 135.806 92.6215C137.408 91.4902 139.159 90.6674 141.093 90.2646C141.902 90.0959 142.713 90.0614 143.515 90.2989C144.611 90.6237 144.792 91.0801 144.081 91.951C143.222 93.0022 142.279 93.9844 141.398 95.0184C139.079 97.7413 137.372 100.821 136.239 104.2C135.055 107.732 134.101 111.328 133.621 115.033C133.592 115.256 133.617 115.486 133.617 115.869C134.801 115.06 135.817 114.229 137.053 113.755C138.877 113.056 140.652 113.262 141.482 114.326C142.274 115.342 142.036 117.04 140.824 118.622C139.66 120.14 138.037 120.807 136.174 120.922C135.807 120.945 135.407 120.799 135.057 120.65C134.707 120.502 134.513 120.179 134.669 119.79C134.811 119.44 135.143 119.447 135.467 119.487C137.673 119.762 139.583 117.823 139.281 115.614C139.228 115.22 139.176 114.813 138.537 114.896Z" fill="#DBDEE2"/>
<path d="M115.939 107.864C115.432 105.483 116.21 104.02 118.417 103.249C119.955 102.712 121.538 102.607 123.082 103.24C124.417 103.787 124.741 104.896 123.866 106.042C123.092 107.056 122.258 108.036 121.36 108.941C119.846 110.469 116.897 109.903 115.939 107.864Z" fill="#DBDEE2"/>
</svg>
