<svg width="265" height="250" viewBox="0 0 265 250" fill="none" xmlns="http://www.w3.org/2000/svg">
<circle cx="132" cy="114" r="114" fill="#FFD8FC"/>
<path d="M67.936 122.288C67.5307 122.139 67.2427 121.915 67.072 121.616C66.9013 121.317 66.816 120.923 66.816 120.432C66.816 120.155 66.848 119.824 66.912 119.44C66.976 119.035 67.072 118.651 67.2 118.288L67.328 118.16C67.136 118.821 66.8907 119.397 66.592 119.888C66.2933 120.357 65.9413 120.752 65.536 121.072C65.088 121.456 64.544 121.744 63.904 121.936C63.264 122.128 62.528 122.224 61.696 122.224C60.224 122.224 59.072 121.915 58.24 121.296C57.408 120.677 56.992 119.771 56.992 118.576C56.992 117.765 57.1733 117.072 57.536 116.496C57.92 115.899 58.432 115.397 59.072 114.992C59.7333 114.565 60.4587 114.224 61.248 113.968C62.0587 113.712 62.8907 113.509 63.744 113.36C64.6187 113.189 65.472 113.04 66.304 112.912C66.304 112.4 66.2827 111.952 66.24 111.568C66.2187 111.184 66.1547 110.853 66.048 110.576C65.9627 110.277 65.8133 110.021 65.6 109.808C65.3653 109.531 65.088 109.339 64.768 109.232C64.4693 109.125 64.1707 109.072 63.872 109.072C63.3387 109.072 62.9013 109.232 62.56 109.552C62.2187 109.872 61.9627 110.309 61.792 110.864C61.6213 111.397 61.504 111.984 61.44 112.624C60.8213 112.624 60.2667 112.603 59.776 112.56C59.2853 112.517 58.8373 112.411 58.432 112.24C58.4747 111.643 58.4853 111.013 58.464 110.352C58.4427 109.691 58.3573 108.997 58.208 108.272C59.1253 107.888 60.2027 107.589 61.44 107.376C62.6773 107.141 63.8613 107.024 64.992 107.024C66.4 107.024 67.5093 107.184 68.32 107.504C69.1307 107.803 69.7387 108.155 70.144 108.56C70.5707 108.987 70.912 109.595 71.168 110.384C71.4453 111.152 71.584 112.293 71.584 113.808V116.272C71.584 116.997 71.6267 117.552 71.712 117.936C71.7973 118.32 71.968 118.587 72.224 118.736C72.5013 118.864 72.896 118.939 73.408 118.96C73.472 119.365 73.4827 119.76 73.44 120.144C73.3973 120.528 73.2907 120.891 73.12 121.232C72.2453 121.253 71.36 121.349 70.464 121.52C69.568 121.691 68.7253 121.947 67.936 122.288ZM63.584 119.184C64.0107 119.184 64.4267 119.056 64.832 118.8C65.2587 118.523 65.6107 118.107 65.888 117.552C66.1653 116.997 66.304 116.315 66.304 115.504V114.768C65.6427 114.896 65.0453 115.045 64.512 115.216C64 115.387 63.5733 115.579 63.232 115.792C62.8907 116.005 62.6347 116.261 62.464 116.56C62.2933 116.859 62.208 117.211 62.208 117.616C62.208 118.171 62.336 118.576 62.592 118.832C62.8693 119.067 63.2 119.184 63.584 119.184ZM81.299 122.192C79.7417 122.192 78.5257 121.765 77.651 120.912C76.7977 120.037 76.371 118.491 76.371 116.272V112.912C76.371 111.952 76.2643 111.28 76.051 110.896C75.8377 110.512 75.2723 110.288 74.355 110.224C74.355 109.861 74.3763 109.499 74.419 109.136C74.483 108.752 74.5897 108.411 74.739 108.112C76.083 108.112 77.2777 108.005 78.323 107.792C79.3683 107.557 80.147 107.312 80.659 107.056C80.979 107.184 81.2243 107.397 81.395 107.696C81.5657 107.995 81.651 108.411 81.651 108.944V115.472C81.651 116.901 81.7897 117.893 82.067 118.448C82.3443 118.981 82.771 119.248 83.347 119.248C84.1363 119.248 84.819 118.843 85.395 118.032C85.971 117.221 86.259 115.973 86.259 114.288V112.752C86.259 111.792 86.1203 111.12 85.843 110.736C85.5657 110.352 84.9363 110.128 83.955 110.064C83.955 109.701 83.9763 109.339 84.019 108.976C84.0617 108.592 84.1577 108.251 84.307 107.952C85.6937 107.952 86.9523 107.867 88.083 107.696C89.2137 107.504 90.0243 107.291 90.515 107.056C90.835 107.184 91.0803 107.397 91.251 107.696C91.4217 107.995 91.507 108.411 91.507 108.944V117.712L86.931 118.864C86.7817 119.269 86.611 119.632 86.419 119.952C86.227 120.251 86.003 120.517 85.747 120.752C85.299 121.157 84.7017 121.499 83.955 121.776C83.2083 122.053 82.323 122.192 81.299 122.192ZM87.827 122.288C87.4217 122.139 87.1337 121.925 86.963 121.648C86.7923 121.349 86.707 120.955 86.707 120.464C86.707 120.08 86.7497 119.653 86.835 119.184C86.9417 118.715 87.0483 118.299 87.155 117.936L91.507 116.208C91.507 116.955 91.5497 117.531 91.635 117.936C91.7203 118.32 91.891 118.587 92.147 118.736C92.4243 118.864 92.8297 118.939 93.363 118.96C93.427 119.365 93.4377 119.76 93.395 120.144C93.3523 120.528 93.235 120.891 93.043 121.232C92.1897 121.253 91.3043 121.349 90.387 121.52C89.4697 121.691 88.6163 121.947 87.827 122.288ZM101.487 122.288C99.9086 122.288 98.7139 121.883 97.9033 121.072C97.0926 120.24 96.6873 118.843 96.6873 116.88V110.288C96.3459 110.16 95.9833 110.064 95.5993 110C95.2366 109.936 94.8099 109.904 94.3193 109.904C94.3193 109.477 94.3406 109.093 94.3833 108.752C94.4473 108.389 94.5646 108.027 94.7353 107.664H96.6873V103.856C97.5193 103.749 98.3299 103.536 99.1193 103.216C99.9299 102.896 100.581 102.544 101.071 102.16C101.413 102.288 101.647 102.491 101.775 102.768C101.903 103.045 101.967 103.536 101.967 104.24V107.664H105.807C105.807 108.133 105.775 108.549 105.711 108.912C105.669 109.253 105.594 109.595 105.487 109.936C104.805 109.936 104.165 109.989 103.567 110.096C102.991 110.181 102.458 110.309 101.967 110.48V116.4C101.967 117.317 102.021 118.021 102.127 118.512C102.234 118.981 102.405 119.312 102.639 119.504C102.874 119.675 103.173 119.76 103.535 119.76C103.855 119.76 104.175 119.728 104.495 119.664C104.837 119.579 105.157 119.461 105.455 119.312C105.754 119.739 105.914 120.336 105.935 121.104C105.487 121.445 104.847 121.733 104.015 121.968C103.205 122.181 102.362 122.288 101.487 122.288ZM115.624 122.288C113.832 122.288 112.317 121.989 111.08 121.392C109.864 120.773 108.946 119.909 108.328 118.8C107.709 117.691 107.4 116.389 107.4 114.896C107.4 113.168 107.762 111.728 108.488 110.576C109.234 109.403 110.248 108.528 111.528 107.952C112.808 107.355 114.248 107.056 115.848 107.056C117.682 107.056 119.208 107.376 120.424 108.016C121.661 108.656 122.589 109.531 123.208 110.64C123.826 111.749 124.136 113.029 124.136 114.48C124.136 116.08 123.794 117.467 123.112 118.64C122.429 119.813 121.448 120.72 120.168 121.36C118.888 121.979 117.373 122.288 115.624 122.288ZM116.136 120.048C117.01 120.048 117.672 119.6 118.12 118.704C118.568 117.808 118.792 116.699 118.792 115.376C118.792 113.989 118.632 112.837 118.312 111.92C117.992 111.003 117.576 110.32 117.064 109.872C116.552 109.403 115.997 109.168 115.4 109.168C114.482 109.168 113.81 109.616 113.384 110.512C112.957 111.408 112.744 112.507 112.744 113.808C112.744 114.981 112.872 116.048 113.128 117.008C113.384 117.947 113.768 118.693 114.28 119.248C114.792 119.781 115.41 120.048 116.136 120.048ZM128.362 115.376V112.912C128.362 112.251 128.319 111.739 128.234 111.376C128.148 111.013 127.935 110.747 127.594 110.576C127.274 110.384 126.762 110.267 126.058 110.224C126.058 109.861 126.079 109.499 126.122 109.136C126.186 108.752 126.292 108.411 126.442 108.112C127.786 108.112 129.023 108.005 130.154 107.792C131.306 107.557 132.138 107.312 132.65 107.056C132.97 107.184 133.215 107.397 133.385 107.696C133.556 107.995 133.642 108.411 133.642 108.944L128.362 115.376ZM144.074 117.104C144.074 118.171 144.18 118.907 144.394 119.312C144.607 119.696 145.002 119.888 145.578 119.888C145.706 120.187 145.78 120.517 145.802 120.88C145.844 121.221 145.866 121.627 145.866 122.096C145.396 122.075 144.756 122.053 143.946 122.032C143.156 122.011 142.399 122 141.674 122C141.183 122 140.618 122 139.978 122C139.338 122.021 138.73 122.032 138.154 122.032C137.578 122.053 137.13 122.075 136.81 122.096C136.81 121.691 136.82 121.307 136.842 120.944C136.884 120.56 136.97 120.208 137.098 119.888C137.631 119.888 138.047 119.675 138.346 119.248C138.644 118.8 138.794 118 138.794 116.848V113.968C138.794 112.667 138.602 111.771 138.218 111.28C137.834 110.768 137.279 110.512 136.554 110.512C136.042 110.512 135.562 110.715 135.114 111.12C134.666 111.525 134.303 112.101 134.026 112.848C133.77 113.595 133.642 114.501 133.642 115.568V117.104C133.642 118.192 133.78 118.928 134.058 119.312C134.335 119.696 134.751 119.888 135.306 119.888C135.455 120.229 135.54 120.571 135.562 120.912C135.604 121.253 135.626 121.648 135.626 122.096C135.306 122.075 134.879 122.053 134.345 122.032C133.812 122.032 133.247 122.021 132.65 122C132.052 122 131.508 122 131.018 122C130.527 122 129.951 122 129.29 122C128.628 122.021 127.988 122.032 127.37 122.032C126.772 122.053 126.314 122.075 125.993 122.096C125.993 121.648 126.015 121.232 126.058 120.848C126.122 120.464 126.196 120.144 126.282 119.888C127.114 119.888 127.668 119.696 127.946 119.312C128.223 118.907 128.362 118.171 128.362 117.104V112.912L133.642 108.944C133.642 109.2 133.61 109.499 133.546 109.84C133.482 110.16 133.396 110.501 133.29 110.864C133.439 110.523 133.588 110.203 133.738 109.904C133.908 109.605 134.111 109.328 134.345 109.072C134.815 108.56 135.423 108.123 136.17 107.76C136.938 107.397 137.791 107.216 138.73 107.216C139.668 107.216 140.543 107.387 141.354 107.728C142.164 108.069 142.815 108.624 143.306 109.392C143.818 110.16 144.074 111.173 144.074 112.432V117.104ZM155.436 122.288C153.644 122.288 152.13 121.989 150.892 121.392C149.676 120.773 148.759 119.909 148.14 118.8C147.522 117.691 147.212 116.389 147.212 114.896C147.212 113.168 147.575 111.728 148.3 110.576C149.047 109.403 150.06 108.528 151.34 107.952C152.62 107.355 154.06 107.056 155.66 107.056C157.495 107.056 159.02 107.376 160.236 108.016C161.474 108.656 162.402 109.531 163.02 110.64C163.639 111.749 163.948 113.029 163.948 114.48C163.948 116.08 163.607 117.467 162.924 118.64C162.242 119.813 161.26 120.72 159.98 121.36C158.7 121.979 157.186 122.288 155.436 122.288ZM155.948 120.048C156.823 120.048 157.484 119.6 157.932 118.704C158.38 117.808 158.604 116.699 158.604 115.376C158.604 113.989 158.444 112.837 158.124 111.92C157.804 111.003 157.388 110.32 156.876 109.872C156.364 109.403 155.81 109.168 155.212 109.168C154.295 109.168 153.623 109.616 153.196 110.512C152.77 111.408 152.556 112.507 152.556 113.808C152.556 114.981 152.684 116.048 152.94 117.008C153.196 117.947 153.58 118.693 154.092 119.248C154.604 119.781 155.223 120.048 155.948 120.048ZM165.806 122.096C165.806 121.691 165.827 121.307 165.87 120.944C165.913 120.56 165.987 120.219 166.094 119.92C166.969 119.856 167.534 119.643 167.79 119.28C168.046 118.896 168.174 118.171 168.174 117.104V113.264C168.174 112.475 168.131 111.877 168.046 111.472C167.961 111.067 167.747 110.768 167.406 110.576C167.086 110.384 166.574 110.267 165.87 110.224C165.87 109.861 165.891 109.509 165.934 109.168C165.998 108.805 166.105 108.453 166.254 108.112C167.022 108.112 167.801 108.069 168.59 107.984C169.379 107.877 170.115 107.749 170.798 107.6C171.481 107.429 172.025 107.248 172.43 107.056C172.686 107.141 172.91 107.333 173.102 107.632C173.294 107.931 173.39 108.357 173.39 108.912C173.39 109.296 173.337 109.712 173.23 110.16C173.145 110.587 172.974 111.291 172.718 112.272H172.526C172.931 111.227 173.251 110.48 173.486 110.032C173.721 109.584 173.945 109.253 174.158 109.04C174.627 108.507 175.246 108.048 176.014 107.664C176.782 107.28 177.625 107.088 178.542 107.088C179.566 107.088 180.473 107.312 181.262 107.76C182.073 108.187 182.691 108.805 183.118 109.616C183.395 110.107 183.534 110.608 183.534 111.12H183.374C183.758 110.117 184.185 109.403 184.654 108.976C185.123 108.507 185.699 108.112 186.382 107.792C187.065 107.451 187.843 107.28 188.718 107.28C189.849 107.28 190.798 107.472 191.566 107.856C192.355 108.219 192.953 108.805 193.358 109.616C193.785 110.405 193.998 111.472 193.998 112.816V115.952C193.998 117.104 194.03 117.957 194.094 118.512C194.179 119.045 194.329 119.397 194.542 119.568C194.755 119.739 195.086 119.845 195.534 119.888C195.641 120.208 195.705 120.56 195.726 120.944C195.769 121.307 195.79 121.691 195.79 122.096C195.257 122.053 194.617 122.021 193.87 122C193.123 122 192.355 122 191.566 122C191.054 122 190.499 122 189.902 122C189.305 122.021 188.729 122.032 188.174 122.032C187.619 122.053 187.15 122.075 186.766 122.096C186.766 121.627 186.777 121.232 186.798 120.912C186.841 120.571 186.905 120.229 186.99 119.888C187.417 119.867 187.758 119.76 188.014 119.568C188.27 119.376 188.451 119.013 188.558 118.48C188.665 117.947 188.718 117.189 188.718 116.208V113.872C188.718 112.549 188.537 111.664 188.174 111.216C187.811 110.747 187.331 110.512 186.734 110.512C186.137 110.512 185.603 110.704 185.134 111.088C184.686 111.472 184.334 112.048 184.078 112.816C183.843 113.563 183.726 114.48 183.726 115.568V116.944C183.726 118.053 183.843 118.811 184.078 119.216C184.313 119.621 184.782 119.845 185.486 119.888C185.571 120.165 185.635 120.507 185.678 120.912C185.721 121.296 185.742 121.691 185.742 122.096C185.251 122.053 184.569 122.021 183.694 122C182.841 122 181.998 122 181.166 122C180.313 122 179.449 122 178.574 122C177.721 122.021 177.006 122.053 176.43 122.096C176.43 121.691 176.451 121.296 176.494 120.912C176.558 120.507 176.633 120.165 176.718 119.888C177.209 119.845 177.582 119.739 177.838 119.568C178.094 119.376 178.265 119.013 178.35 118.48C178.457 117.925 178.51 117.083 178.51 115.952V113.584C178.51 112.389 178.329 111.568 177.966 111.12C177.603 110.672 177.059 110.448 176.334 110.448C175.801 110.448 175.31 110.661 174.862 111.088C174.435 111.515 174.083 112.112 173.806 112.88C173.55 113.648 173.422 114.523 173.422 115.504V116.944C173.422 118.096 173.539 118.864 173.774 119.248C174.009 119.632 174.467 119.845 175.15 119.888C175.257 120.187 175.331 120.528 175.374 120.912C175.417 121.296 175.438 121.691 175.438 122.096C175.097 122.053 174.627 122.021 174.03 122C173.454 122 172.846 122 172.206 122C171.587 122 171.033 122 170.542 122C170.051 122 169.486 122 168.846 122C168.227 122 167.641 122 167.086 122C166.553 122.021 166.126 122.053 165.806 122.096ZM205.246 122.288C203.326 122.288 201.768 121.957 200.574 121.296C199.4 120.635 198.536 119.739 197.982 118.608C197.427 117.477 197.15 116.208 197.15 114.8C197.15 113.221 197.459 111.856 198.078 110.704C198.696 109.552 199.592 108.656 200.766 108.016C201.939 107.376 203.315 107.056 204.894 107.056C206.472 107.056 207.774 107.355 208.798 107.952C209.822 108.528 210.579 109.339 211.07 110.384C211.582 111.408 211.859 112.603 211.902 113.968C211.731 114.672 211.422 115.237 210.974 115.664C210.355 115.664 209.651 115.664 208.862 115.664C208.072 115.664 207.24 115.675 206.366 115.696C205.512 115.696 204.638 115.717 203.742 115.76C202.867 115.803 202.024 115.856 201.214 115.92V113.616H207.102C207.102 112.165 206.91 111.067 206.526 110.32C206.163 109.573 205.608 109.2 204.862 109.2C204.371 109.2 203.934 109.381 203.55 109.744C203.187 110.085 202.91 110.608 202.718 111.312C202.526 111.995 202.43 112.848 202.43 113.872C202.43 114.981 202.568 115.973 202.846 116.848C203.123 117.723 203.582 118.405 204.222 118.896C204.862 119.387 205.726 119.632 206.814 119.632C207.56 119.632 208.307 119.504 209.054 119.248C209.8 118.992 210.419 118.661 210.91 118.256C211.123 118.384 211.315 118.64 211.486 119.024C211.656 119.387 211.742 119.76 211.742 120.144C210.91 120.848 209.96 121.381 208.894 121.744C207.848 122.107 206.632 122.288 205.246 122.288Z" fill="#5F260E"/>
<g filter="url(#filter0_d_474_2247)">
<path d="M167.09 60.18C180.947 60.18 192.18 48.9468 192.18 35.09C192.18 21.2332 180.947 10 167.09 10C153.233 10 142 21.2332 142 35.09C142 48.9468 153.233 60.18 167.09 60.18Z" fill="url(#paint0_radial_474_2247)"/>
</g>
<g filter="url(#filter1_d_474_2247)">
<path d="M141.51 90.02C155.046 90.02 166.02 79.0465 166.02 65.51C166.02 51.9735 155.046 41 141.51 41C127.973 41 117 51.9735 117 65.51C117 79.0465 127.973 90.02 141.51 90.02Z" fill="url(#paint1_radial_474_2247)"/>
</g>
<g filter="url(#filter2_d_474_2247)">
<path d="M32.51 123.02C46.0465 123.02 57.02 112.047 57.02 98.51C57.02 84.9735 46.0465 74 32.51 74C18.9735 74 8 84.9735 8 98.51C8 112.047 18.9735 123.02 32.51 123.02Z" fill="url(#paint2_radial_474_2247)"/>
</g>
<g filter="url(#filter3_d_474_2247)">
<path d="M227.51 139.02C241.047 139.02 252.02 128.046 252.02 114.51C252.02 100.973 241.047 90 227.51 90C213.974 90 203 100.973 203 114.51C203 128.046 213.974 139.02 227.51 139.02Z" fill="url(#paint3_radial_474_2247)"/>
</g>
<g filter="url(#filter4_d_474_2247)">
<path d="M75.81 203.62C90.0645 203.62 101.62 192.064 101.62 177.81C101.62 163.556 90.0645 152 75.81 152C61.5555 152 50 163.556 50 177.81C50 192.064 61.5555 203.62 75.81 203.62Z" fill="url(#paint4_radial_474_2247)"/>
</g>
<g filter="url(#filter5_d_474_2247)">
<path d="M184.51 234.02C198.047 234.02 209.02 223.046 209.02 209.51C209.02 195.973 198.047 185 184.51 185C170.974 185 160 195.973 160 209.51C160 223.046 170.974 234.02 184.51 234.02Z" fill="url(#paint5_radial_474_2247)"/>
</g>
<defs>
<filter id="filter0_d_474_2247" x="134.83" y="5.67" width="70.1799" height="70.18" filterUnits="userSpaceOnUse" color-interpolation-filters="sRGB">
<feFlood flood-opacity="0" result="BackgroundImageFix"/>
<feColorMatrix in="SourceAlpha" type="matrix" values="0 0 0 0 0 0 0 0 0 0 0 0 0 0 0 0 0 0 127 0" result="hardAlpha"/>
<feOffset dx="2.83" dy="5.67"/>
<feGaussianBlur stdDeviation="5"/>
<feColorMatrix type="matrix" values="0 0 0 0 0.113725 0 0 0 0 0.113725 0 0 0 0 0.105882 0 0 0 0.5 0"/>
<feBlend mode="normal" in2="BackgroundImageFix" result="effect1_dropShadow_474_2247"/>
<feBlend mode="normal" in="SourceGraphic" in2="effect1_dropShadow_474_2247" result="shape"/>
</filter>
<filter id="filter1_d_474_2247" x="109.83" y="36.67" width="69.02" height="69.02" filterUnits="userSpaceOnUse" color-interpolation-filters="sRGB">
<feFlood flood-opacity="0" result="BackgroundImageFix"/>
<feColorMatrix in="SourceAlpha" type="matrix" values="0 0 0 0 0 0 0 0 0 0 0 0 0 0 0 0 0 0 127 0" result="hardAlpha"/>
<feOffset dx="2.83" dy="5.67"/>
<feGaussianBlur stdDeviation="5"/>
<feColorMatrix type="matrix" values="0 0 0 0 0.113725 0 0 0 0 0.113725 0 0 0 0 0.105882 0 0 0 0.5 0"/>
<feBlend mode="normal" in2="BackgroundImageFix" result="effect1_dropShadow_474_2247"/>
<feBlend mode="normal" in="SourceGraphic" in2="effect1_dropShadow_474_2247" result="shape"/>
</filter>
<filter id="filter2_d_474_2247" x="0.83" y="69.67" width="69.02" height="69.02" filterUnits="userSpaceOnUse" color-interpolation-filters="sRGB">
<feFlood flood-opacity="0" result="BackgroundImageFix"/>
<feColorMatrix in="SourceAlpha" type="matrix" values="0 0 0 0 0 0 0 0 0 0 0 0 0 0 0 0 0 0 127 0" result="hardAlpha"/>
<feOffset dx="2.83" dy="5.67"/>
<feGaussianBlur stdDeviation="5"/>
<feColorMatrix type="matrix" values="0 0 0 0 0.113725 0 0 0 0 0.113725 0 0 0 0 0.105882 0 0 0 0.5 0"/>
<feBlend mode="normal" in2="BackgroundImageFix" result="effect1_dropShadow_474_2247"/>
<feBlend mode="normal" in="SourceGraphic" in2="effect1_dropShadow_474_2247" result="shape"/>
</filter>
<filter id="filter3_d_474_2247" x="195.83" y="85.67" width="69.02" height="69.02" filterUnits="userSpaceOnUse" color-interpolation-filters="sRGB">
<feFlood flood-opacity="0" result="BackgroundImageFix"/>
<feColorMatrix in="SourceAlpha" type="matrix" values="0 0 0 0 0 0 0 0 0 0 0 0 0 0 0 0 0 0 127 0" result="hardAlpha"/>
<feOffset dx="2.83" dy="5.67"/>
<feGaussianBlur stdDeviation="5"/>
<feColorMatrix type="matrix" values="0 0 0 0 0.113725 0 0 0 0 0.113725 0 0 0 0 0.105882 0 0 0 0.5 0"/>
<feBlend mode="normal" in2="BackgroundImageFix" result="effect1_dropShadow_474_2247"/>
<feBlend mode="normal" in="SourceGraphic" in2="effect1_dropShadow_474_2247" result="shape"/>
</filter>
<filter id="filter4_d_474_2247" x="42.83" y="147.67" width="71.6201" height="71.62" filterUnits="userSpaceOnUse" color-interpolation-filters="sRGB">
<feFlood flood-opacity="0" result="BackgroundImageFix"/>
<feColorMatrix in="SourceAlpha" type="matrix" values="0 0 0 0 0 0 0 0 0 0 0 0 0 0 0 0 0 0 127 0" result="hardAlpha"/>
<feOffset dx="2.83" dy="5.67"/>
<feGaussianBlur stdDeviation="5"/>
<feColorMatrix type="matrix" values="0 0 0 0 0.113725 0 0 0 0 0.113725 0 0 0 0 0.105882 0 0 0 0.5 0"/>
<feBlend mode="normal" in2="BackgroundImageFix" result="effect1_dropShadow_474_2247"/>
<feBlend mode="normal" in="SourceGraphic" in2="effect1_dropShadow_474_2247" result="shape"/>
</filter>
<filter id="filter5_d_474_2247" x="152.83" y="180.67" width="69.02" height="69.02" filterUnits="userSpaceOnUse" color-interpolation-filters="sRGB">
<feFlood flood-opacity="0" result="BackgroundImageFix"/>
<feColorMatrix in="SourceAlpha" type="matrix" values="0 0 0 0 0 0 0 0 0 0 0 0 0 0 0 0 0 0 127 0" result="hardAlpha"/>
<feOffset dx="2.83" dy="5.67"/>
<feGaussianBlur stdDeviation="5"/>
<feColorMatrix type="matrix" values="0 0 0 0 0.113725 0 0 0 0 0.113725 0 0 0 0 0.105882 0 0 0 0.5 0"/>
<feBlend mode="normal" in2="BackgroundImageFix" result="effect1_dropShadow_474_2247"/>
<feBlend mode="normal" in="SourceGraphic" in2="effect1_dropShadow_474_2247" result="shape"/>
</filter>
<radialGradient id="paint0_radial_474_2247" cx="0" cy="0" r="1" gradientUnits="userSpaceOnUse" gradientTransform="translate(167.09 35.09) scale(25.09 25.09)">
<stop stop-color="#E5A5AA"/>
<stop offset="0.16" stop-color="#D98895"/>
<stop offset="0.8" stop-color="#BC3461"/>
<stop offset="0.97" stop-color="#9E2F56"/>
</radialGradient>
<radialGradient id="paint1_radial_474_2247" cx="0" cy="0" r="1" gradientUnits="userSpaceOnUse" gradientTransform="translate(141.51 65.51) scale(24.51 24.51)">
<stop offset="0.01" stop-color="#E0E0E0"/>
<stop offset="0.34" stop-color="#C6C4C1"/>
<stop offset="0.63" stop-color="#ADAAA6"/>
<stop offset="1" stop-color="#747270"/>
</radialGradient>
<radialGradient id="paint2_radial_474_2247" cx="0" cy="0" r="1" gradientUnits="userSpaceOnUse" gradientTransform="translate(32.51 98.51) scale(24.51 24.51)">
<stop offset="0.01" stop-color="#E0E0E0"/>
<stop offset="0.34" stop-color="#C6C4C1"/>
<stop offset="0.63" stop-color="#ADAAA6"/>
<stop offset="1" stop-color="#747270"/>
</radialGradient>
<radialGradient id="paint3_radial_474_2247" cx="0" cy="0" r="1" gradientUnits="userSpaceOnUse" gradientTransform="translate(227.51 114.51) scale(24.51 24.51)">
<stop stop-color="#E5A5AA"/>
<stop offset="0.16" stop-color="#D98895"/>
<stop offset="0.8" stop-color="#BC3461"/>
<stop offset="0.97" stop-color="#9E2F56"/>
</radialGradient>
<radialGradient id="paint4_radial_474_2247" cx="0" cy="0" r="1" gradientUnits="userSpaceOnUse" gradientTransform="translate(75.81 177.81) scale(25.81 25.81)">
<stop stop-color="#E5A5AA"/>
<stop offset="0.16" stop-color="#D98895"/>
<stop offset="0.8" stop-color="#BC3461"/>
<stop offset="0.97" stop-color="#9E2F56"/>
</radialGradient>
<radialGradient id="paint5_radial_474_2247" cx="0" cy="0" r="1" gradientUnits="userSpaceOnUse" gradientTransform="translate(184.51 209.51) scale(24.51 24.51)">
<stop offset="0.01" stop-color="#E0E0E0"/>
<stop offset="0.34" stop-color="#C6C4C1"/>
<stop offset="0.63" stop-color="#ADAAA6"/>
<stop offset="1" stop-color="#747270"/>
</radialGradient>
</defs>
</svg>
