<svg width="127" height="116" viewBox="0 0 127 116" fill="none" xmlns="http://www.w3.org/2000/svg">
<g clip-path="url(#clip0_289_1342)">
<path d="M102.873 26.6061L96.1025 12.4117C93.6375 7.24402 87.4514 5.06286 82.2948 7.52263L70.9504 12.9341C70.9927 13.0228 71.0572 13.101 71.0995 13.1897C72.1469 15.3854 71.2189 18.0061 69.0232 19.0534C66.8275 20.1008 64.2069 19.1729 63.1595 16.9772C63.1172 16.8885 63.097 16.7892 63.0547 16.7005L11.8105 41.1447C6.64868 43.5934 4.45643 49.7847 6.9162 54.9413L13.6872 69.1358C19.2984 66.4591 26.0139 68.8369 28.6905 74.4482C31.3672 80.0594 28.9894 86.7749 23.3781 89.4516L30.1491 103.646C32.6141 108.814 38.8002 110.995 43.9568 108.535L95.1898 84.0961C95.1475 84.0074 95.083 83.9292 95.0407 83.8405C93.9933 81.6448 94.9212 79.0241 97.117 77.9768C99.3127 76.9294 101.933 77.8573 102.981 80.053C103.023 80.1417 103.043 80.241 103.085 80.3297L114.43 74.9182C119.598 72.4532 121.779 66.2671 119.319 61.1106L112.548 46.9161C106.937 49.5928 100.221 47.2149 97.5447 41.6037C94.868 35.9925 97.2459 29.277 102.857 26.6003L102.873 26.6061ZM95.6152 74.7999C93.4195 75.8473 90.7988 74.9193 89.7514 72.7236C88.704 70.5279 89.6319 67.9073 91.8276 66.8599C94.0233 65.8125 96.644 66.7404 97.6914 68.9361C98.7388 71.1318 97.8109 73.7525 95.6152 74.7999ZM90.3042 63.6661C88.1085 64.7135 85.4878 63.7856 84.4404 61.5899C83.393 59.3942 84.321 56.7735 86.5167 55.7261C88.7124 54.6787 91.333 55.6067 92.3804 57.8024C93.4278 59.9981 92.4999 62.6187 90.3042 63.6661ZM84.9932 52.5324C82.7975 53.5797 80.1768 52.6518 79.1294 50.4561C78.0821 48.2604 79.01 45.6397 81.2057 44.5923C83.4014 43.545 86.0221 44.4729 87.0695 46.6686C88.1168 48.8643 87.1889 51.485 84.9932 52.5324ZM79.6822 41.3986C77.4865 42.446 74.8658 41.518 73.8185 39.3223C72.7711 37.1266 73.699 34.506 75.8947 33.4586C78.0904 32.4112 80.7111 33.3391 81.7585 35.5348C82.8059 37.7305 81.8779 40.3512 79.6822 41.3986ZM74.4083 30.3425C72.2126 31.3898 69.5919 30.4619 68.5445 28.2662C67.4971 26.0705 68.4251 23.4498 70.6208 22.4024C72.8165 21.3551 75.4371 22.283 76.4845 24.4787C77.5319 26.6744 76.604 29.2951 74.4083 30.3425Z" fill="#FFD103"/>
<path d="M102.873 26.6061L96.1025 12.4117C93.6375 7.24402 87.4514 5.06286 82.2948 7.52263L70.9504 12.9341C70.9927 13.0228 71.0572 13.101 71.0995 13.1897C72.1469 15.3854 71.2189 18.0061 69.0232 19.0534C66.8275 20.1008 64.2069 19.1729 63.1595 16.9772C63.1172 16.8885 63.097 16.7892 63.0547 16.7005L11.8105 41.1447C6.64868 43.5934 4.45643 49.7847 6.9162 54.9413L13.6872 69.1358C19.2984 66.4591 26.0139 68.8369 28.6905 74.4482C31.3672 80.0594 28.9894 86.7749 23.3781 89.4516L30.1491 103.646C32.6141 108.814 38.8002 110.995 43.9568 108.535L95.1898 84.0961C95.1475 84.0074 95.083 83.9292 95.0407 83.8405C93.9933 81.6448 94.9212 79.0241 97.117 77.9768C99.3127 76.9294 101.933 77.8573 102.981 80.053C103.023 80.1417 103.043 80.241 103.085 80.3297L114.43 74.9182C119.598 72.4532 121.779 66.2671 119.319 61.1106L112.548 46.9161C106.937 49.5928 100.221 47.2149 97.5447 41.6037C94.868 35.9925 97.2459 29.277 102.857 26.6003L102.873 26.6061ZM95.6152 74.7999C93.4195 75.8473 90.7988 74.9193 89.7514 72.7236C88.704 70.5279 89.6319 67.9073 91.8276 66.8599C94.0233 65.8125 96.644 66.7404 97.6914 68.9361C98.7388 71.1318 97.8109 73.7525 95.6152 74.7999ZM90.3042 63.6661C88.1085 64.7135 85.4878 63.7856 84.4404 61.5899C83.393 59.3942 84.321 56.7735 86.5167 55.7261C88.7124 54.6787 91.333 55.6067 92.3804 57.8024C93.4278 59.9981 92.4999 62.6187 90.3042 63.6661ZM84.9932 52.5324C82.7975 53.5797 80.1768 52.6518 79.1294 50.4561C78.0821 48.2604 79.01 45.6397 81.2057 44.5923C83.4014 43.545 86.0221 44.4729 87.0695 46.6686C88.1168 48.8643 87.1889 51.485 84.9932 52.5324ZM79.6822 41.3986C77.4865 42.446 74.8658 41.518 73.8185 39.3223C72.7711 37.1266 73.699 34.506 75.8947 33.4586C78.0904 32.4112 80.7111 33.3391 81.7585 35.5348C82.8059 37.7305 81.8779 40.3512 79.6822 41.3986ZM74.4083 30.3425C72.2126 31.3898 69.5919 30.4619 68.5445 28.2662C67.4971 26.0705 68.4251 23.4498 70.6208 22.4024C72.8165 21.3551 75.4371 22.283 76.4845 24.4787C77.5319 26.6744 76.604 29.2951 74.4083 30.3425Z" fill="#FFD103"/>
<path d="M102.873 26.6061L96.1025 12.4117C93.6375 7.24402 87.4514 5.06286 82.2948 7.52263L70.9504 12.9341C70.9927 13.0228 71.0572 13.101 71.0995 13.1897C72.1469 15.3854 71.2189 18.0061 69.0232 19.0534C66.8275 20.1008 64.2069 19.1729 63.1595 16.9772C63.1172 16.8885 63.097 16.7892 63.0547 16.7005L11.8105 41.1447C6.64868 43.5934 4.45643 49.7847 6.9162 54.9413L13.6872 69.1358C19.2984 66.4591 26.0139 68.8369 28.6905 74.4482C31.3672 80.0594 28.9894 86.7749 23.3781 89.4515L30.1491 103.646C32.6141 108.814 38.8002 110.995 43.9568 108.535L95.1898 84.0961C95.1475 84.0074 95.083 83.9292 95.0407 83.8405C93.9933 81.6448 94.9212 79.0241 97.117 77.9768C99.3127 76.9294 101.933 77.8573 102.981 80.053C103.023 80.1417 103.043 80.241 103.085 80.3297L114.43 74.9183C119.598 72.4532 121.779 66.2671 119.319 61.1106L112.548 46.9161C106.937 49.5928 100.221 47.2149 97.5447 41.6037C94.868 35.9925 97.2459 29.277 102.857 26.6003L102.873 26.6061ZM95.6152 74.7999C93.4195 75.8473 90.7988 74.9193 89.7514 72.7236C88.704 70.5279 89.6319 67.9073 91.8276 66.8599C94.0233 65.8125 96.644 66.7404 97.6914 68.9361C98.7388 71.1318 97.8109 73.7525 95.6152 74.7999ZM90.3042 63.6661C88.1085 64.7135 85.4878 63.7856 84.4404 61.5899C83.393 59.3942 84.321 56.7735 86.5167 55.7261C88.7124 54.6787 91.333 55.6067 92.3804 57.8024C93.4278 59.9981 92.4999 62.6187 90.3042 63.6661ZM84.9932 52.5324C82.7975 53.5797 80.1768 52.6518 79.1294 50.4561C78.0821 48.2604 79.01 45.6397 81.2057 44.5923C83.4014 43.545 86.0221 44.4729 87.0695 46.6686C88.1168 48.8643 87.1889 51.485 84.9932 52.5324ZM79.6822 41.3986C77.4865 42.446 74.8658 41.518 73.8185 39.3223C72.7711 37.1266 73.699 34.506 75.8947 33.4586C78.0904 32.4112 80.7111 33.3391 81.7585 35.5348C82.8059 37.7305 81.8779 40.3512 79.6822 41.3986ZM74.4083 30.3425C72.2126 31.3898 69.5919 30.4619 68.5445 28.2662C67.4971 26.0705 68.4251 23.4498 70.6208 22.4024C72.8165 21.3551 75.4371 22.283 76.4845 24.4787C77.5319 26.6744 76.604 29.2951 74.4083 30.3425Z" stroke="white" stroke-width="3" stroke-miterlimit="10"/>
<path d="M45.8266 46.277L55.8094 56.7886L68.8949 50.5466L61.9757 63.2944L71.9638 73.817L57.7022 71.1727L50.783 83.9206L48.8902 69.5364L34.6175 66.8974L47.7141 60.6501L45.8266 46.277Z" fill="#D61016"/>
</g>
<defs>
<clipPath id="clip0_289_1342">
<rect width="102.494" height="78.3753" fill="white" transform="translate(0 44.7229) rotate(-25.5019)"/>
</clipPath>
</defs>
</svg>
