<svg width="281" height="254" viewBox="0 0 281 254" fill="none" xmlns="http://www.w3.org/2000/svg">
<circle cx="153.806" cy="116.704" r="116.024" fill="#D4EBFF"/>
<g filter="url(#filter0_d_502_3134)">
<path d="M132.505 71.2859C148.114 71.2859 160.767 58.6323 160.767 43.0233C160.767 27.4143 148.114 14.7607 132.505 14.7607C116.896 14.7607 104.242 27.4143 104.242 43.0233C104.242 58.6323 116.896 71.2859 132.505 71.2859Z" fill="url(#paint0_radial_502_3134)"/>
</g>
<g filter="url(#filter1_d_502_3134)">
<path d="M117.861 201.954C133.47 201.954 146.124 189.3 146.124 173.691C146.124 158.082 133.47 145.429 117.861 145.429C102.252 145.429 89.5984 158.082 89.5984 173.691C89.5984 189.3 102.252 201.954 117.861 201.954Z" fill="url(#paint1_radial_502_3134)"/>
</g>
<g filter="url(#filter2_d_502_3134)">
<path d="M227.126 238C242.735 238 255.389 225.347 255.389 209.738C255.389 194.129 242.735 181.475 227.126 181.475C211.517 181.475 198.864 194.129 198.864 209.738C198.864 225.347 211.517 238 227.126 238Z" fill="url(#paint2_radial_502_3134)"/>
</g>
<g filter="url(#filter3_d_502_3134)">
<path d="M41.2626 127.608C56.8716 127.608 69.5252 114.955 69.5252 99.3457C69.5252 83.7367 56.8716 71.0831 41.2626 71.0831C25.6536 71.0831 13 83.7367 13 99.3457C13 114.955 25.6536 127.608 41.2626 127.608Z" fill="url(#paint3_radial_502_3134)"/>
</g>
<g filter="url(#filter4_d_502_3134)">
<path d="M216.988 63.4008C232.597 63.4008 245.251 50.7472 245.251 35.1382C245.251 19.5292 232.597 6.87561 216.988 6.87561C201.379 6.87561 188.726 19.5292 188.726 35.1382C188.726 50.7472 201.379 63.4008 216.988 63.4008Z" fill="url(#paint4_radial_502_3134)"/>
</g>
<g filter="url(#filter5_d_502_3134)">
<path d="M91.8253 105.864C92.2733 105.864 92.6893 105.896 93.0733 105.96C93.4786 106.024 93.8946 106.109 94.3213 106.216V109.416C93.9799 108.946 93.6066 108.584 93.2013 108.328C92.8173 108.072 92.3479 107.944 91.7933 107.944C91.4093 107.944 91.0039 108.018 90.5773 108.168C90.1506 108.317 89.7453 108.594 89.3613 109C88.9986 109.405 88.6999 109.992 88.4653 110.76C88.2306 111.506 88.1133 112.477 88.1133 113.672C88.1133 114.525 88.2093 115.304 88.4013 116.008C88.6146 116.69 88.9239 117.234 89.3293 117.64C89.7559 118.045 90.2786 118.248 90.8973 118.248C91.4093 118.248 91.8999 118.088 92.3693 117.768C92.8386 117.426 93.2333 116.882 93.5533 116.136C93.8733 115.368 94.0333 114.354 94.0333 113.096L95.4093 116.328C95.0253 117.224 94.6626 117.928 94.3213 118.44C94.0013 118.93 93.6706 119.304 93.3293 119.56C93.0946 119.794 92.7639 120.029 92.3373 120.264C91.9319 120.498 91.4519 120.69 90.8973 120.84C90.3639 121.01 89.7879 121.096 89.1693 121.096C87.9533 121.096 86.8546 120.872 85.8733 120.424C84.9133 119.954 84.1559 119.229 83.6013 118.248C83.0466 117.266 82.7693 116.008 82.7693 114.472C82.7693 112.765 83.1426 111.272 83.8893 109.992C84.6359 108.69 85.6919 107.677 87.0573 106.952C88.4226 106.226 90.0119 105.864 91.8253 105.864ZM99.2813 115.016C99.2813 115.762 99.3239 116.338 99.4093 116.744C99.4946 117.128 99.6653 117.394 99.9213 117.544C100.199 117.672 100.604 117.746 101.137 117.768C101.201 118.173 101.201 118.568 101.137 118.952C101.095 119.336 100.988 119.698 100.817 120.04C99.9426 120.061 99.0466 120.157 98.1293 120.328C97.2333 120.498 96.3906 120.754 95.6013 121.096C95.1959 120.946 94.9079 120.733 94.7373 120.456C94.5666 120.157 94.4813 119.762 94.4813 119.272C94.4813 118.845 94.5346 118.408 94.6413 117.96C94.7479 117.49 94.8866 117 95.0573 116.488L99.2813 115.016ZM99.2813 102.6V116.616H94.0333V102.6H99.2813ZM98.2573 97.8636C98.5773 97.9916 98.8226 98.2049 98.9933 98.5036C99.1853 98.8022 99.2813 99.2076 99.2813 99.7196V103.624H94.0333V103.272C94.0333 102.781 93.9693 102.376 93.8413 102.056C93.7133 101.736 93.4786 101.501 93.1373 101.352C92.7959 101.181 92.2946 101.074 91.6333 101.032C91.6333 100.669 91.6546 100.306 91.6973 99.9436C91.7613 99.5596 91.8679 99.2182 92.0173 98.9196C92.8919 98.9196 93.7453 98.8662 94.5773 98.7596C95.4093 98.6529 96.1453 98.5249 96.7853 98.3756C97.4466 98.2049 97.9373 98.0342 98.2573 97.8636ZM102.863 120.904C102.863 120.456 102.884 120.05 102.927 119.688C102.97 119.304 103.034 118.973 103.119 118.696C103.972 118.653 104.538 118.45 104.815 118.088C105.092 117.704 105.231 116.978 105.231 115.912V111.272C105.231 110.781 105.167 110.376 105.039 110.056C104.932 109.736 104.708 109.501 104.367 109.352C104.026 109.181 103.524 109.074 102.863 109.032C102.863 108.669 102.884 108.306 102.927 107.944C102.991 107.56 103.098 107.218 103.247 106.92C104.122 106.92 104.975 106.866 105.807 106.76C106.639 106.653 107.375 106.525 108.015 106.376C108.676 106.205 109.167 106.034 109.487 105.864C109.807 105.992 110.052 106.205 110.223 106.504C110.415 106.802 110.511 107.208 110.511 107.72V115.912C110.511 116.978 110.65 117.704 110.927 118.088C111.204 118.45 111.748 118.653 112.559 118.696C112.644 118.973 112.698 119.304 112.719 119.688C112.762 120.072 112.783 120.477 112.783 120.904C112.506 120.882 112.1 120.861 111.567 120.84C111.034 120.84 110.436 120.829 109.775 120.808C109.135 120.808 108.484 120.808 107.823 120.808C107.183 120.808 106.532 120.808 105.871 120.808C105.21 120.829 104.612 120.84 104.079 120.84C103.567 120.861 103.162 120.882 102.863 120.904ZM107.439 103.784C106.564 103.784 105.86 103.57 105.327 103.144C104.794 102.696 104.527 102.109 104.527 101.384C104.527 100.552 104.815 99.9116 105.391 99.4636C105.988 98.9942 106.724 98.7596 107.599 98.7596C108.602 98.7596 109.359 98.9836 109.871 99.4316C110.404 99.8796 110.671 100.52 110.671 101.352C110.671 102.056 110.383 102.642 109.807 103.112C109.231 103.56 108.442 103.784 107.439 103.784ZM126.735 106.856C126.714 107.41 126.703 107.986 126.703 108.584C126.724 109.16 126.778 109.725 126.863 110.28C126.543 110.45 126.127 110.6 125.615 110.728C125.124 110.856 124.623 110.92 124.111 110.92C124.047 110.386 123.898 109.906 123.663 109.48C123.45 109.032 123.14 108.68 122.735 108.424C122.351 108.168 121.85 108.04 121.231 108.04C120.804 108.04 120.463 108.157 120.207 108.392C119.972 108.605 119.855 108.893 119.855 109.256C119.855 109.512 119.919 109.757 120.047 109.992C120.196 110.226 120.506 110.493 120.975 110.792C121.466 111.069 122.212 111.421 123.215 111.848C124.431 112.338 125.38 112.808 126.063 113.256C126.767 113.704 127.268 114.184 127.567 114.696C127.866 115.208 128.015 115.826 128.015 116.552C128.015 117.512 127.727 118.333 127.151 119.016C126.596 119.698 125.796 120.221 124.751 120.584C123.706 120.925 122.447 121.096 120.975 121.096C119.631 121.096 118.511 121 117.615 120.808C116.719 120.616 115.844 120.349 114.991 120.008C115.055 119.581 115.098 119.133 115.119 118.664C115.14 118.173 115.14 117.704 115.119 117.256C115.119 116.786 115.098 116.381 115.055 116.04C115.375 115.826 115.802 115.677 116.335 115.592C116.89 115.485 117.402 115.432 117.871 115.432C117.999 116.541 118.319 117.384 118.831 117.96C119.364 118.514 120.015 118.792 120.783 118.792C121.316 118.792 121.754 118.674 122.095 118.44C122.458 118.205 122.639 117.864 122.639 117.416C122.639 117.096 122.554 116.818 122.383 116.584C122.234 116.328 121.946 116.082 121.519 115.848C121.114 115.592 120.506 115.314 119.695 115.016C118.756 114.653 117.946 114.269 117.263 113.864C116.58 113.458 116.047 112.957 115.663 112.36C115.3 111.762 115.119 110.994 115.119 110.056C115.119 109.33 115.268 108.712 115.567 108.2C115.887 107.666 116.335 107.229 116.911 106.888C117.487 106.546 118.148 106.29 118.895 106.12C119.663 105.949 120.484 105.864 121.359 105.864C122.554 105.864 123.567 105.949 124.399 106.12C125.231 106.269 126.01 106.514 126.735 106.856ZM143.554 119.176C142.999 119.794 142.242 120.274 141.282 120.616C140.343 120.936 139.276 121.096 138.082 121.096C136.503 121.096 135.106 120.818 133.89 120.264C132.695 119.709 131.756 118.877 131.074 117.768C130.412 116.658 130.082 115.25 130.082 113.544C130.082 112.264 130.37 111.037 130.946 109.864C131.522 108.69 132.375 107.73 133.506 106.984C134.658 106.237 136.087 105.864 137.794 105.864C139.01 105.864 140.055 105.981 140.93 106.216C141.826 106.429 142.626 106.749 143.33 107.176C143.202 107.773 143.106 108.392 143.042 109.032C142.999 109.672 142.978 110.408 142.978 111.24C142.572 111.41 142.103 111.538 141.57 111.624C141.058 111.688 140.567 111.72 140.098 111.72C140.055 110.482 139.831 109.554 139.426 108.936C139.02 108.296 138.498 107.976 137.858 107.976C137.026 107.976 136.386 108.456 135.938 109.416C135.511 110.354 135.298 111.581 135.298 113.096C135.298 113.97 135.436 114.824 135.714 115.656C136.012 116.466 136.471 117.138 137.09 117.672C137.708 118.184 138.519 118.44 139.522 118.44C140.204 118.44 140.823 118.354 141.378 118.184C141.932 117.992 142.412 117.736 142.818 117.416C143.031 117.608 143.202 117.864 143.33 118.184C143.479 118.482 143.554 118.813 143.554 119.176ZM152.917 114.92C152.917 115.837 153.013 116.562 153.205 117.096C153.419 117.608 153.76 117.992 154.229 118.248C154.72 118.482 155.392 118.632 156.245 118.696C156.352 118.994 156.416 119.346 156.437 119.752C156.48 120.136 156.501 120.52 156.501 120.904C156.117 120.882 155.627 120.861 155.029 120.84C154.432 120.84 153.792 120.829 153.109 120.808C152.448 120.808 151.797 120.808 151.157 120.808C150.112 120.808 149.035 120.808 147.925 120.808C146.816 120.829 145.931 120.861 145.269 120.904C145.269 120.392 145.28 119.965 145.301 119.624C145.344 119.261 145.408 118.952 145.493 118.696C146.069 118.653 146.507 118.546 146.805 118.376C147.125 118.184 147.339 117.853 147.445 117.384C147.573 116.914 147.637 116.221 147.637 115.304V113.544H152.917V114.92ZM152.917 111.368V114.184H147.637V110.728L152.917 107.752C152.917 108.178 152.853 108.658 152.725 109.192C152.619 109.725 152.469 110.397 152.277 111.208L152.917 111.368ZM152.213 111.304C152.363 110.877 152.533 110.397 152.725 109.864C152.917 109.309 153.088 108.904 153.237 108.648C153.707 107.901 154.293 107.282 154.997 106.792C155.701 106.301 156.48 106.056 157.333 106.056C158.165 106.056 158.933 106.312 159.637 106.824C159.573 107.272 159.509 107.794 159.445 108.392C159.381 108.989 159.339 109.597 159.317 110.216C159.317 110.813 159.328 111.357 159.349 111.848C158.987 111.997 158.507 112.104 157.909 112.168C157.312 112.21 156.8 112.232 156.373 112.232C156.331 111.464 156.203 110.92 155.989 110.6C155.776 110.258 155.456 110.088 155.029 110.088C154.731 110.088 154.411 110.269 154.069 110.632C153.749 110.994 153.472 111.464 153.237 112.04C153.024 112.594 152.917 113.192 152.917 113.832L152.213 111.304ZM147.637 114.184V111.72C147.637 111.058 147.595 110.546 147.509 110.184C147.424 109.821 147.211 109.554 146.869 109.384C146.549 109.192 146.037 109.074 145.333 109.032C145.333 108.669 145.355 108.306 145.397 107.944C145.461 107.56 145.568 107.218 145.717 106.92C147.061 106.92 148.299 106.813 149.429 106.6C150.581 106.365 151.413 106.12 151.925 105.864C152.245 105.992 152.491 106.205 152.661 106.504C152.832 106.802 152.917 107.218 152.917 107.752L147.637 114.184ZM169.334 121.096C167.414 121.096 165.857 120.765 164.662 120.104C163.489 119.442 162.625 118.546 162.07 117.416C161.515 116.285 161.238 115.016 161.238 113.608C161.238 112.029 161.547 110.664 162.166 109.512C162.785 108.36 163.681 107.464 164.854 106.824C166.027 106.184 167.403 105.864 168.982 105.864C170.561 105.864 171.862 106.162 172.886 106.76C173.91 107.336 174.667 108.146 175.158 109.192C175.67 110.216 175.947 111.41 175.99 112.776C175.819 113.48 175.51 114.045 175.062 114.472C174.443 114.472 173.739 114.472 172.95 114.472C172.161 114.472 171.329 114.482 170.454 114.504C169.601 114.504 168.726 114.525 167.83 114.568C166.955 114.61 166.113 114.664 165.302 114.728V112.424H171.19C171.19 110.973 170.998 109.874 170.614 109.128C170.251 108.381 169.697 108.008 168.95 108.008C168.459 108.008 168.022 108.189 167.638 108.552C167.275 108.893 166.998 109.416 166.806 110.12C166.614 110.802 166.518 111.656 166.518 112.68C166.518 113.789 166.657 114.781 166.934 115.656C167.211 116.53 167.67 117.213 168.31 117.704C168.95 118.194 169.814 118.44 170.902 118.44C171.649 118.44 172.395 118.312 173.142 118.056C173.889 117.8 174.507 117.469 174.998 117.064C175.211 117.192 175.403 117.448 175.574 117.832C175.745 118.194 175.83 118.568 175.83 118.952C174.998 119.656 174.049 120.189 172.982 120.552C171.937 120.914 170.721 121.096 169.334 121.096ZM168.246 103.72C167.606 102.824 166.977 101.981 166.358 101.192C165.739 100.381 164.982 99.5596 164.086 98.7276C164.769 98.4289 165.515 98.2156 166.326 98.0876C167.137 97.9382 167.958 97.8742 168.79 97.8956C169.025 98.7276 169.334 99.6236 169.718 100.584C170.123 101.544 170.55 102.45 170.998 103.304C170.657 103.453 170.262 103.57 169.814 103.656C169.387 103.72 168.865 103.741 168.246 103.72ZM184.513 121.096C182.934 121.096 181.74 120.69 180.929 119.88C180.118 119.048 179.713 117.65 179.713 115.688V109.096C179.372 108.968 179.009 108.872 178.625 108.808C178.262 108.744 177.836 108.712 177.345 108.712C177.345 108.285 177.366 107.901 177.409 107.56C177.473 107.197 177.59 106.834 177.761 106.472H179.713V102.664C180.545 102.557 181.356 102.344 182.145 102.024C182.956 101.704 183.606 101.352 184.097 100.968C184.438 101.096 184.673 101.298 184.801 101.576C184.929 101.853 184.993 102.344 184.993 103.048V106.472H188.833C188.833 106.941 188.801 107.357 188.737 107.72C188.694 108.061 188.62 108.402 188.513 108.744C187.83 108.744 187.19 108.797 186.593 108.904C186.017 108.989 185.484 109.117 184.993 109.288V115.208C184.993 116.125 185.046 116.829 185.153 117.32C185.26 117.789 185.43 118.12 185.665 118.312C185.9 118.482 186.198 118.568 186.561 118.568C186.881 118.568 187.201 118.536 187.521 118.472C187.862 118.386 188.182 118.269 188.481 118.12C188.78 118.546 188.94 119.144 188.961 119.912C188.513 120.253 187.873 120.541 187.041 120.776C186.23 120.989 185.388 121.096 184.513 121.096ZM198.522 121.096C196.602 121.096 195.044 120.765 193.85 120.104C192.676 119.442 191.812 118.546 191.258 117.416C190.703 116.285 190.426 115.016 190.426 113.608C190.426 112.029 190.735 110.664 191.354 109.512C191.972 108.36 192.868 107.464 194.042 106.824C195.215 106.184 196.591 105.864 198.17 105.864C199.748 105.864 201.05 106.162 202.074 106.76C203.098 107.336 203.855 108.146 204.346 109.192C204.858 110.216 205.135 111.41 205.178 112.776C205.007 113.48 204.698 114.045 204.25 114.472C203.631 114.472 202.927 114.472 202.138 114.472C201.348 114.472 200.516 114.482 199.642 114.504C198.788 114.504 197.914 114.525 197.018 114.568C196.143 114.61 195.3 114.664 194.49 114.728V112.424H200.378C200.378 110.973 200.186 109.874 199.802 109.128C199.439 108.381 198.884 108.008 198.138 108.008C197.647 108.008 197.21 108.189 196.826 108.552C196.463 108.893 196.186 109.416 195.994 110.12C195.802 110.802 195.706 111.656 195.706 112.68C195.706 113.789 195.844 114.781 196.122 115.656C196.399 116.53 196.858 117.213 197.498 117.704C198.138 118.194 199.002 118.44 200.09 118.44C200.836 118.44 201.583 118.312 202.33 118.056C203.076 117.8 203.695 117.469 204.186 117.064C204.399 117.192 204.591 117.448 204.762 117.832C204.932 118.194 205.018 118.568 205.018 118.952C204.186 119.656 203.236 120.189 202.17 120.552C201.124 120.914 199.908 121.096 198.522 121.096Z" fill="#5F260E"/>
</g>
<g filter="url(#filter6_d_502_3134)">
<path d="M245.15 144.505C260.759 144.505 273.412 131.851 273.412 116.242C273.412 100.633 260.759 87.9799 245.15 87.9799C229.541 87.9799 216.887 100.633 216.887 116.242C216.887 131.851 229.541 144.505 245.15 144.505Z" fill="url(#paint5_radial_502_3134)"/>
</g>
<defs>
<filter id="filter0_d_502_3134" x="91.2423" y="10.4307" width="76.5251" height="76.5251" filterUnits="userSpaceOnUse" color-interpolation-filters="sRGB">
<feFlood flood-opacity="0" result="BackgroundImageFix"/>
<feColorMatrix in="SourceAlpha" type="matrix" values="0 0 0 0 0 0 0 0 0 0 0 0 0 0 0 0 0 0 127 0" result="hardAlpha"/>
<feOffset dx="-3" dy="5.67"/>
<feGaussianBlur stdDeviation="5"/>
<feColorMatrix type="matrix" values="0 0 0 0 0.113725 0 0 0 0 0.113725 0 0 0 0 0.105882 0 0 0 0.5 0"/>
<feBlend mode="normal" in2="BackgroundImageFix" result="effect1_dropShadow_502_3134"/>
<feBlend mode="normal" in="SourceGraphic" in2="effect1_dropShadow_502_3134" result="shape"/>
</filter>
<filter id="filter1_d_502_3134" x="76.5984" y="141.099" width="76.5251" height="76.5251" filterUnits="userSpaceOnUse" color-interpolation-filters="sRGB">
<feFlood flood-opacity="0" result="BackgroundImageFix"/>
<feColorMatrix in="SourceAlpha" type="matrix" values="0 0 0 0 0 0 0 0 0 0 0 0 0 0 0 0 0 0 127 0" result="hardAlpha"/>
<feOffset dx="-3" dy="5.67"/>
<feGaussianBlur stdDeviation="5"/>
<feColorMatrix type="matrix" values="0 0 0 0 0.113725 0 0 0 0 0.113725 0 0 0 0 0.105882 0 0 0 0.5 0"/>
<feBlend mode="normal" in2="BackgroundImageFix" result="effect1_dropShadow_502_3134"/>
<feBlend mode="normal" in="SourceGraphic" in2="effect1_dropShadow_502_3134" result="shape"/>
</filter>
<filter id="filter2_d_502_3134" x="185.864" y="177.145" width="76.5251" height="76.5251" filterUnits="userSpaceOnUse" color-interpolation-filters="sRGB">
<feFlood flood-opacity="0" result="BackgroundImageFix"/>
<feColorMatrix in="SourceAlpha" type="matrix" values="0 0 0 0 0 0 0 0 0 0 0 0 0 0 0 0 0 0 127 0" result="hardAlpha"/>
<feOffset dx="-3" dy="5.67"/>
<feGaussianBlur stdDeviation="5"/>
<feColorMatrix type="matrix" values="0 0 0 0 0.113725 0 0 0 0 0.113725 0 0 0 0 0.105882 0 0 0 0.5 0"/>
<feBlend mode="normal" in2="BackgroundImageFix" result="effect1_dropShadow_502_3134"/>
<feBlend mode="normal" in="SourceGraphic" in2="effect1_dropShadow_502_3134" result="shape"/>
</filter>
<filter id="filter3_d_502_3134" x="0" y="66.7531" width="76.5251" height="76.5251" filterUnits="userSpaceOnUse" color-interpolation-filters="sRGB">
<feFlood flood-opacity="0" result="BackgroundImageFix"/>
<feColorMatrix in="SourceAlpha" type="matrix" values="0 0 0 0 0 0 0 0 0 0 0 0 0 0 0 0 0 0 127 0" result="hardAlpha"/>
<feOffset dx="-3" dy="5.67"/>
<feGaussianBlur stdDeviation="5"/>
<feColorMatrix type="matrix" values="0 0 0 0 0.113725 0 0 0 0 0.113725 0 0 0 0 0.105882 0 0 0 0.5 0"/>
<feBlend mode="normal" in2="BackgroundImageFix" result="effect1_dropShadow_502_3134"/>
<feBlend mode="normal" in="SourceGraphic" in2="effect1_dropShadow_502_3134" result="shape"/>
</filter>
<filter id="filter4_d_502_3134" x="175.726" y="2.54561" width="76.5251" height="76.5251" filterUnits="userSpaceOnUse" color-interpolation-filters="sRGB">
<feFlood flood-opacity="0" result="BackgroundImageFix"/>
<feColorMatrix in="SourceAlpha" type="matrix" values="0 0 0 0 0 0 0 0 0 0 0 0 0 0 0 0 0 0 127 0" result="hardAlpha"/>
<feOffset dx="-3" dy="5.67"/>
<feGaussianBlur stdDeviation="5"/>
<feColorMatrix type="matrix" values="0 0 0 0 0.113725 0 0 0 0 0.113725 0 0 0 0 0.105882 0 0 0 0.5 0"/>
<feBlend mode="normal" in2="BackgroundImageFix" result="effect1_dropShadow_502_3134"/>
<feBlend mode="normal" in="SourceGraphic" in2="effect1_dropShadow_502_3134" result="shape"/>
</filter>
<filter id="filter5_d_502_3134" x="78.0693" y="97.1635" width="131.808" height="32.6321" filterUnits="userSpaceOnUse" color-interpolation-filters="sRGB">
<feFlood flood-opacity="0" result="BackgroundImageFix"/>
<feColorMatrix in="SourceAlpha" type="matrix" values="0 0 0 0 0 0 0 0 0 0 0 0 0 0 0 0 0 0 127 0" result="hardAlpha"/>
<feOffset dy="4"/>
<feGaussianBlur stdDeviation="2.35"/>
<feComposite in2="hardAlpha" operator="out"/>
<feColorMatrix type="matrix" values="0 0 0 0 0 0 0 0 0 0 0 0 0 0 0 0 0 0 0.3 0"/>
<feBlend mode="normal" in2="BackgroundImageFix" result="effect1_dropShadow_502_3134"/>
<feBlend mode="normal" in="SourceGraphic" in2="effect1_dropShadow_502_3134" result="shape"/>
</filter>
<filter id="filter6_d_502_3134" x="203.887" y="83.6499" width="76.5251" height="76.5251" filterUnits="userSpaceOnUse" color-interpolation-filters="sRGB">
<feFlood flood-opacity="0" result="BackgroundImageFix"/>
<feColorMatrix in="SourceAlpha" type="matrix" values="0 0 0 0 0 0 0 0 0 0 0 0 0 0 0 0 0 0 127 0" result="hardAlpha"/>
<feOffset dx="-3" dy="5.67"/>
<feGaussianBlur stdDeviation="5"/>
<feColorMatrix type="matrix" values="0 0 0 0 0.113725 0 0 0 0 0.113725 0 0 0 0 0.105882 0 0 0 0.5 0"/>
<feBlend mode="normal" in2="BackgroundImageFix" result="effect1_dropShadow_502_3134"/>
<feBlend mode="normal" in="SourceGraphic" in2="effect1_dropShadow_502_3134" result="shape"/>
</filter>
<radialGradient id="paint0_radial_502_3134" cx="0" cy="0" r="1" gradientUnits="userSpaceOnUse" gradientTransform="translate(132.505 43.0233) scale(28.2626 28.2626)">
<stop stop-color="#AFE3E6"/>
<stop offset="0.255" stop-color="#5BD6DC"/>
<stop offset="0.63" stop-color="#08C8D2"/>
<stop offset="1" stop-color="#04A4AD"/>
</radialGradient>
<radialGradient id="paint1_radial_502_3134" cx="0" cy="0" r="1" gradientUnits="userSpaceOnUse" gradientTransform="translate(117.861 173.691) scale(28.2626 28.2626)">
<stop stop-color="#AFE3E6"/>
<stop offset="0.255" stop-color="#5BD6DC"/>
<stop offset="0.63" stop-color="#08C8D2"/>
<stop offset="1" stop-color="#04A4AD"/>
</radialGradient>
<radialGradient id="paint2_radial_502_3134" cx="0" cy="0" r="1" gradientUnits="userSpaceOnUse" gradientTransform="translate(227.126 209.738) scale(28.2626 28.2626)">
<stop stop-color="#D6E4E5"/>
<stop offset="0.63" stop-color="#9AAFB0"/>
<stop offset="1" stop-color="#7F8A8A"/>
</radialGradient>
<radialGradient id="paint3_radial_502_3134" cx="0" cy="0" r="1" gradientUnits="userSpaceOnUse" gradientTransform="translate(41.2626 99.3457) scale(28.2626 28.2626)">
<stop stop-color="#D6E4E5"/>
<stop offset="0.63" stop-color="#9AAFB0"/>
<stop offset="1" stop-color="#7F8A8A"/>
</radialGradient>
<radialGradient id="paint4_radial_502_3134" cx="0" cy="0" r="1" gradientUnits="userSpaceOnUse" gradientTransform="translate(216.988 35.1382) scale(28.2626 28.2626)">
<stop stop-color="#D6E4E5"/>
<stop offset="0.63" stop-color="#9AAFB0"/>
<stop offset="1" stop-color="#7F8A8A"/>
</radialGradient>
<radialGradient id="paint5_radial_502_3134" cx="0" cy="0" r="1" gradientUnits="userSpaceOnUse" gradientTransform="translate(245.15 116.242) scale(28.2626 28.2626)">
<stop stop-color="#AFE3E6"/>
<stop offset="0.255" stop-color="#5BD6DC"/>
<stop offset="0.63" stop-color="#08C8D2"/>
<stop offset="1" stop-color="#04A4AD"/>
</radialGradient>
</defs>
</svg>
