<svg width="125" height="141" viewBox="0 0 125 141" fill="none" xmlns="http://www.w3.org/2000/svg">
<g clip-path="url(#clip0_289_1349)">
<path d="M120.937 77.9854H-5.021V133.114H120.937V77.9854Z" fill="#FFD103"/>
<path d="M123.038 135.219H-7.12256V75.8809H123.038V135.219ZM-2.9193 131.01H118.835V80.0902H-2.9193V131.01Z" fill="white"/>
<path d="M120.937 133.114H-5.021V138.909H120.937V133.114Z" fill="#A7A6A6"/>
<path d="M123.038 141H-7.12256V130.996H123.038V141ZM-2.9193 136.791H118.835V135.205H-2.9193V136.791Z" fill="white"/>
<path d="M-5.021 77.9854L3.13333 66.0308H112.502L120.937 77.9854H-5.021Z" fill="#E52A21"/>
<path d="M125 80.0903H-9L2.02656 63.9263H113.595L125 80.0903ZM-1.04182 75.8809H116.874L111.409 68.1356H4.24028L-1.04182 75.8809Z" fill="white"/>
<path d="M37.0677 61.6391L33.7891 64.2208L25.1584 54.7217L55.2958 28.6797H60.0595L90.1549 56.7281L80.6135 65.0066L57.7477 45.433L37.0677 61.6391Z" fill="#E52A21"/>
<path d="M80.6275 67.785L57.6917 48.1553L33.551 67.0834L22.1602 54.5395L54.5253 26.5752H60.9002L93.3074 56.7845L80.6275 67.785ZM57.8038 42.7111L80.5995 62.2286L87.0025 56.6722L59.2329 30.7846H56.0805L28.1708 54.9043L34.0274 61.3587L57.8178 42.7111H57.8038Z" fill="white"/>
<path d="M37.0676 77.9856V60.208L57.7477 45.4331L79.1283 61.7094V77.9856H37.0676Z" fill="#FFD103"/>
<path d="M81.244 80.0902H34.9661V59.1276L57.7898 42.8232L81.244 60.671V80.0902ZM39.1693 75.8809H77.0267V62.7476L57.7057 48.0429L39.1693 61.2884V75.8809Z" fill="white"/>
<path d="M60.0597 2.58154C60.0597 2.58154 68.1299 4.26529 70.3577 5.89292C72.5854 7.52054 84.0603 4.23723 84.0603 4.23723V24.9474C84.0603 24.9474 78.1337 28.0342 69.9794 24.9474C61.825 21.8605 60.0457 21.8605 60.0457 21.8605V2.58154H60.0597Z" fill="#E52A21"/>
<path d="M77.2649 28.4273C74.9531 28.4273 72.235 28.0485 69.2507 26.926C61.965 24.1758 60.0456 23.9794 59.9615 23.9794H57.8599L57.9579 21.8747V0L60.4939 0.533187C61.923 0.827844 69.1386 2.39934 71.6045 4.20937C72.6553 4.61628 78.2597 3.71828 83.4998 2.21694L86.1758 1.44522V26.2244L85.041 26.8137C84.8588 26.9119 81.8745 28.4273 77.2649 28.4273ZM62.1612 20.1348C63.7444 20.5277 66.3785 21.3415 70.7359 22.9832C75.9479 24.9476 80.0671 24.1337 81.9726 23.5304V7.00159C76.8586 8.3065 71.2683 9.17644 69.1246 7.60494C68.1579 6.88934 65.0194 5.93522 62.1752 5.23365V20.1348H62.1612Z" fill="white"/>
<path d="M60.0596 2.58154H55.2959V28.6656H60.0596V2.58154Z" fill="#64A7DC"/>
<path d="M62.1613 30.7845H53.1943V0.477051H62.1613V30.7705V30.7845ZM57.3976 26.5752H57.958V4.68642H57.3976V26.5611V26.5752Z" fill="white"/>
<path d="M10.2931 87.3867H2.67114V103.775H10.2931V87.3867Z" fill="#64A7DC"/>
<path d="M27.6944 87.3867H20.0725V103.775H27.6944V87.3867Z" fill="#64A7DC"/>
<path d="M10.2931 107.999H2.67114V124.387H10.2931V107.999Z" fill="#64A7DC"/>
<path d="M27.6944 107.999H20.0725V124.387H27.6944V107.999Z" fill="#64A7DC"/>
<path d="M96.1375 87.3867H88.5156V103.775H96.1375V87.3867Z" fill="#64A7DC"/>
<path d="M113.539 87.3867H105.917V103.775H113.539V87.3867Z" fill="#64A7DC"/>
<path d="M96.1375 107.999H88.5156V124.387H96.1375V107.999Z" fill="#64A7DC"/>
<path d="M113.539 107.999H105.917V124.387H113.539V107.999Z" fill="#64A7DC"/>
<path d="M57.6638 75.4742C63.9548 75.4742 69.0546 70.48 69.0546 64.3194C69.0546 58.1587 63.9548 53.1646 57.6638 53.1646C51.3728 53.1646 46.2729 58.1587 46.2729 64.3194C46.2729 70.48 51.3728 75.4742 57.6638 75.4742Z" fill="#A7DAEA"/>
<path d="M57.2014 55.7603V65.1051H67.9337" stroke="#64A7DC" stroke-width="0.5" stroke-miterlimit="10"/>
<path d="M47.7581 130.911V104.729C47.7581 104.729 57.1594 89.7017 67.3172 104.729V130.911H47.7581Z" fill="#9E4217"/>
</g>
<defs>
<clipPath id="clip0_289_1349">
<rect width="134" height="141" fill="white" transform="translate(-9)"/>
</clipPath>
</defs>
</svg>
