<svg width="186" height="186" viewBox="0 0 186 186" fill="none" xmlns="http://www.w3.org/2000/svg">
<circle cx="93" cy="93" r="93" fill="#05A833"/>
<path d="M41.5567 97.5716C41.9016 93.9739 41.1695 91.0897 38.8172 88.2578C34.6886 83.2874 33.9415 77.1603 34.1815 70.8763C34.3758 65.7894 34.6392 60.6745 34.087 55.6156C33.2895 48.3095 38.0836 44.9003 43.9974 45.7601C44.8844 45.889 45.363 45.6143 45.6404 44.8065C46.9441 41.0106 51.0768 38.9816 55.6823 40.1207C56.7433 40.3831 57.3406 40.2076 58.0237 39.3612C61.1782 35.4526 65.9277 34.8989 69.825 37.9836C70.548 38.5559 71.0716 38.638 71.9212 38.2936C77.713 35.9459 82.6543 38.7242 83.4 44.8311C83.5811 46.3149 84.1464 46.7464 85.5004 46.6539C86.4157 46.5914 87.3451 46.573 88.2574 46.6548C92.2151 47.0096 95.6287 46.3444 98.903 43.5802C102.743 40.3385 107.711 39.3112 112.744 39.2485C119.575 39.1634 126.409 39.2964 133.238 39.1668C139.62 39.0457 141.646 44.5139 141.235 48.5185C141.142 49.4191 140.769 50.1539 142.027 50.7344C146.299 52.7059 147.751 55.6468 146.821 60.4642C146.572 61.7574 146.832 62.4169 147.847 63.2327C151.432 66.1149 151.922 70.9873 149.055 74.5913C148.469 75.3281 148.179 75.8303 148.639 76.8049C150.219 80.1548 149.752 83.2731 147.179 86.0009C146.697 86.5127 146.428 87.051 146.448 87.744C146.458 88.0702 146.478 88.3999 146.444 88.7229C146.085 92.1548 146.902 95.0155 149.224 97.8494C153.162 102.657 154 108.557 153.833 114.66C153.691 119.806 153.437 124.996 153.927 130.101C154.683 137.997 149.469 141.234 143.841 140.226C143.041 140.083 142.673 140.46 142.32 141.116C139.951 145.524 137.185 146.889 132.342 145.891C131.184 145.653 130.562 145.888 129.853 146.782C126.908 150.496 122.158 151.059 118.348 148.137C117.479 147.471 116.784 147.492 115.836 147.839C110.133 149.929 105.582 147.338 104.611 141.293C104.343 139.623 103.662 139.205 102.19 139.336C101.538 139.394 100.872 139.398 100.221 139.338C96.0001 138.95 92.3168 139.614 88.8349 142.583C85.1745 145.704 80.3657 146.68 75.5416 146.751C68.5801 146.852 61.6161 146.824 54.6534 146.791C49.4163 146.766 45.9676 142.605 46.7925 137.393C46.9279 136.537 47.1234 135.859 46.0206 135.314C41.5743 133.114 40.1984 130.211 41.2107 125.237C41.4127 124.244 41.2149 123.716 40.4599 123.08C36.42 119.68 35.9444 115.345 39.1763 111.195C39.7836 110.415 39.6918 109.858 39.3174 109.09C37.6982 105.767 38.322 102.738 40.7308 100.054C41.3644 99.3477 41.5893 98.6283 41.5567 97.5716ZM83.5776 68.7173C83.4461 70.4124 82.7693 71.6839 80.8452 71.623C78.9985 71.5646 78.4971 70.2316 78.3773 68.6606C78.3227 67.9451 78.2043 67.2307 78.2019 66.5154C78.1833 60.9004 78.1491 55.285 78.2057 49.6705C78.2214 48.1113 78.5161 46.5538 78.0896 45.0094C77.7089 43.6305 76.753 42.9409 75.3514 42.9297C73.8755 42.9179 73.0431 43.7486 72.8145 45.1568C72.7106 45.797 72.7058 46.4573 72.7032 47.1087C72.6918 49.9814 72.7038 52.8543 72.6922 55.7271C72.6895 56.3781 72.6792 57.0369 72.5805 57.6781C72.3337 59.2806 71.3252 60.1704 69.7299 60.0278C68.2283 59.8937 67.4273 58.8939 67.4157 57.3508C67.3842 53.1735 67.4464 48.9925 67.2827 44.8203C67.1962 42.6166 65.8358 41.353 64.1963 41.4626C62.6726 41.5644 61.7259 42.8879 61.7096 45.0993C61.6819 48.8858 61.7346 52.673 61.7007 56.4594C61.6801 58.7687 60.5243 60.107 58.7133 60.0701C57.0356 60.0358 56.088 58.7563 56.0641 56.3986C56.0343 53.4611 56.0493 50.5231 56.0378 47.5854C56.0319 46.0783 55.2426 45.3396 53.7467 45.2087C51.6575 45.0259 50.8873 45.6056 50.5534 47.6859C49.9907 51.1913 51.0254 54.7031 50.4381 58.2316C50.1647 59.8741 49.7084 61.0045 47.887 61.0654C46.2762 61.1193 45.2434 60.0665 45.1175 58.1563C45.0233 56.7255 45.1107 55.2839 45.0623 53.849C44.9939 51.8228 44.0592 50.8707 42.2157 50.8702C40.5405 50.8698 39.7197 51.7964 39.5958 53.8483C39.5683 54.3038 39.5826 54.7617 39.5781 55.2185C39.5205 61.0896 39.4151 66.9608 39.4204 72.8318C39.4249 77.7201 40.3779 82.5011 43.9012 86.0439C46.5637 88.7212 47.2172 91.5796 46.7822 95.0115C46.7577 95.2047 46.7963 95.4062 46.7674 95.5982C46.5306 97.1729 47.2406 97.6158 48.7763 97.5958C54.1611 97.5259 59.5475 97.5823 64.9333 97.5869C69.7823 97.5909 69.8374 97.5896 69.9204 92.8188C69.9556 90.797 70.6298 89.3515 72.4606 88.3431C74.0636 87.4602 75.5627 86.381 77.0624 85.3251C80.2796 83.0599 83.4943 80.774 86.0883 77.7828C87.3954 76.2756 88.641 74.5274 87.6637 72.4698C86.6488 70.3329 85.2382 68.3817 83.7956 66.0127C83.7179 67.1341 83.6732 67.7792 83.5776 68.7173ZM100.585 124.23C99.2718 122.122 98.0221 119.971 96.6263 117.918C95.2961 115.962 94.4158 113.913 94.6491 111.515C94.7676 110.297 94.1808 109.821 93.0533 109.883C91.2136 109.984 89.9501 109.185 89.0768 107.597C88.6067 106.743 88.0024 105.958 87.4315 105.161C84.8423 101.548 82.3506 97.8484 78.8945 94.9554C77.7979 94.0376 76.6463 93.1603 74.7608 93.5259C74.7608 95.1551 74.7535 96.7676 74.7623 98.3801C74.7833 102.246 74.1559 102.879 70.1864 102.883C63.0292 102.89 55.872 102.876 48.7149 102.879C47.9281 102.879 47.1169 102.821 46.3599 102.985C44.9463 103.291 44.0276 104.139 43.9949 105.691C43.9638 107.163 44.7226 108.024 46.1403 108.289C46.9083 108.433 47.6977 108.523 48.4784 108.53C51.63 108.557 54.782 108.53 57.9337 108.546C60.1054 108.557 61.1837 109.386 61.2457 111.039C61.3045 112.604 60.0979 113.739 58.0882 113.781C54.6756 113.853 51.2606 113.807 47.8467 113.827C46.8637 113.832 45.8636 113.789 44.9024 113.95C43.4297 114.198 42.536 115.179 42.5415 116.657C42.5467 118.042 43.3689 118.933 44.7872 119.233C46.4141 119.577 48.0462 119.508 49.6888 119.409C52.639 119.231 55.5973 119.159 58.5423 119.407C60.2754 119.553 61.4012 120.868 61.2407 122.432C61.0643 124.152 59.9681 124.894 58.267 124.884C55.378 124.866 52.4887 124.861 49.5997 124.88C47.2169 124.895 46.1718 125.766 46.1623 127.68C46.1529 129.579 47.2149 130.481 49.5977 130.501C52.8135 130.527 56.0303 130.471 59.2456 130.519C61.2478 130.548 62.182 131.45 62.1836 133.161C62.1852 134.839 61.2206 135.738 59.2316 135.811C57.7233 135.866 56.2116 135.83 54.7015 135.841C53.6339 135.849 52.7983 136.239 52.3176 137.249C51.793 138.352 51.8444 139.44 52.5528 140.403C53.2901 141.406 54.4559 141.454 55.5882 141.455C61.9574 141.463 68.3268 141.497 74.6958 141.46C80.4026 141.426 85.3649 139.502 89.3514 135.378C90.2954 134.401 91.3018 133.98 92.6473 134.004C95.9294 134.06 99.2137 133.99 102.496 134.039C103.751 134.058 104.273 133.59 104.283 132.328C104.294 130.921 104.115 129.639 103.254 128.446C102.337 127.176 101.567 125.802 100.585 124.23ZM115.259 137.455C115.29 134.519 115.253 131.58 115.379 128.649C115.448 127.035 116.313 125.846 118.107 125.963C119.835 126.077 120.47 127.194 120.58 128.897C120.813 132.485 120.817 136.07 120.771 139.659C120.761 140.44 120.787 141.226 120.861 142.004C121.019 143.658 122.13 144.505 123.633 144.496C125.192 144.488 126.201 143.499 126.219 141.863C126.263 137.686 126.205 133.508 126.272 129.332C126.306 127.22 127.6 125.86 129.286 125.925C130.93 125.988 131.897 127.226 131.92 129.411C131.95 132.283 131.886 135.155 131.94 138.026C131.979 140.128 132.799 140.853 134.849 140.806C136.723 140.762 137.464 139.953 137.575 137.745C137.738 134.492 137.102 131.25 137.505 127.981C137.711 126.307 138.076 125.018 140.074 124.965C141.837 124.917 142.771 125.877 142.878 127.99C142.957 129.553 142.912 131.122 142.956 132.687C142.985 133.751 143.402 134.533 144.521 134.907C146.737 135.648 148.323 134.678 148.343 132.284C148.403 125.171 148.392 118.056 148.342 110.943C148.313 106.81 147.097 102.842 144.176 100.03C141.298 97.2577 140.809 94.2466 141.204 90.7052C141.211 90.6406 141.2 90.5737 141.209 90.5097C141.458 88.8594 140.712 88.3886 139.099 88.4088C133.322 88.4813 127.543 88.4061 121.765 88.4258C117.8 88.4393 117.95 87.8539 118.126 92.0929C118.244 94.9179 117.244 96.648 114.804 98.1324C110.161 100.957 105.681 104.068 101.975 108.115C100.645 109.567 99.4416 111.328 100.208 113.221C101.124 115.482 102.675 117.489 103.95 119.607C104.225 118.331 104.227 117.215 104.578 116.151C104.976 114.944 105.862 114.395 107.133 114.436C108.428 114.478 109.265 115.119 109.467 116.382C109.652 117.538 109.774 118.718 109.777 119.887C109.79 125.957 109.751 132.027 109.746 138.097C109.745 139.008 109.728 139.937 109.889 140.827C110.158 142.309 111.157 143.101 112.665 143.072C114.127 143.043 114.961 142.158 115.15 140.768C115.282 139.804 115.229 138.815 115.259 137.455ZM90.6329 51.9743C89.3193 51.9747 88.0056 51.9751 86.692 51.9753C83.4097 51.9759 82.6396 53.2045 84.0219 56.2592C84.1823 56.6136 84.418 56.935 84.6255 57.2676C86.8057 60.7624 88.9705 64.2669 91.1749 67.7465C92.4887 69.8202 93.6237 71.9264 93.3292 74.5033C93.2257 75.4083 93.5126 76.1734 94.5829 75.998C96.8824 75.6211 98.0691 76.926 99.0977 78.6501C99.7329 79.7148 100.475 80.7184 101.198 81.7291C103.558 85.0288 105.896 88.3522 109.028 91.005C110.127 91.9358 111.308 92.7336 113.204 92.5974C113.204 90.5961 113.201 88.6625 113.205 86.729C113.209 84.1013 114.04 83.2032 116.729 83.1523C120.144 83.0878 123.56 83.1127 126.975 83.1124C131.507 83.1121 136.04 83.1612 140.571 83.1167C142.937 83.0935 144.286 81.7315 143.955 79.7985C143.609 77.7676 141.948 77.5432 140.349 77.5086C136.869 77.4332 133.387 77.4969 129.906 77.4703C127.865 77.4547 126.884 76.6402 126.803 74.9939C126.719 73.2845 127.742 72.2751 129.863 72.2232C133.079 72.1444 136.298 72.1836 139.516 72.1708C140.501 72.1669 141.488 72.1903 142.471 72.1423C144.237 72.056 145.338 71.1187 145.443 69.3649C145.552 67.5515 144.24 66.8268 142.699 66.6333C141.474 66.4795 140.213 66.6142 138.968 66.6175C135.817 66.6258 132.664 66.7118 129.517 66.6071C127.842 66.5514 126.668 65.1668 126.776 63.6217C126.897 61.8673 127.987 61.1321 129.69 61.1366C132.58 61.1442 135.47 61.1487 138.36 61.126C140.727 61.1074 141.843 60.2101 141.88 58.3582C141.917 56.4883 140.828 55.5461 138.44 55.5161C135.162 55.4748 131.883 55.5136 128.605 55.4921C126.913 55.481 125.847 54.7114 125.777 52.9283C125.711 51.2472 126.723 50.2638 128.644 50.1898C130.218 50.1291 131.797 50.1838 133.372 50.14C134.529 50.1078 135.337 49.5535 135.768 48.4395C136.188 47.3524 136.03 46.3298 135.312 45.4977C134.522 44.5815 133.329 44.5652 132.208 44.5625C125.64 44.5464 119.07 44.4588 112.504 44.5748C108.06 44.6533 103.696 45.7814 100.581 48.9541C97.9197 51.6642 95.0698 52.3334 91.617 51.9772C91.4221 51.9571 91.2232 51.9745 90.6329 51.9743ZM87.3343 84.2353C85.2331 86.0429 83.1318 87.8506 80.8312 89.8298C86.0818 93.758 89.8931 98.6168 93.3054 103.817C93.6998 104.418 94.2688 104.588 94.9756 104.647C96.8307 104.803 98.336 104.478 99.6259 102.88C101.707 100.302 104.57 98.4995 107.222 96.1997C101.925 92.3434 98.1202 87.4841 94.7653 82.2399C94.3712 81.6239 93.8224 81.481 93.1385 81.3429C90.5465 80.8195 88.9667 82.248 87.3343 84.2353Z" fill="white"/>
</svg>
