<svg width="375" height="274" viewBox="0 0 375 274" fill="none" xmlns="http://www.w3.org/2000/svg">
<rect width="375" height="255" fill="#FFD200"/>
<path d="M111.853 94.36C109.479 94.36 107.493 93.9867 105.893 93.24C104.293 92.4933 103.093 91.44 102.293 90.08C101.519 88.6933 101.133 87.0667 101.133 85.2C101.133 82.9333 101.626 81.08 102.613 79.64C103.599 78.1733 104.933 77.0933 106.613 76.4C108.293 75.68 110.159 75.32 112.213 75.32C114.666 75.32 116.693 75.72 118.293 76.52C119.893 77.32 121.079 78.4133 121.853 79.8C122.653 81.16 123.053 82.7333 123.053 84.52C123.053 86.6 122.599 88.3733 121.693 89.84C120.813 91.3067 119.533 92.4267 117.853 93.2C116.173 93.9733 114.173 94.36 111.853 94.36ZM112.613 91.28C113.519 91.28 114.213 90.76 114.693 89.72C115.199 88.6533 115.453 87.36 115.453 85.84C115.453 84.1067 115.266 82.68 114.893 81.56C114.519 80.4133 114.039 79.5733 113.453 79.04C112.893 78.48 112.279 78.2 111.613 78.2C110.626 78.2 109.893 78.7467 109.413 79.84C108.959 80.9067 108.733 82.1867 108.733 83.68C108.733 85.04 108.866 86.3067 109.133 87.48C109.426 88.6267 109.866 89.5467 110.453 90.24C111.039 90.9333 111.759 91.28 112.613 91.28ZM126.518 85.84V83.2C126.518 82.32 126.465 81.64 126.358 81.16C126.251 80.68 125.998 80.3333 125.598 80.12C125.198 79.88 124.558 79.72 123.678 79.64C123.678 79.1333 123.705 78.6133 123.758 78.08C123.838 77.5467 123.985 77.0667 124.198 76.64C126.171 76.64 127.931 76.5067 129.478 76.24C131.025 75.9467 132.118 75.64 132.758 75.32C133.211 75.5067 133.545 75.8133 133.758 76.24C133.998 76.64 134.118 77.1867 134.118 77.88L126.518 85.84ZM147.558 87.52C147.558 88.8267 147.678 89.7333 147.918 90.24C148.158 90.7467 148.611 91 149.278 91C149.465 91.4267 149.585 91.8933 149.638 92.4C149.691 92.88 149.718 93.4533 149.718 94.12C149.131 94.0933 148.291 94.0667 147.198 94.04C146.105 94.0133 145.091 94 144.158 94C143.545 94 142.798 94 141.918 94C141.038 94.0267 140.198 94.04 139.398 94.04C138.625 94.0667 138.038 94.0933 137.638 94.12C137.638 93.56 137.651 93.0267 137.678 92.52C137.731 91.9867 137.851 91.48 138.038 91C138.598 91 139.051 90.72 139.398 90.16C139.771 89.6 139.958 88.5733 139.958 87.08V84.32C139.958 82.8 139.758 81.7333 139.358 81.12C138.958 80.5067 138.331 80.2 137.478 80.2C136.838 80.2 136.265 80.4667 135.758 81C135.251 81.5333 134.851 82.2667 134.558 83.2C134.265 84.1067 134.118 85.1733 134.118 86.4V87.52C134.118 88.9067 134.278 89.84 134.598 90.32C134.945 90.7733 135.411 91 135.998 91C136.211 91.5067 136.331 92 136.358 92.48C136.411 92.96 136.438 93.5067 136.438 94.12C136.038 94.0933 135.478 94.0667 134.758 94.04C134.038 94.04 133.278 94.0267 132.478 94C131.705 94 130.985 94 130.318 94C129.678 94 128.905 94 127.998 94C127.091 94.0267 126.225 94.04 125.398 94.04C124.571 94.0667 123.958 94.0933 123.558 94.12C123.558 93.5067 123.585 92.92 123.638 92.36C123.718 91.8 123.825 91.3467 123.958 91C124.998 91 125.678 90.76 125.998 90.28C126.345 89.7733 126.518 88.8533 126.518 87.52V83.2L134.118 77.88C134.118 78.2 134.065 78.5733 133.958 79C133.878 79.4267 133.771 79.8667 133.638 80.32C133.851 79.7867 134.078 79.2933 134.318 78.84C134.558 78.3867 134.851 77.9867 135.198 77.64C135.838 77 136.611 76.4933 137.518 76.12C138.451 75.72 139.478 75.52 140.598 75.52C141.798 75.52 142.931 75.7467 143.998 76.2C145.065 76.6267 145.918 77.32 146.558 78.28C147.225 79.24 147.558 80.4933 147.558 82.04V87.52ZM159.98 94.36C157.42 94.36 155.353 93.96 153.78 93.16C152.233 92.3333 151.1 91.2267 150.38 89.84C149.66 88.4267 149.3 86.8267 149.3 85.04C149.3 82.9867 149.713 81.24 150.54 79.8C151.367 78.36 152.54 77.2533 154.06 76.48C155.607 75.7067 157.407 75.32 159.46 75.32C161.54 75.32 163.247 75.68 164.58 76.4C165.94 77.12 166.953 78.1467 167.62 79.48C168.287 80.7867 168.633 82.32 168.66 84.08C168.42 85.0667 167.98 85.8533 167.34 86.44C166.46 86.44 165.513 86.4533 164.5 86.48C163.487 86.48 162.447 86.4933 161.38 86.52C160.313 86.52 159.247 86.5467 158.18 86.6C157.113 86.6533 156.087 86.72 155.1 86.8V83.64H162.06C162.06 81.8267 161.847 80.48 161.42 79.6C161.02 78.72 160.407 78.28 159.58 78.28C158.967 78.28 158.447 78.5067 158.02 78.96C157.62 79.4133 157.313 80.0533 157.1 80.88C156.913 81.7067 156.82 82.68 156.82 83.8C156.82 85.2133 156.993 86.44 157.34 87.48C157.713 88.52 158.287 89.32 159.06 89.88C159.86 90.4133 160.9 90.68 162.18 90.68C163.14 90.68 164.1 90.5333 165.06 90.24C166.02 89.9467 166.793 89.5867 167.38 89.16C167.673 89.3467 167.927 89.7067 168.14 90.24C168.353 90.7733 168.46 91.3333 168.46 91.92C167.367 92.6667 166.14 93.2667 164.78 93.72C163.42 94.1467 161.82 94.36 159.98 94.36ZM187.025 76.08C187.025 76.3467 186.998 76.6533 186.945 77C186.891 77.32 186.785 77.6133 186.625 77.88C185.851 77.88 185.118 77.9333 184.425 78.04C183.758 78.12 183.145 78.2533 182.585 78.44V76.08H187.025ZM179.345 74.48C179.345 72.48 179.745 70.8133 180.545 69.48C181.371 68.12 182.425 67.1067 183.705 66.44C184.985 65.7733 186.318 65.44 187.705 65.44C188.745 65.44 189.531 65.5467 190.065 65.76C190.598 65.9467 191.078 66.1733 191.505 66.44C191.451 67.2667 191.411 68.08 191.385 68.88C191.358 69.6533 191.345 70.4 191.345 71.12C190.998 71.2267 190.625 71.3067 190.225 71.36C189.825 71.4133 189.438 71.44 189.065 71.44C189.065 70.3467 188.825 69.44 188.345 68.72C187.865 68 187.065 67.64 185.945 67.64C185.225 67.64 184.638 67.8667 184.185 68.32C183.758 68.7467 183.438 69.3733 183.225 70.2C183.038 71.0267 182.945 72.04 182.945 73.24V85.12H179.345V74.48ZM179.945 76.08V78.36C179.278 78.1733 178.598 78.0533 177.905 78C177.211 77.92 176.625 77.88 176.145 77.88C176.145 77.5333 176.185 77.2133 176.265 76.92C176.371 76.6267 176.518 76.3467 176.705 76.08H179.945ZM182.945 88.12C182.945 89.2667 183.065 90.1467 183.305 90.76C183.545 91.3467 183.931 91.76 184.465 92C184.998 92.2133 185.678 92.3467 186.505 92.4C186.585 92.6133 186.638 92.8667 186.665 93.16C186.691 93.4267 186.705 93.7467 186.705 94.12C186.305 94.0933 185.825 94.0667 185.265 94.04C184.731 94.04 184.158 94.0267 183.545 94C182.931 94 182.305 94 181.665 94C180.731 94 179.745 94 178.705 94C177.691 94.0267 176.918 94.0667 176.385 94.12C176.385 93.7467 176.398 93.4267 176.425 93.16C176.451 92.8667 176.505 92.6133 176.585 92.4C177.305 92.3467 177.865 92.2267 178.265 92.04C178.665 91.8267 178.945 91.48 179.105 91C179.265 90.4933 179.345 89.8 179.345 88.92V84.92H182.945V88.12ZM197.417 94.36C195.603 94.36 194.017 93.9733 192.657 93.2C191.297 92.4 190.243 91.2933 189.497 89.88C188.75 88.44 188.377 86.76 188.377 84.84C188.377 83.0267 188.763 81.4 189.537 79.96C190.31 78.52 191.377 77.3867 192.737 76.56C194.097 75.7333 195.657 75.32 197.417 75.32C199.31 75.32 200.923 75.72 202.257 76.52C203.617 77.32 204.657 78.44 205.377 79.88C206.097 81.2933 206.457 82.9467 206.457 84.84C206.457 86.6533 206.07 88.28 205.297 89.72C204.55 91.16 203.497 92.2933 202.137 93.12C200.803 93.9467 199.23 94.36 197.417 94.36ZM197.737 92.44C199.337 92.44 200.523 91.7867 201.297 90.48C202.07 89.1467 202.457 87.4267 202.457 85.32C202.457 83.6667 202.203 82.24 201.697 81.04C201.217 79.8133 200.563 78.88 199.737 78.24C198.91 77.5733 198.003 77.24 197.017 77.24C195.47 77.24 194.31 77.8667 193.537 79.12C192.79 80.3733 192.417 82 192.417 84C192.417 85.7867 192.63 87.32 193.057 88.6C193.51 89.8533 194.137 90.8133 194.937 91.48C195.737 92.12 196.67 92.44 197.737 92.44ZM214.506 88.12C214.506 89.2667 214.626 90.1467 214.866 90.76C215.106 91.3467 215.492 91.76 216.026 92C216.559 92.2133 217.239 92.3467 218.066 92.4C218.146 92.6133 218.199 92.8667 218.226 93.16C218.252 93.4267 218.266 93.7467 218.266 94.12C217.866 94.0933 217.386 94.0667 216.826 94.04C216.292 94.04 215.719 94.0267 215.106 94C214.492 94 213.866 94 213.226 94C212.292 94 211.306 94 210.266 94C209.252 94.0267 208.479 94.0667 207.946 94.12C207.946 93.7467 207.959 93.4267 207.986 93.16C208.012 92.8667 208.066 92.6133 208.146 92.4C208.866 92.3467 209.426 92.2267 209.826 92.04C210.226 91.8267 210.506 91.48 210.666 91C210.826 90.4933 210.906 89.8 210.906 88.92V84.92H214.506V88.12ZM214.506 82.28V85.44H210.906V81L214.506 77.08C214.506 77.9867 214.426 78.8133 214.266 79.56C214.106 80.28 213.959 81 213.826 81.72L214.506 82.28ZM213.626 81.96C213.919 81.2133 214.146 80.6 214.306 80.12C214.466 79.64 214.639 79.24 214.826 78.92C215.412 77.9867 216.106 77.2133 216.906 76.6C217.706 75.9867 218.626 75.68 219.666 75.68C220.679 75.68 221.599 76 222.426 76.64C222.372 77.0667 222.319 77.56 222.266 78.12C222.212 78.68 222.172 79.24 222.146 79.8C222.146 80.36 222.146 80.88 222.146 81.36C221.906 81.44 221.572 81.52 221.146 81.6C220.746 81.68 220.319 81.72 219.866 81.72C219.812 80.44 219.599 79.6 219.226 79.2C218.879 78.8 218.439 78.6 217.906 78.6C217.452 78.6 216.959 78.8667 216.426 79.4C215.892 79.9067 215.439 80.5867 215.066 81.44C214.692 82.2933 214.506 83.24 214.506 84.28L213.626 81.96ZM210.906 85.44V81C210.906 80.36 210.839 79.84 210.706 79.44C210.572 79.04 210.292 78.7333 209.866 78.52C209.439 78.3067 208.786 78.1867 207.906 78.16C207.906 77.8667 207.932 77.6 207.986 77.36C208.039 77.12 208.132 76.8933 208.266 76.68C209.092 76.6267 210.039 76.4667 211.106 76.2C212.172 75.9333 213.012 75.64 213.626 75.32C213.866 75.4 214.066 75.5733 214.226 75.84C214.412 76.08 214.506 76.4933 214.506 77.08L210.906 85.44ZM241.751 94.36C241.458 94.2267 241.218 93.9867 241.031 93.64C240.871 93.2933 240.791 92.7467 240.791 92C240.791 91.76 240.805 91.48 240.831 91.16C240.858 90.8133 240.911 90.5067 240.991 90.24H241.071C240.991 90.6667 240.805 91.1333 240.511 91.64C240.245 92.12 239.885 92.5467 239.431 92.92C238.978 93.32 238.405 93.6533 237.711 93.92C237.018 94.16 236.178 94.28 235.191 94.28C233.511 94.28 232.231 93.9067 231.351 93.16C230.471 92.3867 230.031 91.3467 230.031 90.04C230.031 89 230.271 88.12 230.751 87.4C231.258 86.6533 231.898 86.04 232.671 85.56C233.471 85.0533 234.325 84.6533 235.231 84.36C236.165 84.0667 237.071 83.84 237.951 83.68C238.831 83.52 239.605 83.3867 240.271 83.28C240.271 82.1867 240.245 81.3333 240.191 80.72C240.165 80.1067 240.085 79.6267 239.951 79.28C239.845 78.9067 239.671 78.5867 239.431 78.32C239.111 77.92 238.738 77.6267 238.311 77.44C237.911 77.2267 237.458 77.12 236.951 77.12C236.071 77.12 235.378 77.4 234.871 77.96C234.365 78.4933 234.005 79.12 233.791 79.84C233.578 80.56 233.458 81.2 233.431 81.76C233.138 81.76 232.765 81.7467 232.311 81.72C231.885 81.6667 231.565 81.5867 231.351 81.48C231.405 80.8133 231.418 80.0667 231.391 79.24C231.365 78.4133 231.285 77.7067 231.151 77.12C232.245 76.56 233.391 76.12 234.591 75.8C235.818 75.48 236.938 75.32 237.951 75.32C238.938 75.32 239.778 75.4667 240.471 75.76C241.191 76.0267 241.765 76.3867 242.191 76.84C242.885 77.5067 243.338 78.3867 243.551 79.48C243.765 80.5467 243.871 81.9733 243.871 83.76V88.16C243.871 88.9067 243.925 89.5067 244.031 89.96C244.165 90.3867 244.405 90.7067 244.751 90.92C245.098 91.1067 245.631 91.2267 246.351 91.28C246.351 91.5467 246.338 91.8533 246.311 92.2C246.285 92.52 246.218 92.8267 246.111 93.12C245.445 93.1467 244.698 93.28 243.871 93.52C243.071 93.7333 242.365 94.0133 241.751 94.36ZM236.311 92.08C236.898 92.08 237.498 91.8933 238.111 91.52C238.725 91.12 239.231 90.5067 239.631 89.68C240.058 88.8533 240.271 87.7733 240.271 86.44V84.92C239.605 85 238.898 85.12 238.151 85.28C237.405 85.4133 236.711 85.6267 236.071 85.92C235.431 86.2133 234.911 86.6267 234.511 87.16C234.111 87.6667 233.911 88.36 233.911 89.24C233.911 90.2267 234.151 90.9467 234.631 91.4C235.111 91.8533 235.671 92.08 236.311 92.08ZM247.793 94.12C247.793 93.8533 247.806 93.5733 247.833 93.28C247.86 92.96 247.913 92.6667 247.993 92.4C249.06 92.4 249.78 92.16 250.153 91.68C250.553 91.1733 250.753 90.2533 250.753 88.92V71C250.753 70.36 250.686 69.84 250.553 69.44C250.446 69.0133 250.18 68.6933 249.753 68.48C249.326 68.2667 248.66 68.16 247.753 68.16C247.753 67.8667 247.78 67.6 247.833 67.36C247.886 67.12 247.98 66.8933 248.113 66.68C248.513 66.68 249.073 66.6133 249.793 66.48C250.54 66.3467 251.26 66.1733 251.953 65.96C252.646 65.7467 253.153 65.5333 253.473 65.32C253.713 65.4 253.913 65.56 254.073 65.8C254.26 66.04 254.353 66.4133 254.353 66.92V88.92C254.353 90.2533 254.526 91.1733 254.873 91.68C255.246 92.16 255.86 92.4 256.713 92.4C256.793 92.6667 256.846 92.9733 256.873 93.32C256.9 93.6667 256.913 93.9333 256.913 94.12C256.46 94.0933 255.98 94.0667 255.473 94.04C254.966 94.04 254.446 94.0267 253.913 94C253.406 94 252.9 94 252.393 94C251.886 94 251.353 94 250.793 94C250.26 94.0267 249.74 94.04 249.233 94.04C248.726 94.0667 248.246 94.0933 247.793 94.12ZM258.146 94.12C258.146 93.8533 258.16 93.5733 258.186 93.28C258.213 92.96 258.266 92.6667 258.346 92.4C259.413 92.4 260.133 92.16 260.506 91.68C260.906 91.1733 261.106 90.2533 261.106 88.92V71C261.106 70.36 261.04 69.84 260.906 69.44C260.8 69.0133 260.533 68.6933 260.106 68.48C259.68 68.2667 259.013 68.16 258.106 68.16C258.106 67.8667 258.133 67.6 258.186 67.36C258.24 67.12 258.333 66.8933 258.466 66.68C258.866 66.68 259.426 66.6133 260.146 66.48C260.893 66.3467 261.613 66.1733 262.306 65.96C263 65.7467 263.506 65.5333 263.826 65.32C264.066 65.4 264.266 65.56 264.426 65.8C264.613 66.04 264.706 66.4133 264.706 66.92V88.92C264.706 90.2533 264.88 91.1733 265.226 91.68C265.6 92.16 266.213 92.4 267.066 92.4C267.146 92.6667 267.2 92.9733 267.226 93.32C267.253 93.6667 267.266 93.9333 267.266 94.12C266.813 94.0933 266.333 94.0667 265.826 94.04C265.32 94.04 264.8 94.0267 264.266 94C263.76 94 263.253 94 262.746 94C262.24 94 261.706 94 261.146 94C260.613 94.0267 260.093 94.04 259.586 94.04C259.08 94.0667 258.6 94.0933 258.146 94.12ZM67.5166 131.6C68.2899 130.347 68.8766 129.307 69.2766 128.48C69.6766 127.627 69.9699 126.827 70.1566 126.08C70.3699 125.147 70.3166 124.48 69.9966 124.08C69.6766 123.68 69.0232 123.387 68.0366 123.2C67.8766 122.72 67.7699 122.28 67.7166 121.88C67.6632 121.48 67.6366 121.04 67.6366 120.56C68.2766 120.613 69.0766 120.653 70.0366 120.68C71.0232 120.68 71.8499 120.68 72.5166 120.68C73.1832 120.68 73.8766 120.68 74.5966 120.68C75.3166 120.653 76.0099 120.613 76.6766 120.56C76.6766 121.013 76.6499 121.453 76.5966 121.88C76.5699 122.28 76.4899 122.72 76.3566 123.2C75.6632 123.387 75.1432 123.6 74.7966 123.84C74.4499 124.08 74.1699 124.387 73.9566 124.76C73.7699 125.133 73.5699 125.613 73.3566 126.2C73.0366 127.053 72.7432 127.8 72.4766 128.44C72.2366 129.053 71.9432 129.707 71.5966 130.4C71.2499 131.093 70.7966 131.973 70.2366 133.04L67.5166 131.6ZM72.5566 132.64C73.1432 133.253 73.6632 133.72 74.1166 134.04C74.5699 134.333 75.0232 134.547 75.4766 134.68C75.9299 134.787 76.4632 134.853 77.0766 134.88C77.0766 135.44 77.0232 136.08 76.9166 136.8C76.8366 137.493 76.7032 138.093 76.5166 138.6C75.7966 138.6 74.9832 138.64 74.0766 138.72C73.1699 138.773 72.2499 138.853 71.3166 138.96C70.3832 139.067 69.5032 139.2 68.6766 139.36C66.8899 136.987 65.1166 134.76 63.3566 132.68C61.6232 130.6 60.0232 128.613 58.5566 126.72C57.2499 125.013 56.2366 123.573 55.5166 122.4C54.8232 121.227 54.3299 120.2 54.0366 119.32C53.7699 118.413 53.6366 117.533 53.6366 116.68C53.6366 115.427 53.9166 114.32 54.4766 113.36C55.0632 112.4 56.0766 111.653 57.5166 111.12C58.9566 110.587 60.9432 110.32 63.4766 110.32C64.9699 110.32 66.3432 110.427 67.5966 110.64C68.8766 110.853 70.1432 111.227 71.3966 111.76C71.1832 112.533 71.0499 113.467 70.9966 114.56C70.9699 115.627 70.9966 116.747 71.0766 117.92C70.4099 118.08 69.6899 118.2 68.9166 118.28C68.1699 118.36 67.3699 118.4 66.5166 118.4C66.4099 116.827 66.1032 115.6 65.5966 114.72C65.0899 113.84 64.3032 113.4 63.2366 113.4C62.5966 113.4 62.0899 113.587 61.7166 113.96C61.3699 114.307 61.1966 114.933 61.1966 115.84C61.1966 116.453 61.3032 117.093 61.5166 117.76C61.7566 118.427 62.1432 119.2 62.6766 120.08C63.2366 120.96 63.9966 122.053 64.9566 123.36C65.3566 123.893 65.8632 124.56 66.4766 125.36C67.0899 126.16 67.7566 127 68.4766 127.88C69.1966 128.76 69.9032 129.627 70.5966 130.48C71.3166 131.307 71.9699 132.027 72.5566 132.64ZM61.4366 136.16C62.2899 136.16 63.0499 135.947 63.7166 135.52C64.4099 135.067 65.1032 134.36 65.7966 133.4L68.2766 135.4C67.0499 136.76 65.7432 137.773 64.3566 138.44C62.9966 139.08 61.2232 139.4 59.0366 139.4C57.3832 139.4 55.9299 139.227 54.6766 138.88C53.4499 138.507 52.4232 137.973 51.5966 137.28C50.7966 136.56 50.1966 135.707 49.7966 134.72C49.3966 133.707 49.1966 132.56 49.1966 131.28C49.1966 129.067 49.7832 127.28 50.9566 125.92C52.1299 124.533 53.7966 123.387 55.9566 122.48L58.2766 125.28C57.8499 125.627 57.5032 126.133 57.2366 126.8C56.9699 127.467 56.8366 128.427 56.8366 129.68C56.8366 131.253 57.0499 132.52 57.4766 133.48C57.9032 134.413 58.4632 135.093 59.1566 135.52C59.8766 135.947 60.6366 136.16 61.4366 136.16ZM97.7528 139.36C97.4595 139.227 97.2195 138.987 97.0328 138.64C96.8728 138.293 96.7928 137.747 96.7928 137C96.7928 136.76 96.8062 136.48 96.8328 136.16C96.8595 135.813 96.9128 135.507 96.9928 135.24H97.0728C96.9928 135.667 96.8062 136.133 96.5128 136.64C96.2462 137.12 95.8862 137.547 95.4328 137.92C94.9795 138.32 94.4062 138.653 93.7128 138.92C93.0195 139.16 92.1795 139.28 91.1928 139.28C89.5128 139.28 88.2328 138.907 87.3528 138.16C86.4728 137.387 86.0328 136.347 86.0328 135.04C86.0328 134 86.2728 133.12 86.7528 132.4C87.2595 131.653 87.8995 131.04 88.6728 130.56C89.4728 130.053 90.3262 129.653 91.2328 129.36C92.1662 129.067 93.0728 128.84 93.9528 128.68C94.8328 128.52 95.6062 128.387 96.2728 128.28C96.2728 127.187 96.2462 126.333 96.1928 125.72C96.1662 125.107 96.0862 124.627 95.9528 124.28C95.8462 123.907 95.6728 123.587 95.4328 123.32C95.1128 122.92 94.7395 122.627 94.3128 122.44C93.9128 122.227 93.4595 122.12 92.9528 122.12C92.0728 122.12 91.3795 122.4 90.8728 122.96C90.3662 123.493 90.0062 124.12 89.7928 124.84C89.5795 125.56 89.4595 126.2 89.4328 126.76C89.1395 126.76 88.7662 126.747 88.3128 126.72C87.8862 126.667 87.5662 126.587 87.3528 126.48C87.4062 125.813 87.4195 125.067 87.3928 124.24C87.3662 123.413 87.2862 122.707 87.1528 122.12C88.2462 121.56 89.3928 121.12 90.5928 120.8C91.8195 120.48 92.9395 120.32 93.9528 120.32C94.9395 120.32 95.7795 120.467 96.4728 120.76C97.1928 121.027 97.7662 121.387 98.1928 121.84C98.8862 122.507 99.3395 123.387 99.5528 124.48C99.7662 125.547 99.8728 126.973 99.8728 128.76V133.16C99.8728 133.907 99.9262 134.507 100.033 134.96C100.166 135.387 100.406 135.707 100.753 135.92C101.099 136.107 101.633 136.227 102.353 136.28C102.353 136.547 102.339 136.853 102.313 137.2C102.286 137.52 102.219 137.827 102.113 138.12C101.446 138.147 100.699 138.28 99.8728 138.52C99.0728 138.733 98.3662 139.013 97.7528 139.36ZM92.3128 137.08C92.8995 137.08 93.4995 136.893 94.1128 136.52C94.7262 136.12 95.2328 135.507 95.6328 134.68C96.0595 133.853 96.2728 132.773 96.2728 131.44V129.92C95.6062 130 94.8995 130.12 94.1528 130.28C93.4062 130.413 92.7128 130.627 92.0728 130.92C91.4328 131.213 90.9128 131.627 90.5128 132.16C90.1128 132.667 89.9128 133.36 89.9128 134.24C89.9128 135.227 90.1528 135.947 90.6328 136.4C91.1128 136.853 91.6728 137.08 92.3128 137.08ZM103.795 139.12C103.795 138.853 103.808 138.573 103.835 138.28C103.861 137.96 103.915 137.667 103.995 137.4C105.061 137.4 105.781 137.16 106.155 136.68C106.555 136.173 106.755 135.253 106.755 133.92V116C106.755 115.36 106.688 114.84 106.555 114.44C106.448 114.013 106.181 113.693 105.755 113.48C105.328 113.267 104.661 113.16 103.755 113.16C103.755 112.867 103.781 112.6 103.835 112.36C103.888 112.12 103.981 111.893 104.115 111.68C104.515 111.68 105.075 111.613 105.795 111.48C106.541 111.347 107.261 111.173 107.955 110.96C108.648 110.747 109.155 110.533 109.475 110.32C109.715 110.4 109.915 110.56 110.075 110.8C110.261 111.04 110.355 111.413 110.355 111.92V133.92C110.355 135.253 110.528 136.173 110.875 136.68C111.248 137.16 111.861 137.4 112.715 137.4C112.795 137.667 112.848 137.973 112.875 138.32C112.901 138.667 112.915 138.933 112.915 139.12C112.461 139.093 111.981 139.067 111.475 139.04C110.968 139.04 110.448 139.027 109.915 139C109.408 139 108.901 139 108.395 139C107.888 139 107.355 139 106.795 139C106.261 139.027 105.741 139.04 105.235 139.04C104.728 139.067 104.248 139.093 103.795 139.12ZM114.148 139.12C114.148 138.853 114.161 138.573 114.188 138.28C114.214 137.96 114.268 137.667 114.348 137.4C115.414 137.4 116.134 137.16 116.508 136.68C116.908 136.173 117.108 135.253 117.108 133.92V116C117.108 115.36 117.041 114.84 116.908 114.44C116.801 114.013 116.534 113.693 116.108 113.48C115.681 113.267 115.014 113.16 114.108 113.16C114.108 112.867 114.134 112.6 114.188 112.36C114.241 112.12 114.334 111.893 114.468 111.68C114.868 111.68 115.428 111.613 116.148 111.48C116.894 111.347 117.614 111.173 118.308 110.96C119.001 110.747 119.508 110.533 119.828 110.32C120.068 110.4 120.268 110.56 120.428 110.8C120.614 111.04 120.708 111.413 120.708 111.92V133.92C120.708 135.253 120.881 136.173 121.228 136.68C121.601 137.16 122.214 137.4 123.068 137.4C123.148 137.667 123.201 137.973 123.228 138.32C123.254 138.667 123.268 138.933 123.268 139.12C122.814 139.093 122.334 139.067 121.828 139.04C121.321 139.04 120.801 139.027 120.268 139C119.761 139 119.254 139 118.748 139C118.241 139 117.708 139 117.148 139C116.614 139.027 116.094 139.04 115.588 139.04C115.081 139.067 114.601 139.093 114.148 139.12ZM141.789 121.08C141.789 121.347 141.762 121.653 141.709 122C141.655 122.32 141.549 122.613 141.389 122.88C140.615 122.88 139.882 122.933 139.189 123.04C138.522 123.12 137.909 123.253 137.349 123.44V121.08H141.789ZM134.109 119.48C134.109 117.48 134.509 115.813 135.309 114.48C136.135 113.12 137.189 112.107 138.469 111.44C139.749 110.773 141.082 110.44 142.469 110.44C143.509 110.44 144.295 110.547 144.829 110.76C145.362 110.947 145.842 111.173 146.269 111.44C146.215 112.267 146.175 113.08 146.149 113.88C146.122 114.653 146.109 115.4 146.109 116.12C145.762 116.227 145.389 116.307 144.989 116.36C144.589 116.413 144.202 116.44 143.829 116.44C143.829 115.347 143.589 114.44 143.109 113.72C142.629 113 141.829 112.64 140.709 112.64C139.989 112.64 139.402 112.867 138.949 113.32C138.522 113.747 138.202 114.373 137.989 115.2C137.802 116.027 137.709 117.04 137.709 118.24V130.12H134.109V119.48ZM134.709 121.08V123.36C134.042 123.173 133.362 123.053 132.669 123C131.975 122.92 131.389 122.88 130.909 122.88C130.909 122.533 130.949 122.213 131.029 121.92C131.135 121.627 131.282 121.347 131.469 121.08H134.709ZM137.709 133.12C137.709 134.267 137.829 135.147 138.069 135.76C138.309 136.347 138.695 136.76 139.229 137C139.762 137.213 140.442 137.347 141.269 137.4C141.349 137.613 141.402 137.867 141.429 138.16C141.455 138.427 141.469 138.747 141.469 139.12C141.069 139.093 140.589 139.067 140.029 139.04C139.495 139.04 138.922 139.027 138.309 139C137.695 139 137.069 139 136.429 139C135.495 139 134.509 139 133.469 139C132.455 139.027 131.682 139.067 131.149 139.12C131.149 138.747 131.162 138.427 131.189 138.16C131.215 137.867 131.269 137.613 131.349 137.4C132.069 137.347 132.629 137.227 133.029 137.04C133.429 136.827 133.709 136.48 133.869 136C134.029 135.493 134.109 134.8 134.109 133.92V129.92H137.709V133.12ZM152.181 139.36C150.367 139.36 148.781 138.973 147.421 138.2C146.061 137.4 145.007 136.293 144.261 134.88C143.514 133.44 143.141 131.76 143.141 129.84C143.141 128.027 143.527 126.4 144.301 124.96C145.074 123.52 146.141 122.387 147.501 121.56C148.861 120.733 150.421 120.32 152.181 120.32C154.074 120.32 155.687 120.72 157.021 121.52C158.381 122.32 159.421 123.44 160.141 124.88C160.861 126.293 161.221 127.947 161.221 129.84C161.221 131.653 160.834 133.28 160.061 134.72C159.314 136.16 158.261 137.293 156.901 138.12C155.567 138.947 153.994 139.36 152.181 139.36ZM152.501 137.44C154.101 137.44 155.287 136.787 156.061 135.48C156.834 134.147 157.221 132.427 157.221 130.32C157.221 128.667 156.967 127.24 156.461 126.04C155.981 124.813 155.327 123.88 154.501 123.24C153.674 122.573 152.767 122.24 151.781 122.24C150.234 122.24 149.074 122.867 148.301 124.12C147.554 125.373 147.181 127 147.181 129C147.181 130.787 147.394 132.32 147.821 133.6C148.274 134.853 148.901 135.813 149.701 136.48C150.501 137.12 151.434 137.44 152.501 137.44ZM169.27 133.12C169.27 134.267 169.39 135.147 169.63 135.76C169.87 136.347 170.256 136.76 170.79 137C171.323 137.213 172.003 137.347 172.83 137.4C172.91 137.613 172.963 137.867 172.99 138.16C173.016 138.427 173.03 138.747 173.03 139.12C172.63 139.093 172.15 139.067 171.59 139.04C171.056 139.04 170.483 139.027 169.87 139C169.256 139 168.63 139 167.99 139C167.056 139 166.07 139 165.03 139C164.016 139.027 163.243 139.067 162.71 139.12C162.71 138.747 162.723 138.427 162.75 138.16C162.776 137.867 162.83 137.613 162.91 137.4C163.63 137.347 164.19 137.227 164.59 137.04C164.99 136.827 165.27 136.48 165.43 136C165.59 135.493 165.67 134.8 165.67 133.92V129.92H169.27V133.12ZM169.27 127.28V130.44H165.67V126L169.27 122.08C169.27 122.987 169.19 123.813 169.03 124.56C168.87 125.28 168.723 126 168.59 126.72L169.27 127.28ZM168.39 126.96C168.683 126.213 168.91 125.6 169.07 125.12C169.23 124.64 169.403 124.24 169.59 123.92C170.176 122.987 170.87 122.213 171.67 121.6C172.47 120.987 173.39 120.68 174.43 120.68C175.443 120.68 176.363 121 177.19 121.64C177.136 122.067 177.083 122.56 177.03 123.12C176.976 123.68 176.936 124.24 176.91 124.8C176.91 125.36 176.91 125.88 176.91 126.36C176.67 126.44 176.336 126.52 175.91 126.6C175.51 126.68 175.083 126.72 174.63 126.72C174.576 125.44 174.363 124.6 173.99 124.2C173.643 123.8 173.203 123.6 172.67 123.6C172.216 123.6 171.723 123.867 171.19 124.4C170.656 124.907 170.203 125.587 169.83 126.44C169.456 127.293 169.27 128.24 169.27 129.28L168.39 126.96ZM165.67 130.44V126C165.67 125.36 165.603 124.84 165.47 124.44C165.336 124.04 165.056 123.733 164.63 123.52C164.203 123.307 163.55 123.187 162.67 123.16C162.67 122.867 162.696 122.6 162.75 122.36C162.803 122.12 162.896 121.893 163.03 121.68C163.856 121.627 164.803 121.467 165.87 121.2C166.936 120.933 167.776 120.64 168.39 120.32C168.63 120.4 168.83 120.573 168.99 120.84C169.176 121.08 169.27 121.493 169.27 122.08L165.67 130.44ZM191.115 139.36C189.542 139.36 188.369 138.96 187.595 138.16C186.849 137.333 186.475 136.013 186.475 134.2V123.36C186.075 123.227 185.662 123.12 185.235 123.04C184.809 122.933 184.262 122.867 183.595 122.84C183.595 122.493 183.622 122.2 183.675 121.96C183.729 121.693 183.822 121.4 183.955 121.08H186.475V115.8C187.009 115.667 187.529 115.453 188.035 115.16C188.569 114.867 189.035 114.547 189.435 114.2C189.702 114.307 189.875 114.467 189.955 114.68C190.035 114.893 190.075 115.427 190.075 116.28V121.08H195.275C195.275 121.347 195.249 121.64 195.195 121.96C195.142 122.253 195.049 122.547 194.915 122.84C193.955 122.867 193.075 122.933 192.275 123.04C191.475 123.12 190.742 123.227 190.075 123.36V133.36C190.075 134.24 190.169 134.973 190.355 135.56C190.542 136.12 190.809 136.533 191.155 136.8C191.502 137.067 191.915 137.2 192.395 137.2C192.955 137.2 193.435 137.12 193.835 136.96C194.262 136.8 194.662 136.56 195.035 136.24C195.382 136.64 195.582 137.08 195.635 137.56C195.209 138.067 194.555 138.493 193.675 138.84C192.822 139.187 191.969 139.36 191.115 139.36ZM215.059 133.92C215.059 135.307 215.245 136.24 215.619 136.72C216.019 137.173 216.619 137.4 217.419 137.4C217.499 137.64 217.552 137.893 217.579 138.16C217.605 138.427 217.619 138.747 217.619 139.12C217.032 139.067 216.365 139.027 215.619 139C214.872 139 214.085 139 213.259 139C212.725 139 212.165 139 211.579 139C210.992 139.027 210.432 139.04 209.899 139.04C209.392 139.067 208.925 139.093 208.499 139.12C208.499 138.747 208.512 138.427 208.539 138.16C208.565 137.867 208.619 137.613 208.699 137.4C209.659 137.4 210.352 137.16 210.779 136.68C211.232 136.173 211.459 135.253 211.459 133.92V127.84C211.459 125.947 211.112 124.667 210.419 124C209.725 123.307 208.832 122.96 207.739 122.96C207.045 122.96 206.352 123.187 205.659 123.64C204.965 124.067 204.379 124.773 203.899 125.76C203.445 126.72 203.219 128.013 203.219 129.64V133.92C203.219 135.253 203.419 136.173 203.819 136.68C204.219 137.16 204.939 137.4 205.979 137.4C206.059 137.64 206.112 137.893 206.139 138.16C206.165 138.427 206.179 138.747 206.179 139.12C205.805 139.093 205.352 139.067 204.819 139.04C204.285 139.04 203.725 139.027 203.139 139C202.552 139 201.979 139 201.419 139C200.885 139 200.325 139 199.739 139C199.152 139.027 198.592 139.04 198.059 139.04C197.525 139.067 197.059 139.093 196.659 139.12C196.659 138.747 196.672 138.427 196.699 138.16C196.725 137.867 196.779 137.613 196.859 137.4C197.899 137.4 198.619 137.16 199.019 136.68C199.419 136.173 199.619 135.253 199.619 133.92V126L203.219 122.08C203.219 122.4 203.205 122.76 203.179 123.16C203.152 123.56 203.072 123.987 202.939 124.44C203.019 124.307 203.099 124.16 203.179 124C203.259 123.813 203.379 123.613 203.539 123.4C203.992 122.787 204.712 122.16 205.699 121.52C206.712 120.853 207.925 120.52 209.339 120.52C210.352 120.52 211.285 120.733 212.139 121.16C213.019 121.56 213.725 122.24 214.259 123.2C214.792 124.133 215.059 125.413 215.059 127.04V133.92ZM199.619 116C199.619 115.36 199.552 114.84 199.419 114.44C199.312 114.013 199.045 113.693 198.619 113.48C198.192 113.267 197.525 113.16 196.619 113.16C196.619 112.867 196.645 112.6 196.699 112.36C196.752 112.12 196.845 111.893 196.979 111.68C197.379 111.68 197.939 111.613 198.659 111.48C199.405 111.347 200.125 111.173 200.819 110.96C201.512 110.747 202.019 110.533 202.339 110.32C202.579 110.4 202.779 110.56 202.939 110.8C203.125 111.04 203.219 111.413 203.219 111.92V117.48H199.619V116ZM199.619 116H203.219V122.08L199.619 126.6V116ZM227.527 139.36C225.634 139.36 224.06 138.933 222.807 138.08C221.554 137.227 220.607 136.08 219.967 134.64C219.354 133.173 219.047 131.573 219.047 129.84C219.047 128.133 219.38 126.56 220.047 125.12C220.714 123.68 221.66 122.52 222.887 121.64C224.14 120.76 225.62 120.32 227.327 120.32C229.06 120.32 230.447 120.693 231.487 121.44C232.554 122.187 233.34 123.187 233.847 124.44C234.38 125.693 234.7 127.08 234.807 128.6C234.7 129.133 234.5 129.587 234.207 129.96C233.754 129.96 233.074 129.96 232.167 129.96C231.26 129.96 230.234 129.973 229.087 130C227.94 130 226.767 130.027 225.567 130.08C224.367 130.107 223.234 130.147 222.167 130.2V128.16H230.647C230.647 126.4 230.327 124.973 229.687 123.88C229.047 122.787 228.14 122.24 226.967 122.24C226.327 122.24 225.7 122.44 225.087 122.84C224.474 123.213 223.967 123.893 223.567 124.88C223.167 125.84 222.967 127.213 222.967 129C222.967 130.307 223.127 131.587 223.447 132.84C223.794 134.067 224.38 135.093 225.207 135.92C226.06 136.72 227.26 137.12 228.807 137.12C229.687 137.12 230.554 136.92 231.407 136.52C232.26 136.12 233.02 135.547 233.687 134.8C233.9 134.907 234.1 135.093 234.287 135.36C234.5 135.6 234.62 135.827 234.647 136.04C233.74 137.24 232.687 138.093 231.487 138.6C230.314 139.107 228.994 139.36 227.527 139.36ZM259.96 137.32C259.267 137.96 258.307 138.467 257.08 138.84C255.853 139.187 254.493 139.36 253 139.36C250.813 139.36 248.92 139.027 247.32 138.36C245.747 137.667 244.533 136.627 243.68 135.24C242.827 133.853 242.4 132.08 242.4 129.92C242.4 128.32 242.773 126.787 243.52 125.32C244.267 123.853 245.387 122.653 246.88 121.72C248.373 120.787 250.253 120.32 252.52 120.32C254.147 120.32 255.52 120.453 256.64 120.72C257.787 120.987 258.827 121.373 259.76 121.88C259.573 122.627 259.44 123.413 259.36 124.24C259.28 125.04 259.24 126.013 259.24 127.16C258.627 127.427 257.947 127.613 257.2 127.72C256.453 127.8 255.733 127.84 255.04 127.84C255.04 126.293 254.827 125.133 254.4 124.36C253.973 123.587 253.413 123.2 252.72 123.2C251.787 123.2 251.08 123.8 250.6 125C250.12 126.173 249.88 127.627 249.88 129.36C249.88 130.373 250.04 131.373 250.36 132.36C250.707 133.32 251.253 134.12 252 134.76C252.773 135.373 253.787 135.68 255.04 135.68C255.893 135.68 256.653 135.6 257.32 135.44C257.987 135.253 258.56 135.027 259.04 134.76C259.333 135.053 259.56 135.427 259.72 135.88C259.88 136.307 259.96 136.787 259.96 137.32ZM270.895 139.36C268.522 139.36 266.535 138.987 264.935 138.24C263.335 137.493 262.135 136.44 261.335 135.08C260.562 133.693 260.175 132.067 260.175 130.2C260.175 127.933 260.668 126.08 261.655 124.64C262.642 123.173 263.975 122.093 265.655 121.4C267.335 120.68 269.202 120.32 271.255 120.32C273.708 120.32 275.735 120.72 277.335 121.52C278.935 122.32 280.122 123.413 280.895 124.8C281.695 126.16 282.095 127.733 282.095 129.52C282.095 131.6 281.642 133.373 280.735 134.84C279.855 136.307 278.575 137.427 276.895 138.2C275.215 138.973 273.215 139.36 270.895 139.36ZM271.655 136.28C272.562 136.28 273.255 135.76 273.735 134.72C274.242 133.653 274.495 132.36 274.495 130.84C274.495 129.107 274.308 127.68 273.935 126.56C273.562 125.413 273.082 124.573 272.495 124.04C271.935 123.48 271.322 123.2 270.655 123.2C269.668 123.2 268.935 123.747 268.455 124.84C268.002 125.907 267.775 127.187 267.775 128.68C267.775 130.04 267.908 131.307 268.175 132.48C268.468 133.627 268.908 134.547 269.495 135.24C270.082 135.933 270.802 136.28 271.655 136.28ZM294.711 120.32C295.191 120.32 295.658 120.347 296.111 120.4C296.591 120.453 297.084 120.547 297.591 120.68V125C297.191 124.387 296.764 123.933 296.311 123.64C295.884 123.32 295.364 123.16 294.751 123.16C294.298 123.16 293.818 123.253 293.311 123.44C292.831 123.627 292.378 123.96 291.951 124.44C291.551 124.92 291.218 125.627 290.951 126.56C290.684 127.467 290.551 128.653 290.551 130.12C290.551 130.973 290.631 131.813 290.791 132.64C290.978 133.44 291.298 134.107 291.751 134.64C292.204 135.173 292.844 135.44 293.671 135.44C294.258 135.44 294.818 135.253 295.351 134.88C295.911 134.48 296.364 133.84 296.711 132.96C297.084 132.08 297.271 130.893 297.271 129.4L299.191 133.4C298.684 134.6 298.191 135.547 297.711 136.24C297.231 136.907 296.738 137.427 296.231 137.8C295.911 138.04 295.484 138.28 294.951 138.52C294.444 138.76 293.858 138.96 293.191 139.12C292.551 139.28 291.858 139.36 291.111 139.36C289.591 139.36 288.204 139.08 286.951 138.52C285.724 137.96 284.738 137.093 283.991 135.92C283.271 134.72 282.911 133.173 282.911 131.28C282.911 129.067 283.404 127.147 284.391 125.52C285.378 123.867 286.751 122.587 288.511 121.68C290.298 120.773 292.364 120.32 294.711 120.32ZM304.871 131.16C304.871 132.2 304.924 132.987 305.031 133.52C305.138 134.027 305.351 134.373 305.671 134.56C305.991 134.72 306.471 134.813 307.111 134.84C307.218 135.427 307.231 135.987 307.151 136.52C307.098 137.053 306.938 137.547 306.671 138C305.444 138.027 304.218 138.147 302.991 138.36C301.764 138.573 300.591 138.907 299.471 139.36C298.884 139.147 298.484 138.853 298.271 138.48C298.058 138.08 297.951 137.613 297.951 137.08C297.951 136.547 298.018 135.973 298.151 135.36C298.311 134.72 298.498 134.147 298.711 133.64L304.871 131.16ZM304.871 116.32V133.72H297.271V116.32H304.871ZM303.471 110.32C303.924 110.507 304.271 110.813 304.511 111.24C304.751 111.64 304.871 112.187 304.871 112.88V117.56H297.271V117.44C297.271 116.827 297.191 116.333 297.031 115.96C296.871 115.56 296.578 115.267 296.151 115.08C295.724 114.867 295.111 114.72 294.311 114.64C294.311 114.133 294.338 113.613 294.391 113.08C294.471 112.547 294.618 112.067 294.831 111.64C296.164 111.64 297.404 111.573 298.551 111.44C299.698 111.307 300.698 111.147 301.551 110.96C302.404 110.747 303.044 110.533 303.471 110.32ZM318.007 139.36C315.447 139.36 313.38 138.96 311.807 138.16C310.26 137.333 309.127 136.227 308.407 134.84C307.687 133.427 307.327 131.827 307.327 130.04C307.327 127.987 307.74 126.24 308.567 124.8C309.393 123.36 310.567 122.253 312.087 121.48C313.633 120.707 315.433 120.32 317.487 120.32C319.567 120.32 321.273 120.68 322.607 121.4C323.967 122.12 324.98 123.147 325.647 124.48C326.313 125.787 326.66 127.32 326.687 129.08C326.447 130.067 326.007 130.853 325.367 131.44C324.487 131.44 323.54 131.453 322.527 131.48C321.513 131.48 320.473 131.493 319.407 131.52C318.34 131.52 317.273 131.547 316.207 131.6C315.14 131.653 314.113 131.72 313.127 131.8V128.64H320.087C320.087 126.827 319.873 125.48 319.447 124.6C319.047 123.72 318.433 123.28 317.607 123.28C316.993 123.28 316.473 123.507 316.047 123.96C315.647 124.413 315.34 125.053 315.127 125.88C314.94 126.707 314.847 127.68 314.847 128.8C314.847 130.213 315.02 131.44 315.367 132.48C315.74 133.52 316.313 134.32 317.087 134.88C317.887 135.413 318.927 135.68 320.207 135.68C321.167 135.68 322.127 135.533 323.087 135.24C324.047 134.947 324.82 134.587 325.407 134.16C325.7 134.347 325.953 134.707 326.167 135.24C326.38 135.773 326.487 136.333 326.487 136.92C325.393 137.667 324.167 138.267 322.807 138.72C321.447 139.147 319.847 139.36 318.007 139.36Z" fill="#461000"/>
<path d="M1 256.017H375C202.2 209.617 54.3333 235.35 1 256.017Z" fill="#F3F6FA"/>
<rect x="37" y="197" width="40" height="47" rx="7" fill="#029B31" stroke="#73CF11" stroke-width="2"/>
<path d="M43.5079 225.036C43.5079 224.892 43.5199 224.728 43.5439 224.544C43.5679 224.36 43.5959 224.212 43.6279 224.1C43.8439 224.084 44.0079 224.044 44.1199 223.98C44.2319 223.908 44.3039 223.78 44.3359 223.596C44.3759 223.404 44.3959 223.124 44.3959 222.756V219.108C44.3959 218.748 44.3759 218.48 44.3359 218.304C44.3039 218.128 44.2319 218.008 44.1199 217.944C44.0079 217.872 43.8399 217.82 43.6159 217.788C43.5839 217.668 43.5559 217.52 43.5319 217.344C43.5159 217.168 43.5079 217.004 43.5079 216.852C43.6439 216.86 43.8439 216.868 44.1079 216.876C44.3719 216.876 44.6479 216.88 44.9359 216.888C45.2239 216.888 45.4639 216.888 45.6559 216.888C45.8479 216.888 46.0719 216.888 46.3279 216.888C46.5839 216.88 46.8319 216.876 47.0719 216.876C47.3199 216.868 47.5239 216.86 47.6839 216.852C47.6839 217.012 47.6799 217.168 47.6719 217.32C47.6639 217.472 47.6319 217.628 47.5759 217.788C47.3599 217.812 47.1959 217.86 47.0839 217.932C46.9719 217.996 46.8959 218.12 46.8559 218.304C46.8159 218.48 46.7959 218.748 46.7959 219.108V222.756C46.7959 223.124 46.8159 223.404 46.8559 223.596C46.9039 223.78 46.9839 223.908 47.0959 223.98C47.2079 224.044 47.3719 224.084 47.5879 224.1C47.6199 224.204 47.6439 224.348 47.6599 224.532C47.6759 224.708 47.6839 224.876 47.6839 225.036C47.5079 225.02 47.2479 225.008 46.9039 225C46.5679 225 46.1919 225 45.7759 225C45.3599 225 44.9479 225 44.5399 225C44.1319 225.008 43.7879 225.02 43.5079 225.036ZM38.7799 225.036C38.7799 224.892 38.7919 224.728 38.8159 224.544C38.8399 224.36 38.8679 224.212 38.8999 224.1C39.1159 224.084 39.2799 224.044 39.3919 223.98C39.5039 223.908 39.5759 223.78 39.6079 223.596C39.6479 223.404 39.6679 223.124 39.6679 222.756V219.108C39.6679 218.748 39.6479 218.48 39.6079 218.304C39.5759 218.128 39.5039 218.008 39.3919 217.944C39.2799 217.872 39.1119 217.82 38.8879 217.788C38.8559 217.668 38.8279 217.52 38.8039 217.344C38.7879 217.168 38.7799 217.004 38.7799 216.852C38.9159 216.86 39.1159 216.868 39.3799 216.876C39.6439 216.876 39.9199 216.88 40.2079 216.888C40.4959 216.888 40.7359 216.888 40.9279 216.888C41.1199 216.888 41.3439 216.888 41.5999 216.888C41.8559 216.88 42.1039 216.876 42.3439 216.876C42.5919 216.868 42.7959 216.86 42.9559 216.852C42.9559 217.012 42.9519 217.168 42.9439 217.32C42.9359 217.472 42.9039 217.628 42.8479 217.788C42.6319 217.812 42.4679 217.86 42.3559 217.932C42.2439 217.996 42.1679 218.12 42.1279 218.304C42.0879 218.48 42.0679 218.748 42.0679 219.108V222.756C42.0679 223.124 42.0879 223.404 42.1279 223.596C42.1679 223.78 42.2439 223.908 42.3559 223.98C42.4759 224.044 42.6439 224.084 42.8599 224.1C42.8919 224.204 42.9159 224.348 42.9319 224.532C42.9479 224.708 42.9559 224.876 42.9559 225.036C42.7799 225.02 42.5199 225.008 42.1759 225C41.8399 225 41.4639 225 41.0479 225C40.6319 225 40.2199 225 39.8119 225C39.4039 225.008 39.0599 225.02 38.7799 225.036ZM42.0199 221.4V220.332H44.4679V221.28C44.2679 221.28 44.0599 221.284 43.8439 221.292C43.6279 221.292 43.4119 221.296 43.1959 221.304C42.9799 221.312 42.7719 221.324 42.5719 221.34C42.3719 221.356 42.1879 221.376 42.0199 221.4ZM50.8315 217.788C50.5435 217.788 50.2995 217.844 50.0995 217.956C49.9075 218.068 49.7475 218.236 49.6195 218.46C49.4995 218.684 49.3955 218.972 49.3075 219.324C49.0835 219.324 48.8635 219.316 48.6475 219.3C48.4315 219.276 48.2395 219.224 48.0715 219.144C48.1595 218.816 48.2315 218.436 48.2875 218.004C48.3435 217.572 48.3715 217.188 48.3715 216.852C48.7075 216.86 49.0395 216.868 49.3675 216.876C49.6955 216.884 50.0755 216.888 50.5075 216.888C50.9395 216.888 51.4795 216.888 52.1275 216.888C52.7035 216.888 53.2035 216.888 53.6275 216.888C54.0595 216.88 54.4475 216.876 54.7915 216.876C55.1435 216.868 55.4835 216.86 55.8115 216.852C55.8115 217.188 55.8355 217.564 55.8835 217.98C55.9395 218.388 56.0115 218.772 56.0995 219.132C55.9395 219.196 55.7515 219.244 55.5355 219.276C55.3275 219.308 55.0995 219.324 54.8515 219.324C54.7475 218.78 54.5955 218.388 54.3955 218.148C54.2035 217.908 53.9035 217.788 53.4955 217.788H50.8315ZM50.8555 217.308H53.2555V222.756C53.2555 223.124 53.2835 223.404 53.3395 223.596C53.4035 223.78 53.5195 223.908 53.6875 223.98C53.8555 224.044 54.1035 224.084 54.4315 224.1C54.4715 224.204 54.4995 224.348 54.5155 224.532C54.5395 224.708 54.5515 224.876 54.5515 225.036C54.3275 225.02 54.0075 225.008 53.5915 225C53.1835 225 52.7235 225 52.2115 225C51.8755 225 51.5235 225 51.1555 225C50.7955 225.008 50.4635 225.012 50.1595 225.012C49.8555 225.02 49.6155 225.028 49.4395 225.036C49.4395 224.892 49.4555 224.728 49.4875 224.544C49.5195 224.36 49.5515 224.212 49.5835 224.1C49.9195 224.084 50.1795 224.044 50.3635 223.98C50.5475 223.908 50.6755 223.78 50.7475 223.596C50.8195 223.404 50.8555 223.124 50.8555 222.756V217.308ZM60.884 225.108L58.088 218.736H58.412L58.064 222.048C58.008 222.608 57.996 223.032 58.028 223.32C58.06 223.608 58.136 223.808 58.256 223.92C58.384 224.024 58.556 224.084 58.772 224.1C58.812 224.236 58.836 224.384 58.844 224.544C58.86 224.696 58.868 224.86 58.868 225.036C58.748 225.02 58.56 225.008 58.304 225C58.056 225 57.804 225 57.548 225C57.38 225 57.192 225 56.984 225C56.784 225.008 56.596 225.012 56.42 225.012C56.244 225.02 56.116 225.028 56.036 225.036C56.036 224.86 56.044 224.696 56.06 224.544C56.076 224.384 56.1 224.236 56.132 224.1C56.34 224.084 56.508 224.02 56.636 223.908C56.772 223.788 56.88 223.584 56.96 223.296C57.048 223.008 57.116 222.608 57.164 222.096L57.428 219.168C57.468 218.784 57.472 218.492 57.44 218.292C57.408 218.092 57.332 217.96 57.212 217.896C57.092 217.824 56.916 217.788 56.684 217.788C56.644 217.644 56.616 217.5 56.6 217.356C56.592 217.212 56.588 217.044 56.588 216.852C56.708 216.86 56.876 216.868 57.092 216.876C57.308 216.876 57.524 216.88 57.74 216.888C57.964 216.888 58.14 216.888 58.268 216.888C58.396 216.888 58.572 216.888 58.796 216.888C59.028 216.88 59.248 216.876 59.456 216.876C59.672 216.868 59.82 216.86 59.9 216.852L62.312 222.6H61.868L63.944 216.852C64.088 216.86 64.272 216.868 64.496 216.876C64.72 216.876 64.94 216.88 65.156 216.888C65.372 216.888 65.544 216.888 65.672 216.888C65.8 216.888 65.968 216.888 66.176 216.888C66.384 216.88 66.592 216.876 66.8 216.876C67.008 216.868 67.172 216.86 67.292 216.852C67.292 217.02 67.284 217.188 67.268 217.356C67.26 217.524 67.236 217.668 67.196 217.788C66.828 217.788 66.592 217.888 66.488 218.088C66.392 218.28 66.372 218.644 66.428 219.18L66.764 222.468C66.812 222.94 66.864 223.288 66.92 223.512C66.984 223.736 67.072 223.884 67.184 223.956C67.304 224.02 67.472 224.064 67.688 224.088C67.72 224.224 67.74 224.372 67.748 224.532C67.764 224.684 67.772 224.852 67.772 225.036C67.692 225.028 67.556 225.02 67.364 225.012C67.172 225.012 66.952 225.008 66.704 225C66.464 225 66.228 225 65.996 225C65.764 225 65.576 225 65.432 225C65.24 225 65.016 225 64.76 225C64.512 225.008 64.276 225.012 64.052 225.012C63.836 225.02 63.68 225.028 63.584 225.036C63.584 224.836 63.592 224.668 63.608 224.532C63.632 224.388 63.66 224.244 63.692 224.1C63.94 224.068 64.12 224.016 64.232 223.944C64.344 223.872 64.408 223.736 64.424 223.536C64.44 223.328 64.424 223.016 64.376 222.6L63.968 218.772H64.232L61.784 225.012C61.68 225.044 61.54 225.068 61.364 225.084C61.188 225.1 61.028 225.108 60.884 225.108ZM72.6806 224.1C72.9526 224.1 73.1846 224.044 73.3766 223.932C73.5766 223.82 73.7446 223.644 73.8806 223.404C74.0166 223.164 74.1366 222.852 74.2406 222.468C74.5046 222.492 74.7486 222.544 74.9726 222.624C75.1966 222.696 75.3606 222.78 75.4646 222.876C75.3766 223.148 75.3006 223.476 75.2366 223.86C75.1726 224.244 75.1246 224.632 75.0926 225.024C74.8606 225.016 74.5606 225.012 74.1926 225.012C73.8326 225.012 73.4526 225.008 73.0526 225C72.6606 225 72.2966 225 71.9606 225C71.7526 225 71.4686 225 71.1086 225C70.7566 225.008 70.3846 225.012 69.9926 225.012C69.6086 225.02 69.2566 225.024 68.9366 225.024C68.6166 225.032 68.3886 225.036 68.2526 225.036C68.2526 224.86 68.2606 224.688 68.2766 224.52C68.2926 224.352 68.3166 224.212 68.3486 224.1C68.5646 224.084 68.7286 224.044 68.8406 223.98C68.9606 223.908 69.0406 223.78 69.0806 223.596C69.1206 223.404 69.1406 223.124 69.1406 222.756V219.108C69.1406 218.748 69.1206 218.48 69.0806 218.304C69.0406 218.128 68.9606 218.008 68.8406 217.944C68.7286 217.872 68.5606 217.82 68.3366 217.788C68.3046 217.668 68.2806 217.516 68.2646 217.332C68.2566 217.14 68.2526 216.98 68.2526 216.852C68.5086 216.86 68.7366 216.868 68.9366 216.876C69.1366 216.876 69.3446 216.88 69.5606 216.888C69.7846 216.888 70.0446 216.888 70.3406 216.888C70.5326 216.888 70.7606 216.888 71.0246 216.888C71.2886 216.88 71.5486 216.876 71.8046 216.876C72.0606 216.868 72.2686 216.86 72.4286 216.852C72.4286 217.012 72.4246 217.176 72.4166 217.344C72.4086 217.512 72.3766 217.66 72.3206 217.788C72.1046 217.812 71.9406 217.86 71.8286 217.932C71.7166 217.996 71.6406 218.12 71.6006 218.304C71.5606 218.48 71.5406 218.748 71.5406 219.108V222.696C71.5406 223.064 71.5686 223.352 71.6246 223.56C71.6806 223.76 71.7766 223.9 71.9126 223.98C72.0486 224.06 72.2366 224.1 72.4766 224.1H72.6806Z" fill="white"/>
<rect x="166" y="199" width="46" height="37" rx="7" fill="#522357" stroke="#9747FF" stroke-width="2"/>
<rect x="127" y="207" width="34" height="38" rx="7" fill="#62432B" stroke="#C48971" stroke-width="2"/>
<rect x="82" y="186" width="40" height="34" rx="7" fill="#F2312F" stroke="#F19F9F" stroke-width="2"/>
<rect x="217" y="211" width="40" height="32" rx="7" fill="#4373B7" stroke="#4C85D7" stroke-width="2"/>
<rect x="262" y="199" width="40" height="33" rx="7" fill="#FDD240" stroke="#E3A60D" stroke-width="2"/>
<rect x="307" y="211" width="31" height="40" rx="7" fill="#FF8301" stroke="#FBAF5F" stroke-width="2"/>
<path fill-rule="evenodd" clip-rule="evenodd" d="M104.324 190.815C104.556 191.063 104.594 191.442 104.67 192.202C104.815 193.647 104.887 194.37 105.341 194.625C105.41 194.664 105.483 194.694 105.56 194.716C106.061 194.856 106.623 194.396 107.747 193.476C108.338 192.993 108.633 192.752 108.973 192.741C109.027 192.739 109.081 192.742 109.134 192.749C109.471 192.793 109.741 193.063 110.28 193.603L111.397 194.72C111.937 195.259 112.207 195.529 112.251 195.866C112.258 195.919 112.261 195.973 112.259 196.027C112.248 196.367 112.007 196.662 111.524 197.253L111.524 197.253C110.604 198.377 110.144 198.939 110.284 199.44C110.306 199.517 110.336 199.59 110.375 199.659C110.63 200.113 111.353 200.185 112.798 200.33C113.558 200.406 113.937 200.444 114.185 200.676C114.224 200.713 114.26 200.753 114.293 200.796C114.5 201.066 114.5 201.447 114.5 202.21V203.79C114.5 204.553 114.5 204.934 114.293 205.204C114.26 205.247 114.224 205.287 114.185 205.324C113.937 205.556 113.558 205.594 112.798 205.67C111.353 205.815 110.63 205.887 110.376 206.341C110.337 206.41 110.306 206.483 110.285 206.56C110.144 207.061 110.604 207.623 111.524 208.747C112.007 209.337 112.248 209.633 112.259 209.972C112.261 210.026 112.258 210.08 112.251 210.134C112.207 210.47 111.937 210.74 111.397 211.28L110.28 212.397C109.741 212.936 109.471 213.206 109.134 213.25C109.081 213.258 109.027 213.26 108.973 213.259C108.633 213.248 108.338 213.006 107.747 212.523C106.623 211.603 106.061 211.143 105.56 211.284C105.484 211.305 105.41 211.336 105.341 211.375C104.887 211.629 104.815 212.352 104.67 213.798C104.594 214.558 104.556 214.937 104.324 215.185C104.287 215.224 104.247 215.26 104.204 215.293C103.935 215.5 103.553 215.5 102.79 215.5H101.21C100.447 215.5 100.066 215.5 99.7962 215.293C99.7533 215.26 99.7132 215.224 99.6762 215.185C99.4437 214.937 99.4058 214.558 99.3298 213.798C99.1853 212.353 99.113 211.63 98.6592 211.375C98.5901 211.336 98.5166 211.306 98.4402 211.284C97.9392 211.144 97.377 211.604 96.2526 212.524C95.6619 213.007 95.3666 213.249 95.0272 213.259C94.9732 213.261 94.9192 213.258 94.8656 213.251C94.529 213.207 94.2592 212.937 93.7195 212.397L92.6027 211.28C92.0631 210.741 91.7932 210.471 91.7489 210.134C91.7419 210.081 91.7392 210.027 91.7409 209.973C91.7514 209.633 91.9931 209.338 92.4764 208.747C93.3963 207.623 93.8563 207.061 93.7156 206.56C93.6941 206.483 93.6637 206.41 93.6249 206.341C93.3701 205.887 92.6474 205.815 91.2018 205.67C90.4424 205.594 90.0627 205.556 89.8153 205.324C89.7759 205.287 89.7396 205.247 89.7067 205.204C89.5 204.934 89.5 204.553 89.5 203.79L89.5 202.21C89.5 201.447 89.5 201.065 89.7067 200.796C89.7396 200.753 89.7759 200.713 89.8152 200.676C90.0626 200.444 90.4424 200.406 91.2019 200.33C92.6478 200.185 93.3707 200.113 93.6254 199.659C93.6642 199.59 93.6946 199.517 93.716 199.44C93.8569 198.939 93.3968 198.377 92.4766 197.252C91.9932 196.661 91.7514 196.366 91.7409 196.027C91.7392 195.973 91.7419 195.919 91.749 195.865C91.7932 195.529 92.0631 195.259 92.6029 194.719L93.7196 193.602C94.2592 193.063 94.5291 192.793 94.8657 192.748C94.9192 192.741 94.9733 192.739 95.0273 192.74C95.3666 192.751 95.662 192.993 96.2527 193.476C97.377 194.396 97.9392 194.856 98.4401 194.715C98.5165 194.694 98.5902 194.663 98.6594 194.624C99.113 194.37 99.1853 193.647 99.3298 192.202C99.4058 191.442 99.4437 191.063 99.6761 190.815C99.7131 190.776 99.7533 190.74 99.7963 190.707C100.066 190.5 100.447 190.5 101.21 190.5H102.79C103.553 190.5 103.934 190.5 104.204 190.707C104.247 190.74 104.287 190.776 104.324 190.815ZM102 208C104.761 208 107 205.761 107 203C107 200.239 104.761 198 102 198C99.2386 198 97 200.239 97 203C97 205.761 99.2386 208 102 208Z" fill="white"/>
<path d="M140.847 228.11C140.847 228.754 140.795 229.347 140.693 229.888C140.599 230.42 140.422 230.901 140.161 231.33C139.899 231.769 139.521 232.165 139.027 232.52C138.541 232.875 137.902 233.197 137.109 233.486C136.941 233.355 136.819 233.201 136.745 233.024C136.661 232.847 136.609 232.655 136.591 232.45C136.936 232.217 137.211 231.969 137.417 231.708C137.631 231.447 137.79 231.115 137.893 230.714C137.995 230.313 138.047 229.785 138.047 229.132V223.168C138.047 222.729 138.023 222.403 137.977 222.188C137.93 221.973 137.841 221.829 137.711 221.754C137.589 221.67 137.398 221.614 137.137 221.586C137.099 221.446 137.067 221.273 137.039 221.068C137.02 220.853 137.011 220.662 137.011 220.494C137.207 220.503 137.445 220.513 137.725 220.522C138.014 220.531 138.308 220.536 138.607 220.536C138.915 220.536 139.195 220.536 139.447 220.536C139.829 220.536 140.249 220.536 140.707 220.536C141.173 220.527 141.565 220.513 141.883 220.494C141.883 220.709 141.873 220.905 141.855 221.082C141.836 221.259 141.803 221.427 141.757 221.586C141.477 221.605 141.271 221.665 141.141 221.768C141.01 221.871 140.926 222.034 140.889 222.258C140.861 222.473 140.847 222.776 140.847 223.168V228.11ZM146.133 230.126C145.508 230.126 144.906 230.061 144.327 229.93C143.758 229.79 143.212 229.589 142.689 229.328C142.773 228.945 142.824 228.553 142.843 228.152C142.871 227.741 142.885 227.345 142.885 226.962C143.156 226.887 143.44 226.841 143.739 226.822C144.038 226.794 144.327 226.78 144.607 226.78C144.654 227.368 144.719 227.821 144.803 228.138C144.896 228.455 145.041 228.675 145.237 228.796C145.442 228.917 145.718 228.978 146.063 228.978C146.539 228.978 146.88 228.88 147.085 228.684C147.3 228.488 147.407 228.273 147.407 228.04C147.407 227.797 147.295 227.592 147.071 227.424C146.856 227.247 146.576 227.083 146.231 226.934C145.895 226.775 145.536 226.607 145.153 226.43C144.77 226.243 144.406 226.019 144.061 225.758C143.725 225.487 143.445 225.156 143.221 224.764C143.006 224.372 142.899 223.887 142.899 223.308C142.899 222.599 143.058 222.034 143.375 221.614C143.692 221.194 144.108 220.891 144.621 220.704C145.144 220.508 145.708 220.41 146.315 220.41C146.67 220.41 147.034 220.438 147.407 220.494C147.78 220.55 148.126 220.625 148.443 220.718C148.77 220.802 149.022 220.905 149.199 221.026C149.199 221.427 149.204 221.829 149.213 222.23C149.232 222.622 149.26 222.925 149.297 223.14C149.101 223.261 148.844 223.345 148.527 223.392C148.21 223.439 147.93 223.462 147.687 223.462C147.612 222.958 147.5 222.566 147.351 222.286C147.211 222.006 147.038 221.81 146.833 221.698C146.628 221.586 146.39 221.53 146.119 221.53C145.83 221.53 145.578 221.595 145.363 221.726C145.158 221.857 145.055 222.062 145.055 222.342C145.055 222.622 145.172 222.86 145.405 223.056C145.638 223.252 145.937 223.434 146.301 223.602C146.674 223.761 147.066 223.933 147.477 224.12C147.897 224.307 148.289 224.535 148.653 224.806C149.026 225.067 149.33 225.394 149.563 225.786C149.796 226.169 149.913 226.649 149.913 227.228C149.913 227.825 149.768 228.343 149.479 228.782C149.19 229.211 148.765 229.543 148.205 229.776C147.645 230.009 146.954 230.126 146.133 230.126Z" fill="white"/>
<path d="M185.806 227.224C183.481 225.816 181.262 224.536 179.15 223.384C177.06 222.211 175.054 221.144 173.134 220.184C172.964 219.117 173.145 218.115 173.678 217.176L184.494 210.904C185.54 211.117 186.468 211.704 187.278 212.664L176.558 218.68L186.254 223.736C186.361 224.312 186.382 224.952 186.318 225.656C186.254 226.339 186.084 226.861 185.806 227.224ZM193.032 226.968C192.627 226.605 192.317 226.189 192.104 225.72C191.912 225.229 191.827 224.685 191.848 224.088L202.248 218.104L202.216 219.288L191.432 212.728C191.624 212.28 191.923 211.864 192.328 211.48C192.755 211.075 193.224 210.787 193.736 210.616L204.488 217.592C204.744 218.595 204.595 219.533 204.04 220.408C202.824 221.048 201.64 221.699 200.488 222.36C199.357 223.021 198.195 223.725 197 224.472C195.805 225.197 194.483 226.029 193.032 226.968Z" fill="white"/>
<path d="M230.49 233.14C229.037 232.26 227.65 231.46 226.33 230.74C225.024 230.007 223.77 229.34 222.57 228.74C222.464 228.073 222.577 227.447 222.91 226.86L229.67 222.94C230.324 223.073 230.904 223.44 231.41 224.04L224.71 227.8L230.77 230.96C230.837 231.32 230.85 231.72 230.81 232.16C230.77 232.587 230.664 232.913 230.49 233.14ZM234.806 233.18C234.02 233.18 233.44 233.067 233.066 232.84L238.366 218.66C238.673 218.66 238.966 218.7 239.246 218.78C239.54 218.86 239.8 218.967 240.026 219.1L234.806 233.18ZM243.034 232.98C242.78 232.753 242.587 232.493 242.454 232.2C242.334 231.893 242.28 231.553 242.294 231.18L248.794 227.44L248.774 228.18L242.034 224.08C242.154 223.8 242.34 223.54 242.594 223.3C242.86 223.047 243.154 222.867 243.474 222.76L250.194 227.12C250.354 227.747 250.26 228.333 249.914 228.88C249.154 229.28 248.414 229.687 247.694 230.1C246.987 230.513 246.26 230.953 245.514 231.42C244.767 231.873 243.94 232.393 243.034 232.98Z" fill="white"/>
<path d="M273.965 221.135C272.935 221.135 272.03 220.915 271.25 220.475C270.48 220.025 269.88 219.405 269.45 218.615C269.02 217.825 268.805 216.915 268.805 215.885C268.805 215.035 268.945 214.29 269.225 213.65C269.505 213 269.885 212.46 270.365 212.03C270.855 211.6 271.41 211.275 272.03 211.055C272.65 210.835 273.295 210.725 273.965 210.725C274.505 210.725 275.06 210.795 275.63 210.935C276.2 211.065 276.745 211.255 277.265 211.505C277.205 211.845 277.16 212.215 277.13 212.615C277.11 213.015 277.1 213.42 277.1 213.83C276.97 213.9 276.745 213.955 276.425 213.995C276.115 214.025 275.845 214.04 275.615 214.04C275.615 213.52 275.545 213.105 275.405 212.795C275.275 212.475 275.09 212.245 274.85 212.105C274.62 211.955 274.345 211.88 274.025 211.88C273.625 211.88 273.285 211.98 273.005 212.18C272.725 212.38 272.505 212.65 272.345 212.99C272.185 213.33 272.065 213.715 271.985 214.145C271.915 214.575 271.88 215.025 271.88 215.495C271.88 216.295 271.98 217.015 272.18 217.655C272.39 218.295 272.71 218.8 273.14 219.17C273.58 219.54 274.15 219.725 274.85 219.725C275.19 219.725 275.545 219.675 275.915 219.575C276.295 219.475 276.68 219.315 277.07 219.095C277.18 219.195 277.27 219.32 277.34 219.47C277.41 219.61 277.46 219.76 277.49 219.92C277.13 220.23 276.655 220.51 276.065 220.76C275.475 221.01 274.775 221.135 273.965 221.135ZM281.897 221.135C281.227 221.135 280.582 221.065 279.962 220.925C279.352 220.775 278.767 220.56 278.207 220.28C278.297 219.87 278.352 219.45 278.372 219.02C278.402 218.58 278.417 218.155 278.417 217.745C278.707 217.665 279.012 217.615 279.332 217.595C279.652 217.565 279.962 217.55 280.262 217.55C280.312 218.18 280.382 218.665 280.472 219.005C280.572 219.345 280.727 219.58 280.937 219.71C281.157 219.84 281.452 219.905 281.822 219.905C282.332 219.905 282.697 219.8 282.917 219.59C283.147 219.38 283.262 219.15 283.262 218.9C283.262 218.64 283.142 218.42 282.902 218.24C282.672 218.05 282.372 217.875 282.002 217.715C281.642 217.545 281.257 217.365 280.847 217.175C280.437 216.975 280.047 216.735 279.677 216.455C279.317 216.165 279.017 215.81 278.777 215.39C278.547 214.97 278.432 214.45 278.432 213.83C278.432 213.07 278.602 212.465 278.942 212.015C279.282 211.565 279.727 211.24 280.277 211.04C280.837 210.83 281.442 210.725 282.092 210.725C282.472 210.725 282.862 210.755 283.262 210.815C283.662 210.875 284.032 210.955 284.372 211.055C284.722 211.145 284.992 211.255 285.182 211.385C285.182 211.815 285.187 212.245 285.197 212.675C285.217 213.095 285.247 213.42 285.287 213.65C285.077 213.78 284.802 213.87 284.462 213.92C284.122 213.97 283.822 213.995 283.562 213.995C283.482 213.455 283.362 213.035 283.202 212.735C283.052 212.435 282.867 212.225 282.647 212.105C282.427 211.985 282.172 211.925 281.882 211.925C281.572 211.925 281.302 211.995 281.072 212.135C280.852 212.275 280.742 212.495 280.742 212.795C280.742 213.095 280.867 213.35 281.117 213.56C281.367 213.77 281.687 213.965 282.077 214.145C282.477 214.315 282.897 214.5 283.337 214.7C283.787 214.9 284.207 215.145 284.597 215.435C284.997 215.715 285.322 216.065 285.572 216.485C285.822 216.895 285.947 217.41 285.947 218.03C285.947 218.67 285.792 219.225 285.482 219.695C285.172 220.155 284.717 220.51 284.117 220.76C283.517 221.01 282.777 221.135 281.897 221.135ZM290.363 221.135C289.693 221.135 289.048 221.065 288.428 220.925C287.818 220.775 287.233 220.56 286.673 220.28C286.763 219.87 286.818 219.45 286.838 219.02C286.868 218.58 286.883 218.155 286.883 217.745C287.173 217.665 287.478 217.615 287.798 217.595C288.118 217.565 288.428 217.55 288.728 217.55C288.778 218.18 288.848 218.665 288.938 219.005C289.038 219.345 289.193 219.58 289.403 219.71C289.623 219.84 289.918 219.905 290.288 219.905C290.798 219.905 291.163 219.8 291.383 219.59C291.613 219.38 291.728 219.15 291.728 218.9C291.728 218.64 291.608 218.42 291.368 218.24C291.138 218.05 290.838 217.875 290.468 217.715C290.108 217.545 289.723 217.365 289.313 217.175C288.903 216.975 288.513 216.735 288.143 216.455C287.783 216.165 287.483 215.81 287.243 215.39C287.013 214.97 286.898 214.45 286.898 213.83C286.898 213.07 287.068 212.465 287.408 212.015C287.748 211.565 288.193 211.24 288.743 211.04C289.303 210.83 289.908 210.725 290.558 210.725C290.938 210.725 291.328 210.755 291.728 210.815C292.128 210.875 292.498 210.955 292.838 211.055C293.188 211.145 293.458 211.255 293.648 211.385C293.648 211.815 293.653 212.245 293.663 212.675C293.683 213.095 293.713 213.42 293.753 213.65C293.543 213.78 293.268 213.87 292.928 213.92C292.588 213.97 292.288 213.995 292.028 213.995C291.948 213.455 291.828 213.035 291.668 212.735C291.518 212.435 291.333 212.225 291.113 212.105C290.893 211.985 290.638 211.925 290.348 211.925C290.038 211.925 289.768 211.995 289.538 212.135C289.318 212.275 289.208 212.495 289.208 212.795C289.208 213.095 289.333 213.35 289.583 213.56C289.833 213.77 290.153 213.965 290.543 214.145C290.943 214.315 291.363 214.5 291.803 214.7C292.253 214.9 292.673 215.145 293.063 215.435C293.463 215.715 293.788 216.065 294.038 216.485C294.288 216.895 294.413 217.41 294.413 218.03C294.413 218.67 294.258 219.225 293.948 219.695C293.638 220.155 293.183 220.51 292.583 220.76C291.983 221.01 291.243 221.135 290.363 221.135Z" fill="#5A1F06"/>
<path d="M320.944 243.792C319.824 243.616 318.904 243.352 318.184 243C317.48 242.664 316.936 242.256 316.552 241.776C316.168 241.312 315.896 240.808 315.736 240.264C315.592 239.736 315.512 239.2 315.496 238.656C315.48 238.08 315.496 237.504 315.544 236.928C315.608 236.352 315.632 235.792 315.616 235.248C315.6 234.496 315.432 233.824 315.112 233.232C314.808 232.64 314.168 232.192 313.192 231.888C313.192 231.744 313.192 231.496 313.192 231.144C313.208 230.792 313.248 230.544 313.312 230.4C314.24 230.096 314.856 229.672 315.16 229.128C315.48 228.584 315.648 227.968 315.664 227.28C315.68 226.72 315.648 226.136 315.568 225.528C315.488 224.904 315.456 224.288 315.472 223.68C315.488 223.168 315.56 222.672 315.688 222.192C315.816 221.712 316.056 221.272 316.408 220.872C316.76 220.456 317.272 220.08 317.944 219.744C318.632 219.408 319.528 219.128 320.632 218.904C320.84 219.064 320.976 219.312 321.04 219.648C321.104 219.968 321.136 220.272 321.136 220.56C320.32 220.816 319.776 221.208 319.504 221.736C319.232 222.248 319.104 222.824 319.12 223.464C319.136 224.168 319.232 224.912 319.408 225.696C319.584 226.48 319.672 227.224 319.672 227.928C319.672 228.44 319.576 228.92 319.384 229.368C319.208 229.8 318.88 230.168 318.4 230.472C317.92 230.76 317.232 230.968 316.336 231.096C317.232 231.224 317.92 231.448 318.4 231.768C318.88 232.088 319.216 232.472 319.408 232.92C319.6 233.368 319.696 233.856 319.696 234.384C319.712 235.104 319.64 235.864 319.48 236.664C319.32 237.464 319.232 238.216 319.216 238.92C319.2 239.592 319.328 240.192 319.6 240.72C319.888 241.248 320.448 241.632 321.28 241.872C321.376 242.176 321.4 242.496 321.352 242.832C321.304 243.168 321.168 243.488 320.944 243.792ZM324.06 243.792C323.836 243.488 323.7 243.168 323.652 242.832C323.604 242.496 323.628 242.176 323.724 241.872C324.572 241.632 325.132 241.248 325.404 240.72C325.676 240.192 325.804 239.592 325.788 238.92C325.772 238.216 325.684 237.464 325.524 236.664C325.364 235.864 325.292 235.104 325.308 234.384C325.324 233.856 325.42 233.368 325.596 232.92C325.788 232.472 326.124 232.088 326.604 231.768C327.1 231.448 327.788 231.224 328.668 231.096C327.772 230.968 327.084 230.76 326.604 230.472C326.124 230.168 325.788 229.8 325.596 229.368C325.42 228.92 325.332 228.44 325.332 227.928C325.332 227.224 325.42 226.48 325.596 225.696C325.772 224.912 325.868 224.168 325.884 223.464C325.9 222.824 325.772 222.248 325.5 221.736C325.228 221.208 324.684 220.816 323.868 220.56C323.868 220.272 323.9 219.968 323.964 219.648C324.028 219.312 324.164 219.064 324.372 218.904C325.476 219.128 326.364 219.408 327.036 219.744C327.724 220.08 328.244 220.456 328.596 220.872C328.948 221.272 329.188 221.712 329.316 222.192C329.444 222.672 329.516 223.168 329.532 223.68C329.548 224.288 329.516 224.904 329.436 225.528C329.356 226.136 329.324 226.72 329.34 227.28C329.372 227.968 329.54 228.584 329.844 229.128C330.148 229.672 330.764 230.096 331.692 230.4C331.756 230.544 331.788 230.792 331.788 231.144C331.804 231.496 331.812 231.744 331.812 231.888C330.836 232.192 330.196 232.64 329.892 233.232C329.588 233.824 329.42 234.496 329.388 235.248C329.372 235.792 329.388 236.352 329.436 236.928C329.5 237.504 329.524 238.08 329.508 238.656C329.492 239.2 329.404 239.736 329.244 240.264C329.1 240.808 328.836 241.312 328.452 241.776C328.068 242.256 327.516 242.664 326.796 243C326.092 243.352 325.18 243.616 324.06 243.792Z" fill="#5A1F06"/>
</svg>
