<svg width="211" height="211" viewBox="0 0 211 211" fill="none" xmlns="http://www.w3.org/2000/svg">
<circle cx="106" cy="105" r="93" fill="#05A833"/>
<path d="M121.401 123.83C125.238 124.175 128.914 124.53 132.594 124.832C135.271 125.051 136.53 126.385 136.124 128.653C135.96 129.573 135.366 130.188 134.709 130.766C130.978 134.052 127.283 137.379 123.492 140.593C122.378 141.538 122.049 142.37 122.421 143.84C123.623 148.589 124.64 153.384 125.715 158.165C126.042 159.623 126.224 161.136 124.777 162.098C123.395 163.017 121.986 162.764 120.562 161.903C116.256 159.304 111.881 156.821 107.583 154.209C106.533 153.57 105.776 153.641 104.76 154.258C100.412 156.897 96.0086 159.444 91.6312 162.035C90.4298 162.746 89.2339 163.183 87.8988 162.349C86.5402 161.501 86.3863 160.191 86.6624 158.838C87.4583 154.941 88.0516 150.967 89.2739 147.201C90.5183 143.367 89.8113 140.82 86.4144 138.471C83.1558 136.217 80.3723 133.279 77.3578 130.667C76.2124 129.675 75.9464 128.447 76.2805 127.061C76.5945 125.758 77.5545 125.234 78.83 125.109C83.1347 124.684 87.4285 124.072 91.7429 123.85C94.7889 123.694 96.9586 123.137 98.0447 119.718C99.3327 115.664 101.377 111.853 103.039 107.913C103.651 106.462 104.488 105.408 106.194 105.414C107.923 105.421 108.724 106.589 109.326 107.983C111.089 112.067 113.082 116.072 114.53 120.266C115.472 122.993 117.194 123.737 119.681 123.775C120.202 123.783 120.722 123.803 121.401 123.83ZM106.811 115.576C106.646 115.284 106.556 114.915 106.095 114.888C105.447 115.347 105.285 116.117 104.994 116.785C103.749 119.644 102.519 122.509 101.339 125.395C100.648 127.084 99.4941 128.239 97.6891 128.482C95.234 128.812 92.7522 128.938 90.2895 129.219C88.6238 129.409 86.9077 129.372 85.3257 129.891C85.3492 130.752 85.9024 130.947 86.2745 131.277C88.8258 133.537 91.3737 135.8 93.9454 138.037C95.1715 139.103 95.7476 140.399 95.5866 142.021C95.3808 144.095 94.7931 146.091 94.3808 148.123C93.9563 150.215 93.1653 152.255 93.1925 154.462C94.1465 154.505 94.691 154.047 95.2789 153.701C97.9166 152.148 100.582 150.639 103.182 149.025C105.293 147.714 107.287 147.824 109.363 149.082C112.129 150.758 114.937 152.365 117.738 153.984C118.156 154.226 118.54 154.699 119.206 154.347C119.35 153.809 119.212 153.265 119.079 152.7C118.381 149.724 117.699 146.744 117.03 143.762C116.472 141.271 116.846 139.154 119.037 137.435C121.351 135.62 123.48 133.568 125.663 131.591C126.189 131.115 126.935 130.762 126.975 129.776C126.641 129.703 126.322 129.599 125.996 129.567C122.437 129.22 118.88 128.865 115.318 128.553C113.276 128.374 111.906 127.405 111.107 125.485C109.755 122.234 108.311 119.021 106.811 115.576Z" fill="white"/>
<path d="M121.339 78.1622C126.404 80.3902 130.41 83.641 133.264 88.2882C133.941 89.391 133.851 90.0549 132.723 90.6439C131.684 91.1868 131.086 92.2315 130.047 93.2021C124.867 83.9802 116.508 80.6871 106.578 80.6059C96.6116 80.5244 88.2175 83.7589 82.7509 92.9128C81.5497 91.8425 80.5504 90.7419 79.2622 89.9805C78.4762 89.5159 79.0888 88.8619 79.3928 88.3341C82.4185 83.0796 87.0631 79.8196 92.5858 77.6461C93.3233 77.3558 94.1394 77.2276 94.8863 76.4769C90.0028 71.7164 87.8873 65.994 89.2748 59.235C90.1306 55.0663 92.2822 51.5935 95.7093 49.0591C102.928 43.7204 112.866 44.5085 118.962 50.8255C124.226 56.2799 126.932 67.4057 117.677 76.7235C118.89 77.1958 120.056 77.6497 121.339 78.1622ZM96.9826 70.8053C101.628 76.121 108.435 76.7768 114.008 72.4454C117.892 69.4269 119.512 64.0414 117.942 59.3692C116.284 54.4361 111.56 50.8128 106.682 50.7849C101.639 50.756 97.9072 53.095 95.5646 57.4517C93.0975 62.0401 93.8242 66.4712 96.9826 70.8053Z" fill="white"/>
<path d="M118.566 112.545C120.614 112.343 122.51 112.027 124.407 112.025C126.308 112.024 127.316 111.226 128.017 109.493C129.773 105.155 131.692 100.884 133.535 96.5821C134.144 95.1611 134.788 93.7428 136.636 93.7587C138.531 93.7749 139.436 95.0274 140.114 96.6444C141.969 101.065 143.959 105.43 145.783 109.863C146.409 111.384 147.407 111.881 148.946 112.002C153.89 112.389 158.825 112.888 163.764 113.337C165.186 113.466 166.333 113.933 166.786 115.465C167.23 116.968 166.575 118.059 165.529 118.989C161.987 122.137 158.512 125.37 154.836 128.353C153.155 129.718 152.723 131.005 153.261 133.072C154.421 137.535 155.297 142.071 156.37 146.558C156.735 148.087 156.762 149.486 155.422 150.482C154.018 151.526 152.602 151.072 151.218 150.244C146.953 147.691 142.65 145.2 138.403 142.619C137.336 141.971 136.497 141.919 135.415 142.607C132.994 144.145 130.488 145.55 128.007 147.015C126.479 144.017 126.542 143.672 128.781 141.709C129.998 140.643 131.214 139.574 132.409 138.483C135.038 136.081 137.219 135.812 140.27 137.591C142.817 139.075 145.339 140.601 147.877 142.1C148.513 142.476 149.109 142.956 150.171 143.003C149.424 139.679 148.883 136.391 147.923 133.23C146.832 129.636 147.657 127.049 150.733 124.823C153.288 122.974 155.515 120.672 158.137 118.35C155.776 117.47 153.561 117.806 151.456 117.451C149.813 117.174 148.126 117.162 146.46 117.022C144.131 116.827 142.478 115.788 141.581 113.503C140.399 110.495 139.055 107.551 137.766 104.585C137.543 104.07 137.404 103.484 136.72 103.079C135.435 105.219 134.665 107.575 133.636 109.804C133.007 111.168 132.404 112.545 131.841 113.937C131.119 115.722 129.758 116.731 127.927 116.966C125.24 117.31 122.529 117.472 119.832 117.746C118.777 117.853 118.084 117.575 117.721 116.474C117.347 115.343 116.803 114.267 116.364 113.238C117.007 112.433 117.79 112.784 118.566 112.545Z" fill="white"/>
<path d="M71.2056 114.187C70.0963 116.222 68.4029 116.926 66.2865 117.076C62.6151 117.336 58.9536 117.735 55.307 118.075C55.1799 118.917 55.7759 119.127 56.1203 119.435C58.5328 121.591 60.9094 123.797 63.4343 125.816C65.5791 127.532 66.0719 129.567 65.4383 132.124C64.6889 135.148 64.0659 138.203 63.3955 141.247C63.2852 141.747 63.1266 142.254 63.3732 142.873C64.2056 142.867 64.8292 142.335 65.4987 141.944C68.1932 140.369 70.8597 138.745 73.5773 137.211C75.8776 135.913 77.0677 136.07 79.0676 137.793C80.7315 139.226 82.3038 140.774 84.0402 142.111C85.6729 143.369 85.599 144.723 84.6147 146.569C82.4951 145.366 80.3469 144.288 78.3588 142.969C76.9441 142.03 75.8784 141.91 74.3566 142.881C70.4126 145.399 66.325 147.692 62.2886 150.065C61.5474 150.5 60.8412 151.003 59.9242 151.074C57.7205 151.246 56.2105 149.694 56.6638 147.527C57.7502 142.333 58.8739 137.146 60.074 131.978C60.3484 130.796 60.1193 130.015 59.2214 129.245C55.449 126.01 51.7292 122.713 47.9531 119.483C46.6748 118.389 45.7799 117.206 46.3603 115.443C46.9006 113.801 48.2573 113.48 49.7864 113.347C54.7304 112.919 59.668 112.418 64.6109 111.977C65.9043 111.862 66.6954 111.263 67.2023 110.049C69.1174 105.464 71.1199 100.916 73.0434 96.3353C73.6797 94.8198 74.61 93.734 76.3471 93.742C78.0692 93.75 78.8427 95.0239 79.4344 96.3864C81.3444 100.784 83.2958 105.167 85.0722 109.619C85.7326 111.274 86.734 111.925 88.4306 112.001C90.8945 112.111 93.3516 112.372 95.9824 112.583C95.7764 114.441 94.9847 115.834 94.2404 117.23C93.9588 117.759 93.3532 117.718 92.8317 117.67C90.3023 117.438 87.7689 117.235 85.2474 116.934C83.1805 116.687 81.8148 115.54 81.0242 113.563C79.802 110.506 78.4486 107.502 77.1394 104.48C76.9593 104.064 76.7957 103.612 76.0637 103.328C74.1736 106.761 72.8825 110.494 71.2056 114.187Z" fill="white"/>
</svg>
