<svg width="31" height="29" viewBox="0 0 31 29" fill="none" xmlns="http://www.w3.org/2000/svg">
<path d="M5.42 13.862L7.454 18.38C7.592 18.662 7.7 18.878 7.778 19.028C7.856 19.172 7.928 19.268 7.994 19.316C8.066 19.364 8.144 19.394 8.228 19.406C8.252 19.484 8.27 19.577 8.282 19.685C8.294 19.787 8.3 19.901 8.3 20.027C8.192 20.015 8.054 20.006 7.886 20C7.718 20 7.55 20 7.382 20C7.214 20 7.082 20 6.986 20C6.914 20 6.812 20 6.68 20C6.554 20 6.416 20 6.266 20C6.122 20.006 5.984 20.009 5.852 20.009C5.72 20.015 5.618 20.021 5.546 20.027C5.546 19.883 5.552 19.763 5.564 19.667C5.576 19.571 5.594 19.484 5.618 19.406C5.828 19.364 5.951 19.295 5.987 19.199C6.029 19.097 6.002 18.935 5.906 18.713L5.096 16.868C4.958 16.55 4.844 16.256 4.754 15.986C4.67 15.71 4.598 15.44 4.538 15.176H4.799C4.727 15.446 4.646 15.719 4.556 15.995C4.472 16.271 4.367 16.559 4.241 16.859L3.557 18.641C3.479 18.833 3.464 19.001 3.512 19.145C3.56 19.289 3.686 19.376 3.89 19.406C3.914 19.49 3.932 19.583 3.944 19.685C3.956 19.787 3.962 19.901 3.962 20.027C3.896 20.021 3.803 20.015 3.683 20.009C3.563 20.009 3.437 20.006 3.305 20C3.179 20 3.065 20 2.963 20C2.813 20 2.657 20 2.495 20C2.339 20.006 2.216 20.015 2.126 20.027C2.126 19.907 2.132 19.799 2.144 19.703C2.156 19.607 2.177 19.508 2.207 19.406C2.309 19.388 2.396 19.352 2.468 19.298C2.54 19.238 2.609 19.145 2.675 19.019C2.747 18.893 2.831 18.713 2.927 18.479L4.826 13.907C4.928 13.883 5.021 13.871 5.105 13.871C5.195 13.865 5.3 13.862 5.42 13.862ZM5.753 17.84L5.915 18.38C5.513 18.38 5.093 18.386 4.655 18.398C4.223 18.41 3.8 18.437 3.386 18.479L3.521 17.84H5.753ZM9.7838 20.081C9.5198 20.081 9.3128 20.006 9.1628 19.856C9.0128 19.7 8.9378 19.499 8.9378 19.253C8.9378 19.001 9.0218 18.803 9.1898 18.659C9.3638 18.509 9.5798 18.434 9.8378 18.434C10.0838 18.434 10.2788 18.515 10.4228 18.677C10.5728 18.839 10.6478 19.016 10.6478 19.208C10.6478 19.454 10.5698 19.661 10.4138 19.829C10.2578 19.997 10.0478 20.081 9.7838 20.081ZM11.4912 20.027C11.4912 19.883 11.4942 19.763 11.5002 19.667C11.5062 19.565 11.5212 19.478 11.5452 19.406C11.7072 19.394 11.8302 19.364 11.9142 19.316C12.0042 19.262 12.0672 19.169 12.1032 19.037C12.1392 18.905 12.1572 18.71 12.1572 18.452V15.446C12.1572 15.194 12.1422 15.005 12.1122 14.879C12.0822 14.753 12.0222 14.666 11.9322 14.618C11.8482 14.564 11.7252 14.528 11.5632 14.51C11.5392 14.432 11.5212 14.342 11.5092 14.24C11.4972 14.132 11.4912 14.015 11.4912 13.889C11.6232 13.895 11.7822 13.901 11.9682 13.907C12.1602 13.907 12.3642 13.91 12.5802 13.916C12.7962 13.916 13.0032 13.916 13.2012 13.916C13.3992 13.916 13.5702 13.916 13.7142 13.916V18.344C13.7142 18.602 13.7412 18.806 13.7952 18.956C13.8552 19.1 13.9512 19.208 14.0832 19.28C14.2212 19.346 14.4072 19.388 14.6412 19.406C14.6772 19.49 14.6982 19.589 14.7042 19.703C14.7102 19.811 14.7132 19.919 14.7132 20.027C14.6052 20.021 14.4612 20.015 14.2812 20.009C14.1072 20.009 13.9212 20.006 13.7232 20C13.5252 20 13.3362 20 13.1562 20C12.8622 20 12.5562 20 12.2382 20C11.9262 20.006 11.6772 20.015 11.4912 20.027ZM15.5772 18.281C15.4332 18.281 15.3042 18.278 15.1902 18.272C15.0822 18.26 14.9832 18.236 14.8932 18.2C14.8692 17.942 14.8002 17.768 14.6862 17.678C14.5722 17.588 14.3682 17.543 14.0742 17.543H13.5252V16.94H14.0742C14.3922 16.94 14.6022 16.892 14.7042 16.796C14.8122 16.7 14.8692 16.529 14.8752 16.283C14.9712 16.241 15.0822 16.214 15.2082 16.202C15.3342 16.19 15.4572 16.184 15.5772 16.184C15.5712 16.328 15.5622 16.484 15.5502 16.652C15.5442 16.82 15.5412 17.009 15.5412 17.219C15.5412 17.447 15.5442 17.648 15.5502 17.822C15.5622 17.99 15.5712 18.143 15.5772 18.281ZM15.6132 15.59C15.5832 15.386 15.5262 15.203 15.4422 15.041C15.3642 14.873 15.2352 14.744 15.0552 14.654C14.8812 14.558 14.6322 14.51 14.3082 14.51H13.3542L13.6332 13.916C14.1132 13.916 14.5152 13.916 14.8392 13.916C15.1632 13.91 15.4332 13.907 15.6492 13.907C15.8712 13.901 16.0572 13.895 16.2072 13.889C16.2132 14.033 16.2222 14.201 16.2342 14.393C16.2522 14.585 16.2732 14.774 16.2972 14.96C16.3272 15.14 16.3602 15.302 16.3962 15.446C16.2942 15.488 16.1832 15.524 16.0632 15.554C15.9432 15.578 15.7932 15.59 15.6132 15.59ZM17.1403 20.081C16.8763 20.081 16.6693 20.006 16.5193 19.856C16.3693 19.7 16.2943 19.499 16.2943 19.253C16.2943 19.001 16.3783 18.803 16.5463 18.659C16.7203 18.509 16.9363 18.434 17.1943 18.434C17.4403 18.434 17.6353 18.515 17.7793 18.677C17.9293 18.839 18.0043 19.016 18.0043 19.208C18.0043 19.454 17.9263 19.661 17.7703 19.829C17.6143 19.997 17.4043 20.081 17.1403 20.081Z" fill="#5A1F06"/>
<circle cx="10" cy="17" r="9" stroke="#5A1F06" stroke-width="2"/>
</svg>
