<svg width="32" height="33" viewBox="0 0 32 33" fill="none" xmlns="http://www.w3.org/2000/svg">
<circle cx="16" cy="17" r="15" stroke="#5A1F06" stroke-width="2"/>
<path d="M10.56 12.816L13.272 18.84C13.456 19.216 13.6 19.504 13.704 19.704C13.808 19.896 13.904 20.024 13.992 20.088C14.088 20.152 14.192 20.192 14.304 20.208C14.336 20.312 14.36 20.436 14.376 20.58C14.392 20.716 14.4 20.868 14.4 21.036C14.256 21.02 14.072 21.008 13.848 21C13.624 21 13.4 21 13.176 21C12.952 21 12.776 21 12.648 21C12.552 21 12.416 21 12.24 21C12.072 21 11.888 21 11.688 21C11.496 21.008 11.312 21.012 11.136 21.012C10.96 21.02 10.824 21.028 10.728 21.036C10.728 20.844 10.736 20.684 10.752 20.556C10.768 20.428 10.792 20.312 10.824 20.208C11.104 20.152 11.268 20.06 11.316 19.932C11.372 19.796 11.336 19.58 11.208 19.284L10.128 16.824C9.944 16.4 9.792 16.008 9.672 15.648C9.56 15.28 9.464 14.92 9.384 14.568H9.732C9.636 14.928 9.528 15.292 9.408 15.66C9.296 16.028 9.156 16.412 8.988 16.812L8.076 19.188C7.972 19.444 7.952 19.668 8.016 19.86C8.08 20.052 8.248 20.168 8.52 20.208C8.552 20.32 8.576 20.444 8.592 20.58C8.608 20.716 8.616 20.868 8.616 21.036C8.528 21.028 8.404 21.02 8.244 21.012C8.084 21.012 7.916 21.008 7.74 21C7.572 21 7.42 21 7.284 21C7.084 21 6.876 21 6.66 21C6.452 21.008 6.288 21.02 6.168 21.036C6.168 20.876 6.176 20.732 6.192 20.604C6.208 20.476 6.236 20.344 6.276 20.208C6.412 20.184 6.528 20.136 6.624 20.064C6.72 19.984 6.812 19.86 6.9 19.692C6.996 19.524 7.108 19.284 7.236 18.972L9.768 12.876C9.904 12.844 10.028 12.828 10.14 12.828C10.26 12.82 10.4 12.816 10.56 12.816ZM11.004 18.12L11.22 18.84C10.684 18.84 10.124 18.848 9.54 18.864C8.964 18.88 8.4 18.916 7.848 18.972L8.028 18.12H11.004ZM16.3784 21.108C16.0264 21.108 15.7504 21.008 15.5504 20.808C15.3504 20.6 15.2504 20.332 15.2504 20.004C15.2504 19.668 15.3624 19.404 15.5864 19.212C15.8184 19.012 16.1064 18.912 16.4504 18.912C16.7784 18.912 17.0384 19.02 17.2304 19.236C17.4304 19.452 17.5304 19.688 17.5304 19.944C17.5304 20.272 17.4264 20.548 17.2184 20.772C17.0104 20.996 16.7304 21.108 16.3784 21.108ZM18.6549 21.036C18.6549 20.844 18.6589 20.684 18.6669 20.556C18.6749 20.42 18.6949 20.304 18.7269 20.208C18.9429 20.192 19.1069 20.152 19.2189 20.088C19.3389 20.016 19.4229 19.892 19.4709 19.716C19.5189 19.54 19.5429 19.28 19.5429 18.936V14.928C19.5429 14.592 19.5229 14.34 19.4829 14.172C19.4429 14.004 19.3629 13.888 19.2429 13.824C19.1309 13.752 18.9669 13.704 18.7509 13.68C18.7189 13.576 18.6949 13.456 18.6789 13.32C18.6629 13.176 18.6549 13.02 18.6549 12.852C18.8309 12.86 19.0429 12.868 19.2909 12.876C19.5469 12.876 19.8189 12.88 20.1069 12.888C20.3949 12.888 20.6709 12.888 20.9349 12.888C21.1989 12.888 21.4269 12.888 21.6189 12.888V18.792C21.6189 19.136 21.6549 19.408 21.7269 19.608C21.8069 19.8 21.9349 19.944 22.1109 20.04C22.2949 20.128 22.5429 20.184 22.8549 20.208C22.9029 20.32 22.9309 20.452 22.9389 20.604C22.9469 20.748 22.9509 20.892 22.9509 21.036C22.8069 21.028 22.6149 21.02 22.3749 21.012C22.1429 21.012 21.8949 21.008 21.6309 21C21.3669 21 21.1149 21 20.8749 21C20.4829 21 20.0749 21 19.6509 21C19.2349 21.008 18.9029 21.02 18.6549 21.036ZM24.1029 18.708C23.9109 18.708 23.7389 18.704 23.5869 18.696C23.4429 18.68 23.3109 18.648 23.1909 18.6C23.1589 18.256 23.0669 18.024 22.9149 17.904C22.7629 17.784 22.4909 17.724 22.0989 17.724H21.3669V16.92H22.0989C22.5229 16.92 22.8029 16.856 22.9389 16.728C23.0829 16.6 23.1589 16.372 23.1669 16.044C23.2949 15.988 23.4429 15.952 23.6109 15.936C23.7789 15.92 23.9429 15.912 24.1029 15.912C24.0949 16.104 24.0829 16.312 24.0669 16.536C24.0589 16.76 24.0549 17.012 24.0549 17.292C24.0549 17.596 24.0589 17.864 24.0669 18.096C24.0829 18.32 24.0949 18.524 24.1029 18.708ZM24.1509 15.12C24.1109 14.848 24.0349 14.604 23.9229 14.388C23.8189 14.164 23.6469 13.992 23.4069 13.872C23.1749 13.744 22.8429 13.68 22.4109 13.68H21.1389L21.5109 12.888C22.1509 12.888 22.6869 12.888 23.1189 12.888C23.5509 12.88 23.9109 12.876 24.1989 12.876C24.4949 12.868 24.7429 12.86 24.9429 12.852C24.9509 13.044 24.9629 13.268 24.9789 13.524C25.0029 13.78 25.0309 14.032 25.0629 14.28C25.1029 14.52 25.1469 14.736 25.1949 14.928C25.0589 14.984 24.9109 15.032 24.7509 15.072C24.5909 15.104 24.3909 15.12 24.1509 15.12ZM26.187 21.108C25.835 21.108 25.559 21.008 25.359 20.808C25.159 20.6 25.059 20.332 25.059 20.004C25.059 19.668 25.171 19.404 25.395 19.212C25.627 19.012 25.915 18.912 26.259 18.912C26.587 18.912 26.847 19.02 27.039 19.236C27.239 19.452 27.339 19.688 27.339 19.944C27.339 20.272 27.235 20.548 27.027 20.772C26.819 20.996 26.539 21.108 26.187 21.108Z" fill="#5A1F06"/>
</svg>
