<svg width="258" height="283" viewBox="0 0 258 283" fill="none" xmlns="http://www.w3.org/2000/svg">
<circle cx="122.691" cy="138.101" r="115.691" fill="#CAFFDA"/>
<g filter="url(#filter0_d_509_3153)">
<path d="M70.0013 61.363C85.5655 61.363 98.1828 48.7457 98.1828 33.1815C98.1828 17.6173 85.5655 5 70.0013 5C54.4371 5 41.8198 17.6173 41.8198 33.1815C41.8198 48.7457 54.4371 61.363 70.0013 61.363Z" fill="url(#paint0_radial_509_3153)"/>
</g>
<g filter="url(#filter1_d_509_3153)">
<path d="M222.759 210.751C238.323 210.751 250.94 198.134 250.94 182.569C250.94 167.005 238.323 154.388 222.759 154.388C207.195 154.388 194.577 167.005 194.577 182.569C194.577 198.134 207.195 210.751 222.759 210.751Z" fill="url(#paint1_radial_509_3153)"/>
</g>
<g filter="url(#filter2_d_509_3153)">
<path d="M41.9208 242.201C57.485 242.201 70.1023 229.584 70.1023 214.019C70.1023 198.455 57.485 185.838 41.9208 185.838C26.3566 185.838 13.7393 198.455 13.7393 214.019C13.7393 229.584 26.3566 242.201 41.9208 242.201Z" fill="url(#paint2_radial_509_3153)"/>
</g>
<g filter="url(#filter3_d_509_3153)">
<path d="M182.323 89.4434C197.887 89.4434 210.504 76.8261 210.504 61.2619C210.504 45.6977 197.887 33.0804 182.323 33.0804C166.759 33.0804 154.141 45.6977 154.141 61.2619C154.141 76.8261 166.759 89.4434 182.323 89.4434Z" fill="url(#paint3_radial_509_3153)"/>
</g>
<g filter="url(#filter4_d_509_3153)">
<path d="M159.859 266.912C175.423 266.912 188.04 254.294 188.04 238.73C188.04 223.166 175.423 210.549 159.859 210.549C144.294 210.549 131.677 223.166 131.677 238.73C131.677 254.294 144.294 266.912 159.859 266.912Z" fill="url(#paint4_radial_509_3153)"/>
</g>
<g filter="url(#filter5_d_509_3153)">
<path d="M45.2904 155.713C60.8546 155.713 73.4719 143.096 73.4719 127.532C73.4719 111.968 60.8546 99.3502 45.2904 99.3502C29.7262 99.3502 17.1089 111.968 17.1089 127.532C17.1089 143.096 29.7262 155.713 45.2904 155.713Z" fill="url(#paint5_radial_509_3153)"/>
</g>
<g filter="url(#filter6_d_509_3153)">
<path d="M52.9848 142.349C52.9848 141.944 53.0062 141.56 53.0488 141.197C53.0915 140.813 53.1662 140.472 53.2728 140.173C54.1475 140.109 54.7128 139.896 54.9688 139.533C55.2248 139.149 55.3528 138.424 55.3528 137.357V133.517C55.3528 132.728 55.3102 132.13 55.2248 131.725C55.1395 131.32 54.9262 131.021 54.5848 130.829C54.2648 130.637 53.7528 130.52 53.0488 130.477C53.0488 130.114 53.0702 129.762 53.1128 129.421C53.1768 129.058 53.2835 128.706 53.4328 128.365C54.2008 128.365 54.9795 128.322 55.7688 128.237C56.5582 128.13 57.2942 128.002 57.9768 127.853C58.6595 127.682 59.2035 127.501 59.6088 127.309C59.8648 127.394 60.0888 127.586 60.2808 127.885C60.4728 128.184 60.5688 128.61 60.5688 129.165C60.5688 129.549 60.5155 129.965 60.4088 130.413C60.3235 130.84 60.1528 131.544 59.8968 132.525H59.7048C60.1102 131.48 60.4302 130.733 60.6648 130.285C60.8995 129.837 61.1235 129.506 61.3368 129.293C61.8062 128.76 62.4248 128.301 63.1928 127.917C63.9608 127.533 64.8035 127.341 65.7208 127.341C66.7448 127.341 67.6515 127.565 68.4408 128.013C69.2515 128.44 69.8702 129.058 70.2968 129.869C70.5742 130.36 70.7128 130.861 70.7128 131.373H70.5528C70.9368 130.37 71.3635 129.656 71.8328 129.229C72.3022 128.76 72.8782 128.365 73.5608 128.045C74.2435 127.704 75.0222 127.533 75.8968 127.533C77.0275 127.533 77.9768 127.725 78.7448 128.109C79.5342 128.472 80.1315 129.058 80.5368 129.869C80.9635 130.658 81.1768 131.725 81.1768 133.069V136.205C81.1768 137.357 81.2088 138.21 81.2728 138.765C81.3582 139.298 81.5075 139.65 81.7208 139.821C81.9342 139.992 82.2648 140.098 82.7128 140.141C82.8195 140.461 82.8835 140.813 82.9048 141.197C82.9475 141.56 82.9688 141.944 82.9688 142.349C82.4355 142.306 81.7955 142.274 81.0488 142.253C80.3022 142.253 79.5342 142.253 78.7448 142.253C78.2328 142.253 77.6782 142.253 77.0808 142.253C76.4835 142.274 75.9075 142.285 75.3528 142.285C74.7982 142.306 74.3288 142.328 73.9448 142.349C73.9448 141.88 73.9555 141.485 73.9768 141.165C74.0195 140.824 74.0835 140.482 74.1688 140.141C74.5955 140.12 74.9368 140.013 75.1928 139.821C75.4488 139.629 75.6302 139.266 75.7368 138.733C75.8435 138.2 75.8968 137.442 75.8968 136.461V134.125C75.8968 132.802 75.7155 131.917 75.3528 131.469C74.9902 131 74.5102 130.765 73.9128 130.765C73.3155 130.765 72.7822 130.957 72.3128 131.341C71.8648 131.725 71.5128 132.301 71.2568 133.069C71.0222 133.816 70.9048 134.733 70.9048 135.821V137.197C70.9048 138.306 71.0222 139.064 71.2568 139.469C71.4915 139.874 71.9608 140.098 72.6648 140.141C72.7502 140.418 72.8142 140.76 72.8568 141.165C72.8995 141.549 72.9208 141.944 72.9208 142.349C72.4302 142.306 71.7475 142.274 70.8728 142.253C70.0195 142.253 69.1768 142.253 68.3448 142.253C67.4915 142.253 66.6275 142.253 65.7528 142.253C64.8995 142.274 64.1848 142.306 63.6088 142.349C63.6088 141.944 63.6302 141.549 63.6728 141.165C63.7368 140.76 63.8115 140.418 63.8968 140.141C64.3875 140.098 64.7608 139.992 65.0168 139.821C65.2728 139.629 65.4435 139.266 65.5288 138.733C65.6355 138.178 65.6888 137.336 65.6888 136.205V133.837C65.6888 132.642 65.5075 131.821 65.1448 131.373C64.7822 130.925 64.2382 130.701 63.5128 130.701C62.9795 130.701 62.4888 130.914 62.0408 131.341C61.6142 131.768 61.2622 132.365 60.9848 133.133C60.7288 133.901 60.6008 134.776 60.6008 135.757V137.197C60.6008 138.349 60.7182 139.117 60.9528 139.501C61.1875 139.885 61.6462 140.098 62.3288 140.141C62.4355 140.44 62.5102 140.781 62.5528 141.165C62.5955 141.549 62.6168 141.944 62.6168 142.349C62.2755 142.306 61.8062 142.274 61.2088 142.253C60.6328 142.253 60.0248 142.253 59.3848 142.253C58.7662 142.253 58.2115 142.253 57.7208 142.253C57.2302 142.253 56.6648 142.253 56.0248 142.253C55.4062 142.253 54.8195 142.253 54.2648 142.253C53.7315 142.274 53.3048 142.306 52.9848 142.349ZM92.5526 142.541C90.7606 142.541 89.2459 142.242 88.0086 141.645C86.7926 141.026 85.8752 140.162 85.2566 139.053C84.6379 137.944 84.3286 136.642 84.3286 135.149C84.3286 133.421 84.6912 131.981 85.4166 130.829C86.1632 129.656 87.1766 128.781 88.4566 128.205C89.7366 127.608 91.1766 127.309 92.7766 127.309C94.6113 127.309 96.1366 127.629 97.3526 128.269C98.5899 128.909 99.5179 129.784 100.137 130.893C100.755 132.002 101.065 133.282 101.065 134.733C101.065 136.333 100.723 137.72 100.041 138.893C99.3579 140.066 98.3766 140.973 97.0966 141.613C95.8166 142.232 94.3019 142.541 92.5526 142.541ZM93.0646 140.301C93.9392 140.301 94.6006 139.853 95.0486 138.957C95.4966 138.061 95.7206 136.952 95.7206 135.629C95.7206 134.242 95.5606 133.09 95.2406 132.173C94.9206 131.256 94.5046 130.573 93.9926 130.125C93.4806 129.656 92.9259 129.421 92.3286 129.421C91.4113 129.421 90.7393 129.869 90.3126 130.765C89.8859 131.661 89.6726 132.76 89.6726 134.061C89.6726 135.234 89.8006 136.301 90.0566 137.261C90.3126 138.2 90.6966 138.946 91.2086 139.501C91.7206 140.034 92.3393 140.301 93.0646 140.301ZM109.572 142.541C107.994 142.541 106.799 142.136 105.988 141.325C105.178 140.493 104.772 139.096 104.772 137.133V130.541C104.431 130.413 104.068 130.317 103.684 130.253C103.322 130.189 102.895 130.157 102.404 130.157C102.404 129.73 102.426 129.346 102.468 129.005C102.532 128.642 102.65 128.28 102.82 127.917H104.772V124.109C105.604 124.002 106.415 123.789 107.204 123.469C108.015 123.149 108.666 122.797 109.156 122.413C109.498 122.541 109.732 122.744 109.86 123.021C109.988 123.298 110.052 123.789 110.052 124.493V127.917H113.892C113.892 128.386 113.86 128.802 113.796 129.165C113.754 129.506 113.679 129.848 113.572 130.189C112.89 130.189 112.25 130.242 111.652 130.349C111.076 130.434 110.543 130.562 110.052 130.733V136.653C110.052 137.57 110.106 138.274 110.212 138.765C110.319 139.234 110.49 139.565 110.724 139.757C110.959 139.928 111.258 140.013 111.62 140.013C111.94 140.013 112.26 139.981 112.58 139.917C112.922 139.832 113.242 139.714 113.54 139.565C113.839 139.992 113.999 140.589 114.02 141.357C113.572 141.698 112.932 141.986 112.1 142.221C111.29 142.434 110.447 142.541 109.572 142.541ZM115.547 142.349C115.547 141.901 115.569 141.496 115.611 141.133C115.654 140.749 115.718 140.418 115.803 140.141C116.657 140.098 117.222 139.896 117.499 139.533C117.777 139.149 117.915 138.424 117.915 137.357V132.717C117.915 132.226 117.851 131.821 117.723 131.501C117.617 131.181 117.393 130.946 117.051 130.797C116.71 130.626 116.209 130.52 115.547 130.477C115.547 130.114 115.569 129.752 115.611 129.389C115.675 129.005 115.782 128.664 115.931 128.365C116.806 128.365 117.659 128.312 118.491 128.205C119.323 128.098 120.059 127.97 120.699 127.821C121.361 127.65 121.851 127.48 122.171 127.309C122.491 127.437 122.737 127.65 122.907 127.949C123.099 128.248 123.195 128.653 123.195 129.165V137.357C123.195 138.424 123.334 139.149 123.611 139.533C123.889 139.896 124.433 140.098 125.243 140.141C125.329 140.418 125.382 140.749 125.403 141.133C125.446 141.517 125.467 141.922 125.467 142.349C125.19 142.328 124.785 142.306 124.251 142.285C123.718 142.285 123.121 142.274 122.459 142.253C121.819 142.253 121.169 142.253 120.507 142.253C119.867 142.253 119.217 142.253 118.555 142.253C117.894 142.274 117.297 142.285 116.763 142.285C116.251 142.306 115.846 142.328 115.547 142.349ZM120.123 125.229C119.249 125.229 118.545 125.016 118.011 124.589C117.478 124.141 117.211 123.554 117.211 122.829C117.211 121.997 117.499 121.357 118.075 120.909C118.673 120.44 119.409 120.205 120.283 120.205C121.286 120.205 122.043 120.429 122.555 120.877C123.089 121.325 123.355 121.965 123.355 122.797C123.355 123.501 123.067 124.088 122.491 124.557C121.915 125.005 121.126 125.229 120.123 125.229ZM134.203 142.541C133.926 141.88 133.606 141.165 133.243 140.397C132.902 139.608 132.539 138.797 132.155 137.965C131.793 137.133 131.419 136.322 131.035 135.533C130.651 134.744 130.289 134.018 129.947 133.357C129.627 132.674 129.35 132.088 129.115 131.597C128.881 131.128 128.667 130.765 128.475 130.509C128.283 130.253 128.081 130.072 127.867 129.965C127.675 129.858 127.441 129.773 127.163 129.709C127.078 129.41 127.003 129.069 126.939 128.685C126.875 128.28 126.843 127.885 126.843 127.501C127.334 127.522 127.985 127.544 128.795 127.565C129.627 127.586 130.502 127.597 131.419 127.597C132.038 127.597 132.667 127.597 133.307 127.597C133.947 127.576 134.545 127.565 135.099 127.565C135.654 127.544 136.102 127.522 136.443 127.501C136.443 127.864 136.411 128.258 136.347 128.685C136.283 129.09 136.209 129.432 136.123 129.709C135.313 129.794 134.843 129.976 134.715 130.253C134.587 130.509 134.715 131.032 135.099 131.821C135.313 132.29 135.526 132.792 135.739 133.325C135.974 133.837 136.198 134.392 136.411 134.989C136.646 135.565 136.87 136.162 137.083 136.781C137.318 137.378 137.542 138.008 137.755 138.669H136.699C137.147 137.368 137.574 136.226 137.979 135.245C138.385 134.264 138.811 133.261 139.259 132.237C139.643 131.32 139.75 130.69 139.579 130.349C139.409 130.008 138.971 129.794 138.267 129.709C138.182 129.432 138.097 129.09 138.011 128.685C137.947 128.258 137.915 127.864 137.915 127.501C138.342 127.522 138.822 127.544 139.355 127.565C139.889 127.586 140.465 127.597 141.083 127.597C141.702 127.597 142.289 127.586 142.843 127.565C143.398 127.544 143.899 127.522 144.347 127.501C144.347 127.864 144.315 128.258 144.251 128.685C144.187 129.112 144.091 129.453 143.963 129.709C143.601 129.794 143.291 129.922 143.035 130.093C142.779 130.242 142.545 130.477 142.331 130.797C142.139 131.117 141.926 131.565 141.691 132.141L137.275 142.125C136.913 142.296 136.433 142.424 135.835 142.509C135.259 142.594 134.715 142.605 134.203 142.541ZM153.3 142.541C151.38 142.541 149.822 142.21 148.628 141.549C147.454 140.888 146.59 139.992 146.036 138.861C145.481 137.73 145.204 136.461 145.204 135.053C145.204 133.474 145.513 132.109 146.132 130.957C146.75 129.805 147.646 128.909 148.82 128.269C149.993 127.629 151.369 127.309 152.948 127.309C154.526 127.309 155.828 127.608 156.852 128.205C157.876 128.781 158.633 129.592 159.124 130.637C159.636 131.661 159.913 132.856 159.956 134.221C159.785 134.925 159.476 135.49 159.028 135.917C158.409 135.917 157.705 135.917 156.916 135.917C156.126 135.917 155.294 135.928 154.42 135.949C153.566 135.949 152.692 135.97 151.796 136.013C150.921 136.056 150.078 136.109 149.268 136.173V133.869H155.156C155.156 132.418 154.964 131.32 154.58 130.573C154.217 129.826 153.662 129.453 152.916 129.453C152.425 129.453 151.988 129.634 151.604 129.997C151.241 130.338 150.964 130.861 150.772 131.565C150.58 132.248 150.484 133.101 150.484 134.125C150.484 135.234 150.622 136.226 150.9 137.101C151.177 137.976 151.636 138.658 152.276 139.149C152.916 139.64 153.78 139.885 154.868 139.885C155.614 139.885 156.361 139.757 157.108 139.501C157.854 139.245 158.473 138.914 158.964 138.509C159.177 138.637 159.369 138.893 159.54 139.277C159.71 139.64 159.796 140.013 159.796 140.397C158.964 141.101 158.014 141.634 156.948 141.997C155.902 142.36 154.686 142.541 153.3 142.541ZM153.972 125.293C153.502 125.293 153.022 125.24 152.532 125.133C152.041 125.026 151.657 124.898 151.38 124.749C151.87 123.789 152.265 122.914 152.564 122.125C152.884 121.314 153.15 120.482 153.364 119.629C153.812 119.48 154.292 119.373 154.804 119.309C155.337 119.245 155.87 119.213 156.404 119.213C156.724 119.234 157.033 119.256 157.332 119.277C157.652 119.298 157.929 119.33 158.164 119.373C157.353 120.312 156.585 121.293 155.86 122.317C155.156 123.32 154.526 124.312 153.972 125.293ZM170.175 142.541C168.255 142.541 166.697 142.21 165.503 141.549C164.329 140.888 163.465 139.992 162.911 138.861C162.356 137.73 162.079 136.461 162.079 135.053C162.079 133.474 162.388 132.109 163.007 130.957C163.625 129.805 164.521 128.909 165.695 128.269C166.868 127.629 168.244 127.309 169.823 127.309C171.401 127.309 172.703 127.608 173.727 128.205C174.751 128.781 175.508 129.592 175.999 130.637C176.511 131.661 176.788 132.856 176.831 134.221C176.66 134.925 176.351 135.49 175.903 135.917C175.284 135.917 174.58 135.917 173.791 135.917C173.001 135.917 172.169 135.928 171.295 135.949C170.441 135.949 169.567 135.97 168.671 136.013C167.796 136.056 166.953 136.109 166.143 136.173V133.869H172.031C172.031 132.418 171.839 131.32 171.455 130.573C171.092 129.826 170.537 129.453 169.791 129.453C169.3 129.453 168.863 129.634 168.479 129.997C168.116 130.338 167.839 130.861 167.647 131.565C167.455 132.248 167.359 133.101 167.359 134.125C167.359 135.234 167.497 136.226 167.775 137.101C168.052 137.976 168.511 138.658 169.151 139.149C169.791 139.64 170.655 139.885 171.743 139.885C172.489 139.885 173.236 139.757 173.983 139.501C174.729 139.245 175.348 138.914 175.839 138.509C176.052 138.637 176.244 138.893 176.415 139.277C176.585 139.64 176.671 140.013 176.671 140.397C175.839 141.101 174.889 141.634 173.823 141.997C172.777 142.36 171.561 142.541 170.175 142.541Z" fill="#5F260E"/>
</g>
<defs>
<filter id="filter0_d_509_3153" x="28.8198" y="0.67" width="76.363" height="76.363" filterUnits="userSpaceOnUse" color-interpolation-filters="sRGB">
<feFlood flood-opacity="0" result="BackgroundImageFix"/>
<feColorMatrix in="SourceAlpha" type="matrix" values="0 0 0 0 0 0 0 0 0 0 0 0 0 0 0 0 0 0 127 0" result="hardAlpha"/>
<feOffset dx="-3" dy="5.67"/>
<feGaussianBlur stdDeviation="5"/>
<feColorMatrix type="matrix" values="0 0 0 0 0.113725 0 0 0 0 0.113725 0 0 0 0 0.105882 0 0 0 0.5 0"/>
<feBlend mode="normal" in2="BackgroundImageFix" result="effect1_dropShadow_509_3153"/>
<feBlend mode="normal" in="SourceGraphic" in2="effect1_dropShadow_509_3153" result="shape"/>
</filter>
<filter id="filter1_d_509_3153" x="181.577" y="150.058" width="76.363" height="76.363" filterUnits="userSpaceOnUse" color-interpolation-filters="sRGB">
<feFlood flood-opacity="0" result="BackgroundImageFix"/>
<feColorMatrix in="SourceAlpha" type="matrix" values="0 0 0 0 0 0 0 0 0 0 0 0 0 0 0 0 0 0 127 0" result="hardAlpha"/>
<feOffset dx="-3" dy="5.67"/>
<feGaussianBlur stdDeviation="5"/>
<feColorMatrix type="matrix" values="0 0 0 0 0.113725 0 0 0 0 0.113725 0 0 0 0 0.105882 0 0 0 0.5 0"/>
<feBlend mode="normal" in2="BackgroundImageFix" result="effect1_dropShadow_509_3153"/>
<feBlend mode="normal" in="SourceGraphic" in2="effect1_dropShadow_509_3153" result="shape"/>
</filter>
<filter id="filter2_d_509_3153" x="0.739258" y="181.508" width="76.363" height="76.363" filterUnits="userSpaceOnUse" color-interpolation-filters="sRGB">
<feFlood flood-opacity="0" result="BackgroundImageFix"/>
<feColorMatrix in="SourceAlpha" type="matrix" values="0 0 0 0 0 0 0 0 0 0 0 0 0 0 0 0 0 0 127 0" result="hardAlpha"/>
<feOffset dx="-3" dy="5.67"/>
<feGaussianBlur stdDeviation="5"/>
<feColorMatrix type="matrix" values="0 0 0 0 0.113725 0 0 0 0 0.113725 0 0 0 0 0.105882 0 0 0 0.5 0"/>
<feBlend mode="normal" in2="BackgroundImageFix" result="effect1_dropShadow_509_3153"/>
<feBlend mode="normal" in="SourceGraphic" in2="effect1_dropShadow_509_3153" result="shape"/>
</filter>
<filter id="filter3_d_509_3153" x="141.141" y="28.7504" width="76.363" height="76.363" filterUnits="userSpaceOnUse" color-interpolation-filters="sRGB">
<feFlood flood-opacity="0" result="BackgroundImageFix"/>
<feColorMatrix in="SourceAlpha" type="matrix" values="0 0 0 0 0 0 0 0 0 0 0 0 0 0 0 0 0 0 127 0" result="hardAlpha"/>
<feOffset dx="-3" dy="5.67"/>
<feGaussianBlur stdDeviation="5"/>
<feColorMatrix type="matrix" values="0 0 0 0 0.113725 0 0 0 0 0.113725 0 0 0 0 0.105882 0 0 0 0.5 0"/>
<feBlend mode="normal" in2="BackgroundImageFix" result="effect1_dropShadow_509_3153"/>
<feBlend mode="normal" in="SourceGraphic" in2="effect1_dropShadow_509_3153" result="shape"/>
</filter>
<filter id="filter4_d_509_3153" x="118.677" y="206.219" width="76.363" height="76.363" filterUnits="userSpaceOnUse" color-interpolation-filters="sRGB">
<feFlood flood-opacity="0" result="BackgroundImageFix"/>
<feColorMatrix in="SourceAlpha" type="matrix" values="0 0 0 0 0 0 0 0 0 0 0 0 0 0 0 0 0 0 127 0" result="hardAlpha"/>
<feOffset dx="-3" dy="5.67"/>
<feGaussianBlur stdDeviation="5"/>
<feColorMatrix type="matrix" values="0 0 0 0 0.113725 0 0 0 0 0.113725 0 0 0 0 0.105882 0 0 0 0.5 0"/>
<feBlend mode="normal" in2="BackgroundImageFix" result="effect1_dropShadow_509_3153"/>
<feBlend mode="normal" in="SourceGraphic" in2="effect1_dropShadow_509_3153" result="shape"/>
</filter>
<filter id="filter5_d_509_3153" x="4.10889" y="95.0202" width="76.363" height="76.363" filterUnits="userSpaceOnUse" color-interpolation-filters="sRGB">
<feFlood flood-opacity="0" result="BackgroundImageFix"/>
<feColorMatrix in="SourceAlpha" type="matrix" values="0 0 0 0 0 0 0 0 0 0 0 0 0 0 0 0 0 0 127 0" result="hardAlpha"/>
<feOffset dx="-3" dy="5.67"/>
<feGaussianBlur stdDeviation="5"/>
<feColorMatrix type="matrix" values="0 0 0 0 0.113725 0 0 0 0 0.113725 0 0 0 0 0.105882 0 0 0 0.5 0"/>
<feBlend mode="normal" in2="BackgroundImageFix" result="effect1_dropShadow_509_3153"/>
<feBlend mode="normal" in="SourceGraphic" in2="effect1_dropShadow_509_3153" result="shape"/>
</filter>
<filter id="filter6_d_509_3153" x="48.9849" y="119.213" width="131.846" height="31.424" filterUnits="userSpaceOnUse" color-interpolation-filters="sRGB">
<feFlood flood-opacity="0" result="BackgroundImageFix"/>
<feColorMatrix in="SourceAlpha" type="matrix" values="0 0 0 0 0 0 0 0 0 0 0 0 0 0 0 0 0 0 127 0" result="hardAlpha"/>
<feOffset dy="4"/>
<feGaussianBlur stdDeviation="2"/>
<feComposite in2="hardAlpha" operator="out"/>
<feColorMatrix type="matrix" values="0 0 0 0 0 0 0 0 0 0 0 0 0 0 0 0 0 0 0.25 0"/>
<feBlend mode="normal" in2="BackgroundImageFix" result="effect1_dropShadow_509_3153"/>
<feBlend mode="normal" in="SourceGraphic" in2="effect1_dropShadow_509_3153" result="shape"/>
</filter>
<radialGradient id="paint0_radial_509_3153" cx="0" cy="0" r="1" gradientUnits="userSpaceOnUse" gradientTransform="translate(70.0013 33.1815) scale(28.1815 28.1815)">
<stop stop-color="#92E4AB"/>
<stop offset="0.309316" stop-color="#54D471"/>
<stop offset="1" stop-color="#0B8C24"/>
</radialGradient>
<radialGradient id="paint1_radial_509_3153" cx="0" cy="0" r="1" gradientUnits="userSpaceOnUse" gradientTransform="translate(222.759 182.569) scale(28.1815 28.1815)">
<stop stop-color="#92E4AB"/>
<stop offset="0.309316" stop-color="#54D471"/>
<stop offset="1" stop-color="#0B8C24"/>
</radialGradient>
<radialGradient id="paint2_radial_509_3153" cx="0" cy="0" r="1" gradientUnits="userSpaceOnUse" gradientTransform="translate(41.9208 214.019) scale(28.1815 28.1815)">
<stop stop-color="#92E4AB"/>
<stop offset="0.309316" stop-color="#54D471"/>
<stop offset="1" stop-color="#0B8C24"/>
</radialGradient>
<radialGradient id="paint3_radial_509_3153" cx="0" cy="0" r="1" gradientUnits="userSpaceOnUse" gradientTransform="translate(182.323 61.2619) scale(28.1815 28.1815)">
<stop offset="0.23" stop-color="#10C7AD"/>
<stop offset="0.775" stop-color="#068E7B"/>
<stop offset="1" stop-color="#077A6A"/>
</radialGradient>
<radialGradient id="paint4_radial_509_3153" cx="0" cy="0" r="1" gradientUnits="userSpaceOnUse" gradientTransform="translate(159.859 238.73) scale(28.1815 28.1815)">
<stop offset="0.23" stop-color="#10C7AD"/>
<stop offset="0.775" stop-color="#068E7B"/>
<stop offset="1" stop-color="#077A6A"/>
</radialGradient>
<radialGradient id="paint5_radial_509_3153" cx="0" cy="0" r="1" gradientUnits="userSpaceOnUse" gradientTransform="translate(45.2904 127.532) scale(28.1815 28.1815)">
<stop offset="0.23" stop-color="#10C7AD"/>
<stop offset="0.775" stop-color="#068E7B"/>
<stop offset="1" stop-color="#077A6A"/>
</radialGradient>
</defs>
</svg>
