<svg width="163" height="28" viewBox="0 0 163 28" fill="none" xmlns="http://www.w3.org/2000/svg">
<rect width="28" height="28" fill="#73CF11"/>
<rect x="34" width="28" height="28" fill="#73CF11"/>
<rect x="67" width="28" height="28" fill="#73CF11"/>
<rect x="101" width="28" height="28" fill="#73CF11"/>
<rect x="135" width="28" height="28" fill="#D9D9D9"/>
<path d="M14.5 5L16.6329 11.5643H23.535L17.9511 15.6213L20.084 22.1857L14.5 18.1287L8.91604 22.1857L11.0489 15.6213L5.46496 11.5643H12.3671L14.5 5Z" fill="white"/>
<path d="M47.5 5L49.6329 11.5643H56.535L50.9511 15.6213L53.084 22.1857L47.5 18.1287L41.916 22.1857L44.0489 15.6213L38.465 11.5643H45.3671L47.5 5Z" fill="white"/>
<path d="M80.5 5L82.6329 11.5643H89.535L83.9511 15.6213L86.084 22.1857L80.5 18.1287L74.916 22.1857L77.0489 15.6213L71.465 11.5643H78.3671L80.5 5Z" fill="white"/>
<path d="M114.5 5L116.633 11.5643H123.535L117.951 15.6213L120.084 22.1857L114.5 18.1287L108.916 22.1857L111.049 15.6213L105.465 11.5643H112.367L114.5 5Z" fill="white"/>
<path d="M148.5 5L150.633 11.5643H157.535L151.951 15.6213L154.084 22.1857L148.5 18.1287L142.916 22.1857L145.049 15.6213L139.465 11.5643H146.367L148.5 5Z" fill="white"/>
</svg>
