<svg width="261" height="280" viewBox="0 0 261 280" fill="none" xmlns="http://www.w3.org/2000/svg">
<circle cx="118.358" cy="123.629" r="112.358" fill="#FAEAA3"/>
<g filter="url(#filter0_d_502_3143)">
<path d="M133.728 91.645C148.844 91.645 161.098 79.3912 161.098 64.2754C161.098 49.1596 148.844 36.9058 133.728 36.9058C118.613 36.9058 106.359 49.1596 106.359 64.2754C106.359 79.3912 118.613 91.645 133.728 91.645Z" fill="url(#paint0_radial_502_3143)"/>
</g>
<g filter="url(#filter1_d_502_3143)">
<path d="M198.089 226.911C213.205 226.911 225.458 214.657 225.458 199.542C225.458 184.426 213.205 172.172 198.089 172.172C182.973 172.172 170.719 184.426 170.719 199.542C170.719 214.657 182.973 226.911 198.089 226.911Z" fill="url(#paint1_radial_502_3143)"/>
</g>
<g filter="url(#filter2_d_502_3143)">
<path d="M218.815 137.461C233.931 137.461 246.185 125.207 246.185 110.091C246.185 94.9756 233.931 82.7218 218.815 82.7218C203.699 82.7218 191.445 94.9756 191.445 110.091C191.445 125.207 203.699 137.461 218.815 137.461Z" fill="url(#paint2_radial_502_3143)"/>
</g>
<g filter="url(#filter3_d_502_3143)">
<path d="M97.73 264C112.846 264 125.1 251.746 125.1 236.631C125.1 221.515 112.846 209.261 97.73 209.261C82.6143 209.261 70.3605 221.515 70.3605 236.631C70.3605 251.746 82.6143 264 97.73 264Z" fill="url(#paint3_radial_502_3143)"/>
</g>
<g filter="url(#filter4_d_502_3143)">
<path d="M33.3696 58.9193C48.4854 58.9193 60.7391 46.6655 60.7391 31.5497C60.7391 16.434 48.4854 4.18018 33.3696 4.18018C18.2538 4.18018 6 16.434 6 31.5497C6 46.6655 18.2538 58.9193 33.3696 58.9193Z" fill="url(#paint4_radial_502_3143)"/>
</g>
<g filter="url(#filter5_d_502_3143)">
<path d="M22.34 122.378C22.34 123.295 22.436 124.021 22.628 124.554C22.8413 125.066 23.1827 125.45 23.652 125.706C24.1427 125.941 24.8147 126.09 25.668 126.154C25.7747 126.453 25.8387 126.805 25.86 127.21C25.9027 127.594 25.924 127.978 25.924 128.362C25.54 128.341 25.0493 128.319 24.452 128.298C23.8547 128.298 23.2147 128.287 22.532 128.266C21.8707 128.266 21.22 128.266 20.58 128.266C19.5347 128.266 18.4573 128.266 17.348 128.266C16.2387 128.287 15.3533 128.319 14.692 128.362C14.692 127.85 14.7027 127.423 14.724 127.082C14.7667 126.719 14.8307 126.41 14.916 126.154C15.492 126.111 15.9293 126.005 16.228 125.834C16.548 125.642 16.7613 125.311 16.868 124.842C16.996 124.373 17.06 123.679 17.06 122.762V121.002H22.34V122.378ZM22.34 118.826V121.642H17.06V118.186L22.34 115.21C22.34 115.637 22.276 116.117 22.148 116.65C22.0413 117.183 21.892 117.855 21.7 118.666L22.34 118.826ZM21.636 118.762C21.7853 118.335 21.956 117.855 22.148 117.322C22.34 116.767 22.5107 116.362 22.66 116.106C23.1293 115.359 23.716 114.741 24.42 114.25C25.124 113.759 25.9027 113.514 26.756 113.514C27.588 113.514 28.356 113.77 29.06 114.282C28.996 114.73 28.932 115.253 28.868 115.85C28.804 116.447 28.7613 117.055 28.74 117.674C28.74 118.271 28.7507 118.815 28.772 119.306C28.4093 119.455 27.9293 119.562 27.332 119.626C26.7347 119.669 26.2227 119.69 25.796 119.69C25.7533 118.922 25.6253 118.378 25.412 118.058C25.1987 117.717 24.8787 117.546 24.452 117.546C24.1533 117.546 23.8333 117.727 23.492 118.09C23.172 118.453 22.8947 118.922 22.66 119.498C22.4467 120.053 22.34 120.65 22.34 121.29L21.636 118.762ZM17.06 121.642V119.178C17.06 118.517 17.0173 118.005 16.932 117.642C16.8467 117.279 16.6333 117.013 16.292 116.842C15.972 116.65 15.46 116.533 14.756 116.49C14.756 116.127 14.7773 115.765 14.82 115.402C14.884 115.018 14.9907 114.677 15.14 114.378C16.484 114.378 17.7213 114.271 18.852 114.058C20.004 113.823 20.836 113.578 21.348 113.322C21.668 113.45 21.9133 113.663 22.084 113.962C22.2547 114.261 22.34 114.677 22.34 115.21L17.06 121.642ZM38.7567 128.554C36.8367 128.554 35.2794 128.223 34.0847 127.562C32.9114 126.901 32.0474 126.005 31.4927 124.874C30.9381 123.743 30.6607 122.474 30.6607 121.066C30.6607 119.487 30.9701 118.122 31.5887 116.97C32.2074 115.818 33.1034 114.922 34.2767 114.282C35.4501 113.642 36.8261 113.322 38.4047 113.322C39.9834 113.322 41.2847 113.621 42.3087 114.218C43.3327 114.794 44.0901 115.605 44.5807 116.65C45.0927 117.674 45.3701 118.869 45.4127 120.234C45.2421 120.938 44.9327 121.503 44.4847 121.93C43.8661 121.93 43.1621 121.93 42.3727 121.93C41.5834 121.93 40.7514 121.941 39.8767 121.962C39.0234 121.962 38.1487 121.983 37.2527 122.026C36.3781 122.069 35.5354 122.122 34.7247 122.186V119.882H40.6127C40.6127 118.431 40.4207 117.333 40.0367 116.586C39.6741 115.839 39.1194 115.466 38.3727 115.466C37.8821 115.466 37.4447 115.647 37.0607 116.01C36.6981 116.351 36.4207 116.874 36.2287 117.578C36.0367 118.261 35.9407 119.114 35.9407 120.138C35.9407 121.247 36.0794 122.239 36.3567 123.114C36.6341 123.989 37.0927 124.671 37.7327 125.162C38.3727 125.653 39.2367 125.898 40.3247 125.898C41.0714 125.898 41.8181 125.77 42.5647 125.514C43.3114 125.258 43.9301 124.927 44.4207 124.522C44.6341 124.65 44.8261 124.906 44.9967 125.29C45.1674 125.653 45.2527 126.026 45.2527 126.41C44.4207 127.114 43.4714 127.647 42.4047 128.01C41.3594 128.373 40.1434 128.554 38.7567 128.554ZM59.4077 114.314C59.3864 114.869 59.3757 115.445 59.3757 116.042C59.3971 116.618 59.4504 117.183 59.5357 117.738C59.2157 117.909 58.7997 118.058 58.2877 118.186C57.7971 118.314 57.2957 118.378 56.7837 118.378C56.7197 117.845 56.5704 117.365 56.3357 116.938C56.1224 116.49 55.8131 116.138 55.4077 115.882C55.0237 115.626 54.5224 115.498 53.9037 115.498C53.4771 115.498 53.1357 115.615 52.8797 115.85C52.6451 116.063 52.5277 116.351 52.5277 116.714C52.5277 116.97 52.5917 117.215 52.7197 117.45C52.8691 117.685 53.1784 117.951 53.6477 118.25C54.1384 118.527 54.8851 118.879 55.8877 119.306C57.1037 119.797 58.0531 120.266 58.7357 120.714C59.4397 121.162 59.9411 121.642 60.2397 122.154C60.5384 122.666 60.6877 123.285 60.6877 124.01C60.6877 124.97 60.3997 125.791 59.8237 126.474C59.2691 127.157 58.4691 127.679 57.4237 128.042C56.3784 128.383 55.1197 128.554 53.6477 128.554C52.3037 128.554 51.1837 128.458 50.2877 128.266C49.3917 128.074 48.5171 127.807 47.6637 127.466C47.7277 127.039 47.7704 126.591 47.7917 126.122C47.8131 125.631 47.8131 125.162 47.7917 124.714C47.7917 124.245 47.7704 123.839 47.7277 123.498C48.0477 123.285 48.4744 123.135 49.0077 123.05C49.5624 122.943 50.0744 122.89 50.5437 122.89C50.6717 123.999 50.9917 124.842 51.5037 125.418C52.0371 125.973 52.6877 126.25 53.4557 126.25C53.9891 126.25 54.4264 126.133 54.7677 125.898C55.1304 125.663 55.3117 125.322 55.3117 124.874C55.3117 124.554 55.2264 124.277 55.0557 124.042C54.9064 123.786 54.6184 123.541 54.1917 123.306C53.7864 123.05 53.1784 122.773 52.3677 122.474C51.4291 122.111 50.6184 121.727 49.9357 121.322C49.2531 120.917 48.7197 120.415 48.3357 119.818C47.9731 119.221 47.7917 118.453 47.7917 117.514C47.7917 116.789 47.9411 116.17 48.2397 115.658C48.5597 115.125 49.0077 114.687 49.5837 114.346C50.1597 114.005 50.8211 113.749 51.5677 113.578C52.3357 113.407 53.1571 113.322 54.0317 113.322C55.2264 113.322 56.2397 113.407 57.0717 113.578C57.9037 113.727 58.6824 113.973 59.4077 114.314ZM62.2857 136.106C62.2857 135.594 62.2964 135.157 62.3177 134.794C62.3604 134.453 62.4244 134.154 62.5097 133.898C63.0857 133.855 63.5231 133.738 63.8217 133.546C64.1417 133.375 64.3551 133.055 64.4617 132.586C64.5897 132.117 64.6537 131.423 64.6537 130.506V119.178C64.6537 118.517 64.6111 118.005 64.5257 117.642C64.4404 117.279 64.2271 117.013 63.8857 116.842C63.5657 116.65 63.0537 116.533 62.3497 116.49C62.3497 116.127 62.3711 115.765 62.4137 115.402C62.4777 115.018 62.5844 114.677 62.7337 114.378C64.0777 114.378 65.3151 114.271 66.4457 114.058C67.5977 113.823 68.4297 113.578 68.9417 113.322C69.2617 113.45 69.5071 113.663 69.6777 113.962C69.8484 114.261 69.9337 114.677 69.9337 115.21C69.9337 115.423 69.8804 115.711 69.7737 116.074C69.6671 116.437 69.5071 116.853 69.2937 117.322L69.9337 117.994V130.122C69.9337 131.039 70.0297 131.754 70.2217 132.266C70.4351 132.799 70.7764 133.183 71.2457 133.418C71.7364 133.674 72.4084 133.834 73.2617 133.898C73.3684 134.197 73.4324 134.538 73.4537 134.922C73.4964 135.327 73.5177 135.722 73.5177 136.106C73.1337 136.085 72.6431 136.063 72.0457 136.042C71.4484 136.042 70.8084 136.031 70.1257 136.01C69.4644 136.01 68.8137 136.01 68.1737 136.01C67.1284 136.01 66.0511 136.01 64.9417 136.01C63.8324 136.031 62.9471 136.063 62.2857 136.106ZM72.1417 128.554C71.6937 128.554 71.2777 128.522 70.8937 128.458C70.5097 128.394 70.0831 128.309 69.6137 128.202V125.002C69.9551 125.471 70.3177 125.834 70.7017 126.09C71.1071 126.346 71.5871 126.474 72.1417 126.474C72.5257 126.474 72.9311 126.399 73.3577 126.25C73.7844 126.101 74.1897 125.823 74.5737 125.418C74.9577 125.013 75.2564 124.437 75.4697 123.69C75.7044 122.922 75.8217 121.941 75.8217 120.746C75.8217 119.957 75.7257 119.221 75.5337 118.538C75.3631 117.834 75.0751 117.269 74.6697 116.842C74.2857 116.394 73.7524 116.17 73.0697 116.17C72.5577 116.17 72.0564 116.341 71.5657 116.682C71.0964 117.002 70.7017 117.546 70.3817 118.314C70.0831 119.061 69.9337 120.063 69.9337 121.322L68.5577 118.09C68.9204 117.194 69.2724 116.501 69.6137 116.01C69.9551 115.498 70.2857 115.114 70.6057 114.858C70.8617 114.623 71.1924 114.389 71.5977 114.154C72.0244 113.919 72.5044 113.727 73.0377 113.578C73.5924 113.407 74.1684 113.322 74.7657 113.322C76.0244 113.322 77.1231 113.557 78.0617 114.026C79.0217 114.474 79.7791 115.178 80.3337 116.138C80.9097 117.098 81.1977 118.346 81.1977 119.882C81.1977 121.61 80.8137 123.125 80.0457 124.426C79.2991 125.727 78.2431 126.741 76.8777 127.466C75.5337 128.191 73.9551 128.554 72.1417 128.554ZM91.5097 128.554C89.7177 128.554 88.2031 128.255 86.9657 127.658C85.7497 127.039 84.8324 126.175 84.2137 125.066C83.5951 123.957 83.2857 122.655 83.2857 121.162C83.2857 119.434 83.6484 117.994 84.3737 116.842C85.1204 115.669 86.1337 114.794 87.4137 114.218C88.6937 113.621 90.1337 113.322 91.7337 113.322C93.5684 113.322 95.0937 113.642 96.3097 114.282C97.5471 114.922 98.4751 115.797 99.0937 116.906C99.7124 118.015 100.022 119.295 100.022 120.746C100.022 122.346 99.6804 123.733 98.9977 124.906C98.3151 126.079 97.3337 126.986 96.0537 127.626C94.7737 128.245 93.2591 128.554 91.5097 128.554ZM92.0217 126.314C92.8964 126.314 93.5577 125.866 94.0057 124.97C94.4537 124.074 94.6777 122.965 94.6777 121.642C94.6777 120.255 94.5177 119.103 94.1977 118.186C93.8777 117.269 93.4617 116.586 92.9497 116.138C92.4377 115.669 91.8831 115.434 91.2857 115.434C90.3684 115.434 89.6964 115.882 89.2697 116.778C88.8431 117.674 88.6297 118.773 88.6297 120.074C88.6297 121.247 88.7577 122.314 89.0137 123.274C89.2697 124.213 89.6537 124.959 90.1657 125.514C90.6777 126.047 91.2964 126.314 92.0217 126.314ZM104.247 121.642V119.178C104.247 118.517 104.205 118.005 104.119 117.642C104.034 117.279 103.821 117.013 103.479 116.842C103.159 116.65 102.647 116.533 101.943 116.49C101.943 116.127 101.965 115.765 102.007 115.402C102.071 115.018 102.178 114.677 102.327 114.378C103.671 114.378 104.909 114.271 106.039 114.058C107.191 113.823 108.023 113.578 108.535 113.322C108.855 113.45 109.101 113.663 109.271 113.962C109.442 114.261 109.527 114.677 109.527 115.21L104.247 121.642ZM119.959 123.37C119.959 124.437 120.066 125.173 120.279 125.578C120.493 125.962 120.887 126.154 121.463 126.154C121.591 126.453 121.666 126.783 121.687 127.146C121.73 127.487 121.751 127.893 121.751 128.362C121.282 128.341 120.642 128.319 119.831 128.298C119.042 128.277 118.285 128.266 117.559 128.266C117.069 128.266 116.503 128.266 115.863 128.266C115.223 128.287 114.615 128.298 114.039 128.298C113.463 128.319 113.015 128.341 112.695 128.362C112.695 127.957 112.706 127.573 112.727 127.21C112.77 126.826 112.855 126.474 112.983 126.154C113.517 126.154 113.933 125.941 114.231 125.514C114.53 125.066 114.679 124.266 114.679 123.114V120.234C114.679 118.933 114.487 118.037 114.103 117.546C113.719 117.034 113.165 116.778 112.439 116.778C111.927 116.778 111.447 116.981 110.999 117.386C110.551 117.791 110.189 118.367 109.911 119.114C109.655 119.861 109.527 120.767 109.527 121.834V123.37C109.527 124.458 109.666 125.194 109.943 125.578C110.221 125.962 110.637 126.154 111.191 126.154C111.341 126.495 111.426 126.837 111.447 127.178C111.49 127.519 111.511 127.914 111.511 128.362C111.191 128.341 110.765 128.319 110.231 128.298C109.698 128.298 109.133 128.287 108.535 128.266C107.938 128.266 107.394 128.266 106.903 128.266C106.413 128.266 105.837 128.266 105.175 128.266C104.514 128.287 103.874 128.298 103.255 128.298C102.658 128.319 102.199 128.341 101.879 128.362C101.879 127.914 101.901 127.498 101.943 127.114C102.007 126.73 102.082 126.41 102.167 126.154C102.999 126.154 103.554 125.962 103.831 125.578C104.109 125.173 104.247 124.437 104.247 123.37V119.178L109.527 115.21C109.527 115.466 109.495 115.765 109.431 116.106C109.367 116.426 109.282 116.767 109.175 117.13C109.325 116.789 109.474 116.469 109.623 116.17C109.794 115.871 109.997 115.594 110.231 115.338C110.701 114.826 111.309 114.389 112.055 114.026C112.823 113.663 113.677 113.482 114.615 113.482C115.554 113.482 116.429 113.653 117.239 113.994C118.05 114.335 118.701 114.89 119.191 115.658C119.703 116.426 119.959 117.439 119.959 118.698V123.37ZM135.689 114.314C135.668 114.869 135.657 115.445 135.657 116.042C135.678 116.618 135.732 117.183 135.817 117.738C135.497 117.909 135.081 118.058 134.569 118.186C134.078 118.314 133.577 118.378 133.065 118.378C133.001 117.845 132.852 117.365 132.617 116.938C132.404 116.49 132.094 116.138 131.689 115.882C131.305 115.626 130.804 115.498 130.185 115.498C129.758 115.498 129.417 115.615 129.161 115.85C128.926 116.063 128.809 116.351 128.809 116.714C128.809 116.97 128.873 117.215 129.001 117.45C129.15 117.685 129.46 117.951 129.929 118.25C130.42 118.527 131.166 118.879 132.169 119.306C133.385 119.797 134.334 120.266 135.017 120.714C135.721 121.162 136.222 121.642 136.521 122.154C136.82 122.666 136.969 123.285 136.969 124.01C136.969 124.97 136.681 125.791 136.105 126.474C135.55 127.157 134.75 127.679 133.705 128.042C132.66 128.383 131.401 128.554 129.929 128.554C128.585 128.554 127.465 128.458 126.569 128.266C125.673 128.074 124.798 127.807 123.945 127.466C124.009 127.039 124.052 126.591 124.073 126.122C124.094 125.631 124.094 125.162 124.073 124.714C124.073 124.245 124.052 123.839 124.009 123.498C124.329 123.285 124.756 123.135 125.289 123.05C125.844 122.943 126.356 122.89 126.825 122.89C126.953 123.999 127.273 124.842 127.785 125.418C128.318 125.973 128.969 126.25 129.737 126.25C130.27 126.25 130.708 126.133 131.049 125.898C131.412 125.663 131.593 125.322 131.593 124.874C131.593 124.554 131.508 124.277 131.337 124.042C131.188 123.786 130.9 123.541 130.473 123.306C130.068 123.05 129.46 122.773 128.649 122.474C127.71 122.111 126.9 121.727 126.217 121.322C125.534 120.917 125.001 120.415 124.617 119.818C124.254 119.221 124.073 118.453 124.073 117.514C124.073 116.789 124.222 116.17 124.521 115.658C124.841 115.125 125.289 114.687 125.865 114.346C126.441 114.005 127.102 113.749 127.849 113.578C128.617 113.407 129.438 113.322 130.313 113.322C131.508 113.322 132.521 113.407 133.353 113.578C134.185 113.727 134.964 113.973 135.689 114.314ZM149.916 128.554C149.51 128.405 149.222 128.181 149.052 127.882C148.881 127.583 148.796 127.189 148.796 126.698C148.796 126.421 148.828 126.09 148.892 125.706C148.956 125.301 149.052 124.917 149.18 124.554L149.308 124.426C149.116 125.087 148.87 125.663 148.572 126.154C148.273 126.623 147.921 127.018 147.516 127.338C147.068 127.722 146.524 128.01 145.884 128.202C145.244 128.394 144.508 128.49 143.676 128.49C142.204 128.49 141.052 128.181 140.22 127.562C139.388 126.943 138.972 126.037 138.972 124.842C138.972 124.031 139.153 123.338 139.516 122.762C139.9 122.165 140.412 121.663 141.052 121.258C141.713 120.831 142.438 120.49 143.228 120.234C144.038 119.978 144.87 119.775 145.724 119.626C146.598 119.455 147.452 119.306 148.284 119.178C148.284 118.666 148.262 118.218 148.22 117.834C148.198 117.45 148.134 117.119 148.028 116.842C147.942 116.543 147.793 116.287 147.58 116.074C147.345 115.797 147.068 115.605 146.748 115.498C146.449 115.391 146.15 115.338 145.852 115.338C145.318 115.338 144.881 115.498 144.54 115.818C144.198 116.138 143.942 116.575 143.772 117.13C143.601 117.663 143.484 118.25 143.42 118.89C142.801 118.89 142.246 118.869 141.756 118.826C141.265 118.783 140.817 118.677 140.412 118.506C140.454 117.909 140.465 117.279 140.444 116.618C140.422 115.957 140.337 115.263 140.188 114.538C141.105 114.154 142.182 113.855 143.42 113.642C144.657 113.407 145.841 113.29 146.972 113.29C148.38 113.29 149.489 113.45 150.3 113.77C151.11 114.069 151.718 114.421 152.124 114.826C152.55 115.253 152.892 115.861 153.148 116.65C153.425 117.418 153.564 118.559 153.564 120.074V122.538C153.564 123.263 153.606 123.818 153.692 124.202C153.777 124.586 153.948 124.853 154.204 125.002C154.481 125.13 154.876 125.205 155.388 125.226C155.452 125.631 155.462 126.026 155.42 126.41C155.377 126.794 155.27 127.157 155.1 127.498C154.225 127.519 153.34 127.615 152.444 127.786C151.548 127.957 150.705 128.213 149.916 128.554ZM145.564 125.45C145.99 125.45 146.406 125.322 146.812 125.066C147.238 124.789 147.59 124.373 147.868 123.818C148.145 123.263 148.284 122.581 148.284 121.77V121.034C147.622 121.162 147.025 121.311 146.492 121.482C145.98 121.653 145.553 121.845 145.212 122.058C144.87 122.271 144.614 122.527 144.444 122.826C144.273 123.125 144.188 123.477 144.188 123.882C144.188 124.437 144.316 124.842 144.572 125.098C144.849 125.333 145.18 125.45 145.564 125.45ZM163.401 125.002C163.742 125.471 164.105 125.834 164.489 126.09C164.894 126.346 165.374 126.474 165.929 126.474C166.313 126.474 166.718 126.399 167.145 126.25C167.571 126.101 167.977 125.823 168.361 125.418C168.745 124.991 169.043 124.405 169.257 123.658C169.491 122.911 169.609 121.941 169.609 120.746C169.609 119.893 169.502 119.125 169.289 118.442C169.097 117.738 168.798 117.183 168.393 116.778C167.987 116.373 167.465 116.17 166.825 116.17C166.334 116.17 165.843 116.341 165.353 116.682C164.883 117.002 164.489 117.546 164.169 118.314C163.87 119.061 163.721 120.074 163.721 121.354V125.93L163.401 125.002ZM165.961 128.554C164.83 128.554 163.71 128.458 162.601 128.266C161.513 128.074 160.531 127.807 159.657 127.466C158.803 127.103 158.153 126.698 157.705 126.25C157.961 125.93 158.142 125.514 158.249 125.002C158.377 124.469 158.441 123.775 158.441 122.922V110.73C158.441 110.239 158.377 109.834 158.249 109.514C158.142 109.194 157.918 108.959 157.577 108.81C157.235 108.639 156.734 108.533 156.073 108.49C156.073 108.127 156.094 107.765 156.137 107.402C156.201 107.018 156.307 106.677 156.457 106.378C157.331 106.378 158.185 106.325 159.017 106.218C159.849 106.111 160.585 105.983 161.225 105.834C161.886 105.663 162.377 105.493 162.697 105.322C163.017 105.45 163.262 105.663 163.433 105.962C163.625 106.261 163.721 106.666 163.721 107.178V113.418C163.721 114.058 163.699 114.57 163.657 114.954C163.614 115.317 163.539 115.722 163.433 116.17L163.081 118.378L162.313 118.09C162.697 117.194 163.059 116.501 163.401 116.01C163.742 115.498 164.073 115.114 164.393 114.858C164.649 114.623 164.979 114.389 165.385 114.154C165.811 113.919 166.291 113.727 166.825 113.578C167.379 113.407 167.955 113.322 168.553 113.322C169.79 113.322 170.889 113.557 171.849 114.026C172.809 114.474 173.566 115.189 174.121 116.17C174.697 117.151 174.985 118.41 174.985 119.946C174.985 121.653 174.601 123.157 173.833 124.458C173.086 125.738 172.041 126.741 170.697 127.466C169.353 128.191 167.774 128.554 165.961 128.554ZM176.716 128.362C176.716 127.914 176.738 127.509 176.78 127.146C176.823 126.762 176.887 126.431 176.972 126.154C177.826 126.111 178.391 125.909 178.668 125.546C178.946 125.162 179.084 124.437 179.084 123.37V110.474C179.084 110.047 179.01 109.695 178.86 109.418C178.732 109.141 178.498 108.927 178.156 108.778C177.815 108.629 177.335 108.533 176.716 108.49C176.716 108.127 176.738 107.765 176.78 107.402C176.844 107.018 176.951 106.677 177.1 106.378C177.975 106.378 178.828 106.325 179.66 106.218C180.492 106.111 181.228 105.983 181.868 105.834C182.53 105.663 183.02 105.493 183.34 105.322C183.66 105.45 183.906 105.663 184.076 105.962C184.268 106.261 184.364 106.666 184.364 107.178V123.37C184.364 124.437 184.503 125.162 184.78 125.546C185.058 125.909 185.602 126.111 186.412 126.154C186.498 126.431 186.551 126.762 186.572 127.146C186.615 127.53 186.636 127.935 186.636 128.362C186.359 128.341 185.954 128.319 185.42 128.298C184.887 128.298 184.29 128.287 183.628 128.266C182.988 128.266 182.338 128.266 181.676 128.266C181.036 128.266 180.386 128.266 179.724 128.266C179.063 128.287 178.466 128.298 177.932 128.298C177.399 128.319 176.994 128.341 176.716 128.362ZM196.569 128.554C194.649 128.554 193.092 128.223 191.897 127.562C190.724 126.901 189.86 126.005 189.305 124.874C188.751 123.743 188.473 122.474 188.473 121.066C188.473 119.487 188.783 118.122 189.401 116.97C190.02 115.818 190.916 114.922 192.089 114.282C193.263 113.642 194.639 113.322 196.217 113.322C197.796 113.322 199.097 113.621 200.121 114.218C201.145 114.794 201.903 115.605 202.393 116.65C202.905 117.674 203.183 118.869 203.225 120.234C203.055 120.938 202.745 121.503 202.297 121.93C201.679 121.93 200.975 121.93 200.185 121.93C199.396 121.93 198.564 121.941 197.689 121.962C196.836 121.962 195.961 121.983 195.065 122.026C194.191 122.069 193.348 122.122 192.537 122.186V119.882H198.425C198.425 118.431 198.233 117.333 197.849 116.586C197.487 115.839 196.932 115.466 196.185 115.466C195.695 115.466 195.257 115.647 194.873 116.01C194.511 116.351 194.233 116.874 194.041 117.578C193.849 118.261 193.753 119.114 193.753 120.138C193.753 121.247 193.892 122.239 194.169 123.114C194.447 123.989 194.905 124.671 195.545 125.162C196.185 125.653 197.049 125.898 198.137 125.898C198.884 125.898 199.631 125.77 200.377 125.514C201.124 125.258 201.743 124.927 202.233 124.522C202.447 124.65 202.639 124.906 202.809 125.29C202.98 125.653 203.065 126.026 203.065 126.41C202.233 127.114 201.284 127.647 200.217 128.01C199.172 128.373 197.956 128.554 196.569 128.554Z" fill="#5F260E"/>
</g>
<g filter="url(#filter6_d_502_3143)">
<path d="M70.4587 185.459C85.5745 185.459 97.8283 173.205 97.8283 158.089C97.8283 142.973 85.5745 130.719 70.4587 130.719C55.3429 130.719 43.0891 142.973 43.0891 158.089C43.0891 173.205 55.3429 185.459 70.4587 185.459Z" fill="url(#paint5_radial_502_3143)"/>
</g>
<defs>
<filter id="filter0_d_502_3143" x="100.359" y="32.9058" width="74.7391" height="74.7391" filterUnits="userSpaceOnUse" color-interpolation-filters="sRGB">
<feFlood flood-opacity="0" result="BackgroundImageFix"/>
<feColorMatrix in="SourceAlpha" type="matrix" values="0 0 0 0 0 0 0 0 0 0 0 0 0 0 0 0 0 0 127 0" result="hardAlpha"/>
<feOffset dx="4" dy="6"/>
<feGaussianBlur stdDeviation="5"/>
<feColorMatrix type="matrix" values="0 0 0 0 0.113725 0 0 0 0 0.113725 0 0 0 0 0.105882 0 0 0 0.5 0"/>
<feBlend mode="normal" in2="BackgroundImageFix" result="effect1_dropShadow_502_3143"/>
<feBlend mode="normal" in="SourceGraphic" in2="effect1_dropShadow_502_3143" result="shape"/>
</filter>
<filter id="filter1_d_502_3143" x="164.719" y="168.172" width="74.7391" height="74.7391" filterUnits="userSpaceOnUse" color-interpolation-filters="sRGB">
<feFlood flood-opacity="0" result="BackgroundImageFix"/>
<feColorMatrix in="SourceAlpha" type="matrix" values="0 0 0 0 0 0 0 0 0 0 0 0 0 0 0 0 0 0 127 0" result="hardAlpha"/>
<feOffset dx="4" dy="6"/>
<feGaussianBlur stdDeviation="5"/>
<feColorMatrix type="matrix" values="0 0 0 0 0.113725 0 0 0 0 0.113725 0 0 0 0 0.105882 0 0 0 0.5 0"/>
<feBlend mode="normal" in2="BackgroundImageFix" result="effect1_dropShadow_502_3143"/>
<feBlend mode="normal" in="SourceGraphic" in2="effect1_dropShadow_502_3143" result="shape"/>
</filter>
<filter id="filter2_d_502_3143" x="185.445" y="78.7218" width="74.7391" height="74.7391" filterUnits="userSpaceOnUse" color-interpolation-filters="sRGB">
<feFlood flood-opacity="0" result="BackgroundImageFix"/>
<feColorMatrix in="SourceAlpha" type="matrix" values="0 0 0 0 0 0 0 0 0 0 0 0 0 0 0 0 0 0 127 0" result="hardAlpha"/>
<feOffset dx="4" dy="6"/>
<feGaussianBlur stdDeviation="5"/>
<feColorMatrix type="matrix" values="0 0 0 0 0.113725 0 0 0 0 0.113725 0 0 0 0 0.105882 0 0 0 0.5 0"/>
<feBlend mode="normal" in2="BackgroundImageFix" result="effect1_dropShadow_502_3143"/>
<feBlend mode="normal" in="SourceGraphic" in2="effect1_dropShadow_502_3143" result="shape"/>
</filter>
<filter id="filter3_d_502_3143" x="64.3605" y="205.261" width="74.7391" height="74.7391" filterUnits="userSpaceOnUse" color-interpolation-filters="sRGB">
<feFlood flood-opacity="0" result="BackgroundImageFix"/>
<feColorMatrix in="SourceAlpha" type="matrix" values="0 0 0 0 0 0 0 0 0 0 0 0 0 0 0 0 0 0 127 0" result="hardAlpha"/>
<feOffset dx="4" dy="6"/>
<feGaussianBlur stdDeviation="5"/>
<feColorMatrix type="matrix" values="0 0 0 0 0.113725 0 0 0 0 0.113725 0 0 0 0 0.105882 0 0 0 0.5 0"/>
<feBlend mode="normal" in2="BackgroundImageFix" result="effect1_dropShadow_502_3143"/>
<feBlend mode="normal" in="SourceGraphic" in2="effect1_dropShadow_502_3143" result="shape"/>
</filter>
<filter id="filter4_d_502_3143" x="0" y="0.180176" width="74.7391" height="74.7391" filterUnits="userSpaceOnUse" color-interpolation-filters="sRGB">
<feFlood flood-opacity="0" result="BackgroundImageFix"/>
<feColorMatrix in="SourceAlpha" type="matrix" values="0 0 0 0 0 0 0 0 0 0 0 0 0 0 0 0 0 0 127 0" result="hardAlpha"/>
<feOffset dx="4" dy="6"/>
<feGaussianBlur stdDeviation="5"/>
<feColorMatrix type="matrix" values="0 0 0 0 0.113725 0 0 0 0 0.113725 0 0 0 0 0.105882 0 0 0 0.5 0"/>
<feBlend mode="normal" in2="BackgroundImageFix" result="effect1_dropShadow_502_3143"/>
<feBlend mode="normal" in="SourceGraphic" in2="effect1_dropShadow_502_3143" result="shape"/>
</filter>
<filter id="filter5_d_502_3143" x="10.692" y="104.322" width="196.533" height="38.7841" filterUnits="userSpaceOnUse" color-interpolation-filters="sRGB">
<feFlood flood-opacity="0" result="BackgroundImageFix"/>
<feColorMatrix in="SourceAlpha" type="matrix" values="0 0 0 0 0 0 0 0 0 0 0 0 0 0 0 0 0 0 127 0" result="hardAlpha"/>
<feOffset dy="3"/>
<feGaussianBlur stdDeviation="2"/>
<feComposite in2="hardAlpha" operator="out"/>
<feColorMatrix type="matrix" values="0 0 0 0 0 0 0 0 0 0 0 0 0 0 0 0 0 0 0.3 0"/>
<feBlend mode="normal" in2="BackgroundImageFix" result="effect1_dropShadow_502_3143"/>
<feBlend mode="normal" in="SourceGraphic" in2="effect1_dropShadow_502_3143" result="shape"/>
</filter>
<filter id="filter6_d_502_3143" x="37.0891" y="126.719" width="74.7391" height="74.7391" filterUnits="userSpaceOnUse" color-interpolation-filters="sRGB">
<feFlood flood-opacity="0" result="BackgroundImageFix"/>
<feColorMatrix in="SourceAlpha" type="matrix" values="0 0 0 0 0 0 0 0 0 0 0 0 0 0 0 0 0 0 127 0" result="hardAlpha"/>
<feOffset dx="4" dy="6"/>
<feGaussianBlur stdDeviation="5"/>
<feColorMatrix type="matrix" values="0 0 0 0 0.113725 0 0 0 0 0.113725 0 0 0 0 0.105882 0 0 0 0.5 0"/>
<feBlend mode="normal" in2="BackgroundImageFix" result="effect1_dropShadow_502_3143"/>
<feBlend mode="normal" in="SourceGraphic" in2="effect1_dropShadow_502_3143" result="shape"/>
</filter>
<radialGradient id="paint0_radial_502_3143" cx="0" cy="0" r="1" gradientUnits="userSpaceOnUse" gradientTransform="translate(133.728 64.2754) scale(27.3696 27.3696)">
<stop stop-color="#FAEAA3"/>
<stop offset="0.135" stop-color="#FAEAA3"/>
<stop offset="0.53" stop-color="#FADD5D"/>
<stop offset="0.6925" stop-color="#F6D335"/>
<stop offset="0.985" stop-color="#DCB404"/>
</radialGradient>
<radialGradient id="paint1_radial_502_3143" cx="0" cy="0" r="1" gradientUnits="userSpaceOnUse" gradientTransform="translate(198.089 199.542) scale(27.3696 27.3696)">
<stop stop-color="#FAEAA3"/>
<stop offset="0.135" stop-color="#FAEAA3"/>
<stop offset="0.53" stop-color="#FADD5D"/>
<stop offset="0.6925" stop-color="#F6D335"/>
<stop offset="0.985" stop-color="#DCB404"/>
</radialGradient>
<radialGradient id="paint2_radial_502_3143" cx="0" cy="0" r="1" gradientUnits="userSpaceOnUse" gradientTransform="translate(218.815 110.091) scale(27.3696 27.3696)">
<stop stop-color="#F2CBB1"/>
<stop offset="0.365" stop-color="#ECA373"/>
<stop offset="0.685" stop-color="#F57926"/>
<stop offset="1" stop-color="#E1600A"/>
</radialGradient>
<radialGradient id="paint3_radial_502_3143" cx="0" cy="0" r="1" gradientUnits="userSpaceOnUse" gradientTransform="translate(97.73 236.631) scale(27.3696 27.3696)">
<stop stop-color="#F2CBB1"/>
<stop offset="0.365" stop-color="#ECA373"/>
<stop offset="0.685" stop-color="#F57926"/>
<stop offset="1" stop-color="#E1600A"/>
</radialGradient>
<radialGradient id="paint4_radial_502_3143" cx="0" cy="0" r="1" gradientUnits="userSpaceOnUse" gradientTransform="translate(33.3696 31.5497) scale(27.3696 27.3696)">
<stop stop-color="#F2CBB1"/>
<stop offset="0.365" stop-color="#ECA373"/>
<stop offset="0.685" stop-color="#F57926"/>
<stop offset="1" stop-color="#E1600A"/>
</radialGradient>
<radialGradient id="paint5_radial_502_3143" cx="0" cy="0" r="1" gradientUnits="userSpaceOnUse" gradientTransform="translate(70.4587 158.089) scale(27.3696 27.3696)">
<stop stop-color="#FAEAA3"/>
<stop offset="0.135" stop-color="#FAEAA3"/>
<stop offset="0.53" stop-color="#FADD5D"/>
<stop offset="0.6925" stop-color="#F6D335"/>
<stop offset="0.985" stop-color="#DCB404"/>
</radialGradient>
</defs>
</svg>
