<svg width="98" height="86" viewBox="0 0 98 86" fill="none" xmlns="http://www.w3.org/2000/svg">
<path d="M33.7044 20.6186C33.7044 20.6186 41.9059 2.94546 58.6689 3.31655C75.4319 3.68764 81.0311 21.9174 81.217 27.1243C81.217 27.1243 98.3634 32.5167 91.8347 50.932C91.8347 50.932 105.81 71.5738 79.3467 74.1831C79.3467 74.1831 68.3573 87.5771 56.9844 76.6067C56.9844 76.6067 27.9193 100.229 16.5581 64.5115C16.5581 64.5115 -12.5303 52.1728 11.528 34.7548C11.528 34.7548 13.3867 18.7632 33.7044 20.6186Z" fill="#16A638" stroke="white" stroke-width="3" stroke-miterlimit="10"/>
<path d="M55.2304 16.0612L50.0145 12.2691L44.7753 16.0496L46.785 9.91505L41.5691 6.12298L48.028 6.13457L50.0261 0L52.0126 6.13457L58.4715 6.14617L53.2439 9.92665L55.2304 16.0612Z" fill="#FFD103"/>
<path d="M20.5542 69.3937L17.2202 66.9584L13.8745 69.3821L15.1524 65.4625L11.8184 63.0272L15.9423 63.0388L17.2318 59.1191L18.498 63.0388L22.6336 63.0504L19.2879 65.4625L20.5542 69.3937Z" fill="#FFD103"/>
<path d="M86.003 36.1811L82.1231 33.3632L78.2314 36.1695L79.7184 31.6237L75.8384 28.7941L80.6477 28.8057L82.1347 24.2483L83.61 28.8057L88.4077 28.8173L84.5277 31.6237L86.003 36.1811Z" fill="#FFD103"/>
<path d="M37.5497 49.5288L24.7131 65.045H35.7955L38.7578 75.5631L49.9796 60.7311L37.5497 49.5288Z" fill="#D61016"/>
<path d="M54.7075 59.6527L65.9293 75.5632L69.2982 65.1843L80.6594 65.3119L69.2982 51.5583L54.7075 59.6527Z" fill="#D61016"/>
<path d="M52.3493 61.5545C63.2561 61.5545 72.0978 52.7282 72.0978 41.8404C72.0978 30.9525 63.2561 22.1262 52.3493 22.1262C41.4425 22.1262 32.6008 30.9525 32.6008 41.8404C32.6008 52.7282 41.4425 61.5545 52.3493 61.5545Z" fill="#FFD103"/>
<path d="M57.5654 49.0302L52.3494 45.2381L47.1103 49.0186L49.12 42.884L43.9041 39.092L50.363 39.1036L52.3611 32.969L54.3475 39.1036L60.8064 39.1152L55.5789 42.8956L57.5654 49.0302Z" fill="#D61016"/>
</svg>
