<svg width="105" height="33" viewBox="0 0 105 33" fill="none" xmlns="http://www.w3.org/2000/svg">
<path d="M13 0L15.9187 8.98278H25.3637L17.7225 14.5344L20.6412 23.5172L13 17.9656L5.35879 23.5172L8.27747 14.5344L0.636266 8.98278H10.0813L13 0Z" fill="#2BC191"/>
<path d="M33.2832 8.78125V23H31.4277V8.78125H33.2832ZM37.8535 8.78125V10.3242H26.8672V8.78125H37.8535ZM40.7539 14.0938V23H38.9473V12.4336H40.7051L40.7539 14.0938ZM44.0547 12.375L44.0449 14.0547C43.8952 14.0221 43.752 14.0026 43.6152 13.9961C43.485 13.9831 43.3353 13.9766 43.166 13.9766C42.7493 13.9766 42.3815 14.0417 42.0625 14.1719C41.7435 14.3021 41.4733 14.4844 41.252 14.7188C41.0306 14.9531 40.8548 15.2331 40.7246 15.5586C40.6009 15.8776 40.5195 16.2292 40.4805 16.6133L39.9727 16.9062C39.9727 16.2682 40.0345 15.6693 40.1582 15.1094C40.2884 14.5495 40.487 14.0547 40.7539 13.625C41.0208 13.1888 41.3594 12.8503 41.7695 12.6094C42.1862 12.362 42.681 12.2383 43.2539 12.2383C43.3841 12.2383 43.5339 12.2546 43.7031 12.2871C43.8724 12.3132 43.9896 12.3424 44.0547 12.375ZM52.1895 20.5586V12.4336H54.0059V23H52.2773L52.1895 20.5586ZM52.5312 18.332L53.2832 18.3125C53.2832 19.0156 53.2083 19.6667 53.0586 20.2656C52.9154 20.8581 52.681 21.3724 52.3555 21.8086C52.0299 22.2448 51.6035 22.5866 51.0762 22.834C50.5488 23.0749 49.9076 23.1953 49.1523 23.1953C48.638 23.1953 48.166 23.1204 47.7363 22.9707C47.3132 22.821 46.9486 22.5898 46.6426 22.2773C46.3366 21.9648 46.099 21.5579 45.9297 21.0566C45.7669 20.5553 45.6855 19.9531 45.6855 19.25V12.4336H47.4922V19.2695C47.4922 19.7448 47.5443 20.1387 47.6484 20.4512C47.7591 20.7572 47.9056 21.0013 48.0879 21.1836C48.2767 21.3594 48.485 21.4831 48.7129 21.5547C48.9473 21.6263 49.1882 21.6621 49.4355 21.6621C50.2038 21.6621 50.8125 21.5156 51.2617 21.2227C51.7109 20.9232 52.0332 20.5228 52.2285 20.0215C52.4303 19.5137 52.5312 18.9505 52.5312 18.332ZM62.9121 20.1973C62.9121 19.9368 62.8535 19.696 62.7363 19.4746C62.6257 19.2467 62.3945 19.0417 62.043 18.8594C61.6979 18.6706 61.1771 18.5078 60.4805 18.3711C59.8945 18.2474 59.3639 18.1009 58.8887 17.9316C58.4199 17.7624 58.0195 17.5573 57.6875 17.3164C57.362 17.0755 57.1113 16.7923 56.9355 16.4668C56.7598 16.1413 56.6719 15.7604 56.6719 15.3242C56.6719 14.9076 56.763 14.5137 56.9453 14.1426C57.1341 13.7715 57.3978 13.4427 57.7363 13.1562C58.0814 12.8698 58.4948 12.6452 58.9766 12.4824C59.4583 12.3197 59.9954 12.2383 60.5879 12.2383C61.4342 12.2383 62.1569 12.388 62.7559 12.6875C63.3548 12.987 63.8138 13.3874 64.1328 13.8887C64.4518 14.3835 64.6113 14.9336 64.6113 15.5391H62.8047C62.8047 15.2461 62.7168 14.9629 62.541 14.6895C62.3717 14.4095 62.1211 14.1784 61.7891 13.9961C61.4635 13.8138 61.0632 13.7227 60.5879 13.7227C60.0866 13.7227 59.6797 13.8008 59.3672 13.957C59.0612 14.1068 58.8366 14.2988 58.6934 14.5332C58.5566 14.7676 58.4883 15.015 58.4883 15.2754C58.4883 15.4707 58.5208 15.6465 58.5859 15.8027C58.6576 15.9525 58.7812 16.0924 58.957 16.2227C59.1328 16.3464 59.3802 16.4635 59.6992 16.5742C60.0182 16.6849 60.4251 16.7956 60.9199 16.9062C61.7858 17.1016 62.4987 17.3359 63.0586 17.6094C63.6185 17.8828 64.0352 18.2181 64.3086 18.6152C64.582 19.0124 64.7188 19.4941 64.7188 20.0605C64.7188 20.5228 64.6211 20.946 64.4258 21.3301C64.237 21.7142 63.9603 22.0462 63.5957 22.3262C63.2376 22.5996 62.8079 22.8145 62.3066 22.9707C61.8118 23.1204 61.2552 23.1953 60.6367 23.1953C59.7057 23.1953 58.918 23.0293 58.2734 22.6973C57.6289 22.3652 57.1406 21.9355 56.8086 21.4082C56.4766 20.8809 56.3105 20.3242 56.3105 19.7383H58.127C58.153 20.2331 58.2962 20.627 58.5566 20.9199C58.8171 21.2064 59.1361 21.4115 59.5137 21.5352C59.8913 21.6523 60.2656 21.7109 60.6367 21.7109C61.1315 21.7109 61.5449 21.6458 61.877 21.5156C62.2155 21.3854 62.4727 21.2064 62.6484 20.9785C62.8242 20.7507 62.9121 20.4902 62.9121 20.1973ZM68.8984 14.4648V27.0625H67.082V12.4336H68.7422L68.8984 14.4648ZM76.0176 17.6289V17.834C76.0176 18.6022 75.9264 19.3151 75.7441 19.9727C75.5618 20.6237 75.2949 21.1901 74.9434 21.6719C74.5983 22.1536 74.1719 22.528 73.6641 22.7949C73.1562 23.0618 72.5736 23.1953 71.916 23.1953C71.2454 23.1953 70.653 23.0846 70.1387 22.8633C69.6243 22.6419 69.1882 22.3197 68.8301 21.8965C68.472 21.4733 68.1855 20.9655 67.9707 20.373C67.7624 19.7806 67.6191 19.1133 67.541 18.3711V17.2773C67.6191 16.4961 67.7656 15.7962 67.9805 15.1777C68.1953 14.5592 68.4785 14.0319 68.8301 13.5957C69.1882 13.153 69.6211 12.8177 70.1289 12.5898C70.6367 12.3555 71.2227 12.2383 71.8867 12.2383C72.5508 12.2383 73.14 12.3685 73.6543 12.6289C74.1686 12.8828 74.6016 13.2474 74.9531 13.7227C75.3047 14.1979 75.5684 14.7676 75.7441 15.4316C75.9264 16.0892 76.0176 16.8216 76.0176 17.6289ZM74.2012 17.834V17.6289C74.2012 17.1016 74.1458 16.6068 74.0352 16.1445C73.9245 15.6758 73.752 15.2656 73.5176 14.9141C73.2897 14.556 72.9967 14.276 72.6387 14.0742C72.2806 13.8659 71.8542 13.7617 71.3594 13.7617C70.9036 13.7617 70.5065 13.8398 70.168 13.9961C69.8359 14.1523 69.5527 14.3639 69.3184 14.6309C69.084 14.8913 68.8919 15.1908 68.7422 15.5293C68.599 15.8613 68.4915 16.2064 68.4199 16.5645V19.0938C68.5501 19.5495 68.7324 19.9792 68.9668 20.3828C69.2012 20.7799 69.5137 21.1022 69.9043 21.3496C70.2949 21.5905 70.7865 21.7109 71.3789 21.7109C71.8672 21.7109 72.2871 21.61 72.6387 21.4082C72.9967 21.1999 73.2897 20.9167 73.5176 20.5586C73.752 20.2005 73.9245 19.7904 74.0352 19.3281C74.1458 18.8594 74.2012 18.3613 74.2012 17.834ZM80.2852 12.4336V23H78.4688V12.4336H80.2852ZM78.332 9.63086C78.332 9.33789 78.4199 9.09049 78.5957 8.88867C78.778 8.68685 79.0449 8.58594 79.3965 8.58594C79.7415 8.58594 80.0052 8.68685 80.1875 8.88867C80.3763 9.09049 80.4707 9.33789 80.4707 9.63086C80.4707 9.91081 80.3763 10.1517 80.1875 10.3535C80.0052 10.5488 79.7415 10.6465 79.3965 10.6465C79.0449 10.6465 78.778 10.5488 78.5957 10.3535C78.4199 10.1517 78.332 9.91081 78.332 9.63086ZM85.1484 8V23H83.332V8H85.1484ZM87.5703 17.834V17.6094C87.5703 16.8477 87.681 16.1413 87.9023 15.4902C88.1237 14.8327 88.4427 14.263 88.8594 13.7812C89.276 13.293 89.7806 12.9154 90.373 12.6484C90.9655 12.375 91.6296 12.2383 92.3652 12.2383C93.1074 12.2383 93.7747 12.375 94.3672 12.6484C94.9661 12.9154 95.474 13.293 95.8906 13.7812C96.3138 14.263 96.6361 14.8327 96.8574 15.4902C97.0788 16.1413 97.1895 16.8477 97.1895 17.6094V17.834C97.1895 18.5957 97.0788 19.3021 96.8574 19.9531C96.6361 20.6042 96.3138 21.1738 95.8906 21.6621C95.474 22.1439 94.9694 22.5215 94.377 22.7949C93.791 23.0618 93.127 23.1953 92.3848 23.1953C91.6426 23.1953 90.9753 23.0618 90.3828 22.7949C89.7904 22.5215 89.2826 22.1439 88.8594 21.6621C88.4427 21.1738 88.1237 20.6042 87.9023 19.9531C87.681 19.3021 87.5703 18.5957 87.5703 17.834ZM89.377 17.6094V17.834C89.377 18.3613 89.4388 18.8594 89.5625 19.3281C89.6862 19.7904 89.8717 20.2005 90.1191 20.5586C90.373 20.9167 90.6888 21.1999 91.0664 21.4082C91.444 21.61 91.8835 21.7109 92.3848 21.7109C92.8796 21.7109 93.3125 21.61 93.6836 21.4082C94.0612 21.1999 94.3737 20.9167 94.6211 20.5586C94.8685 20.2005 95.054 19.7904 95.1777 19.3281C95.3079 18.8594 95.373 18.3613 95.373 17.834V17.6094C95.373 17.0885 95.3079 16.597 95.1777 16.1348C95.054 15.666 94.8652 15.2526 94.6113 14.8945C94.3639 14.5299 94.0514 14.2435 93.6738 14.0352C93.3027 13.8268 92.8665 13.7227 92.3652 13.7227C91.8704 13.7227 91.4342 13.8268 91.0566 14.0352C90.6855 14.2435 90.373 14.5299 90.1191 14.8945C89.8717 15.2526 89.6862 15.666 89.5625 16.1348C89.4388 16.597 89.377 17.0885 89.377 17.6094ZM103.879 12.4336V13.8203H98.166V12.4336H103.879ZM100.1 9.86523H101.906V20.3828C101.906 20.7409 101.962 21.0111 102.072 21.1934C102.183 21.3757 102.326 21.4961 102.502 21.5547C102.678 21.6133 102.867 21.6426 103.068 21.6426C103.218 21.6426 103.374 21.6296 103.537 21.6035C103.706 21.571 103.833 21.5449 103.918 21.5254L103.928 23C103.785 23.0456 103.596 23.0879 103.361 23.127C103.133 23.1725 102.857 23.1953 102.531 23.1953C102.089 23.1953 101.682 23.1074 101.311 22.9316C100.939 22.7559 100.643 22.4629 100.422 22.0527C100.207 21.6361 100.1 21.0762 100.1 20.373V9.86523Z" fill="black"/>
</svg>
