<svg width="186" height="186" viewBox="0 0 186 186" fill="none" xmlns="http://www.w3.org/2000/svg">
<circle cx="93" cy="93" r="93" fill="#FFD200"/>
<path d="M129.832 143V135.85H125.106C124.88 135.85 122.744 134.782 122.405 134.546C119.816 132.727 119.59 129.502 118.809 126.687C115.224 125.824 111.762 123.564 110.221 120.113C110.047 119.733 109.225 117.308 109.225 117.113V108.381H113.807V98.6532C109.739 97.4719 108.116 92.8595 109.985 89.0586C105.907 85.9871 105.866 80.4399 109.985 77.3376C108.044 73.3108 109.79 68.9347 113.971 67.476C114.053 66.0583 113.622 64.8667 113.879 63.3772C114.31 60.8296 117.114 58.3026 119.672 58.0149C126.103 57.2958 133.92 58.4977 140.495 58.0868C144.542 59.186 146.792 63.0587 145.569 67.1781H149.72C150.274 67.1781 152.493 68.5957 152.976 69.0682C155.298 71.3282 155.554 74.451 154.25 77.3376C157.023 79.4435 158.277 83.1108 156.602 86.3672C156.181 87.1787 154.281 88.7505 154.25 89.0586C154.209 89.449 154.969 90.9899 155.03 91.9144C155.205 94.9654 153.366 97.8622 150.439 98.6429V108.371H155.02V117.103C155.02 117.36 154.126 119.887 153.931 120.298C152.36 123.605 148.929 125.855 145.436 126.677C144.707 129.44 144.368 132.738 141.84 134.535C141.501 134.772 139.365 135.84 139.139 135.84H134.413V142.99H129.832V143ZM140.628 63.2539C140.31 62.9355 139.334 62.6478 138.851 62.5965C134.958 62.165 124.716 62.165 120.813 62.5965C117.618 62.956 117.71 66.7671 120.556 67.1678C126.062 67.9382 133.17 66.6233 138.851 67.1986C140.854 67.2705 142.056 64.7024 140.628 63.2642V63.2539ZM149.781 72.4068C149.36 71.9856 148.333 71.7904 147.727 71.7391C137.731 70.8351 126.37 72.4582 116.231 71.7391C113.088 72.037 112.964 75.9714 116.231 76.3309C126.082 77.4301 137.937 75.4886 148.004 76.3309C150.007 76.3925 151.209 73.8347 149.781 72.3965V72.4068ZM152.072 81.5596C151.651 81.1385 150.624 80.9433 150.017 80.8919C138.574 79.8544 125.558 81.7035 113.95 80.8919C110.766 81.1693 110.766 85.2064 113.95 85.4838H150.305C152.308 85.5454 153.51 82.9875 152.082 81.5494L152.072 81.5596ZM149.781 90.7228C149.36 90.3016 148.333 90.1064 147.727 90.0551C137.731 89.1511 126.37 90.7741 116.231 90.0551C113.088 90.353 112.964 94.2874 116.231 94.6469C126.082 95.7461 137.937 93.8046 148.004 94.6469C150.007 94.7085 151.209 92.1507 149.781 90.7125V90.7228ZM122.97 99.2285H118.388V108.381H122.97V99.2285ZM136.704 99.2285H127.551V108.381H136.704V99.2285ZM145.857 99.2285H141.275V108.381H145.857V99.2285ZM150.439 112.953H113.817C113.057 118.695 116.878 122.794 122.672 122.126C123.268 124.396 123.576 127.57 124.408 129.687C124.809 130.693 125.476 131.145 126.534 131.279C129.02 131.567 134.886 131.515 137.423 131.279C138.327 131.197 139.211 130.981 139.683 130.098C140.33 128.885 141.275 122.403 141.573 122.116C147.357 122.783 151.189 118.695 150.428 112.942L150.439 112.953Z" fill="#5A1F06"/>
<path d="M54.2978 143V133.282C48.5657 132.645 43.3677 127.067 42.8541 121.386C42.3405 115.706 44.4155 109.974 40.1011 105.258C36.4954 101.314 33.8142 99.8038 31.4413 94.462C21.8981 72.8896 41.8885 50.3413 64.4573 56.8747C83.215 62.3089 90.3442 85.7509 77.75 100.79C75.4798 103.502 72.0488 105.341 70.8777 108.803C69.6039 112.573 70.7031 117.431 70.3127 121.397C69.758 127.108 64.6114 132.645 58.8793 133.282V143H54.2875H54.2978ZM65.7414 110.672C65.9366 109.624 66.0598 108.464 66.3886 107.457C68.1555 102.095 73.1582 99.9168 75.9832 95.3044C88.3205 75.1701 65.9366 51.6973 45.2373 63.408C33.126 70.2598 29.9004 86.8295 38.8581 97.6362C40.8201 100.009 43.604 101.745 45.2682 104.396C46.4495 106.286 47.1686 108.453 47.4357 110.662H51.7296L50.5894 90.0654H45.864C45.2476 90.0654 42.9774 88.5553 42.4638 88.0314C36.9063 82.3096 43.9533 73.2697 51.0722 77.1322C54.3799 78.9196 54.647 82.0836 54.8936 85.4735L58.15 85.5043C58.869 82.7205 58.3041 80.6249 60.4921 78.3649C66.0907 72.602 75.8907 79.3819 71.7098 86.7268C70.9907 87.9903 68.5047 90.0654 67.0357 90.0654H62.598L61.4577 110.662H65.7517L65.7414 110.672ZM49.3566 81.5597C48.0212 80.2242 45.2476 81.0666 45.1449 83.08C45.0113 85.6584 48.1753 85.6482 50.0038 85.4941C49.9935 84.3744 50.2093 82.4226 49.3464 81.5699L49.3566 81.5597ZM67.3747 81.5597C67.0974 81.2823 66.0085 80.892 65.5976 80.892C63.0808 80.892 62.9986 83.5731 63.163 85.4941C64.3546 85.453 66.4708 85.7509 67.3747 84.8366C68.1657 84.0456 68.1555 82.3507 67.3747 81.5597ZM58.0164 90.0654H55.1504L56.3009 110.097L56.8762 109.676L58.0267 90.0654H58.0164ZM65.7414 115.243H47.4254V120.821C47.4254 125.136 52.6028 129.06 56.7221 128.998C60.8414 128.937 65.7414 125.023 65.7414 120.821V115.243Z" fill="#5A1F06"/>
<path d="M32.9805 49.447L29.6973 52.7302L36.6996 59.7325L39.9828 56.4493L32.9805 49.447Z" fill="#5A1F06"/>
<path d="M80.1927 49.4379L73.1904 56.4402L76.4737 59.7234L83.476 52.7211L80.1927 49.4379Z" fill="#5A1F06"/>
<path d="M106.221 49.4502L102.938 52.7334L109.94 59.7357L113.223 56.4525L106.221 49.4502Z" fill="#5A1F06"/>
<path d="M153.213 49.7559C153.88 49.5813 156.592 52.283 156.418 52.9609L149.72 59.7408L146.433 56.4536L153.213 49.7559Z" fill="#5A1F06"/>
<path d="M58.8789 42H54.2974V51.1529H58.8789V42Z" fill="#5A1F06"/>
<path d="M132.123 42H127.541V51.1529H132.123V42Z" fill="#5A1F06"/>
</svg>
